<?xml version="1.0" encoding="UTF-8" standalone="no"?>
<!DOCTYPE svg PUBLIC "-//W3C//DTD SVG 1.1//EN"
 "http://www.w3.org/Graphics/SVG/1.1/DTD/svg11.dtd">
<!-- Generated by graphviz version 2.50.0 (20211204.2007)
 -->
<!-- Pages: 1 -->
<svg width="333pt" height="152pt"
 viewBox="0.00 0.00 333.48 152.00" xmlns="http://www.w3.org/2000/svg" xmlns:xlink="http://www.w3.org/1999/xlink">
<g id="graph0" class="graph" transform="scale(1 1) rotate(0) translate(4 148)">
<polygon fill="white" stroke="transparent" points="-4,4 -4,-148 329.48,-148 329.48,4 -4,4"/>
<!-- GXGXO1 -->
<g id="node1" class="node">
<title>GXGXO1</title>
<ellipse fill="none" stroke="black" cx="48.1" cy="-72" rx="48.19" ry="18"/>
<text text-anchor="middle" x="48.1" y="-68.3" font-family="Times New Roman,serif" font-size="14.00">GXGXO1</text>
</g>
<!-- OXXXO2 -->
<g id="node2" class="node">
<title>OXXXO2</title>
<ellipse fill="none" stroke="black" cx="180.29" cy="-126" rx="48.19" ry="18"/>
<text text-anchor="middle" x="180.29" y="-122.3" font-family="Times New Roman,serif" font-size="14.00">OXXXO2</text>
</g>
<!-- GXGXO1&#45;&gt;OXXXO2 -->
<g id="edge1" class="edge">
<title>GXGXO1&#45;&gt;OXXXO2</title>
<path fill="none" stroke="black" d="M80.94,-85.21C98.12,-92.34 119.53,-101.21 137.98,-108.87"/>
<polygon fill="black" stroke="black" points="136.74,-112.14 147.32,-112.74 139.42,-105.68 136.74,-112.14"/>
</g>
<!-- XXXXX2 -->
<g id="node4" class="node">
<title>XXXXX2</title>
<ellipse fill="none" stroke="black" cx="180.29" cy="-72" rx="46.59" ry="18"/>
<text text-anchor="middle" x="180.29" y="-68.3" font-family="Times New Roman,serif" font-size="14.00">XXXXX2</text>
</g>
<!-- GXGXO1&#45;&gt;XXXXX2 -->
<g id="edge3" class="edge">
<title>GXGXO1&#45;&gt;XXXXX2</title>
<path fill="none" stroke="black" d="M96.47,-72C105.24,-72 114.47,-72 123.46,-72"/>
<polygon fill="black" stroke="black" points="123.47,-75.5 133.47,-72 123.47,-68.5 123.47,-75.5"/>
</g>
<!-- XXXOX2 -->
<g id="node6" class="node">
<title>XXXOX2</title>
<ellipse fill="none" stroke="black" cx="180.29" cy="-18" rx="47.39" ry="18"/>
<text text-anchor="middle" x="180.29" y="-14.3" font-family="Times New Roman,serif" font-size="14.00">XXXOX2</text>
</g>
<!-- GXGXO1&#45;&gt;XXXOX2 -->
<g id="edge5" class="edge">
<title>GXGXO1&#45;&gt;XXXOX2</title>
<path fill="none" stroke="black" d="M80.94,-58.79C98.12,-51.66 119.53,-42.79 137.98,-35.13"/>
<polygon fill="black" stroke="black" points="139.42,-38.32 147.32,-31.26 136.74,-31.86 139.42,-38.32"/>
</g>
<!-- shied -->
<g id="node3" class="node">
<title>shied</title>
<ellipse fill="none" stroke="black" cx="294.93" cy="-126" rx="29.8" ry="18"/>
<text text-anchor="middle" x="294.93" y="-122.3" font-family="Times New Roman,serif" font-size="14.00">shied</text>
</g>
<!-- OXXXO2&#45;&gt;shied -->
<g id="edge2" class="edge">
<title>OXXXO2&#45;&gt;shied</title>
<path fill="none" stroke="black" d="M228.41,-126C237.23,-126 246.37,-126 254.92,-126"/>
<polygon fill="black" stroke="black" points="255,-129.5 265,-126 255,-122.5 255,-129.5"/>
</g>
<!-- skier -->
<g id="node5" class="node">
<title>skier</title>
<ellipse fill="none" stroke="black" cx="294.93" cy="-72" rx="27.9" ry="18"/>
<text text-anchor="middle" x="294.93" y="-68.3" font-family="Times New Roman,serif" font-size="14.00">skier</text>
</g>
<!-- XXXXX2&#45;&gt;skier -->
<g id="edge4" class="edge">
<title>XXXXX2&#45;&gt;skier</title>
<path fill="none" stroke="black" d="M227.1,-72C236.93,-72 247.19,-72 256.65,-72"/>
<polygon fill="black" stroke="black" points="256.91,-75.5 266.91,-72 256.91,-68.5 256.91,-75.5"/>
</g>
<!-- spied -->
<g id="node7" class="node">
<title>spied</title>
<ellipse fill="none" stroke="black" cx="294.93" cy="-18" rx="30.59" ry="18"/>
<text text-anchor="middle" x="294.93" y="-14.3" font-family="Times New Roman,serif" font-size="14.00">spied</text>
</g>
<!-- XXXOX2&#45;&gt;spied -->
<g id="edge6" class="edge">
<title>XXXOX2&#45;&gt;spied</title>
<path fill="none" stroke="black" d="M227.75,-18C236.54,-18 245.66,-18 254.22,-18"/>
<polygon fill="black" stroke="black" points="254.32,-21.5 264.32,-18 254.32,-14.5 254.32,-21.5"/>
</g>
</g>
</svg>
