<?xml version="1.0" encoding="UTF-8" standalone="no"?>
<!DOCTYPE svg PUBLIC "-//W3C//DTD SVG 1.1//EN"
 "http://www.w3.org/Graphics/SVG/1.1/DTD/svg11.dtd">
<!-- Generated by graphviz version 2.50.0 (20211204.2007)
 -->
<!-- Pages: 1 -->
<svg width="641pt" height="1772pt"
 viewBox="0.00 0.00 640.76 1772.00" xmlns="http://www.w3.org/2000/svg" xmlns:xlink="http://www.w3.org/1999/xlink">
<g id="graph0" class="graph" transform="scale(1 1) rotate(0) translate(4 1768)">
<polygon fill="white" stroke="transparent" points="-4,4 -4,-1768 636.76,-1768 636.76,4 -4,4"/>
<!-- XXXGX1 -->
<g id="node1" class="node">
<title>XXXGX1</title>
<ellipse fill="none" stroke="black" cx="47.45" cy="-531" rx="47.39" ry="18"/>
<text text-anchor="middle" x="47.45" y="-527.3" font-family="Times New Roman,serif" font-size="14.00">XXXGX1</text>
</g>
<!-- XOXGX2 -->
<g id="node2" class="node">
<title>XOXGX2</title>
<ellipse fill="none" stroke="black" cx="179.64" cy="-1422" rx="48.19" ry="18"/>
<text text-anchor="middle" x="179.64" y="-1418.3" font-family="Times New Roman,serif" font-size="14.00">XOXGX2</text>
</g>
<!-- XXXGX1&#45;&gt;XOXGX2 -->
<g id="edge1" class="edge">
<title>XXXGX1&#45;&gt;XOXGX2</title>
<path fill="none" stroke="black" d="M51.11,-549.2C67.47,-661.18 154.43,-1256.32 174.5,-1393.69"/>
<polygon fill="black" stroke="black" points="171.07,-1394.44 175.98,-1403.83 178,-1393.43 171.07,-1394.44"/>
</g>
<!-- XGGGG2 -->
<g id="node6" class="node">
<title>XGGGG2</title>
<ellipse fill="none" stroke="black" cx="179.64" cy="-936" rx="48.99" ry="18"/>
<text text-anchor="middle" x="179.64" y="-932.3" font-family="Times New Roman,serif" font-size="14.00">XGGGG2</text>
</g>
<!-- XXXGX1&#45;&gt;XGGGG2 -->
<g id="edge5" class="edge">
<title>XXXGX1&#45;&gt;XGGGG2</title>
<path fill="none" stroke="black" d="M48.56,-549.22C49.69,-605.27 59.16,-778.43 130.89,-896 134.92,-902.6 140.42,-908.63 146.26,-913.9"/>
<polygon fill="black" stroke="black" points="144.39,-916.9 154.32,-920.59 148.86,-911.52 144.39,-916.9"/>
</g>
<!-- XXGGG2 -->
<g id="node10" class="node">
<title>XXGGG2</title>
<ellipse fill="none" stroke="black" cx="179.64" cy="-869" rx="48.19" ry="18"/>
<text text-anchor="middle" x="179.64" y="-865.3" font-family="Times New Roman,serif" font-size="14.00">XXGGG2</text>
</g>
<!-- XXXGX1&#45;&gt;XXGGG2 -->
<g id="edge9" class="edge">
<title>XXXGX1&#45;&gt;XXGGG2</title>
<path fill="none" stroke="black" d="M53.62,-549C65.52,-589.73 96.49,-691.81 130.89,-774 140.77,-797.6 153.94,-823.49 163.95,-842.27"/>
<polygon fill="black" stroke="black" points="160.9,-843.99 168.72,-851.14 167.07,-840.67 160.9,-843.99"/>
</g>
<!-- XOXGO2 -->
<g id="node12" class="node">
<title>XOXGO2</title>
<ellipse fill="none" stroke="black" cx="179.64" cy="-747" rx="48.19" ry="18"/>
<text text-anchor="middle" x="179.64" y="-743.3" font-family="Times New Roman,serif" font-size="14.00">XOXGO2</text>
</g>
<!-- XXXGX1&#45;&gt;XOXGO2 -->
<g id="edge12" class="edge">
<title>XXXGX1&#45;&gt;XOXGO2</title>
<path fill="none" stroke="black" d="M59.1,-548.68C81.95,-586.58 135.77,-675.87 162.7,-720.56"/>
<polygon fill="black" stroke="black" points="159.86,-722.62 168.02,-729.38 165.85,-719.01 159.86,-722.62"/>
</g>
<!-- XXXGG2 -->
<g id="node18" class="node">
<title>XXXGG2</title>
<ellipse fill="none" stroke="black" cx="179.64" cy="-1584" rx="48.19" ry="18"/>
<text text-anchor="middle" x="179.64" y="-1580.3" font-family="Times New Roman,serif" font-size="14.00">XXXGG2</text>
</g>
<!-- XXXGX1&#45;&gt;XXXGG2 -->
<g id="edge18" class="edge">
<title>XXXGX1&#45;&gt;XXXGG2</title>
<path fill="none" stroke="black" d="M48.4,-549.06C48.5,-643.84 53.23,-1092.93 130.89,-1449 139.25,-1487.34 155.45,-1529.72 166.65,-1556.58"/>
<polygon fill="black" stroke="black" points="163.55,-1558.23 170.67,-1566.08 169.99,-1555.51 163.55,-1558.23"/>
</g>
<!-- GXXGG2 -->
<g id="node26" class="node">
<title>GXXGG2</title>
<ellipse fill="none" stroke="black" cx="179.64" cy="-639" rx="48.19" ry="18"/>
<text text-anchor="middle" x="179.64" y="-635.3" font-family="Times New Roman,serif" font-size="14.00">GXXGG2</text>
</g>
<!-- XXXGX1&#45;&gt;GXXGG2 -->
<g id="edge26" class="edge">
<title>XXXGX1&#45;&gt;GXXGG2</title>
<path fill="none" stroke="black" d="M68.22,-547.4C90.2,-565.64 125.88,-595.24 150.71,-615.83"/>
<polygon fill="black" stroke="black" points="148.75,-618.75 158.68,-622.44 153.22,-613.36 148.75,-618.75"/>
</g>
<!-- XOXGG2 -->
<g id="node29" class="node">
<title>XOXGG2</title>
<ellipse fill="none" stroke="black" cx="179.64" cy="-531" rx="48.19" ry="18"/>
<text text-anchor="middle" x="179.64" y="-527.3" font-family="Times New Roman,serif" font-size="14.00">XOXGG2</text>
</g>
<!-- XXXGX1&#45;&gt;XOXGG2 -->
<g id="edge29" class="edge">
<title>XXXGX1&#45;&gt;XOXGG2</title>
<path fill="none" stroke="black" d="M95.08,-531C103.58,-531 112.53,-531 121.29,-531"/>
<polygon fill="black" stroke="black" points="121.45,-534.5 131.45,-531 121.45,-527.5 121.45,-534.5"/>
</g>
<!-- XXXGX2 -->
<g id="node32" class="node">
<title>XXXGX2</title>
<ellipse fill="none" stroke="black" cx="179.64" cy="-990" rx="47.39" ry="18"/>
<text text-anchor="middle" x="179.64" y="-986.3" font-family="Times New Roman,serif" font-size="14.00">XXXGX2</text>
</g>
<!-- XXXGX1&#45;&gt;XXXGX2 -->
<g id="edge32" class="edge">
<title>XXXGX1&#45;&gt;XXXGX2</title>
<path fill="none" stroke="black" d="M49.89,-549.17C56,-622.31 81.71,-894.45 130.89,-963 132.89,-965.79 135.27,-968.32 137.89,-970.62"/>
<polygon fill="black" stroke="black" points="136.17,-973.71 146.29,-976.84 140.33,-968.08 136.17,-973.71"/>
</g>
<!-- XOOGX2 -->
<g id="node34" class="node">
<title>XOOGX2</title>
<ellipse fill="none" stroke="black" cx="179.64" cy="-450" rx="48.19" ry="18"/>
<text text-anchor="middle" x="179.64" y="-446.3" font-family="Times New Roman,serif" font-size="14.00">XOOGX2</text>
</g>
<!-- XXXGX1&#45;&gt;XOOGX2 -->
<g id="edge35" class="edge">
<title>XXXGX1&#45;&gt;XOOGX2</title>
<path fill="none" stroke="black" d="M72.93,-515.76C93.35,-503.06 122.65,-484.84 145.22,-470.79"/>
<polygon fill="black" stroke="black" points="147.17,-473.7 153.82,-465.44 143.48,-467.75 147.17,-473.7"/>
</g>
<!-- XGXGG2 -->
<g id="node36" class="node">
<title>XGXGG2</title>
<ellipse fill="none" stroke="black" cx="179.64" cy="-342" rx="48.19" ry="18"/>
<text text-anchor="middle" x="179.64" y="-338.3" font-family="Times New Roman,serif" font-size="14.00">XGXGG2</text>
</g>
<!-- XXXGX1&#45;&gt;XGXGG2 -->
<g id="edge37" class="edge">
<title>XXXGX1&#45;&gt;XGXGG2</title>
<path fill="none" stroke="black" d="M60.46,-513.56C83.52,-480.08 134.07,-406.7 160.98,-367.64"/>
<polygon fill="black" stroke="black" points="163.86,-369.62 166.65,-359.4 158.1,-365.65 163.86,-369.62"/>
</g>
<!-- XGXGX2 -->
<g id="node38" class="node">
<title>XGXGX2</title>
<ellipse fill="none" stroke="black" cx="179.64" cy="-261" rx="48.19" ry="18"/>
<text text-anchor="middle" x="179.64" y="-257.3" font-family="Times New Roman,serif" font-size="14.00">XGXGX2</text>
</g>
<!-- XXXGX1&#45;&gt;XGXGX2 -->
<g id="edge39" class="edge">
<title>XXXGX1&#45;&gt;XGXGX2</title>
<path fill="none" stroke="black" d="M52.96,-512.94C63.06,-474.56 89.84,-382.82 130.89,-315 137.31,-304.4 145.9,-293.92 154.03,-285.06"/>
<polygon fill="black" stroke="black" points="156.65,-287.39 160.99,-277.72 151.57,-282.57 156.65,-287.39"/>
</g>
<!-- XXOGG2 -->
<g id="node45" class="node">
<title>XXOGG2</title>
<ellipse fill="none" stroke="black" cx="179.64" cy="-126" rx="48.19" ry="18"/>
<text text-anchor="middle" x="179.64" y="-122.3" font-family="Times New Roman,serif" font-size="14.00">XXOGG2</text>
</g>
<!-- XXXGX1&#45;&gt;XXOGG2 -->
<g id="edge47" class="edge">
<title>XXXGX1&#45;&gt;XXOGG2</title>
<path fill="none" stroke="black" d="M50.43,-512.84C58.07,-445.67 87.34,-212.06 130.89,-153 132.99,-150.15 135.48,-147.57 138.21,-145.22"/>
<polygon fill="black" stroke="black" points="140.39,-147.97 146.4,-139.24 136.26,-142.31 140.39,-147.97"/>
</g>
<!-- XXXGO2 -->
<g id="node52" class="node">
<title>XXXGO2</title>
<ellipse fill="none" stroke="black" cx="179.64" cy="-180" rx="48.19" ry="18"/>
<text text-anchor="middle" x="179.64" y="-176.3" font-family="Times New Roman,serif" font-size="14.00">XXXGO2</text>
</g>
<!-- XXXGX1&#45;&gt;XXXGO2 -->
<g id="edge54" class="edge">
<title>XXXGX1&#45;&gt;XXXGO2</title>
<path fill="none" stroke="black" d="M50.59,-512.87C56.86,-464.8 78.17,-331.11 130.89,-234 136.71,-223.28 145.02,-212.9 153.08,-204.15"/>
<polygon fill="black" stroke="black" points="155.62,-206.55 160.03,-196.91 150.57,-201.7 155.62,-206.55"/>
</g>
<!-- patch -->
<g id="node59" class="node">
<title>patch</title>
<ellipse fill="none" stroke="black" cx="179.64" cy="-72" rx="30.59" ry="18"/>
<text text-anchor="middle" x="179.64" y="-68.3" font-family="Times New Roman,serif" font-size="14.00">patch</text>
</g>
<!-- XXXGX1&#45;&gt;patch -->
<g id="edge63" class="edge">
<title>XXXGX1&#45;&gt;patch</title>
<path fill="none" stroke="black" d="M49.89,-512.83C56,-439.69 81.71,-167.55 130.89,-99 134.45,-94.04 139.21,-89.88 144.36,-86.41"/>
<polygon fill="black" stroke="black" points="146.36,-89.3 153.24,-81.24 142.84,-83.25 146.36,-89.3"/>
</g>
<!-- XXOGX2 -->
<g id="node66" class="node">
<title>XXOGX2</title>
<ellipse fill="none" stroke="black" cx="179.64" cy="-18" rx="48.19" ry="18"/>
<text text-anchor="middle" x="179.64" y="-14.3" font-family="Times New Roman,serif" font-size="14.00">XXOGX2</text>
</g>
<!-- XXXGX1&#45;&gt;XXOGX2 -->
<g id="edge70" class="edge">
<title>XXXGX1&#45;&gt;XXOGX2</title>
<path fill="none" stroke="black" d="M49.45,-513.01C54.15,-434.61 76,-123.19 130.89,-45 132.86,-42.19 135.22,-39.64 137.82,-37.33"/>
<polygon fill="black" stroke="black" points="140.27,-39.87 146.2,-31.1 136.09,-34.26 140.27,-39.87"/>
</g>
<!-- XXGGG3 -->
<g id="node3" class="node">
<title>XXGGG3</title>
<ellipse fill="none" stroke="black" cx="313.78" cy="-1530" rx="48.19" ry="18"/>
<text text-anchor="middle" x="313.78" y="-1526.3" font-family="Times New Roman,serif" font-size="14.00">XXGGG3</text>
</g>
<!-- XOXGX2&#45;&gt;XXGGG3 -->
<g id="edge2" class="edge">
<title>XOXGX2&#45;&gt;XXGGG3</title>
<path fill="none" stroke="black" d="M200.71,-1438.4C223.12,-1456.72 259.55,-1486.49 284.76,-1507.1"/>
<polygon fill="black" stroke="black" points="282.56,-1509.82 292.52,-1513.44 286.99,-1504.4 282.56,-1509.82"/>
</g>
<!-- GXGGG3 -->
<g id="node61" class="node">
<title>GXGGG3</title>
<ellipse fill="none" stroke="black" cx="313.78" cy="-1422" rx="48.99" ry="18"/>
<text text-anchor="middle" x="313.78" y="-1418.3" font-family="Times New Roman,serif" font-size="14.00">GXGGG3</text>
</g>
<!-- XOXGX2&#45;&gt;GXGGG3 -->
<g id="edge65" class="edge">
<title>XOXGX2&#45;&gt;GXGGG3</title>
<path fill="none" stroke="black" d="M227.97,-1422C236.69,-1422 245.88,-1422 254.86,-1422"/>
<polygon fill="black" stroke="black" points="254.89,-1425.5 264.89,-1422 254.89,-1418.5 254.89,-1425.5"/>
</g>
<!-- XXGGG4 -->
<g id="node4" class="node">
<title>XXGGG4</title>
<ellipse fill="none" stroke="black" cx="448.57" cy="-1584" rx="48.19" ry="18"/>
<text text-anchor="middle" x="448.57" y="-1580.3" font-family="Times New Roman,serif" font-size="14.00">XXGGG4</text>
</g>
<!-- XXGGG3&#45;&gt;XXGGG4 -->
<g id="edge3" class="edge">
<title>XXGGG3&#45;&gt;XXGGG4</title>
<path fill="none" stroke="black" d="M346.92,-1543.07C364.65,-1550.28 386.87,-1559.32 405.92,-1567.06"/>
<polygon fill="black" stroke="black" points="404.68,-1570.34 415.26,-1570.86 407.32,-1563.85 404.68,-1570.34"/>
</g>
<!-- conch -->
<g id="node54" class="node">
<title>conch</title>
<ellipse fill="none" stroke="black" cx="448.57" cy="-1530" rx="33.29" ry="18"/>
<text text-anchor="middle" x="448.57" y="-1526.3" font-family="Times New Roman,serif" font-size="14.00">conch</text>
</g>
<!-- XXGGG3&#45;&gt;conch -->
<g id="edge58" class="edge">
<title>XXGGG3&#45;&gt;conch</title>
<path fill="none" stroke="black" d="M361.97,-1530C375.99,-1530 391.26,-1530 404.97,-1530"/>
<polygon fill="black" stroke="black" points="405.1,-1533.5 415.1,-1530 405.1,-1526.5 405.1,-1533.5"/>
</g>
<!-- quack -->
<g id="node55" class="node">
<title>quack</title>
<ellipse fill="none" stroke="black" cx="448.57" cy="-1476" rx="32.49" ry="18"/>
<text text-anchor="middle" x="448.57" y="-1472.3" font-family="Times New Roman,serif" font-size="14.00">quack</text>
</g>
<!-- XXGGG3&#45;&gt;quack -->
<g id="edge59" class="edge">
<title>XXGGG3&#45;&gt;quack</title>
<path fill="none" stroke="black" d="M346.92,-1516.93C366.71,-1508.88 392.09,-1498.56 412.41,-1490.3"/>
<polygon fill="black" stroke="black" points="413.99,-1493.43 421.94,-1486.42 411.35,-1486.95 413.99,-1493.43"/>
</g>
<!-- OXXOG5 -->
<g id="node5" class="node">
<title>OXXOG5</title>
<ellipse fill="none" stroke="black" cx="583.36" cy="-1611" rx="48.19" ry="18"/>
<text text-anchor="middle" x="583.36" y="-1607.3" font-family="Times New Roman,serif" font-size="14.00">OXXOG5</text>
</g>
<!-- XXGGG4&#45;&gt;OXXOG5 -->
<g id="edge4" class="edge">
<title>XXGGG4&#45;&gt;OXXOG5</title>
<path fill="none" stroke="black" d="M491.22,-1592.47C503.83,-1595.03 517.82,-1597.88 530.99,-1600.55"/>
<polygon fill="black" stroke="black" points="530.36,-1604 540.86,-1602.56 531.76,-1597.14 530.36,-1604"/>
</g>
<!-- GGXOG5 -->
<g id="node72" class="node">
<title>GGXOG5</title>
<ellipse fill="none" stroke="black" cx="583.36" cy="-1557" rx="48.99" ry="18"/>
<text text-anchor="middle" x="583.36" y="-1553.3" font-family="Times New Roman,serif" font-size="14.00">GGXOG5</text>
</g>
<!-- XXGGG4&#45;&gt;GGXOG5 -->
<g id="edge78" class="edge">
<title>XXGGG4&#45;&gt;GGXOG5</title>
<path fill="none" stroke="black" d="M491.22,-1575.53C503.58,-1573.02 517.28,-1570.23 530.22,-1567.6"/>
<polygon fill="black" stroke="black" points="531.3,-1570.95 540.4,-1565.53 529.9,-1564.09 531.3,-1570.95"/>
</g>
<!-- XXXGG3 -->
<g id="node7" class="node">
<title>XXXGG3</title>
<ellipse fill="none" stroke="black" cx="313.78" cy="-963" rx="48.19" ry="18"/>
<text text-anchor="middle" x="313.78" y="-959.3" font-family="Times New Roman,serif" font-size="14.00">XXXGG3</text>
</g>
<!-- XGGGG2&#45;&gt;XXXGG3 -->
<g id="edge6" class="edge">
<title>XGGGG2&#45;&gt;XXXGG3</title>
<path fill="none" stroke="black" d="M222.81,-944.62C234.97,-947.1 248.38,-949.84 261.04,-952.43"/>
<polygon fill="black" stroke="black" points="260.51,-955.89 271.01,-954.46 261.91,-949.03 260.51,-955.89"/>
</g>
<!-- GXXGG3 -->
<g id="node15" class="node">
<title>GXXGG3</title>
<ellipse fill="none" stroke="black" cx="313.78" cy="-1206" rx="48.19" ry="18"/>
<text text-anchor="middle" x="313.78" y="-1202.3" font-family="Times New Roman,serif" font-size="14.00">GXXGG3</text>
</g>
<!-- XGGGG2&#45;&gt;GXXGG3 -->
<g id="edge76" class="edge">
<title>XGGGG2&#45;&gt;GXXGG3</title>
<path fill="none" stroke="black" d="M212.37,-949.63C218.29,-953.3 223.99,-957.73 228.38,-963 282.37,-1027.72 302.62,-1129.08 309.54,-1177.89"/>
<polygon fill="black" stroke="black" points="306.1,-1178.57 310.89,-1188.02 313.04,-1177.64 306.1,-1178.57"/>
</g>
<!-- OOOXX4 -->
<g id="node8" class="node">
<title>OOOXX4</title>
<ellipse fill="none" stroke="black" cx="448.57" cy="-828" rx="48.19" ry="18"/>
<text text-anchor="middle" x="448.57" y="-824.3" font-family="Times New Roman,serif" font-size="14.00">OOOXX4</text>
</g>
<!-- XXXGG3&#45;&gt;OOOXX4 -->
<g id="edge7" class="edge">
<title>XXXGG3&#45;&gt;OOOXX4</title>
<path fill="none" stroke="black" d="M325.53,-945.15C340.04,-922.15 367.73,-881.93 399.17,-855 402.34,-852.29 405.82,-849.72 409.42,-847.33"/>
<polygon fill="black" stroke="black" points="411.26,-850.31 417.93,-842.07 407.58,-844.35 411.26,-850.31"/>
</g>
<!-- dutch -->
<g id="node11" class="node">
<title>dutch</title>
<ellipse fill="none" stroke="black" cx="448.57" cy="-1152" rx="31.4" ry="18"/>
<text text-anchor="middle" x="448.57" y="-1148.3" font-family="Times New Roman,serif" font-size="14.00">dutch</text>
</g>
<!-- XXXGG3&#45;&gt;dutch -->
<g id="edge11" class="edge">
<title>XXXGG3&#45;&gt;dutch</title>
<path fill="none" stroke="black" d="M320.26,-980.88C330.9,-1013.12 357.07,-1081.67 399.17,-1125 403.38,-1129.33 408.44,-1133.16 413.67,-1136.48"/>
<polygon fill="black" stroke="black" points="412.12,-1139.62 422.53,-1141.57 415.6,-1133.55 412.12,-1139.62"/>
</g>
<!-- XGGGG4 -->
<g id="node22" class="node">
<title>XGGGG4</title>
<ellipse fill="none" stroke="black" cx="448.57" cy="-1098" rx="48.99" ry="18"/>
<text text-anchor="middle" x="448.57" y="-1094.3" font-family="Times New Roman,serif" font-size="14.00">XGGGG4</text>
</g>
<!-- XXXGG3&#45;&gt;XGGGG4 -->
<g id="edge22" class="edge">
<title>XXXGG3&#45;&gt;XGGGG4</title>
<path fill="none" stroke="black" d="M325.53,-980.85C340.04,-1003.85 367.73,-1044.07 399.17,-1071 402.34,-1073.71 405.82,-1076.28 409.42,-1078.67"/>
<polygon fill="black" stroke="black" points="407.58,-1081.65 417.93,-1083.93 411.26,-1075.69 407.58,-1081.65"/>
</g>
<!-- GOOXX4 -->
<g id="node24" class="node">
<title>GOOXX4</title>
<ellipse fill="none" stroke="black" cx="448.57" cy="-1044" rx="48.19" ry="18"/>
<text text-anchor="middle" x="448.57" y="-1040.3" font-family="Times New Roman,serif" font-size="14.00">GOOXX4</text>
</g>
<!-- XXXGG3&#45;&gt;GOOXX4 -->
<g id="edge24" class="edge">
<title>XXXGG3&#45;&gt;GOOXX4</title>
<path fill="none" stroke="black" d="M338.19,-978.51C354.99,-989.52 378.27,-1004.5 399.17,-1017 403.14,-1019.37 407.31,-1021.8 411.49,-1024.18"/>
<polygon fill="black" stroke="black" points="410.1,-1027.42 420.53,-1029.29 413.54,-1021.32 410.1,-1027.42"/>
</g>
<!-- crock -->
<g id="node33" class="node">
<title>crock</title>
<ellipse fill="none" stroke="black" cx="448.57" cy="-990" rx="31.7" ry="18"/>
<text text-anchor="middle" x="448.57" y="-986.3" font-family="Times New Roman,serif" font-size="14.00">crock</text>
</g>
<!-- XXXGG3&#45;&gt;crock -->
<g id="edge34" class="edge">
<title>XXXGG3&#45;&gt;crock</title>
<path fill="none" stroke="black" d="M356.43,-971.47C372.9,-974.82 391.75,-978.65 408.01,-981.96"/>
<polygon fill="black" stroke="black" points="407.77,-985.48 418.27,-984.04 409.17,-978.62 407.77,-985.48"/>
</g>
<!-- OXGGG4 -->
<g id="node76" class="node">
<title>OXGGG4</title>
<ellipse fill="none" stroke="black" cx="448.57" cy="-936" rx="48.99" ry="18"/>
<text text-anchor="middle" x="448.57" y="-932.3" font-family="Times New Roman,serif" font-size="14.00">OXGGG4</text>
</g>
<!-- XXXGG3&#45;&gt;OXGGG4 -->
<g id="edge82" class="edge">
<title>XXXGG3&#45;&gt;OXGGG4</title>
<path fill="none" stroke="black" d="M356.43,-954.53C368.79,-952.02 382.49,-949.23 395.43,-946.6"/>
<polygon fill="black" stroke="black" points="396.51,-949.95 405.61,-944.53 395.11,-943.09 396.51,-949.95"/>
</g>
<!-- OOOOX4 -->
<g id="node78" class="node">
<title>OOOOX4</title>
<ellipse fill="none" stroke="black" cx="448.57" cy="-882" rx="48.99" ry="18"/>
<text text-anchor="middle" x="448.57" y="-878.3" font-family="Times New Roman,serif" font-size="14.00">OOOOX4</text>
</g>
<!-- XXXGG3&#45;&gt;OOOOX4 -->
<g id="edge84" class="edge">
<title>XXXGG3&#45;&gt;OOOOX4</title>
<path fill="none" stroke="black" d="M338.19,-947.49C354.99,-936.48 378.27,-921.5 399.17,-909 403.09,-906.66 407.21,-904.26 411.33,-901.9"/>
<polygon fill="black" stroke="black" points="413.29,-904.82 420.27,-896.85 409.84,-898.72 413.29,-904.82"/>
</g>
<!-- hatch -->
<g id="node9" class="node">
<title>hatch</title>
<ellipse fill="none" stroke="black" cx="583.36" cy="-828" rx="30.59" ry="18"/>
<text text-anchor="middle" x="583.36" y="-824.3" font-family="Times New Roman,serif" font-size="14.00">hatch</text>
</g>
<!-- OOOXX4&#45;&gt;hatch -->
<g id="edge8" class="edge">
<title>OOOXX4&#45;&gt;hatch</title>
<path fill="none" stroke="black" d="M496.76,-828C511.76,-828 528.18,-828 542.6,-828"/>
<polygon fill="black" stroke="black" points="542.7,-831.5 552.7,-828 542.7,-824.5 542.7,-831.5"/>
</g>
<!-- OGGGG5 -->
<g id="node14" class="node">
<title>OGGGG5</title>
<ellipse fill="none" stroke="black" cx="583.36" cy="-774" rx="49.29" ry="18"/>
<text text-anchor="middle" x="583.36" y="-770.3" font-family="Times New Roman,serif" font-size="14.00">OGGGG5</text>
</g>
<!-- OOOXX4&#45;&gt;OGGGG5 -->
<g id="edge14" class="edge">
<title>OOOXX4&#45;&gt;OGGGG5</title>
<path fill="none" stroke="black" d="M481.71,-814.93C499.31,-807.77 521.33,-798.82 540.28,-791.11"/>
<polygon fill="black" stroke="black" points="541.64,-794.34 549.59,-787.33 539.01,-787.85 541.64,-794.34"/>
</g>
<!-- XXGGG2&#45;&gt;XXXGG3 -->
<g id="edge10" class="edge">
<title>XXGGG2&#45;&gt;XXXGG3</title>
<path fill="none" stroke="black" d="M203.05,-884.95C224.69,-900.34 257.65,-923.78 281.79,-940.96"/>
<polygon fill="black" stroke="black" points="280.08,-944.03 290.25,-946.98 284.13,-938.33 280.08,-944.03"/>
</g>
<!-- XXGGG2&#45;&gt;GXXGG3 -->
<g id="edge15" class="edge">
<title>XXGGG2&#45;&gt;GXXGG3</title>
<path fill="none" stroke="black" d="M204.68,-884.58C213.24,-891.19 222.27,-899.56 228.38,-909 257.8,-954.38 293.27,-1112.72 306.98,-1177.77"/>
<polygon fill="black" stroke="black" points="303.59,-1178.66 309.06,-1187.73 310.44,-1177.23 303.59,-1178.66"/>
</g>
<!-- XXOGG3 -->
<g id="node48" class="node">
<title>XXOGG3</title>
<ellipse fill="none" stroke="black" cx="313.78" cy="-835" rx="48.19" ry="18"/>
<text text-anchor="middle" x="313.78" y="-831.3" font-family="Times New Roman,serif" font-size="14.00">XXOGG3</text>
</g>
<!-- XXGGG2&#45;&gt;XXOGG3 -->
<g id="edge50" class="edge">
<title>XXGGG2&#45;&gt;XXOGG3</title>
<path fill="none" stroke="black" d="M219.93,-858.89C233.65,-855.36 249.23,-851.35 263.65,-847.64"/>
<polygon fill="black" stroke="black" points="264.6,-851.01 273.41,-845.13 262.86,-844.23 264.6,-851.01"/>
</g>
<!-- whack -->
<g id="node13" class="node">
<title>whack</title>
<ellipse fill="none" stroke="black" cx="313.78" cy="-774" rx="34.39" ry="18"/>
<text text-anchor="middle" x="313.78" y="-770.3" font-family="Times New Roman,serif" font-size="14.00">whack</text>
</g>
<!-- XOXGO2&#45;&gt;whack -->
<g id="edge13" class="edge">
<title>XOXGO2&#45;&gt;whack</title>
<path fill="none" stroke="black" d="M222.09,-755.47C237.86,-758.69 255.81,-762.36 271.56,-765.58"/>
<polygon fill="black" stroke="black" points="271.05,-769.05 281.55,-767.62 272.45,-762.19 271.05,-769.05"/>
</g>
<!-- GXGGG4 -->
<g id="node16" class="node">
<title>GXGGG4</title>
<ellipse fill="none" stroke="black" cx="448.57" cy="-1314" rx="48.99" ry="18"/>
<text text-anchor="middle" x="448.57" y="-1310.3" font-family="Times New Roman,serif" font-size="14.00">GXGGG4</text>
</g>
<!-- GXXGG3&#45;&gt;GXGGG4 -->
<g id="edge16" class="edge">
<title>GXXGG3&#45;&gt;GXGGG4</title>
<path fill="none" stroke="black" d="M330.16,-1223.15C346.28,-1240.53 372.89,-1267.56 399.17,-1287 402.61,-1289.54 406.31,-1292.02 410.09,-1294.37"/>
<polygon fill="black" stroke="black" points="408.53,-1297.52 418.92,-1299.61 412.11,-1291.5 408.53,-1297.52"/>
</g>
<!-- frock -->
<g id="node44" class="node">
<title>frock</title>
<ellipse fill="none" stroke="black" cx="448.57" cy="-1260" rx="30.59" ry="18"/>
<text text-anchor="middle" x="448.57" y="-1256.3" font-family="Times New Roman,serif" font-size="14.00">frock</text>
</g>
<!-- GXXGG3&#45;&gt;frock -->
<g id="edge46" class="edge">
<title>GXXGG3&#45;&gt;frock</title>
<path fill="none" stroke="black" d="M346.92,-1219.07C367.07,-1227.26 393,-1237.81 413.5,-1246.15"/>
<polygon fill="black" stroke="black" points="412.21,-1249.4 422.79,-1249.92 414.84,-1242.91 412.21,-1249.4"/>
</g>
<!-- botch -->
<g id="node60" class="node">
<title>botch</title>
<ellipse fill="none" stroke="black" cx="448.57" cy="-1206" rx="31.7" ry="18"/>
<text text-anchor="middle" x="448.57" y="-1202.3" font-family="Times New Roman,serif" font-size="14.00">botch</text>
</g>
<!-- GXXGG3&#45;&gt;botch -->
<g id="edge64" class="edge">
<title>GXXGG3&#45;&gt;botch</title>
<path fill="none" stroke="black" d="M361.97,-1206C376.46,-1206 392.3,-1206 406.36,-1206"/>
<polygon fill="black" stroke="black" points="406.71,-1209.5 416.71,-1206 406.71,-1202.5 406.71,-1209.5"/>
</g>
<!-- batch -->
<g id="node71" class="node">
<title>batch</title>
<ellipse fill="none" stroke="black" cx="448.57" cy="-1368" rx="30.59" ry="18"/>
<text text-anchor="middle" x="448.57" y="-1364.3" font-family="Times New Roman,serif" font-size="14.00">batch</text>
</g>
<!-- GXXGG3&#45;&gt;batch -->
<g id="edge77" class="edge">
<title>GXXGG3&#45;&gt;batch</title>
<path fill="none" stroke="black" d="M322.51,-1224.17C335.15,-1252.13 362.53,-1306.13 399.17,-1341 403.64,-1345.25 408.9,-1349.06 414.28,-1352.39"/>
<polygon fill="black" stroke="black" points="412.9,-1355.63 423.32,-1357.53 416.36,-1349.55 412.9,-1355.63"/>
</g>
<!-- butch -->
<g id="node17" class="node">
<title>butch</title>
<ellipse fill="none" stroke="black" cx="583.36" cy="-1314" rx="31.4" ry="18"/>
<text text-anchor="middle" x="583.36" y="-1310.3" font-family="Times New Roman,serif" font-size="14.00">butch</text>
</g>
<!-- GXGGG4&#45;&gt;butch -->
<g id="edge17" class="edge">
<title>GXGGG4&#45;&gt;butch</title>
<path fill="none" stroke="black" d="M497.51,-1314C511.96,-1314 527.67,-1314 541.6,-1314"/>
<polygon fill="black" stroke="black" points="541.85,-1317.5 551.85,-1314 541.85,-1310.5 541.85,-1317.5"/>
</g>
<!-- XXXGG2&#45;&gt;XXGGG3 -->
<g id="edge57" class="edge">
<title>XXXGG2&#45;&gt;XXGGG3</title>
<path fill="none" stroke="black" d="M212.96,-1570.79C230.4,-1563.66 252.12,-1554.79 270.85,-1547.13"/>
<polygon fill="black" stroke="black" points="272.4,-1550.28 280.33,-1543.26 269.75,-1543.8 272.4,-1550.28"/>
</g>
<!-- XOXGG3 -->
<g id="node19" class="node">
<title>XOXGG3</title>
<ellipse fill="none" stroke="black" cx="313.78" cy="-1638" rx="48.19" ry="18"/>
<text text-anchor="middle" x="313.78" y="-1634.3" font-family="Times New Roman,serif" font-size="14.00">XOXGG3</text>
</g>
<!-- XXXGG2&#45;&gt;XOXGG3 -->
<g id="edge19" class="edge">
<title>XXXGG2&#45;&gt;XOXGG3</title>
<path fill="none" stroke="black" d="M212.96,-1597.21C230.4,-1604.34 252.12,-1613.21 270.85,-1620.87"/>
<polygon fill="black" stroke="black" points="269.75,-1624.2 280.33,-1624.74 272.4,-1617.72 269.75,-1624.2"/>
</g>
<!-- XGGGG3 -->
<g id="node57" class="node">
<title>XGGGG3</title>
<ellipse fill="none" stroke="black" cx="313.78" cy="-1692" rx="48.99" ry="18"/>
<text text-anchor="middle" x="313.78" y="-1688.3" font-family="Times New Roman,serif" font-size="14.00">XGGGG3</text>
</g>
<!-- XXXGG2&#45;&gt;XGGGG3 -->
<g id="edge61" class="edge">
<title>XXXGG2&#45;&gt;XGGGG3</title>
<path fill="none" stroke="black" d="M195.87,-1601.16C211.86,-1618.55 238.24,-1645.58 264.38,-1665 267.82,-1667.55 271.51,-1670.03 275.28,-1672.38"/>
<polygon fill="black" stroke="black" points="273.73,-1675.53 284.12,-1677.63 277.3,-1669.51 273.73,-1675.53"/>
</g>
<!-- bunch -->
<g id="node73" class="node">
<title>bunch</title>
<ellipse fill="none" stroke="black" cx="313.78" cy="-1584" rx="33.29" ry="18"/>
<text text-anchor="middle" x="313.78" y="-1580.3" font-family="Times New Roman,serif" font-size="14.00">bunch</text>
</g>
<!-- XXXGG2&#45;&gt;bunch -->
<g id="edge79" class="edge">
<title>XXXGG2&#45;&gt;bunch</title>
<path fill="none" stroke="black" d="M227.97,-1584C241.64,-1584 256.48,-1584 269.87,-1584"/>
<polygon fill="black" stroke="black" points="270.25,-1587.5 280.25,-1584 270.25,-1580.5 270.25,-1587.5"/>
</g>
<!-- OGGGG4 -->
<g id="node20" class="node">
<title>OGGGG4</title>
<ellipse fill="none" stroke="black" cx="448.57" cy="-1692" rx="49.29" ry="18"/>
<text text-anchor="middle" x="448.57" y="-1688.3" font-family="Times New Roman,serif" font-size="14.00">OGGGG4</text>
</g>
<!-- XOXGG3&#45;&gt;OGGGG4 -->
<g id="edge20" class="edge">
<title>XOXGG3&#45;&gt;OGGGG4</title>
<path fill="none" stroke="black" d="M346.92,-1651.07C364.52,-1658.23 386.54,-1667.18 405.49,-1674.89"/>
<polygon fill="black" stroke="black" points="404.22,-1678.15 414.8,-1678.67 406.85,-1671.66 404.22,-1678.15"/>
</g>
<!-- couch -->
<g id="node31" class="node">
<title>couch</title>
<ellipse fill="none" stroke="black" cx="448.57" cy="-1638" rx="33.29" ry="18"/>
<text text-anchor="middle" x="448.57" y="-1634.3" font-family="Times New Roman,serif" font-size="14.00">couch</text>
</g>
<!-- XOXGG3&#45;&gt;couch -->
<g id="edge31" class="edge">
<title>XOXGG3&#45;&gt;couch</title>
<path fill="none" stroke="black" d="M361.97,-1638C375.99,-1638 391.26,-1638 404.97,-1638"/>
<polygon fill="black" stroke="black" points="405.1,-1641.5 415.1,-1638 405.1,-1634.5 405.1,-1641.5"/>
</g>
<!-- vouch -->
<g id="node21" class="node">
<title>vouch</title>
<ellipse fill="none" stroke="black" cx="583.36" cy="-1732" rx="33.29" ry="18"/>
<text text-anchor="middle" x="583.36" y="-1728.3" font-family="Times New Roman,serif" font-size="14.00">vouch</text>
</g>
<!-- OGGGG4&#45;&gt;vouch -->
<g id="edge21" class="edge">
<title>OGGGG4&#45;&gt;vouch</title>
<path fill="none" stroke="black" d="M487.27,-1703.36C504.96,-1708.68 526.02,-1715.03 543.81,-1720.39"/>
<polygon fill="black" stroke="black" points="543.28,-1723.88 553.86,-1723.42 545.3,-1717.18 543.28,-1723.88"/>
</g>
<!-- munch -->
<g id="node68" class="node">
<title>munch</title>
<ellipse fill="none" stroke="black" cx="583.36" cy="-1678" rx="35.19" ry="18"/>
<text text-anchor="middle" x="583.36" y="-1674.3" font-family="Times New Roman,serif" font-size="14.00">munch</text>
</g>
<!-- OGGGG4&#45;&gt;munch -->
<g id="edge73" class="edge">
<title>OGGGG4&#45;&gt;munch</title>
<path fill="none" stroke="black" d="M496.39,-1687.06C510.19,-1685.61 525.24,-1684.02 538.83,-1682.59"/>
<polygon fill="black" stroke="black" points="539.31,-1686.06 548.89,-1681.53 538.58,-1679.1 539.31,-1686.06"/>
</g>
<!-- hutch -->
<g id="node23" class="node">
<title>hutch</title>
<ellipse fill="none" stroke="black" cx="583.36" cy="-1098" rx="30.59" ry="18"/>
<text text-anchor="middle" x="583.36" y="-1094.3" font-family="Times New Roman,serif" font-size="14.00">hutch</text>
</g>
<!-- XGGGG4&#45;&gt;hutch -->
<g id="edge23" class="edge">
<title>XGGGG4&#45;&gt;hutch</title>
<path fill="none" stroke="black" d="M497.51,-1098C512.19,-1098 528.18,-1098 542.28,-1098"/>
<polygon fill="black" stroke="black" points="542.64,-1101.5 552.64,-1098 542.64,-1094.5 542.64,-1101.5"/>
</g>
<!-- catch -->
<g id="node25" class="node">
<title>catch</title>
<ellipse fill="none" stroke="black" cx="583.36" cy="-1044" rx="30.59" ry="18"/>
<text text-anchor="middle" x="583.36" y="-1040.3" font-family="Times New Roman,serif" font-size="14.00">catch</text>
</g>
<!-- GOOXX4&#45;&gt;catch -->
<g id="edge25" class="edge">
<title>GOOXX4&#45;&gt;catch</title>
<path fill="none" stroke="black" d="M496.76,-1044C511.76,-1044 528.18,-1044 542.6,-1044"/>
<polygon fill="black" stroke="black" points="542.7,-1047.5 552.7,-1044 542.7,-1040.5 542.7,-1047.5"/>
</g>
<!-- OXXXO3 -->
<g id="node27" class="node">
<title>OXXXO3</title>
<ellipse fill="none" stroke="black" cx="313.78" cy="-720" rx="48.19" ry="18"/>
<text text-anchor="middle" x="313.78" y="-716.3" font-family="Times New Roman,serif" font-size="14.00">OXXXO3</text>
</g>
<!-- GXXGG2&#45;&gt;OXXXO3 -->
<g id="edge27" class="edge">
<title>GXXGG2&#45;&gt;OXXXO3</title>
<path fill="none" stroke="black" d="M204.21,-654.77C220.85,-665.76 243.77,-680.62 264.38,-693 268.34,-695.38 272.52,-697.81 276.69,-700.2"/>
<polygon fill="black" stroke="black" points="275.3,-703.43 285.73,-705.31 278.74,-697.34 275.3,-703.43"/>
</g>
<!-- OOXXO3 -->
<g id="node42" class="node">
<title>OOXXO3</title>
<ellipse fill="none" stroke="black" cx="313.78" cy="-666" rx="48.19" ry="18"/>
<text text-anchor="middle" x="313.78" y="-662.3" font-family="Times New Roman,serif" font-size="14.00">OOXXO3</text>
</g>
<!-- GXXGG2&#45;&gt;OOXXO3 -->
<g id="edge43" class="edge">
<title>GXXGG2&#45;&gt;OOXXO3</title>
<path fill="none" stroke="black" d="M222.09,-647.47C234.39,-649.98 248.02,-652.77 260.9,-655.4"/>
<polygon fill="black" stroke="black" points="260.53,-658.9 271.02,-657.47 261.93,-652.04 260.53,-658.9"/>
</g>
<!-- XGXXX3 -->
<g id="node74" class="node">
<title>XGXXX3</title>
<ellipse fill="none" stroke="black" cx="313.78" cy="-612" rx="47.39" ry="18"/>
<text text-anchor="middle" x="313.78" y="-608.3" font-family="Times New Roman,serif" font-size="14.00">XGXXX3</text>
</g>
<!-- GXXGG2&#45;&gt;XGXXX3 -->
<g id="edge80" class="edge">
<title>GXXGG2&#45;&gt;XGXXX3</title>
<path fill="none" stroke="black" d="M222.09,-630.53C234.63,-627.97 248.56,-625.12 261.66,-622.45"/>
<polygon fill="black" stroke="black" points="262.38,-625.87 271.48,-620.44 260.98,-619.01 262.38,-625.87"/>
</g>
<!-- pooch -->
<g id="node28" class="node">
<title>pooch</title>
<ellipse fill="none" stroke="black" cx="448.57" cy="-720" rx="34.39" ry="18"/>
<text text-anchor="middle" x="448.57" y="-716.3" font-family="Times New Roman,serif" font-size="14.00">pooch</text>
</g>
<!-- OXXXO3&#45;&gt;pooch -->
<g id="edge28" class="edge">
<title>OXXXO3&#45;&gt;pooch</title>
<path fill="none" stroke="black" d="M361.97,-720C375.5,-720 390.19,-720 403.52,-720"/>
<polygon fill="black" stroke="black" points="403.88,-723.5 413.88,-720 403.88,-716.5 403.88,-723.5"/>
</g>
<!-- GGOGG4 -->
<g id="node40" class="node">
<title>GGOGG4</title>
<ellipse fill="none" stroke="black" cx="448.57" cy="-666" rx="49.29" ry="18"/>
<text text-anchor="middle" x="448.57" y="-662.3" font-family="Times New Roman,serif" font-size="14.00">GGOGG4</text>
</g>
<!-- OXXXO3&#45;&gt;GGOGG4 -->
<g id="edge41" class="edge">
<title>OXXXO3&#45;&gt;GGOGG4</title>
<path fill="none" stroke="black" d="M346.92,-706.93C364.52,-699.77 386.54,-690.82 405.49,-683.11"/>
<polygon fill="black" stroke="black" points="406.85,-686.34 414.8,-679.33 404.22,-679.85 406.85,-686.34"/>
</g>
<!-- coach -->
<g id="node30" class="node">
<title>coach</title>
<ellipse fill="none" stroke="black" cx="313.78" cy="-504" rx="32.49" ry="18"/>
<text text-anchor="middle" x="313.78" y="-500.3" font-family="Times New Roman,serif" font-size="14.00">coach</text>
</g>
<!-- XOXGG2&#45;&gt;coach -->
<g id="edge30" class="edge">
<title>XOXGG2&#45;&gt;coach</title>
<path fill="none" stroke="black" d="M222.09,-522.53C238.23,-519.23 256.66,-515.47 272.67,-512.19"/>
<polygon fill="black" stroke="black" points="273.7,-515.56 282.8,-510.13 272.3,-508.7 273.7,-515.56"/>
</g>
<!-- OGGGG3 -->
<g id="node50" class="node">
<title>OGGGG3</title>
<ellipse fill="none" stroke="black" cx="313.78" cy="-558" rx="49.29" ry="18"/>
<text text-anchor="middle" x="313.78" y="-554.3" font-family="Times New Roman,serif" font-size="14.00">OGGGG3</text>
</g>
<!-- XOXGG2&#45;&gt;OGGGG3 -->
<g id="edge52" class="edge">
<title>XOXGG2&#45;&gt;OGGGG3</title>
<path fill="none" stroke="black" d="M222.09,-539.47C234.15,-541.93 247.49,-544.66 260.15,-547.25"/>
<polygon fill="black" stroke="black" points="259.61,-550.71 270.11,-549.28 261.01,-543.85 259.61,-550.71"/>
</g>
<!-- XXXGX2&#45;&gt;XXXGG3 -->
<g id="edge33" class="edge">
<title>XXXGX2&#45;&gt;XXXGG3</title>
<path fill="none" stroke="black" d="M221.72,-981.61C234.28,-979.04 248.25,-976.18 261.4,-973.5"/>
<polygon fill="black" stroke="black" points="262.17,-976.91 271.26,-971.48 260.76,-970.06 262.17,-976.91"/>
</g>
<!-- XXXGX2&#45;&gt;GXXGG3 -->
<g id="edge45" class="edge">
<title>XXXGX2&#45;&gt;GXXGG3</title>
<path fill="none" stroke="black" d="M191.45,-1007.68C214.69,-1045.66 269.49,-1135.25 296.77,-1179.84"/>
<polygon fill="black" stroke="black" points="293.8,-1181.68 302,-1188.38 299.77,-1178.03 293.8,-1181.68"/>
</g>
<!-- track -->
<g id="node35" class="node">
<title>track</title>
<ellipse fill="none" stroke="black" cx="313.78" cy="-396" rx="28.7" ry="18"/>
<text text-anchor="middle" x="313.78" y="-392.3" font-family="Times New Roman,serif" font-size="14.00">track</text>
</g>
<!-- XOOGX2&#45;&gt;track -->
<g id="edge36" class="edge">
<title>XOOGX2&#45;&gt;track</title>
<path fill="none" stroke="black" d="M212.96,-436.79C233.32,-428.47 259.51,-417.77 279.96,-409.41"/>
<polygon fill="black" stroke="black" points="281.56,-412.54 289.49,-405.52 278.91,-406.06 281.56,-412.54"/>
</g>
<!-- GGGGX3 -->
<g id="node64" class="node">
<title>GGGGX3</title>
<ellipse fill="none" stroke="black" cx="313.78" cy="-450" rx="48.99" ry="18"/>
<text text-anchor="middle" x="313.78" y="-446.3" font-family="Times New Roman,serif" font-size="14.00">GGGGX3</text>
</g>
<!-- XOOGX2&#45;&gt;GGGGX3 -->
<g id="edge68" class="edge">
<title>XOOGX2&#45;&gt;GGGGX3</title>
<path fill="none" stroke="black" d="M227.97,-450C236.69,-450 245.88,-450 254.86,-450"/>
<polygon fill="black" stroke="black" points="254.89,-453.5 264.89,-450 254.89,-446.5 254.89,-453.5"/>
</g>
<!-- march -->
<g id="node37" class="node">
<title>march</title>
<ellipse fill="none" stroke="black" cx="313.78" cy="-288" rx="33.29" ry="18"/>
<text text-anchor="middle" x="313.78" y="-284.3" font-family="Times New Roman,serif" font-size="14.00">march</text>
</g>
<!-- XGXGG2&#45;&gt;march -->
<g id="edge38" class="edge">
<title>XGXGG2&#45;&gt;march</title>
<path fill="none" stroke="black" d="M212.96,-328.79C232.4,-320.85 257.16,-310.73 277.16,-302.56"/>
<polygon fill="black" stroke="black" points="278.62,-305.74 286.55,-298.72 275.97,-299.26 278.62,-305.74"/>
</g>
<!-- XGOGG3 -->
<g id="node69" class="node">
<title>XGOGG3</title>
<ellipse fill="none" stroke="black" cx="313.78" cy="-342" rx="48.99" ry="18"/>
<text text-anchor="middle" x="313.78" y="-338.3" font-family="Times New Roman,serif" font-size="14.00">XGOGG3</text>
</g>
<!-- XGXGG2&#45;&gt;XGOGG3 -->
<g id="edge74" class="edge">
<title>XGXGG2&#45;&gt;XGOGG3</title>
<path fill="none" stroke="black" d="M227.97,-342C236.69,-342 245.88,-342 254.86,-342"/>
<polygon fill="black" stroke="black" points="254.89,-345.5 264.89,-342 254.89,-338.5 254.89,-345.5"/>
</g>
<!-- fancy -->
<g id="node39" class="node">
<title>fancy</title>
<ellipse fill="none" stroke="black" cx="313.78" cy="-234" rx="30.59" ry="18"/>
<text text-anchor="middle" x="313.78" y="-230.3" font-family="Times New Roman,serif" font-size="14.00">fancy</text>
</g>
<!-- XGXGX2&#45;&gt;fancy -->
<g id="edge40" class="edge">
<title>XGXGX2&#45;&gt;fancy</title>
<path fill="none" stroke="black" d="M222.09,-252.53C238.88,-249.1 258.16,-245.16 274.61,-241.8"/>
<polygon fill="black" stroke="black" points="275.34,-245.22 284.44,-239.79 273.94,-238.36 275.34,-245.22"/>
</g>
<!-- porch -->
<g id="node41" class="node">
<title>porch</title>
<ellipse fill="none" stroke="black" cx="583.36" cy="-666" rx="32.49" ry="18"/>
<text text-anchor="middle" x="583.36" y="-662.3" font-family="Times New Roman,serif" font-size="14.00">porch</text>
</g>
<!-- GGOGG4&#45;&gt;porch -->
<g id="edge42" class="edge">
<title>GGOGG4&#45;&gt;porch</title>
<path fill="none" stroke="black" d="M498.26,-666C512.05,-666 526.93,-666 540.29,-666"/>
<polygon fill="black" stroke="black" points="540.62,-669.5 550.62,-666 540.62,-662.5 540.62,-669.5"/>
</g>
<!-- pouch -->
<g id="node43" class="node">
<title>pouch</title>
<ellipse fill="none" stroke="black" cx="448.57" cy="-612" rx="33.6" ry="18"/>
<text text-anchor="middle" x="448.57" y="-608.3" font-family="Times New Roman,serif" font-size="14.00">pouch</text>
</g>
<!-- OOXXO3&#45;&gt;pouch -->
<g id="edge44" class="edge">
<title>OOXXO3&#45;&gt;pouch</title>
<path fill="none" stroke="black" d="M346.92,-652.93C366.45,-644.99 391.42,-634.84 411.6,-626.63"/>
<polygon fill="black" stroke="black" points="413.13,-629.78 421.08,-622.77 410.49,-623.3 413.13,-629.78"/>
</g>
<!-- GGXGG3 -->
<g id="node46" class="node">
<title>GGXGG3</title>
<ellipse fill="none" stroke="black" cx="313.78" cy="-126" rx="48.99" ry="18"/>
<text text-anchor="middle" x="313.78" y="-122.3" font-family="Times New Roman,serif" font-size="14.00">GGXGG3</text>
</g>
<!-- XXOGG2&#45;&gt;GGXGG3 -->
<g id="edge48" class="edge">
<title>XXOGG2&#45;&gt;GGXGG3</title>
<path fill="none" stroke="black" d="M227.97,-126C236.69,-126 245.88,-126 254.86,-126"/>
<polygon fill="black" stroke="black" points="254.89,-129.5 264.89,-126 254.89,-122.5 254.89,-129.5"/>
</g>
<!-- torch -->
<g id="node56" class="node">
<title>torch</title>
<ellipse fill="none" stroke="black" cx="313.78" cy="-72" rx="29.8" ry="18"/>
<text text-anchor="middle" x="313.78" y="-68.3" font-family="Times New Roman,serif" font-size="14.00">torch</text>
</g>
<!-- XXOGG2&#45;&gt;torch -->
<g id="edge60" class="edge">
<title>XXOGG2&#45;&gt;torch</title>
<path fill="none" stroke="black" d="M212.96,-112.79C233.06,-104.58 258.84,-94.04 279.17,-85.74"/>
<polygon fill="black" stroke="black" points="280.73,-88.88 288.66,-81.86 278.08,-82.4 280.73,-88.88"/>
</g>
<!-- touch -->
<g id="node47" class="node">
<title>touch</title>
<ellipse fill="none" stroke="black" cx="448.57" cy="-153" rx="31.4" ry="18"/>
<text text-anchor="middle" x="448.57" y="-149.3" font-family="Times New Roman,serif" font-size="14.00">touch</text>
</g>
<!-- GGXGG3&#45;&gt;touch -->
<g id="edge49" class="edge">
<title>GGXGG3&#45;&gt;touch</title>
<path fill="none" stroke="black" d="M356.79,-134.54C373.37,-137.91 392.31,-141.76 408.58,-145.07"/>
<polygon fill="black" stroke="black" points="408.34,-148.6 418.84,-147.16 409.74,-141.74 408.34,-148.6"/>
</g>
<!-- chuck -->
<g id="node53" class="node">
<title>chuck</title>
<ellipse fill="none" stroke="black" cx="448.57" cy="-99" rx="32.49" ry="18"/>
<text text-anchor="middle" x="448.57" y="-95.3" font-family="Times New Roman,serif" font-size="14.00">chuck</text>
</g>
<!-- GGXGG3&#45;&gt;chuck -->
<g id="edge56" class="edge">
<title>GGXGG3&#45;&gt;chuck</title>
<path fill="none" stroke="black" d="M356.79,-117.46C373,-114.16 391.46,-110.41 407.48,-107.15"/>
<polygon fill="black" stroke="black" points="408.5,-110.52 417.6,-105.09 407.11,-103.66 408.5,-110.52"/>
</g>
<!-- notch -->
<g id="node49" class="node">
<title>notch</title>
<ellipse fill="none" stroke="black" cx="448.57" cy="-774" rx="31.4" ry="18"/>
<text text-anchor="middle" x="448.57" y="-770.3" font-family="Times New Roman,serif" font-size="14.00">notch</text>
</g>
<!-- XXOGG3&#45;&gt;notch -->
<g id="edge51" class="edge">
<title>XXOGG3&#45;&gt;notch</title>
<path fill="none" stroke="black" d="M344.91,-821.16C365.61,-811.65 393.1,-799.02 414.43,-789.22"/>
<polygon fill="black" stroke="black" points="416.12,-792.3 423.74,-784.95 413.2,-785.94 416.12,-792.3"/>
</g>
<!-- roach -->
<g id="node51" class="node">
<title>roach</title>
<ellipse fill="none" stroke="black" cx="448.57" cy="-504" rx="31.4" ry="18"/>
<text text-anchor="middle" x="448.57" y="-500.3" font-family="Times New Roman,serif" font-size="14.00">roach</text>
</g>
<!-- OGGGG3&#45;&gt;roach -->
<g id="edge53" class="edge">
<title>OGGGG3&#45;&gt;roach</title>
<path fill="none" stroke="black" d="M347.6,-544.65C367.54,-536.55 392.95,-526.21 413.16,-517.99"/>
<polygon fill="black" stroke="black" points="414.67,-521.16 422.62,-514.15 412.04,-514.67 414.67,-521.16"/>
</g>
<!-- XXXGO2&#45;&gt;GGXGG3 -->
<g id="edge55" class="edge">
<title>XXXGO2&#45;&gt;GGXGG3</title>
<path fill="none" stroke="black" d="M212.96,-166.79C230.4,-159.66 252.12,-150.79 270.85,-143.13"/>
<polygon fill="black" stroke="black" points="272.4,-146.28 280.33,-139.26 269.75,-139.8 272.4,-146.28"/>
</g>
<!-- chock -->
<g id="node63" class="node">
<title>chock</title>
<ellipse fill="none" stroke="black" cx="313.78" cy="-180" rx="33.29" ry="18"/>
<text text-anchor="middle" x="313.78" y="-176.3" font-family="Times New Roman,serif" font-size="14.00">chock</text>
</g>
<!-- XXXGO2&#45;&gt;chock -->
<g id="edge67" class="edge">
<title>XXXGO2&#45;&gt;chock</title>
<path fill="none" stroke="black" d="M227.97,-180C241.64,-180 256.48,-180 269.87,-180"/>
<polygon fill="black" stroke="black" points="270.25,-183.5 280.25,-180 270.25,-176.5 270.25,-183.5"/>
</g>
<!-- XGGGG3&#45;&gt;OGGGG4 -->
<g id="edge72" class="edge">
<title>XGGGG3&#45;&gt;OGGGG4</title>
<path fill="none" stroke="black" d="M362.72,-1692C371.16,-1692 380.02,-1692 388.72,-1692"/>
<polygon fill="black" stroke="black" points="388.81,-1695.5 398.81,-1692 388.81,-1688.5 388.81,-1695.5"/>
</g>
<!-- hunch -->
<g id="node58" class="node">
<title>hunch</title>
<ellipse fill="none" stroke="black" cx="448.57" cy="-1746" rx="32.49" ry="18"/>
<text text-anchor="middle" x="448.57" y="-1742.3" font-family="Times New Roman,serif" font-size="14.00">hunch</text>
</g>
<!-- XGGGG3&#45;&gt;hunch -->
<g id="edge62" class="edge">
<title>XGGGG3&#45;&gt;hunch</title>
<path fill="none" stroke="black" d="M347.26,-1705.21C366.93,-1713.21 392.01,-1723.41 412.18,-1731.61"/>
<polygon fill="black" stroke="black" points="411.06,-1734.93 421.64,-1735.46 413.7,-1728.45 411.06,-1734.93"/>
</g>
<!-- wrack -->
<g id="node62" class="node">
<title>wrack</title>
<ellipse fill="none" stroke="black" cx="448.57" cy="-1422" rx="32.49" ry="18"/>
<text text-anchor="middle" x="448.57" y="-1418.3" font-family="Times New Roman,serif" font-size="14.00">wrack</text>
</g>
<!-- GXGGG3&#45;&gt;wrack -->
<g id="edge66" class="edge">
<title>GXGGG3&#45;&gt;wrack</title>
<path fill="none" stroke="black" d="M362.72,-1422C376.81,-1422 392.1,-1422 405.78,-1422"/>
<polygon fill="black" stroke="black" points="405.87,-1425.5 415.87,-1422 405.87,-1418.5 405.87,-1425.5"/>
</g>
<!-- tract -->
<g id="node65" class="node">
<title>tract</title>
<ellipse fill="none" stroke="black" cx="448.57" cy="-450" rx="27" ry="18"/>
<text text-anchor="middle" x="448.57" y="-446.3" font-family="Times New Roman,serif" font-size="14.00">tract</text>
</g>
<!-- GGGGX3&#45;&gt;tract -->
<g id="edge69" class="edge">
<title>GGGGX3&#45;&gt;tract</title>
<path fill="none" stroke="black" d="M362.72,-450C378.62,-450 396.06,-450 410.96,-450"/>
<polygon fill="black" stroke="black" points="411.31,-453.5 421.31,-450 411.31,-446.5 411.31,-453.5"/>
</g>
<!-- truck -->
<g id="node67" class="node">
<title>truck</title>
<ellipse fill="none" stroke="black" cx="313.78" cy="-18" rx="29.5" ry="18"/>
<text text-anchor="middle" x="313.78" y="-14.3" font-family="Times New Roman,serif" font-size="14.00">truck</text>
</g>
<!-- XXOGX2&#45;&gt;truck -->
<g id="edge71" class="edge">
<title>XXOGX2&#45;&gt;truck</title>
<path fill="none" stroke="black" d="M227.97,-18C243.11,-18 259.67,-18 274.12,-18"/>
<polygon fill="black" stroke="black" points="274.21,-21.5 284.21,-18 274.21,-14.5 274.21,-21.5"/>
</g>
<!-- ranch -->
<g id="node70" class="node">
<title>ranch</title>
<ellipse fill="none" stroke="black" cx="448.57" cy="-342" rx="30.59" ry="18"/>
<text text-anchor="middle" x="448.57" y="-338.3" font-family="Times New Roman,serif" font-size="14.00">ranch</text>
</g>
<!-- XGOGG3&#45;&gt;ranch -->
<g id="edge75" class="edge">
<title>XGOGG3&#45;&gt;ranch</title>
<path fill="none" stroke="black" d="M362.72,-342C377.4,-342 393.39,-342 407.49,-342"/>
<polygon fill="black" stroke="black" points="407.85,-345.5 417.85,-342 407.85,-338.5 407.85,-345.5"/>
</g>
<!-- punch -->
<g id="node75" class="node">
<title>punch</title>
<ellipse fill="none" stroke="black" cx="448.57" cy="-558" rx="33.29" ry="18"/>
<text text-anchor="middle" x="448.57" y="-554.3" font-family="Times New Roman,serif" font-size="14.00">punch</text>
</g>
<!-- XGXXX3&#45;&gt;punch -->
<g id="edge81" class="edge">
<title>XGXXX3&#45;&gt;punch</title>
<path fill="none" stroke="black" d="M346.92,-598.93C366.58,-590.93 391.75,-580.7 412.01,-572.46"/>
<polygon fill="black" stroke="black" points="413.56,-575.61 421.51,-568.6 410.93,-569.12 413.56,-575.61"/>
</g>
<!-- knock -->
<g id="node77" class="node">
<title>knock</title>
<ellipse fill="none" stroke="black" cx="583.36" cy="-936" rx="33.29" ry="18"/>
<text text-anchor="middle" x="583.36" y="-932.3" font-family="Times New Roman,serif" font-size="14.00">knock</text>
</g>
<!-- OXGGG4&#45;&gt;knock -->
<g id="edge83" class="edge">
<title>OXGGG4&#45;&gt;knock</title>
<path fill="none" stroke="black" d="M497.51,-936C511.23,-936 526.09,-936 539.48,-936"/>
<polygon fill="black" stroke="black" points="539.86,-939.5 549.86,-936 539.86,-932.5 539.86,-939.5"/>
</g>
<!-- match -->
<g id="node79" class="node">
<title>match</title>
<ellipse fill="none" stroke="black" cx="583.36" cy="-882" rx="32.49" ry="18"/>
<text text-anchor="middle" x="583.36" y="-878.3" font-family="Times New Roman,serif" font-size="14.00">match</text>
</g>
<!-- OOOOX4&#45;&gt;match -->
<g id="edge85" class="edge">
<title>OOOOX4&#45;&gt;match</title>
<path fill="none" stroke="black" d="M497.51,-882C511.6,-882 526.89,-882 540.57,-882"/>
<polygon fill="black" stroke="black" points="540.66,-885.5 550.66,-882 540.66,-878.5 540.66,-885.5"/>
</g>
</g>
</svg>
