<?xml version="1.0" encoding="UTF-8" standalone="no"?>
<!DOCTYPE svg PUBLIC "-//W3C//DTD SVG 1.1//EN"
 "http://www.w3.org/Graphics/SVG/1.1/DTD/svg11.dtd">
<!-- Generated by graphviz version 2.50.0 (20211204.2007)
 -->
<!-- Pages: 1 -->
<svg width="599pt" height="476pt"
 viewBox="0.00 0.00 599.16 476.00" xmlns="http://www.w3.org/2000/svg" xmlns:xlink="http://www.w3.org/1999/xlink">
<g id="graph0" class="graph" transform="scale(1 1) rotate(0) translate(4 472)">
<polygon fill="white" stroke="transparent" points="-4,4 -4,-472 595.16,-472 595.16,4 -4,4"/>
<!-- XGXOX1 -->
<g id="node1" class="node">
<title>XGXOX1</title>
<ellipse fill="none" stroke="black" cx="48.1" cy="-180" rx="48.19" ry="18"/>
<text text-anchor="middle" x="48.1" y="-176.3" font-family="Times New Roman,serif" font-size="14.00">XGXOX1</text>
</g>
<!-- GGGXX2 -->
<g id="node2" class="node">
<title>GGGXX2</title>
<ellipse fill="none" stroke="black" cx="180.94" cy="-369" rx="48.19" ry="18"/>
<text text-anchor="middle" x="180.94" y="-365.3" font-family="Times New Roman,serif" font-size="14.00">GGGXX2</text>
</g>
<!-- XGXOX1&#45;&gt;GGGXX2 -->
<g id="edge1" class="edge">
<title>XGXOX1&#45;&gt;GGGXX2</title>
<path fill="none" stroke="black" d="M61.17,-197.44C84.34,-230.92 135.15,-304.3 162.19,-343.36"/>
<polygon fill="black" stroke="black" points="159.32,-345.37 167.89,-351.6 165.08,-341.39 159.32,-345.37"/>
</g>
<!-- GGXOX2 -->
<g id="node7" class="node">
<title>GGXOX2</title>
<ellipse fill="none" stroke="black" cx="180.94" cy="-234" rx="48.19" ry="18"/>
<text text-anchor="middle" x="180.94" y="-230.3" font-family="Times New Roman,serif" font-size="14.00">GGXOX2</text>
</g>
<!-- XGXOX1&#45;&gt;GGXOX2 -->
<g id="edge6" class="edge">
<title>XGXOX1&#45;&gt;GGXOX2</title>
<path fill="none" stroke="black" d="M81.1,-193.21C98.37,-200.34 119.88,-209.21 138.42,-216.87"/>
<polygon fill="black" stroke="black" points="137.23,-220.16 147.81,-220.74 139.9,-213.69 137.23,-220.16"/>
</g>
<!-- GGGGX2 -->
<g id="node10" class="node">
<title>GGGGX2</title>
<ellipse fill="none" stroke="black" cx="180.94" cy="-180" rx="48.99" ry="18"/>
<text text-anchor="middle" x="180.94" y="-176.3" font-family="Times New Roman,serif" font-size="14.00">GGGGX2</text>
</g>
<!-- XGXOX1&#45;&gt;GGGGX2 -->
<g id="edge9" class="edge">
<title>XGXOX1&#45;&gt;GGGGX2</title>
<path fill="none" stroke="black" d="M96.33,-180C104.55,-180 113.19,-180 121.67,-180"/>
<polygon fill="black" stroke="black" points="121.89,-183.5 131.89,-180 121.89,-176.5 121.89,-183.5"/>
</g>
<!-- GGXXX2 -->
<g id="node14" class="node">
<title>GGXXX2</title>
<ellipse fill="none" stroke="black" cx="180.94" cy="-126" rx="48.19" ry="18"/>
<text text-anchor="middle" x="180.94" y="-122.3" font-family="Times New Roman,serif" font-size="14.00">GGXXX2</text>
</g>
<!-- XGXOX1&#45;&gt;GGXXX2 -->
<g id="edge13" class="edge">
<title>XGXOX1&#45;&gt;GGXXX2</title>
<path fill="none" stroke="black" d="M81.1,-166.79C98.37,-159.66 119.88,-150.79 138.42,-143.13"/>
<polygon fill="black" stroke="black" points="139.9,-146.31 147.81,-139.26 137.23,-139.84 139.9,-146.31"/>
</g>
<!-- cloud -->
<g id="node20" class="node">
<title>cloud</title>
<ellipse fill="none" stroke="black" cx="180.94" cy="-72" rx="31.4" ry="18"/>
<text text-anchor="middle" x="180.94" y="-68.3" font-family="Times New Roman,serif" font-size="14.00">cloud</text>
</g>
<!-- XGXOX1&#45;&gt;cloud -->
<g id="edge19" class="edge">
<title>XGXOX1&#45;&gt;cloud</title>
<path fill="none" stroke="black" d="M64.21,-162.86C80.07,-145.48 106.25,-118.47 132.19,-99 137.07,-95.34 142.5,-91.82 147.89,-88.6"/>
<polygon fill="black" stroke="black" points="149.89,-91.49 156.84,-83.49 146.42,-85.41 149.89,-91.49"/>
</g>
<!-- OXXXO3 -->
<g id="node3" class="node">
<title>OXXXO3</title>
<ellipse fill="none" stroke="black" cx="313.78" cy="-450" rx="48.19" ry="18"/>
<text text-anchor="middle" x="313.78" y="-446.3" font-family="Times New Roman,serif" font-size="14.00">OXXXO3</text>
</g>
<!-- GGGXX2&#45;&gt;OXXXO3 -->
<g id="edge2" class="edge">
<title>GGGXX2&#45;&gt;OXXXO3</title>
<path fill="none" stroke="black" d="M205.55,-384.7C222.22,-395.65 245.14,-410.5 265.68,-423 269.5,-425.32 273.52,-427.71 277.53,-430.06"/>
<polygon fill="black" stroke="black" points="275.83,-433.12 286.23,-435.1 279.34,-427.06 275.83,-433.12"/>
</g>
<!-- XXXGO3 -->
<g id="node5" class="node">
<title>XXXGO3</title>
<ellipse fill="none" stroke="black" cx="313.78" cy="-396" rx="48.19" ry="18"/>
<text text-anchor="middle" x="313.78" y="-392.3" font-family="Times New Roman,serif" font-size="14.00">XXXGO3</text>
</g>
<!-- GGGXX2&#45;&gt;XXXGO3 -->
<g id="edge4" class="edge">
<title>GGGXX2&#45;&gt;XXXGO3</title>
<path fill="none" stroke="black" d="M223.34,-377.54C235.39,-380.03 248.7,-382.78 261.29,-385.38"/>
<polygon fill="black" stroke="black" points="260.7,-388.83 271.2,-387.42 262.11,-381.97 260.7,-388.83"/>
</g>
<!-- XXOXO3 -->
<g id="node12" class="node">
<title>XXOXO3</title>
<ellipse fill="none" stroke="black" cx="313.78" cy="-342" rx="48.19" ry="18"/>
<text text-anchor="middle" x="313.78" y="-338.3" font-family="Times New Roman,serif" font-size="14.00">XXOXO3</text>
</g>
<!-- GGGXX2&#45;&gt;XXOXO3 -->
<g id="edge11" class="edge">
<title>GGGXX2&#45;&gt;XXOXO3</title>
<path fill="none" stroke="black" d="M223.34,-360.46C235.39,-357.97 248.7,-355.22 261.29,-352.62"/>
<polygon fill="black" stroke="black" points="262.11,-356.03 271.2,-350.58 260.7,-349.17 262.11,-356.03"/>
</g>
<!-- cloth -->
<g id="node4" class="node">
<title>cloth</title>
<ellipse fill="none" stroke="black" cx="446.62" cy="-450" rx="28.7" ry="18"/>
<text text-anchor="middle" x="446.62" y="-446.3" font-family="Times New Roman,serif" font-size="14.00">cloth</text>
</g>
<!-- OXXXO3&#45;&gt;cloth -->
<g id="edge3" class="edge">
<title>OXXXO3&#45;&gt;cloth</title>
<path fill="none" stroke="black" d="M362.02,-450C376.95,-450 393.25,-450 407.47,-450"/>
<polygon fill="black" stroke="black" points="407.87,-453.5 417.87,-450 407.87,-446.5 407.87,-453.5"/>
</g>
<!-- clown -->
<g id="node6" class="node">
<title>clown</title>
<ellipse fill="none" stroke="black" cx="446.62" cy="-396" rx="32.49" ry="18"/>
<text text-anchor="middle" x="446.62" y="-392.3" font-family="Times New Roman,serif" font-size="14.00">clown</text>
</g>
<!-- XXXGO3&#45;&gt;clown -->
<g id="edge5" class="edge">
<title>XXXGO3&#45;&gt;clown</title>
<path fill="none" stroke="black" d="M362.02,-396C375.65,-396 390.42,-396 403.71,-396"/>
<polygon fill="black" stroke="black" points="403.99,-399.5 413.99,-396 403.99,-392.5 403.99,-399.5"/>
</g>
<!-- GGGXX3 -->
<g id="node8" class="node">
<title>GGGXX3</title>
<ellipse fill="none" stroke="black" cx="313.78" cy="-288" rx="48.19" ry="18"/>
<text text-anchor="middle" x="313.78" y="-284.3" font-family="Times New Roman,serif" font-size="14.00">GGGXX3</text>
</g>
<!-- GGXOX2&#45;&gt;GGGXX3 -->
<g id="edge7" class="edge">
<title>GGXOX2&#45;&gt;GGGXX3</title>
<path fill="none" stroke="black" d="M213.94,-247.21C231.21,-254.34 252.72,-263.21 271.26,-270.87"/>
<polygon fill="black" stroke="black" points="270.07,-274.16 280.65,-274.74 272.74,-267.69 270.07,-274.16"/>
</g>
<!-- clump -->
<g id="node22" class="node">
<title>clump</title>
<ellipse fill="none" stroke="black" cx="313.78" cy="-234" rx="33.29" ry="18"/>
<text text-anchor="middle" x="313.78" y="-230.3" font-family="Times New Roman,serif" font-size="14.00">clump</text>
</g>
<!-- GGXOX2&#45;&gt;clump -->
<g id="edge21" class="edge">
<title>GGXOX2&#45;&gt;clump</title>
<path fill="none" stroke="black" d="M229.17,-234C242.57,-234 257.08,-234 270.19,-234"/>
<polygon fill="black" stroke="black" points="270.35,-237.5 280.35,-234 270.35,-230.5 270.35,-237.5"/>
</g>
<!-- clung -->
<g id="node9" class="node">
<title>clung</title>
<ellipse fill="none" stroke="black" cx="446.62" cy="-288" rx="30.59" ry="18"/>
<text text-anchor="middle" x="446.62" y="-284.3" font-family="Times New Roman,serif" font-size="14.00">clung</text>
</g>
<!-- GGGXX3&#45;&gt;clung -->
<g id="edge8" class="edge">
<title>GGGXX3&#45;&gt;clung</title>
<path fill="none" stroke="black" d="M362.02,-288C376.36,-288 391.98,-288 405.79,-288"/>
<polygon fill="black" stroke="black" points="405.95,-291.5 415.95,-288 405.95,-284.5 405.95,-291.5"/>
</g>
<!-- clout -->
<g id="node11" class="node">
<title>clout</title>
<ellipse fill="none" stroke="black" cx="313.78" cy="-180" rx="28.7" ry="18"/>
<text text-anchor="middle" x="313.78" y="-176.3" font-family="Times New Roman,serif" font-size="14.00">clout</text>
</g>
<!-- GGGGX2&#45;&gt;clout -->
<g id="edge10" class="edge">
<title>GGGGX2&#45;&gt;clout</title>
<path fill="none" stroke="black" d="M229.91,-180C244.68,-180 260.72,-180 274.72,-180"/>
<polygon fill="black" stroke="black" points="274.97,-183.5 284.97,-180 274.97,-176.5 274.97,-183.5"/>
</g>
<!-- cloak -->
<g id="node13" class="node">
<title>cloak</title>
<ellipse fill="none" stroke="black" cx="446.62" cy="-342" rx="30.59" ry="18"/>
<text text-anchor="middle" x="446.62" y="-338.3" font-family="Times New Roman,serif" font-size="14.00">cloak</text>
</g>
<!-- XXOXO3&#45;&gt;cloak -->
<g id="edge12" class="edge">
<title>XXOXO3&#45;&gt;cloak</title>
<path fill="none" stroke="black" d="M362.02,-342C376.36,-342 391.98,-342 405.79,-342"/>
<polygon fill="black" stroke="black" points="405.95,-345.5 415.95,-342 405.95,-338.5 405.95,-345.5"/>
</g>
<!-- XXOXX3 -->
<g id="node15" class="node">
<title>XXOXX3</title>
<ellipse fill="none" stroke="black" cx="313.78" cy="-126" rx="47.39" ry="18"/>
<text text-anchor="middle" x="313.78" y="-122.3" font-family="Times New Roman,serif" font-size="14.00">XXOXX3</text>
</g>
<!-- GGXXX2&#45;&gt;XXOXX3 -->
<g id="edge14" class="edge">
<title>GGXXX2&#45;&gt;XXOXX3</title>
<path fill="none" stroke="black" d="M229.17,-126C237.8,-126 246.89,-126 255.77,-126"/>
<polygon fill="black" stroke="black" points="256.05,-129.5 266.05,-126 256.05,-122.5 256.05,-129.5"/>
</g>
<!-- XOXXX3 -->
<g id="node17" class="node">
<title>XOXXX3</title>
<ellipse fill="none" stroke="black" cx="313.78" cy="-72" rx="47.39" ry="18"/>
<text text-anchor="middle" x="313.78" y="-68.3" font-family="Times New Roman,serif" font-size="14.00">XOXXX3</text>
</g>
<!-- GGXXX2&#45;&gt;XOXXX3 -->
<g id="edge16" class="edge">
<title>GGXXX2&#45;&gt;XOXXX3</title>
<path fill="none" stroke="black" d="M213.94,-112.79C231.34,-105.61 253.04,-96.65 271.68,-88.96"/>
<polygon fill="black" stroke="black" points="273.19,-92.12 281.1,-85.07 270.52,-85.65 273.19,-92.12"/>
</g>
<!-- clamp -->
<g id="node16" class="node">
<title>clamp</title>
<ellipse fill="none" stroke="black" cx="446.62" cy="-126" rx="32.49" ry="18"/>
<text text-anchor="middle" x="446.62" y="-122.3" font-family="Times New Roman,serif" font-size="14.00">clamp</text>
</g>
<!-- XXOXX3&#45;&gt;clamp -->
<g id="edge15" class="edge">
<title>XXOXX3&#45;&gt;clamp</title>
<path fill="none" stroke="black" d="M361.28,-126C375.21,-126 390.39,-126 403.99,-126"/>
<polygon fill="black" stroke="black" points="404.03,-129.5 414.03,-126 404.03,-122.5 404.03,-129.5"/>
</g>
<!-- GGGGX4 -->
<g id="node18" class="node">
<title>GGGGX4</title>
<ellipse fill="none" stroke="black" cx="446.62" cy="-72" rx="48.99" ry="18"/>
<text text-anchor="middle" x="446.62" y="-68.3" font-family="Times New Roman,serif" font-size="14.00">GGGGX4</text>
</g>
<!-- XOXXX3&#45;&gt;GGGGX4 -->
<g id="edge17" class="edge">
<title>XOXXX3&#45;&gt;GGGGX4</title>
<path fill="none" stroke="black" d="M361.28,-72C369.72,-72 378.63,-72 387.37,-72"/>
<polygon fill="black" stroke="black" points="387.5,-75.5 397.5,-72 387.5,-68.5 387.5,-75.5"/>
</g>
<!-- clang -->
<g id="node21" class="node">
<title>clang</title>
<ellipse fill="none" stroke="black" cx="446.62" cy="-18" rx="29.8" ry="18"/>
<text text-anchor="middle" x="446.62" y="-14.3" font-family="Times New Roman,serif" font-size="14.00">clang</text>
</g>
<!-- XOXXX3&#45;&gt;clang -->
<g id="edge20" class="edge">
<title>XOXXX3&#45;&gt;clang</title>
<path fill="none" stroke="black" d="M346.45,-58.93C366.34,-50.72 391.96,-40.15 412.18,-31.8"/>
<polygon fill="black" stroke="black" points="413.71,-34.96 421.62,-27.91 411.04,-28.49 413.71,-34.96"/>
</g>
<!-- clank -->
<g id="node19" class="node">
<title>clank</title>
<ellipse fill="none" stroke="black" cx="561.26" cy="-72" rx="29.8" ry="18"/>
<text text-anchor="middle" x="561.26" y="-68.3" font-family="Times New Roman,serif" font-size="14.00">clank</text>
</g>
<!-- GGGGX4&#45;&gt;clank -->
<g id="edge18" class="edge">
<title>GGGGX4&#45;&gt;clank</title>
<path fill="none" stroke="black" d="M495.39,-72C503.99,-72 512.86,-72 521.18,-72"/>
<polygon fill="black" stroke="black" points="521.36,-75.5 531.36,-72 521.36,-68.5 521.36,-75.5"/>
</g>
</g>
</svg>
