<?xml version="1.0" encoding="UTF-8" standalone="no"?>
<!DOCTYPE svg PUBLIC "-//W3C//DTD SVG 1.1//EN"
 "http://www.w3.org/Graphics/SVG/1.1/DTD/svg11.dtd">
<!-- Generated by graphviz version 2.50.0 (20211204.2007)
 -->
<!-- Pages: 1 -->
<svg width="468pt" height="422pt"
 viewBox="0.00 0.00 468.27 422.00" xmlns="http://www.w3.org/2000/svg" xmlns:xlink="http://www.w3.org/1999/xlink">
<g id="graph0" class="graph" transform="scale(1 1) rotate(0) translate(4 418)">
<polygon fill="white" stroke="transparent" points="-4,4 -4,-418 464.27,-418 464.27,4 -4,4"/>
<!-- XGXGX1 -->
<g id="node1" class="node">
<title>XGXGX1</title>
<ellipse fill="none" stroke="black" cx="48.1" cy="-126" rx="48.19" ry="18"/>
<text text-anchor="middle" x="48.1" y="-122.3" font-family="Times New Roman,serif" font-size="14.00">XGXGX1</text>
</g>
<!-- XXOXX2 -->
<g id="node2" class="node">
<title>XXOXX2</title>
<ellipse fill="none" stroke="black" cx="180.29" cy="-261" rx="47.39" ry="18"/>
<text text-anchor="middle" x="180.29" y="-257.3" font-family="Times New Roman,serif" font-size="14.00">XXOXX2</text>
</g>
<!-- XGXGX1&#45;&gt;XXOXX2 -->
<g id="edge1" class="edge">
<title>XGXGX1&#45;&gt;XXOXX2</title>
<path fill="none" stroke="black" d="M65.32,-142.82C88.03,-166.37 129.43,-209.3 155.59,-236.43"/>
<polygon fill="black" stroke="black" points="153.4,-239.19 162.86,-243.96 158.43,-234.34 153.4,-239.19"/>
</g>
<!-- XXOXO2 -->
<g id="node7" class="node">
<title>XXOXO2</title>
<ellipse fill="none" stroke="black" cx="180.29" cy="-126" rx="48.19" ry="18"/>
<text text-anchor="middle" x="180.29" y="-122.3" font-family="Times New Roman,serif" font-size="14.00">XXOXO2</text>
</g>
<!-- XGXGX1&#45;&gt;XXOXO2 -->
<g id="edge6" class="edge">
<title>XGXGX1&#45;&gt;XXOXO2</title>
<path fill="none" stroke="black" d="M96.47,-126C104.74,-126 113.42,-126 121.92,-126"/>
<polygon fill="black" stroke="black" points="122.17,-129.5 132.17,-126 122.17,-122.5 122.17,-129.5"/>
</g>
<!-- GXOXX2 -->
<g id="node9" class="node">
<title>GXOXX2</title>
<ellipse fill="none" stroke="black" cx="180.29" cy="-72" rx="48.19" ry="18"/>
<text text-anchor="middle" x="180.29" y="-68.3" font-family="Times New Roman,serif" font-size="14.00">GXOXX2</text>
</g>
<!-- XGXGX1&#45;&gt;GXOXX2 -->
<g id="edge8" class="edge">
<title>XGXGX1&#45;&gt;GXOXX2</title>
<path fill="none" stroke="black" d="M80.94,-112.79C98.12,-105.66 119.53,-96.79 137.98,-89.13"/>
<polygon fill="black" stroke="black" points="139.42,-92.32 147.32,-85.26 136.74,-85.86 139.42,-92.32"/>
</g>
<!-- XXOXO3 -->
<g id="node3" class="node">
<title>XXOXO3</title>
<ellipse fill="none" stroke="black" cx="313.13" cy="-396" rx="48.19" ry="18"/>
<text text-anchor="middle" x="313.13" y="-392.3" font-family="Times New Roman,serif" font-size="14.00">XXOXO3</text>
</g>
<!-- XXOXX2&#45;&gt;XXOXO3 -->
<g id="edge2" class="edge">
<title>XXOXX2&#45;&gt;XXOXO3</title>
<path fill="none" stroke="black" d="M191.83,-278.84C206.08,-301.82 233.3,-342.02 264.38,-369 267.41,-371.63 270.74,-374.12 274.18,-376.46"/>
<polygon fill="black" stroke="black" points="272.53,-379.56 282.87,-381.91 276.25,-373.63 272.53,-379.56"/>
</g>
<!-- XOOXO3 -->
<g id="node5" class="node">
<title>XOOXO3</title>
<ellipse fill="none" stroke="black" cx="313.13" cy="-342" rx="48.19" ry="18"/>
<text text-anchor="middle" x="313.13" y="-338.3" font-family="Times New Roman,serif" font-size="14.00">XOOXO3</text>
</g>
<!-- XXOXX2&#45;&gt;XOOXO3 -->
<g id="edge4" class="edge">
<title>XXOXX2&#45;&gt;XOOXO3</title>
<path fill="none" stroke="black" d="M204.68,-276.75C221.2,-287.74 243.94,-302.59 264.38,-315 268.24,-317.34 272.31,-319.74 276.38,-322.1"/>
<polygon fill="black" stroke="black" points="274.78,-325.22 285.19,-327.15 278.26,-319.14 274.78,-325.22"/>
</g>
<!-- GXOOO3 -->
<g id="node11" class="node">
<title>GXOOO3</title>
<ellipse fill="none" stroke="black" cx="313.13" cy="-288" rx="48.99" ry="18"/>
<text text-anchor="middle" x="313.13" y="-284.3" font-family="Times New Roman,serif" font-size="14.00">GXOOO3</text>
</g>
<!-- XXOXX2&#45;&gt;GXOOO3 -->
<g id="edge10" class="edge">
<title>XXOXX2&#45;&gt;GXOOO3</title>
<path fill="none" stroke="black" d="M222.33,-269.47C234.39,-271.96 247.75,-274.71 260.39,-277.32"/>
<polygon fill="black" stroke="black" points="259.83,-280.78 270.33,-279.38 261.25,-273.93 259.83,-280.78"/>
</g>
<!-- GOOXO3 -->
<g id="node13" class="node">
<title>GOOXO3</title>
<ellipse fill="none" stroke="black" cx="313.13" cy="-234" rx="48.99" ry="18"/>
<text text-anchor="middle" x="313.13" y="-230.3" font-family="Times New Roman,serif" font-size="14.00">GOOXO3</text>
</g>
<!-- XXOXX2&#45;&gt;GOOXO3 -->
<g id="edge12" class="edge">
<title>XXOXX2&#45;&gt;GOOXO3</title>
<path fill="none" stroke="black" d="M222.33,-252.53C234.39,-250.04 247.75,-247.29 260.39,-244.68"/>
<polygon fill="black" stroke="black" points="261.25,-248.07 270.33,-242.62 259.83,-241.22 261.25,-248.07"/>
</g>
<!-- XXOOO3 -->
<g id="node17" class="node">
<title>XXOOO3</title>
<ellipse fill="none" stroke="black" cx="313.13" cy="-180" rx="48.19" ry="18"/>
<text text-anchor="middle" x="313.13" y="-176.3" font-family="Times New Roman,serif" font-size="14.00">XXOOO3</text>
</g>
<!-- XXOXX2&#45;&gt;XXOOO3 -->
<g id="edge16" class="edge">
<title>XXOXX2&#45;&gt;XXOOO3</title>
<path fill="none" stroke="black" d="M204.68,-245.25C221.2,-234.26 243.94,-219.41 264.38,-207 268.24,-204.66 272.31,-202.26 276.38,-199.9"/>
<polygon fill="black" stroke="black" points="278.26,-202.86 285.19,-194.85 274.78,-196.78 278.26,-202.86"/>
</g>
<!-- cluck -->
<g id="node4" class="node">
<title>cluck</title>
<ellipse fill="none" stroke="black" cx="429.07" cy="-396" rx="30.59" ry="18"/>
<text text-anchor="middle" x="429.07" y="-392.3" font-family="Times New Roman,serif" font-size="14.00">cluck</text>
</g>
<!-- XXOXO3&#45;&gt;cluck -->
<g id="edge3" class="edge">
<title>XXOXO3&#45;&gt;cluck</title>
<path fill="none" stroke="black" d="M361.46,-396C370.33,-396 379.52,-396 388.13,-396"/>
<polygon fill="black" stroke="black" points="388.3,-399.5 398.3,-396 388.3,-392.5 388.3,-399.5"/>
</g>
<!-- clock -->
<g id="node6" class="node">
<title>clock</title>
<ellipse fill="none" stroke="black" cx="429.07" cy="-342" rx="30.59" ry="18"/>
<text text-anchor="middle" x="429.07" y="-338.3" font-family="Times New Roman,serif" font-size="14.00">clock</text>
</g>
<!-- XOOXO3&#45;&gt;clock -->
<g id="edge5" class="edge">
<title>XOOXO3&#45;&gt;clock</title>
<path fill="none" stroke="black" d="M361.46,-342C370.33,-342 379.52,-342 388.13,-342"/>
<polygon fill="black" stroke="black" points="388.3,-345.5 398.3,-342 388.3,-338.5 388.3,-345.5"/>
</g>
<!-- pluck -->
<g id="node8" class="node">
<title>pluck</title>
<ellipse fill="none" stroke="black" cx="313.13" cy="-126" rx="30.59" ry="18"/>
<text text-anchor="middle" x="313.13" y="-122.3" font-family="Times New Roman,serif" font-size="14.00">pluck</text>
</g>
<!-- XXOXO2&#45;&gt;pluck -->
<g id="edge7" class="edge">
<title>XXOXO2&#45;&gt;pluck</title>
<path fill="none" stroke="black" d="M228.52,-126C242.87,-126 258.49,-126 272.3,-126"/>
<polygon fill="black" stroke="black" points="272.46,-129.5 282.46,-126 272.46,-122.5 272.46,-129.5"/>
</g>
<!-- black -->
<g id="node10" class="node">
<title>black</title>
<ellipse fill="none" stroke="black" cx="313.13" cy="-72" rx="30.59" ry="18"/>
<text text-anchor="middle" x="313.13" y="-68.3" font-family="Times New Roman,serif" font-size="14.00">black</text>
</g>
<!-- GXOXX2&#45;&gt;black -->
<g id="edge9" class="edge">
<title>GXOXX2&#45;&gt;black</title>
<path fill="none" stroke="black" d="M228.52,-72C242.87,-72 258.49,-72 272.3,-72"/>
<polygon fill="black" stroke="black" points="272.46,-75.5 282.46,-72 272.46,-68.5 272.46,-75.5"/>
</g>
<!-- GGXGG3 -->
<g id="node15" class="node">
<title>GGXGG3</title>
<ellipse fill="none" stroke="black" cx="313.13" cy="-18" rx="48.99" ry="18"/>
<text text-anchor="middle" x="313.13" y="-14.3" font-family="Times New Roman,serif" font-size="14.00">GGXGG3</text>
</g>
<!-- GXOXX2&#45;&gt;GGXGG3 -->
<g id="edge14" class="edge">
<title>GXOXX2&#45;&gt;GGXGG3</title>
<path fill="none" stroke="black" d="M213.29,-58.79C230.56,-51.66 252.07,-42.79 270.61,-35.13"/>
<polygon fill="black" stroke="black" points="272.09,-38.31 280,-31.26 269.42,-31.84 272.09,-38.31"/>
</g>
<!-- flack -->
<g id="node12" class="node">
<title>flack</title>
<ellipse fill="none" stroke="black" cx="429.07" cy="-288" rx="28.7" ry="18"/>
<text text-anchor="middle" x="429.07" y="-284.3" font-family="Times New Roman,serif" font-size="14.00">flack</text>
</g>
<!-- GXOOO3&#45;&gt;flack -->
<g id="edge11" class="edge">
<title>GXOOO3&#45;&gt;flack</title>
<path fill="none" stroke="black" d="M362.12,-288C371.48,-288 381.16,-288 390.14,-288"/>
<polygon fill="black" stroke="black" points="390.28,-291.5 400.28,-288 390.28,-284.5 390.28,-291.5"/>
</g>
<!-- flock -->
<g id="node14" class="node">
<title>flock</title>
<ellipse fill="none" stroke="black" cx="429.07" cy="-234" rx="29.5" ry="18"/>
<text text-anchor="middle" x="429.07" y="-230.3" font-family="Times New Roman,serif" font-size="14.00">flock</text>
</g>
<!-- GOOXO3&#45;&gt;flock -->
<g id="edge13" class="edge">
<title>GOOXO3&#45;&gt;flock</title>
<path fill="none" stroke="black" d="M362.12,-234C371.3,-234 380.8,-234 389.63,-234"/>
<polygon fill="black" stroke="black" points="389.63,-237.5 399.63,-234 389.63,-230.5 389.63,-237.5"/>
</g>
<!-- block -->
<g id="node16" class="node">
<title>block</title>
<ellipse fill="none" stroke="black" cx="429.07" cy="-18" rx="31.4" ry="18"/>
<text text-anchor="middle" x="429.07" y="-14.3" font-family="Times New Roman,serif" font-size="14.00">block</text>
</g>
<!-- GGXGG3&#45;&gt;block -->
<g id="edge15" class="edge">
<title>GGXGG3&#45;&gt;block</title>
<path fill="none" stroke="black" d="M362.12,-18C370.59,-18 379.33,-18 387.56,-18"/>
<polygon fill="black" stroke="black" points="387.67,-21.5 397.67,-18 387.67,-14.5 387.67,-21.5"/>
</g>
<!-- clack -->
<g id="node18" class="node">
<title>clack</title>
<ellipse fill="none" stroke="black" cx="429.07" cy="-180" rx="29.8" ry="18"/>
<text text-anchor="middle" x="429.07" y="-176.3" font-family="Times New Roman,serif" font-size="14.00">clack</text>
</g>
<!-- XXOOO3&#45;&gt;clack -->
<g id="edge17" class="edge">
<title>XXOOO3&#45;&gt;clack</title>
<path fill="none" stroke="black" d="M361.46,-180C370.6,-180 380.08,-180 388.93,-180"/>
<polygon fill="black" stroke="black" points="388.96,-183.5 398.96,-180 388.96,-176.5 388.96,-183.5"/>
</g>
</g>
</svg>
