<?xml version="1.0" encoding="UTF-8" standalone="no"?>
<!DOCTYPE svg PUBLIC "-//W3C//DTD SVG 1.1//EN"
 "http://www.w3.org/Graphics/SVG/1.1/DTD/svg11.dtd">
<!-- Generated by graphviz version 2.50.0 (20211204.2007)
 -->
<!-- Pages: 1 -->
<svg width="464pt" height="206pt"
 viewBox="0.00 0.00 464.37 206.00" xmlns="http://www.w3.org/2000/svg" xmlns:xlink="http://www.w3.org/1999/xlink">
<g id="graph0" class="graph" transform="scale(1 1) rotate(0) translate(4 202)">
<polygon fill="white" stroke="transparent" points="-4,4 -4,-202 460.37,-202 460.37,4 -4,4"/>
<!-- XOXGO1 -->
<g id="node1" class="node">
<title>XOXGO1</title>
<ellipse fill="none" stroke="black" cx="48.1" cy="-126" rx="48.19" ry="18"/>
<text text-anchor="middle" x="48.1" y="-122.3" font-family="Times New Roman,serif" font-size="14.00">XOXGO1</text>
</g>
<!-- GOXXX2 -->
<g id="node2" class="node">
<title>GOXXX2</title>
<ellipse fill="none" stroke="black" cx="180.29" cy="-180" rx="48.19" ry="18"/>
<text text-anchor="middle" x="180.29" y="-176.3" font-family="Times New Roman,serif" font-size="14.00">GOXXX2</text>
</g>
<!-- XOXGO1&#45;&gt;GOXXX2 -->
<g id="edge1" class="edge">
<title>XOXGO1&#45;&gt;GOXXX2</title>
<path fill="none" stroke="black" d="M80.94,-139.21C98.12,-146.34 119.53,-155.21 137.98,-162.87"/>
<polygon fill="black" stroke="black" points="136.74,-166.14 147.32,-166.74 139.42,-159.68 136.74,-166.14"/>
</g>
<!-- XOXOX2 -->
<g id="node4" class="node">
<title>XOXOX2</title>
<ellipse fill="none" stroke="black" cx="180.29" cy="-126" rx="48.19" ry="18"/>
<text text-anchor="middle" x="180.29" y="-122.3" font-family="Times New Roman,serif" font-size="14.00">XOXOX2</text>
</g>
<!-- XOXGO1&#45;&gt;XOXOX2 -->
<g id="edge3" class="edge">
<title>XOXGO1&#45;&gt;XOXOX2</title>
<path fill="none" stroke="black" d="M96.47,-126C104.74,-126 113.42,-126 121.92,-126"/>
<polygon fill="black" stroke="black" points="122.17,-129.5 132.17,-126 122.17,-122.5 122.17,-129.5"/>
</g>
<!-- XOXXX2 -->
<g id="node6" class="node">
<title>XOXXX2</title>
<ellipse fill="none" stroke="black" cx="180.29" cy="-72" rx="47.39" ry="18"/>
<text text-anchor="middle" x="180.29" y="-68.3" font-family="Times New Roman,serif" font-size="14.00">XOXXX2</text>
</g>
<!-- XOXGO1&#45;&gt;XOXXX2 -->
<g id="edge5" class="edge">
<title>XOXGO1&#45;&gt;XOXXX2</title>
<path fill="none" stroke="black" d="M80.94,-112.79C98.12,-105.66 119.53,-96.79 137.98,-89.13"/>
<polygon fill="black" stroke="black" points="139.42,-92.32 147.32,-85.26 136.74,-85.86 139.42,-92.32"/>
</g>
<!-- belch -->
<g id="node3" class="node">
<title>belch</title>
<ellipse fill="none" stroke="black" cx="313.13" cy="-180" rx="30.59" ry="18"/>
<text text-anchor="middle" x="313.13" y="-176.3" font-family="Times New Roman,serif" font-size="14.00">belch</text>
</g>
<!-- GOXXX2&#45;&gt;belch -->
<g id="edge2" class="edge">
<title>GOXXX2&#45;&gt;belch</title>
<path fill="none" stroke="black" d="M228.52,-180C242.87,-180 258.49,-180 272.3,-180"/>
<polygon fill="black" stroke="black" points="272.46,-183.5 282.46,-180 272.46,-176.5 272.46,-183.5"/>
</g>
<!-- welch -->
<g id="node5" class="node">
<title>welch</title>
<ellipse fill="none" stroke="black" cx="313.13" cy="-126" rx="31.7" ry="18"/>
<text text-anchor="middle" x="313.13" y="-122.3" font-family="Times New Roman,serif" font-size="14.00">welch</text>
</g>
<!-- XOXOX2&#45;&gt;welch -->
<g id="edge4" class="edge">
<title>XOXOX2&#45;&gt;welch</title>
<path fill="none" stroke="black" d="M228.52,-126C242.27,-126 257.18,-126 270.55,-126"/>
<polygon fill="black" stroke="black" points="270.89,-129.5 280.89,-126 270.89,-122.5 270.89,-129.5"/>
</g>
<!-- GGXGG3 -->
<g id="node7" class="node">
<title>GGXGG3</title>
<ellipse fill="none" stroke="black" cx="313.13" cy="-72" rx="48.99" ry="18"/>
<text text-anchor="middle" x="313.13" y="-68.3" font-family="Times New Roman,serif" font-size="14.00">GGXGG3</text>
</g>
<!-- XOXXX2&#45;&gt;GGXGG3 -->
<g id="edge6" class="edge">
<title>XOXXX2&#45;&gt;GGXGG3</title>
<path fill="none" stroke="black" d="M227.79,-72C236.23,-72 245.14,-72 253.87,-72"/>
<polygon fill="black" stroke="black" points="254.01,-75.5 264.01,-72 254.01,-68.5 254.01,-75.5"/>
</g>
<!-- leach -->
<g id="node9" class="node">
<title>leach</title>
<ellipse fill="none" stroke="black" cx="313.13" cy="-18" rx="29.5" ry="18"/>
<text text-anchor="middle" x="313.13" y="-14.3" font-family="Times New Roman,serif" font-size="14.00">leach</text>
</g>
<!-- XOXXX2&#45;&gt;leach -->
<g id="edge8" class="edge">
<title>XOXXX2&#45;&gt;leach</title>
<path fill="none" stroke="black" d="M212.96,-58.93C232.85,-50.72 258.47,-40.15 278.68,-31.8"/>
<polygon fill="black" stroke="black" points="280.22,-34.96 288.13,-27.91 277.55,-28.49 280.22,-34.96"/>
</g>
<!-- leech -->
<g id="node8" class="node">
<title>leech</title>
<ellipse fill="none" stroke="black" cx="427.12" cy="-72" rx="29.5" ry="18"/>
<text text-anchor="middle" x="427.12" y="-68.3" font-family="Times New Roman,serif" font-size="14.00">leech</text>
</g>
<!-- GGXGG3&#45;&gt;leech -->
<g id="edge7" class="edge">
<title>GGXGG3&#45;&gt;leech</title>
<path fill="none" stroke="black" d="M361.95,-72C370.48,-72 379.26,-72 387.49,-72"/>
<polygon fill="black" stroke="black" points="387.56,-75.5 397.56,-72 387.56,-68.5 387.56,-75.5"/>
</g>
</g>
</svg>
