<?xml version="1.0" encoding="UTF-8" standalone="no"?>
<!DOCTYPE svg PUBLIC "-//W3C//DTD SVG 1.1//EN"
 "http://www.w3.org/Graphics/SVG/1.1/DTD/svg11.dtd">
<!-- Generated by graphviz version 2.50.0 (20211204.2007)
 -->
<!-- Pages: 1 -->
<svg width="335pt" height="98pt"
 viewBox="0.00 0.00 334.78 98.00" xmlns="http://www.w3.org/2000/svg" xmlns:xlink="http://www.w3.org/1999/xlink">
<g id="graph0" class="graph" transform="scale(1 1) rotate(0) translate(4 94)">
<polygon fill="white" stroke="transparent" points="-4,4 -4,-94 330.78,-94 330.78,4 -4,4"/>
<!-- XGXOG1 -->
<g id="node1" class="node">
<title>XGXOG1</title>
<ellipse fill="none" stroke="black" cx="48.1" cy="-45" rx="48.19" ry="18"/>
<text text-anchor="middle" x="48.1" y="-41.3" font-family="Times New Roman,serif" font-size="14.00">XGXOG1</text>
</g>
<!-- GGGXG2 -->
<g id="node2" class="node">
<title>GGGXG2</title>
<ellipse fill="none" stroke="black" cx="180.94" cy="-72" rx="48.99" ry="18"/>
<text text-anchor="middle" x="180.94" y="-68.3" font-family="Times New Roman,serif" font-size="14.00">GGGXG2</text>
</g>
<!-- XGXOG1&#45;&gt;GGGXG2 -->
<g id="edge1" class="edge">
<title>XGXOG1&#45;&gt;GGGXG2</title>
<path fill="none" stroke="black" d="M90.49,-53.54C102.43,-56.01 115.6,-58.72 128.08,-61.3"/>
<polygon fill="black" stroke="black" points="127.41,-64.73 137.91,-63.33 128.82,-57.88 127.41,-64.73"/>
</g>
<!-- clone -->
<g id="node4" class="node">
<title>clone</title>
<ellipse fill="none" stroke="black" cx="180.94" cy="-18" rx="30.59" ry="18"/>
<text text-anchor="middle" x="180.94" y="-14.3" font-family="Times New Roman,serif" font-size="14.00">clone</text>
</g>
<!-- XGXOG1&#45;&gt;clone -->
<g id="edge3" class="edge">
<title>XGXOG1&#45;&gt;clone</title>
<path fill="none" stroke="black" d="M90.49,-36.46C106.83,-33.09 125.49,-29.24 141.52,-25.93"/>
<polygon fill="black" stroke="black" points="142.54,-29.29 151.63,-23.84 141.13,-22.44 142.54,-29.29"/>
</g>
<!-- clove -->
<g id="node3" class="node">
<title>clove</title>
<ellipse fill="none" stroke="black" cx="296.23" cy="-72" rx="30.59" ry="18"/>
<text text-anchor="middle" x="296.23" y="-68.3" font-family="Times New Roman,serif" font-size="14.00">clove</text>
</g>
<!-- GGGXG2&#45;&gt;clove -->
<g id="edge2" class="edge">
<title>GGGXG2&#45;&gt;clove</title>
<path fill="none" stroke="black" d="M229.98,-72C238.46,-72 247.21,-72 255.43,-72"/>
<polygon fill="black" stroke="black" points="255.51,-75.5 265.51,-72 255.51,-68.5 255.51,-75.5"/>
</g>
</g>
</svg>
