<?xml version="1.0" encoding="UTF-8" standalone="no"?>
<!DOCTYPE svg PUBLIC "-//W3C//DTD SVG 1.1//EN"
 "http://www.w3.org/Graphics/SVG/1.1/DTD/svg11.dtd">
<!-- Generated by graphviz version 2.50.0 (20211204.2007)
 -->
<!-- Pages: 1 -->
<svg width="461pt" height="287pt"
 viewBox="0.00 0.00 461.17 287.00" xmlns="http://www.w3.org/2000/svg" xmlns:xlink="http://www.w3.org/1999/xlink">
<g id="graph0" class="graph" transform="scale(1 1) rotate(0) translate(4 283)">
<polygon fill="white" stroke="transparent" points="-4,4 -4,-283 457.17,-283 457.17,4 -4,4"/>
<!-- XGOXX1 -->
<g id="node1" class="node">
<title>XGOXX1</title>
<ellipse fill="none" stroke="black" cx="48.1" cy="-153" rx="48.19" ry="18"/>
<text text-anchor="middle" x="48.1" y="-149.3" font-family="Times New Roman,serif" font-size="14.00">XGOXX1</text>
</g>
<!-- GGXGX2 -->
<g id="node2" class="node">
<title>GGXGX2</title>
<ellipse fill="none" stroke="black" cx="180.29" cy="-234" rx="48.19" ry="18"/>
<text text-anchor="middle" x="180.29" y="-230.3" font-family="Times New Roman,serif" font-size="14.00">GGXGX2</text>
</g>
<!-- XGOXX1&#45;&gt;GGXGX2 -->
<g id="edge1" class="edge">
<title>XGOXX1&#45;&gt;GGXGX2</title>
<path fill="none" stroke="black" d="M72.51,-168.72C89.04,-179.68 111.78,-194.53 132.19,-207 136,-209.33 140.02,-211.72 144.03,-214.07"/>
<polygon fill="black" stroke="black" points="142.33,-217.13 152.73,-219.12 145.84,-211.08 142.33,-217.13"/>
</g>
<!-- fluid -->
<g id="node5" class="node">
<title>fluid</title>
<ellipse fill="none" stroke="black" cx="180.29" cy="-180" rx="27" ry="18"/>
<text text-anchor="middle" x="180.29" y="-176.3" font-family="Times New Roman,serif" font-size="14.00">fluid</text>
</g>
<!-- XGOXX1&#45;&gt;fluid -->
<g id="edge4" class="edge">
<title>XGOXX1&#45;&gt;fluid</title>
<path fill="none" stroke="black" d="M90.65,-161.62C108.03,-165.22 127.99,-169.36 144.57,-172.8"/>
<polygon fill="black" stroke="black" points="143.9,-176.24 154.4,-174.84 145.32,-169.38 143.9,-176.24"/>
</g>
<!-- XGXGG2 -->
<g id="node6" class="node">
<title>XGXGG2</title>
<ellipse fill="none" stroke="black" cx="180.29" cy="-126" rx="48.19" ry="18"/>
<text text-anchor="middle" x="180.29" y="-122.3" font-family="Times New Roman,serif" font-size="14.00">XGXGG2</text>
</g>
<!-- XGOXX1&#45;&gt;XGXGG2 -->
<g id="edge5" class="edge">
<title>XGOXX1&#45;&gt;XGXGG2</title>
<path fill="none" stroke="black" d="M90.65,-144.38C102.39,-141.95 115.32,-139.27 127.58,-136.72"/>
<polygon fill="black" stroke="black" points="128.6,-140.09 137.68,-134.63 127.18,-133.23 128.6,-140.09"/>
</g>
<!-- XGXGX2 -->
<g id="node8" class="node">
<title>XGXGX2</title>
<ellipse fill="none" stroke="black" cx="180.29" cy="-72" rx="48.19" ry="18"/>
<text text-anchor="middle" x="180.29" y="-68.3" font-family="Times New Roman,serif" font-size="14.00">XGXGX2</text>
</g>
<!-- XGOXX1&#45;&gt;XGXGX2 -->
<g id="edge7" class="edge">
<title>XGOXX1&#45;&gt;XGXGX2</title>
<path fill="none" stroke="black" d="M72.51,-137.28C89.04,-126.32 111.78,-111.47 132.19,-99 136,-96.67 140.02,-94.28 144.03,-91.93"/>
<polygon fill="black" stroke="black" points="145.84,-94.92 152.73,-86.88 142.33,-88.87 145.84,-94.92"/>
</g>
<!-- GGGGO3 -->
<g id="node3" class="node">
<title>GGGGO3</title>
<ellipse fill="none" stroke="black" cx="313.78" cy="-261" rx="49.29" ry="18"/>
<text text-anchor="middle" x="313.78" y="-257.3" font-family="Times New Roman,serif" font-size="14.00">GGGGO3</text>
</g>
<!-- GGXGX2&#45;&gt;GGGGO3 -->
<g id="edge2" class="edge">
<title>GGXGX2&#45;&gt;GGGGO3</title>
<path fill="none" stroke="black" d="M222.89,-242.54C234.65,-244.96 247.6,-247.62 259.92,-250.15"/>
<polygon fill="black" stroke="black" points="259.59,-253.65 270.09,-252.23 261,-246.79 259.59,-253.65"/>
</g>
<!-- flail -->
<g id="node10" class="node">
<title>flail</title>
<ellipse fill="none" stroke="black" cx="313.78" cy="-207" rx="27" ry="18"/>
<text text-anchor="middle" x="313.78" y="-203.3" font-family="Times New Roman,serif" font-size="14.00">flail</text>
</g>
<!-- GGXGX2&#45;&gt;flail -->
<g id="edge9" class="edge">
<title>GGXGX2&#45;&gt;flail</title>
<path fill="none" stroke="black" d="M222.89,-225.46C240.46,-221.85 260.71,-217.69 277.53,-214.24"/>
<polygon fill="black" stroke="black" points="278.41,-217.63 287.5,-212.19 277,-210.77 278.41,-217.63"/>
</g>
<!-- flair -->
<g id="node4" class="node">
<title>flair</title>
<ellipse fill="none" stroke="black" cx="426.17" cy="-261" rx="27" ry="18"/>
<text text-anchor="middle" x="426.17" y="-257.3" font-family="Times New Roman,serif" font-size="14.00">flair</text>
</g>
<!-- GGGGO3&#45;&gt;flair -->
<g id="edge3" class="edge">
<title>GGGGO3&#45;&gt;flair</title>
<path fill="none" stroke="black" d="M363.2,-261C371.84,-261 380.7,-261 388.92,-261"/>
<polygon fill="black" stroke="black" points="388.93,-264.5 398.93,-261 388.93,-257.5 388.93,-264.5"/>
</g>
<!-- plaid -->
<g id="node7" class="node">
<title>plaid</title>
<ellipse fill="none" stroke="black" cx="313.78" cy="-126" rx="28.7" ry="18"/>
<text text-anchor="middle" x="313.78" y="-122.3" font-family="Times New Roman,serif" font-size="14.00">plaid</text>
</g>
<!-- XGXGG2&#45;&gt;plaid -->
<g id="edge6" class="edge">
<title>XGXGG2&#45;&gt;plaid</title>
<path fill="none" stroke="black" d="M228.39,-126C243.69,-126 260.45,-126 274.98,-126"/>
<polygon fill="black" stroke="black" points="275.11,-129.5 285.11,-126 275.11,-122.5 275.11,-129.5"/>
</g>
<!-- plain -->
<g id="node9" class="node">
<title>plain</title>
<ellipse fill="none" stroke="black" cx="313.78" cy="-72" rx="27.9" ry="18"/>
<text text-anchor="middle" x="313.78" y="-68.3" font-family="Times New Roman,serif" font-size="14.00">plain</text>
</g>
<!-- XGXGX2&#45;&gt;plain -->
<g id="edge8" class="edge">
<title>XGXGX2&#45;&gt;plain</title>
<path fill="none" stroke="black" d="M228.39,-72C243.8,-72 260.71,-72 275.32,-72"/>
<polygon fill="black" stroke="black" points="275.5,-75.5 285.5,-72 275.5,-68.5 275.5,-75.5"/>
</g>
<!-- GGGGX3 -->
<g id="node11" class="node">
<title>GGGGX3</title>
<ellipse fill="none" stroke="black" cx="313.78" cy="-18" rx="48.99" ry="18"/>
<text text-anchor="middle" x="313.78" y="-14.3" font-family="Times New Roman,serif" font-size="14.00">GGGGX3</text>
</g>
<!-- XGXGX2&#45;&gt;GGGGX3 -->
<g id="edge10" class="edge">
<title>XGXGX2&#45;&gt;GGGGX3</title>
<path fill="none" stroke="black" d="M213.45,-58.79C230.81,-51.66 252.42,-42.79 271.06,-35.13"/>
<polygon fill="black" stroke="black" points="272.57,-38.3 280.49,-31.26 269.91,-31.82 272.57,-38.3"/>
</g>
<!-- plait -->
<g id="node12" class="node">
<title>plait</title>
<ellipse fill="none" stroke="black" cx="426.17" cy="-18" rx="27" ry="18"/>
<text text-anchor="middle" x="426.17" y="-14.3" font-family="Times New Roman,serif" font-size="14.00">plait</text>
</g>
<!-- GGGGX3&#45;&gt;plait -->
<g id="edge11" class="edge">
<title>GGGGX3&#45;&gt;plait</title>
<path fill="none" stroke="black" d="M362.56,-18C371.33,-18 380.35,-18 388.72,-18"/>
<polygon fill="black" stroke="black" points="388.9,-21.5 398.9,-18 388.9,-14.5 388.9,-21.5"/>
</g>
</g>
</svg>
