<?xml version="1.0" encoding="UTF-8" standalone="no"?>
<!DOCTYPE svg PUBLIC "-//W3C//DTD SVG 1.1//EN"
 "http://www.w3.org/Graphics/SVG/1.1/DTD/svg11.dtd">
<!-- Generated by graphviz version 2.50.0 (20211204.2007)
 -->
<!-- Pages: 1 -->
<svg width="866pt" height="1502pt"
 viewBox="0.00 0.00 866.14 1502.00" xmlns="http://www.w3.org/2000/svg" xmlns:xlink="http://www.w3.org/1999/xlink">
<g id="graph0" class="graph" transform="scale(1 1) rotate(0) translate(4 1498)">
<polygon fill="white" stroke="transparent" points="-4,4 -4,-1498 862.14,-1498 862.14,4 -4,4"/>
<!-- GXXXG1 -->
<g id="node1" class="node">
<title>GXXXG1</title>
<ellipse fill="none" stroke="black" cx="48.1" cy="-504" rx="48.19" ry="18"/>
<text text-anchor="middle" x="48.1" y="-500.3" font-family="Times New Roman,serif" font-size="14.00">GXXXG1</text>
</g>
<!-- GXXOG2 -->
<g id="node2" class="node">
<title>GXXOG2</title>
<ellipse fill="none" stroke="black" cx="180.94" cy="-1395" rx="48.19" ry="18"/>
<text text-anchor="middle" x="180.94" y="-1391.3" font-family="Times New Roman,serif" font-size="14.00">GXXOG2</text>
</g>
<!-- GXXXG1&#45;&gt;GXXOG2 -->
<g id="edge1" class="edge">
<title>GXXXG1&#45;&gt;GXXOG2</title>
<path fill="none" stroke="black" d="M50.68,-522.08C57.72,-600.62 87.69,-919.79 132.19,-1179 143.88,-1247.07 162.71,-1326.1 172.88,-1367.1"/>
<polygon fill="black" stroke="black" points="169.51,-1368.05 175.33,-1376.91 176.3,-1366.36 169.51,-1368.05"/>
</g>
<!-- GXXGG2 -->
<g id="node5" class="node">
<title>GXXGG2</title>
<ellipse fill="none" stroke="black" cx="180.94" cy="-1098" rx="48.19" ry="18"/>
<text text-anchor="middle" x="180.94" y="-1094.3" font-family="Times New Roman,serif" font-size="14.00">GXXGG2</text>
</g>
<!-- GXXXG1&#45;&gt;GXXGG2 -->
<g id="edge4" class="edge">
<title>GXXXG1&#45;&gt;GXXGG2</title>
<path fill="none" stroke="black" d="M53.08,-522.1C71.8,-607.08 150.99,-966.59 173.78,-1070.04"/>
<polygon fill="black" stroke="black" points="170.41,-1071.03 175.98,-1080.04 177.25,-1069.52 170.41,-1071.03"/>
</g>
<!-- GGGXG2 -->
<g id="node8" class="node">
<title>GGGXG2</title>
<ellipse fill="none" stroke="black" cx="180.94" cy="-315" rx="48.99" ry="18"/>
<text text-anchor="middle" x="180.94" y="-311.3" font-family="Times New Roman,serif" font-size="14.00">GGGXG2</text>
</g>
<!-- GXXXG1&#45;&gt;GGGXG2 -->
<g id="edge7" class="edge">
<title>GXXXG1&#45;&gt;GGGXG2</title>
<path fill="none" stroke="black" d="M61.17,-486.56C84.34,-453.08 135.15,-379.7 162.19,-340.64"/>
<polygon fill="black" stroke="black" points="165.08,-342.61 167.89,-332.4 159.32,-338.63 165.08,-342.61"/>
</g>
<!-- GXOXG2 -->
<g id="node11" class="node">
<title>GXOXG2</title>
<ellipse fill="none" stroke="black" cx="180.94" cy="-261" rx="48.19" ry="18"/>
<text text-anchor="middle" x="180.94" y="-257.3" font-family="Times New Roman,serif" font-size="14.00">GXOXG2</text>
</g>
<!-- GXXXG1&#45;&gt;GXOXG2 -->
<g id="edge10" class="edge">
<title>GXXXG1&#45;&gt;GXOXG2</title>
<path fill="none" stroke="black" d="M51.8,-485.95C58.62,-445.97 79.84,-348.7 132.19,-288 134.64,-285.17 137.46,-282.56 140.48,-280.19"/>
<polygon fill="black" stroke="black" points="142.58,-283 148.83,-274.44 138.61,-277.23 142.58,-283"/>
</g>
<!-- GXXXG2 -->
<g id="node13" class="node">
<title>GXXXG2</title>
<ellipse fill="none" stroke="black" cx="180.94" cy="-693" rx="48.19" ry="18"/>
<text text-anchor="middle" x="180.94" y="-689.3" font-family="Times New Roman,serif" font-size="14.00">GXXXG2</text>
</g>
<!-- GXXXG1&#45;&gt;GXXXG2 -->
<g id="edge12" class="edge">
<title>GXXXG1&#45;&gt;GXXXG2</title>
<path fill="none" stroke="black" d="M61.17,-521.44C84.34,-554.92 135.15,-628.3 162.19,-667.36"/>
<polygon fill="black" stroke="black" points="159.32,-669.37 167.89,-675.6 165.08,-665.39 159.32,-669.37"/>
</g>
<!-- GXGXG2 -->
<g id="node19" class="node">
<title>GXGXG2</title>
<ellipse fill="none" stroke="black" cx="180.94" cy="-450" rx="48.19" ry="18"/>
<text text-anchor="middle" x="180.94" y="-446.3" font-family="Times New Roman,serif" font-size="14.00">GXGXG2</text>
</g>
<!-- GXXXG1&#45;&gt;GXGXG2 -->
<g id="edge18" class="edge">
<title>GXXXG1&#45;&gt;GXGXG2</title>
<path fill="none" stroke="black" d="M81.1,-490.79C98.37,-483.66 119.88,-474.79 138.42,-467.13"/>
<polygon fill="black" stroke="black" points="139.9,-470.31 147.81,-463.26 137.23,-463.84 139.9,-470.31"/>
</g>
<!-- GXGGG2 -->
<g id="node25" class="node">
<title>GXGGG2</title>
<ellipse fill="none" stroke="black" cx="180.94" cy="-1152" rx="48.99" ry="18"/>
<text text-anchor="middle" x="180.94" y="-1148.3" font-family="Times New Roman,serif" font-size="14.00">GXGGG2</text>
</g>
<!-- GXXXG1&#45;&gt;GXGGG2 -->
<g id="edge24" class="edge">
<title>GXXXG1&#45;&gt;GXGGG2</title>
<path fill="none" stroke="black" d="M49.39,-522.16C51.19,-613.56 63.04,-1022.73 132.19,-1125 134.06,-1127.76 136.31,-1130.27 138.8,-1132.55"/>
<polygon fill="black" stroke="black" points="136.79,-1135.42 146.86,-1138.7 141.03,-1129.85 136.79,-1135.42"/>
</g>
<!-- share -->
<g id="node36" class="node">
<title>share</title>
<ellipse fill="none" stroke="black" cx="180.94" cy="-207" rx="29.8" ry="18"/>
<text text-anchor="middle" x="180.94" y="-203.3" font-family="Times New Roman,serif" font-size="14.00">share</text>
</g>
<!-- GXXXG1&#45;&gt;share -->
<g id="edge37" class="edge">
<title>GXXXG1&#45;&gt;share</title>
<path fill="none" stroke="black" d="M50.15,-485.79C53.73,-438.97 69.03,-312.54 132.19,-234 136.01,-229.25 140.91,-225.18 146.11,-221.76"/>
<polygon fill="black" stroke="black" points="148.12,-224.64 155,-216.59 144.6,-218.59 148.12,-224.64"/>
</g>
<!-- GGXXG2 -->
<g id="node42" class="node">
<title>GGXXG2</title>
<ellipse fill="none" stroke="black" cx="180.94" cy="-558" rx="48.19" ry="18"/>
<text text-anchor="middle" x="180.94" y="-554.3" font-family="Times New Roman,serif" font-size="14.00">GGXXG2</text>
</g>
<!-- GXXXG1&#45;&gt;GGXXG2 -->
<g id="edge44" class="edge">
<title>GXXXG1&#45;&gt;GGXXG2</title>
<path fill="none" stroke="black" d="M81.1,-517.21C98.37,-524.34 119.88,-533.21 138.42,-540.87"/>
<polygon fill="black" stroke="black" points="137.23,-544.16 147.81,-544.74 139.9,-537.69 137.23,-544.16"/>
</g>
<!-- GGXGG2 -->
<g id="node69" class="node">
<title>GGXGG2</title>
<ellipse fill="none" stroke="black" cx="180.94" cy="-99" rx="48.99" ry="18"/>
<text text-anchor="middle" x="180.94" y="-95.3" font-family="Times New Roman,serif" font-size="14.00">GGXGG2</text>
</g>
<!-- GXXXG1&#45;&gt;GGXGG2 -->
<g id="edge73" class="edge">
<title>GXXXG1&#45;&gt;GGXGG2</title>
<path fill="none" stroke="black" d="M51.9,-485.87C60.04,-435.75 86.06,-291.63 132.19,-180 140.16,-160.7 152.09,-140.47 162.03,-125.05"/>
<polygon fill="black" stroke="black" points="165.03,-126.85 167.6,-116.58 159.18,-123.01 165.03,-126.85"/>
</g>
<!-- XXXOG3 -->
<g id="node3" class="node">
<title>XXXOG3</title>
<ellipse fill="none" stroke="black" cx="314.43" cy="-1422" rx="48.19" ry="18"/>
<text text-anchor="middle" x="314.43" y="-1418.3" font-family="Times New Roman,serif" font-size="14.00">XXXOG3</text>
</g>
<!-- GXXOG2&#45;&gt;XXXOG3 -->
<g id="edge2" class="edge">
<title>GXXOG2&#45;&gt;XXXOG3</title>
<path fill="none" stroke="black" d="M223.54,-1403.54C235.65,-1406.03 249.03,-1408.78 261.69,-1411.38"/>
<polygon fill="black" stroke="black" points="261.14,-1414.84 271.64,-1413.42 262.55,-1407.98 261.14,-1414.84"/>
</g>
<!-- OXXOG3 -->
<g id="node52" class="node">
<title>OXXOG3</title>
<ellipse fill="none" stroke="black" cx="314.43" cy="-1368" rx="48.19" ry="18"/>
<text text-anchor="middle" x="314.43" y="-1364.3" font-family="Times New Roman,serif" font-size="14.00">OXXOG3</text>
</g>
<!-- GXXOG2&#45;&gt;OXXOG3 -->
<g id="edge54" class="edge">
<title>GXXOG2&#45;&gt;OXXOG3</title>
<path fill="none" stroke="black" d="M223.54,-1386.46C235.65,-1383.97 249.03,-1381.22 261.69,-1378.62"/>
<polygon fill="black" stroke="black" points="262.55,-1382.02 271.64,-1376.58 261.14,-1375.16 262.55,-1382.02"/>
</g>
<!-- XXOOG3 -->
<g id="node66" class="node">
<title>XXOOG3</title>
<ellipse fill="none" stroke="black" cx="314.43" cy="-1476" rx="48.19" ry="18"/>
<text text-anchor="middle" x="314.43" y="-1472.3" font-family="Times New Roman,serif" font-size="14.00">XXOOG3</text>
</g>
<!-- GXXOG2&#45;&gt;XXOOG3 -->
<g id="edge70" class="edge">
<title>GXXOG2&#45;&gt;XXOOG3</title>
<path fill="none" stroke="black" d="M205.53,-1410.73C222.18,-1421.71 245.1,-1436.56 265.68,-1449 269.55,-1451.34 273.62,-1453.73 277.68,-1456.09"/>
<polygon fill="black" stroke="black" points="276.08,-1459.2 286.5,-1461.13 279.56,-1453.13 276.08,-1459.2"/>
</g>
<!-- serve -->
<g id="node4" class="node">
<title>serve</title>
<ellipse fill="none" stroke="black" cx="447.92" cy="-1422" rx="29.8" ry="18"/>
<text text-anchor="middle" x="447.92" y="-1418.3" font-family="Times New Roman,serif" font-size="14.00">serve</text>
</g>
<!-- XXXOG3&#45;&gt;serve -->
<g id="edge3" class="edge">
<title>XXXOG3&#45;&gt;serve</title>
<path fill="none" stroke="black" d="M362.53,-1422C377.21,-1422 393.24,-1422 407.35,-1422"/>
<polygon fill="black" stroke="black" points="407.71,-1425.5 417.71,-1422 407.71,-1418.5 407.71,-1425.5"/>
</g>
<!-- XOXXO3 -->
<g id="node6" class="node">
<title>XOXXO3</title>
<ellipse fill="none" stroke="black" cx="314.43" cy="-1152" rx="48.19" ry="18"/>
<text text-anchor="middle" x="314.43" y="-1148.3" font-family="Times New Roman,serif" font-size="14.00">XOXXO3</text>
</g>
<!-- GXXGG2&#45;&gt;XOXXO3 -->
<g id="edge5" class="edge">
<title>GXXGG2&#45;&gt;XOXXO3</title>
<path fill="none" stroke="black" d="M214.1,-1111.21C231.46,-1118.34 253.07,-1127.21 271.71,-1134.87"/>
<polygon fill="black" stroke="black" points="270.56,-1138.18 281.14,-1138.74 273.22,-1131.7 270.56,-1138.18"/>
</g>
<!-- XOXOX3 -->
<g id="node26" class="node">
<title>XOXOX3</title>
<ellipse fill="none" stroke="black" cx="314.43" cy="-1098" rx="48.19" ry="18"/>
<text text-anchor="middle" x="314.43" y="-1094.3" font-family="Times New Roman,serif" font-size="14.00">XOXOX3</text>
</g>
<!-- GXXGG2&#45;&gt;XOXOX3 -->
<g id="edge75" class="edge">
<title>GXXGG2&#45;&gt;XOXOX3</title>
<path fill="none" stroke="black" d="M229.04,-1098C237.82,-1098 247.08,-1098 256.13,-1098"/>
<polygon fill="black" stroke="black" points="256.22,-1101.5 266.22,-1098 256.22,-1094.5 256.22,-1101.5"/>
</g>
<!-- XOXXX3 -->
<g id="node31" class="node">
<title>XOXXX3</title>
<ellipse fill="none" stroke="black" cx="314.43" cy="-1017" rx="47.39" ry="18"/>
<text text-anchor="middle" x="314.43" y="-1013.3" font-family="Times New Roman,serif" font-size="14.00">XOXXX3</text>
</g>
<!-- GXXGG2&#45;&gt;XOXXX3 -->
<g id="edge31" class="edge">
<title>GXXGG2&#45;&gt;XOXXX3</title>
<path fill="none" stroke="black" d="M206.67,-1082.76C227.42,-1069.98 257.26,-1051.6 280.11,-1037.52"/>
<polygon fill="black" stroke="black" points="282.13,-1040.39 288.81,-1032.17 278.46,-1034.43 282.13,-1040.39"/>
</g>
<!-- OOXXX3 -->
<g id="node37" class="node">
<title>OOXXX3</title>
<ellipse fill="none" stroke="black" cx="314.43" cy="-1233" rx="48.19" ry="18"/>
<text text-anchor="middle" x="314.43" y="-1229.3" font-family="Times New Roman,serif" font-size="14.00">OOXXX3</text>
</g>
<!-- GXXGG2&#45;&gt;OOXXX3 -->
<g id="edge38" class="edge">
<title>GXXGG2&#45;&gt;OOXXX3</title>
<path fill="none" stroke="black" d="M211.69,-1111.97C218.02,-1115.69 224.38,-1120.07 229.68,-1125 250.81,-1144.63 248.09,-1156.14 265.68,-1179 273.36,-1188.97 282.37,-1199.44 290.48,-1208.48"/>
<polygon fill="black" stroke="black" points="288.01,-1210.96 297.33,-1216 293.19,-1206.25 288.01,-1210.96"/>
</g>
<!-- store -->
<g id="node7" class="node">
<title>store</title>
<ellipse fill="none" stroke="black" cx="447.92" cy="-1206" rx="28.7" ry="18"/>
<text text-anchor="middle" x="447.92" y="-1202.3" font-family="Times New Roman,serif" font-size="14.00">store</text>
</g>
<!-- XOXXO3&#45;&gt;store -->
<g id="edge6" class="edge">
<title>XOXXO3&#45;&gt;store</title>
<path fill="none" stroke="black" d="M347.59,-1165.21C367.72,-1173.47 393.58,-1184.1 413.87,-1192.43"/>
<polygon fill="black" stroke="black" points="412.75,-1195.75 423.33,-1196.31 415.41,-1189.28 412.75,-1195.75"/>
</g>
<!-- stare -->
<g id="node33" class="node">
<title>stare</title>
<ellipse fill="none" stroke="black" cx="447.92" cy="-1152" rx="27.9" ry="18"/>
<text text-anchor="middle" x="447.92" y="-1148.3" font-family="Times New Roman,serif" font-size="14.00">stare</text>
</g>
<!-- XOXXO3&#45;&gt;stare -->
<g id="edge34" class="edge">
<title>XOXXO3&#45;&gt;stare</title>
<path fill="none" stroke="black" d="M362.53,-1152C377.95,-1152 394.86,-1152 409.46,-1152"/>
<polygon fill="black" stroke="black" points="409.64,-1155.5 419.64,-1152 409.64,-1148.5 409.64,-1155.5"/>
</g>
<!-- XXXGO3 -->
<g id="node9" class="node">
<title>XXXGO3</title>
<ellipse fill="none" stroke="black" cx="314.43" cy="-288" rx="48.19" ry="18"/>
<text text-anchor="middle" x="314.43" y="-284.3" font-family="Times New Roman,serif" font-size="14.00">XXXGO3</text>
</g>
<!-- GGGXG2&#45;&gt;XXXGO3 -->
<g id="edge8" class="edge">
<title>GGGXG2&#45;&gt;XXXGO3</title>
<path fill="none" stroke="black" d="M223.9,-306.38C236,-303.9 249.34,-301.16 261.95,-298.57"/>
<polygon fill="black" stroke="black" points="262.77,-301.98 271.86,-296.54 261.36,-295.12 262.77,-301.98"/>
</g>
<!-- XXXXO3 -->
<g id="node17" class="node">
<title>XXXXO3</title>
<ellipse fill="none" stroke="black" cx="314.43" cy="-342" rx="47.39" ry="18"/>
<text text-anchor="middle" x="314.43" y="-338.3" font-family="Times New Roman,serif" font-size="14.00">XXXXO3</text>
</g>
<!-- GGGXG2&#45;&gt;XXXXO3 -->
<g id="edge16" class="edge">
<title>GGGXG2&#45;&gt;XXXXO3</title>
<path fill="none" stroke="black" d="M223.9,-323.62C236.12,-326.13 249.6,-328.89 262.32,-331.51"/>
<polygon fill="black" stroke="black" points="261.81,-334.97 272.31,-333.56 263.22,-328.12 261.81,-334.97"/>
</g>
<!-- XXOXO3 -->
<g id="node23" class="node">
<title>XXOXO3</title>
<ellipse fill="none" stroke="black" cx="314.43" cy="-234" rx="48.19" ry="18"/>
<text text-anchor="middle" x="314.43" y="-230.3" font-family="Times New Roman,serif" font-size="14.00">XXOXO3</text>
</g>
<!-- GGGXG2&#45;&gt;XXOXO3 -->
<g id="edge22" class="edge">
<title>GGGXG2&#45;&gt;XXOXO3</title>
<path fill="none" stroke="black" d="M209.57,-300.17C216.25,-296.37 223.31,-292.17 229.68,-288 246.42,-277.05 248.94,-271.95 265.68,-261 269.27,-258.65 273.07,-256.3 276.9,-254.01"/>
<polygon fill="black" stroke="black" points="278.92,-256.88 285.8,-248.83 275.4,-250.84 278.92,-256.88"/>
</g>
<!-- OXXXO3 -->
<g id="node72" class="node">
<title>OXXXO3</title>
<ellipse fill="none" stroke="black" cx="314.43" cy="-180" rx="48.19" ry="18"/>
<text text-anchor="middle" x="314.43" y="-176.3" font-family="Times New Roman,serif" font-size="14.00">OXXXO3</text>
</g>
<!-- GGGXG2&#45;&gt;OXXXO3 -->
<g id="edge77" class="edge">
<title>GGGXG2&#45;&gt;OXXXO3</title>
<path fill="none" stroke="black" d="M212.84,-301.37C218.96,-297.67 224.95,-293.22 229.68,-288 256.16,-258.83 239.2,-236.17 265.68,-207 268.2,-204.23 271.07,-201.67 274.12,-199.33"/>
<polygon fill="black" stroke="black" points="276.22,-202.14 282.53,-193.63 272.29,-196.34 276.22,-202.14"/>
</g>
<!-- shake -->
<g id="node10" class="node">
<title>shake</title>
<ellipse fill="none" stroke="black" cx="447.92" cy="-126" rx="31.4" ry="18"/>
<text text-anchor="middle" x="447.92" y="-122.3" font-family="Times New Roman,serif" font-size="14.00">shake</text>
</g>
<!-- XXXGO3&#45;&gt;shake -->
<g id="edge9" class="edge">
<title>XXXGO3&#45;&gt;shake</title>
<path fill="none" stroke="black" d="M347.21,-274.41C353.13,-270.74 358.82,-266.29 363.17,-261 395.34,-221.94 367.01,-192.06 399.17,-153 402.97,-148.39 407.78,-144.41 412.88,-141.04"/>
<polygon fill="black" stroke="black" points="414.73,-144.01 421.59,-135.93 411.19,-137.97 414.73,-144.01"/>
</g>
<!-- saute -->
<g id="node12" class="node">
<title>saute</title>
<ellipse fill="none" stroke="black" cx="314.43" cy="-126" rx="29.5" ry="18"/>
<text text-anchor="middle" x="314.43" y="-122.3" font-family="Times New Roman,serif" font-size="14.00">saute</text>
</g>
<!-- GXOXG2&#45;&gt;saute -->
<g id="edge11" class="edge">
<title>GXOXG2&#45;&gt;saute</title>
<path fill="none" stroke="black" d="M212.84,-247.37C218.96,-243.67 224.95,-239.22 229.68,-234 256.16,-204.83 239.2,-182.17 265.68,-153 269.97,-148.28 275.28,-144.18 280.78,-140.71"/>
<polygon fill="black" stroke="black" points="282.52,-143.74 289.47,-135.75 279.05,-137.66 282.52,-143.74"/>
</g>
<!-- GXGXG3 -->
<g id="node14" class="node">
<title>GXGXG3</title>
<ellipse fill="none" stroke="black" cx="314.43" cy="-612" rx="48.19" ry="18"/>
<text text-anchor="middle" x="314.43" y="-608.3" font-family="Times New Roman,serif" font-size="14.00">GXGXG3</text>
</g>
<!-- GXXXG2&#45;&gt;GXGXG3 -->
<g id="edge13" class="edge">
<title>GXXXG2&#45;&gt;GXGXG3</title>
<path fill="none" stroke="black" d="M205.53,-677.27C222.18,-666.29 245.1,-651.44 265.68,-639 269.55,-636.66 273.62,-634.27 277.68,-631.91"/>
<polygon fill="black" stroke="black" points="279.56,-634.87 286.5,-626.87 276.08,-628.8 279.56,-634.87"/>
</g>
<!-- smoke -->
<g id="node22" class="node">
<title>smoke</title>
<ellipse fill="none" stroke="black" cx="314.43" cy="-720" rx="34.39" ry="18"/>
<text text-anchor="middle" x="314.43" y="-716.3" font-family="Times New Roman,serif" font-size="14.00">smoke</text>
</g>
<!-- GXXXG2&#45;&gt;smoke -->
<g id="edge21" class="edge">
<title>GXXXG2&#45;&gt;smoke</title>
<path fill="none" stroke="black" d="M223.54,-701.54C239.1,-704.74 256.74,-708.36 272.26,-711.55"/>
<polygon fill="black" stroke="black" points="271.6,-714.98 282.1,-713.57 273.01,-708.13 271.6,-714.98"/>
</g>
<!-- GXGGG3 -->
<g id="node34" class="node">
<title>GXGGG3</title>
<ellipse fill="none" stroke="black" cx="314.43" cy="-882" rx="48.99" ry="18"/>
<text text-anchor="middle" x="314.43" y="-878.3" font-family="Times New Roman,serif" font-size="14.00">GXGGG3</text>
</g>
<!-- GXXXG2&#45;&gt;GXGGG3 -->
<g id="edge35" class="edge">
<title>GXXXG2&#45;&gt;GXGGG3</title>
<path fill="none" stroke="black" d="M194.07,-710.44C217.36,-743.92 268.42,-817.3 295.59,-856.36"/>
<polygon fill="black" stroke="black" points="292.74,-858.39 301.32,-864.6 298.49,-854.39 292.74,-858.39"/>
</g>
<!-- GGGXG3 -->
<g id="node43" class="node">
<title>GGGXG3</title>
<ellipse fill="none" stroke="black" cx="314.43" cy="-666" rx="48.99" ry="18"/>
<text text-anchor="middle" x="314.43" y="-662.3" font-family="Times New Roman,serif" font-size="14.00">GGGXG3</text>
</g>
<!-- GXXXG2&#45;&gt;GGGXG3 -->
<g id="edge64" class="edge">
<title>GXXXG2&#45;&gt;GGGXG3</title>
<path fill="none" stroke="black" d="M223.54,-684.46C235.53,-681.99 248.77,-679.28 261.32,-676.7"/>
<polygon fill="black" stroke="black" points="262.1,-680.11 271.19,-674.67 260.69,-673.26 262.1,-680.11"/>
</g>
<!-- GXXXG3 -->
<g id="node47" class="node">
<title>GXXXG3</title>
<ellipse fill="none" stroke="black" cx="314.43" cy="-774" rx="48.19" ry="18"/>
<text text-anchor="middle" x="314.43" y="-770.3" font-family="Times New Roman,serif" font-size="14.00">GXXXG3</text>
</g>
<!-- GXXXG2&#45;&gt;GXXXG3 -->
<g id="edge49" class="edge">
<title>GXXXG2&#45;&gt;GXXXG3</title>
<path fill="none" stroke="black" d="M205.53,-708.73C222.18,-719.71 245.1,-734.56 265.68,-747 269.55,-749.34 273.62,-751.73 277.68,-754.09"/>
<polygon fill="black" stroke="black" points="276.08,-757.2 286.5,-759.13 279.56,-751.13 276.08,-757.2"/>
</g>
<!-- GGGXG4 -->
<g id="node15" class="node">
<title>GGGXG4</title>
<ellipse fill="none" stroke="black" cx="447.92" cy="-558" rx="48.99" ry="18"/>
<text text-anchor="middle" x="447.92" y="-554.3" font-family="Times New Roman,serif" font-size="14.00">GGGXG4</text>
</g>
<!-- GXGXG3&#45;&gt;GGGXG4 -->
<g id="edge14" class="edge">
<title>GXGXG3&#45;&gt;GGGXG4</title>
<path fill="none" stroke="black" d="M347.59,-598.79C364.95,-591.66 386.56,-582.79 405.2,-575.13"/>
<polygon fill="black" stroke="black" points="406.71,-578.3 414.63,-571.26 404.05,-571.82 406.71,-578.3"/>
</g>
<!-- stone -->
<g id="node65" class="node">
<title>stone</title>
<ellipse fill="none" stroke="black" cx="447.92" cy="-612" rx="30.59" ry="18"/>
<text text-anchor="middle" x="447.92" y="-608.3" font-family="Times New Roman,serif" font-size="14.00">stone</text>
</g>
<!-- GXGXG3&#45;&gt;stone -->
<g id="edge69" class="edge">
<title>GXGXG3&#45;&gt;stone</title>
<path fill="none" stroke="black" d="M362.53,-612C377.09,-612 392.99,-612 407.01,-612"/>
<polygon fill="black" stroke="black" points="407.32,-615.5 417.32,-612 407.32,-608.5 407.32,-615.5"/>
</g>
<!-- stove -->
<g id="node16" class="node">
<title>stove</title>
<ellipse fill="none" stroke="black" cx="580.76" cy="-585" rx="30.59" ry="18"/>
<text text-anchor="middle" x="580.76" y="-581.3" font-family="Times New Roman,serif" font-size="14.00">stove</text>
</g>
<!-- GGGXG4&#45;&gt;stove -->
<g id="edge15" class="edge">
<title>GGGXG4&#45;&gt;stove</title>
<path fill="none" stroke="black" d="M491.04,-566.69C507.34,-570.06 525.86,-573.88 541.75,-577.16"/>
<polygon fill="black" stroke="black" points="541.26,-580.63 551.76,-579.22 542.67,-573.77 541.26,-580.63"/>
</g>
<!-- shape -->
<g id="node39" class="node">
<title>shape</title>
<ellipse fill="none" stroke="black" cx="580.76" cy="-531" rx="31.7" ry="18"/>
<text text-anchor="middle" x="580.76" y="-527.3" font-family="Times New Roman,serif" font-size="14.00">shape</text>
</g>
<!-- GGGXG4&#45;&gt;shape -->
<g id="edge41" class="edge">
<title>GGGXG4&#45;&gt;shape</title>
<path fill="none" stroke="black" d="M491.04,-549.31C506.97,-546.02 525.03,-542.29 540.67,-539.07"/>
<polygon fill="black" stroke="black" points="541.47,-542.48 550.56,-537.03 540.05,-535.62 541.47,-542.48"/>
</g>
<!-- XXXXO3&#45;&gt;GGGXG4 -->
<g id="edge40" class="edge">
<title>XXXXO3&#45;&gt;GGGXG4</title>
<path fill="none" stroke="black" d="M347.64,-355.25C353.53,-358.94 359.09,-363.49 363.17,-369 407.07,-428.27 355.28,-471.73 399.17,-531 401.28,-533.84 403.78,-536.43 406.51,-538.77"/>
<polygon fill="black" stroke="black" points="404.56,-541.68 414.7,-544.75 408.69,-536.03 404.56,-541.68"/>
</g>
<!-- shame -->
<g id="node18" class="node">
<title>shame</title>
<ellipse fill="none" stroke="black" cx="447.92" cy="-288" rx="33.6" ry="18"/>
<text text-anchor="middle" x="447.92" y="-284.3" font-family="Times New Roman,serif" font-size="14.00">shame</text>
</g>
<!-- XXXXO3&#45;&gt;shame -->
<g id="edge17" class="edge">
<title>XXXXO3&#45;&gt;shame</title>
<path fill="none" stroke="black" d="M347.26,-328.93C366.59,-320.99 391.32,-310.84 411.3,-302.63"/>
<polygon fill="black" stroke="black" points="412.77,-305.81 420.69,-298.77 410.11,-299.33 412.77,-305.81"/>
</g>
<!-- GGXXX4 -->
<g id="node28" class="node">
<title>GGXXX4</title>
<ellipse fill="none" stroke="black" cx="447.92" cy="-234" rx="48.19" ry="18"/>
<text text-anchor="middle" x="447.92" y="-230.3" font-family="Times New Roman,serif" font-size="14.00">GGXXX4</text>
</g>
<!-- XXXXO3&#45;&gt;GGXXX4 -->
<g id="edge28" class="edge">
<title>XXXXO3&#45;&gt;GGXXX4</title>
<path fill="none" stroke="black" d="M345.19,-328.03C351.51,-324.31 357.87,-319.93 363.17,-315 384.3,-295.37 378.04,-280.63 399.17,-261 402.07,-258.31 405.29,-255.77 408.64,-253.42"/>
<polygon fill="black" stroke="black" points="410.63,-256.31 417.16,-247.97 406.85,-250.41 410.63,-256.31"/>
</g>
<!-- GGXXO4 -->
<g id="node40" class="node">
<title>GGXXO4</title>
<ellipse fill="none" stroke="black" cx="447.92" cy="-180" rx="48.19" ry="18"/>
<text text-anchor="middle" x="447.92" y="-176.3" font-family="Times New Roman,serif" font-size="14.00">GGXXO4</text>
</g>
<!-- XXXXO3&#45;&gt;GGXXO4 -->
<g id="edge42" class="edge">
<title>XXXXO3&#45;&gt;GGXXO4</title>
<path fill="none" stroke="black" d="M346.72,-328.71C352.81,-324.99 358.69,-320.44 363.17,-315 395.34,-275.94 367.01,-246.06 399.17,-207 401.42,-204.27 404.02,-201.77 406.82,-199.48"/>
<polygon fill="black" stroke="black" points="409,-202.23 415.14,-193.59 404.95,-196.51 409,-202.23"/>
</g>
<!-- GOXXO4 -->
<g id="node45" class="node">
<title>GOXXO4</title>
<ellipse fill="none" stroke="black" cx="447.92" cy="-342" rx="48.19" ry="18"/>
<text text-anchor="middle" x="447.92" y="-338.3" font-family="Times New Roman,serif" font-size="14.00">GOXXO4</text>
</g>
<!-- XXXXO3&#45;&gt;GOXXO4 -->
<g id="edge47" class="edge">
<title>XXXXO3&#45;&gt;GOXXO4</title>
<path fill="none" stroke="black" d="M362.16,-342C370.95,-342 380.25,-342 389.33,-342"/>
<polygon fill="black" stroke="black" points="389.45,-345.5 399.45,-342 389.45,-338.5 389.45,-345.5"/>
</g>
<!-- GXGXG2&#45;&gt;XXXXO3 -->
<g id="edge27" class="edge">
<title>GXGXG2&#45;&gt;XXXXO3</title>
<path fill="none" stroke="black" d="M197.2,-432.87C213.2,-415.5 239.59,-388.49 265.68,-369 269.12,-366.44 272.82,-363.94 276.59,-361.56"/>
<polygon fill="black" stroke="black" points="278.63,-364.42 285.41,-356.27 275.03,-358.41 278.63,-364.42"/>
</g>
<!-- XXOXX3 -->
<g id="node20" class="node">
<title>XXOXX3</title>
<ellipse fill="none" stroke="black" cx="314.43" cy="-450" rx="47.39" ry="18"/>
<text text-anchor="middle" x="314.43" y="-446.3" font-family="Times New Roman,serif" font-size="14.00">XXOXX3</text>
</g>
<!-- GXGXG2&#45;&gt;XXOXX3 -->
<g id="edge19" class="edge">
<title>GXGXG2&#45;&gt;XXOXX3</title>
<path fill="none" stroke="black" d="M229.04,-450C237.93,-450 247.31,-450 256.46,-450"/>
<polygon fill="black" stroke="black" points="256.66,-453.5 266.66,-450 256.66,-446.5 256.66,-453.5"/>
</g>
<!-- XXXOX3 -->
<g id="node50" class="node">
<title>XXXOX3</title>
<ellipse fill="none" stroke="black" cx="314.43" cy="-396" rx="47.39" ry="18"/>
<text text-anchor="middle" x="314.43" y="-392.3" font-family="Times New Roman,serif" font-size="14.00">XXXOX3</text>
</g>
<!-- GXGXG2&#45;&gt;XXXOX3 -->
<g id="edge52" class="edge">
<title>GXGXG2&#45;&gt;XXXOX3</title>
<path fill="none" stroke="black" d="M214.1,-436.79C231.58,-429.61 253.4,-420.65 272.12,-412.96"/>
<polygon fill="black" stroke="black" points="273.67,-416.11 281.59,-409.07 271.01,-409.63 273.67,-416.11"/>
</g>
<!-- XGXXX3 -->
<g id="node56" class="node">
<title>XGXXX3</title>
<ellipse fill="none" stroke="black" cx="314.43" cy="-504" rx="47.39" ry="18"/>
<text text-anchor="middle" x="314.43" y="-500.3" font-family="Times New Roman,serif" font-size="14.00">XGXXX3</text>
</g>
<!-- GXGXG2&#45;&gt;XGXXX3 -->
<g id="edge58" class="edge">
<title>GXGXG2&#45;&gt;XGXXX3</title>
<path fill="none" stroke="black" d="M214.1,-463.21C231.58,-470.39 253.4,-479.35 272.12,-487.04"/>
<polygon fill="black" stroke="black" points="271.01,-490.37 281.59,-490.93 273.67,-483.89 271.01,-490.37"/>
</g>
<!-- spade -->
<g id="node21" class="node">
<title>spade</title>
<ellipse fill="none" stroke="black" cx="447.92" cy="-450" rx="32.49" ry="18"/>
<text text-anchor="middle" x="447.92" y="-446.3" font-family="Times New Roman,serif" font-size="14.00">spade</text>
</g>
<!-- XXOXX3&#45;&gt;spade -->
<g id="edge20" class="edge">
<title>XXOXX3&#45;&gt;spade</title>
<path fill="none" stroke="black" d="M362.16,-450C376.16,-450 391.42,-450 405.08,-450"/>
<polygon fill="black" stroke="black" points="405.17,-453.5 415.17,-450 405.17,-446.5 405.17,-453.5"/>
</g>
<!-- shade -->
<g id="node24" class="node">
<title>shade</title>
<ellipse fill="none" stroke="black" cx="447.92" cy="-72" rx="31.7" ry="18"/>
<text text-anchor="middle" x="447.92" y="-68.3" font-family="Times New Roman,serif" font-size="14.00">shade</text>
</g>
<!-- XXOXO3&#45;&gt;shade -->
<g id="edge23" class="edge">
<title>XXOXO3&#45;&gt;shade</title>
<path fill="none" stroke="black" d="M347.21,-220.41C353.13,-216.74 358.82,-212.29 363.17,-207 395.34,-167.94 367.01,-138.06 399.17,-99 402.81,-94.59 407.36,-90.76 412.2,-87.49"/>
<polygon fill="black" stroke="black" points="414.3,-90.32 421.09,-82.19 410.71,-84.3 414.3,-90.32"/>
</g>
<!-- GXGGG2&#45;&gt;XOXXO3 -->
<g id="edge33" class="edge">
<title>GXGGG2&#45;&gt;XOXXO3</title>
<path fill="none" stroke="black" d="M229.78,-1152C238.33,-1152 247.32,-1152 256.1,-1152"/>
<polygon fill="black" stroke="black" points="256.28,-1155.5 266.28,-1152 256.28,-1148.5 256.28,-1155.5"/>
</g>
<!-- GXGGG2&#45;&gt;XOXOX3 -->
<g id="edge25" class="edge">
<title>GXGGG2&#45;&gt;XOXOX3</title>
<path fill="none" stroke="black" d="M214.1,-1138.79C231.46,-1131.66 253.07,-1122.79 271.71,-1115.13"/>
<polygon fill="black" stroke="black" points="273.22,-1118.3 281.14,-1111.26 270.56,-1111.82 273.22,-1118.3"/>
</g>
<!-- GXGGG2&#45;&gt;OOXXX3 -->
<g id="edge60" class="edge">
<title>GXGGG2&#45;&gt;OOXXX3</title>
<path fill="none" stroke="black" d="M206.98,-1167.43C227.63,-1180.15 257.13,-1198.32 279.83,-1212.3"/>
<polygon fill="black" stroke="black" points="278.13,-1215.37 288.48,-1217.63 281.8,-1209.41 278.13,-1215.37"/>
</g>
<!-- snare -->
<g id="node27" class="node">
<title>snare</title>
<ellipse fill="none" stroke="black" cx="447.92" cy="-1098" rx="29.8" ry="18"/>
<text text-anchor="middle" x="447.92" y="-1094.3" font-family="Times New Roman,serif" font-size="14.00">snare</text>
</g>
<!-- XOXOX3&#45;&gt;snare -->
<g id="edge26" class="edge">
<title>XOXOX3&#45;&gt;snare</title>
<path fill="none" stroke="black" d="M362.53,-1098C377.21,-1098 393.24,-1098 407.35,-1098"/>
<polygon fill="black" stroke="black" points="407.71,-1101.5 417.71,-1098 407.71,-1094.5 407.71,-1101.5"/>
</g>
<!-- snore -->
<g id="node71" class="node">
<title>snore</title>
<ellipse fill="none" stroke="black" cx="447.92" cy="-1044" rx="30.59" ry="18"/>
<text text-anchor="middle" x="447.92" y="-1040.3" font-family="Times New Roman,serif" font-size="14.00">snore</text>
</g>
<!-- XOXOX3&#45;&gt;snore -->
<g id="edge76" class="edge">
<title>XOXOX3&#45;&gt;snore</title>
<path fill="none" stroke="black" d="M347.59,-1084.79C367.46,-1076.63 392.91,-1066.18 413.08,-1057.9"/>
<polygon fill="black" stroke="black" points="414.58,-1061.06 422.51,-1054.03 411.93,-1054.59 414.58,-1061.06"/>
</g>
<!-- XXOXO5 -->
<g id="node29" class="node">
<title>XXOXO5</title>
<ellipse fill="none" stroke="black" cx="580.76" cy="-234" rx="48.19" ry="18"/>
<text text-anchor="middle" x="580.76" y="-230.3" font-family="Times New Roman,serif" font-size="14.00">XXOXO5</text>
</g>
<!-- GGXXX4&#45;&gt;XXOXO5 -->
<g id="edge29" class="edge">
<title>GGXXX4&#45;&gt;XXOXO5</title>
<path fill="none" stroke="black" d="M496.16,-234C504.68,-234 513.65,-234 522.42,-234"/>
<polygon fill="black" stroke="black" points="522.59,-237.5 532.59,-234 522.59,-230.5 522.59,-237.5"/>
</g>
<!-- XXXXO5 -->
<g id="node62" class="node">
<title>XXXXO5</title>
<ellipse fill="none" stroke="black" cx="580.76" cy="-288" rx="47.39" ry="18"/>
<text text-anchor="middle" x="580.76" y="-284.3" font-family="Times New Roman,serif" font-size="14.00">XXXXO5</text>
</g>
<!-- GGXXX4&#45;&gt;XXXXO5 -->
<g id="edge66" class="edge">
<title>GGXXX4&#45;&gt;XXXXO5</title>
<path fill="none" stroke="black" d="M480.93,-247.21C498.32,-254.39 520.02,-263.35 538.66,-271.04"/>
<polygon fill="black" stroke="black" points="537.51,-274.35 548.08,-274.93 540.18,-267.88 537.51,-274.35"/>
</g>
<!-- stage -->
<g id="node30" class="node">
<title>stage</title>
<ellipse fill="none" stroke="black" cx="714.25" cy="-234" rx="29.5" ry="18"/>
<text text-anchor="middle" x="714.25" y="-230.3" font-family="Times New Roman,serif" font-size="14.00">stage</text>
</g>
<!-- XXOXO5&#45;&gt;stage -->
<g id="edge30" class="edge">
<title>XXOXO5&#45;&gt;stage</title>
<path fill="none" stroke="black" d="M628.86,-234C643.92,-234 660.41,-234 674.78,-234"/>
<polygon fill="black" stroke="black" points="674.82,-237.5 684.82,-234 674.82,-230.5 674.82,-237.5"/>
</g>
<!-- swore -->
<g id="node32" class="node">
<title>swore</title>
<ellipse fill="none" stroke="black" cx="447.92" cy="-990" rx="32.49" ry="18"/>
<text text-anchor="middle" x="447.92" y="-986.3" font-family="Times New Roman,serif" font-size="14.00">swore</text>
</g>
<!-- XOXXX3&#45;&gt;swore -->
<g id="edge32" class="edge">
<title>XOXXX3&#45;&gt;swore</title>
<path fill="none" stroke="black" d="M356.67,-1008.53C372.74,-1005.23 391.08,-1001.47 407.01,-998.19"/>
<polygon fill="black" stroke="black" points="407.99,-1001.57 417.08,-996.13 406.59,-994.71 407.99,-1001.57"/>
</g>
<!-- spoke -->
<g id="node35" class="node">
<title>spoke</title>
<ellipse fill="none" stroke="black" cx="447.92" cy="-936" rx="32.49" ry="18"/>
<text text-anchor="middle" x="447.92" y="-932.3" font-family="Times New Roman,serif" font-size="14.00">spoke</text>
</g>
<!-- GXGGG3&#45;&gt;spoke -->
<g id="edge36" class="edge">
<title>GXGGG3&#45;&gt;spoke</title>
<path fill="none" stroke="black" d="M347.59,-895.21C367.07,-903.21 391.91,-913.41 411.88,-921.61"/>
<polygon fill="black" stroke="black" points="410.66,-924.89 421.24,-925.46 413.32,-918.42 410.66,-924.89"/>
</g>
<!-- GXGGG4 -->
<g id="node54" class="node">
<title>GXGGG4</title>
<ellipse fill="none" stroke="black" cx="447.92" cy="-882" rx="48.99" ry="18"/>
<text text-anchor="middle" x="447.92" y="-878.3" font-family="Times New Roman,serif" font-size="14.00">GXGGG4</text>
</g>
<!-- GXGGG3&#45;&gt;GXGGG4 -->
<g id="edge56" class="edge">
<title>GXGGG3&#45;&gt;GXGGG4</title>
<path fill="none" stroke="black" d="M363.27,-882C371.52,-882 380.18,-882 388.66,-882"/>
<polygon fill="black" stroke="black" points="388.89,-885.5 398.89,-882 388.89,-878.5 388.89,-885.5"/>
</g>
<!-- spore -->
<g id="node38" class="node">
<title>spore</title>
<ellipse fill="none" stroke="black" cx="447.92" cy="-1314" rx="31.4" ry="18"/>
<text text-anchor="middle" x="447.92" y="-1310.3" font-family="Times New Roman,serif" font-size="14.00">spore</text>
</g>
<!-- OOXXX3&#45;&gt;spore -->
<g id="edge39" class="edge">
<title>OOXXX3&#45;&gt;spore</title>
<path fill="none" stroke="black" d="M339.02,-1248.73C355.67,-1259.71 378.6,-1274.56 399.17,-1287 404.4,-1290.16 409.99,-1293.42 415.45,-1296.55"/>
<polygon fill="black" stroke="black" points="413.99,-1299.74 424.42,-1301.63 417.44,-1293.65 413.99,-1299.74"/>
</g>
<!-- spare -->
<g id="node58" class="node">
<title>spare</title>
<ellipse fill="none" stroke="black" cx="447.92" cy="-1260" rx="30.59" ry="18"/>
<text text-anchor="middle" x="447.92" y="-1256.3" font-family="Times New Roman,serif" font-size="14.00">spare</text>
</g>
<!-- OOXXX3&#45;&gt;spare -->
<g id="edge61" class="edge">
<title>OOXXX3&#45;&gt;spare</title>
<path fill="none" stroke="black" d="M357.03,-1241.54C373.57,-1244.94 392.48,-1248.82 408.68,-1252.15"/>
<polygon fill="black" stroke="black" points="408.37,-1255.66 418.87,-1254.24 409.78,-1248.8 408.37,-1255.66"/>
</g>
<!-- stake -->
<g id="node41" class="node">
<title>stake</title>
<ellipse fill="none" stroke="black" cx="580.76" cy="-180" rx="29.5" ry="18"/>
<text text-anchor="middle" x="580.76" y="-176.3" font-family="Times New Roman,serif" font-size="14.00">stake</text>
</g>
<!-- GGXXO4&#45;&gt;stake -->
<g id="edge43" class="edge">
<title>GGXXO4&#45;&gt;stake</title>
<path fill="none" stroke="black" d="M496.16,-180C510.86,-180 526.89,-180 540.94,-180"/>
<polygon fill="black" stroke="black" points="541.25,-183.5 551.25,-180 541.25,-176.5 541.25,-183.5"/>
</g>
<!-- GGXXG2&#45;&gt;GGGXG3 -->
<g id="edge45" class="edge">
<title>GGXXG2&#45;&gt;GGGXG3</title>
<path fill="none" stroke="black" d="M197.2,-575.13C213.2,-592.5 239.59,-619.51 265.68,-639 269.07,-641.53 272.72,-644 276.44,-646.35"/>
<polygon fill="black" stroke="black" points="274.79,-649.43 285.16,-651.58 278.39,-643.43 274.79,-649.43"/>
</g>
<!-- shone -->
<g id="node49" class="node">
<title>shone</title>
<ellipse fill="none" stroke="black" cx="314.43" cy="-558" rx="32.49" ry="18"/>
<text text-anchor="middle" x="314.43" y="-554.3" font-family="Times New Roman,serif" font-size="14.00">shone</text>
</g>
<!-- GGXXG2&#45;&gt;shone -->
<g id="edge51" class="edge">
<title>GGXXG2&#45;&gt;shone</title>
<path fill="none" stroke="black" d="M229.04,-558C243.01,-558 258.21,-558 271.82,-558"/>
<polygon fill="black" stroke="black" points="271.86,-561.5 281.86,-558 271.86,-554.5 271.86,-561.5"/>
</g>
<!-- shove -->
<g id="node44" class="node">
<title>shove</title>
<ellipse fill="none" stroke="black" cx="447.92" cy="-720" rx="32.49" ry="18"/>
<text text-anchor="middle" x="447.92" y="-716.3" font-family="Times New Roman,serif" font-size="14.00">shove</text>
</g>
<!-- GGGXG3&#45;&gt;shove -->
<g id="edge46" class="edge">
<title>GGGXG3&#45;&gt;shove</title>
<path fill="none" stroke="black" d="M347.59,-679.21C367.07,-687.21 391.91,-697.41 411.88,-705.61"/>
<polygon fill="black" stroke="black" points="410.66,-708.89 421.24,-709.46 413.32,-702.42 410.66,-708.89"/>
</g>
<!-- smote -->
<g id="node61" class="node">
<title>smote</title>
<ellipse fill="none" stroke="black" cx="447.92" cy="-666" rx="32.49" ry="18"/>
<text text-anchor="middle" x="447.92" y="-662.3" font-family="Times New Roman,serif" font-size="14.00">smote</text>
</g>
<!-- GGGXG3&#45;&gt;smote -->
<g id="edge65" class="edge">
<title>GGGXG3&#45;&gt;smote</title>
<path fill="none" stroke="black" d="M363.27,-666C376.95,-666 391.74,-666 405.03,-666"/>
<polygon fill="black" stroke="black" points="405.31,-669.5 415.31,-666 405.31,-662.5 405.31,-669.5"/>
</g>
<!-- skate -->
<g id="node46" class="node">
<title>skate</title>
<ellipse fill="none" stroke="black" cx="580.76" cy="-342" rx="29.5" ry="18"/>
<text text-anchor="middle" x="580.76" y="-338.3" font-family="Times New Roman,serif" font-size="14.00">skate</text>
</g>
<!-- GOXXO4&#45;&gt;skate -->
<g id="edge48" class="edge">
<title>GOXXO4&#45;&gt;skate</title>
<path fill="none" stroke="black" d="M496.16,-342C510.86,-342 526.89,-342 540.94,-342"/>
<polygon fill="black" stroke="black" points="541.25,-345.5 551.25,-342 541.25,-338.5 541.25,-345.5"/>
</g>
<!-- segue -->
<g id="node48" class="node">
<title>segue</title>
<ellipse fill="none" stroke="black" cx="447.92" cy="-828" rx="31.4" ry="18"/>
<text text-anchor="middle" x="447.92" y="-824.3" font-family="Times New Roman,serif" font-size="14.00">segue</text>
</g>
<!-- GXXXG3&#45;&gt;segue -->
<g id="edge50" class="edge">
<title>GXXXG3&#45;&gt;segue</title>
<path fill="none" stroke="black" d="M347.59,-787.21C367.33,-795.31 392.58,-805.68 412.68,-813.94"/>
<polygon fill="black" stroke="black" points="411.51,-817.24 422.09,-817.8 414.17,-810.77 411.51,-817.24"/>
</g>
<!-- GGXXG4 -->
<g id="node59" class="node">
<title>GGXXG4</title>
<ellipse fill="none" stroke="black" cx="447.92" cy="-774" rx="48.19" ry="18"/>
<text text-anchor="middle" x="447.92" y="-770.3" font-family="Times New Roman,serif" font-size="14.00">GGXXG4</text>
</g>
<!-- GXXXG3&#45;&gt;GGXXG4 -->
<g id="edge62" class="edge">
<title>GXXXG3&#45;&gt;GGXXG4</title>
<path fill="none" stroke="black" d="M362.53,-774C371.31,-774 380.57,-774 389.62,-774"/>
<polygon fill="black" stroke="black" points="389.71,-777.5 399.71,-774 389.71,-770.5 389.71,-777.5"/>
</g>
<!-- suave -->
<g id="node51" class="node">
<title>suave</title>
<ellipse fill="none" stroke="black" cx="447.92" cy="-396" rx="31.4" ry="18"/>
<text text-anchor="middle" x="447.92" y="-392.3" font-family="Times New Roman,serif" font-size="14.00">suave</text>
</g>
<!-- XXXOX3&#45;&gt;suave -->
<g id="edge53" class="edge">
<title>XXXOX3&#45;&gt;suave</title>
<path fill="none" stroke="black" d="M362.16,-396C376.51,-396 392.19,-396 406.11,-396"/>
<polygon fill="black" stroke="black" points="406.37,-399.5 416.37,-396 406.37,-392.5 406.37,-399.5"/>
</g>
<!-- spree -->
<g id="node53" class="node">
<title>spree</title>
<ellipse fill="none" stroke="black" cx="447.92" cy="-1368" rx="30.59" ry="18"/>
<text text-anchor="middle" x="447.92" y="-1364.3" font-family="Times New Roman,serif" font-size="14.00">spree</text>
</g>
<!-- OXXOG3&#45;&gt;spree -->
<g id="edge55" class="edge">
<title>OXXOG3&#45;&gt;spree</title>
<path fill="none" stroke="black" d="M362.53,-1368C377.09,-1368 392.99,-1368 407.01,-1368"/>
<polygon fill="black" stroke="black" points="407.32,-1371.5 417.32,-1368 407.32,-1364.5 407.32,-1371.5"/>
</g>
<!-- stoke -->
<g id="node55" class="node">
<title>stoke</title>
<ellipse fill="none" stroke="black" cx="580.76" cy="-882" rx="30.59" ry="18"/>
<text text-anchor="middle" x="580.76" y="-878.3" font-family="Times New Roman,serif" font-size="14.00">stoke</text>
</g>
<!-- GXGGG4&#45;&gt;stoke -->
<g id="edge57" class="edge">
<title>GXGGG4&#45;&gt;stoke</title>
<path fill="none" stroke="black" d="M496.9,-882C511.08,-882 526.44,-882 540.04,-882"/>
<polygon fill="black" stroke="black" points="540.05,-885.5 550.05,-882 540.05,-878.5 540.05,-885.5"/>
</g>
<!-- snake -->
<g id="node57" class="node">
<title>snake</title>
<ellipse fill="none" stroke="black" cx="447.92" cy="-504" rx="31.4" ry="18"/>
<text text-anchor="middle" x="447.92" y="-500.3" font-family="Times New Roman,serif" font-size="14.00">snake</text>
</g>
<!-- XGXXX3&#45;&gt;snake -->
<g id="edge59" class="edge">
<title>XGXXX3&#45;&gt;snake</title>
<path fill="none" stroke="black" d="M362.16,-504C376.51,-504 392.19,-504 406.11,-504"/>
<polygon fill="black" stroke="black" points="406.37,-507.5 416.37,-504 406.37,-500.5 406.37,-507.5"/>
</g>
<!-- sense -->
<g id="node60" class="node">
<title>sense</title>
<ellipse fill="none" stroke="black" cx="580.76" cy="-774" rx="30.59" ry="18"/>
<text text-anchor="middle" x="580.76" y="-770.3" font-family="Times New Roman,serif" font-size="14.00">sense</text>
</g>
<!-- GGXXG4&#45;&gt;sense -->
<g id="edge63" class="edge">
<title>GGXXG4&#45;&gt;sense</title>
<path fill="none" stroke="black" d="M496.16,-774C510.51,-774 526.12,-774 539.93,-774"/>
<polygon fill="black" stroke="black" points="540.09,-777.5 550.09,-774 540.09,-770.5 540.09,-777.5"/>
</g>
<!-- GGGOG6 -->
<g id="node63" class="node">
<title>GGGOG6</title>
<ellipse fill="none" stroke="black" cx="714.25" cy="-288" rx="49.29" ry="18"/>
<text text-anchor="middle" x="714.25" y="-284.3" font-family="Times New Roman,serif" font-size="14.00">GGGOG6</text>
</g>
<!-- XXXXO5&#45;&gt;GGGOG6 -->
<g id="edge67" class="edge">
<title>XXXXO5&#45;&gt;GGGOG6</title>
<path fill="none" stroke="black" d="M628.49,-288C636.87,-288 645.71,-288 654.38,-288"/>
<polygon fill="black" stroke="black" points="654.45,-291.5 664.45,-288 654.45,-284.5 654.45,-291.5"/>
</g>
<!-- state -->
<g id="node68" class="node">
<title>state</title>
<ellipse fill="none" stroke="black" cx="714.25" cy="-342" rx="27.1" ry="18"/>
<text text-anchor="middle" x="714.25" y="-338.3" font-family="Times New Roman,serif" font-size="14.00">state</text>
</g>
<!-- XXXXO5&#45;&gt;state -->
<g id="edge72" class="edge">
<title>XXXXO5&#45;&gt;state</title>
<path fill="none" stroke="black" d="M613.59,-301.07C634.19,-309.53 660.92,-320.51 681.5,-328.96"/>
<polygon fill="black" stroke="black" points="680.19,-332.21 690.77,-332.77 682.85,-325.73 680.19,-332.21"/>
</g>
<!-- stave -->
<g id="node64" class="node">
<title>stave</title>
<ellipse fill="none" stroke="black" cx="828.9" cy="-288" rx="29.5" ry="18"/>
<text text-anchor="middle" x="828.9" y="-284.3" font-family="Times New Roman,serif" font-size="14.00">stave</text>
</g>
<!-- GGGOG6&#45;&gt;stave -->
<g id="edge68" class="edge">
<title>GGGOG6&#45;&gt;stave</title>
<path fill="none" stroke="black" d="M763.68,-288C772.23,-288 781.03,-288 789.27,-288"/>
<polygon fill="black" stroke="black" points="789.34,-291.5 799.34,-288 789.34,-284.5 789.34,-291.5"/>
</g>
<!-- surge -->
<g id="node67" class="node">
<title>surge</title>
<ellipse fill="none" stroke="black" cx="447.92" cy="-1476" rx="30.59" ry="18"/>
<text text-anchor="middle" x="447.92" y="-1472.3" font-family="Times New Roman,serif" font-size="14.00">surge</text>
</g>
<!-- XXOOG3&#45;&gt;surge -->
<g id="edge71" class="edge">
<title>XXOOG3&#45;&gt;surge</title>
<path fill="none" stroke="black" d="M362.53,-1476C377.09,-1476 392.99,-1476 407.01,-1476"/>
<polygon fill="black" stroke="black" points="407.32,-1479.5 417.32,-1476 407.32,-1472.5 407.32,-1479.5"/>
</g>
<!-- shore -->
<g id="node70" class="node">
<title>shore</title>
<ellipse fill="none" stroke="black" cx="314.43" cy="-72" rx="30.59" ry="18"/>
<text text-anchor="middle" x="314.43" y="-68.3" font-family="Times New Roman,serif" font-size="14.00">shore</text>
</g>
<!-- GGXGG2&#45;&gt;shore -->
<g id="edge74" class="edge">
<title>GGXGG2&#45;&gt;shore</title>
<path fill="none" stroke="black" d="M223.9,-90.38C240.3,-87.02 258.99,-83.18 275.02,-79.89"/>
<polygon fill="black" stroke="black" points="276.04,-83.25 285.13,-77.81 274.63,-76.39 276.04,-83.25"/>
</g>
<!-- shave -->
<g id="node73" class="node">
<title>shave</title>
<ellipse fill="none" stroke="black" cx="447.92" cy="-18" rx="31.4" ry="18"/>
<text text-anchor="middle" x="447.92" y="-14.3" font-family="Times New Roman,serif" font-size="14.00">shave</text>
</g>
<!-- OXXXO3&#45;&gt;shave -->
<g id="edge78" class="edge">
<title>OXXXO3&#45;&gt;shave</title>
<path fill="none" stroke="black" d="M347.21,-166.41C353.13,-162.74 358.82,-158.29 363.17,-153 395.34,-113.94 367.01,-84.06 399.17,-45 402.97,-40.39 407.78,-36.41 412.88,-33.04"/>
<polygon fill="black" stroke="black" points="414.73,-36.01 421.59,-27.93 411.19,-29.97 414.73,-36.01"/>
</g>
</g>
</svg>
