<?xml version="1.0" encoding="UTF-8" standalone="no"?>
<!DOCTYPE svg PUBLIC "-//W3C//DTD SVG 1.1//EN"
 "http://www.w3.org/Graphics/SVG/1.1/DTD/svg11.dtd">
<!-- Generated by graphviz version 2.50.0 (20211204.2007)
 -->
<!-- Pages: 1 -->
<svg width="467pt" height="260pt"
 viewBox="0.00 0.00 466.97 260.00" xmlns="http://www.w3.org/2000/svg" xmlns:xlink="http://www.w3.org/1999/xlink">
<g id="graph0" class="graph" transform="scale(1 1) rotate(0) translate(4 256)">
<polygon fill="white" stroke="transparent" points="-4,4 -4,-256 462.97,-256 462.97,4 -4,4"/>
<!-- OXGXG1 -->
<g id="node1" class="node">
<title>OXGXG1</title>
<ellipse fill="none" stroke="black" cx="48.1" cy="-153" rx="48.19" ry="18"/>
<text text-anchor="middle" x="48.1" y="-149.3" font-family="Times New Roman,serif" font-size="14.00">OXGXG1</text>
</g>
<!-- GXGOG2 -->
<g id="node2" class="node">
<title>GXGOG2</title>
<ellipse fill="none" stroke="black" cx="181.59" cy="-234" rx="48.99" ry="18"/>
<text text-anchor="middle" x="181.59" y="-230.3" font-family="Times New Roman,serif" font-size="14.00">GXGOG2</text>
</g>
<!-- OXGXG1&#45;&gt;GXGOG2 -->
<g id="edge1" class="edge">
<title>OXGXG1&#45;&gt;GXGOG2</title>
<path fill="none" stroke="black" d="M72.47,-168.79C88.97,-179.79 111.71,-194.65 132.19,-207 136.1,-209.36 140.22,-211.76 144.34,-214.13"/>
<polygon fill="black" stroke="black" points="142.84,-217.3 153.27,-219.18 146.29,-211.21 142.84,-217.3"/>
</g>
<!-- arise -->
<g id="node4" class="node">
<title>arise</title>
<ellipse fill="none" stroke="black" cx="181.59" cy="-180" rx="27.1" ry="18"/>
<text text-anchor="middle" x="181.59" y="-176.3" font-family="Times New Roman,serif" font-size="14.00">arise</text>
</g>
<!-- OXGXG1&#45;&gt;arise -->
<g id="edge3" class="edge">
<title>OXGXG1&#45;&gt;arise</title>
<path fill="none" stroke="black" d="M90.7,-161.54C108.27,-165.15 128.51,-169.31 145.33,-172.76"/>
<polygon fill="black" stroke="black" points="144.81,-176.23 155.31,-174.81 146.22,-169.37 144.81,-176.23"/>
</g>
<!-- XXGGG2 -->
<g id="node5" class="node">
<title>XXGGG2</title>
<ellipse fill="none" stroke="black" cx="181.59" cy="-126" rx="48.19" ry="18"/>
<text text-anchor="middle" x="181.59" y="-122.3" font-family="Times New Roman,serif" font-size="14.00">XXGGG2</text>
</g>
<!-- OXGXG1&#45;&gt;XXGGG2 -->
<g id="edge4" class="edge">
<title>OXGXG1&#45;&gt;XXGGG2</title>
<path fill="none" stroke="black" d="M90.7,-144.46C102.81,-141.97 116.19,-139.22 128.85,-136.62"/>
<polygon fill="black" stroke="black" points="129.71,-140.02 138.8,-134.58 128.3,-133.16 129.71,-140.02"/>
</g>
<!-- OOGGG2 -->
<g id="node8" class="node">
<title>OOGGG2</title>
<ellipse fill="none" stroke="black" cx="181.59" cy="-45" rx="49.29" ry="18"/>
<text text-anchor="middle" x="181.59" y="-41.3" font-family="Times New Roman,serif" font-size="14.00">OOGGG2</text>
</g>
<!-- OXGXG1&#45;&gt;OOGGG2 -->
<g id="edge7" class="edge">
<title>OXGXG1&#45;&gt;OOGGG2</title>
<path fill="none" stroke="black" d="M69.07,-136.6C91.27,-118.36 127.3,-88.76 152.38,-68.17"/>
<polygon fill="black" stroke="black" points="154.92,-70.61 160.43,-61.56 150.48,-65.2 154.92,-70.61"/>
</g>
<!-- aside -->
<g id="node3" class="node">
<title>aside</title>
<ellipse fill="none" stroke="black" cx="314.43" cy="-234" rx="29.5" ry="18"/>
<text text-anchor="middle" x="314.43" y="-230.3" font-family="Times New Roman,serif" font-size="14.00">aside</text>
</g>
<!-- GXGOG2&#45;&gt;aside -->
<g id="edge2" class="edge">
<title>GXGOG2&#45;&gt;aside</title>
<path fill="none" stroke="black" d="M230.56,-234C245.09,-234 260.86,-234 274.71,-234"/>
<polygon fill="black" stroke="black" points="274.86,-237.5 284.86,-234 274.86,-230.5 274.86,-237.5"/>
</g>
<!-- GXXXX3 -->
<g id="node6" class="node">
<title>GXXXX3</title>
<ellipse fill="none" stroke="black" cx="314.43" cy="-180" rx="47.39" ry="18"/>
<text text-anchor="middle" x="314.43" y="-176.3" font-family="Times New Roman,serif" font-size="14.00">GXXXX3</text>
</g>
<!-- XXGGG2&#45;&gt;GXXXX3 -->
<g id="edge5" class="edge">
<title>XXGGG2&#45;&gt;GXXXX3</title>
<path fill="none" stroke="black" d="M214.59,-139.21C231.99,-146.39 253.69,-155.35 272.33,-163.04"/>
<polygon fill="black" stroke="black" points="271.17,-166.35 281.75,-166.93 273.84,-159.88 271.17,-166.35"/>
</g>
<!-- XXXXO3 -->
<g id="node10" class="node">
<title>XXXXO3</title>
<ellipse fill="none" stroke="black" cx="314.43" cy="-126" rx="47.39" ry="18"/>
<text text-anchor="middle" x="314.43" y="-122.3" font-family="Times New Roman,serif" font-size="14.00">XXXXO3</text>
</g>
<!-- XXGGG2&#45;&gt;XXXXO3 -->
<g id="edge9" class="edge">
<title>XXGGG2&#45;&gt;XXXXO3</title>
<path fill="none" stroke="black" d="M229.82,-126C238.45,-126 247.54,-126 256.42,-126"/>
<polygon fill="black" stroke="black" points="256.7,-129.5 266.7,-126 256.7,-122.5 256.7,-129.5"/>
</g>
<!-- XXOXX3 -->
<g id="node12" class="node">
<title>XXOXX3</title>
<ellipse fill="none" stroke="black" cx="314.43" cy="-72" rx="47.39" ry="18"/>
<text text-anchor="middle" x="314.43" y="-68.3" font-family="Times New Roman,serif" font-size="14.00">XXOXX3</text>
</g>
<!-- XXGGG2&#45;&gt;XXOXX3 -->
<g id="edge11" class="edge">
<title>XXGGG2&#45;&gt;XXOXX3</title>
<path fill="none" stroke="black" d="M214.59,-112.79C231.99,-105.61 253.69,-96.65 272.33,-88.96"/>
<polygon fill="black" stroke="black" points="273.84,-92.12 281.75,-85.07 271.17,-85.65 273.84,-92.12"/>
</g>
<!-- poise -->
<g id="node7" class="node">
<title>poise</title>
<ellipse fill="none" stroke="black" cx="428.42" cy="-180" rx="30.59" ry="18"/>
<text text-anchor="middle" x="428.42" y="-176.3" font-family="Times New Roman,serif" font-size="14.00">poise</text>
</g>
<!-- GXXXX3&#45;&gt;poise -->
<g id="edge6" class="edge">
<title>GXXXX3&#45;&gt;poise</title>
<path fill="none" stroke="black" d="M361.95,-180C370.49,-180 379.32,-180 387.64,-180"/>
<polygon fill="black" stroke="black" points="387.83,-183.5 397.83,-180 387.83,-176.5 387.83,-183.5"/>
</g>
<!-- raise -->
<g id="node9" class="node">
<title>raise</title>
<ellipse fill="none" stroke="black" cx="314.43" cy="-18" rx="27.1" ry="18"/>
<text text-anchor="middle" x="314.43" y="-14.3" font-family="Times New Roman,serif" font-size="14.00">raise</text>
</g>
<!-- OOGGG2&#45;&gt;raise -->
<g id="edge8" class="edge">
<title>OOGGG2&#45;&gt;raise</title>
<path fill="none" stroke="black" d="M225.07,-36.23C242.08,-32.72 261.47,-28.72 277.74,-25.36"/>
<polygon fill="black" stroke="black" points="278.84,-28.71 287.93,-23.26 277.43,-21.86 278.84,-28.71"/>
</g>
<!-- noise -->
<g id="node11" class="node">
<title>noise</title>
<ellipse fill="none" stroke="black" cx="428.42" cy="-126" rx="29.8" ry="18"/>
<text text-anchor="middle" x="428.42" y="-122.3" font-family="Times New Roman,serif" font-size="14.00">noise</text>
</g>
<!-- XXXXO3&#45;&gt;noise -->
<g id="edge10" class="edge">
<title>XXXXO3&#45;&gt;noise</title>
<path fill="none" stroke="black" d="M361.95,-126C370.75,-126 379.88,-126 388.42,-126"/>
<polygon fill="black" stroke="black" points="388.48,-129.5 398.48,-126 388.48,-122.5 388.48,-129.5"/>
</g>
<!-- guise -->
<g id="node13" class="node">
<title>guise</title>
<ellipse fill="none" stroke="black" cx="428.42" cy="-72" rx="29.5" ry="18"/>
<text text-anchor="middle" x="428.42" y="-68.3" font-family="Times New Roman,serif" font-size="14.00">guise</text>
</g>
<!-- XXOXX3&#45;&gt;guise -->
<g id="edge12" class="edge">
<title>XXOXX3&#45;&gt;guise</title>
<path fill="none" stroke="black" d="M361.95,-72C370.92,-72 380.23,-72 388.91,-72"/>
<polygon fill="black" stroke="black" points="389.13,-75.5 399.13,-72 389.13,-68.5 389.13,-75.5"/>
</g>
</g>
</svg>
