<?xml version="1.0" encoding="UTF-8" standalone="no"?>
<!DOCTYPE svg PUBLIC "-//W3C//DTD SVG 1.1//EN"
 "http://www.w3.org/Graphics/SVG/1.1/DTD/svg11.dtd">
<!-- Generated by graphviz version 2.50.0 (20211204.2007)
 -->
<!-- Pages: 1 -->
<svg width="602pt" height="1502pt"
 viewBox="0.00 0.00 601.76 1502.00" xmlns="http://www.w3.org/2000/svg" xmlns:xlink="http://www.w3.org/1999/xlink">
<g id="graph0" class="graph" transform="scale(1 1) rotate(0) translate(4 1498)">
<polygon fill="white" stroke="transparent" points="-4,4 -4,-1498 597.76,-1498 597.76,4 -4,4"/>
<!-- OXXXO1 -->
<g id="node1" class="node">
<title>OXXXO1</title>
<ellipse fill="none" stroke="black" cx="48.1" cy="-612" rx="48.19" ry="18"/>
<text text-anchor="middle" x="48.1" y="-608.3" font-family="Times New Roman,serif" font-size="14.00">OXXXO1</text>
</g>
<!-- GOXGX2 -->
<g id="node2" class="node">
<title>GOXGX2</title>
<ellipse fill="none" stroke="black" cx="180.94" cy="-1435" rx="48.19" ry="18"/>
<text text-anchor="middle" x="180.94" y="-1431.3" font-family="Times New Roman,serif" font-size="14.00">GOXGX2</text>
</g>
<!-- OXXXO1&#45;&gt;GOXGX2 -->
<g id="edge1" class="edge">
<title>OXXXO1&#45;&gt;GOXGX2</title>
<path fill="none" stroke="black" d="M49.85,-630.07C54.23,-731.1 78.21,-1226.43 132.19,-1368 138.02,-1383.29 148.2,-1398.31 157.66,-1410.25"/>
<polygon fill="black" stroke="black" points="154.97,-1412.49 164.03,-1417.98 160.37,-1408.04 154.97,-1412.49"/>
</g>
<!-- XOOOX2 -->
<g id="node4" class="node">
<title>XOOOX2</title>
<ellipse fill="none" stroke="black" cx="180.94" cy="-1341" rx="48.19" ry="18"/>
<text text-anchor="middle" x="180.94" y="-1337.3" font-family="Times New Roman,serif" font-size="14.00">XOOOX2</text>
</g>
<!-- OXXXO1&#45;&gt;XOOOX2 -->
<g id="edge3" class="edge">
<title>OXXXO1&#45;&gt;XOOOX2</title>
<path fill="none" stroke="black" d="M50.83,-630.28C57.75,-701.33 85.37,-965.7 132.19,-1179 142.69,-1226.81 159.8,-1281.15 170.43,-1313.18"/>
<polygon fill="black" stroke="black" points="167.14,-1314.39 173.64,-1322.76 173.78,-1312.16 167.14,-1314.39"/>
</g>
<!-- XOXOX2 -->
<g id="node7" class="node">
<title>XOXOX2</title>
<ellipse fill="none" stroke="black" cx="180.94" cy="-1152" rx="48.19" ry="18"/>
<text text-anchor="middle" x="180.94" y="-1148.3" font-family="Times New Roman,serif" font-size="14.00">XOXOX2</text>
</g>
<!-- OXXXO1&#45;&gt;XOXOX2 -->
<g id="edge6" class="edge">
<title>OXXXO1&#45;&gt;XOXOX2</title>
<path fill="none" stroke="black" d="M51.88,-629.97C60.91,-687.14 91.24,-869.7 132.19,-1017 142.7,-1054.8 158.4,-1097.31 168.9,-1124.35"/>
<polygon fill="black" stroke="black" points="165.74,-1125.88 172.64,-1133.91 172.25,-1123.33 165.74,-1125.88"/>
</g>
<!-- XGXOX2 -->
<g id="node10" class="node">
<title>XGXOX2</title>
<ellipse fill="none" stroke="black" cx="180.94" cy="-990" rx="48.19" ry="18"/>
<text text-anchor="middle" x="180.94" y="-986.3" font-family="Times New Roman,serif" font-size="14.00">XGXOX2</text>
</g>
<!-- OXXXO1&#45;&gt;XGXOX2 -->
<g id="edge9" class="edge">
<title>OXXXO1&#45;&gt;XGXOX2</title>
<path fill="none" stroke="black" d="M53.83,-629.93C65.52,-673.6 97.36,-788.73 132.19,-882 142.7,-910.15 156.83,-941.46 166.98,-963.09"/>
<polygon fill="black" stroke="black" points="163.9,-964.76 171.34,-972.3 170.23,-961.77 163.9,-964.76"/>
</g>
<!-- XGXOO2 -->
<g id="node15" class="node">
<title>XGXOO2</title>
<ellipse fill="none" stroke="black" cx="180.94" cy="-855" rx="48.19" ry="18"/>
<text text-anchor="middle" x="180.94" y="-851.3" font-family="Times New Roman,serif" font-size="14.00">XGXOO2</text>
</g>
<!-- OXXXO1&#45;&gt;XGXOO2 -->
<g id="edge14" class="edge">
<title>OXXXO1&#45;&gt;XGXOO2</title>
<path fill="none" stroke="black" d="M57.74,-629.68C72.48,-659.65 103.68,-722.22 132.19,-774 142.39,-792.53 154.5,-813.05 163.97,-828.8"/>
<polygon fill="black" stroke="black" points="161.04,-830.72 169.2,-837.47 167.03,-827.1 161.04,-830.72"/>
</g>
<!-- GGXOO2 -->
<g id="node18" class="node">
<title>GGXOO2</title>
<ellipse fill="none" stroke="black" cx="180.94" cy="-666" rx="48.99" ry="18"/>
<text text-anchor="middle" x="180.94" y="-662.3" font-family="Times New Roman,serif" font-size="14.00">GGXOO2</text>
</g>
<!-- OXXXO1&#45;&gt;GGXOO2 -->
<g id="edge17" class="edge">
<title>OXXXO1&#45;&gt;GGXOO2</title>
<path fill="none" stroke="black" d="M81.1,-625.21C98.37,-632.34 119.88,-641.21 138.42,-648.87"/>
<polygon fill="black" stroke="black" points="137.23,-652.16 147.81,-652.74 139.9,-645.69 137.23,-652.16"/>
</g>
<!-- XOOOG2 -->
<g id="node20" class="node">
<title>XOOOG2</title>
<ellipse fill="none" stroke="black" cx="180.94" cy="-612" rx="48.99" ry="18"/>
<text text-anchor="middle" x="180.94" y="-608.3" font-family="Times New Roman,serif" font-size="14.00">XOOOG2</text>
</g>
<!-- OXXXO1&#45;&gt;XOOOG2 -->
<g id="edge19" class="edge">
<title>OXXXO1&#45;&gt;XOOOG2</title>
<path fill="none" stroke="black" d="M96.33,-612C104.55,-612 113.19,-612 121.67,-612"/>
<polygon fill="black" stroke="black" points="121.89,-615.5 131.89,-612 121.89,-608.5 121.89,-615.5"/>
</g>
<!-- XOXOG2 -->
<g id="node22" class="node">
<title>XOXOG2</title>
<ellipse fill="none" stroke="black" cx="180.94" cy="-558" rx="48.19" ry="18"/>
<text text-anchor="middle" x="180.94" y="-554.3" font-family="Times New Roman,serif" font-size="14.00">XOXOG2</text>
</g>
<!-- OXXXO1&#45;&gt;XOXOG2 -->
<g id="edge21" class="edge">
<title>OXXXO1&#45;&gt;XOXOG2</title>
<path fill="none" stroke="black" d="M81.1,-598.79C98.37,-591.66 119.88,-582.79 138.42,-575.13"/>
<polygon fill="black" stroke="black" points="139.9,-578.31 147.81,-571.26 137.23,-571.84 139.9,-578.31"/>
</g>
<!-- XOXGG2 -->
<g id="node29" class="node">
<title>XOXGG2</title>
<ellipse fill="none" stroke="black" cx="180.94" cy="-747" rx="48.19" ry="18"/>
<text text-anchor="middle" x="180.94" y="-743.3" font-family="Times New Roman,serif" font-size="14.00">XOXGG2</text>
</g>
<!-- OXXXO1&#45;&gt;XOXGG2 -->
<g id="edge28" class="edge">
<title>OXXXO1&#45;&gt;XOXGG2</title>
<path fill="none" stroke="black" d="M65.4,-628.82C88.32,-652.47 130.19,-695.67 156.46,-722.77"/>
<polygon fill="black" stroke="black" points="153.95,-725.22 163.43,-729.96 158.98,-720.35 153.95,-725.22"/>
</g>
<!-- XGXOG2 -->
<g id="node32" class="node">
<title>XGXOG2</title>
<ellipse fill="none" stroke="black" cx="180.94" cy="-288" rx="48.19" ry="18"/>
<text text-anchor="middle" x="180.94" y="-284.3" font-family="Times New Roman,serif" font-size="14.00">XGXOG2</text>
</g>
<!-- OXXXO1&#45;&gt;XGXOG2 -->
<g id="edge31" class="edge">
<title>OXXXO1&#45;&gt;XGXOG2</title>
<path fill="none" stroke="black" d="M53.94,-593.83C65.17,-552.76 94.93,-450.01 132.19,-369 140.97,-349.91 153,-329.53 162.78,-314"/>
<polygon fill="black" stroke="black" points="165.8,-315.76 168.24,-305.45 159.91,-311.99 165.8,-315.76"/>
</g>
<!-- XOXOO2 -->
<g id="node41" class="node">
<title>XOXOO2</title>
<ellipse fill="none" stroke="black" cx="180.94" cy="-153" rx="48.19" ry="18"/>
<text text-anchor="middle" x="180.94" y="-149.3" font-family="Times New Roman,serif" font-size="14.00">XOXOO2</text>
</g>
<!-- OXXXO1&#45;&gt;XOXOO2 -->
<g id="edge40" class="edge">
<title>OXXXO1&#45;&gt;XOXOO2</title>
<path fill="none" stroke="black" d="M49.53,-593.97C51.61,-535.1 63.56,-344.42 132.19,-207 137.64,-196.09 145.86,-185.66 153.95,-176.93"/>
<polygon fill="black" stroke="black" points="156.5,-179.33 160.95,-169.72 151.48,-174.45 156.5,-179.33"/>
</g>
<!-- XOXGX2 -->
<g id="node43" class="node">
<title>XOXGX2</title>
<ellipse fill="none" stroke="black" cx="180.94" cy="-396" rx="48.19" ry="18"/>
<text text-anchor="middle" x="180.94" y="-392.3" font-family="Times New Roman,serif" font-size="14.00">XOXGX2</text>
</g>
<!-- OXXXO1&#45;&gt;XOXGX2 -->
<g id="edge42" class="edge">
<title>OXXXO1&#45;&gt;XOXGX2</title>
<path fill="none" stroke="black" d="M59.8,-594.32C82.77,-556.42 136.85,-467.13 163.92,-422.44"/>
<polygon fill="black" stroke="black" points="167.08,-423.98 169.27,-413.62 161.09,-420.36 167.08,-423.98"/>
</g>
<!-- XGGGG2 -->
<g id="node46" class="node">
<title>XGGGG2</title>
<ellipse fill="none" stroke="black" cx="180.94" cy="-234" rx="48.99" ry="18"/>
<text text-anchor="middle" x="180.94" y="-230.3" font-family="Times New Roman,serif" font-size="14.00">XGGGG2</text>
</g>
<!-- OXXXO1&#45;&gt;XGGGG2 -->
<g id="edge45" class="edge">
<title>OXXXO1&#45;&gt;XGGGG2</title>
<path fill="none" stroke="black" d="M48.55,-593.86C47.79,-538.2 52.45,-367.14 132.19,-261 134.31,-258.17 136.83,-255.6 139.57,-253.26"/>
<polygon fill="black" stroke="black" points="141.75,-256.01 147.78,-247.3 137.63,-250.34 141.75,-256.01"/>
</g>
<!-- feast -->
<g id="node48" class="node">
<title>feast</title>
<ellipse fill="none" stroke="black" cx="180.94" cy="-99" rx="27.9" ry="18"/>
<text text-anchor="middle" x="180.94" y="-95.3" font-family="Times New Roman,serif" font-size="14.00">feast</text>
</g>
<!-- OXXXO1&#45;&gt;feast -->
<g id="edge48" class="edge">
<title>OXXXO1&#45;&gt;feast</title>
<path fill="none" stroke="black" d="M50.13,-594.01C54.94,-515.61 77.24,-204.17 132.19,-126 136,-120.58 141.27,-116.11 146.91,-112.48"/>
<polygon fill="black" stroke="black" points="148.92,-115.37 155.95,-107.44 145.51,-109.25 148.92,-115.37"/>
</g>
<!-- XGXGX2 -->
<g id="node64" class="node">
<title>XGXGX2</title>
<ellipse fill="none" stroke="black" cx="180.94" cy="-32" rx="48.19" ry="18"/>
<text text-anchor="middle" x="180.94" y="-28.3" font-family="Times New Roman,serif" font-size="14.00">XGXGX2</text>
</g>
<!-- OXXXO1&#45;&gt;XGXGX2 -->
<g id="edge65" class="edge">
<title>OXXXO1&#45;&gt;XGXGX2</title>
<path fill="none" stroke="black" d="M50.17,-593.98C55.37,-510.88 79.87,-164.87 132.19,-72 135.91,-65.39 141.18,-59.4 146.86,-54.19"/>
<polygon fill="black" stroke="black" points="149.34,-56.68 154.77,-47.58 144.85,-51.31 149.34,-56.68"/>
</g>
<!-- fresh -->
<g id="node3" class="node">
<title>fresh</title>
<ellipse fill="none" stroke="black" cx="314.43" cy="-1476" rx="28.7" ry="18"/>
<text text-anchor="middle" x="314.43" y="-1472.3" font-family="Times New Roman,serif" font-size="14.00">fresh</text>
</g>
<!-- GOXGX2&#45;&gt;fresh -->
<g id="edge2" class="edge">
<title>GOXGX2&#45;&gt;fresh</title>
<path fill="none" stroke="black" d="M218.56,-1446.42C237.29,-1452.26 259.96,-1459.33 278.44,-1465.09"/>
<polygon fill="black" stroke="black" points="277.64,-1468.51 288.23,-1468.14 279.72,-1461.82 277.64,-1468.51"/>
</g>
<!-- OGXOX3 -->
<g id="node5" class="node">
<title>OGXOX3</title>
<ellipse fill="none" stroke="black" cx="314.43" cy="-1422" rx="48.19" ry="18"/>
<text text-anchor="middle" x="314.43" y="-1418.3" font-family="Times New Roman,serif" font-size="14.00">OGXOX3</text>
</g>
<!-- XOOOX2&#45;&gt;OGXOX3 -->
<g id="edge4" class="edge">
<title>XOOOX2&#45;&gt;OGXOX3</title>
<path fill="none" stroke="black" d="M205.53,-1356.73C222.18,-1367.71 245.1,-1382.56 265.68,-1395 269.55,-1397.34 273.62,-1399.73 277.68,-1402.09"/>
<polygon fill="black" stroke="black" points="276.08,-1405.2 286.5,-1407.13 279.56,-1399.13 276.08,-1405.2"/>
</g>
<!-- GGXGX3 -->
<g id="node13" class="node">
<title>GGXGX3</title>
<ellipse fill="none" stroke="black" cx="314.43" cy="-1368" rx="48.19" ry="18"/>
<text text-anchor="middle" x="314.43" y="-1364.3" font-family="Times New Roman,serif" font-size="14.00">GGXGX3</text>
</g>
<!-- XOOOX2&#45;&gt;GGXGX3 -->
<g id="edge12" class="edge">
<title>XOOOX2&#45;&gt;GGXGX3</title>
<path fill="none" stroke="black" d="M223.54,-1349.54C235.65,-1352.03 249.03,-1354.78 261.69,-1357.38"/>
<polygon fill="black" stroke="black" points="261.14,-1360.84 271.64,-1359.42 262.55,-1353.98 261.14,-1360.84"/>
</g>
<!-- ashen -->
<g id="node40" class="node">
<title>ashen</title>
<ellipse fill="none" stroke="black" cx="314.43" cy="-1314" rx="31.4" ry="18"/>
<text text-anchor="middle" x="314.43" y="-1310.3" font-family="Times New Roman,serif" font-size="14.00">ashen</text>
</g>
<!-- XOOOX2&#45;&gt;ashen -->
<g id="edge39" class="edge">
<title>XOOOX2&#45;&gt;ashen</title>
<path fill="none" stroke="black" d="M223.54,-1332.46C239.84,-1329.11 258.43,-1325.29 274.46,-1322"/>
<polygon fill="black" stroke="black" points="275.48,-1325.37 284.57,-1319.93 274.07,-1318.51 275.48,-1325.37"/>
</g>
<!-- essay -->
<g id="node6" class="node">
<title>essay</title>
<ellipse fill="none" stroke="black" cx="447.92" cy="-1422" rx="30.59" ry="18"/>
<text text-anchor="middle" x="447.92" y="-1418.3" font-family="Times New Roman,serif" font-size="14.00">essay</text>
</g>
<!-- OGXOX3&#45;&gt;essay -->
<g id="edge5" class="edge">
<title>OGXOX3&#45;&gt;essay</title>
<path fill="none" stroke="black" d="M362.53,-1422C377.09,-1422 392.99,-1422 407.01,-1422"/>
<polygon fill="black" stroke="black" points="407.32,-1425.5 417.32,-1422 407.32,-1418.5 407.32,-1425.5"/>
</g>
<!-- XXOGX3 -->
<g id="node8" class="node">
<title>XXOGX3</title>
<ellipse fill="none" stroke="black" cx="314.43" cy="-1260" rx="48.19" ry="18"/>
<text text-anchor="middle" x="314.43" y="-1256.3" font-family="Times New Roman,serif" font-size="14.00">XXOGX3</text>
</g>
<!-- XOXOX2&#45;&gt;XXOGX3 -->
<g id="edge7" class="edge">
<title>XOXOX2&#45;&gt;XXOGX3</title>
<path fill="none" stroke="black" d="M197.2,-1169.13C213.2,-1186.5 239.59,-1213.51 265.68,-1233 269.07,-1235.53 272.72,-1238 276.44,-1240.35"/>
<polygon fill="black" stroke="black" points="274.79,-1243.43 285.16,-1245.58 278.39,-1237.43 274.79,-1243.43"/>
</g>
<!-- XGGGX3 -->
<g id="node36" class="node">
<title>XGGGX3</title>
<ellipse fill="none" stroke="black" cx="314.43" cy="-1206" rx="48.19" ry="18"/>
<text text-anchor="middle" x="314.43" y="-1202.3" font-family="Times New Roman,serif" font-size="14.00">XGGGX3</text>
</g>
<!-- XOXOX2&#45;&gt;XGGGX3 -->
<g id="edge35" class="edge">
<title>XOXOX2&#45;&gt;XGGGX3</title>
<path fill="none" stroke="black" d="M214.1,-1165.21C231.46,-1172.34 253.07,-1181.21 271.71,-1188.87"/>
<polygon fill="black" stroke="black" points="270.56,-1192.18 281.14,-1192.74 273.22,-1185.7 270.56,-1192.18"/>
</g>
<!-- nosey -->
<g id="node60" class="node">
<title>nosey</title>
<ellipse fill="none" stroke="black" cx="314.43" cy="-1152" rx="32.49" ry="18"/>
<text text-anchor="middle" x="314.43" y="-1148.3" font-family="Times New Roman,serif" font-size="14.00">nosey</text>
</g>
<!-- XOXOX2&#45;&gt;nosey -->
<g id="edge60" class="edge">
<title>XOXOX2&#45;&gt;nosey</title>
<path fill="none" stroke="black" d="M229.04,-1152C243.01,-1152 258.21,-1152 271.82,-1152"/>
<polygon fill="black" stroke="black" points="271.86,-1155.5 281.86,-1152 271.86,-1148.5 271.86,-1155.5"/>
</g>
<!-- XXGGX3 -->
<g id="node61" class="node">
<title>XXGGX3</title>
<ellipse fill="none" stroke="black" cx="314.43" cy="-1098" rx="48.19" ry="18"/>
<text text-anchor="middle" x="314.43" y="-1094.3" font-family="Times New Roman,serif" font-size="14.00">XXGGX3</text>
</g>
<!-- XOXOX2&#45;&gt;XXGGX3 -->
<g id="edge61" class="edge">
<title>XOXOX2&#45;&gt;XXGGX3</title>
<path fill="none" stroke="black" d="M214.1,-1138.79C231.46,-1131.66 253.07,-1122.79 271.71,-1115.13"/>
<polygon fill="black" stroke="black" points="273.22,-1118.3 281.14,-1111.26 270.56,-1111.82 273.22,-1118.3"/>
</g>
<!-- usher -->
<g id="node9" class="node">
<title>usher</title>
<ellipse fill="none" stroke="black" cx="447.92" cy="-1260" rx="30.59" ry="18"/>
<text text-anchor="middle" x="447.92" y="-1256.3" font-family="Times New Roman,serif" font-size="14.00">usher</text>
</g>
<!-- XXOGX3&#45;&gt;usher -->
<g id="edge8" class="edge">
<title>XXOGX3&#45;&gt;usher</title>
<path fill="none" stroke="black" d="M362.53,-1260C377.09,-1260 392.99,-1260 407.01,-1260"/>
<polygon fill="black" stroke="black" points="407.32,-1263.5 417.32,-1260 407.32,-1256.5 407.32,-1263.5"/>
</g>
<!-- XGOXX3 -->
<g id="node11" class="node">
<title>XGOXX3</title>
<ellipse fill="none" stroke="black" cx="314.43" cy="-1044" rx="48.19" ry="18"/>
<text text-anchor="middle" x="314.43" y="-1040.3" font-family="Times New Roman,serif" font-size="14.00">XGOXX3</text>
</g>
<!-- XGXOX2&#45;&gt;XGOXX3 -->
<g id="edge10" class="edge">
<title>XGXOX2&#45;&gt;XGOXX3</title>
<path fill="none" stroke="black" d="M214.1,-1003.21C231.46,-1010.34 253.07,-1019.21 271.71,-1026.87"/>
<polygon fill="black" stroke="black" points="270.56,-1030.18 281.14,-1030.74 273.22,-1023.7 270.56,-1030.18"/>
</g>
<!-- pesky -->
<g id="node49" class="node">
<title>pesky</title>
<ellipse fill="none" stroke="black" cx="314.43" cy="-990" rx="32.49" ry="18"/>
<text text-anchor="middle" x="314.43" y="-986.3" font-family="Times New Roman,serif" font-size="14.00">pesky</text>
</g>
<!-- XGXOX2&#45;&gt;pesky -->
<g id="edge49" class="edge">
<title>XGXOX2&#45;&gt;pesky</title>
<path fill="none" stroke="black" d="M229.04,-990C243.01,-990 258.21,-990 271.82,-990"/>
<polygon fill="black" stroke="black" points="271.86,-993.5 281.86,-990 271.86,-986.5 271.86,-993.5"/>
</g>
<!-- rebus -->
<g id="node12" class="node">
<title>rebus</title>
<ellipse fill="none" stroke="black" cx="447.92" cy="-1044" rx="30.59" ry="18"/>
<text text-anchor="middle" x="447.92" y="-1040.3" font-family="Times New Roman,serif" font-size="14.00">rebus</text>
</g>
<!-- XGOXX3&#45;&gt;rebus -->
<g id="edge11" class="edge">
<title>XGOXX3&#45;&gt;rebus</title>
<path fill="none" stroke="black" d="M362.53,-1044C377.09,-1044 392.99,-1044 407.01,-1044"/>
<polygon fill="black" stroke="black" points="407.32,-1047.5 417.32,-1044 407.32,-1040.5 407.32,-1047.5"/>
</g>
<!-- askew -->
<g id="node14" class="node">
<title>askew</title>
<ellipse fill="none" stroke="black" cx="447.92" cy="-1368" rx="33.29" ry="18"/>
<text text-anchor="middle" x="447.92" y="-1364.3" font-family="Times New Roman,serif" font-size="14.00">askew</text>
</g>
<!-- GGXGX3&#45;&gt;askew -->
<g id="edge13" class="edge">
<title>GGXGX3&#45;&gt;askew</title>
<path fill="none" stroke="black" d="M362.53,-1368C376.13,-1368 390.9,-1368 404.23,-1368"/>
<polygon fill="black" stroke="black" points="404.55,-1371.5 414.55,-1368 404.55,-1364.5 404.55,-1371.5"/>
</g>
<!-- OXXXO3 -->
<g id="node16" class="node">
<title>OXXXO3</title>
<ellipse fill="none" stroke="black" cx="314.43" cy="-936" rx="48.19" ry="18"/>
<text text-anchor="middle" x="314.43" y="-932.3" font-family="Times New Roman,serif" font-size="14.00">OXXXO3</text>
</g>
<!-- XGXOO2&#45;&gt;OXXXO3 -->
<g id="edge15" class="edge">
<title>XGXOO2&#45;&gt;OXXXO3</title>
<path fill="none" stroke="black" d="M205.53,-870.73C222.18,-881.71 245.1,-896.56 265.68,-909 269.55,-911.34 273.62,-913.73 277.68,-916.09"/>
<polygon fill="black" stroke="black" points="276.08,-919.2 286.5,-921.13 279.56,-913.13 276.08,-919.2"/>
</g>
<!-- GXXXX3 -->
<g id="node38" class="node">
<title>GXXXX3</title>
<ellipse fill="none" stroke="black" cx="314.43" cy="-828" rx="47.39" ry="18"/>
<text text-anchor="middle" x="314.43" y="-824.3" font-family="Times New Roman,serif" font-size="14.00">GXXXX3</text>
</g>
<!-- XGXOO2&#45;&gt;GXXXX3 -->
<g id="edge63" class="edge">
<title>XGXOO2&#45;&gt;GXXXX3</title>
<path fill="none" stroke="black" d="M223.54,-846.46C235.77,-843.95 249.3,-841.17 262.06,-838.55"/>
<polygon fill="black" stroke="black" points="263,-841.93 272.09,-836.49 261.59,-835.07 263,-841.93"/>
</g>
<!-- OOOXX3 -->
<g id="node53" class="node">
<title>OOOXX3</title>
<ellipse fill="none" stroke="black" cx="314.43" cy="-882" rx="48.19" ry="18"/>
<text text-anchor="middle" x="314.43" y="-878.3" font-family="Times New Roman,serif" font-size="14.00">OOOXX3</text>
</g>
<!-- XGXOO2&#45;&gt;OOOXX3 -->
<g id="edge53" class="edge">
<title>XGXOO2&#45;&gt;OOOXX3</title>
<path fill="none" stroke="black" d="M223.54,-863.54C235.65,-866.03 249.03,-868.78 261.69,-871.38"/>
<polygon fill="black" stroke="black" points="261.14,-874.84 271.64,-873.42 262.55,-867.98 261.14,-874.84"/>
</g>
<!-- zesty -->
<g id="node17" class="node">
<title>zesty</title>
<ellipse fill="none" stroke="black" cx="447.92" cy="-963" rx="29.5" ry="18"/>
<text text-anchor="middle" x="447.92" y="-959.3" font-family="Times New Roman,serif" font-size="14.00">zesty</text>
</g>
<!-- OXXXO3&#45;&gt;zesty -->
<g id="edge16" class="edge">
<title>OXXXO3&#45;&gt;zesty</title>
<path fill="none" stroke="black" d="M357.03,-944.54C374.11,-948.05 393.7,-952.07 410.23,-955.47"/>
<polygon fill="black" stroke="black" points="409.57,-958.9 420.07,-957.49 410.98,-952.05 409.57,-958.9"/>
</g>
<!-- fetus -->
<g id="node19" class="node">
<title>fetus</title>
<ellipse fill="none" stroke="black" cx="314.43" cy="-666" rx="28.7" ry="18"/>
<text text-anchor="middle" x="314.43" y="-662.3" font-family="Times New Roman,serif" font-size="14.00">fetus</text>
</g>
<!-- GGXOO2&#45;&gt;fetus -->
<g id="edge18" class="edge">
<title>GGXOO2&#45;&gt;fetus</title>
<path fill="none" stroke="black" d="M229.78,-666C244.76,-666 261.08,-666 275.3,-666"/>
<polygon fill="black" stroke="black" points="275.7,-669.5 285.7,-666 275.7,-662.5 275.7,-669.5"/>
</g>
<!-- asset -->
<g id="node21" class="node">
<title>asset</title>
<ellipse fill="none" stroke="black" cx="314.43" cy="-612" rx="28.7" ry="18"/>
<text text-anchor="middle" x="314.43" y="-608.3" font-family="Times New Roman,serif" font-size="14.00">asset</text>
</g>
<!-- XOOOG2&#45;&gt;asset -->
<g id="edge20" class="edge">
<title>XOOOG2&#45;&gt;asset</title>
<path fill="none" stroke="black" d="M229.78,-612C244.76,-612 261.08,-612 275.3,-612"/>
<polygon fill="black" stroke="black" points="275.7,-615.5 285.7,-612 275.7,-608.5 275.7,-615.5"/>
</g>
<!-- XOOXX3 -->
<g id="node23" class="node">
<title>XOOXX3</title>
<ellipse fill="none" stroke="black" cx="314.43" cy="-558" rx="48.19" ry="18"/>
<text text-anchor="middle" x="314.43" y="-554.3" font-family="Times New Roman,serif" font-size="14.00">XOOXX3</text>
</g>
<!-- XOXOG2&#45;&gt;XOOXX3 -->
<g id="edge22" class="edge">
<title>XOXOG2&#45;&gt;XOOXX3</title>
<path fill="none" stroke="black" d="M229.04,-558C237.82,-558 247.08,-558 256.13,-558"/>
<polygon fill="black" stroke="black" points="256.22,-561.5 266.22,-558 256.22,-554.5 256.22,-561.5"/>
</g>
<!-- GXOXO3 -->
<g id="node26" class="node">
<title>GXOXO3</title>
<ellipse fill="none" stroke="black" cx="314.43" cy="-504" rx="48.19" ry="18"/>
<text text-anchor="middle" x="314.43" y="-500.3" font-family="Times New Roman,serif" font-size="14.00">GXOXO3</text>
</g>
<!-- XOXOG2&#45;&gt;GXOXO3 -->
<g id="edge25" class="edge">
<title>XOXOG2&#45;&gt;GXOXO3</title>
<path fill="none" stroke="black" d="M214.1,-544.79C231.46,-537.66 253.07,-528.79 271.71,-521.13"/>
<polygon fill="black" stroke="black" points="273.22,-524.3 281.14,-517.26 270.56,-517.82 273.22,-524.3"/>
</g>
<!-- GXGGG4 -->
<g id="node24" class="node">
<title>GXGGG4</title>
<ellipse fill="none" stroke="black" cx="447.92" cy="-558" rx="48.99" ry="18"/>
<text text-anchor="middle" x="447.92" y="-554.3" font-family="Times New Roman,serif" font-size="14.00">GXGGG4</text>
</g>
<!-- XOOXX3&#45;&gt;GXGGG4 -->
<g id="edge23" class="edge">
<title>XOOXX3&#45;&gt;GXGGG4</title>
<path fill="none" stroke="black" d="M362.53,-558C371,-558 379.93,-558 388.67,-558"/>
<polygon fill="black" stroke="black" points="388.82,-561.5 398.82,-558 388.82,-554.5 388.82,-561.5"/>
</g>
<!-- unset -->
<g id="node28" class="node">
<title>unset</title>
<ellipse fill="none" stroke="black" cx="447.92" cy="-612" rx="29.8" ry="18"/>
<text text-anchor="middle" x="447.92" y="-608.3" font-family="Times New Roman,serif" font-size="14.00">unset</text>
</g>
<!-- XOOXX3&#45;&gt;unset -->
<g id="edge27" class="edge">
<title>XOOXX3&#45;&gt;unset</title>
<path fill="none" stroke="black" d="M347.59,-571.21C367.46,-579.37 392.91,-589.82 413.08,-598.1"/>
<polygon fill="black" stroke="black" points="411.93,-601.41 422.51,-601.97 414.58,-594.94 411.93,-601.41"/>
</g>
<!-- upset -->
<g id="node25" class="node">
<title>upset</title>
<ellipse fill="none" stroke="black" cx="563.21" cy="-558" rx="30.59" ry="18"/>
<text text-anchor="middle" x="563.21" y="-554.3" font-family="Times New Roman,serif" font-size="14.00">upset</text>
</g>
<!-- GXGGG4&#45;&gt;upset -->
<g id="edge24" class="edge">
<title>GXGGG4&#45;&gt;upset</title>
<path fill="none" stroke="black" d="M496.97,-558C505.45,-558 514.19,-558 522.41,-558"/>
<polygon fill="black" stroke="black" points="522.49,-561.5 532.49,-558 522.49,-554.5 522.49,-561.5"/>
</g>
<!-- onset -->
<g id="node27" class="node">
<title>onset</title>
<ellipse fill="none" stroke="black" cx="447.92" cy="-504" rx="30.59" ry="18"/>
<text text-anchor="middle" x="447.92" y="-500.3" font-family="Times New Roman,serif" font-size="14.00">onset</text>
</g>
<!-- GXOXO3&#45;&gt;onset -->
<g id="edge26" class="edge">
<title>GXOXO3&#45;&gt;onset</title>
<path fill="none" stroke="black" d="M362.53,-504C377.09,-504 392.99,-504 407.01,-504"/>
<polygon fill="black" stroke="black" points="407.32,-507.5 417.32,-504 407.32,-500.5 407.32,-507.5"/>
</g>
<!-- XGXOX3 -->
<g id="node30" class="node">
<title>XGXOX3</title>
<ellipse fill="none" stroke="black" cx="314.43" cy="-720" rx="48.19" ry="18"/>
<text text-anchor="middle" x="314.43" y="-716.3" font-family="Times New Roman,serif" font-size="14.00">XGXOX3</text>
</g>
<!-- XOXGG2&#45;&gt;XGXOX3 -->
<g id="edge29" class="edge">
<title>XOXGG2&#45;&gt;XGXOX3</title>
<path fill="none" stroke="black" d="M223.54,-738.46C235.65,-735.97 249.03,-733.22 261.69,-730.62"/>
<polygon fill="black" stroke="black" points="262.55,-734.02 271.64,-728.58 261.14,-727.16 262.55,-734.02"/>
</g>
<!-- XOXGG2&#45;&gt;GXXXX3 -->
<g id="edge37" class="edge">
<title>XOXGG2&#45;&gt;GXXXX3</title>
<path fill="none" stroke="black" d="M205.53,-762.73C222.18,-773.71 245.1,-788.56 265.68,-801 269.55,-803.34 273.62,-805.73 277.68,-808.09"/>
<polygon fill="black" stroke="black" points="276.08,-811.2 286.5,-813.13 279.56,-805.13 276.08,-811.2"/>
</g>
<!-- XXXXX3 -->
<g id="node55" class="node">
<title>XXXXX3</title>
<ellipse fill="none" stroke="black" cx="314.43" cy="-774" rx="46.59" ry="18"/>
<text text-anchor="middle" x="314.43" y="-770.3" font-family="Times New Roman,serif" font-size="14.00">XXXXX3</text>
</g>
<!-- XOXGG2&#45;&gt;XXXXX3 -->
<g id="edge55" class="edge">
<title>XOXGG2&#45;&gt;XXXXX3</title>
<path fill="none" stroke="black" d="M223.54,-755.54C235.89,-758.08 249.56,-760.89 262.43,-763.53"/>
<polygon fill="black" stroke="black" points="262.04,-767.02 272.54,-765.61 263.45,-760.17 262.04,-767.02"/>
</g>
<!-- wrest -->
<g id="node31" class="node">
<title>wrest</title>
<ellipse fill="none" stroke="black" cx="447.92" cy="-693" rx="30.59" ry="18"/>
<text text-anchor="middle" x="447.92" y="-689.3" font-family="Times New Roman,serif" font-size="14.00">wrest</text>
</g>
<!-- XGXOX3&#45;&gt;wrest -->
<g id="edge30" class="edge">
<title>XGXOX3&#45;&gt;wrest</title>
<path fill="none" stroke="black" d="M357.03,-711.46C373.57,-708.06 392.48,-704.18 408.68,-700.85"/>
<polygon fill="black" stroke="black" points="409.78,-704.2 418.87,-698.76 408.37,-697.34 409.78,-704.2"/>
</g>
<!-- XGGGG3 -->
<g id="node33" class="node">
<title>XGGGG3</title>
<ellipse fill="none" stroke="black" cx="314.43" cy="-234" rx="48.99" ry="18"/>
<text text-anchor="middle" x="314.43" y="-230.3" font-family="Times New Roman,serif" font-size="14.00">XGGGG3</text>
</g>
<!-- XGXOG2&#45;&gt;XGGGG3 -->
<g id="edge32" class="edge">
<title>XGXOG2&#45;&gt;XGGGG3</title>
<path fill="none" stroke="black" d="M214.1,-274.79C231.46,-267.66 253.07,-258.79 271.71,-251.13"/>
<polygon fill="black" stroke="black" points="273.22,-254.3 281.14,-247.26 270.56,-247.82 273.22,-254.3"/>
</g>
<!-- beset -->
<g id="node35" class="node">
<title>beset</title>
<ellipse fill="none" stroke="black" cx="314.43" cy="-288" rx="29.8" ry="18"/>
<text text-anchor="middle" x="314.43" y="-284.3" font-family="Times New Roman,serif" font-size="14.00">beset</text>
</g>
<!-- XGXOG2&#45;&gt;beset -->
<g id="edge34" class="edge">
<title>XGXOG2&#45;&gt;beset</title>
<path fill="none" stroke="black" d="M229.04,-288C243.72,-288 259.75,-288 273.86,-288"/>
<polygon fill="black" stroke="black" points="274.22,-291.5 284.22,-288 274.22,-284.5 274.22,-291.5"/>
</g>
<!-- reset -->
<g id="node34" class="node">
<title>reset</title>
<ellipse fill="none" stroke="black" cx="447.92" cy="-234" rx="27.9" ry="18"/>
<text text-anchor="middle" x="447.92" y="-230.3" font-family="Times New Roman,serif" font-size="14.00">reset</text>
</g>
<!-- XGGGG3&#45;&gt;reset -->
<g id="edge33" class="edge">
<title>XGGGG3&#45;&gt;reset</title>
<path fill="none" stroke="black" d="M363.27,-234C378.63,-234 395.41,-234 409.88,-234"/>
<polygon fill="black" stroke="black" points="409.95,-237.5 419.95,-234 409.95,-230.5 409.95,-237.5"/>
</g>
<!-- yeast -->
<g id="node47" class="node">
<title>yeast</title>
<ellipse fill="none" stroke="black" cx="447.92" cy="-180" rx="29.5" ry="18"/>
<text text-anchor="middle" x="447.92" y="-176.3" font-family="Times New Roman,serif" font-size="14.00">yeast</text>
</g>
<!-- XGGGG3&#45;&gt;yeast -->
<g id="edge47" class="edge">
<title>XGGGG3&#45;&gt;yeast</title>
<path fill="none" stroke="black" d="M347.59,-220.79C367.59,-212.58 393.25,-202.04 413.47,-193.74"/>
<polygon fill="black" stroke="black" points="415,-196.89 422.92,-189.86 412.34,-190.42 415,-196.89"/>
</g>
<!-- press -->
<g id="node66" class="node">
<title>press</title>
<ellipse fill="none" stroke="black" cx="447.92" cy="-288" rx="30.59" ry="18"/>
<text text-anchor="middle" x="447.92" y="-284.3" font-family="Times New Roman,serif" font-size="14.00">press</text>
</g>
<!-- XGGGG3&#45;&gt;press -->
<g id="edge68" class="edge">
<title>XGGGG3&#45;&gt;press</title>
<path fill="none" stroke="black" d="M347.59,-247.21C367.46,-255.37 392.91,-265.82 413.08,-274.1"/>
<polygon fill="black" stroke="black" points="411.93,-277.41 422.51,-277.97 414.58,-270.94 411.93,-277.41"/>
</g>
<!-- poser -->
<g id="node37" class="node">
<title>poser</title>
<ellipse fill="none" stroke="black" cx="447.92" cy="-1206" rx="31.4" ry="18"/>
<text text-anchor="middle" x="447.92" y="-1202.3" font-family="Times New Roman,serif" font-size="14.00">poser</text>
</g>
<!-- XGGGX3&#45;&gt;poser -->
<g id="edge36" class="edge">
<title>XGGGX3&#45;&gt;poser</title>
<path fill="none" stroke="black" d="M362.53,-1206C376.86,-1206 392.47,-1206 406.33,-1206"/>
<polygon fill="black" stroke="black" points="406.54,-1209.5 416.54,-1206 406.54,-1202.5 406.54,-1209.5"/>
</g>
<!-- guest -->
<g id="node39" class="node">
<title>guest</title>
<ellipse fill="none" stroke="black" cx="447.92" cy="-855" rx="29.8" ry="18"/>
<text text-anchor="middle" x="447.92" y="-851.3" font-family="Times New Roman,serif" font-size="14.00">guest</text>
</g>
<!-- GXXXX3&#45;&gt;guest -->
<g id="edge38" class="edge">
<title>GXXXX3&#45;&gt;guest</title>
<path fill="none" stroke="black" d="M356.67,-836.47C373.51,-839.93 392.86,-843.9 409.3,-847.28"/>
<polygon fill="black" stroke="black" points="408.62,-850.71 419.12,-849.29 410.03,-843.85 408.62,-850.71"/>
</g>
<!-- testy -->
<g id="node63" class="node">
<title>testy</title>
<ellipse fill="none" stroke="black" cx="447.92" cy="-801" rx="27.9" ry="18"/>
<text text-anchor="middle" x="447.92" y="-797.3" font-family="Times New Roman,serif" font-size="14.00">testy</text>
</g>
<!-- GXXXX3&#45;&gt;testy -->
<g id="edge64" class="edge">
<title>GXXXX3&#45;&gt;testy</title>
<path fill="none" stroke="black" d="M356.67,-819.53C374.14,-815.95 394.29,-811.81 411.12,-808.35"/>
<polygon fill="black" stroke="black" points="412.02,-811.74 421.11,-806.3 410.61,-804.88 412.02,-811.74"/>
</g>
<!-- ester -->
<g id="node42" class="node">
<title>ester</title>
<ellipse fill="none" stroke="black" cx="314.43" cy="-126" rx="27.9" ry="18"/>
<text text-anchor="middle" x="314.43" y="-122.3" font-family="Times New Roman,serif" font-size="14.00">ester</text>
</g>
<!-- XOXOO2&#45;&gt;ester -->
<g id="edge41" class="edge">
<title>XOXOO2&#45;&gt;ester</title>
<path fill="none" stroke="black" d="M223.54,-144.46C240.86,-140.9 260.78,-136.81 277.46,-133.39"/>
<polygon fill="black" stroke="black" points="278.28,-136.79 287.37,-131.35 276.87,-129.93 278.28,-136.79"/>
</g>
<!-- GOOOX3 -->
<g id="node50" class="node">
<title>GOOOX3</title>
<ellipse fill="none" stroke="black" cx="314.43" cy="-72" rx="48.99" ry="18"/>
<text text-anchor="middle" x="314.43" y="-68.3" font-family="Times New Roman,serif" font-size="14.00">GOOOX3</text>
</g>
<!-- XOXOO2&#45;&gt;GOOOX3 -->
<g id="edge50" class="edge">
<title>XOXOO2&#45;&gt;GOOOX3</title>
<path fill="none" stroke="black" d="M209.57,-138.17C216.25,-134.37 223.31,-130.17 229.68,-126 246.42,-115.05 248.94,-109.95 265.68,-99 269.27,-96.65 273.07,-94.3 276.9,-92.01"/>
<polygon fill="black" stroke="black" points="278.92,-94.88 285.8,-86.83 275.4,-88.84 278.92,-94.88"/>
</g>
<!-- XOXGX2&#45;&gt;XGGGG3 -->
<g id="edge67" class="edge">
<title>XOXGX2&#45;&gt;XGGGG3</title>
<path fill="none" stroke="black" d="M192.28,-378.24C212.47,-343.77 255.98,-270.31 265.68,-261 268.38,-258.41 271.38,-255.97 274.52,-253.71"/>
<polygon fill="black" stroke="black" points="276.6,-256.54 283.05,-248.14 272.77,-250.68 276.6,-256.54"/>
</g>
<!-- XXGGO3 -->
<g id="node44" class="node">
<title>XXGGO3</title>
<ellipse fill="none" stroke="black" cx="314.43" cy="-450" rx="48.19" ry="18"/>
<text text-anchor="middle" x="314.43" y="-446.3" font-family="Times New Roman,serif" font-size="14.00">XXGGO3</text>
</g>
<!-- XOXGX2&#45;&gt;XXGGO3 -->
<g id="edge43" class="edge">
<title>XOXGX2&#45;&gt;XXGGO3</title>
<path fill="none" stroke="black" d="M214.1,-409.21C231.46,-416.34 253.07,-425.21 271.71,-432.87"/>
<polygon fill="black" stroke="black" points="270.56,-436.18 281.14,-436.74 273.22,-429.7 270.56,-436.18"/>
</g>
<!-- XXGGG3 -->
<g id="node57" class="node">
<title>XXGGG3</title>
<ellipse fill="none" stroke="black" cx="314.43" cy="-396" rx="48.19" ry="18"/>
<text text-anchor="middle" x="314.43" y="-392.3" font-family="Times New Roman,serif" font-size="14.00">XXGGG3</text>
</g>
<!-- XOXGX2&#45;&gt;XXGGG3 -->
<g id="edge57" class="edge">
<title>XOXGX2&#45;&gt;XXGGG3</title>
<path fill="none" stroke="black" d="M229.04,-396C237.82,-396 247.08,-396 256.13,-396"/>
<polygon fill="black" stroke="black" points="256.22,-399.5 266.22,-396 256.22,-392.5 256.22,-399.5"/>
</g>
<!-- dress -->
<g id="node59" class="node">
<title>dress</title>
<ellipse fill="none" stroke="black" cx="314.43" cy="-342" rx="30.59" ry="18"/>
<text text-anchor="middle" x="314.43" y="-338.3" font-family="Times New Roman,serif" font-size="14.00">dress</text>
</g>
<!-- XOXGX2&#45;&gt;dress -->
<g id="edge59" class="edge">
<title>XOXGX2&#45;&gt;dress</title>
<path fill="none" stroke="black" d="M214.1,-382.79C233.97,-374.63 259.42,-364.18 279.59,-355.9"/>
<polygon fill="black" stroke="black" points="281.09,-359.06 289.01,-352.03 278.43,-352.59 281.09,-359.06"/>
</g>
<!-- poesy -->
<g id="node45" class="node">
<title>poesy</title>
<ellipse fill="none" stroke="black" cx="447.92" cy="-450" rx="32.49" ry="18"/>
<text text-anchor="middle" x="447.92" y="-446.3" font-family="Times New Roman,serif" font-size="14.00">poesy</text>
</g>
<!-- XXGGO3&#45;&gt;poesy -->
<g id="edge44" class="edge">
<title>XXGGO3&#45;&gt;poesy</title>
<path fill="none" stroke="black" d="M362.53,-450C376.5,-450 391.71,-450 405.31,-450"/>
<polygon fill="black" stroke="black" points="405.35,-453.5 415.35,-450 405.35,-446.5 405.35,-453.5"/>
</g>
<!-- XGGGG2&#45;&gt;XGGGG3 -->
<g id="edge46" class="edge">
<title>XGGGG2&#45;&gt;XGGGG3</title>
<path fill="none" stroke="black" d="M229.78,-234C238.03,-234 246.68,-234 255.17,-234"/>
<polygon fill="black" stroke="black" points="255.4,-237.5 265.4,-234 255.4,-230.5 255.4,-237.5"/>
</g>
<!-- beast -->
<g id="node52" class="node">
<title>beast</title>
<ellipse fill="none" stroke="black" cx="314.43" cy="-180" rx="29.8" ry="18"/>
<text text-anchor="middle" x="314.43" y="-176.3" font-family="Times New Roman,serif" font-size="14.00">beast</text>
</g>
<!-- XGGGG2&#45;&gt;beast -->
<g id="edge52" class="edge">
<title>XGGGG2&#45;&gt;beast</title>
<path fill="none" stroke="black" d="M214.1,-220.79C233.97,-212.63 259.42,-202.18 279.59,-193.9"/>
<polygon fill="black" stroke="black" points="281.09,-197.06 289.01,-190.03 278.43,-190.59 281.09,-197.06"/>
</g>
<!-- ethos -->
<g id="node51" class="node">
<title>ethos</title>
<ellipse fill="none" stroke="black" cx="447.92" cy="-72" rx="30.59" ry="18"/>
<text text-anchor="middle" x="447.92" y="-68.3" font-family="Times New Roman,serif" font-size="14.00">ethos</text>
</g>
<!-- GOOOX3&#45;&gt;ethos -->
<g id="edge51" class="edge">
<title>GOOOX3&#45;&gt;ethos</title>
<path fill="none" stroke="black" d="M363.27,-72C377.67,-72 393.3,-72 407.12,-72"/>
<polygon fill="black" stroke="black" points="407.27,-75.5 417.27,-72 407.27,-68.5 407.27,-75.5"/>
</g>
<!-- pesto -->
<g id="node54" class="node">
<title>pesto</title>
<ellipse fill="none" stroke="black" cx="447.92" cy="-909" rx="30.59" ry="18"/>
<text text-anchor="middle" x="447.92" y="-905.3" font-family="Times New Roman,serif" font-size="14.00">pesto</text>
</g>
<!-- OOOXX3&#45;&gt;pesto -->
<g id="edge54" class="edge">
<title>OOOXX3&#45;&gt;pesto</title>
<path fill="none" stroke="black" d="M357.03,-890.54C373.57,-893.94 392.48,-897.82 408.68,-901.15"/>
<polygon fill="black" stroke="black" points="408.37,-904.66 418.87,-903.24 409.78,-897.8 408.37,-904.66"/>
</g>
<!-- quest -->
<g id="node56" class="node">
<title>quest</title>
<ellipse fill="none" stroke="black" cx="447.92" cy="-747" rx="30.59" ry="18"/>
<text text-anchor="middle" x="447.92" y="-743.3" font-family="Times New Roman,serif" font-size="14.00">quest</text>
</g>
<!-- XXXXX3&#45;&gt;quest -->
<g id="edge56" class="edge">
<title>XXXXX3&#45;&gt;quest</title>
<path fill="none" stroke="black" d="M355.95,-765.68C372.83,-762.21 392.31,-758.21 408.91,-754.81"/>
<polygon fill="black" stroke="black" points="409.73,-758.21 418.82,-752.77 408.32,-751.35 409.73,-758.21"/>
</g>
<!-- guess -->
<g id="node58" class="node">
<title>guess</title>
<ellipse fill="none" stroke="black" cx="447.92" cy="-396" rx="31.4" ry="18"/>
<text text-anchor="middle" x="447.92" y="-392.3" font-family="Times New Roman,serif" font-size="14.00">guess</text>
</g>
<!-- XXGGG3&#45;&gt;guess -->
<g id="edge58" class="edge">
<title>XXGGG3&#45;&gt;guess</title>
<path fill="none" stroke="black" d="M362.53,-396C376.86,-396 392.47,-396 406.33,-396"/>
<polygon fill="black" stroke="black" points="406.54,-399.5 416.54,-396 406.54,-392.5 406.54,-399.5"/>
</g>
<!-- bused -->
<g id="node62" class="node">
<title>bused</title>
<ellipse fill="none" stroke="black" cx="447.92" cy="-1098" rx="32.49" ry="18"/>
<text text-anchor="middle" x="447.92" y="-1094.3" font-family="Times New Roman,serif" font-size="14.00">bused</text>
</g>
<!-- XXGGX3&#45;&gt;bused -->
<g id="edge62" class="edge">
<title>XXGGX3&#45;&gt;bused</title>
<path fill="none" stroke="black" d="M362.53,-1098C376.5,-1098 391.71,-1098 405.31,-1098"/>
<polygon fill="black" stroke="black" points="405.35,-1101.5 415.35,-1098 405.35,-1094.5 405.35,-1101.5"/>
</g>
<!-- verso -->
<g id="node65" class="node">
<title>verso</title>
<ellipse fill="none" stroke="black" cx="314.43" cy="-18" rx="30.59" ry="18"/>
<text text-anchor="middle" x="314.43" y="-14.3" font-family="Times New Roman,serif" font-size="14.00">verso</text>
</g>
<!-- XGXGX2&#45;&gt;verso -->
<g id="edge66" class="edge">
<title>XGXGX2&#45;&gt;verso</title>
<path fill="none" stroke="black" d="M227.56,-27.14C242.6,-25.54 259.2,-23.77 273.76,-22.22"/>
<polygon fill="black" stroke="black" points="274.37,-25.68 283.95,-21.14 273.63,-18.72 274.37,-25.68"/>
</g>
</g>
</svg>
