<?xml version="1.0" encoding="UTF-8" standalone="no"?>
<!DOCTYPE svg PUBLIC "-//W3C//DTD SVG 1.1//EN"
 "http://www.w3.org/Graphics/SVG/1.1/DTD/svg11.dtd">
<!-- Generated by graphviz version 2.50.0 (20211204.2007)
 -->
<!-- Pages: 1 -->
<svg width="467pt" height="422pt"
 viewBox="0.00 0.00 466.97 422.00" xmlns="http://www.w3.org/2000/svg" xmlns:xlink="http://www.w3.org/1999/xlink">
<g id="graph0" class="graph" transform="scale(1 1) rotate(0) translate(4 418)">
<polygon fill="white" stroke="transparent" points="-4,4 -4,-418 462.97,-418 462.97,4 -4,4"/>
<!-- GOXXO1 -->
<g id="node1" class="node">
<title>GOXXO1</title>
<ellipse fill="none" stroke="black" cx="48.1" cy="-126" rx="48.19" ry="18"/>
<text text-anchor="middle" x="48.1" y="-122.3" font-family="Times New Roman,serif" font-size="14.00">GOXXO1</text>
</g>
<!-- GXGGO2 -->
<g id="node2" class="node">
<title>GXGGO2</title>
<ellipse fill="none" stroke="black" cx="181.59" cy="-342" rx="48.99" ry="18"/>
<text text-anchor="middle" x="181.59" y="-338.3" font-family="Times New Roman,serif" font-size="14.00">GXGGO2</text>
</g>
<!-- GOXXO1&#45;&gt;GXGGO2 -->
<g id="edge1" class="edge">
<title>GOXXO1&#45;&gt;GXGGO2</title>
<path fill="none" stroke="black" d="M59.86,-143.68C82.98,-181.66 137.52,-271.25 164.66,-315.84"/>
<polygon fill="black" stroke="black" points="161.67,-317.66 169.86,-324.38 167.65,-314.02 161.67,-317.66"/>
</g>
<!-- GXGGG2 -->
<g id="node4" class="node">
<title>GXGGG2</title>
<ellipse fill="none" stroke="black" cx="181.59" cy="-207" rx="48.99" ry="18"/>
<text text-anchor="middle" x="181.59" y="-203.3" font-family="Times New Roman,serif" font-size="14.00">GXGGG2</text>
</g>
<!-- GOXXO1&#45;&gt;GXGGG2 -->
<g id="edge3" class="edge">
<title>GOXXO1&#45;&gt;GXGGG2</title>
<path fill="none" stroke="black" d="M73.83,-141.24C94.45,-153.94 124.04,-172.16 146.83,-186.21"/>
<polygon fill="black" stroke="black" points="145.17,-189.29 155.52,-191.56 148.84,-183.33 145.17,-189.29"/>
</g>
<!-- GXGOG2 -->
<g id="node9" class="node">
<title>GXGOG2</title>
<ellipse fill="none" stroke="black" cx="181.59" cy="-126" rx="48.99" ry="18"/>
<text text-anchor="middle" x="181.59" y="-122.3" font-family="Times New Roman,serif" font-size="14.00">GXGOG2</text>
</g>
<!-- GOXXO1&#45;&gt;GXGOG2 -->
<g id="edge8" class="edge">
<title>GOXXO1&#45;&gt;GXGOG2</title>
<path fill="none" stroke="black" d="M96.2,-126C104.67,-126 113.6,-126 122.34,-126"/>
<polygon fill="black" stroke="black" points="122.49,-129.5 132.49,-126 122.49,-122.5 122.49,-129.5"/>
</g>
<!-- shell -->
<g id="node11" class="node">
<title>shell</title>
<ellipse fill="none" stroke="black" cx="181.59" cy="-72" rx="27" ry="18"/>
<text text-anchor="middle" x="181.59" y="-68.3" font-family="Times New Roman,serif" font-size="14.00">shell</text>
</g>
<!-- GOXXO1&#45;&gt;shell -->
<g id="edge10" class="edge">
<title>GOXXO1&#45;&gt;shell</title>
<path fill="none" stroke="black" d="M81.26,-112.79C101.78,-104.36 128.26,-93.49 148.72,-85.09"/>
<polygon fill="black" stroke="black" points="150.3,-88.22 158.22,-81.18 147.64,-81.75 150.3,-88.22"/>
</g>
<!-- GGGGO2 -->
<g id="node16" class="node">
<title>GGGGO2</title>
<ellipse fill="none" stroke="black" cx="181.59" cy="-18" rx="49.29" ry="18"/>
<text text-anchor="middle" x="181.59" y="-14.3" font-family="Times New Roman,serif" font-size="14.00">GGGGO2</text>
</g>
<!-- GOXXO1&#45;&gt;GGGGO2 -->
<g id="edge15" class="edge">
<title>GOXXO1&#45;&gt;GGGGO2</title>
<path fill="none" stroke="black" d="M64.19,-108.83C80.03,-91.43 106.19,-64.39 132.19,-45 135.58,-42.48 139.22,-40.02 142.94,-37.69"/>
<polygon fill="black" stroke="black" points="144.86,-40.63 151.66,-32.5 141.27,-34.61 144.86,-40.63"/>
</g>
<!-- smelt -->
<g id="node3" class="node">
<title>smelt</title>
<ellipse fill="none" stroke="black" cx="315.73" cy="-396" rx="29.8" ry="18"/>
<text text-anchor="middle" x="315.73" y="-392.3" font-family="Times New Roman,serif" font-size="14.00">smelt</text>
</g>
<!-- GXGGO2&#45;&gt;smelt -->
<g id="edge2" class="edge">
<title>GXGGO2&#45;&gt;smelt</title>
<path fill="none" stroke="black" d="M214.91,-355.21C235.01,-363.42 260.79,-373.96 281.12,-382.26"/>
<polygon fill="black" stroke="black" points="280.03,-385.6 290.61,-386.14 282.68,-379.12 280.03,-385.6"/>
</g>
<!-- GXGGG3 -->
<g id="node7" class="node">
<title>GXGGG3</title>
<ellipse fill="none" stroke="black" cx="315.73" cy="-342" rx="48.99" ry="18"/>
<text text-anchor="middle" x="315.73" y="-338.3" font-family="Times New Roman,serif" font-size="14.00">GXGGG3</text>
</g>
<!-- GXGGO2&#45;&gt;GXGGG3 -->
<g id="edge6" class="edge">
<title>GXGGO2&#45;&gt;GXGGG3</title>
<path fill="none" stroke="black" d="M230.67,-342C239.15,-342 248.07,-342 256.79,-342"/>
<polygon fill="black" stroke="black" points="256.91,-345.5 266.91,-342 256.91,-338.5 256.91,-345.5"/>
</g>
<!-- GXXXO3 -->
<g id="node5" class="node">
<title>GXXXO3</title>
<ellipse fill="none" stroke="black" cx="315.73" cy="-288" rx="48.19" ry="18"/>
<text text-anchor="middle" x="315.73" y="-284.3" font-family="Times New Roman,serif" font-size="14.00">GXXXO3</text>
</g>
<!-- GXGGG2&#45;&gt;GXXXO3 -->
<g id="edge4" class="edge">
<title>GXGGG2&#45;&gt;GXXXO3</title>
<path fill="none" stroke="black" d="M206.38,-222.71C223.17,-233.68 246.27,-248.53 266.98,-261 270.85,-263.33 274.92,-265.72 278.99,-268.07"/>
<polygon fill="black" stroke="black" points="277.39,-271.19 287.81,-273.12 280.87,-265.11 277.39,-271.19"/>
</g>
<!-- GXXOX3 -->
<g id="node14" class="node">
<title>GXXOX3</title>
<ellipse fill="none" stroke="black" cx="315.73" cy="-234" rx="48.19" ry="18"/>
<text text-anchor="middle" x="315.73" y="-230.3" font-family="Times New Roman,serif" font-size="14.00">GXXOX3</text>
</g>
<!-- GXGGG2&#45;&gt;GXXOX3 -->
<g id="edge13" class="edge">
<title>GXGGG2&#45;&gt;GXXOX3</title>
<path fill="none" stroke="black" d="M224.76,-215.62C236.92,-218.1 250.32,-220.84 262.99,-223.43"/>
<polygon fill="black" stroke="black" points="262.46,-226.89 272.95,-225.46 263.86,-220.03 262.46,-226.89"/>
</g>
<!-- GGXXX3 -->
<g id="node18" class="node">
<title>GGXXX3</title>
<ellipse fill="none" stroke="black" cx="315.73" cy="-180" rx="48.19" ry="18"/>
<text text-anchor="middle" x="315.73" y="-176.3" font-family="Times New Roman,serif" font-size="14.00">GGXXX3</text>
</g>
<!-- GXGGG2&#45;&gt;GGXXX3 -->
<g id="edge17" class="edge">
<title>GXGGG2&#45;&gt;GGXXX3</title>
<path fill="none" stroke="black" d="M224.76,-198.38C236.92,-195.9 250.32,-193.16 262.99,-190.57"/>
<polygon fill="black" stroke="black" points="263.86,-193.97 272.95,-188.54 262.46,-187.11 263.86,-193.97"/>
</g>
<!-- spell -->
<g id="node6" class="node">
<title>spell</title>
<ellipse fill="none" stroke="black" cx="429.72" cy="-288" rx="27.1" ry="18"/>
<text text-anchor="middle" x="429.72" y="-284.3" font-family="Times New Roman,serif" font-size="14.00">spell</text>
</g>
<!-- GXXXO3&#45;&gt;spell -->
<g id="edge5" class="edge">
<title>GXXXO3&#45;&gt;spell</title>
<path fill="none" stroke="black" d="M363.9,-288C373.35,-288 383.15,-288 392.18,-288"/>
<polygon fill="black" stroke="black" points="392.35,-291.5 402.35,-288 392.35,-284.5 392.35,-291.5"/>
</g>
<!-- spelt -->
<g id="node8" class="node">
<title>spelt</title>
<ellipse fill="none" stroke="black" cx="429.72" cy="-342" rx="27.9" ry="18"/>
<text text-anchor="middle" x="429.72" y="-338.3" font-family="Times New Roman,serif" font-size="14.00">spelt</text>
</g>
<!-- GXGGG3&#45;&gt;spelt -->
<g id="edge7" class="edge">
<title>GXGGG3&#45;&gt;spelt</title>
<path fill="none" stroke="black" d="M364.55,-342C373.59,-342 382.93,-342 391.58,-342"/>
<polygon fill="black" stroke="black" points="391.74,-345.5 401.74,-342 391.74,-338.5 391.74,-345.5"/>
</g>
<!-- steal -->
<g id="node10" class="node">
<title>steal</title>
<ellipse fill="none" stroke="black" cx="315.73" cy="-126" rx="27" ry="18"/>
<text text-anchor="middle" x="315.73" y="-122.3" font-family="Times New Roman,serif" font-size="14.00">steal</text>
</g>
<!-- GXGOG2&#45;&gt;steal -->
<g id="edge9" class="edge">
<title>GXGOG2&#45;&gt;steal</title>
<path fill="none" stroke="black" d="M230.67,-126C246.34,-126 263.48,-126 278.17,-126"/>
<polygon fill="black" stroke="black" points="278.38,-129.5 288.38,-126 278.38,-122.5 278.38,-129.5"/>
</g>
<!-- GGGXG3 -->
<g id="node12" class="node">
<title>GGGXG3</title>
<ellipse fill="none" stroke="black" cx="315.73" cy="-72" rx="48.99" ry="18"/>
<text text-anchor="middle" x="315.73" y="-68.3" font-family="Times New Roman,serif" font-size="14.00">GGGXG3</text>
</g>
<!-- GXGOG2&#45;&gt;GGGXG3 -->
<g id="edge11" class="edge">
<title>GXGOG2&#45;&gt;GGGXG3</title>
<path fill="none" stroke="black" d="M214.91,-112.79C232.35,-105.66 254.07,-96.79 272.8,-89.13"/>
<polygon fill="black" stroke="black" points="274.35,-92.28 282.28,-85.26 271.7,-85.8 274.35,-92.28"/>
</g>
<!-- steel -->
<g id="node13" class="node">
<title>steel</title>
<ellipse fill="none" stroke="black" cx="429.72" cy="-72" rx="27" ry="18"/>
<text text-anchor="middle" x="429.72" y="-68.3" font-family="Times New Roman,serif" font-size="14.00">steel</text>
</g>
<!-- GGGXG3&#45;&gt;steel -->
<g id="edge12" class="edge">
<title>GGGXG3&#45;&gt;steel</title>
<path fill="none" stroke="black" d="M364.55,-72C373.95,-72 383.66,-72 392.6,-72"/>
<polygon fill="black" stroke="black" points="392.67,-75.5 402.67,-72 392.67,-68.5 392.67,-75.5"/>
</g>
<!-- smell -->
<g id="node15" class="node">
<title>smell</title>
<ellipse fill="none" stroke="black" cx="429.72" cy="-234" rx="29.5" ry="18"/>
<text text-anchor="middle" x="429.72" y="-230.3" font-family="Times New Roman,serif" font-size="14.00">smell</text>
</g>
<!-- GXXOX3&#45;&gt;smell -->
<g id="edge14" class="edge">
<title>GXXOX3&#45;&gt;smell</title>
<path fill="none" stroke="black" d="M363.9,-234C372.74,-234 381.88,-234 390.41,-234"/>
<polygon fill="black" stroke="black" points="390.45,-237.5 400.45,-234 390.45,-230.5 390.45,-237.5"/>
</g>
<!-- shelf -->
<g id="node17" class="node">
<title>shelf</title>
<ellipse fill="none" stroke="black" cx="315.73" cy="-18" rx="27.9" ry="18"/>
<text text-anchor="middle" x="315.73" y="-14.3" font-family="Times New Roman,serif" font-size="14.00">shelf</text>
</g>
<!-- GGGGO2&#45;&gt;shelf -->
<g id="edge16" class="edge">
<title>GGGGO2&#45;&gt;shelf</title>
<path fill="none" stroke="black" d="M231.04,-18C246.33,-18 262.98,-18 277.38,-18"/>
<polygon fill="black" stroke="black" points="277.41,-21.5 287.41,-18 277.41,-14.5 277.41,-21.5"/>
</g>
<!-- swell -->
<g id="node19" class="node">
<title>swell</title>
<ellipse fill="none" stroke="black" cx="429.72" cy="-180" rx="28.7" ry="18"/>
<text text-anchor="middle" x="429.72" y="-176.3" font-family="Times New Roman,serif" font-size="14.00">swell</text>
</g>
<!-- GGXXX3&#45;&gt;swell -->
<g id="edge18" class="edge">
<title>GGXXX3&#45;&gt;swell</title>
<path fill="none" stroke="black" d="M363.9,-180C372.91,-180 382.23,-180 390.9,-180"/>
<polygon fill="black" stroke="black" points="391.09,-183.5 401.09,-180 391.09,-176.5 391.09,-183.5"/>
</g>
</g>
</svg>
