<?xml version="1.0" encoding="UTF-8" standalone="no"?>
<!DOCTYPE svg PUBLIC "-//W3C//DTD SVG 1.1//EN"
 "http://www.w3.org/Graphics/SVG/1.1/DTD/svg11.dtd">
<!-- Generated by graphviz version 2.50.0 (20211204.2007)
 -->
<!-- Pages: 1 -->
<svg width="461pt" height="314pt"
 viewBox="0.00 0.00 461.17 314.00" xmlns="http://www.w3.org/2000/svg" xmlns:xlink="http://www.w3.org/1999/xlink">
<g id="graph0" class="graph" transform="scale(1 1) rotate(0) translate(4 310)">
<polygon fill="white" stroke="transparent" points="-4,4 -4,-310 457.17,-310 457.17,4 -4,4"/>
<!-- XOOOX1 -->
<g id="node1" class="node">
<title>XOOOX1</title>
<ellipse fill="none" stroke="black" cx="48.1" cy="-180" rx="48.19" ry="18"/>
<text text-anchor="middle" x="48.1" y="-176.3" font-family="Times New Roman,serif" font-size="14.00">XOOOX1</text>
</g>
<!-- lilac -->
<g id="node2" class="node">
<title>lilac</title>
<ellipse fill="none" stroke="black" cx="181.59" cy="-288" rx="27" ry="18"/>
<text text-anchor="middle" x="181.59" y="-284.3" font-family="Times New Roman,serif" font-size="14.00">lilac</text>
</g>
<!-- XOOOX1&#45;&gt;lilac -->
<g id="edge1" class="edge">
<title>XOOOX1&#45;&gt;lilac</title>
<path fill="none" stroke="black" d="M64.19,-197.17C80.03,-214.57 106.19,-241.61 132.19,-261 137.79,-265.17 144.1,-269.15 150.27,-272.71"/>
<polygon fill="black" stroke="black" points="148.67,-275.82 159.12,-277.59 152.05,-269.69 148.67,-275.82"/>
</g>
<!-- OGOXO2 -->
<g id="node3" class="node">
<title>OGOXO2</title>
<ellipse fill="none" stroke="black" cx="181.59" cy="-234" rx="48.99" ry="18"/>
<text text-anchor="middle" x="181.59" y="-230.3" font-family="Times New Roman,serif" font-size="14.00">OGOXO2</text>
</g>
<!-- XOOOX1&#45;&gt;OGOXO2 -->
<g id="edge2" class="edge">
<title>XOOOX1&#45;&gt;OGOXO2</title>
<path fill="none" stroke="black" d="M81.26,-193.21C98.61,-200.34 120.23,-209.21 138.86,-216.87"/>
<polygon fill="black" stroke="black" points="137.72,-220.18 148.3,-220.74 140.38,-213.7 137.72,-220.18"/>
</g>
<!-- OOOOO2 -->
<g id="node5" class="node">
<title>OOOOO2</title>
<ellipse fill="none" stroke="black" cx="181.59" cy="-180" rx="49.29" ry="18"/>
<text text-anchor="middle" x="181.59" y="-176.3" font-family="Times New Roman,serif" font-size="14.00">OOOOO2</text>
</g>
<!-- XOOOX1&#45;&gt;OOOOO2 -->
<g id="edge4" class="edge">
<title>XOOOX1&#45;&gt;OOOOO2</title>
<path fill="none" stroke="black" d="M96.2,-180C104.56,-180 113.37,-180 122.01,-180"/>
<polygon fill="black" stroke="black" points="122.04,-183.5 132.04,-180 122.04,-176.5 122.04,-183.5"/>
</g>
<!-- GOOXG2 -->
<g id="node7" class="node">
<title>GOOXG2</title>
<ellipse fill="none" stroke="black" cx="181.59" cy="-126" rx="48.99" ry="18"/>
<text text-anchor="middle" x="181.59" y="-122.3" font-family="Times New Roman,serif" font-size="14.00">GOOXG2</text>
</g>
<!-- XOOOX1&#45;&gt;GOOXG2 -->
<g id="edge6" class="edge">
<title>XOOOX1&#45;&gt;GOOXG2</title>
<path fill="none" stroke="black" d="M81.26,-166.79C98.61,-159.66 120.23,-150.79 138.86,-143.13"/>
<polygon fill="black" stroke="black" points="140.38,-146.3 148.3,-139.26 137.72,-139.82 140.38,-146.3"/>
</g>
<!-- GOOXO2 -->
<g id="node11" class="node">
<title>GOOXO2</title>
<ellipse fill="none" stroke="black" cx="181.59" cy="-45" rx="48.99" ry="18"/>
<text text-anchor="middle" x="181.59" y="-41.3" font-family="Times New Roman,serif" font-size="14.00">GOOXO2</text>
</g>
<!-- XOOOX1&#45;&gt;GOOXO2 -->
<g id="edge10" class="edge">
<title>XOOOX1&#45;&gt;GOOXO2</title>
<path fill="none" stroke="black" d="M65.48,-163.18C88.52,-139.53 130.59,-96.33 156.99,-69.23"/>
<polygon fill="black" stroke="black" points="159.52,-71.64 163.99,-62.04 154.51,-66.76 159.52,-71.64"/>
</g>
<!-- civil -->
<g id="node4" class="node">
<title>civil</title>
<ellipse fill="none" stroke="black" cx="315.08" cy="-234" rx="27" ry="18"/>
<text text-anchor="middle" x="315.08" y="-230.3" font-family="Times New Roman,serif" font-size="14.00">civil</text>
</g>
<!-- OGOXO2&#45;&gt;civil -->
<g id="edge3" class="edge">
<title>OGOXO2&#45;&gt;civil</title>
<path fill="none" stroke="black" d="M230.43,-234C246.03,-234 263.08,-234 277.7,-234"/>
<polygon fill="black" stroke="black" points="277.86,-237.5 287.86,-234 277.86,-230.5 277.86,-237.5"/>
</g>
<!-- cavil -->
<g id="node6" class="node">
<title>cavil</title>
<ellipse fill="none" stroke="black" cx="315.08" cy="-180" rx="27.1" ry="18"/>
<text text-anchor="middle" x="315.08" y="-176.3" font-family="Times New Roman,serif" font-size="14.00">cavil</text>
</g>
<!-- OOOOO2&#45;&gt;cavil -->
<g id="edge5" class="edge">
<title>OOOOO2&#45;&gt;cavil</title>
<path fill="none" stroke="black" d="M231.18,-180C246.33,-180 262.8,-180 277.03,-180"/>
<polygon fill="black" stroke="black" points="277.42,-183.5 287.42,-180 277.42,-176.5 277.42,-183.5"/>
</g>
<!-- logic -->
<g id="node8" class="node">
<title>logic</title>
<ellipse fill="none" stroke="black" cx="315.08" cy="-126" rx="28.7" ry="18"/>
<text text-anchor="middle" x="315.08" y="-122.3" font-family="Times New Roman,serif" font-size="14.00">logic</text>
</g>
<!-- GOOXG2&#45;&gt;logic -->
<g id="edge7" class="edge">
<title>GOOXG2&#45;&gt;logic</title>
<path fill="none" stroke="black" d="M230.43,-126C245.41,-126 261.73,-126 275.95,-126"/>
<polygon fill="black" stroke="black" points="276.35,-129.5 286.35,-126 276.35,-122.5 276.35,-129.5"/>
</g>
<!-- GXXGG3 -->
<g id="node9" class="node">
<title>GXXGG3</title>
<ellipse fill="none" stroke="black" cx="315.08" cy="-72" rx="48.19" ry="18"/>
<text text-anchor="middle" x="315.08" y="-68.3" font-family="Times New Roman,serif" font-size="14.00">GXXGG3</text>
</g>
<!-- GOOXG2&#45;&gt;GXXGG3 -->
<g id="edge8" class="edge">
<title>GOOXG2&#45;&gt;GXXGG3</title>
<path fill="none" stroke="black" d="M214.75,-112.79C232.11,-105.66 253.72,-96.79 272.36,-89.13"/>
<polygon fill="black" stroke="black" points="273.87,-92.3 281.79,-85.26 271.21,-85.82 273.87,-92.3"/>
</g>
<!-- lyric -->
<g id="node10" class="node">
<title>lyric</title>
<ellipse fill="none" stroke="black" cx="426.17" cy="-72" rx="27" ry="18"/>
<text text-anchor="middle" x="426.17" y="-68.3" font-family="Times New Roman,serif" font-size="14.00">lyric</text>
</g>
<!-- GXXGG3&#45;&gt;lyric -->
<g id="edge9" class="edge">
<title>GXXGG3&#45;&gt;lyric</title>
<path fill="none" stroke="black" d="M363.29,-72C371.78,-72 380.51,-72 388.64,-72"/>
<polygon fill="black" stroke="black" points="388.91,-75.5 398.91,-72 388.91,-68.5 388.91,-75.5"/>
</g>
<!-- lucid -->
<g id="node12" class="node">
<title>lucid</title>
<ellipse fill="none" stroke="black" cx="315.08" cy="-18" rx="28.7" ry="18"/>
<text text-anchor="middle" x="315.08" y="-14.3" font-family="Times New Roman,serif" font-size="14.00">lucid</text>
</g>
<!-- GOOXO2&#45;&gt;lucid -->
<g id="edge11" class="edge">
<title>GOOXO2&#45;&gt;lucid</title>
<path fill="none" stroke="black" d="M224.55,-36.38C241.73,-32.86 261.41,-28.81 277.94,-25.42"/>
<polygon fill="black" stroke="black" points="278.68,-28.84 287.77,-23.4 277.27,-21.98 278.68,-28.84"/>
</g>
</g>
</svg>
