<?xml version="1.0" encoding="UTF-8" standalone="no"?>
<!DOCTYPE svg PUBLIC "-//W3C//DTD SVG 1.1//EN"
 "http://www.w3.org/Graphics/SVG/1.1/DTD/svg11.dtd">
<!-- Generated by graphviz version 2.50.0 (20211204.2007)
 -->
<!-- Pages: 1 -->
<svg width="337pt" height="368pt"
 viewBox="0.00 0.00 337.38 368.00" xmlns="http://www.w3.org/2000/svg" xmlns:xlink="http://www.w3.org/1999/xlink">
<g id="graph0" class="graph" transform="scale(1 1) rotate(0) translate(4 364)">
<polygon fill="white" stroke="transparent" points="-4,4 -4,-364 333.38,-364 333.38,4 -4,4"/>
<!-- XOXOO1 -->
<g id="node1" class="node">
<title>XOXOO1</title>
<ellipse fill="none" stroke="black" cx="48.1" cy="-180" rx="48.19" ry="18"/>
<text text-anchor="middle" x="48.1" y="-176.3" font-family="Times New Roman,serif" font-size="14.00">XOXOO1</text>
</g>
<!-- XOOGO2 -->
<g id="node2" class="node">
<title>XOOGO2</title>
<ellipse fill="none" stroke="black" cx="180.94" cy="-342" rx="48.99" ry="18"/>
<text text-anchor="middle" x="180.94" y="-338.3" font-family="Times New Roman,serif" font-size="14.00">XOOGO2</text>
</g>
<!-- XOXOO1&#45;&gt;XOOGO2 -->
<g id="edge1" class="edge">
<title>XOXOO1&#45;&gt;XOOGO2</title>
<path fill="none" stroke="black" d="M56.67,-198.15C69.05,-226.08 95.92,-280.05 132.19,-315 134.89,-317.6 137.88,-320.03 141.02,-322.3"/>
<polygon fill="black" stroke="black" points="139.26,-325.33 149.55,-327.88 143.1,-319.47 139.26,-325.33"/>
</g>
<!-- XOGXG2 -->
<g id="node4" class="node">
<title>XOGXG2</title>
<ellipse fill="none" stroke="black" cx="180.94" cy="-288" rx="48.19" ry="18"/>
<text text-anchor="middle" x="180.94" y="-284.3" font-family="Times New Roman,serif" font-size="14.00">XOGXG2</text>
</g>
<!-- XOXOO1&#45;&gt;XOGXG2 -->
<g id="edge3" class="edge">
<title>XOXOO1&#45;&gt;XOGXG2</title>
<path fill="none" stroke="black" d="M64.21,-197.14C80.07,-214.52 106.25,-241.53 132.19,-261 135.58,-263.54 139.22,-266.01 142.94,-268.36"/>
<polygon fill="black" stroke="black" points="141.28,-271.45 151.66,-273.6 144.89,-265.45 141.28,-271.45"/>
</g>
<!-- XGGGG2 -->
<g id="node6" class="node">
<title>XGGGG2</title>
<ellipse fill="none" stroke="black" cx="180.94" cy="-234" rx="48.99" ry="18"/>
<text text-anchor="middle" x="180.94" y="-230.3" font-family="Times New Roman,serif" font-size="14.00">XGGGG2</text>
</g>
<!-- XOXOO1&#45;&gt;XGGGG2 -->
<g id="edge5" class="edge">
<title>XOXOO1&#45;&gt;XGGGG2</title>
<path fill="none" stroke="black" d="M81.1,-193.21C98.37,-200.34 119.88,-209.21 138.42,-216.87"/>
<polygon fill="black" stroke="black" points="137.23,-220.16 147.81,-220.74 139.9,-213.69 137.23,-220.16"/>
</g>
<!-- decal -->
<g id="node8" class="node">
<title>decal</title>
<ellipse fill="none" stroke="black" cx="180.94" cy="-180" rx="29.8" ry="18"/>
<text text-anchor="middle" x="180.94" y="-176.3" font-family="Times New Roman,serif" font-size="14.00">decal</text>
</g>
<!-- XOXOO1&#45;&gt;decal -->
<g id="edge7" class="edge">
<title>XOXOO1&#45;&gt;decal</title>
<path fill="none" stroke="black" d="M96.33,-180C110.8,-180 126.55,-180 140.45,-180"/>
<polygon fill="black" stroke="black" points="140.66,-183.5 150.66,-180 140.66,-176.5 140.66,-183.5"/>
</g>
<!-- XOOXG2 -->
<g id="node9" class="node">
<title>XOOXG2</title>
<ellipse fill="none" stroke="black" cx="180.94" cy="-126" rx="48.19" ry="18"/>
<text text-anchor="middle" x="180.94" y="-122.3" font-family="Times New Roman,serif" font-size="14.00">XOOXG2</text>
</g>
<!-- XOXOO1&#45;&gt;XOOXG2 -->
<g id="edge8" class="edge">
<title>XOXOO1&#45;&gt;XOOXG2</title>
<path fill="none" stroke="black" d="M81.1,-166.79C98.37,-159.66 119.88,-150.79 138.42,-143.13"/>
<polygon fill="black" stroke="black" points="139.9,-146.31 147.81,-139.26 137.23,-139.84 139.9,-146.31"/>
</g>
<!-- XOOOG2 -->
<g id="node11" class="node">
<title>XOOOG2</title>
<ellipse fill="none" stroke="black" cx="180.94" cy="-72" rx="48.99" ry="18"/>
<text text-anchor="middle" x="180.94" y="-68.3" font-family="Times New Roman,serif" font-size="14.00">XOOOG2</text>
</g>
<!-- XOXOO1&#45;&gt;XOOOG2 -->
<g id="edge10" class="edge">
<title>XOXOO1&#45;&gt;XOOOG2</title>
<path fill="none" stroke="black" d="M64.21,-162.86C80.07,-145.48 106.25,-118.47 132.19,-99 135.58,-96.46 139.22,-93.99 142.94,-91.64"/>
<polygon fill="black" stroke="black" points="144.89,-94.55 151.66,-86.4 141.28,-88.55 144.89,-94.55"/>
</g>
<!-- XGOXO2 -->
<g id="node13" class="node">
<title>XGOXO2</title>
<ellipse fill="none" stroke="black" cx="180.94" cy="-18" rx="48.19" ry="18"/>
<text text-anchor="middle" x="180.94" y="-14.3" font-family="Times New Roman,serif" font-size="14.00">XGOXO2</text>
</g>
<!-- XOXOO1&#45;&gt;XGOXO2 -->
<g id="edge12" class="edge">
<title>XOXOO1&#45;&gt;XGOXO2</title>
<path fill="none" stroke="black" d="M56.67,-161.85C69.05,-133.92 95.92,-79.95 132.19,-45 135.04,-42.25 138.22,-39.69 141.56,-37.32"/>
<polygon fill="black" stroke="black" points="143.55,-40.2 150.05,-31.83 139.75,-34.32 143.55,-40.2"/>
</g>
<!-- eclat -->
<g id="node3" class="node">
<title>eclat</title>
<ellipse fill="none" stroke="black" cx="297.53" cy="-342" rx="27.1" ry="18"/>
<text text-anchor="middle" x="297.53" y="-338.3" font-family="Times New Roman,serif" font-size="14.00">eclat</text>
</g>
<!-- XOOGO2&#45;&gt;eclat -->
<g id="edge2" class="edge">
<title>XOOGO2&#45;&gt;eclat</title>
<path fill="none" stroke="black" d="M229.87,-342C239.85,-342 250.22,-342 259.73,-342"/>
<polygon fill="black" stroke="black" points="260.02,-345.5 270.02,-342 260.02,-338.5 260.02,-345.5"/>
</g>
<!-- excel -->
<g id="node5" class="node">
<title>excel</title>
<ellipse fill="none" stroke="black" cx="297.53" cy="-288" rx="29.5" ry="18"/>
<text text-anchor="middle" x="297.53" y="-284.3" font-family="Times New Roman,serif" font-size="14.00">excel</text>
</g>
<!-- XOGXG2&#45;&gt;excel -->
<g id="edge4" class="edge">
<title>XOGXG2&#45;&gt;excel</title>
<path fill="none" stroke="black" d="M229.21,-288C238.79,-288 248.77,-288 258.01,-288"/>
<polygon fill="black" stroke="black" points="258.07,-291.5 268.07,-288 258.07,-284.5 258.07,-291.5"/>
</g>
<!-- fecal -->
<g id="node7" class="node">
<title>fecal</title>
<ellipse fill="none" stroke="black" cx="297.53" cy="-234" rx="27.9" ry="18"/>
<text text-anchor="middle" x="297.53" y="-230.3" font-family="Times New Roman,serif" font-size="14.00">fecal</text>
</g>
<!-- XGGGG2&#45;&gt;fecal -->
<g id="edge6" class="edge">
<title>XGGGG2&#45;&gt;fecal</title>
<path fill="none" stroke="black" d="M229.87,-234C239.67,-234 249.85,-234 259.22,-234"/>
<polygon fill="black" stroke="black" points="259.38,-237.5 269.38,-234 259.38,-230.5 259.38,-237.5"/>
</g>
<!-- cruel -->
<g id="node10" class="node">
<title>cruel</title>
<ellipse fill="none" stroke="black" cx="297.53" cy="-126" rx="28.7" ry="18"/>
<text text-anchor="middle" x="297.53" y="-122.3" font-family="Times New Roman,serif" font-size="14.00">cruel</text>
</g>
<!-- XOOXG2&#45;&gt;cruel -->
<g id="edge9" class="edge">
<title>XOOXG2&#45;&gt;cruel</title>
<path fill="none" stroke="black" d="M229.21,-126C238.97,-126 249.14,-126 258.52,-126"/>
<polygon fill="black" stroke="black" points="258.72,-129.5 268.72,-126 258.72,-122.5 258.72,-129.5"/>
</g>
<!-- camel -->
<g id="node12" class="node">
<title>camel</title>
<ellipse fill="none" stroke="black" cx="297.53" cy="-72" rx="31.7" ry="18"/>
<text text-anchor="middle" x="297.53" y="-68.3" font-family="Times New Roman,serif" font-size="14.00">camel</text>
</g>
<!-- XOOOG2&#45;&gt;camel -->
<g id="edge11" class="edge">
<title>XOOOG2&#45;&gt;camel</title>
<path fill="none" stroke="black" d="M229.87,-72C238.32,-72 247.05,-72 255.3,-72"/>
<polygon fill="black" stroke="black" points="255.43,-75.5 265.43,-72 255.43,-68.5 255.43,-75.5"/>
</g>
<!-- cello -->
<g id="node14" class="node">
<title>cello</title>
<ellipse fill="none" stroke="black" cx="297.53" cy="-18" rx="27.9" ry="18"/>
<text text-anchor="middle" x="297.53" y="-14.3" font-family="Times New Roman,serif" font-size="14.00">cello</text>
</g>
<!-- XGOXO2&#45;&gt;cello -->
<g id="edge13" class="edge">
<title>XGOXO2&#45;&gt;cello</title>
<path fill="none" stroke="black" d="M229.21,-18C239.26,-18 249.74,-18 259.35,-18"/>
<polygon fill="black" stroke="black" points="259.38,-21.5 269.38,-18 259.38,-14.5 259.38,-21.5"/>
</g>
</g>
</svg>
