<?xml version="1.0" encoding="UTF-8" standalone="no"?>
<!DOCTYPE svg PUBLIC "-//W3C//DTD SVG 1.1//EN"
 "http://www.w3.org/Graphics/SVG/1.1/DTD/svg11.dtd">
<!-- Generated by graphviz version 2.50.0 (20211204.2007)
 -->
<!-- Pages: 1 -->
<svg width="473pt" height="530pt"
 viewBox="0.00 0.00 473.47 530.00" xmlns="http://www.w3.org/2000/svg" xmlns:xlink="http://www.w3.org/1999/xlink">
<g id="graph0" class="graph" transform="scale(1 1) rotate(0) translate(4 526)">
<polygon fill="white" stroke="transparent" points="-4,4 -4,-526 469.47,-526 469.47,4 -4,4"/>
<!-- GXXGX1 -->
<g id="node1" class="node">
<title>GXXGX1</title>
<ellipse fill="none" stroke="black" cx="48.1" cy="-234" rx="48.19" ry="18"/>
<text text-anchor="middle" x="48.1" y="-230.3" font-family="Times New Roman,serif" font-size="14.00">GXXGX1</text>
</g>
<!-- GXXGX2 -->
<g id="node2" class="node">
<title>GXXGX2</title>
<ellipse fill="none" stroke="black" cx="180.29" cy="-322" rx="48.19" ry="18"/>
<text text-anchor="middle" x="180.29" y="-318.3" font-family="Times New Roman,serif" font-size="14.00">GXXGX2</text>
</g>
<!-- GXXGX1&#45;&gt;GXXGX2 -->
<g id="edge1" class="edge">
<title>GXXGX1&#45;&gt;GXXGX2</title>
<path fill="none" stroke="black" d="M72.37,-249.73C93.38,-263.94 124.48,-284.95 147.73,-300.67"/>
<polygon fill="black" stroke="black" points="145.97,-303.7 156.21,-306.4 149.89,-297.9 145.97,-303.7"/>
</g>
<!-- GXGGX2 -->
<g id="node5" class="node">
<title>GXGGX2</title>
<ellipse fill="none" stroke="black" cx="180.29" cy="-261" rx="48.19" ry="18"/>
<text text-anchor="middle" x="180.29" y="-257.3" font-family="Times New Roman,serif" font-size="14.00">GXGGX2</text>
</g>
<!-- GXXGX1&#45;&gt;GXGGX2 -->
<g id="edge4" class="edge">
<title>GXXGX1&#45;&gt;GXGGX2</title>
<path fill="none" stroke="black" d="M90.65,-242.62C102.39,-245.05 115.32,-247.73 127.58,-250.28"/>
<polygon fill="black" stroke="black" points="127.18,-253.77 137.68,-252.37 128.6,-246.91 127.18,-253.77"/>
</g>
<!-- GOXGX2 -->
<g id="node8" class="node">
<title>GOXGX2</title>
<ellipse fill="none" stroke="black" cx="180.29" cy="-207" rx="48.19" ry="18"/>
<text text-anchor="middle" x="180.29" y="-203.3" font-family="Times New Roman,serif" font-size="14.00">GOXGX2</text>
</g>
<!-- GXXGX1&#45;&gt;GOXGX2 -->
<g id="edge7" class="edge">
<title>GXXGX1&#45;&gt;GOXGX2</title>
<path fill="none" stroke="black" d="M90.65,-225.38C102.39,-222.95 115.32,-220.27 127.58,-217.72"/>
<polygon fill="black" stroke="black" points="128.6,-221.09 137.68,-215.63 127.18,-214.23 128.6,-221.09"/>
</g>
<!-- saucy -->
<g id="node17" class="node">
<title>saucy</title>
<ellipse fill="none" stroke="black" cx="180.29" cy="-153" rx="31.7" ry="18"/>
<text text-anchor="middle" x="180.29" y="-149.3" font-family="Times New Roman,serif" font-size="14.00">saucy</text>
</g>
<!-- GXXGX1&#45;&gt;saucy -->
<g id="edge20" class="edge">
<title>GXXGX1&#45;&gt;saucy</title>
<path fill="none" stroke="black" d="M72.51,-218.28C89.04,-207.32 111.78,-192.47 132.19,-180 137.34,-176.85 142.87,-173.59 148.25,-170.47"/>
<polygon fill="black" stroke="black" points="150.17,-173.4 157.1,-165.39 146.68,-167.33 150.17,-173.4"/>
</g>
<!-- XGXXX3 -->
<g id="node3" class="node">
<title>XGXXX3</title>
<ellipse fill="none" stroke="black" cx="311.83" cy="-416" rx="47.39" ry="18"/>
<text text-anchor="middle" x="311.83" y="-412.3" font-family="Times New Roman,serif" font-size="14.00">XGXXX3</text>
</g>
<!-- GXXGX2&#45;&gt;XGXXX3 -->
<g id="edge2" class="edge">
<title>GXXGX2&#45;&gt;XGXXX3</title>
<path fill="none" stroke="black" d="M203.26,-337.95C224.48,-353.34 256.78,-376.78 280.45,-393.96"/>
<polygon fill="black" stroke="black" points="278.6,-396.94 288.75,-399.98 282.71,-391.27 278.6,-396.94"/>
</g>
<!-- OXXXX3 -->
<g id="node6" class="node">
<title>OXXXX3</title>
<ellipse fill="none" stroke="black" cx="311.83" cy="-261" rx="47.39" ry="18"/>
<text text-anchor="middle" x="311.83" y="-257.3" font-family="Times New Roman,serif" font-size="14.00">OXXXX3</text>
</g>
<!-- GXXGX2&#45;&gt;OXXXX3 -->
<g id="edge16" class="edge">
<title>GXXGX2&#45;&gt;OXXXX3</title>
<path fill="none" stroke="black" d="M211.01,-308.01C229.11,-299.48 252.44,-288.5 271.99,-279.29"/>
<polygon fill="black" stroke="black" points="273.69,-282.36 281.25,-274.93 270.71,-276.02 273.69,-282.36"/>
</g>
<!-- XXXOX3 -->
<g id="node9" class="node">
<title>XXXOX3</title>
<ellipse fill="none" stroke="black" cx="311.83" cy="-328" rx="47.39" ry="18"/>
<text text-anchor="middle" x="311.83" y="-324.3" font-family="Times New Roman,serif" font-size="14.00">XXXOX3</text>
</g>
<!-- GXXGX2&#45;&gt;XXXOX3 -->
<g id="edge18" class="edge">
<title>GXXGX2&#45;&gt;XXXOX3</title>
<path fill="none" stroke="black" d="M228.05,-324.17C236.6,-324.56 245.59,-324.98 254.38,-325.39"/>
<polygon fill="black" stroke="black" points="254.41,-328.89 264.56,-325.86 254.74,-321.9 254.41,-328.89"/>
</g>
<!-- shock -->
<g id="node4" class="node">
<title>shock</title>
<ellipse fill="none" stroke="black" cx="430.37" cy="-504" rx="32.49" ry="18"/>
<text text-anchor="middle" x="430.37" y="-500.3" font-family="Times New Roman,serif" font-size="14.00">shock</text>
</g>
<!-- XGXXX3&#45;&gt;shock -->
<g id="edge3" class="edge">
<title>XGXXX3&#45;&gt;shock</title>
<path fill="none" stroke="black" d="M333.93,-431.94C353.07,-446.39 381.4,-467.77 402.22,-483.5"/>
<polygon fill="black" stroke="black" points="400.26,-486.41 410.35,-489.64 404.48,-480.82 400.26,-486.41"/>
</g>
<!-- shuck -->
<g id="node14" class="node">
<title>shuck</title>
<ellipse fill="none" stroke="black" cx="430.37" cy="-450" rx="32.49" ry="18"/>
<text text-anchor="middle" x="430.37" y="-446.3" font-family="Times New Roman,serif" font-size="14.00">shuck</text>
</g>
<!-- XGXXX3&#45;&gt;shuck -->
<g id="edge15" class="edge">
<title>XGXXX3&#45;&gt;shuck</title>
<path fill="none" stroke="black" d="M350.02,-426.85C363.29,-430.72 378.25,-435.09 391.57,-438.97"/>
<polygon fill="black" stroke="black" points="390.81,-442.39 401.39,-441.84 392.77,-435.67 390.81,-442.39"/>
</g>
<!-- GXGGX2&#45;&gt;XGXXX3 -->
<g id="edge14" class="edge">
<title>GXGGX2&#45;&gt;XGXXX3</title>
<path fill="none" stroke="black" d="M206.29,-276.23C213.92,-281.58 221.97,-288.02 228.38,-295 249.42,-317.9 246.94,-329.26 264.38,-355 272.51,-367 282.13,-379.83 290.5,-390.61"/>
<polygon fill="black" stroke="black" points="287.97,-393.05 296.89,-398.76 293.47,-388.73 287.97,-393.05"/>
</g>
<!-- GXGGX2&#45;&gt;OXXXX3 -->
<g id="edge5" class="edge">
<title>GXGGX2&#45;&gt;OXXXX3</title>
<path fill="none" stroke="black" d="M228.42,-261C236.84,-261 245.7,-261 254.35,-261"/>
<polygon fill="black" stroke="black" points="254.38,-264.5 264.38,-261 254.38,-257.5 254.38,-264.5"/>
</g>
<!-- XXXXO3 -->
<g id="node11" class="node">
<title>XXXXO3</title>
<ellipse fill="none" stroke="black" cx="311.83" cy="-166" rx="47.39" ry="18"/>
<text text-anchor="middle" x="311.83" y="-162.3" font-family="Times New Roman,serif" font-size="14.00">XXXXO3</text>
</g>
<!-- GXGGX2&#45;&gt;XXXXO3 -->
<g id="edge10" class="edge">
<title>GXGGX2&#45;&gt;XXXXO3</title>
<path fill="none" stroke="black" d="M208.67,-246.34C215.26,-242.53 222.18,-238.29 228.38,-234 248.13,-220.34 268.99,-203.11 284.78,-189.41"/>
<polygon fill="black" stroke="black" points="287.33,-191.83 292.55,-182.61 282.72,-186.56 287.33,-191.83"/>
</g>
<!-- stuck -->
<g id="node7" class="node">
<title>stuck</title>
<ellipse fill="none" stroke="black" cx="430.37" cy="-180" rx="30.59" ry="18"/>
<text text-anchor="middle" x="430.37" y="-176.3" font-family="Times New Roman,serif" font-size="14.00">stuck</text>
</g>
<!-- OXXXX3&#45;&gt;stuck -->
<g id="edge6" class="edge">
<title>OXXXX3&#45;&gt;stuck</title>
<path fill="none" stroke="black" d="M335.58,-245.19C354.39,-232.12 381.19,-213.49 401.32,-199.49"/>
<polygon fill="black" stroke="black" points="403.57,-202.2 409.78,-193.62 399.57,-196.45 403.57,-202.2"/>
</g>
<!-- smack -->
<g id="node13" class="node">
<title>smack</title>
<ellipse fill="none" stroke="black" cx="430.37" cy="-288" rx="34.39" ry="18"/>
<text text-anchor="middle" x="430.37" y="-284.3" font-family="Times New Roman,serif" font-size="14.00">smack</text>
</g>
<!-- OXXXX3&#45;&gt;smack -->
<g id="edge13" class="edge">
<title>OXXXX3&#45;&gt;smack</title>
<path fill="none" stroke="black" d="M352.61,-270.22C364.24,-272.91 376.96,-275.86 388.65,-278.57"/>
<polygon fill="black" stroke="black" points="388.06,-282.02 398.6,-280.87 389.64,-275.2 388.06,-282.02"/>
</g>
<!-- stock -->
<g id="node15" class="node">
<title>stock</title>
<ellipse fill="none" stroke="black" cx="430.37" cy="-234" rx="30.59" ry="18"/>
<text text-anchor="middle" x="430.37" y="-230.3" font-family="Times New Roman,serif" font-size="14.00">stock</text>
</g>
<!-- OXXXX3&#45;&gt;stock -->
<g id="edge17" class="edge">
<title>OXXXX3&#45;&gt;stock</title>
<path fill="none" stroke="black" d="M352.61,-251.78C365.18,-248.87 379.03,-245.66 391.47,-242.78"/>
<polygon fill="black" stroke="black" points="392.57,-246.12 401.52,-240.45 390.99,-239.3 392.57,-246.12"/>
</g>
<!-- GOXGX2&#45;&gt;OXXXX3 -->
<g id="edge12" class="edge">
<title>GOXGX2&#45;&gt;OXXXX3</title>
<path fill="none" stroke="black" d="M212.98,-220.21C230.07,-227.34 251.37,-236.21 269.72,-243.87"/>
<polygon fill="black" stroke="black" points="268.44,-247.12 279.02,-247.74 271.13,-240.66 268.44,-247.12"/>
</g>
<!-- GOXGX2&#45;&gt;XXXOX3 -->
<g id="edge8" class="edge">
<title>GOXGX2&#45;&gt;XXXOX3</title>
<path fill="none" stroke="black" d="M210.63,-221.02C216.87,-224.74 223.15,-229.11 228.38,-234 249.46,-253.7 245.28,-266.39 264.38,-288 269.74,-294.05 276,-300.04 282.16,-305.46"/>
<polygon fill="black" stroke="black" points="279.95,-308.17 289.84,-311.98 284.49,-302.84 279.95,-308.17"/>
</g>
<!-- GOXGX2&#45;&gt;XXXXO3 -->
<g id="edge21" class="edge">
<title>GOXGX2&#45;&gt;XXXXO3</title>
<path fill="none" stroke="black" d="M217.72,-195.47C232.33,-190.85 249.33,-185.46 264.78,-180.57"/>
<polygon fill="black" stroke="black" points="266.2,-183.8 274.67,-177.44 264.08,-177.12 266.2,-183.8"/>
</g>
<!-- XXOXX3 -->
<g id="node19" class="node">
<title>XXOXX3</title>
<ellipse fill="none" stroke="black" cx="311.83" cy="-85" rx="47.39" ry="18"/>
<text text-anchor="middle" x="311.83" y="-81.3" font-family="Times New Roman,serif" font-size="14.00">XXOXX3</text>
</g>
<!-- GOXGX2&#45;&gt;XXOXX3 -->
<g id="edge23" class="edge">
<title>GOXGX2&#45;&gt;XXOXX3</title>
<path fill="none" stroke="black" d="M210.19,-192.47C216.45,-188.78 222.85,-184.55 228.38,-180 230.17,-178.53 265.65,-137.46 289.47,-109.81"/>
<polygon fill="black" stroke="black" points="292.27,-111.92 296.15,-102.06 286.97,-107.36 292.27,-111.92"/>
</g>
<!-- stack -->
<g id="node10" class="node">
<title>stack</title>
<ellipse fill="none" stroke="black" cx="430.37" cy="-342" rx="29.8" ry="18"/>
<text text-anchor="middle" x="430.37" y="-338.3" font-family="Times New Roman,serif" font-size="14.00">stack</text>
</g>
<!-- XXXOX3&#45;&gt;stack -->
<g id="edge9" class="edge">
<title>XXXOX3&#45;&gt;stack</title>
<path fill="none" stroke="black" d="M357.22,-333.33C368.34,-334.67 380.16,-336.09 390.96,-337.39"/>
<polygon fill="black" stroke="black" points="390.59,-340.87 400.94,-338.58 391.43,-333.92 390.59,-340.87"/>
</g>
<!-- smock -->
<g id="node16" class="node">
<title>smock</title>
<ellipse fill="none" stroke="black" cx="430.37" cy="-396" rx="35.19" ry="18"/>
<text text-anchor="middle" x="430.37" y="-392.3" font-family="Times New Roman,serif" font-size="14.00">smock</text>
</g>
<!-- XXXOX3&#45;&gt;smock -->
<g id="edge19" class="edge">
<title>XXXOX3&#45;&gt;smock</title>
<path fill="none" stroke="black" d="M338.4,-342.92C355.91,-353.14 379.23,-366.75 397.88,-377.63"/>
<polygon fill="black" stroke="black" points="396.21,-380.71 406.62,-382.72 399.74,-374.66 396.21,-380.71"/>
</g>
<!-- snuck -->
<g id="node12" class="node">
<title>snuck</title>
<ellipse fill="none" stroke="black" cx="430.37" cy="-126" rx="32.49" ry="18"/>
<text text-anchor="middle" x="430.37" y="-122.3" font-family="Times New Roman,serif" font-size="14.00">snuck</text>
</g>
<!-- XXXXO3&#45;&gt;snuck -->
<g id="edge11" class="edge">
<title>XXXXO3&#45;&gt;snuck</title>
<path fill="none" stroke="black" d="M347.48,-154.11C361.76,-149.2 378.33,-143.52 392.8,-138.55"/>
<polygon fill="black" stroke="black" points="394.12,-141.8 402.44,-135.24 391.84,-135.18 394.12,-141.8"/>
</g>
<!-- shack -->
<g id="node18" class="node">
<title>shack</title>
<ellipse fill="none" stroke="black" cx="430.37" cy="-72" rx="31.7" ry="18"/>
<text text-anchor="middle" x="430.37" y="-68.3" font-family="Times New Roman,serif" font-size="14.00">shack</text>
</g>
<!-- XXXXO3&#45;&gt;shack -->
<g id="edge22" class="edge">
<title>XXXXO3&#45;&gt;shack</title>
<path fill="none" stroke="black" d="M332.76,-149.68C349.43,-136.07 373.84,-116.2 395.27,-99 397.81,-96.97 400.45,-94.86 403.1,-92.75"/>
<polygon fill="black" stroke="black" points="405.28,-95.49 410.93,-86.53 400.93,-90.01 405.28,-95.49"/>
</g>
<!-- snack -->
<g id="node20" class="node">
<title>snack</title>
<ellipse fill="none" stroke="black" cx="430.37" cy="-18" rx="31.7" ry="18"/>
<text text-anchor="middle" x="430.37" y="-14.3" font-family="Times New Roman,serif" font-size="14.00">snack</text>
</g>
<!-- XXOXX3&#45;&gt;snack -->
<g id="edge24" class="edge">
<title>XXOXX3&#45;&gt;snack</title>
<path fill="none" stroke="black" d="M338.69,-70.13C356.44,-59.93 380.07,-46.34 398.76,-35.6"/>
<polygon fill="black" stroke="black" points="400.57,-38.6 407.49,-30.58 397.08,-32.53 400.57,-38.6"/>
</g>
</g>
</svg>
