<?xml version="1.0" encoding="UTF-8" standalone="no"?>
<!DOCTYPE svg PUBLIC "-//W3C//DTD SVG 1.1//EN"
 "http://www.w3.org/Graphics/SVG/1.1/DTD/svg11.dtd">
<!-- Generated by graphviz version 2.50.0 (20211204.2007)
 -->
<!-- Pages: 1 -->
<svg width="468pt" height="422pt"
 viewBox="0.00 0.00 468.27 422.00" xmlns="http://www.w3.org/2000/svg" xmlns:xlink="http://www.w3.org/1999/xlink">
<g id="graph0" class="graph" transform="scale(1 1) rotate(0) translate(4 418)">
<polygon fill="white" stroke="transparent" points="-4,4 -4,-418 464.27,-418 464.27,4 -4,4"/>
<!-- OGXXX1 -->
<g id="node1" class="node">
<title>OGXXX1</title>
<ellipse fill="none" stroke="black" cx="48.1" cy="-180" rx="48.19" ry="18"/>
<text text-anchor="middle" x="48.1" y="-176.3" font-family="Times New Roman,serif" font-size="14.00">OGXXX1</text>
</g>
<!-- XGXGG2 -->
<g id="node2" class="node">
<title>XGXGG2</title>
<ellipse fill="none" stroke="black" cx="180.94" cy="-342" rx="48.19" ry="18"/>
<text text-anchor="middle" x="180.94" y="-338.3" font-family="Times New Roman,serif" font-size="14.00">XGXGG2</text>
</g>
<!-- OGXXX1&#45;&gt;XGXGG2 -->
<g id="edge1" class="edge">
<title>OGXXX1&#45;&gt;XGXGG2</title>
<path fill="none" stroke="black" d="M56.67,-198.15C69.05,-226.08 95.92,-280.05 132.19,-315 135.04,-317.75 138.22,-320.31 141.56,-322.68"/>
<polygon fill="black" stroke="black" points="139.75,-325.68 150.05,-328.17 143.55,-319.8 139.75,-325.68"/>
</g>
<!-- GGXGX2 -->
<g id="node4" class="node">
<title>GGXGX2</title>
<ellipse fill="none" stroke="black" cx="180.94" cy="-288" rx="48.19" ry="18"/>
<text text-anchor="middle" x="180.94" y="-284.3" font-family="Times New Roman,serif" font-size="14.00">GGXGX2</text>
</g>
<!-- OGXXX1&#45;&gt;GGXGX2 -->
<g id="edge3" class="edge">
<title>OGXXX1&#45;&gt;GGXGX2</title>
<path fill="none" stroke="black" d="M64.21,-197.14C80.07,-214.52 106.25,-241.53 132.19,-261 135.58,-263.54 139.22,-266.01 142.94,-268.36"/>
<polygon fill="black" stroke="black" points="141.28,-271.45 151.66,-273.6 144.89,-265.45 141.28,-271.45"/>
</g>
<!-- XGGGX2 -->
<g id="node6" class="node">
<title>XGGGX2</title>
<ellipse fill="none" stroke="black" cx="180.94" cy="-234" rx="48.19" ry="18"/>
<text text-anchor="middle" x="180.94" y="-230.3" font-family="Times New Roman,serif" font-size="14.00">XGGGX2</text>
</g>
<!-- OGXXX1&#45;&gt;XGGGX2 -->
<g id="edge5" class="edge">
<title>OGXXX1&#45;&gt;XGGGX2</title>
<path fill="none" stroke="black" d="M81.1,-193.21C98.37,-200.34 119.88,-209.21 138.42,-216.87"/>
<polygon fill="black" stroke="black" points="137.23,-220.16 147.81,-220.74 139.9,-213.69 137.23,-220.16"/>
</g>
<!-- flash -->
<g id="node12" class="node">
<title>flash</title>
<ellipse fill="none" stroke="black" cx="180.94" cy="-180" rx="27.9" ry="18"/>
<text text-anchor="middle" x="180.94" y="-176.3" font-family="Times New Roman,serif" font-size="14.00">flash</text>
</g>
<!-- OGXXX1&#45;&gt;flash -->
<g id="edge11" class="edge">
<title>OGXXX1&#45;&gt;flash</title>
<path fill="none" stroke="black" d="M96.33,-180C111.65,-180 128.41,-180 142.87,-180"/>
<polygon fill="black" stroke="black" points="142.95,-183.5 152.95,-180 142.95,-176.5 142.95,-183.5"/>
</g>
<!-- XGXGX2 -->
<g id="node13" class="node">
<title>XGXGX2</title>
<ellipse fill="none" stroke="black" cx="180.94" cy="-126" rx="48.19" ry="18"/>
<text text-anchor="middle" x="180.94" y="-122.3" font-family="Times New Roman,serif" font-size="14.00">XGXGX2</text>
</g>
<!-- OGXXX1&#45;&gt;XGXGX2 -->
<g id="edge12" class="edge">
<title>OGXXX1&#45;&gt;XGXGX2</title>
<path fill="none" stroke="black" d="M81.1,-166.79C98.37,-159.66 119.88,-150.79 138.42,-143.13"/>
<polygon fill="black" stroke="black" points="139.9,-146.31 147.81,-139.26 137.23,-139.84 139.9,-146.31"/>
</g>
<!-- GGGGX2 -->
<g id="node15" class="node">
<title>GGGGX2</title>
<ellipse fill="none" stroke="black" cx="180.94" cy="-72" rx="48.99" ry="18"/>
<text text-anchor="middle" x="180.94" y="-68.3" font-family="Times New Roman,serif" font-size="14.00">GGGGX2</text>
</g>
<!-- OGXXX1&#45;&gt;GGGGX2 -->
<g id="edge14" class="edge">
<title>OGXXX1&#45;&gt;GGGGX2</title>
<path fill="none" stroke="black" d="M64.21,-162.86C80.07,-145.48 106.25,-118.47 132.19,-99 135.58,-96.46 139.22,-93.99 142.94,-91.64"/>
<polygon fill="black" stroke="black" points="144.89,-94.55 151.66,-86.4 141.28,-88.55 144.89,-94.55"/>
</g>
<!-- GGXGG2 -->
<g id="node17" class="node">
<title>GGXGG2</title>
<ellipse fill="none" stroke="black" cx="180.94" cy="-18" rx="48.99" ry="18"/>
<text text-anchor="middle" x="180.94" y="-14.3" font-family="Times New Roman,serif" font-size="14.00">GGXGG2</text>
</g>
<!-- OGXXX1&#45;&gt;GGXGG2 -->
<g id="edge16" class="edge">
<title>OGXXX1&#45;&gt;GGXGG2</title>
<path fill="none" stroke="black" d="M56.67,-161.85C69.05,-133.92 95.92,-79.95 132.19,-45 134.89,-42.4 137.88,-39.97 141.02,-37.7"/>
<polygon fill="black" stroke="black" points="143.1,-40.53 149.55,-32.12 139.26,-34.67 143.1,-40.53"/>
</g>
<!-- blush -->
<g id="node3" class="node">
<title>blush</title>
<ellipse fill="none" stroke="black" cx="314.43" cy="-396" rx="30.59" ry="18"/>
<text text-anchor="middle" x="314.43" y="-392.3" font-family="Times New Roman,serif" font-size="14.00">blush</text>
</g>
<!-- XGXGG2&#45;&gt;blush -->
<g id="edge2" class="edge">
<title>XGXGG2&#45;&gt;blush</title>
<path fill="none" stroke="black" d="M214.1,-355.21C233.97,-363.37 259.42,-373.82 279.59,-382.1"/>
<polygon fill="black" stroke="black" points="278.43,-385.41 289.01,-385.97 281.09,-378.94 278.43,-385.41"/>
</g>
<!-- XGGGG3 -->
<g id="node10" class="node">
<title>XGGGG3</title>
<ellipse fill="none" stroke="black" cx="314.43" cy="-342" rx="48.99" ry="18"/>
<text text-anchor="middle" x="314.43" y="-338.3" font-family="Times New Roman,serif" font-size="14.00">XGGGG3</text>
</g>
<!-- XGXGG2&#45;&gt;XGGGG3 -->
<g id="edge9" class="edge">
<title>XGXGG2&#45;&gt;XGGGG3</title>
<path fill="none" stroke="black" d="M229.04,-342C237.51,-342 246.44,-342 255.18,-342"/>
<polygon fill="black" stroke="black" points="255.33,-345.5 265.33,-342 255.33,-338.5 255.33,-345.5"/>
</g>
<!-- floss -->
<g id="node5" class="node">
<title>floss</title>
<ellipse fill="none" stroke="black" cx="314.43" cy="-288" rx="28.7" ry="18"/>
<text text-anchor="middle" x="314.43" y="-284.3" font-family="Times New Roman,serif" font-size="14.00">floss</text>
</g>
<!-- GGXGX2&#45;&gt;floss -->
<g id="edge4" class="edge">
<title>GGXGX2&#45;&gt;floss</title>
<path fill="none" stroke="black" d="M229.04,-288C244.34,-288 261.1,-288 275.63,-288"/>
<polygon fill="black" stroke="black" points="275.76,-291.5 285.76,-288 275.76,-284.5 275.76,-291.5"/>
</g>
<!-- XGGGX3 -->
<g id="node7" class="node">
<title>XGGGX3</title>
<ellipse fill="none" stroke="black" cx="314.43" cy="-234" rx="48.19" ry="18"/>
<text text-anchor="middle" x="314.43" y="-230.3" font-family="Times New Roman,serif" font-size="14.00">XGGGX3</text>
</g>
<!-- XGGGX2&#45;&gt;XGGGX3 -->
<g id="edge6" class="edge">
<title>XGGGX2&#45;&gt;XGGGX3</title>
<path fill="none" stroke="black" d="M229.04,-234C237.82,-234 247.08,-234 256.13,-234"/>
<polygon fill="black" stroke="black" points="256.22,-237.5 266.22,-234 256.22,-230.5 256.22,-237.5"/>
</g>
<!-- blast -->
<g id="node9" class="node">
<title>blast</title>
<ellipse fill="none" stroke="black" cx="314.43" cy="-180" rx="27.9" ry="18"/>
<text text-anchor="middle" x="314.43" y="-176.3" font-family="Times New Roman,serif" font-size="14.00">blast</text>
</g>
<!-- XGGGX2&#45;&gt;blast -->
<g id="edge8" class="edge">
<title>XGGGX2&#45;&gt;blast</title>
<path fill="none" stroke="black" d="M214.1,-220.79C234.36,-212.47 260.43,-201.77 280.77,-193.41"/>
<polygon fill="black" stroke="black" points="282.33,-196.55 290.25,-189.52 279.67,-190.08 282.33,-196.55"/>
</g>
<!-- glass -->
<g id="node8" class="node">
<title>glass</title>
<ellipse fill="none" stroke="black" cx="429.72" cy="-234" rx="28.7" ry="18"/>
<text text-anchor="middle" x="429.72" y="-230.3" font-family="Times New Roman,serif" font-size="14.00">glass</text>
</g>
<!-- XGGGX3&#45;&gt;glass -->
<g id="edge7" class="edge">
<title>XGGGX3&#45;&gt;glass</title>
<path fill="none" stroke="black" d="M362.82,-234C372.14,-234 381.82,-234 390.78,-234"/>
<polygon fill="black" stroke="black" points="390.92,-237.5 400.92,-234 390.92,-230.5 390.92,-237.5"/>
</g>
<!-- plush -->
<g id="node11" class="node">
<title>plush</title>
<ellipse fill="none" stroke="black" cx="429.72" cy="-342" rx="30.59" ry="18"/>
<text text-anchor="middle" x="429.72" y="-338.3" font-family="Times New Roman,serif" font-size="14.00">plush</text>
</g>
<!-- XGGGG3&#45;&gt;plush -->
<g id="edge10" class="edge">
<title>XGGGG3&#45;&gt;plush</title>
<path fill="none" stroke="black" d="M363.47,-342C371.96,-342 380.7,-342 388.92,-342"/>
<polygon fill="black" stroke="black" points="389,-345.5 399,-342 389,-338.5 389,-345.5"/>
</g>
<!-- gloss -->
<g id="node14" class="node">
<title>gloss</title>
<ellipse fill="none" stroke="black" cx="314.43" cy="-126" rx="29.8" ry="18"/>
<text text-anchor="middle" x="314.43" y="-122.3" font-family="Times New Roman,serif" font-size="14.00">gloss</text>
</g>
<!-- XGXGX2&#45;&gt;gloss -->
<g id="edge13" class="edge">
<title>XGXGX2&#45;&gt;gloss</title>
<path fill="none" stroke="black" d="M229.04,-126C243.72,-126 259.75,-126 273.86,-126"/>
<polygon fill="black" stroke="black" points="274.22,-129.5 284.22,-126 274.22,-122.5 274.22,-129.5"/>
</g>
<!-- flask -->
<g id="node16" class="node">
<title>flask</title>
<ellipse fill="none" stroke="black" cx="314.43" cy="-72" rx="27.9" ry="18"/>
<text text-anchor="middle" x="314.43" y="-68.3" font-family="Times New Roman,serif" font-size="14.00">flask</text>
</g>
<!-- GGGGX2&#45;&gt;flask -->
<g id="edge15" class="edge">
<title>GGGGX2&#45;&gt;flask</title>
<path fill="none" stroke="black" d="M229.78,-72C245.14,-72 261.92,-72 276.39,-72"/>
<polygon fill="black" stroke="black" points="276.46,-75.5 286.46,-72 276.46,-68.5 276.46,-75.5"/>
</g>
<!-- flush -->
<g id="node18" class="node">
<title>flush</title>
<ellipse fill="none" stroke="black" cx="314.43" cy="-18" rx="28.7" ry="18"/>
<text text-anchor="middle" x="314.43" y="-14.3" font-family="Times New Roman,serif" font-size="14.00">flush</text>
</g>
<!-- GGXGG2&#45;&gt;flush -->
<g id="edge17" class="edge">
<title>GGXGG2&#45;&gt;flush</title>
<path fill="none" stroke="black" d="M229.78,-18C244.76,-18 261.08,-18 275.3,-18"/>
<polygon fill="black" stroke="black" points="275.7,-21.5 285.7,-18 275.7,-14.5 275.7,-21.5"/>
</g>
</g>
</svg>
