<?xml version="1.0" encoding="UTF-8" standalone="no"?>
<!DOCTYPE svg PUBLIC "-//W3C//DTD SVG 1.1//EN"
 "http://www.w3.org/Graphics/SVG/1.1/DTD/svg11.dtd">
<!-- Generated by graphviz version 2.50.0 (20211204.2007)
 -->
<!-- Pages: 1 -->
<svg width="475pt" height="962pt"
 viewBox="0.00 0.00 474.77 962.00" xmlns="http://www.w3.org/2000/svg" xmlns:xlink="http://www.w3.org/1999/xlink">
<g id="graph0" class="graph" transform="scale(1 1) rotate(0) translate(4 958)">
<polygon fill="white" stroke="transparent" points="-4,4 -4,-958 470.77,-958 470.77,4 -4,4"/>
<!-- XXXGO1 -->
<g id="node1" class="node">
<title>XXXGO1</title>
<ellipse fill="none" stroke="black" cx="48.1" cy="-423" rx="48.19" ry="18"/>
<text text-anchor="middle" x="48.1" y="-419.3" font-family="Times New Roman,serif" font-size="14.00">XXXGO1</text>
</g>
<!-- XGXGX2 -->
<g id="node2" class="node">
<title>XGXGX2</title>
<ellipse fill="none" stroke="black" cx="180.94" cy="-882" rx="48.19" ry="18"/>
<text text-anchor="middle" x="180.94" y="-878.3" font-family="Times New Roman,serif" font-size="14.00">XGXGX2</text>
</g>
<!-- XXXGO1&#45;&gt;XGXGX2 -->
<g id="edge1" class="edge">
<title>XXXGO1&#45;&gt;XGXGX2</title>
<path fill="none" stroke="black" d="M48.56,-441.24C47.56,-502.52 50.95,-704.8 132.19,-842 136.13,-848.65 141.59,-854.71 147.42,-859.98"/>
<polygon fill="black" stroke="black" points="145.56,-862.98 155.49,-866.68 150.03,-857.6 145.56,-862.98"/>
</g>
<!-- react -->
<g id="node5" class="node">
<title>react</title>
<ellipse fill="none" stroke="black" cx="180.94" cy="-815" rx="28.7" ry="18"/>
<text text-anchor="middle" x="180.94" y="-811.3" font-family="Times New Roman,serif" font-size="14.00">react</text>
</g>
<!-- XXXGO1&#45;&gt;react -->
<g id="edge4" class="edge">
<title>XXXGO1&#45;&gt;react</title>
<path fill="none" stroke="black" d="M48.34,-441.04C46.9,-498.02 49.52,-676.97 132.19,-788 136.07,-793.21 141.28,-797.57 146.83,-801.15"/>
<polygon fill="black" stroke="black" points="145.26,-804.28 155.68,-806.15 148.7,-798.18 145.26,-804.28"/>
</g>
<!-- OGXGX2 -->
<g id="node6" class="node">
<title>OGXGX2</title>
<ellipse fill="none" stroke="black" cx="180.94" cy="-761" rx="48.19" ry="18"/>
<text text-anchor="middle" x="180.94" y="-757.3" font-family="Times New Roman,serif" font-size="14.00">OGXGX2</text>
</g>
<!-- XXXGO1&#45;&gt;OGXGX2 -->
<g id="edge5" class="edge">
<title>XXXGO1&#45;&gt;OGXGX2</title>
<path fill="none" stroke="black" d="M51.57,-441C58.52,-487.53 81.18,-614.57 132.19,-707 138.08,-717.68 146.41,-728.05 154.46,-736.8"/>
<polygon fill="black" stroke="black" points="151.95,-739.25 161.4,-744.05 157.01,-734.4 151.95,-739.25"/>
</g>
<!-- GGXGO2 -->
<g id="node9" class="node">
<title>GGXGO2</title>
<ellipse fill="none" stroke="black" cx="180.94" cy="-680" rx="48.99" ry="18"/>
<text text-anchor="middle" x="180.94" y="-676.3" font-family="Times New Roman,serif" font-size="14.00">GGXGO2</text>
</g>
<!-- XXXGO1&#45;&gt;GGXGO2 -->
<g id="edge8" class="edge">
<title>XXXGO1&#45;&gt;GGXGO2</title>
<path fill="none" stroke="black" d="M52.83,-440.93C61.58,-479.86 86.22,-573.82 132.19,-639 136.88,-645.65 142.89,-651.91 149.05,-657.43"/>
<polygon fill="black" stroke="black" points="146.95,-660.24 156.85,-664.01 151.46,-654.89 146.95,-660.24"/>
</g>
<!-- XOXGX2 -->
<g id="node11" class="node">
<title>XOXGX2</title>
<ellipse fill="none" stroke="black" cx="180.94" cy="-612" rx="48.19" ry="18"/>
<text text-anchor="middle" x="180.94" y="-608.3" font-family="Times New Roman,serif" font-size="14.00">XOXGX2</text>
</g>
<!-- XXXGO1&#45;&gt;XOXGX2 -->
<g id="edge10" class="edge">
<title>XXXGO1&#45;&gt;XOXGX2</title>
<path fill="none" stroke="black" d="M61.17,-440.44C84.34,-473.92 135.15,-547.3 162.19,-586.36"/>
<polygon fill="black" stroke="black" points="159.32,-588.37 167.89,-594.6 165.08,-584.39 159.32,-588.37"/>
</g>
<!-- XGGGX2 -->
<g id="node14" class="node">
<title>XGGGX2</title>
<ellipse fill="none" stroke="black" cx="180.94" cy="-504" rx="48.19" ry="18"/>
<text text-anchor="middle" x="180.94" y="-500.3" font-family="Times New Roman,serif" font-size="14.00">XGGGX2</text>
</g>
<!-- XXXGO1&#45;&gt;XGGGX2 -->
<g id="edge13" class="edge">
<title>XXXGO1&#45;&gt;XGGGX2</title>
<path fill="none" stroke="black" d="M72.49,-438.75C89.01,-449.74 111.75,-464.59 132.19,-477 136.05,-479.34 140.12,-481.74 144.18,-484.1"/>
<polygon fill="black" stroke="black" points="142.58,-487.22 153,-489.15 146.06,-481.14 142.58,-487.22"/>
</g>
<!-- OOXGX2 -->
<g id="node17" class="node">
<title>OOXGX2</title>
<ellipse fill="none" stroke="black" cx="180.94" cy="-450" rx="48.19" ry="18"/>
<text text-anchor="middle" x="180.94" y="-446.3" font-family="Times New Roman,serif" font-size="14.00">OOXGX2</text>
</g>
<!-- XXXGO1&#45;&gt;OOXGX2 -->
<g id="edge16" class="edge">
<title>XXXGO1&#45;&gt;OOXGX2</title>
<path fill="none" stroke="black" d="M90.49,-431.54C102.55,-434.03 115.86,-436.78 128.45,-439.38"/>
<polygon fill="black" stroke="black" points="127.86,-442.83 138.36,-441.42 129.27,-435.97 127.86,-442.83"/>
</g>
<!-- XOGGG2 -->
<g id="node22" class="node">
<title>XOGGG2</title>
<ellipse fill="none" stroke="black" cx="180.94" cy="-396" rx="48.99" ry="18"/>
<text text-anchor="middle" x="180.94" y="-392.3" font-family="Times New Roman,serif" font-size="14.00">XOGGG2</text>
</g>
<!-- XXXGO1&#45;&gt;XOGGG2 -->
<g id="edge21" class="edge">
<title>XXXGO1&#45;&gt;XOGGG2</title>
<path fill="none" stroke="black" d="M90.49,-414.46C102.43,-411.99 115.6,-409.28 128.08,-406.7"/>
<polygon fill="black" stroke="black" points="128.82,-410.12 137.91,-404.67 127.41,-403.27 128.82,-410.12"/>
</g>
<!-- XGXGO2 -->
<g id="node24" class="node">
<title>XGXGO2</title>
<ellipse fill="none" stroke="black" cx="180.94" cy="-315" rx="48.19" ry="18"/>
<text text-anchor="middle" x="180.94" y="-311.3" font-family="Times New Roman,serif" font-size="14.00">XGXGO2</text>
</g>
<!-- XXXGO1&#45;&gt;XGXGO2 -->
<g id="edge23" class="edge">
<title>XXXGO1&#45;&gt;XGXGO2</title>
<path fill="none" stroke="black" d="M68.97,-406.6C91.06,-388.36 126.92,-358.76 151.87,-338.17"/>
<polygon fill="black" stroke="black" points="154.39,-340.62 159.88,-331.56 149.94,-335.22 154.39,-340.62"/>
</g>
<!-- GGGGX2 -->
<g id="node26" class="node">
<title>GGGGX2</title>
<ellipse fill="none" stroke="black" cx="180.94" cy="-260" rx="48.99" ry="18"/>
<text text-anchor="middle" x="180.94" y="-256.3" font-family="Times New Roman,serif" font-size="14.00">GGGGX2</text>
</g>
<!-- XXXGO1&#45;&gt;GGGGX2 -->
<g id="edge25" class="edge">
<title>XXXGO1&#45;&gt;GGGGX2</title>
<path fill="none" stroke="black" d="M56.73,-404.92C69.2,-377.08 96.2,-323.23 132.19,-288 135.2,-285.05 138.59,-282.29 142.12,-279.74"/>
<polygon fill="black" stroke="black" points="144.13,-282.61 150.56,-274.18 140.28,-276.76 144.13,-282.61"/>
</g>
<!-- XGGGO2 -->
<g id="node28" class="node">
<title>XGGGO2</title>
<ellipse fill="none" stroke="black" cx="180.94" cy="-204" rx="48.99" ry="18"/>
<text text-anchor="middle" x="180.94" y="-200.3" font-family="Times New Roman,serif" font-size="14.00">XGGGO2</text>
</g>
<!-- XXXGO1&#45;&gt;XGGGO2 -->
<g id="edge27" class="edge">
<title>XXXGO1&#45;&gt;XGGGO2</title>
<path fill="none" stroke="black" d="M53.06,-405.06C61.83,-368.85 85.85,-285.98 132.19,-233 134.99,-229.8 138.24,-226.84 141.69,-224.14"/>
<polygon fill="black" stroke="black" points="143.83,-226.91 150.01,-218.31 139.81,-221.18 143.83,-226.91"/>
</g>
<!-- OOXGG2 -->
<g id="node30" class="node">
<title>OOXGG2</title>
<ellipse fill="none" stroke="black" cx="180.94" cy="-147" rx="48.99" ry="18"/>
<text text-anchor="middle" x="180.94" y="-143.3" font-family="Times New Roman,serif" font-size="14.00">OOXGG2</text>
</g>
<!-- XXXGO1&#45;&gt;OOXGG2 -->
<g id="edge29" class="edge">
<title>XXXGO1&#45;&gt;OOXGG2</title>
<path fill="none" stroke="black" d="M51.02,-404.97C56.48,-361.44 75.52,-248.85 132.19,-177 135,-173.44 138.34,-170.2 141.95,-167.26"/>
<polygon fill="black" stroke="black" points="144.1,-170.02 150.14,-161.32 139.99,-164.35 144.1,-170.02"/>
</g>
<!-- XGOGX2 -->
<g id="node34" class="node">
<title>XGOGX2</title>
<ellipse fill="none" stroke="black" cx="180.94" cy="-86" rx="48.19" ry="18"/>
<text text-anchor="middle" x="180.94" y="-82.3" font-family="Times New Roman,serif" font-size="14.00">XGOGX2</text>
</g>
<!-- XXXGO1&#45;&gt;XGOGX2 -->
<g id="edge33" class="edge">
<title>XXXGO1&#45;&gt;XGOGX2</title>
<path fill="none" stroke="black" d="M49.91,-404.85C52.97,-354.9 67.21,-213.01 132.19,-120 135.47,-115.31 139.61,-111.04 144.08,-107.23"/>
<polygon fill="black" stroke="black" points="146.56,-109.74 152.36,-100.88 142.3,-104.18 146.56,-109.74"/>
</g>
<!-- XOXGG2 -->
<g id="node37" class="node">
<title>XOXGG2</title>
<ellipse fill="none" stroke="black" cx="180.94" cy="-19" rx="48.19" ry="18"/>
<text text-anchor="middle" x="180.94" y="-15.3" font-family="Times New Roman,serif" font-size="14.00">XOXGG2</text>
</g>
<!-- XXXGO1&#45;&gt;XOXGG2 -->
<g id="edge36" class="edge">
<title>XXXGO1&#45;&gt;XOXGG2</title>
<path fill="none" stroke="black" d="M49.26,-404.83C50.56,-348.93 60.49,-176.23 132.19,-59 136.23,-52.4 141.73,-46.37 147.57,-41.1"/>
<polygon fill="black" stroke="black" points="150.17,-43.49 155.63,-34.41 145.7,-38.11 150.17,-43.49"/>
</g>
<!-- GGOGG3 -->
<g id="node3" class="node">
<title>GGOGG3</title>
<ellipse fill="none" stroke="black" cx="315.08" cy="-936" rx="49.29" ry="18"/>
<text text-anchor="middle" x="315.08" y="-932.3" font-family="Times New Roman,serif" font-size="14.00">GGOGG3</text>
</g>
<!-- XGXGX2&#45;&gt;GGOGG3 -->
<g id="edge2" class="edge">
<title>XGXGX2&#45;&gt;GGOGG3</title>
<path fill="none" stroke="black" d="M214.26,-895.21C231.7,-902.34 253.42,-911.21 272.15,-918.87"/>
<polygon fill="black" stroke="black" points="271.05,-922.2 281.63,-922.74 273.7,-915.72 271.05,-922.2"/>
</g>
<!-- beech -->
<g id="node19" class="node">
<title>beech</title>
<ellipse fill="none" stroke="black" cx="315.08" cy="-882" rx="32.49" ry="18"/>
<text text-anchor="middle" x="315.08" y="-878.3" font-family="Times New Roman,serif" font-size="14.00">beech</text>
</g>
<!-- XGXGX2&#45;&gt;beech -->
<g id="edge18" class="edge">
<title>XGXGX2&#45;&gt;beech</title>
<path fill="none" stroke="black" d="M229.27,-882C243.32,-882 258.59,-882 272.26,-882"/>
<polygon fill="black" stroke="black" points="272.35,-885.5 282.35,-882 272.35,-878.5 272.35,-885.5"/>
</g>
<!-- bench -->
<g id="node4" class="node">
<title>bench</title>
<ellipse fill="none" stroke="black" cx="433.62" cy="-936" rx="32.49" ry="18"/>
<text text-anchor="middle" x="433.62" y="-932.3" font-family="Times New Roman,serif" font-size="14.00">bench</text>
</g>
<!-- GGOGG3&#45;&gt;bench -->
<g id="edge3" class="edge">
<title>GGOGG3&#45;&gt;bench</title>
<path fill="none" stroke="black" d="M364.49,-936C373.2,-936 382.22,-936 390.73,-936"/>
<polygon fill="black" stroke="black" points="390.81,-939.5 400.81,-936 390.81,-932.5 390.81,-939.5"/>
</g>
<!-- XGGGX3 -->
<g id="node7" class="node">
<title>XGGGX3</title>
<ellipse fill="none" stroke="black" cx="315.08" cy="-828" rx="48.19" ry="18"/>
<text text-anchor="middle" x="315.08" y="-824.3" font-family="Times New Roman,serif" font-size="14.00">XGGGX3</text>
</g>
<!-- OGXGX2&#45;&gt;XGGGX3 -->
<g id="edge6" class="edge">
<title>OGXGX2&#45;&gt;XGGGX3</title>
<path fill="none" stroke="black" d="M210.28,-775.37C229.71,-785.22 255.67,-798.38 276.77,-809.08"/>
<polygon fill="black" stroke="black" points="275.28,-812.25 285.78,-813.65 278.44,-806.01 275.28,-812.25"/>
</g>
<!-- mercy -->
<g id="node36" class="node">
<title>mercy</title>
<ellipse fill="none" stroke="black" cx="315.08" cy="-774" rx="33.29" ry="18"/>
<text text-anchor="middle" x="315.08" y="-770.3" font-family="Times New Roman,serif" font-size="14.00">mercy</text>
</g>
<!-- OGXGX2&#45;&gt;mercy -->
<g id="edge35" class="edge">
<title>OGXGX2&#45;&gt;mercy</title>
<path fill="none" stroke="black" d="M227.78,-765.51C242.04,-766.91 257.69,-768.45 271.69,-769.83"/>
<polygon fill="black" stroke="black" points="271.74,-773.35 282.04,-770.85 272.43,-766.39 271.74,-773.35"/>
</g>
<!-- perch -->
<g id="node8" class="node">
<title>perch</title>
<ellipse fill="none" stroke="black" cx="433.62" cy="-828" rx="31.4" ry="18"/>
<text text-anchor="middle" x="433.62" y="-824.3" font-family="Times New Roman,serif" font-size="14.00">perch</text>
</g>
<!-- XGGGX3&#45;&gt;perch -->
<g id="edge7" class="edge">
<title>XGGGX3&#45;&gt;perch</title>
<path fill="none" stroke="black" d="M363.48,-828C373,-828 382.93,-828 392.19,-828"/>
<polygon fill="black" stroke="black" points="392.31,-831.5 402.31,-828 392.31,-824.5 392.31,-831.5"/>
</g>
<!-- retch -->
<g id="node10" class="node">
<title>retch</title>
<ellipse fill="none" stroke="black" cx="315.08" cy="-720" rx="28.7" ry="18"/>
<text text-anchor="middle" x="315.08" y="-716.3" font-family="Times New Roman,serif" font-size="14.00">retch</text>
</g>
<!-- GGXGO2&#45;&gt;retch -->
<g id="edge9" class="edge">
<title>GGXGO2&#45;&gt;retch</title>
<path fill="none" stroke="black" d="M219.1,-691.25C237.9,-696.94 260.61,-703.81 279.1,-709.41"/>
<polygon fill="black" stroke="black" points="278.3,-712.83 288.89,-712.37 280.33,-706.13 278.3,-712.83"/>
</g>
<!-- OOOGX3 -->
<g id="node12" class="node">
<title>OOOGX3</title>
<ellipse fill="none" stroke="black" cx="315.08" cy="-666" rx="48.99" ry="18"/>
<text text-anchor="middle" x="315.08" y="-662.3" font-family="Times New Roman,serif" font-size="14.00">OOOGX3</text>
</g>
<!-- XOXGX2&#45;&gt;OOOGX3 -->
<g id="edge11" class="edge">
<title>XOXGX2&#45;&gt;OOOGX3</title>
<path fill="none" stroke="black" d="M214.26,-625.21C231.7,-632.34 253.42,-641.21 272.15,-648.87"/>
<polygon fill="black" stroke="black" points="271.05,-652.2 281.63,-652.74 273.7,-645.72 271.05,-652.2"/>
</g>
<!-- check -->
<g id="node20" class="node">
<title>check</title>
<ellipse fill="none" stroke="black" cx="315.08" cy="-612" rx="32.49" ry="18"/>
<text text-anchor="middle" x="315.08" y="-608.3" font-family="Times New Roman,serif" font-size="14.00">check</text>
</g>
<!-- XOXGX2&#45;&gt;check -->
<g id="edge19" class="edge">
<title>XOXGX2&#45;&gt;check</title>
<path fill="none" stroke="black" d="M229.27,-612C243.32,-612 258.59,-612 272.26,-612"/>
<polygon fill="black" stroke="black" points="272.35,-615.5 282.35,-612 272.35,-608.5 272.35,-615.5"/>
</g>
<!-- epoch -->
<g id="node13" class="node">
<title>epoch</title>
<ellipse fill="none" stroke="black" cx="433.62" cy="-666" rx="33.29" ry="18"/>
<text text-anchor="middle" x="433.62" y="-662.3" font-family="Times New Roman,serif" font-size="14.00">epoch</text>
</g>
<!-- OOOGX3&#45;&gt;epoch -->
<g id="edge12" class="edge">
<title>OOOGX3&#45;&gt;epoch</title>
<path fill="none" stroke="black" d="M364.15,-666C372.8,-666 381.76,-666 390.23,-666"/>
<polygon fill="black" stroke="black" points="390.27,-669.5 400.27,-666 390.27,-662.5 390.27,-669.5"/>
</g>
<!-- XGGGG3 -->
<g id="node15" class="node">
<title>XGGGG3</title>
<ellipse fill="none" stroke="black" cx="315.08" cy="-558" rx="48.99" ry="18"/>
<text text-anchor="middle" x="315.08" y="-554.3" font-family="Times New Roman,serif" font-size="14.00">XGGGG3</text>
</g>
<!-- XGGGX2&#45;&gt;XGGGG3 -->
<g id="edge14" class="edge">
<title>XGGGX2&#45;&gt;XGGGG3</title>
<path fill="none" stroke="black" d="M214.26,-517.21C231.7,-524.34 253.42,-533.21 272.15,-540.87"/>
<polygon fill="black" stroke="black" points="271.05,-544.2 281.63,-544.74 273.7,-537.72 271.05,-544.2"/>
</g>
<!-- beach -->
<g id="node21" class="node">
<title>beach</title>
<ellipse fill="none" stroke="black" cx="315.08" cy="-504" rx="32.49" ry="18"/>
<text text-anchor="middle" x="315.08" y="-500.3" font-family="Times New Roman,serif" font-size="14.00">beach</text>
</g>
<!-- XGGGX2&#45;&gt;beach -->
<g id="edge20" class="edge">
<title>XGGGX2&#45;&gt;beach</title>
<path fill="none" stroke="black" d="M229.27,-504C243.32,-504 258.59,-504 272.26,-504"/>
<polygon fill="black" stroke="black" points="272.35,-507.5 282.35,-504 272.35,-500.5 272.35,-507.5"/>
</g>
<!-- peach -->
<g id="node16" class="node">
<title>peach</title>
<ellipse fill="none" stroke="black" cx="433.62" cy="-558" rx="32.49" ry="18"/>
<text text-anchor="middle" x="433.62" y="-554.3" font-family="Times New Roman,serif" font-size="14.00">peach</text>
</g>
<!-- XGGGG3&#45;&gt;peach -->
<g id="edge15" class="edge">
<title>XGGGG3&#45;&gt;peach</title>
<path fill="none" stroke="black" d="M364.15,-558C372.98,-558 382.13,-558 390.75,-558"/>
<polygon fill="black" stroke="black" points="390.96,-561.5 400.96,-558 390.96,-554.5 390.96,-561.5"/>
</g>
<!-- wreck -->
<g id="node18" class="node">
<title>wreck</title>
<ellipse fill="none" stroke="black" cx="315.08" cy="-450" rx="32.49" ry="18"/>
<text text-anchor="middle" x="315.08" y="-446.3" font-family="Times New Roman,serif" font-size="14.00">wreck</text>
</g>
<!-- OOXGX2&#45;&gt;wreck -->
<g id="edge17" class="edge">
<title>OOXGX2&#45;&gt;wreck</title>
<path fill="none" stroke="black" d="M229.27,-450C243.32,-450 258.59,-450 272.26,-450"/>
<polygon fill="black" stroke="black" points="272.35,-453.5 282.35,-450 272.35,-446.5 272.35,-453.5"/>
</g>
<!-- enact -->
<g id="node23" class="node">
<title>enact</title>
<ellipse fill="none" stroke="black" cx="315.08" cy="-396" rx="29.8" ry="18"/>
<text text-anchor="middle" x="315.08" y="-392.3" font-family="Times New Roman,serif" font-size="14.00">enact</text>
</g>
<!-- XOGGG2&#45;&gt;enact -->
<g id="edge22" class="edge">
<title>XOGGG2&#45;&gt;enact</title>
<path fill="none" stroke="black" d="M230.02,-396C244.72,-396 260.71,-396 274.75,-396"/>
<polygon fill="black" stroke="black" points="275.06,-399.5 285.06,-396 275.06,-392.5 275.06,-399.5"/>
</g>
<!-- GXGGG3 -->
<g id="node32" class="node">
<title>GXGGG3</title>
<ellipse fill="none" stroke="black" cx="315.08" cy="-342" rx="48.99" ry="18"/>
<text text-anchor="middle" x="315.08" y="-338.3" font-family="Times New Roman,serif" font-size="14.00">GXGGG3</text>
</g>
<!-- XOGGG2&#45;&gt;GXGGG3 -->
<g id="edge31" class="edge">
<title>XOGGG2&#45;&gt;GXGGG3</title>
<path fill="none" stroke="black" d="M214.26,-382.79C231.7,-375.66 253.42,-366.79 272.15,-359.13"/>
<polygon fill="black" stroke="black" points="273.7,-362.28 281.63,-355.26 271.05,-355.8 273.7,-362.28"/>
</g>
<!-- fetch -->
<g id="node25" class="node">
<title>fetch</title>
<ellipse fill="none" stroke="black" cx="315.08" cy="-288" rx="28.7" ry="18"/>
<text text-anchor="middle" x="315.08" y="-284.3" font-family="Times New Roman,serif" font-size="14.00">fetch</text>
</g>
<!-- XGXGO2&#45;&gt;fetch -->
<g id="edge24" class="edge">
<title>XGXGO2&#45;&gt;fetch</title>
<path fill="none" stroke="black" d="M223.38,-306.53C240.81,-302.97 260.9,-298.87 277.74,-295.43"/>
<polygon fill="black" stroke="black" points="278.65,-298.81 287.75,-293.38 277.25,-291.95 278.65,-298.81"/>
</g>
<!-- reach -->
<g id="node27" class="node">
<title>reach</title>
<ellipse fill="none" stroke="black" cx="315.08" cy="-234" rx="30.59" ry="18"/>
<text text-anchor="middle" x="315.08" y="-230.3" font-family="Times New Roman,serif" font-size="14.00">reach</text>
</g>
<!-- GGGGX2&#45;&gt;reach -->
<g id="edge26" class="edge">
<title>GGGGX2&#45;&gt;reach</title>
<path fill="none" stroke="black" d="M224.47,-251.63C240.94,-248.39 259.64,-244.71 275.69,-241.55"/>
<polygon fill="black" stroke="black" points="276.66,-244.93 285.8,-239.56 275.31,-238.06 276.66,-244.93"/>
</g>
<!-- teach -->
<g id="node29" class="node">
<title>teach</title>
<ellipse fill="none" stroke="black" cx="315.08" cy="-180" rx="29.8" ry="18"/>
<text text-anchor="middle" x="315.08" y="-176.3" font-family="Times New Roman,serif" font-size="14.00">teach</text>
</g>
<!-- XGGGO2&#45;&gt;teach -->
<g id="edge28" class="edge">
<title>XGGGO2&#45;&gt;teach</title>
<path fill="none" stroke="black" d="M225.21,-196.14C241.63,-193.16 260.2,-189.79 276.1,-186.9"/>
<polygon fill="black" stroke="black" points="276.9,-190.31 286.11,-185.08 275.65,-183.42 276.9,-190.31"/>
</g>
<!-- erect -->
<g id="node31" class="node">
<title>erect</title>
<ellipse fill="none" stroke="black" cx="315.08" cy="-126" rx="28.7" ry="18"/>
<text text-anchor="middle" x="315.08" y="-122.3" font-family="Times New Roman,serif" font-size="14.00">erect</text>
</g>
<!-- OOXGG2&#45;&gt;erect -->
<g id="edge30" class="edge">
<title>OOXGG2&#45;&gt;erect</title>
<path fill="none" stroke="black" d="M225.94,-140.01C242.57,-137.36 261.3,-134.39 277.21,-131.86"/>
<polygon fill="black" stroke="black" points="277.88,-135.3 287.21,-130.27 276.78,-128.38 277.88,-135.3"/>
</g>
<!-- exact -->
<g id="node33" class="node">
<title>exact</title>
<ellipse fill="none" stroke="black" cx="433.62" cy="-342" rx="29.8" ry="18"/>
<text text-anchor="middle" x="433.62" y="-338.3" font-family="Times New Roman,serif" font-size="14.00">exact</text>
</g>
<!-- GXGGG3&#45;&gt;exact -->
<g id="edge32" class="edge">
<title>GXGGG3&#45;&gt;exact</title>
<path fill="none" stroke="black" d="M364.15,-342C373.9,-342 384.04,-342 393.44,-342"/>
<polygon fill="black" stroke="black" points="393.67,-345.5 403.67,-342 393.67,-338.5 393.67,-345.5"/>
</g>
<!-- mecca -->
<g id="node35" class="node">
<title>mecca</title>
<ellipse fill="none" stroke="black" cx="315.08" cy="-72" rx="34.39" ry="18"/>
<text text-anchor="middle" x="315.08" y="-68.3" font-family="Times New Roman,serif" font-size="14.00">mecca</text>
</g>
<!-- XGOGX2&#45;&gt;mecca -->
<g id="edge34" class="edge">
<title>XGOGX2&#45;&gt;mecca</title>
<path fill="none" stroke="black" d="M227.41,-81.18C241.45,-79.69 256.87,-78.06 270.76,-76.59"/>
<polygon fill="black" stroke="black" points="271.46,-80.03 281.04,-75.5 270.72,-73.07 271.46,-80.03"/>
</g>
<!-- eject -->
<g id="node38" class="node">
<title>eject</title>
<ellipse fill="none" stroke="black" cx="315.08" cy="-18" rx="27.1" ry="18"/>
<text text-anchor="middle" x="315.08" y="-14.3" font-family="Times New Roman,serif" font-size="14.00">eject</text>
</g>
<!-- XOXGG2&#45;&gt;eject -->
<g id="edge37" class="edge">
<title>XOXGG2&#45;&gt;eject</title>
<path fill="none" stroke="black" d="M229.27,-18.64C245,-18.52 262.28,-18.39 277.11,-18.28"/>
<polygon fill="black" stroke="black" points="277.45,-21.78 287.42,-18.2 277.4,-14.78 277.45,-21.78"/>
</g>
</g>
</svg>
