<?xml version="1.0" encoding="UTF-8" standalone="no"?>
<!DOCTYPE svg PUBLIC "-//W3C//DTD SVG 1.1//EN"
 "http://www.w3.org/Graphics/SVG/1.1/DTD/svg11.dtd">
<!-- Generated by graphviz version 2.50.0 (20211204.2007)
 -->
<!-- Pages: 1 -->
<svg width="337pt" height="152pt"
 viewBox="0.00 0.00 337.38 152.00" xmlns="http://www.w3.org/2000/svg" xmlns:xlink="http://www.w3.org/1999/xlink">
<g id="graph0" class="graph" transform="scale(1 1) rotate(0) translate(4 148)">
<polygon fill="white" stroke="transparent" points="-4,4 -4,-148 333.38,-148 333.38,4 -4,4"/>
<!-- OXOOX1 -->
<g id="node1" class="node">
<title>OXOOX1</title>
<ellipse fill="none" stroke="black" cx="48.1" cy="-72" rx="48.19" ry="18"/>
<text text-anchor="middle" x="48.1" y="-68.3" font-family="Times New Roman,serif" font-size="14.00">OXOOX1</text>
</g>
<!-- basic -->
<g id="node2" class="node">
<title>basic</title>
<ellipse fill="none" stroke="black" cx="180.29" cy="-126" rx="29.8" ry="18"/>
<text text-anchor="middle" x="180.29" y="-122.3" font-family="Times New Roman,serif" font-size="14.00">basic</text>
</g>
<!-- OXOOX1&#45;&gt;basic -->
<g id="edge1" class="edge">
<title>OXOOX1&#45;&gt;basic</title>
<path fill="none" stroke="black" d="M80.94,-85.21C100.61,-93.37 125.81,-103.82 145.78,-112.1"/>
<polygon fill="black" stroke="black" points="144.54,-115.38 155.11,-115.97 147.22,-108.91 144.54,-115.38"/>
</g>
<!-- XXGGG2 -->
<g id="node3" class="node">
<title>XXGGG2</title>
<ellipse fill="none" stroke="black" cx="180.29" cy="-72" rx="48.19" ry="18"/>
<text text-anchor="middle" x="180.29" y="-68.3" font-family="Times New Roman,serif" font-size="14.00">XXGGG2</text>
</g>
<!-- OXOOX1&#45;&gt;XXGGG2 -->
<g id="edge2" class="edge">
<title>OXOOX1&#45;&gt;XXGGG2</title>
<path fill="none" stroke="black" d="M96.47,-72C104.74,-72 113.42,-72 121.92,-72"/>
<polygon fill="black" stroke="black" points="122.17,-75.5 132.17,-72 122.17,-68.5 122.17,-75.5"/>
</g>
<!-- XXOOO2 -->
<g id="node5" class="node">
<title>XXOOO2</title>
<ellipse fill="none" stroke="black" cx="180.29" cy="-18" rx="48.19" ry="18"/>
<text text-anchor="middle" x="180.29" y="-14.3" font-family="Times New Roman,serif" font-size="14.00">XXOOO2</text>
</g>
<!-- OXOOX1&#45;&gt;XXOOO2 -->
<g id="edge4" class="edge">
<title>OXOOX1&#45;&gt;XXOOO2</title>
<path fill="none" stroke="black" d="M80.94,-58.79C98.12,-51.66 119.53,-42.79 137.98,-35.13"/>
<polygon fill="black" stroke="black" points="139.42,-38.32 147.32,-31.26 136.74,-31.86 139.42,-38.32"/>
</g>
<!-- music -->
<g id="node4" class="node">
<title>music</title>
<ellipse fill="none" stroke="black" cx="296.88" cy="-72" rx="32.49" ry="18"/>
<text text-anchor="middle" x="296.88" y="-68.3" font-family="Times New Roman,serif" font-size="14.00">music</text>
</g>
<!-- XXGGG2&#45;&gt;music -->
<g id="edge3" class="edge">
<title>XXGGG2&#45;&gt;music</title>
<path fill="none" stroke="black" d="M228.56,-72C236.97,-72 245.67,-72 253.92,-72"/>
<polygon fill="black" stroke="black" points="254.07,-75.5 264.07,-72 254.07,-68.5 254.07,-75.5"/>
</g>
<!-- ficus -->
<g id="node6" class="node">
<title>ficus</title>
<ellipse fill="none" stroke="black" cx="296.88" cy="-18" rx="28.7" ry="18"/>
<text text-anchor="middle" x="296.88" y="-14.3" font-family="Times New Roman,serif" font-size="14.00">ficus</text>
</g>
<!-- XXOOO2&#45;&gt;ficus -->
<g id="edge5" class="edge">
<title>XXOOO2&#45;&gt;ficus</title>
<path fill="none" stroke="black" d="M228.56,-18C238.32,-18 248.49,-18 257.87,-18"/>
<polygon fill="black" stroke="black" points="258.07,-21.5 268.07,-18 258.07,-14.5 258.07,-21.5"/>
</g>
</g>
</svg>
