<?xml version="1.0" encoding="UTF-8" standalone="no"?>
<!DOCTYPE svg PUBLIC "-//W3C//DTD SVG 1.1//EN"
 "http://www.w3.org/Graphics/SVG/1.1/DTD/svg11.dtd">
<!-- Generated by graphviz version 2.50.0 (20211204.2007)
 -->
<!-- Pages: 1 -->
<svg width="460pt" height="206pt"
 viewBox="0.00 0.00 459.87 206.00" xmlns="http://www.w3.org/2000/svg" xmlns:xlink="http://www.w3.org/1999/xlink">
<g id="graph0" class="graph" transform="scale(1 1) rotate(0) translate(4 202)">
<polygon fill="white" stroke="transparent" points="-4,4 -4,-202 455.87,-202 455.87,4 -4,4"/>
<!-- XGGXO1 -->
<g id="node1" class="node">
<title>XGGXO1</title>
<ellipse fill="none" stroke="black" cx="48.1" cy="-112" rx="48.19" ry="18"/>
<text text-anchor="middle" x="48.1" y="-108.3" font-family="Times New Roman,serif" font-size="14.00">XGGXO1</text>
</g>
<!-- XXXOO2 -->
<g id="node2" class="node">
<title>XXXOO2</title>
<ellipse fill="none" stroke="black" cx="180.29" cy="-173" rx="48.19" ry="18"/>
<text text-anchor="middle" x="180.29" y="-169.3" font-family="Times New Roman,serif" font-size="14.00">XXXOO2</text>
</g>
<!-- XGGXO1&#45;&gt;XXXOO2 -->
<g id="edge1" class="edge">
<title>XGGXO1&#45;&gt;XXXOO2</title>
<path fill="none" stroke="black" d="M78.96,-125.99C97.16,-134.52 120.6,-145.5 140.26,-154.71"/>
<polygon fill="black" stroke="black" points="139.02,-158 149.56,-159.07 141.99,-151.66 139.02,-158"/>
</g>
<!-- XXXXO2 -->
<g id="node4" class="node">
<title>XXXXO2</title>
<ellipse fill="none" stroke="black" cx="180.29" cy="-112" rx="47.39" ry="18"/>
<text text-anchor="middle" x="180.29" y="-108.3" font-family="Times New Roman,serif" font-size="14.00">XXXXO2</text>
</g>
<!-- XGGXO1&#45;&gt;XXXXO2 -->
<g id="edge3" class="edge">
<title>XGGXO1&#45;&gt;XXXXO2</title>
<path fill="none" stroke="black" d="M96.47,-112C104.93,-112 113.83,-112 122.53,-112"/>
<polygon fill="black" stroke="black" points="122.61,-115.5 132.61,-112 122.61,-108.5 122.61,-115.5"/>
</g>
<!-- GXXXO2 -->
<g id="node7" class="node">
<title>GXXXO2</title>
<ellipse fill="none" stroke="black" cx="180.29" cy="-45" rx="48.19" ry="18"/>
<text text-anchor="middle" x="180.29" y="-41.3" font-family="Times New Roman,serif" font-size="14.00">GXXXO2</text>
</g>
<!-- XGGXO1&#45;&gt;GXXXO2 -->
<g id="edge6" class="edge">
<title>XGGXO1&#45;&gt;GXXXO2</title>
<path fill="none" stroke="black" d="M77.35,-97.46C96.28,-87.72 121.42,-74.78 142,-64.19"/>
<polygon fill="black" stroke="black" points="143.8,-67.2 151.09,-59.51 140.6,-60.97 143.8,-67.2"/>
</g>
<!-- alien -->
<g id="node3" class="node">
<title>alien</title>
<ellipse fill="none" stroke="black" cx="313.13" cy="-180" rx="27" ry="18"/>
<text text-anchor="middle" x="313.13" y="-176.3" font-family="Times New Roman,serif" font-size="14.00">alien</text>
</g>
<!-- XXXOO2&#45;&gt;alien -->
<g id="edge2" class="edge">
<title>XXXOO2&#45;&gt;alien</title>
<path fill="none" stroke="black" d="M228.15,-175.51C243.85,-176.35 261.1,-177.27 275.86,-178.06"/>
<polygon fill="black" stroke="black" points="275.94,-181.57 286.11,-178.61 276.31,-174.58 275.94,-181.57"/>
</g>
<!-- GGGGX3 -->
<g id="node5" class="node">
<title>GGGGX3</title>
<ellipse fill="none" stroke="black" cx="313.13" cy="-126" rx="48.99" ry="18"/>
<text text-anchor="middle" x="313.13" y="-122.3" font-family="Times New Roman,serif" font-size="14.00">GGGGX3</text>
</g>
<!-- XXXXO2&#45;&gt;GGGGX3 -->
<g id="edge4" class="edge">
<title>XXXXO2&#45;&gt;GGGGX3</title>
<path fill="none" stroke="black" d="M226.32,-116.82C235.86,-117.84 246.05,-118.93 255.95,-119.99"/>
<polygon fill="black" stroke="black" points="255.81,-123.49 266.13,-121.08 256.56,-116.53 255.81,-123.49"/>
</g>
<!-- plied -->
<g id="node9" class="node">
<title>plied</title>
<ellipse fill="none" stroke="black" cx="313.13" cy="-72" rx="28.7" ry="18"/>
<text text-anchor="middle" x="313.13" y="-68.3" font-family="Times New Roman,serif" font-size="14.00">plied</text>
</g>
<!-- XXXXO2&#45;&gt;plied -->
<g id="edge8" class="edge">
<title>XXXXO2&#45;&gt;plied</title>
<path fill="none" stroke="black" d="M217.73,-100.86C236.36,-95.16 258.92,-88.27 277.31,-82.64"/>
<polygon fill="black" stroke="black" points="278.51,-85.94 287.05,-79.67 276.46,-79.24 278.51,-85.94"/>
</g>
<!-- plier -->
<g id="node6" class="node">
<title>plier</title>
<ellipse fill="none" stroke="black" cx="424.87" cy="-126" rx="27" ry="18"/>
<text text-anchor="middle" x="424.87" y="-122.3" font-family="Times New Roman,serif" font-size="14.00">plier</text>
</g>
<!-- GGGGX3&#45;&gt;plier -->
<g id="edge5" class="edge">
<title>GGGGX3&#45;&gt;plier</title>
<path fill="none" stroke="black" d="M361.95,-126C370.56,-126 379.4,-126 387.62,-126"/>
<polygon fill="black" stroke="black" points="387.62,-129.5 397.62,-126 387.62,-122.5 387.62,-129.5"/>
</g>
<!-- flier -->
<g id="node8" class="node">
<title>flier</title>
<ellipse fill="none" stroke="black" cx="313.13" cy="-18" rx="27" ry="18"/>
<text text-anchor="middle" x="313.13" y="-14.3" font-family="Times New Roman,serif" font-size="14.00">flier</text>
</g>
<!-- GXXXO2&#45;&gt;flier -->
<g id="edge7" class="edge">
<title>GXXXO2&#45;&gt;flier</title>
<path fill="none" stroke="black" d="M222.69,-36.46C240.17,-32.85 260.31,-28.69 277.05,-25.24"/>
<polygon fill="black" stroke="black" points="277.89,-28.64 286.98,-23.19 276.48,-21.78 277.89,-28.64"/>
</g>
</g>
</svg>
