<?xml version="1.0" encoding="UTF-8" standalone="no"?>
<!DOCTYPE svg PUBLIC "-//W3C//DTD SVG 1.1//EN"
 "http://www.w3.org/Graphics/SVG/1.1/DTD/svg11.dtd">
<!-- Generated by graphviz version 2.50.0 (20211204.2007)
 -->
<!-- Pages: 1 -->
<svg width="466pt" height="260pt"
 viewBox="0.00 0.00 465.67 260.00" xmlns="http://www.w3.org/2000/svg" xmlns:xlink="http://www.w3.org/1999/xlink">
<g id="graph0" class="graph" transform="scale(1 1) rotate(0) translate(4 256)">
<polygon fill="white" stroke="transparent" points="-4,4 -4,-256 461.67,-256 461.67,4 -4,4"/>
<!-- XXGGG1 -->
<g id="node1" class="node">
<title>XXGGG1</title>
<ellipse fill="none" stroke="black" cx="48.1" cy="-99" rx="48.19" ry="18"/>
<text text-anchor="middle" x="48.1" y="-95.3" font-family="Times New Roman,serif" font-size="14.00">XXGGG1</text>
</g>
<!-- XOOOX2 -->
<g id="node2" class="node">
<title>XOOOX2</title>
<ellipse fill="none" stroke="black" cx="180.29" cy="-207" rx="48.19" ry="18"/>
<text text-anchor="middle" x="180.29" y="-203.3" font-family="Times New Roman,serif" font-size="14.00">XOOOX2</text>
</g>
<!-- XXGGG1&#45;&gt;XOOOX2 -->
<g id="edge1" class="edge">
<title>XXGGG1&#45;&gt;XOOOX2</title>
<path fill="none" stroke="black" d="M68.87,-115.4C90.85,-133.64 126.53,-163.24 151.36,-183.83"/>
<polygon fill="black" stroke="black" points="149.4,-186.75 159.33,-190.44 153.87,-181.36 149.4,-186.75"/>
</g>
<!-- XOXXO2 -->
<g id="node4" class="node">
<title>XOXXO2</title>
<ellipse fill="none" stroke="black" cx="180.29" cy="-126" rx="48.19" ry="18"/>
<text text-anchor="middle" x="180.29" y="-122.3" font-family="Times New Roman,serif" font-size="14.00">XOXXO2</text>
</g>
<!-- XXGGG1&#45;&gt;XOXXO2 -->
<g id="edge3" class="edge">
<title>XXGGG1&#45;&gt;XOXXO2</title>
<path fill="none" stroke="black" d="M90.65,-107.62C102.39,-110.05 115.32,-112.73 127.58,-115.28"/>
<polygon fill="black" stroke="black" points="127.18,-118.77 137.68,-117.37 128.6,-111.91 127.18,-118.77"/>
</g>
<!-- GOXXX2 -->
<g id="node8" class="node">
<title>GOXXX2</title>
<ellipse fill="none" stroke="black" cx="180.29" cy="-72" rx="48.19" ry="18"/>
<text text-anchor="middle" x="180.29" y="-68.3" font-family="Times New Roman,serif" font-size="14.00">GOXXX2</text>
</g>
<!-- XXGGG1&#45;&gt;GOXXX2 -->
<g id="edge7" class="edge">
<title>XXGGG1&#45;&gt;GOXXX2</title>
<path fill="none" stroke="black" d="M90.65,-90.38C102.39,-87.95 115.32,-85.27 127.58,-82.72"/>
<polygon fill="black" stroke="black" points="128.6,-86.09 137.68,-80.63 127.18,-79.23 128.6,-86.09"/>
</g>
<!-- XOXXX2 -->
<g id="node10" class="node">
<title>XOXXX2</title>
<ellipse fill="none" stroke="black" cx="180.29" cy="-18" rx="47.39" ry="18"/>
<text text-anchor="middle" x="180.29" y="-14.3" font-family="Times New Roman,serif" font-size="14.00">XOXXX2</text>
</g>
<!-- XXGGG1&#45;&gt;XOXXX2 -->
<g id="edge9" class="edge">
<title>XXGGG1&#45;&gt;XOXXX2</title>
<path fill="none" stroke="black" d="M72.51,-83.28C89.04,-72.32 111.78,-57.47 132.19,-45 136,-42.67 140.02,-40.28 144.03,-37.93"/>
<polygon fill="black" stroke="black" points="145.84,-40.92 152.73,-32.88 142.33,-34.87 145.84,-40.92"/>
</g>
<!-- voice -->
<g id="node3" class="node">
<title>voice</title>
<ellipse fill="none" stroke="black" cx="313.13" cy="-234" rx="30.59" ry="18"/>
<text text-anchor="middle" x="313.13" y="-230.3" font-family="Times New Roman,serif" font-size="14.00">voice</text>
</g>
<!-- XOOOX2&#45;&gt;voice -->
<g id="edge2" class="edge">
<title>XOOOX2&#45;&gt;voice</title>
<path fill="none" stroke="black" d="M222.69,-215.54C239.02,-218.91 257.68,-222.76 273.71,-226.07"/>
<polygon fill="black" stroke="black" points="273.32,-229.56 283.82,-228.16 274.73,-222.71 273.32,-229.56"/>
</g>
<!-- GXGGG3 -->
<g id="node5" class="node">
<title>GXGGG3</title>
<ellipse fill="none" stroke="black" cx="313.13" cy="-180" rx="48.99" ry="18"/>
<text text-anchor="middle" x="313.13" y="-176.3" font-family="Times New Roman,serif" font-size="14.00">GXGGG3</text>
</g>
<!-- XOXXO2&#45;&gt;GXGGG3 -->
<g id="edge4" class="edge">
<title>XOXXO2&#45;&gt;GXGGG3</title>
<path fill="none" stroke="black" d="M213.29,-139.21C230.56,-146.34 252.07,-155.21 270.61,-162.87"/>
<polygon fill="black" stroke="black" points="269.42,-166.16 280,-166.74 272.09,-159.69 269.42,-166.16"/>
</g>
<!-- trice -->
<g id="node7" class="node">
<title>trice</title>
<ellipse fill="none" stroke="black" cx="313.13" cy="-126" rx="27" ry="18"/>
<text text-anchor="middle" x="313.13" y="-122.3" font-family="Times New Roman,serif" font-size="14.00">trice</text>
</g>
<!-- XOXXO2&#45;&gt;trice -->
<g id="edge6" class="edge">
<title>XOXXO2&#45;&gt;trice</title>
<path fill="none" stroke="black" d="M228.52,-126C244.07,-126 261.11,-126 275.73,-126"/>
<polygon fill="black" stroke="black" points="275.89,-129.5 285.89,-126 275.89,-122.5 275.89,-129.5"/>
</g>
<!-- twice -->
<g id="node6" class="node">
<title>twice</title>
<ellipse fill="none" stroke="black" cx="427.77" cy="-180" rx="29.8" ry="18"/>
<text text-anchor="middle" x="427.77" y="-176.3" font-family="Times New Roman,serif" font-size="14.00">twice</text>
</g>
<!-- GXGGG3&#45;&gt;twice -->
<g id="edge5" class="edge">
<title>GXGGG3&#45;&gt;twice</title>
<path fill="none" stroke="black" d="M361.9,-180C370.5,-180 379.37,-180 387.69,-180"/>
<polygon fill="black" stroke="black" points="387.87,-183.5 397.87,-180 387.87,-176.5 387.87,-183.5"/>
</g>
<!-- price -->
<g id="node9" class="node">
<title>price</title>
<ellipse fill="none" stroke="black" cx="313.13" cy="-72" rx="28.7" ry="18"/>
<text text-anchor="middle" x="313.13" y="-68.3" font-family="Times New Roman,serif" font-size="14.00">price</text>
</g>
<!-- GOXXX2&#45;&gt;price -->
<g id="edge8" class="edge">
<title>GOXXX2&#45;&gt;price</title>
<path fill="none" stroke="black" d="M228.52,-72C243.46,-72 259.76,-72 273.98,-72"/>
<polygon fill="black" stroke="black" points="274.38,-75.5 284.38,-72 274.38,-68.5 274.38,-75.5"/>
</g>
<!-- juice -->
<g id="node11" class="node">
<title>juice</title>
<ellipse fill="none" stroke="black" cx="313.13" cy="-18" rx="27.1" ry="18"/>
<text text-anchor="middle" x="313.13" y="-14.3" font-family="Times New Roman,serif" font-size="14.00">juice</text>
</g>
<!-- XOXXX2&#45;&gt;juice -->
<g id="edge10" class="edge">
<title>XOXXX2&#45;&gt;juice</title>
<path fill="none" stroke="black" d="M227.79,-18C243.39,-18 260.56,-18 275.32,-18"/>
<polygon fill="black" stroke="black" points="275.58,-21.5 285.58,-18 275.58,-14.5 275.58,-21.5"/>
</g>
</g>
</svg>
