<?xml version="1.0" encoding="UTF-8" standalone="no"?>
<!DOCTYPE svg PUBLIC "-//W3C//DTD SVG 1.1//EN"
 "http://www.w3.org/Graphics/SVG/1.1/DTD/svg11.dtd">
<!-- Generated by graphviz version 2.50.0 (20211204.2007)
 -->
<!-- Pages: 1 -->
<svg width="602pt" height="908pt"
 viewBox="0.00 0.00 601.76 908.00" xmlns="http://www.w3.org/2000/svg" xmlns:xlink="http://www.w3.org/1999/xlink">
<g id="graph0" class="graph" transform="scale(1 1) rotate(0) translate(4 904)">
<polygon fill="white" stroke="transparent" points="-4,4 -4,-904 597.76,-904 597.76,4 -4,4"/>
<!-- XGXXO1 -->
<g id="node1" class="node">
<title>XGXXO1</title>
<ellipse fill="none" stroke="black" cx="48.1" cy="-234" rx="48.19" ry="18"/>
<text text-anchor="middle" x="48.1" y="-230.3" font-family="Times New Roman,serif" font-size="14.00">XGXXO1</text>
</g>
<!-- XGGXX2 -->
<g id="node2" class="node">
<title>XGGXX2</title>
<ellipse fill="none" stroke="black" cx="181.59" cy="-774" rx="48.19" ry="18"/>
<text text-anchor="middle" x="181.59" y="-770.3" font-family="Times New Roman,serif" font-size="14.00">XGGXX2</text>
</g>
<!-- XGXXO1&#45;&gt;XGGXX2 -->
<g id="edge1" class="edge">
<title>XGXXO1&#45;&gt;XGGXX2</title>
<path fill="none" stroke="black" d="M51.85,-251.98C60.8,-309.17 90.93,-491.79 132.19,-639 142.8,-676.84 158.72,-719.34 169.38,-746.36"/>
<polygon fill="black" stroke="black" points="166.23,-747.93 173.18,-755.92 172.73,-745.34 166.23,-747.93"/>
</g>
<!-- OGGXG2 -->
<g id="node4" class="node">
<title>OGGXG2</title>
<ellipse fill="none" stroke="black" cx="181.59" cy="-612" rx="48.99" ry="18"/>
<text text-anchor="middle" x="181.59" y="-608.3" font-family="Times New Roman,serif" font-size="14.00">OGGXG2</text>
</g>
<!-- XGXXO1&#45;&gt;OGGXG2 -->
<g id="edge3" class="edge">
<title>XGXXO1&#45;&gt;OGGXG2</title>
<path fill="none" stroke="black" d="M55.16,-252.02C68.75,-292.37 102.79,-393.05 132.19,-477 145.25,-514.3 160.72,-557.24 170.59,-584.49"/>
<polygon fill="black" stroke="black" points="167.38,-585.91 174.08,-594.12 173.97,-583.53 167.38,-585.91"/>
</g>
<!-- XGOOX2 -->
<g id="node7" class="node">
<title>XGOOX2</title>
<ellipse fill="none" stroke="black" cx="181.59" cy="-450" rx="48.19" ry="18"/>
<text text-anchor="middle" x="181.59" y="-446.3" font-family="Times New Roman,serif" font-size="14.00">XGOOX2</text>
</g>
<!-- XGXXO1&#45;&gt;XGOOX2 -->
<g id="edge6" class="edge">
<title>XGXXO1&#45;&gt;XGOOX2</title>
<path fill="none" stroke="black" d="M59.86,-251.68C82.98,-289.66 137.52,-379.25 164.66,-423.84"/>
<polygon fill="black" stroke="black" points="161.67,-425.66 169.86,-432.38 167.65,-422.02 161.67,-425.66"/>
</g>
<!-- OGGXX2 -->
<g id="node10" class="node">
<title>OGGXX2</title>
<ellipse fill="none" stroke="black" cx="181.59" cy="-315" rx="48.19" ry="18"/>
<text text-anchor="middle" x="181.59" y="-311.3" font-family="Times New Roman,serif" font-size="14.00">OGGXX2</text>
</g>
<!-- XGXXO1&#45;&gt;OGGXX2 -->
<g id="edge9" class="edge">
<title>XGXXO1&#45;&gt;OGGXX2</title>
<path fill="none" stroke="black" d="M73.83,-249.24C94.45,-261.94 124.04,-280.16 146.83,-294.21"/>
<polygon fill="black" stroke="black" points="145.17,-297.29 155.52,-299.56 148.84,-291.33 145.17,-297.29"/>
</g>
<!-- XGGXG2 -->
<g id="node14" class="node">
<title>XGGXG2</title>
<ellipse fill="none" stroke="black" cx="181.59" cy="-234" rx="48.19" ry="18"/>
<text text-anchor="middle" x="181.59" y="-230.3" font-family="Times New Roman,serif" font-size="14.00">XGGXG2</text>
</g>
<!-- XGXXO1&#45;&gt;XGGXG2 -->
<g id="edge13" class="edge">
<title>XGXXO1&#45;&gt;XGGXG2</title>
<path fill="none" stroke="black" d="M96.2,-234C104.98,-234 114.24,-234 123.29,-234"/>
<polygon fill="black" stroke="black" points="123.37,-237.5 133.37,-234 123.37,-230.5 123.37,-237.5"/>
</g>
<!-- GGOXX2 -->
<g id="node20" class="node">
<title>GGOXX2</title>
<ellipse fill="none" stroke="black" cx="181.59" cy="-180" rx="48.19" ry="18"/>
<text text-anchor="middle" x="181.59" y="-176.3" font-family="Times New Roman,serif" font-size="14.00">GGOXX2</text>
</g>
<!-- XGXXO1&#45;&gt;GGOXX2 -->
<g id="edge19" class="edge">
<title>XGXXO1&#45;&gt;GGOXX2</title>
<path fill="none" stroke="black" d="M81.26,-220.79C98.61,-213.66 120.23,-204.79 138.86,-197.13"/>
<polygon fill="black" stroke="black" points="140.38,-200.3 148.3,-193.26 137.72,-193.82 140.38,-200.3"/>
</g>
<!-- XGOXX2 -->
<g id="node25" class="node">
<title>XGOXX2</title>
<ellipse fill="none" stroke="black" cx="181.59" cy="-126" rx="48.19" ry="18"/>
<text text-anchor="middle" x="181.59" y="-122.3" font-family="Times New Roman,serif" font-size="14.00">XGOXX2</text>
</g>
<!-- XGXXO1&#45;&gt;XGOXX2 -->
<g id="edge24" class="edge">
<title>XGXXO1&#45;&gt;XGOXX2</title>
<path fill="none" stroke="black" d="M64.19,-216.83C80.03,-199.43 106.19,-172.39 132.19,-153 135.62,-150.44 139.31,-147.96 143.08,-145.61"/>
<polygon fill="black" stroke="black" points="145.1,-148.48 151.91,-140.36 141.53,-142.46 145.1,-148.48"/>
</g>
<!-- GGOOO2 -->
<g id="node27" class="node">
<title>GGOOO2</title>
<ellipse fill="none" stroke="black" cx="181.59" cy="-72" rx="49.29" ry="18"/>
<text text-anchor="middle" x="181.59" y="-68.3" font-family="Times New Roman,serif" font-size="14.00">GGOOO2</text>
</g>
<!-- XGXXO1&#45;&gt;GGOOO2 -->
<g id="edge26" class="edge">
<title>XGXXO1&#45;&gt;GGOOO2</title>
<path fill="none" stroke="black" d="M56.64,-215.83C68.99,-187.86 95.82,-133.84 132.19,-99 135.04,-96.27 138.22,-93.72 141.55,-91.37"/>
<polygon fill="black" stroke="black" points="143.51,-94.27 150.03,-85.92 139.73,-88.38 143.51,-94.27"/>
</g>
<!-- alert -->
<g id="node31" class="node">
<title>alert</title>
<ellipse fill="none" stroke="black" cx="181.59" cy="-18" rx="27" ry="18"/>
<text text-anchor="middle" x="181.59" y="-14.3" font-family="Times New Roman,serif" font-size="14.00">alert</text>
</g>
<!-- XGXXO1&#45;&gt;alert -->
<g id="edge30" class="edge">
<title>XGXXO1&#45;&gt;alert</title>
<path fill="none" stroke="black" d="M52.92,-216.01C61.44,-179.73 85.04,-96.84 132.19,-45 136.89,-39.84 142.81,-35.43 148.89,-31.77"/>
<polygon fill="black" stroke="black" points="150.66,-34.78 157.77,-26.93 147.32,-28.64 150.66,-34.78"/>
</g>
<!-- bleed -->
<g id="node3" class="node">
<title>bleed</title>
<ellipse fill="none" stroke="black" cx="316.38" cy="-828" rx="30.59" ry="18"/>
<text text-anchor="middle" x="316.38" y="-824.3" font-family="Times New Roman,serif" font-size="14.00">bleed</text>
</g>
<!-- XGGXX2&#45;&gt;bleed -->
<g id="edge2" class="edge">
<title>XGGXX2&#45;&gt;bleed</title>
<path fill="none" stroke="black" d="M214.73,-787.07C234.88,-795.26 260.81,-805.81 281.31,-814.15"/>
<polygon fill="black" stroke="black" points="280.01,-817.4 290.6,-817.92 282.65,-810.91 280.01,-817.4"/>
</g>
<!-- XGGOX3 -->
<g id="node29" class="node">
<title>XGGOX3</title>
<ellipse fill="none" stroke="black" cx="316.38" cy="-774" rx="48.19" ry="18"/>
<text text-anchor="middle" x="316.38" y="-770.3" font-family="Times New Roman,serif" font-size="14.00">XGGOX3</text>
</g>
<!-- XGGXX2&#45;&gt;XGGOX3 -->
<g id="edge28" class="edge">
<title>XGGXX2&#45;&gt;XGGOX3</title>
<path fill="none" stroke="black" d="M229.78,-774C238.87,-774 248.48,-774 257.85,-774"/>
<polygon fill="black" stroke="black" points="257.89,-777.5 267.89,-774 257.89,-770.5 257.89,-777.5"/>
</g>
<!-- GGGOG3 -->
<g id="node32" class="node">
<title>GGGOG3</title>
<ellipse fill="none" stroke="black" cx="316.38" cy="-720" rx="49.29" ry="18"/>
<text text-anchor="middle" x="316.38" y="-716.3" font-family="Times New Roman,serif" font-size="14.00">GGGOG3</text>
</g>
<!-- XGGXX2&#45;&gt;GGGOG3 -->
<g id="edge31" class="edge">
<title>XGGXX2&#45;&gt;GGGOG3</title>
<path fill="none" stroke="black" d="M214.73,-760.93C232.33,-753.77 254.35,-744.82 273.3,-737.11"/>
<polygon fill="black" stroke="black" points="274.66,-740.34 282.61,-733.33 272.02,-733.85 274.66,-740.34"/>
</g>
<!-- GGGGX3 -->
<g id="node40" class="node">
<title>GGGGX3</title>
<ellipse fill="none" stroke="black" cx="316.38" cy="-882" rx="48.99" ry="18"/>
<text text-anchor="middle" x="316.38" y="-878.3" font-family="Times New Roman,serif" font-size="14.00">GGGGX3</text>
</g>
<!-- XGGXX2&#45;&gt;GGGGX3 -->
<g id="edge40" class="edge">
<title>XGGXX2&#45;&gt;GGGGX3</title>
<path fill="none" stroke="black" d="M197.97,-791.15C214.09,-808.53 240.7,-835.56 266.98,-855 270.42,-857.54 274.12,-860.02 277.89,-862.37"/>
<polygon fill="black" stroke="black" points="276.34,-865.52 286.73,-867.61 279.91,-859.5 276.34,-865.52"/>
</g>
<!-- XGGGG3 -->
<g id="node5" class="node">
<title>XGGGG3</title>
<ellipse fill="none" stroke="black" cx="316.38" cy="-612" rx="48.99" ry="18"/>
<text text-anchor="middle" x="316.38" y="-608.3" font-family="Times New Roman,serif" font-size="14.00">XGGGG3</text>
</g>
<!-- OGGXG2&#45;&gt;XGGGG3 -->
<g id="edge4" class="edge">
<title>OGGXG2&#45;&gt;XGGGG3</title>
<path fill="none" stroke="black" d="M230.53,-612C239.27,-612 248.48,-612 257.48,-612"/>
<polygon fill="black" stroke="black" points="257.51,-615.5 267.51,-612 257.51,-608.5 257.51,-615.5"/>
</g>
<!-- bleat -->
<g id="node24" class="node">
<title>bleat</title>
<ellipse fill="none" stroke="black" cx="316.38" cy="-666" rx="27.9" ry="18"/>
<text text-anchor="middle" x="316.38" y="-662.3" font-family="Times New Roman,serif" font-size="14.00">bleat</text>
</g>
<!-- OGGXG2&#45;&gt;bleat -->
<g id="edge23" class="edge">
<title>OGGXG2&#45;&gt;bleat</title>
<path fill="none" stroke="black" d="M215.07,-625.21C235.75,-633.62 262.43,-644.47 283.08,-652.87"/>
<polygon fill="black" stroke="black" points="281.8,-656.12 292.39,-656.65 284.44,-649.64 281.8,-656.12"/>
</g>
<!-- pleat -->
<g id="node6" class="node">
<title>pleat</title>
<ellipse fill="none" stroke="black" cx="450.52" cy="-612" rx="27.9" ry="18"/>
<text text-anchor="middle" x="450.52" y="-608.3" font-family="Times New Roman,serif" font-size="14.00">pleat</text>
</g>
<!-- XGGGG3&#45;&gt;pleat -->
<g id="edge5" class="edge">
<title>XGGGG3&#45;&gt;pleat</title>
<path fill="none" stroke="black" d="M365.46,-612C380.9,-612 397.76,-612 412.29,-612"/>
<polygon fill="black" stroke="black" points="412.42,-615.5 422.42,-612 412.42,-608.5 412.42,-615.5"/>
</g>
<!-- XOXXO3 -->
<g id="node8" class="node">
<title>XOXXO3</title>
<ellipse fill="none" stroke="black" cx="316.38" cy="-450" rx="48.19" ry="18"/>
<text text-anchor="middle" x="316.38" y="-446.3" font-family="Times New Roman,serif" font-size="14.00">XOXXO3</text>
</g>
<!-- XGOOX2&#45;&gt;XOXXO3 -->
<g id="edge7" class="edge">
<title>XGOOX2&#45;&gt;XOXXO3</title>
<path fill="none" stroke="black" d="M229.78,-450C238.87,-450 248.48,-450 257.85,-450"/>
<polygon fill="black" stroke="black" points="257.89,-453.5 267.89,-450 257.89,-446.5 257.89,-453.5"/>
</g>
<!-- XXXXO3 -->
<g id="node16" class="node">
<title>XXXXO3</title>
<ellipse fill="none" stroke="black" cx="316.38" cy="-396" rx="47.39" ry="18"/>
<text text-anchor="middle" x="316.38" y="-392.3" font-family="Times New Roman,serif" font-size="14.00">XXXXO3</text>
</g>
<!-- XGOOX2&#45;&gt;XXXXO3 -->
<g id="edge15" class="edge">
<title>XGOOX2&#45;&gt;XXXXO3</title>
<path fill="none" stroke="black" d="M214.73,-436.93C232.46,-429.72 254.68,-420.68 273.72,-412.94"/>
<polygon fill="black" stroke="black" points="275.12,-416.15 283.07,-409.14 272.49,-409.66 275.12,-416.15"/>
</g>
<!-- XXXOO3 -->
<g id="node18" class="node">
<title>XXXOO3</title>
<ellipse fill="none" stroke="black" cx="316.38" cy="-558" rx="48.19" ry="18"/>
<text text-anchor="middle" x="316.38" y="-554.3" font-family="Times New Roman,serif" font-size="14.00">XXXOO3</text>
</g>
<!-- XGOOX2&#45;&gt;XXXOO3 -->
<g id="edge17" class="edge">
<title>XGOOX2&#45;&gt;XXXOO3</title>
<path fill="none" stroke="black" d="M197.97,-467.15C214.09,-484.53 240.7,-511.56 266.98,-531 270.56,-533.65 274.42,-536.22 278.36,-538.65"/>
<polygon fill="black" stroke="black" points="276.59,-541.68 286.98,-543.75 280.15,-535.65 276.59,-541.68"/>
</g>
<!-- XOOXO3 -->
<g id="node36" class="node">
<title>XOOXO3</title>
<ellipse fill="none" stroke="black" cx="316.38" cy="-504" rx="48.19" ry="18"/>
<text text-anchor="middle" x="316.38" y="-500.3" font-family="Times New Roman,serif" font-size="14.00">XOOXO3</text>
</g>
<!-- XGOOX2&#45;&gt;XOOXO3 -->
<g id="edge35" class="edge">
<title>XGOOX2&#45;&gt;XOOXO3</title>
<path fill="none" stroke="black" d="M214.73,-463.07C232.46,-470.28 254.68,-479.32 273.72,-487.06"/>
<polygon fill="black" stroke="black" points="272.49,-490.34 283.07,-490.86 275.12,-483.85 272.49,-490.34"/>
</g>
<!-- elder -->
<g id="node9" class="node">
<title>elder</title>
<ellipse fill="none" stroke="black" cx="450.52" cy="-450" rx="28.7" ry="18"/>
<text text-anchor="middle" x="450.52" y="-446.3" font-family="Times New Roman,serif" font-size="14.00">elder</text>
</g>
<!-- XOXXO3&#45;&gt;elder -->
<g id="edge8" class="edge">
<title>XOXXO3&#45;&gt;elder</title>
<path fill="none" stroke="black" d="M364.71,-450C380.09,-450 396.94,-450 411.54,-450"/>
<polygon fill="black" stroke="black" points="411.72,-453.5 421.72,-450 411.72,-446.5 411.72,-453.5"/>
</g>
<!-- GXXXX3 -->
<g id="node11" class="node">
<title>GXXXX3</title>
<ellipse fill="none" stroke="black" cx="316.38" cy="-288" rx="47.39" ry="18"/>
<text text-anchor="middle" x="316.38" y="-284.3" font-family="Times New Roman,serif" font-size="14.00">GXXXX3</text>
</g>
<!-- OGGXX2&#45;&gt;GXXXX3 -->
<g id="edge10" class="edge">
<title>OGGXX2&#45;&gt;GXXXX3</title>
<path fill="none" stroke="black" d="M224.24,-306.53C236.97,-303.94 251.11,-301.07 264.39,-298.37"/>
<polygon fill="black" stroke="black" points="265.23,-301.77 274.33,-296.35 263.83,-294.91 265.23,-301.77"/>
</g>
<!-- OGGXX2&#45;&gt;XXXXO3 -->
<g id="edge38" class="edge">
<title>OGGXX2&#45;&gt;XXXXO3</title>
<path fill="none" stroke="black" d="M205.99,-330.51C222.8,-341.52 246.08,-356.5 266.98,-369 270.94,-371.37 275.12,-373.8 279.29,-376.18"/>
<polygon fill="black" stroke="black" points="277.91,-379.42 288.33,-381.29 281.35,-373.32 277.91,-379.42"/>
</g>
<!-- XXXXX3 -->
<g id="node22" class="node">
<title>XXXXX3</title>
<ellipse fill="none" stroke="black" cx="316.38" cy="-342" rx="46.59" ry="18"/>
<text text-anchor="middle" x="316.38" y="-338.3" font-family="Times New Roman,serif" font-size="14.00">XXXXX3</text>
</g>
<!-- OGGXX2&#45;&gt;XXXXX3 -->
<g id="edge21" class="edge">
<title>OGGXX2&#45;&gt;XXXXX3</title>
<path fill="none" stroke="black" d="M224.24,-323.47C237.09,-326.08 251.38,-328.99 264.76,-331.71"/>
<polygon fill="black" stroke="black" points="264.29,-335.18 274.78,-333.75 265.68,-328.32 264.29,-335.18"/>
</g>
<!-- GGGGX4 -->
<g id="node12" class="node">
<title>GGGGX4</title>
<ellipse fill="none" stroke="black" cx="450.52" cy="-234" rx="48.99" ry="18"/>
<text text-anchor="middle" x="450.52" y="-230.3" font-family="Times New Roman,serif" font-size="14.00">GGGGX4</text>
</g>
<!-- GXXXX3&#45;&gt;GGGGX4 -->
<g id="edge11" class="edge">
<title>GXXXX3&#45;&gt;GGGGX4</title>
<path fill="none" stroke="black" d="M349.37,-274.93C366.88,-267.77 388.79,-258.82 407.65,-251.11"/>
<polygon fill="black" stroke="black" points="408.98,-254.35 416.91,-247.33 406.33,-247.87 408.98,-254.35"/>
</g>
<!-- gleam -->
<g id="node38" class="node">
<title>gleam</title>
<ellipse fill="none" stroke="black" cx="450.52" cy="-180" rx="31.7" ry="18"/>
<text text-anchor="middle" x="450.52" y="-176.3" font-family="Times New Roman,serif" font-size="14.00">gleam</text>
</g>
<!-- GXXXX3&#45;&gt;gleam -->
<g id="edge37" class="edge">
<title>GXXXX3&#45;&gt;gleam</title>
<path fill="none" stroke="black" d="M347.29,-274.23C353.79,-270.47 360.33,-266.03 365.77,-261 386.96,-241.43 380.64,-226.63 401.77,-207 405.96,-203.11 410.81,-199.56 415.77,-196.41"/>
<polygon fill="black" stroke="black" points="417.87,-199.24 424.73,-191.16 414.33,-193.2 417.87,-199.24"/>
</g>
<!-- glean -->
<g id="node13" class="node">
<title>glean</title>
<ellipse fill="none" stroke="black" cx="564.51" cy="-234" rx="29.5" ry="18"/>
<text text-anchor="middle" x="564.51" y="-230.3" font-family="Times New Roman,serif" font-size="14.00">glean</text>
</g>
<!-- GGGGX4&#45;&gt;glean -->
<g id="edge12" class="edge">
<title>GGGGX4&#45;&gt;glean</title>
<path fill="none" stroke="black" d="M499.34,-234C507.87,-234 516.65,-234 524.88,-234"/>
<polygon fill="black" stroke="black" points="524.95,-237.5 534.95,-234 524.95,-230.5 524.95,-237.5"/>
</g>
<!-- fleet -->
<g id="node15" class="node">
<title>fleet</title>
<ellipse fill="none" stroke="black" cx="316.38" cy="-234" rx="27" ry="18"/>
<text text-anchor="middle" x="316.38" y="-230.3" font-family="Times New Roman,serif" font-size="14.00">fleet</text>
</g>
<!-- XGGXG2&#45;&gt;fleet -->
<g id="edge14" class="edge">
<title>XGGXG2&#45;&gt;fleet</title>
<path fill="none" stroke="black" d="M229.78,-234C246.01,-234 263.92,-234 279.14,-234"/>
<polygon fill="black" stroke="black" points="279.2,-237.5 289.2,-234 279.2,-230.5 279.2,-237.5"/>
</g>
<!-- flyer -->
<g id="node17" class="node">
<title>flyer</title>
<ellipse fill="none" stroke="black" cx="450.52" cy="-342" rx="27" ry="18"/>
<text text-anchor="middle" x="450.52" y="-338.3" font-family="Times New Roman,serif" font-size="14.00">flyer</text>
</g>
<!-- XXXXO3&#45;&gt;flyer -->
<g id="edge16" class="edge">
<title>XXXXO3&#45;&gt;flyer</title>
<path fill="none" stroke="black" d="M349.37,-382.93C370.07,-374.47 396.93,-363.49 417.61,-355.04"/>
<polygon fill="black" stroke="black" points="419,-358.25 426.93,-351.23 416.35,-351.77 419,-358.25"/>
</g>
<!-- plead -->
<g id="node39" class="node">
<title>plead</title>
<ellipse fill="none" stroke="black" cx="450.52" cy="-396" rx="30.59" ry="18"/>
<text text-anchor="middle" x="450.52" y="-392.3" font-family="Times New Roman,serif" font-size="14.00">plead</text>
</g>
<!-- XXXXO3&#45;&gt;plead -->
<g id="edge39" class="edge">
<title>XXXXO3&#45;&gt;plead</title>
<path fill="none" stroke="black" d="M363.97,-396C378.91,-396 395.32,-396 409.74,-396"/>
<polygon fill="black" stroke="black" points="409.83,-399.5 419.83,-396 409.83,-392.5 409.83,-399.5"/>
</g>
<!-- bluer -->
<g id="node19" class="node">
<title>bluer</title>
<ellipse fill="none" stroke="black" cx="450.52" cy="-558" rx="28.7" ry="18"/>
<text text-anchor="middle" x="450.52" y="-554.3" font-family="Times New Roman,serif" font-size="14.00">bluer</text>
</g>
<!-- XXXOO3&#45;&gt;bluer -->
<g id="edge18" class="edge">
<title>XXXOO3&#45;&gt;bluer</title>
<path fill="none" stroke="black" d="M364.71,-558C380.09,-558 396.94,-558 411.54,-558"/>
<polygon fill="black" stroke="black" points="411.72,-561.5 421.72,-558 411.72,-554.5 411.72,-561.5"/>
</g>
<!-- alley -->
<g id="node21" class="node">
<title>alley</title>
<ellipse fill="none" stroke="black" cx="316.38" cy="-180" rx="27" ry="18"/>
<text text-anchor="middle" x="316.38" y="-176.3" font-family="Times New Roman,serif" font-size="14.00">alley</text>
</g>
<!-- GGOXX2&#45;&gt;alley -->
<g id="edge20" class="edge">
<title>GGOXX2&#45;&gt;alley</title>
<path fill="none" stroke="black" d="M229.78,-180C246.01,-180 263.92,-180 279.14,-180"/>
<polygon fill="black" stroke="black" points="279.2,-183.5 289.2,-180 279.2,-176.5 279.2,-183.5"/>
</g>
<!-- bleak -->
<g id="node23" class="node">
<title>bleak</title>
<ellipse fill="none" stroke="black" cx="450.52" cy="-288" rx="29.8" ry="18"/>
<text text-anchor="middle" x="450.52" y="-284.3" font-family="Times New Roman,serif" font-size="14.00">bleak</text>
</g>
<!-- XXXXX3&#45;&gt;bleak -->
<g id="edge22" class="edge">
<title>XXXXX3&#45;&gt;bleak</title>
<path fill="none" stroke="black" d="M349.03,-329.07C369.2,-320.82 395.31,-310.15 415.86,-301.76"/>
<polygon fill="black" stroke="black" points="417.22,-304.98 425.15,-297.96 414.57,-298.5 417.22,-304.98"/>
</g>
<!-- elbow -->
<g id="node26" class="node">
<title>elbow</title>
<ellipse fill="none" stroke="black" cx="316.38" cy="-72" rx="32.49" ry="18"/>
<text text-anchor="middle" x="316.38" y="-68.3" font-family="Times New Roman,serif" font-size="14.00">elbow</text>
</g>
<!-- XGOXX2&#45;&gt;elbow -->
<g id="edge25" class="edge">
<title>XGOXX2&#45;&gt;elbow</title>
<path fill="none" stroke="black" d="M214.73,-112.93C234.52,-104.88 259.9,-94.56 280.22,-86.3"/>
<polygon fill="black" stroke="black" points="281.8,-89.43 289.75,-82.42 279.16,-82.95 281.8,-89.43"/>
</g>
<!-- OGXOX3 -->
<g id="node34" class="node">
<title>OGXOX3</title>
<ellipse fill="none" stroke="black" cx="316.38" cy="-126" rx="48.19" ry="18"/>
<text text-anchor="middle" x="316.38" y="-122.3" font-family="Times New Roman,serif" font-size="14.00">OGXOX3</text>
</g>
<!-- XGOXX2&#45;&gt;OGXOX3 -->
<g id="edge33" class="edge">
<title>XGOXX2&#45;&gt;OGXOX3</title>
<path fill="none" stroke="black" d="M229.78,-126C238.87,-126 248.48,-126 257.85,-126"/>
<polygon fill="black" stroke="black" points="257.89,-129.5 267.89,-126 257.89,-122.5 257.89,-129.5"/>
</g>
<!-- alter -->
<g id="node28" class="node">
<title>alter</title>
<ellipse fill="none" stroke="black" cx="316.38" cy="-18" rx="27" ry="18"/>
<text text-anchor="middle" x="316.38" y="-14.3" font-family="Times New Roman,serif" font-size="14.00">alter</text>
</g>
<!-- GGOOO2&#45;&gt;alter -->
<g id="edge27" class="edge">
<title>GGOOO2&#45;&gt;alter</title>
<path fill="none" stroke="black" d="M215.41,-58.65C236.23,-50.19 263.03,-39.29 283.63,-30.91"/>
<polygon fill="black" stroke="black" points="284.97,-34.15 292.91,-27.14 282.33,-27.66 284.97,-34.15"/>
</g>
<!-- elegy -->
<g id="node30" class="node">
<title>elegy</title>
<ellipse fill="none" stroke="black" cx="450.52" cy="-774" rx="29.5" ry="18"/>
<text text-anchor="middle" x="450.52" y="-770.3" font-family="Times New Roman,serif" font-size="14.00">elegy</text>
</g>
<!-- XGGOX3&#45;&gt;elegy -->
<g id="edge29" class="edge">
<title>XGGOX3&#45;&gt;elegy</title>
<path fill="none" stroke="black" d="M364.71,-774C379.85,-774 396.41,-774 410.86,-774"/>
<polygon fill="black" stroke="black" points="410.95,-777.5 420.95,-774 410.95,-770.5 410.95,-777.5"/>
</g>
<!-- blend -->
<g id="node33" class="node">
<title>blend</title>
<ellipse fill="none" stroke="black" cx="450.52" cy="-720" rx="30.59" ry="18"/>
<text text-anchor="middle" x="450.52" y="-716.3" font-family="Times New Roman,serif" font-size="14.00">blend</text>
</g>
<!-- GGGOG3&#45;&gt;blend -->
<g id="edge32" class="edge">
<title>GGGOG3&#45;&gt;blend</title>
<path fill="none" stroke="black" d="M365.83,-720C380.27,-720 395.92,-720 409.74,-720"/>
<polygon fill="black" stroke="black" points="409.9,-723.5 419.9,-720 409.9,-716.5 409.9,-723.5"/>
</g>
<!-- olden -->
<g id="node35" class="node">
<title>olden</title>
<ellipse fill="none" stroke="black" cx="450.52" cy="-126" rx="30.59" ry="18"/>
<text text-anchor="middle" x="450.52" y="-122.3" font-family="Times New Roman,serif" font-size="14.00">olden</text>
</g>
<!-- OGXOX3&#45;&gt;olden -->
<g id="edge34" class="edge">
<title>OGXOX3&#45;&gt;olden</title>
<path fill="none" stroke="black" d="M364.71,-126C379.35,-126 395.32,-126 409.42,-126"/>
<polygon fill="black" stroke="black" points="409.78,-129.5 419.78,-126 409.78,-122.5 409.78,-129.5"/>
</g>
<!-- older -->
<g id="node37" class="node">
<title>older</title>
<ellipse fill="none" stroke="black" cx="450.52" cy="-504" rx="29.5" ry="18"/>
<text text-anchor="middle" x="450.52" y="-500.3" font-family="Times New Roman,serif" font-size="14.00">older</text>
</g>
<!-- XOOXO3&#45;&gt;older -->
<g id="edge36" class="edge">
<title>XOOXO3&#45;&gt;older</title>
<path fill="none" stroke="black" d="M364.71,-504C379.85,-504 396.41,-504 410.86,-504"/>
<polygon fill="black" stroke="black" points="410.95,-507.5 420.95,-504 410.95,-500.5 410.95,-507.5"/>
</g>
<!-- bleep -->
<g id="node41" class="node">
<title>bleep</title>
<ellipse fill="none" stroke="black" cx="450.52" cy="-882" rx="30.59" ry="18"/>
<text text-anchor="middle" x="450.52" y="-878.3" font-family="Times New Roman,serif" font-size="14.00">bleep</text>
</g>
<!-- GGGGX3&#45;&gt;bleep -->
<g id="edge41" class="edge">
<title>GGGGX3&#45;&gt;bleep</title>
<path fill="none" stroke="black" d="M365.46,-882C379.92,-882 395.64,-882 409.52,-882"/>
<polygon fill="black" stroke="black" points="409.73,-885.5 419.73,-882 409.73,-878.5 409.73,-885.5"/>
</g>
</g>
</svg>
