<?xml version="1.0" encoding="UTF-8" standalone="no"?>
<!DOCTYPE svg PUBLIC "-//W3C//DTD SVG 1.1//EN"
 "http://www.w3.org/Graphics/SVG/1.1/DTD/svg11.dtd">
<!-- Generated by graphviz version 2.50.0 (20211204.2007)
 -->
<!-- Pages: 1 -->
<svg width="467pt" height="152pt"
 viewBox="0.00 0.00 466.97 152.00" xmlns="http://www.w3.org/2000/svg" xmlns:xlink="http://www.w3.org/1999/xlink">
<g id="graph0" class="graph" transform="scale(1 1) rotate(0) translate(4 148)">
<polygon fill="white" stroke="transparent" points="-4,4 -4,-148 462.97,-148 462.97,4 -4,4"/>
<!-- OXXOO1 -->
<g id="node1" class="node">
<title>OXXOO1</title>
<ellipse fill="none" stroke="black" cx="48.1" cy="-72" rx="48.19" ry="18"/>
<text text-anchor="middle" x="48.1" y="-68.3" font-family="Times New Roman,serif" font-size="14.00">OXXOO1</text>
</g>
<!-- XXGGO2 -->
<g id="node2" class="node">
<title>XXGGO2</title>
<ellipse fill="none" stroke="black" cx="180.29" cy="-99" rx="48.19" ry="18"/>
<text text-anchor="middle" x="180.29" y="-95.3" font-family="Times New Roman,serif" font-size="14.00">XXGGO2</text>
</g>
<!-- OXXOO1&#45;&gt;XXGGO2 -->
<g id="edge1" class="edge">
<title>OXXOO1&#45;&gt;XXGGO2</title>
<path fill="none" stroke="black" d="M90.65,-80.62C102.39,-83.05 115.32,-85.73 127.58,-88.28"/>
<polygon fill="black" stroke="black" points="127.18,-91.77 137.68,-90.37 128.6,-84.91 127.18,-91.77"/>
</g>
<!-- XGGGX2 -->
<g id="node5" class="node">
<title>XGGGX2</title>
<ellipse fill="none" stroke="black" cx="180.29" cy="-45" rx="48.19" ry="18"/>
<text text-anchor="middle" x="180.29" y="-41.3" font-family="Times New Roman,serif" font-size="14.00">XGGGX2</text>
</g>
<!-- OXXOO1&#45;&gt;XGGGX2 -->
<g id="edge4" class="edge">
<title>OXXOO1&#45;&gt;XGGGX2</title>
<path fill="none" stroke="black" d="M90.65,-63.38C102.39,-60.95 115.32,-58.27 127.58,-55.72"/>
<polygon fill="black" stroke="black" points="128.6,-59.09 137.68,-53.63 127.18,-52.23 128.6,-59.09"/>
</g>
<!-- GGGGO3 -->
<g id="node3" class="node">
<title>GGGGO3</title>
<ellipse fill="none" stroke="black" cx="313.78" cy="-72" rx="49.29" ry="18"/>
<text text-anchor="middle" x="313.78" y="-68.3" font-family="Times New Roman,serif" font-size="14.00">GGGGO3</text>
</g>
<!-- XXGGO2&#45;&gt;GGGGO3 -->
<g id="edge2" class="edge">
<title>XXGGO2&#45;&gt;GGGGO3</title>
<path fill="none" stroke="black" d="M222.89,-90.46C234.65,-88.04 247.6,-85.38 259.92,-82.85"/>
<polygon fill="black" stroke="black" points="261,-86.21 270.09,-80.77 259.59,-79.35 261,-86.21"/>
</g>
<!-- chess -->
<g id="node8" class="node">
<title>chess</title>
<ellipse fill="none" stroke="black" cx="313.78" cy="-126" rx="31.4" ry="18"/>
<text text-anchor="middle" x="313.78" y="-122.3" font-family="Times New Roman,serif" font-size="14.00">chess</text>
</g>
<!-- XXGGO2&#45;&gt;chess -->
<g id="edge8" class="edge">
<title>XXGGO2&#45;&gt;chess</title>
<path fill="none" stroke="black" d="M222.89,-107.54C239.19,-110.89 257.78,-114.71 273.81,-118"/>
<polygon fill="black" stroke="black" points="273.42,-121.49 283.92,-120.07 274.83,-114.63 273.42,-121.49"/>
</g>
<!-- chest -->
<g id="node4" class="node">
<title>chest</title>
<ellipse fill="none" stroke="black" cx="429.07" cy="-99" rx="29.8" ry="18"/>
<text text-anchor="middle" x="429.07" y="-95.3" font-family="Times New Roman,serif" font-size="14.00">chest</text>
</g>
<!-- GGGGO3&#45;&gt;chest -->
<g id="edge3" class="edge">
<title>GGGGO3&#45;&gt;chest</title>
<path fill="none" stroke="black" d="M355.68,-81.75C367.23,-84.5 379.73,-87.48 391.04,-90.17"/>
<polygon fill="black" stroke="black" points="390.49,-93.64 401.03,-92.55 392.11,-86.83 390.49,-93.64"/>
</g>
<!-- crest -->
<g id="node7" class="node">
<title>crest</title>
<ellipse fill="none" stroke="black" cx="429.07" cy="-45" rx="28.7" ry="18"/>
<text text-anchor="middle" x="429.07" y="-41.3" font-family="Times New Roman,serif" font-size="14.00">crest</text>
</g>
<!-- GGGGO3&#45;&gt;crest -->
<g id="edge7" class="edge">
<title>GGGGO3&#45;&gt;crest</title>
<path fill="none" stroke="black" d="M355.68,-62.25C367.64,-59.4 380.62,-56.31 392.24,-53.54"/>
<polygon fill="black" stroke="black" points="393.13,-56.93 402.04,-51.2 391.51,-50.12 393.13,-56.93"/>
</g>
<!-- XGGGX2&#45;&gt;GGGGO3 -->
<g id="edge6" class="edge">
<title>XGGGX2&#45;&gt;GGGGO3</title>
<path fill="none" stroke="black" d="M222.89,-53.54C234.65,-55.96 247.6,-58.62 259.92,-61.15"/>
<polygon fill="black" stroke="black" points="259.59,-64.65 270.09,-63.23 261,-57.79 259.59,-64.65"/>
</g>
<!-- cress -->
<g id="node6" class="node">
<title>cress</title>
<ellipse fill="none" stroke="black" cx="313.78" cy="-18" rx="29.8" ry="18"/>
<text text-anchor="middle" x="313.78" y="-14.3" font-family="Times New Roman,serif" font-size="14.00">cress</text>
</g>
<!-- XGGGX2&#45;&gt;cress -->
<g id="edge5" class="edge">
<title>XGGGX2&#45;&gt;cress</title>
<path fill="none" stroke="black" d="M222.89,-36.46C239.56,-33.04 258.62,-29.12 274.9,-25.78"/>
<polygon fill="black" stroke="black" points="276.04,-29.12 285.13,-23.68 274.63,-22.26 276.04,-29.12"/>
</g>
</g>
</svg>
