<?xml version="1.0" encoding="UTF-8" standalone="no"?>
<!DOCTYPE svg PUBLIC "-//W3C//DTD SVG 1.1//EN"
 "http://www.w3.org/Graphics/SVG/1.1/DTD/svg11.dtd">
<!-- Generated by graphviz version 2.50.0 (20211204.2007)
 -->
<!-- Pages: 1 -->
<svg width="337pt" height="260pt"
 viewBox="0.00 0.00 337.38 260.00" xmlns="http://www.w3.org/2000/svg" xmlns:xlink="http://www.w3.org/1999/xlink">
<g id="graph0" class="graph" transform="scale(1 1) rotate(0) translate(4 256)">
<polygon fill="white" stroke="transparent" points="-4,4 -4,-256 333.38,-256 333.38,4 -4,4"/>
<!-- XXGOX1 -->
<g id="node1" class="node">
<title>XXGOX1</title>
<ellipse fill="none" stroke="black" cx="48.1" cy="-126" rx="48.19" ry="18"/>
<text text-anchor="middle" x="48.1" y="-122.3" font-family="Times New Roman,serif" font-size="14.00">XXGOX1</text>
</g>
<!-- GXGOX2 -->
<g id="node2" class="node">
<title>GXGOX2</title>
<ellipse fill="none" stroke="black" cx="180.94" cy="-234" rx="48.19" ry="18"/>
<text text-anchor="middle" x="180.94" y="-230.3" font-family="Times New Roman,serif" font-size="14.00">GXGOX2</text>
</g>
<!-- XXGOX1&#45;&gt;GXGOX2 -->
<g id="edge1" class="edge">
<title>XXGOX1&#45;&gt;GXGOX2</title>
<path fill="none" stroke="black" d="M64.21,-143.14C80.07,-160.52 106.25,-187.53 132.19,-207 135.58,-209.54 139.22,-212.01 142.94,-214.36"/>
<polygon fill="black" stroke="black" points="141.28,-217.45 151.66,-219.6 144.89,-211.45 141.28,-217.45"/>
</g>
<!-- GOGXO2 -->
<g id="node4" class="node">
<title>GOGXO2</title>
<ellipse fill="none" stroke="black" cx="180.94" cy="-180" rx="48.99" ry="18"/>
<text text-anchor="middle" x="180.94" y="-176.3" font-family="Times New Roman,serif" font-size="14.00">GOGXO2</text>
</g>
<!-- XXGOX1&#45;&gt;GOGXO2 -->
<g id="edge3" class="edge">
<title>XXGOX1&#45;&gt;GOGXO2</title>
<path fill="none" stroke="black" d="M81.1,-139.21C98.37,-146.34 119.88,-155.21 138.42,-162.87"/>
<polygon fill="black" stroke="black" points="137.23,-166.16 147.81,-166.74 139.9,-159.69 137.23,-166.16"/>
</g>
<!-- OXGXO2 -->
<g id="node6" class="node">
<title>OXGXO2</title>
<ellipse fill="none" stroke="black" cx="180.94" cy="-126" rx="48.19" ry="18"/>
<text text-anchor="middle" x="180.94" y="-122.3" font-family="Times New Roman,serif" font-size="14.00">OXGXO2</text>
</g>
<!-- XXGOX1&#45;&gt;OXGXO2 -->
<g id="edge5" class="edge">
<title>XXGOX1&#45;&gt;OXGXO2</title>
<path fill="none" stroke="black" d="M96.33,-126C104.86,-126 113.83,-126 122.6,-126"/>
<polygon fill="black" stroke="black" points="122.77,-129.5 132.77,-126 122.77,-122.5 122.77,-129.5"/>
</g>
<!-- cairn -->
<g id="node8" class="node">
<title>cairn</title>
<ellipse fill="none" stroke="black" cx="180.94" cy="-72" rx="28.7" ry="18"/>
<text text-anchor="middle" x="180.94" y="-68.3" font-family="Times New Roman,serif" font-size="14.00">cairn</text>
</g>
<!-- XXGOX1&#45;&gt;cairn -->
<g id="edge7" class="edge">
<title>XXGOX1&#45;&gt;cairn</title>
<path fill="none" stroke="black" d="M81.1,-112.79C101.13,-104.53 126.86,-93.9 147.05,-85.57"/>
<polygon fill="black" stroke="black" points="148.56,-88.74 156.47,-81.69 145.89,-82.27 148.56,-88.74"/>
</g>
<!-- GXGGX2 -->
<g id="node9" class="node">
<title>GXGGX2</title>
<ellipse fill="none" stroke="black" cx="180.94" cy="-18" rx="48.19" ry="18"/>
<text text-anchor="middle" x="180.94" y="-14.3" font-family="Times New Roman,serif" font-size="14.00">GXGGX2</text>
</g>
<!-- XXGOX1&#45;&gt;GXGGX2 -->
<g id="edge8" class="edge">
<title>XXGOX1&#45;&gt;GXGGX2</title>
<path fill="none" stroke="black" d="M64.21,-108.86C80.07,-91.48 106.25,-64.47 132.19,-45 135.58,-42.46 139.22,-39.99 142.94,-37.64"/>
<polygon fill="black" stroke="black" points="144.89,-40.55 151.66,-32.4 141.28,-34.55 144.89,-40.55"/>
</g>
<!-- crimp -->
<g id="node3" class="node">
<title>crimp</title>
<ellipse fill="none" stroke="black" cx="297.53" cy="-234" rx="31.7" ry="18"/>
<text text-anchor="middle" x="297.53" y="-230.3" font-family="Times New Roman,serif" font-size="14.00">crimp</text>
</g>
<!-- GXGOX2&#45;&gt;crimp -->
<g id="edge2" class="edge">
<title>GXGOX2&#45;&gt;crimp</title>
<path fill="none" stroke="black" d="M229.21,-234C237.89,-234 246.88,-234 255.36,-234"/>
<polygon fill="black" stroke="black" points="255.4,-237.5 265.4,-234 255.4,-230.5 255.4,-237.5"/>
</g>
<!-- china -->
<g id="node5" class="node">
<title>china</title>
<ellipse fill="none" stroke="black" cx="297.53" cy="-180" rx="29.8" ry="18"/>
<text text-anchor="middle" x="297.53" y="-176.3" font-family="Times New Roman,serif" font-size="14.00">china</text>
</g>
<!-- GOGXO2&#45;&gt;china -->
<g id="edge4" class="edge">
<title>GOGXO2&#45;&gt;china</title>
<path fill="none" stroke="black" d="M229.87,-180C239.04,-180 248.54,-180 257.39,-180"/>
<polygon fill="black" stroke="black" points="257.43,-183.5 267.43,-180 257.43,-176.5 257.43,-183.5"/>
</g>
<!-- icing -->
<g id="node7" class="node">
<title>icing</title>
<ellipse fill="none" stroke="black" cx="297.53" cy="-126" rx="27.9" ry="18"/>
<text text-anchor="middle" x="297.53" y="-122.3" font-family="Times New Roman,serif" font-size="14.00">icing</text>
</g>
<!-- OXGXO2&#45;&gt;icing -->
<g id="edge6" class="edge">
<title>OXGXO2&#45;&gt;icing</title>
<path fill="none" stroke="black" d="M229.21,-126C239.26,-126 249.74,-126 259.35,-126"/>
<polygon fill="black" stroke="black" points="259.38,-129.5 269.38,-126 259.38,-122.5 259.38,-129.5"/>
</g>
<!-- chirp -->
<g id="node10" class="node">
<title>chirp</title>
<ellipse fill="none" stroke="black" cx="297.53" cy="-18" rx="29.5" ry="18"/>
<text text-anchor="middle" x="297.53" y="-14.3" font-family="Times New Roman,serif" font-size="14.00">chirp</text>
</g>
<!-- GXGGX2&#45;&gt;chirp -->
<g id="edge9" class="edge">
<title>GXGGX2&#45;&gt;chirp</title>
<path fill="none" stroke="black" d="M229.21,-18C238.79,-18 248.77,-18 258.01,-18"/>
<polygon fill="black" stroke="black" points="258.07,-21.5 268.07,-18 258.07,-14.5 258.07,-21.5"/>
</g>
</g>
</svg>
