<?xml version="1.0" encoding="UTF-8" standalone="no"?>
<!DOCTYPE svg PUBLIC "-//W3C//DTD SVG 1.1//EN"
 "http://www.w3.org/Graphics/SVG/1.1/DTD/svg11.dtd">
<!-- Generated by graphviz version 2.50.0 (20211204.2007)
 -->
<!-- Pages: 1 -->
<svg width="599pt" height="1502pt"
 viewBox="0.00 0.00 599.16 1502.00" xmlns="http://www.w3.org/2000/svg" xmlns:xlink="http://www.w3.org/1999/xlink">
<g id="graph0" class="graph" transform="scale(1 1) rotate(0) translate(4 1498)">
<polygon fill="white" stroke="transparent" points="-4,4 -4,-1498 595.16,-1498 595.16,4 -4,4"/>
<!-- XOXXG1 -->
<g id="node1" class="node">
<title>XOXXG1</title>
<ellipse fill="none" stroke="black" cx="48.1" cy="-706" rx="48.19" ry="18"/>
<text text-anchor="middle" x="48.1" y="-702.3" font-family="Times New Roman,serif" font-size="14.00">XOXXG1</text>
</g>
<!-- OOXGG2 -->
<g id="node2" class="node">
<title>OOXGG2</title>
<ellipse fill="none" stroke="black" cx="181.59" cy="-1341" rx="48.99" ry="18"/>
<text text-anchor="middle" x="181.59" y="-1337.3" font-family="Times New Roman,serif" font-size="14.00">OOXGG2</text>
</g>
<!-- XOXXG1&#45;&gt;OOXGG2 -->
<g id="edge1" class="edge">
<title>XOXXG1&#45;&gt;OOXGG2</title>
<path fill="none" stroke="black" d="M51.51,-724.2C60.09,-787.5 90.77,-1003.74 132.19,-1179 143.46,-1226.69 160.61,-1281.07 171.18,-1313.13"/>
<polygon fill="black" stroke="black" points="167.89,-1314.34 174.37,-1322.72 174.54,-1312.13 167.89,-1314.34"/>
</g>
<!-- OXXOG2 -->
<g id="node4" class="node">
<title>OXXOG2</title>
<ellipse fill="none" stroke="black" cx="181.59" cy="-1152" rx="48.19" ry="18"/>
<text text-anchor="middle" x="181.59" y="-1148.3" font-family="Times New Roman,serif" font-size="14.00">OXXOG2</text>
</g>
<!-- XOXXG1&#45;&gt;OXXOG2 -->
<g id="edge3" class="edge">
<title>XOXXG1&#45;&gt;OXXOG2</title>
<path fill="none" stroke="black" d="M51.76,-724.03C59.86,-776.68 86.53,-934.3 132.19,-1058 140.95,-1081.72 154.29,-1107.12 164.75,-1125.53"/>
<polygon fill="black" stroke="black" points="161.74,-1127.32 169.77,-1134.23 167.8,-1123.82 161.74,-1127.32"/>
</g>
<!-- OOXOG2 -->
<g id="node6" class="node">
<title>OOXOG2</title>
<ellipse fill="none" stroke="black" cx="181.59" cy="-1031" rx="48.99" ry="18"/>
<text text-anchor="middle" x="181.59" y="-1027.3" font-family="Times New Roman,serif" font-size="14.00">OOXOG2</text>
</g>
<!-- XOXXG1&#45;&gt;OOXOG2 -->
<g id="edge5" class="edge">
<title>XOXXG1&#45;&gt;OOXOG2</title>
<path fill="none" stroke="black" d="M54.72,-723.89C67.18,-762.98 98.68,-858.67 132.19,-936 142.39,-959.54 155.73,-985.43 165.82,-1004.23"/>
<polygon fill="black" stroke="black" points="162.79,-1005.98 170.63,-1013.11 168.94,-1002.65 162.79,-1005.98"/>
</g>
<!-- OGXOG2 -->
<g id="node8" class="node">
<title>OGXOG2</title>
<ellipse fill="none" stroke="black" cx="181.59" cy="-909" rx="48.99" ry="18"/>
<text text-anchor="middle" x="181.59" y="-905.3" font-family="Times New Roman,serif" font-size="14.00">OGXOG2</text>
</g>
<!-- XOXXG1&#45;&gt;OGXOG2 -->
<g id="edge7" class="edge">
<title>XOXXG1&#45;&gt;OGXOG2</title>
<path fill="none" stroke="black" d="M60.53,-723.66C83.76,-759.52 136.54,-841 163.72,-882.96"/>
<polygon fill="black" stroke="black" points="160.89,-885.04 169.27,-891.53 166.77,-881.23 160.89,-885.04"/>
</g>
<!-- OOGGG2 -->
<g id="node15" class="node">
<title>OOGGG2</title>
<ellipse fill="none" stroke="black" cx="181.59" cy="-767" rx="49.29" ry="18"/>
<text text-anchor="middle" x="181.59" y="-763.3" font-family="Times New Roman,serif" font-size="14.00">OOGGG2</text>
</g>
<!-- XOXXG1&#45;&gt;OOGGG2 -->
<g id="edge14" class="edge">
<title>XOXXG1&#45;&gt;OOGGG2</title>
<path fill="none" stroke="black" d="M78.93,-719.84C97.38,-728.4 121.27,-739.48 141.25,-748.75"/>
<polygon fill="black" stroke="black" points="139.87,-751.97 150.41,-753 142.81,-745.62 139.87,-751.97"/>
</g>
<!-- eagle -->
<g id="node17" class="node">
<title>eagle</title>
<ellipse fill="none" stroke="black" cx="181.59" cy="-706" rx="28.7" ry="18"/>
<text text-anchor="middle" x="181.59" y="-702.3" font-family="Times New Roman,serif" font-size="14.00">eagle</text>
</g>
<!-- XOXXG1&#45;&gt;eagle -->
<g id="edge16" class="edge">
<title>XOXXG1&#45;&gt;eagle</title>
<path fill="none" stroke="black" d="M96.2,-706C111.49,-706 128.26,-706 142.79,-706"/>
<polygon fill="black" stroke="black" points="142.92,-709.5 152.92,-706 142.92,-702.5 142.92,-709.5"/>
</g>
<!-- OXXGG2 -->
<g id="node18" class="node">
<title>OXXGG2</title>
<ellipse fill="none" stroke="black" cx="181.59" cy="-639" rx="48.19" ry="18"/>
<text text-anchor="middle" x="181.59" y="-635.3" font-family="Times New Roman,serif" font-size="14.00">OXXGG2</text>
</g>
<!-- XOXXG1&#45;&gt;OXXGG2 -->
<g id="edge17" class="edge">
<title>XOXXG1&#45;&gt;OXXGG2</title>
<path fill="none" stroke="black" d="M77.3,-691.63C96.63,-681.78 122.46,-668.62 143.46,-657.92"/>
<polygon fill="black" stroke="black" points="145.1,-661.01 152.43,-653.35 141.93,-654.77 145.1,-661.01"/>
</g>
<!-- OGOOG2 -->
<g id="node23" class="node">
<title>OGOOG2</title>
<ellipse fill="none" stroke="black" cx="181.59" cy="-504" rx="49.29" ry="18"/>
<text text-anchor="middle" x="181.59" y="-500.3" font-family="Times New Roman,serif" font-size="14.00">OGOOG2</text>
</g>
<!-- XOXXG1&#45;&gt;OGOOG2 -->
<g id="edge22" class="edge">
<title>XOXXG1&#45;&gt;OGOOG2</title>
<path fill="none" stroke="black" d="M60.53,-688.43C83.7,-652.84 136.28,-572.07 163.52,-530.22"/>
<polygon fill="black" stroke="black" points="166.56,-531.97 169.08,-521.68 160.69,-528.15 166.56,-531.97"/>
</g>
<!-- OXOOG2 -->
<g id="node26" class="node">
<title>OXOOG2</title>
<ellipse fill="none" stroke="black" cx="181.59" cy="-342" rx="48.99" ry="18"/>
<text text-anchor="middle" x="181.59" y="-338.3" font-family="Times New Roman,serif" font-size="14.00">OXOOG2</text>
</g>
<!-- XOXXG1&#45;&gt;OXOOG2 -->
<g id="edge25" class="edge">
<title>XOXXG1&#45;&gt;OXOOG2</title>
<path fill="none" stroke="black" d="M55.53,-688.2C76.76,-629.43 144.72,-441.28 170.52,-369.86"/>
<polygon fill="black" stroke="black" points="173.91,-370.79 174.01,-360.2 167.32,-368.41 173.91,-370.79"/>
</g>
<!-- OGXGG2 -->
<g id="node31" class="node">
<title>OGXGG2</title>
<ellipse fill="none" stroke="black" cx="181.59" cy="-153" rx="48.99" ry="18"/>
<text text-anchor="middle" x="181.59" y="-149.3" font-family="Times New Roman,serif" font-size="14.00">OGXGG2</text>
</g>
<!-- XOXXG1&#45;&gt;OGXGG2 -->
<g id="edge30" class="edge">
<title>XOXXG1&#45;&gt;OGXGG2</title>
<path fill="none" stroke="black" d="M52.39,-687.95C62.7,-632.15 95.81,-457.56 132.19,-315 144.37,-267.26 161.38,-212.49 171.66,-180.42"/>
<polygon fill="black" stroke="black" points="175,-181.44 174.74,-170.85 168.34,-179.29 175,-181.44"/>
</g>
<!-- OXGGG2 -->
<g id="node36" class="node">
<title>OXGGG2</title>
<ellipse fill="none" stroke="black" cx="181.59" cy="-45" rx="48.99" ry="18"/>
<text text-anchor="middle" x="181.59" y="-41.3" font-family="Times New Roman,serif" font-size="14.00">OXGGG2</text>
</g>
<!-- XOXXG1&#45;&gt;OXGGG2 -->
<g id="edge35" class="edge">
<title>XOXXG1&#45;&gt;OXGGG2</title>
<path fill="none" stroke="black" d="M49.13,-687.83C49.77,-614.93 57.3,-337.43 132.19,-126 139.19,-106.25 151.27,-86.02 161.62,-70.71"/>
<polygon fill="black" stroke="black" points="164.62,-72.52 167.45,-62.31 158.87,-68.53 164.62,-72.52"/>
</g>
<!-- ample -->
<g id="node3" class="node">
<title>ample</title>
<ellipse fill="none" stroke="black" cx="316.38" cy="-1476" rx="32.49" ry="18"/>
<text text-anchor="middle" x="316.38" y="-1472.3" font-family="Times New Roman,serif" font-size="14.00">ample</text>
</g>
<!-- OOXGG2&#45;&gt;ample -->
<g id="edge2" class="edge">
<title>OOXGG2&#45;&gt;ample</title>
<path fill="none" stroke="black" d="M193.34,-1358.85C207.85,-1381.85 235.53,-1422.07 266.98,-1449 271.48,-1452.85 276.6,-1456.41 281.8,-1459.59"/>
<polygon fill="black" stroke="black" points="280.1,-1462.65 290.52,-1464.58 283.58,-1456.58 280.1,-1462.65"/>
</g>
<!-- GXGGG3 -->
<g id="node13" class="node">
<title>GXGGG3</title>
<ellipse fill="none" stroke="black" cx="316.38" cy="-1422" rx="48.99" ry="18"/>
<text text-anchor="middle" x="316.38" y="-1418.3" font-family="Times New Roman,serif" font-size="14.00">GXGGG3</text>
</g>
<!-- OOXGG2&#45;&gt;GXGGG3 -->
<g id="edge12" class="edge">
<title>OOXGG2&#45;&gt;GXGGG3</title>
<path fill="none" stroke="black" d="M206.36,-1356.75C223.13,-1367.74 246.23,-1382.59 266.98,-1395 270.9,-1397.34 275.02,-1399.74 279.14,-1402.1"/>
<polygon fill="black" stroke="black" points="277.65,-1405.28 288.08,-1407.15 281.1,-1399.18 277.65,-1405.28"/>
</g>
<!-- GGXGG3 -->
<g id="node21" class="node">
<title>GGXGG3</title>
<ellipse fill="none" stroke="black" cx="316.38" cy="-1368" rx="48.99" ry="18"/>
<text text-anchor="middle" x="316.38" y="-1364.3" font-family="Times New Roman,serif" font-size="14.00">GGXGG3</text>
</g>
<!-- OOXGG2&#45;&gt;GGXGG3 -->
<g id="edge20" class="edge">
<title>OOXGG2&#45;&gt;GGXGG3</title>
<path fill="none" stroke="black" d="M224.6,-1349.54C236.83,-1352.03 250.35,-1354.78 263.13,-1357.38"/>
<polygon fill="black" stroke="black" points="262.68,-1360.86 273.18,-1359.42 264.08,-1354 262.68,-1360.86"/>
</g>
<!-- OXXGG3 -->
<g id="node38" class="node">
<title>OXXGG3</title>
<ellipse fill="none" stroke="black" cx="316.38" cy="-1314" rx="48.19" ry="18"/>
<text text-anchor="middle" x="316.38" y="-1310.3" font-family="Times New Roman,serif" font-size="14.00">OXXGG3</text>
</g>
<!-- OOXGG2&#45;&gt;OXXGG3 -->
<g id="edge37" class="edge">
<title>OOXGG2&#45;&gt;OXXGG3</title>
<path fill="none" stroke="black" d="M224.6,-1332.46C236.95,-1329.95 250.61,-1327.17 263.5,-1324.55"/>
<polygon fill="black" stroke="black" points="264.53,-1327.91 273.64,-1322.49 263.14,-1321.05 264.53,-1327.91"/>
</g>
<!-- GXXGG3 -->
<g id="node51" class="node">
<title>GXXGG3</title>
<ellipse fill="none" stroke="black" cx="316.38" cy="-1260" rx="48.19" ry="18"/>
<text text-anchor="middle" x="316.38" y="-1256.3" font-family="Times New Roman,serif" font-size="14.00">GXXGG3</text>
</g>
<!-- OOXGG2&#45;&gt;GXXGG3 -->
<g id="edge50" class="edge">
<title>OOXGG2&#45;&gt;GXXGG3</title>
<path fill="none" stroke="black" d="M206.36,-1325.25C223.13,-1314.26 246.23,-1299.41 266.98,-1287 270.94,-1284.63 275.12,-1282.2 279.29,-1279.82"/>
<polygon fill="black" stroke="black" points="281.35,-1282.68 288.33,-1274.71 277.91,-1276.58 281.35,-1282.68"/>
</g>
<!-- delve -->
<g id="node5" class="node">
<title>delve</title>
<ellipse fill="none" stroke="black" cx="316.38" cy="-1206" rx="29.8" ry="18"/>
<text text-anchor="middle" x="316.38" y="-1202.3" font-family="Times New Roman,serif" font-size="14.00">delve</text>
</g>
<!-- OXXOG2&#45;&gt;delve -->
<g id="edge4" class="edge">
<title>OXXOG2&#45;&gt;delve</title>
<path fill="none" stroke="black" d="M214.73,-1165.07C235.01,-1173.32 261.15,-1183.95 281.71,-1192.31"/>
<polygon fill="black" stroke="black" points="280.44,-1195.57 291.02,-1196.09 283.07,-1189.08 280.44,-1195.57"/>
</g>
<!-- XGGXG3 -->
<g id="node11" class="node">
<title>XGGXG3</title>
<ellipse fill="none" stroke="black" cx="316.38" cy="-1152" rx="48.19" ry="18"/>
<text text-anchor="middle" x="316.38" y="-1148.3" font-family="Times New Roman,serif" font-size="14.00">XGGXG3</text>
</g>
<!-- OXXOG2&#45;&gt;XGGXG3 -->
<g id="edge10" class="edge">
<title>OXXOG2&#45;&gt;XGGXG3</title>
<path fill="none" stroke="black" d="M229.78,-1152C238.87,-1152 248.48,-1152 257.85,-1152"/>
<polygon fill="black" stroke="black" points="257.89,-1155.5 267.89,-1152 257.89,-1148.5 257.89,-1155.5"/>
</g>
<!-- leave -->
<g id="node7" class="node">
<title>leave</title>
<ellipse fill="none" stroke="black" cx="316.38" cy="-1098" rx="28.7" ry="18"/>
<text text-anchor="middle" x="316.38" y="-1094.3" font-family="Times New Roman,serif" font-size="14.00">leave</text>
</g>
<!-- OOXOG2&#45;&gt;leave -->
<g id="edge6" class="edge">
<title>OOXOG2&#45;&gt;leave</title>
<path fill="none" stroke="black" d="M211.07,-1045.37C232.68,-1056.27 262.34,-1071.24 284.51,-1082.42"/>
<polygon fill="black" stroke="black" points="283,-1085.58 293.5,-1086.96 286.15,-1079.33 283,-1085.58"/>
</g>
<!-- XGGGG3 -->
<g id="node9" class="node">
<title>XGGGG3</title>
<ellipse fill="none" stroke="black" cx="316.38" cy="-1044" rx="48.99" ry="18"/>
<text text-anchor="middle" x="316.38" y="-1040.3" font-family="Times New Roman,serif" font-size="14.00">XGGGG3</text>
</g>
<!-- OGXOG2&#45;&gt;XGGGG3 -->
<g id="edge8" class="edge">
<title>OGXOG2&#45;&gt;XGGGG3</title>
<path fill="none" stroke="black" d="M193.34,-926.85C207.85,-949.85 235.53,-990.07 266.98,-1017 270.15,-1019.71 273.63,-1022.28 277.22,-1024.67"/>
<polygon fill="black" stroke="black" points="275.39,-1027.65 285.74,-1029.93 279.07,-1021.69 275.39,-1027.65"/>
</g>
<!-- halve -->
<g id="node25" class="node">
<title>halve</title>
<ellipse fill="none" stroke="black" cx="316.38" cy="-990" rx="29.5" ry="18"/>
<text text-anchor="middle" x="316.38" y="-986.3" font-family="Times New Roman,serif" font-size="14.00">halve</text>
</g>
<!-- OGXOG2&#45;&gt;halve -->
<g id="edge24" class="edge">
<title>OGXOG2&#45;&gt;halve</title>
<path fill="none" stroke="black" d="M206.36,-924.75C223.13,-935.74 246.23,-950.59 266.98,-963 272.62,-966.37 278.69,-969.86 284.56,-973.17"/>
<polygon fill="black" stroke="black" points="283.1,-976.36 293.54,-978.18 286.51,-970.25 283.1,-976.36"/>
</g>
<!-- XGGOG3 -->
<g id="node34" class="node">
<title>XGGOG3</title>
<ellipse fill="none" stroke="black" cx="316.38" cy="-936" rx="48.99" ry="18"/>
<text text-anchor="middle" x="316.38" y="-932.3" font-family="Times New Roman,serif" font-size="14.00">XGGOG3</text>
</g>
<!-- OGXOG2&#45;&gt;XGGOG3 -->
<g id="edge33" class="edge">
<title>OGXOG2&#45;&gt;XGGOG3</title>
<path fill="none" stroke="black" d="M224.6,-917.54C236.83,-920.03 250.35,-922.78 263.13,-925.38"/>
<polygon fill="black" stroke="black" points="262.68,-928.86 273.18,-927.42 264.08,-922 262.68,-928.86"/>
</g>
<!-- OGOXG3 -->
<g id="node58" class="node">
<title>OGOXG3</title>
<ellipse fill="none" stroke="black" cx="316.38" cy="-882" rx="48.99" ry="18"/>
<text text-anchor="middle" x="316.38" y="-878.3" font-family="Times New Roman,serif" font-size="14.00">OGOXG3</text>
</g>
<!-- OGXOG2&#45;&gt;OGOXG3 -->
<g id="edge57" class="edge">
<title>OGXOG2&#45;&gt;OGOXG3</title>
<path fill="none" stroke="black" d="M224.6,-900.46C236.83,-897.97 250.35,-895.22 263.13,-892.62"/>
<polygon fill="black" stroke="black" points="264.08,-896 273.18,-890.58 262.68,-889.14 264.08,-896"/>
</g>
<!-- XGOXG3 -->
<g id="node60" class="node">
<title>XGOXG3</title>
<ellipse fill="none" stroke="black" cx="316.38" cy="-828" rx="48.19" ry="18"/>
<text text-anchor="middle" x="316.38" y="-824.3" font-family="Times New Roman,serif" font-size="14.00">XGOXG3</text>
</g>
<!-- OGXOG2&#45;&gt;XGOXG3 -->
<g id="edge59" class="edge">
<title>OGXOG2&#45;&gt;XGOXG3</title>
<path fill="none" stroke="black" d="M206.36,-893.25C223.13,-882.26 246.23,-867.41 266.98,-855 270.94,-852.63 275.12,-850.2 279.29,-847.82"/>
<polygon fill="black" stroke="black" points="281.35,-850.68 288.33,-842.71 277.91,-844.58 281.35,-850.68"/>
</g>
<!-- valve -->
<g id="node10" class="node">
<title>valve</title>
<ellipse fill="none" stroke="black" cx="450.52" cy="-1044" rx="29.5" ry="18"/>
<text text-anchor="middle" x="450.52" y="-1040.3" font-family="Times New Roman,serif" font-size="14.00">valve</text>
</g>
<!-- XGGGG3&#45;&gt;valve -->
<g id="edge9" class="edge">
<title>XGGGG3&#45;&gt;valve</title>
<path fill="none" stroke="black" d="M365.46,-1044C380.28,-1044 396.4,-1044 410.53,-1044"/>
<polygon fill="black" stroke="black" points="410.89,-1047.5 420.89,-1044 410.89,-1040.5 410.89,-1047.5"/>
</g>
<!-- melee -->
<g id="node12" class="node">
<title>melee</title>
<ellipse fill="none" stroke="black" cx="450.52" cy="-1152" rx="31.4" ry="18"/>
<text text-anchor="middle" x="450.52" y="-1148.3" font-family="Times New Roman,serif" font-size="14.00">melee</text>
</g>
<!-- XGGXG3&#45;&gt;melee -->
<g id="edge11" class="edge">
<title>XGGXG3&#45;&gt;melee</title>
<path fill="none" stroke="black" d="M364.71,-1152C379.11,-1152 394.8,-1152 408.73,-1152"/>
<polygon fill="black" stroke="black" points="408.99,-1155.5 418.99,-1152 408.99,-1148.5 408.99,-1155.5"/>
</g>
<!-- apple -->
<g id="node14" class="node">
<title>apple</title>
<ellipse fill="none" stroke="black" cx="450.52" cy="-1422" rx="30.59" ry="18"/>
<text text-anchor="middle" x="450.52" y="-1418.3" font-family="Times New Roman,serif" font-size="14.00">apple</text>
</g>
<!-- GXGGG3&#45;&gt;apple -->
<g id="edge13" class="edge">
<title>GXGGG3&#45;&gt;apple</title>
<path fill="none" stroke="black" d="M365.46,-1422C379.92,-1422 395.64,-1422 409.52,-1422"/>
<polygon fill="black" stroke="black" points="409.73,-1425.5 419.73,-1422 409.73,-1418.5 409.73,-1425.5"/>
</g>
<!-- angle -->
<g id="node16" class="node">
<title>angle</title>
<ellipse fill="none" stroke="black" cx="316.38" cy="-774" rx="29.5" ry="18"/>
<text text-anchor="middle" x="316.38" y="-770.3" font-family="Times New Roman,serif" font-size="14.00">angle</text>
</g>
<!-- OOGGG2&#45;&gt;angle -->
<g id="edge15" class="edge">
<title>OOGGG2&#45;&gt;angle</title>
<path fill="none" stroke="black" d="M230.53,-769.53C245.83,-770.33 262.56,-771.22 277.08,-771.98"/>
<polygon fill="black" stroke="black" points="277.05,-775.48 287.22,-772.52 277.41,-768.49 277.05,-775.48"/>
</g>
<!-- GOOGG3 -->
<g id="node19" class="node">
<title>GOOGG3</title>
<ellipse fill="none" stroke="black" cx="316.38" cy="-720" rx="49.29" ry="18"/>
<text text-anchor="middle" x="316.38" y="-716.3" font-family="Times New Roman,serif" font-size="14.00">GOOGG3</text>
</g>
<!-- OXXGG2&#45;&gt;GOOGG3 -->
<g id="edge18" class="edge">
<title>OXXGG2&#45;&gt;GOOGG3</title>
<path fill="none" stroke="black" d="M205.99,-654.51C222.8,-665.52 246.08,-680.5 266.98,-693 270.9,-695.34 275.02,-697.74 279.14,-700.1"/>
<polygon fill="black" stroke="black" points="277.65,-703.28 288.08,-705.15 281.1,-697.18 277.65,-703.28"/>
</g>
<!-- OOOGG3 -->
<g id="node40" class="node">
<title>OOOGG3</title>
<ellipse fill="none" stroke="black" cx="316.38" cy="-666" rx="49.29" ry="18"/>
<text text-anchor="middle" x="316.38" y="-662.3" font-family="Times New Roman,serif" font-size="14.00">OOOGG3</text>
</g>
<!-- OXXGG2&#45;&gt;OOOGG3 -->
<g id="edge39" class="edge">
<title>OXXGG2&#45;&gt;OOOGG3</title>
<path fill="none" stroke="black" d="M224.24,-647.47C236.48,-649.96 250.04,-652.71 262.87,-655.32"/>
<polygon fill="black" stroke="black" points="262.46,-658.81 272.96,-657.38 263.86,-651.95 262.46,-658.81"/>
</g>
<!-- XOOGG3 -->
<g id="node45" class="node">
<title>XOOGG3</title>
<ellipse fill="none" stroke="black" cx="316.38" cy="-612" rx="48.99" ry="18"/>
<text text-anchor="middle" x="316.38" y="-608.3" font-family="Times New Roman,serif" font-size="14.00">XOOGG3</text>
</g>
<!-- OXXGG2&#45;&gt;XOOGG3 -->
<g id="edge44" class="edge">
<title>OXXGG2&#45;&gt;XOOGG3</title>
<path fill="none" stroke="black" d="M224.24,-630.53C236.6,-628.02 250.3,-625.23 263.24,-622.6"/>
<polygon fill="black" stroke="black" points="264.32,-625.95 273.42,-620.53 262.92,-619.09 264.32,-625.95"/>
</g>
<!-- XOGGG3 -->
<g id="node49" class="node">
<title>XOGGG3</title>
<ellipse fill="none" stroke="black" cx="316.38" cy="-558" rx="48.99" ry="18"/>
<text text-anchor="middle" x="316.38" y="-554.3" font-family="Times New Roman,serif" font-size="14.00">XOGGG3</text>
</g>
<!-- OXXGG2&#45;&gt;XOGGG3 -->
<g id="edge48" class="edge">
<title>OXXGG2&#45;&gt;XOGGG3</title>
<path fill="none" stroke="black" d="M205.99,-623.49C222.8,-612.48 246.08,-597.5 266.98,-585 270.9,-582.66 275.02,-580.26 279.14,-577.9"/>
<polygon fill="black" stroke="black" points="281.1,-580.82 288.08,-572.85 277.65,-574.72 281.1,-580.82"/>
</g>
<!-- belle -->
<g id="node57" class="node">
<title>belle</title>
<ellipse fill="none" stroke="black" cx="316.38" cy="-504" rx="27.1" ry="18"/>
<text text-anchor="middle" x="316.38" y="-500.3" font-family="Times New Roman,serif" font-size="14.00">belle</text>
</g>
<!-- OXXGG2&#45;&gt;belle -->
<g id="edge56" class="edge">
<title>OXXGG2&#45;&gt;belle</title>
<path fill="none" stroke="black" d="M193.34,-621.15C207.85,-598.15 235.53,-557.93 266.98,-531 272.29,-526.46 278.47,-522.32 284.61,-518.73"/>
<polygon fill="black" stroke="black" points="286.39,-521.74 293.47,-513.86 283.02,-515.61 286.39,-521.74"/>
</g>
<!-- boule -->
<g id="node20" class="node">
<title>boule</title>
<ellipse fill="none" stroke="black" cx="450.52" cy="-720" rx="30.59" ry="18"/>
<text text-anchor="middle" x="450.52" y="-716.3" font-family="Times New Roman,serif" font-size="14.00">boule</text>
</g>
<!-- GOOGG3&#45;&gt;boule -->
<g id="edge19" class="edge">
<title>GOOGG3&#45;&gt;boule</title>
<path fill="none" stroke="black" d="M365.83,-720C380.27,-720 395.92,-720 409.74,-720"/>
<polygon fill="black" stroke="black" points="409.9,-723.5 419.9,-720 409.9,-716.5 409.9,-723.5"/>
</g>
<!-- amble -->
<g id="node22" class="node">
<title>amble</title>
<ellipse fill="none" stroke="black" cx="450.52" cy="-1368" rx="32.49" ry="18"/>
<text text-anchor="middle" x="450.52" y="-1364.3" font-family="Times New Roman,serif" font-size="14.00">amble</text>
</g>
<!-- GGXGG3&#45;&gt;amble -->
<g id="edge21" class="edge">
<title>GGXGG3&#45;&gt;amble</title>
<path fill="none" stroke="black" d="M365.46,-1368C379.2,-1368 394.07,-1368 407.42,-1368"/>
<polygon fill="black" stroke="black" points="407.76,-1371.5 417.76,-1368 407.76,-1364.5 407.76,-1371.5"/>
</g>
<!-- large -->
<g id="node24" class="node">
<title>large</title>
<ellipse fill="none" stroke="black" cx="316.38" cy="-450" rx="27.9" ry="18"/>
<text text-anchor="middle" x="316.38" y="-446.3" font-family="Times New Roman,serif" font-size="14.00">large</text>
</g>
<!-- OGOOG2&#45;&gt;large -->
<g id="edge23" class="edge">
<title>OGOOG2&#45;&gt;large</title>
<path fill="none" stroke="black" d="M215.41,-490.65C235.87,-482.33 262.11,-471.66 282.56,-463.34"/>
<polygon fill="black" stroke="black" points="284.15,-466.48 292.09,-459.47 281.51,-459.99 284.15,-466.48"/>
</g>
<!-- GOGGG3 -->
<g id="node27" class="node">
<title>GOGGG3</title>
<ellipse fill="none" stroke="black" cx="316.38" cy="-396" rx="49.29" ry="18"/>
<text text-anchor="middle" x="316.38" y="-392.3" font-family="Times New Roman,serif" font-size="14.00">GOGGG3</text>
</g>
<!-- OXOOG2&#45;&gt;GOGGG3 -->
<g id="edge26" class="edge">
<title>OXOOG2&#45;&gt;GOGGG3</title>
<path fill="none" stroke="black" d="M215.07,-355.21C232.68,-362.37 254.63,-371.29 273.5,-378.97"/>
<polygon fill="black" stroke="black" points="272.19,-382.21 282.77,-382.74 274.82,-375.73 272.19,-382.21"/>
</g>
<!-- GOXGG3 -->
<g id="node29" class="node">
<title>GOXGG3</title>
<ellipse fill="none" stroke="black" cx="316.38" cy="-342" rx="48.99" ry="18"/>
<text text-anchor="middle" x="316.38" y="-338.3" font-family="Times New Roman,serif" font-size="14.00">GOXGG3</text>
</g>
<!-- OXOOG2&#45;&gt;GOXGG3 -->
<g id="edge28" class="edge">
<title>OXOOG2&#45;&gt;GOXGG3</title>
<path fill="none" stroke="black" d="M230.53,-342C239.27,-342 248.48,-342 257.48,-342"/>
<polygon fill="black" stroke="black" points="257.51,-345.5 267.51,-342 257.51,-338.5 257.51,-345.5"/>
</g>
<!-- OOXGG3 -->
<g id="node54" class="node">
<title>OOXGG3</title>
<ellipse fill="none" stroke="black" cx="316.38" cy="-288" rx="48.99" ry="18"/>
<text text-anchor="middle" x="316.38" y="-284.3" font-family="Times New Roman,serif" font-size="14.00">OOXGG3</text>
</g>
<!-- OXOOG2&#45;&gt;OOXGG3 -->
<g id="edge53" class="edge">
<title>OXOOG2&#45;&gt;OOXGG3</title>
<path fill="none" stroke="black" d="M215.07,-328.79C232.68,-321.63 254.63,-312.71 273.5,-305.03"/>
<polygon fill="black" stroke="black" points="274.82,-308.27 282.77,-301.26 272.19,-301.79 274.82,-308.27"/>
</g>
<!-- ledge -->
<g id="node56" class="node">
<title>ledge</title>
<ellipse fill="none" stroke="black" cx="316.38" cy="-234" rx="29.8" ry="18"/>
<text text-anchor="middle" x="316.38" y="-230.3" font-family="Times New Roman,serif" font-size="14.00">ledge</text>
</g>
<!-- OXOOG2&#45;&gt;ledge -->
<g id="edge55" class="edge">
<title>OXOOG2&#45;&gt;ledge</title>
<path fill="none" stroke="black" d="M197.97,-324.85C214.09,-307.47 240.7,-280.44 266.98,-261 272.16,-257.17 277.94,-253.5 283.65,-250.16"/>
<polygon fill="black" stroke="black" points="285.46,-253.16 292.47,-245.22 282.04,-247.05 285.46,-253.16"/>
</g>
<!-- lodge -->
<g id="node28" class="node">
<title>lodge</title>
<ellipse fill="none" stroke="black" cx="450.52" cy="-396" rx="30.59" ry="18"/>
<text text-anchor="middle" x="450.52" y="-392.3" font-family="Times New Roman,serif" font-size="14.00">lodge</text>
</g>
<!-- GOGGG3&#45;&gt;lodge -->
<g id="edge27" class="edge">
<title>GOGGG3&#45;&gt;lodge</title>
<path fill="none" stroke="black" d="M365.83,-396C380.27,-396 395.92,-396 409.74,-396"/>
<polygon fill="black" stroke="black" points="409.9,-399.5 419.9,-396 409.9,-392.5 409.9,-399.5"/>
</g>
<!-- lunge -->
<g id="node30" class="node">
<title>lunge</title>
<ellipse fill="none" stroke="black" cx="450.52" cy="-342" rx="29.8" ry="18"/>
<text text-anchor="middle" x="450.52" y="-338.3" font-family="Times New Roman,serif" font-size="14.00">lunge</text>
</g>
<!-- GOXGG3&#45;&gt;lunge -->
<g id="edge29" class="edge">
<title>GOXGG3&#45;&gt;lunge</title>
<path fill="none" stroke="black" d="M365.46,-342C380.16,-342 396.15,-342 410.19,-342"/>
<polygon fill="black" stroke="black" points="410.5,-345.5 420.5,-342 410.5,-338.5 410.5,-345.5"/>
</g>
<!-- XOXOG3 -->
<g id="node32" class="node">
<title>XOXOG3</title>
<ellipse fill="none" stroke="black" cx="316.38" cy="-180" rx="48.19" ry="18"/>
<text text-anchor="middle" x="316.38" y="-176.3" font-family="Times New Roman,serif" font-size="14.00">XOXOG3</text>
</g>
<!-- OGXGG2&#45;&gt;XOXOG3 -->
<g id="edge31" class="edge">
<title>OGXGG2&#45;&gt;XOXOG3</title>
<path fill="none" stroke="black" d="M224.6,-161.54C236.95,-164.05 250.61,-166.83 263.5,-169.45"/>
<polygon fill="black" stroke="black" points="263.14,-172.95 273.64,-171.51 264.53,-166.09 263.14,-172.95"/>
</g>
<!-- XOXXG3 -->
<g id="node42" class="node">
<title>XOXXG3</title>
<ellipse fill="none" stroke="black" cx="316.38" cy="-126" rx="48.19" ry="18"/>
<text text-anchor="middle" x="316.38" y="-122.3" font-family="Times New Roman,serif" font-size="14.00">XOXXG3</text>
</g>
<!-- OGXGG2&#45;&gt;XOXXG3 -->
<g id="edge41" class="edge">
<title>OGXGG2&#45;&gt;XOXXG3</title>
<path fill="none" stroke="black" d="M224.6,-144.46C236.95,-141.95 250.61,-139.17 263.5,-136.55"/>
<polygon fill="black" stroke="black" points="264.53,-139.91 273.64,-134.49 263.14,-133.05 264.53,-139.91"/>
</g>
<!-- GOXXG3 -->
<g id="node47" class="node">
<title>GOXXG3</title>
<ellipse fill="none" stroke="black" cx="316.38" cy="-72" rx="48.19" ry="18"/>
<text text-anchor="middle" x="316.38" y="-68.3" font-family="Times New Roman,serif" font-size="14.00">GOXXG3</text>
</g>
<!-- OGXGG2&#45;&gt;GOXXG3 -->
<g id="edge46" class="edge">
<title>OGXGG2&#45;&gt;GOXXG3</title>
<path fill="none" stroke="black" d="M206.36,-137.25C223.13,-126.26 246.23,-111.41 266.98,-99 270.94,-96.63 275.12,-94.2 279.29,-91.82"/>
<polygon fill="black" stroke="black" points="281.35,-94.68 288.33,-86.71 277.91,-88.58 281.35,-94.68"/>
</g>
<!-- maple -->
<g id="node33" class="node">
<title>maple</title>
<ellipse fill="none" stroke="black" cx="450.52" cy="-207" rx="32.49" ry="18"/>
<text text-anchor="middle" x="450.52" y="-203.3" font-family="Times New Roman,serif" font-size="14.00">maple</text>
</g>
<!-- XOXOG3&#45;&gt;maple -->
<g id="edge32" class="edge">
<title>XOXOG3&#45;&gt;maple</title>
<path fill="none" stroke="black" d="M358.83,-188.47C374.97,-191.77 393.4,-195.53 409.41,-198.81"/>
<polygon fill="black" stroke="black" points="409.04,-202.3 419.54,-200.87 410.44,-195.44 409.04,-202.3"/>
</g>
<!-- value -->
<g id="node35" class="node">
<title>value</title>
<ellipse fill="none" stroke="black" cx="450.52" cy="-936" rx="29.5" ry="18"/>
<text text-anchor="middle" x="450.52" y="-932.3" font-family="Times New Roman,serif" font-size="14.00">value</text>
</g>
<!-- XGGOG3&#45;&gt;value -->
<g id="edge34" class="edge">
<title>XGGOG3&#45;&gt;value</title>
<path fill="none" stroke="black" d="M365.46,-936C380.28,-936 396.4,-936 410.53,-936"/>
<polygon fill="black" stroke="black" points="410.89,-939.5 420.89,-936 410.89,-932.5 410.89,-939.5"/>
</g>
<!-- bugle -->
<g id="node37" class="node">
<title>bugle</title>
<ellipse fill="none" stroke="black" cx="316.38" cy="-18" rx="30.59" ry="18"/>
<text text-anchor="middle" x="316.38" y="-14.3" font-family="Times New Roman,serif" font-size="14.00">bugle</text>
</g>
<!-- OXGGG2&#45;&gt;bugle -->
<g id="edge36" class="edge">
<title>OXGGG2&#45;&gt;bugle</title>
<path fill="none" stroke="black" d="M224.6,-36.46C241.47,-33.03 260.77,-29.1 277.22,-25.76"/>
<polygon fill="black" stroke="black" points="277.95,-29.18 287.05,-23.76 276.56,-22.32 277.95,-29.18"/>
</g>
<!-- whale -->
<g id="node39" class="node">
<title>whale</title>
<ellipse fill="none" stroke="black" cx="450.52" cy="-1314" rx="31.4" ry="18"/>
<text text-anchor="middle" x="450.52" y="-1310.3" font-family="Times New Roman,serif" font-size="14.00">whale</text>
</g>
<!-- OXXGG3&#45;&gt;whale -->
<g id="edge38" class="edge">
<title>OXXGG3&#45;&gt;whale</title>
<path fill="none" stroke="black" d="M364.71,-1314C379.11,-1314 394.8,-1314 408.73,-1314"/>
<polygon fill="black" stroke="black" points="408.99,-1317.5 418.99,-1314 408.99,-1310.5 408.99,-1317.5"/>
</g>
<!-- noble -->
<g id="node41" class="node">
<title>noble</title>
<ellipse fill="none" stroke="black" cx="450.52" cy="-666" rx="30.59" ry="18"/>
<text text-anchor="middle" x="450.52" y="-662.3" font-family="Times New Roman,serif" font-size="14.00">noble</text>
</g>
<!-- OOOGG3&#45;&gt;noble -->
<g id="edge40" class="edge">
<title>OOOGG3&#45;&gt;noble</title>
<path fill="none" stroke="black" d="M365.83,-666C380.27,-666 395.92,-666 409.74,-666"/>
<polygon fill="black" stroke="black" points="409.9,-669.5 419.9,-666 409.9,-662.5 409.9,-669.5"/>
</g>
<!-- OGXGG4 -->
<g id="node43" class="node">
<title>OGXGG4</title>
<ellipse fill="none" stroke="black" cx="450.52" cy="-153" rx="48.99" ry="18"/>
<text text-anchor="middle" x="450.52" y="-149.3" font-family="Times New Roman,serif" font-size="14.00">OGXGG4</text>
</g>
<!-- XOXXG3&#45;&gt;OGXGG4 -->
<g id="edge42" class="edge">
<title>XOXXG3&#45;&gt;OGXGG4</title>
<path fill="none" stroke="black" d="M358.83,-134.47C371.01,-136.96 384.5,-139.71 397.26,-142.32"/>
<polygon fill="black" stroke="black" points="396.81,-145.8 407.31,-144.38 398.21,-138.94 396.81,-145.8"/>
</g>
<!-- ladle -->
<g id="node53" class="node">
<title>ladle</title>
<ellipse fill="none" stroke="black" cx="450.52" cy="-99" rx="27.1" ry="18"/>
<text text-anchor="middle" x="450.52" y="-95.3" font-family="Times New Roman,serif" font-size="14.00">ladle</text>
</g>
<!-- XOXXG3&#45;&gt;ladle -->
<g id="edge52" class="edge">
<title>XOXXG3&#45;&gt;ladle</title>
<path fill="none" stroke="black" d="M358.83,-117.53C376.5,-113.92 396.92,-109.75 413.9,-106.28"/>
<polygon fill="black" stroke="black" points="414.88,-109.65 423.98,-104.22 413.48,-102.79 414.88,-109.65"/>
</g>
<!-- table -->
<g id="node44" class="node">
<title>table</title>
<ellipse fill="none" stroke="black" cx="563.21" cy="-153" rx="27.9" ry="18"/>
<text text-anchor="middle" x="563.21" y="-149.3" font-family="Times New Roman,serif" font-size="14.00">table</text>
</g>
<!-- OGXGG4&#45;&gt;table -->
<g id="edge43" class="edge">
<title>OGXGG4&#45;&gt;table</title>
<path fill="none" stroke="black" d="M499.43,-153C508.06,-153 516.93,-153 525.19,-153"/>
<polygon fill="black" stroke="black" points="525.26,-156.5 535.26,-153 525.26,-149.5 525.26,-156.5"/>
</g>
<!-- whole -->
<g id="node46" class="node">
<title>whole</title>
<ellipse fill="none" stroke="black" cx="450.52" cy="-612" rx="32.49" ry="18"/>
<text text-anchor="middle" x="450.52" y="-608.3" font-family="Times New Roman,serif" font-size="14.00">whole</text>
</g>
<!-- XOOGG3&#45;&gt;whole -->
<g id="edge45" class="edge">
<title>XOOGG3&#45;&gt;whole</title>
<path fill="none" stroke="black" d="M365.46,-612C379.2,-612 394.07,-612 407.42,-612"/>
<polygon fill="black" stroke="black" points="407.76,-615.5 417.76,-612 407.76,-608.5 407.76,-615.5"/>
</g>
<!-- fable -->
<g id="node48" class="node">
<title>fable</title>
<ellipse fill="none" stroke="black" cx="450.52" cy="-45" rx="28.7" ry="18"/>
<text text-anchor="middle" x="450.52" y="-41.3" font-family="Times New Roman,serif" font-size="14.00">fable</text>
</g>
<!-- GOXXG3&#45;&gt;fable -->
<g id="edge47" class="edge">
<title>GOXXG3&#45;&gt;fable</title>
<path fill="none" stroke="black" d="M358.83,-63.53C376.25,-59.97 396.34,-55.87 413.18,-52.43"/>
<polygon fill="black" stroke="black" points="414.09,-55.81 423.19,-50.38 412.69,-48.95 414.09,-55.81"/>
</g>
<!-- tulle -->
<g id="node50" class="node">
<title>tulle</title>
<ellipse fill="none" stroke="black" cx="450.52" cy="-558" rx="27" ry="18"/>
<text text-anchor="middle" x="450.52" y="-554.3" font-family="Times New Roman,serif" font-size="14.00">tulle</text>
</g>
<!-- XOGGG3&#45;&gt;tulle -->
<g id="edge49" class="edge">
<title>XOGGG3&#45;&gt;tulle</title>
<path fill="none" stroke="black" d="M365.46,-558C381.13,-558 398.27,-558 412.96,-558"/>
<polygon fill="black" stroke="black" points="413.17,-561.5 423.17,-558 413.17,-554.5 413.17,-561.5"/>
</g>
<!-- ankle -->
<g id="node52" class="node">
<title>ankle</title>
<ellipse fill="none" stroke="black" cx="450.52" cy="-1260" rx="29.5" ry="18"/>
<text text-anchor="middle" x="450.52" y="-1256.3" font-family="Times New Roman,serif" font-size="14.00">ankle</text>
</g>
<!-- GXXGG3&#45;&gt;ankle -->
<g id="edge51" class="edge">
<title>GXXGG3&#45;&gt;ankle</title>
<path fill="none" stroke="black" d="M364.71,-1260C379.85,-1260 396.41,-1260 410.86,-1260"/>
<polygon fill="black" stroke="black" points="410.95,-1263.5 420.95,-1260 410.95,-1256.5 410.95,-1263.5"/>
</g>
<!-- bulge -->
<g id="node55" class="node">
<title>bulge</title>
<ellipse fill="none" stroke="black" cx="450.52" cy="-288" rx="30.59" ry="18"/>
<text text-anchor="middle" x="450.52" y="-284.3" font-family="Times New Roman,serif" font-size="14.00">bulge</text>
</g>
<!-- OOXGG3&#45;&gt;bulge -->
<g id="edge54" class="edge">
<title>OOXGG3&#45;&gt;bulge</title>
<path fill="none" stroke="black" d="M365.46,-288C379.92,-288 395.64,-288 409.52,-288"/>
<polygon fill="black" stroke="black" points="409.73,-291.5 419.73,-288 409.73,-284.5 409.73,-291.5"/>
</g>
<!-- lathe -->
<g id="node59" class="node">
<title>lathe</title>
<ellipse fill="none" stroke="black" cx="450.52" cy="-882" rx="27.1" ry="18"/>
<text text-anchor="middle" x="450.52" y="-878.3" font-family="Times New Roman,serif" font-size="14.00">lathe</text>
</g>
<!-- OGOXG3&#45;&gt;lathe -->
<g id="edge58" class="edge">
<title>OGOXG3&#45;&gt;lathe</title>
<path fill="none" stroke="black" d="M365.46,-882C381.13,-882 398.27,-882 412.96,-882"/>
<polygon fill="black" stroke="black" points="413.17,-885.5 423.17,-882 413.17,-878.5 413.17,-885.5"/>
</g>
<!-- latte -->
<g id="node61" class="node">
<title>latte</title>
<ellipse fill="none" stroke="black" cx="450.52" cy="-828" rx="27" ry="18"/>
<text text-anchor="middle" x="450.52" y="-824.3" font-family="Times New Roman,serif" font-size="14.00">latte</text>
</g>
<!-- XGOXG3&#45;&gt;latte -->
<g id="edge60" class="edge">
<title>XGOXG3&#45;&gt;latte</title>
<path fill="none" stroke="black" d="M364.71,-828C380.56,-828 397.98,-828 412.89,-828"/>
<polygon fill="black" stroke="black" points="413.24,-831.5 423.24,-828 413.24,-824.5 413.24,-831.5"/>
</g>
</g>
</svg>
