<?xml version="1.0" encoding="UTF-8" standalone="no"?>
<!DOCTYPE svg PUBLIC "-//W3C//DTD SVG 1.1//EN"
 "http://www.w3.org/Graphics/SVG/1.1/DTD/svg11.dtd">
<!-- Generated by graphviz version 2.50.0 (20211204.2007)
 -->
<!-- Pages: 1 -->
<svg width="461pt" height="354pt"
 viewBox="0.00 0.00 461.17 354.00" xmlns="http://www.w3.org/2000/svg" xmlns:xlink="http://www.w3.org/1999/xlink">
<g id="graph0" class="graph" transform="scale(1 1) rotate(0) translate(4 350)">
<polygon fill="white" stroke="transparent" points="-4,4 -4,-350 457.17,-350 457.17,4 -4,4"/>
<!-- GOGXX1 -->
<g id="node1" class="node">
<title>GOGXX1</title>
<ellipse fill="none" stroke="black" cx="48.1" cy="-153" rx="48.19" ry="18"/>
<text text-anchor="middle" x="48.1" y="-149.3" font-family="Times New Roman,serif" font-size="14.00">GOGXX1</text>
</g>
<!-- GXGOX2 -->
<g id="node2" class="node">
<title>GXGOX2</title>
<ellipse fill="none" stroke="black" cx="180.94" cy="-315" rx="48.19" ry="18"/>
<text text-anchor="middle" x="180.94" y="-311.3" font-family="Times New Roman,serif" font-size="14.00">GXGOX2</text>
</g>
<!-- GOGXX1&#45;&gt;GXGOX2 -->
<g id="edge1" class="edge">
<title>GOGXX1&#45;&gt;GXGOX2</title>
<path fill="none" stroke="black" d="M61.98,-170.49C78.02,-192.09 106.44,-229.8 132.19,-261 140.2,-270.7 149.28,-281.12 157.36,-290.18"/>
<polygon fill="black" stroke="black" points="154.87,-292.64 164.15,-297.75 160.08,-287.97 154.87,-292.64"/>
</g>
<!-- GXGGX2 -->
<g id="node4" class="node">
<title>GXGGX2</title>
<ellipse fill="none" stroke="black" cx="180.94" cy="-234" rx="48.19" ry="18"/>
<text text-anchor="middle" x="180.94" y="-230.3" font-family="Times New Roman,serif" font-size="14.00">GXGGX2</text>
</g>
<!-- GOGXX1&#45;&gt;GXGGX2 -->
<g id="edge3" class="edge">
<title>GOGXX1&#45;&gt;GXGGX2</title>
<path fill="none" stroke="black" d="M72.49,-168.75C89.01,-179.74 111.75,-194.59 132.19,-207 136.05,-209.34 140.12,-211.74 144.18,-214.1"/>
<polygon fill="black" stroke="black" points="142.58,-217.22 153,-219.15 146.06,-211.14 142.58,-217.22"/>
</g>
<!-- GGGGX2 -->
<g id="node8" class="node">
<title>GGGGX2</title>
<ellipse fill="none" stroke="black" cx="180.94" cy="-180" rx="48.99" ry="18"/>
<text text-anchor="middle" x="180.94" y="-176.3" font-family="Times New Roman,serif" font-size="14.00">GGGGX2</text>
</g>
<!-- GOGXX1&#45;&gt;GGGGX2 -->
<g id="edge7" class="edge">
<title>GOGXX1&#45;&gt;GGGGX2</title>
<path fill="none" stroke="black" d="M90.49,-161.54C102.43,-164.01 115.6,-166.72 128.08,-169.3"/>
<polygon fill="black" stroke="black" points="127.41,-172.73 137.91,-171.33 128.82,-165.88 127.41,-172.73"/>
</g>
<!-- spilt -->
<g id="node10" class="node">
<title>spilt</title>
<ellipse fill="none" stroke="black" cx="180.94" cy="-126" rx="27" ry="18"/>
<text text-anchor="middle" x="180.94" y="-122.3" font-family="Times New Roman,serif" font-size="14.00">spilt</text>
</g>
<!-- GOGXX1&#45;&gt;spilt -->
<g id="edge9" class="edge">
<title>GOGXX1&#45;&gt;spilt</title>
<path fill="none" stroke="black" d="M90.49,-144.46C107.98,-140.85 128.12,-136.69 144.86,-133.24"/>
<polygon fill="black" stroke="black" points="145.7,-136.64 154.79,-131.19 144.29,-129.78 145.7,-136.64"/>
</g>
<!-- GXGGO2 -->
<g id="node11" class="node">
<title>GXGGO2</title>
<ellipse fill="none" stroke="black" cx="180.94" cy="-72" rx="48.99" ry="18"/>
<text text-anchor="middle" x="180.94" y="-68.3" font-family="Times New Roman,serif" font-size="14.00">GXGGO2</text>
</g>
<!-- GOGXX1&#45;&gt;GXGGO2 -->
<g id="edge10" class="edge">
<title>GOGXX1&#45;&gt;GXGGO2</title>
<path fill="none" stroke="black" d="M72.49,-137.25C89.01,-126.26 111.75,-111.41 132.19,-99 136.05,-96.66 140.12,-94.26 144.18,-91.9"/>
<polygon fill="black" stroke="black" points="146.06,-94.86 153,-86.85 142.58,-88.78 146.06,-94.86"/>
</g>
<!-- GXGGG2 -->
<g id="node13" class="node">
<title>GXGGG2</title>
<ellipse fill="none" stroke="black" cx="180.94" cy="-18" rx="48.99" ry="18"/>
<text text-anchor="middle" x="180.94" y="-14.3" font-family="Times New Roman,serif" font-size="14.00">GXGGG2</text>
</g>
<!-- GOGXX1&#45;&gt;GXGGG2 -->
<g id="edge12" class="edge">
<title>GOGXX1&#45;&gt;GXGGG2</title>
<path fill="none" stroke="black" d="M59.64,-135.16C73.89,-112.18 101.1,-71.98 132.19,-45 135.18,-42.41 138.46,-39.94 141.85,-37.64"/>
<polygon fill="black" stroke="black" points="143.83,-40.53 150.42,-32.24 140.1,-34.6 143.83,-40.53"/>
</g>
<!-- swirl -->
<g id="node3" class="node">
<title>swirl</title>
<ellipse fill="none" stroke="black" cx="314.43" cy="-328" rx="27.9" ry="18"/>
<text text-anchor="middle" x="314.43" y="-324.3" font-family="Times New Roman,serif" font-size="14.00">swirl</text>
</g>
<!-- GXGOX2&#45;&gt;swirl -->
<g id="edge2" class="edge">
<title>GXGOX2&#45;&gt;swirl</title>
<path fill="none" stroke="black" d="M227.56,-319.51C243.59,-321.1 261.39,-322.85 276.6,-324.36"/>
<polygon fill="black" stroke="black" points="276.38,-327.85 286.67,-325.35 277.06,-320.89 276.38,-327.85"/>
</g>
<!-- skill -->
<g id="node5" class="node">
<title>skill</title>
<ellipse fill="none" stroke="black" cx="314.43" cy="-274" rx="27" ry="18"/>
<text text-anchor="middle" x="314.43" y="-270.3" font-family="Times New Roman,serif" font-size="14.00">skill</text>
</g>
<!-- GXGGX2&#45;&gt;skill -->
<g id="edge4" class="edge">
<title>GXGGX2&#45;&gt;skill</title>
<path fill="none" stroke="black" d="M218.91,-245.25C238.01,-251.06 261.15,-258.1 279.75,-263.75"/>
<polygon fill="black" stroke="black" points="278.97,-267.18 289.56,-266.74 281.01,-260.48 278.97,-267.18"/>
</g>
<!-- GXGGG3 -->
<g id="node6" class="node">
<title>GXGGG3</title>
<ellipse fill="none" stroke="black" cx="314.43" cy="-220" rx="48.99" ry="18"/>
<text text-anchor="middle" x="314.43" y="-216.3" font-family="Times New Roman,serif" font-size="14.00">GXGGG3</text>
</g>
<!-- GXGGX2&#45;&gt;GXGGG3 -->
<g id="edge5" class="edge">
<title>GXGGX2&#45;&gt;GXGGG3</title>
<path fill="none" stroke="black" d="M227.56,-229.14C237.14,-228.12 247.35,-227.04 257.26,-225.98"/>
<polygon fill="black" stroke="black" points="257.87,-229.44 267.44,-224.9 257.13,-222.47 257.87,-229.44"/>
</g>
<!-- swill -->
<g id="node7" class="node">
<title>swill</title>
<ellipse fill="none" stroke="black" cx="426.17" cy="-220" rx="27" ry="18"/>
<text text-anchor="middle" x="426.17" y="-216.3" font-family="Times New Roman,serif" font-size="14.00">swill</text>
</g>
<!-- GXGGG3&#45;&gt;swill -->
<g id="edge6" class="edge">
<title>GXGGG3&#45;&gt;swill</title>
<path fill="none" stroke="black" d="M363.25,-220C371.86,-220 380.7,-220 388.92,-220"/>
<polygon fill="black" stroke="black" points="388.92,-223.5 398.92,-220 388.92,-216.5 388.92,-223.5"/>
</g>
<!-- spill -->
<g id="node9" class="node">
<title>spill</title>
<ellipse fill="none" stroke="black" cx="314.43" cy="-166" rx="27" ry="18"/>
<text text-anchor="middle" x="314.43" y="-162.3" font-family="Times New Roman,serif" font-size="14.00">spill</text>
</g>
<!-- GGGGX2&#45;&gt;spill -->
<g id="edge8" class="edge">
<title>GGGGX2&#45;&gt;spill</title>
<path fill="none" stroke="black" d="M227.93,-175.1C244.17,-173.37 262.19,-171.45 277.49,-169.83"/>
<polygon fill="black" stroke="black" points="278.01,-173.29 287.58,-168.75 277.27,-166.33 278.01,-173.29"/>
</g>
<!-- still -->
<g id="node12" class="node">
<title>still</title>
<ellipse fill="none" stroke="black" cx="314.43" cy="-72" rx="27" ry="18"/>
<text text-anchor="middle" x="314.43" y="-68.3" font-family="Times New Roman,serif" font-size="14.00">still</text>
</g>
<!-- GXGGO2&#45;&gt;still -->
<g id="edge11" class="edge">
<title>GXGGO2&#45;&gt;still</title>
<path fill="none" stroke="black" d="M229.78,-72C245.38,-72 262.43,-72 277.05,-72"/>
<polygon fill="black" stroke="black" points="277.21,-75.5 287.21,-72 277.21,-68.5 277.21,-75.5"/>
</g>
<!-- stilt -->
<g id="node14" class="node">
<title>stilt</title>
<ellipse fill="none" stroke="black" cx="314.43" cy="-18" rx="27" ry="18"/>
<text text-anchor="middle" x="314.43" y="-14.3" font-family="Times New Roman,serif" font-size="14.00">stilt</text>
</g>
<!-- GXGGG2&#45;&gt;stilt -->
<g id="edge13" class="edge">
<title>GXGGG2&#45;&gt;stilt</title>
<path fill="none" stroke="black" d="M229.78,-18C245.38,-18 262.43,-18 277.05,-18"/>
<polygon fill="black" stroke="black" points="277.21,-21.5 287.21,-18 277.21,-14.5 277.21,-21.5"/>
</g>
</g>
</svg>
