<?xml version="1.0" encoding="UTF-8" standalone="no"?>
<!DOCTYPE svg PUBLIC "-//W3C//DTD SVG 1.1//EN"
 "http://www.w3.org/Graphics/SVG/1.1/DTD/svg11.dtd">
<!-- Generated by graphviz version 2.50.0 (20211204.2007)
 -->
<!-- Pages: 1 -->
<svg width="333pt" height="98pt"
 viewBox="0.00 0.00 333.48 98.00" xmlns="http://www.w3.org/2000/svg" xmlns:xlink="http://www.w3.org/1999/xlink">
<g id="graph0" class="graph" transform="scale(1 1) rotate(0) translate(4 94)">
<polygon fill="white" stroke="transparent" points="-4,4 -4,-94 329.48,-94 329.48,4 -4,4"/>
<!-- GGXXG1 -->
<g id="node1" class="node">
<title>GGXXG1</title>
<ellipse fill="none" stroke="black" cx="48.1" cy="-45" rx="48.19" ry="18"/>
<text text-anchor="middle" x="48.1" y="-41.3" font-family="Times New Roman,serif" font-size="14.00">GGXXG1</text>
</g>
<!-- slate -->
<g id="node2" class="node">
<title>slate</title>
<ellipse fill="none" stroke="black" cx="180.29" cy="-72" rx="27" ry="18"/>
<text text-anchor="middle" x="180.29" y="-68.3" font-family="Times New Roman,serif" font-size="14.00">slate</text>
</g>
<!-- GGXXG1&#45;&gt;slate -->
<g id="edge1" class="edge">
<title>GGXXG1&#45;&gt;slate</title>
<path fill="none" stroke="black" d="M90.65,-53.62C108.03,-57.22 127.99,-61.36 144.57,-64.8"/>
<polygon fill="black" stroke="black" points="143.9,-68.24 154.4,-66.84 145.32,-61.38 143.9,-68.24"/>
</g>
<!-- GGXXG2 -->
<g id="node3" class="node">
<title>GGXXG2</title>
<ellipse fill="none" stroke="black" cx="180.29" cy="-18" rx="48.19" ry="18"/>
<text text-anchor="middle" x="180.29" y="-14.3" font-family="Times New Roman,serif" font-size="14.00">GGXXG2</text>
</g>
<!-- GGXXG1&#45;&gt;GGXXG2 -->
<g id="edge2" class="edge">
<title>GGXXG1&#45;&gt;GGXXG2</title>
<path fill="none" stroke="black" d="M90.65,-36.38C102.39,-33.95 115.32,-31.27 127.58,-28.72"/>
<polygon fill="black" stroke="black" points="128.6,-32.09 137.68,-26.63 127.18,-25.23 128.6,-32.09"/>
</g>
<!-- slope -->
<g id="node4" class="node">
<title>slope</title>
<ellipse fill="none" stroke="black" cx="294.93" cy="-18" rx="30.59" ry="18"/>
<text text-anchor="middle" x="294.93" y="-14.3" font-family="Times New Roman,serif" font-size="14.00">slope</text>
</g>
<!-- GGXXG2&#45;&gt;slope -->
<g id="edge3" class="edge">
<title>GGXXG2&#45;&gt;slope</title>
<path fill="none" stroke="black" d="M228.41,-18C236.97,-18 245.82,-18 254.15,-18"/>
<polygon fill="black" stroke="black" points="254.35,-21.5 264.35,-18 254.35,-14.5 254.35,-21.5"/>
</g>
</g>
</svg>
