<?xml version="1.0" encoding="UTF-8" standalone="no"?>
<!DOCTYPE svg PUBLIC "-//W3C//DTD SVG 1.1//EN"
 "http://www.w3.org/Graphics/SVG/1.1/DTD/svg11.dtd">
<!-- Generated by graphviz version 2.50.0 (20211204.2007)
 -->
<!-- Pages: 1 -->
<svg width="471pt" height="422pt"
 viewBox="0.00 0.00 470.87 422.00" xmlns="http://www.w3.org/2000/svg" xmlns:xlink="http://www.w3.org/1999/xlink">
<g id="graph0" class="graph" transform="scale(1 1) rotate(0) translate(4 418)">
<polygon fill="white" stroke="transparent" points="-4,4 -4,-418 466.87,-418 466.87,4 -4,4"/>
<!-- XXGGX1 -->
<g id="node1" class="node">
<title>XXGGX1</title>
<ellipse fill="none" stroke="black" cx="48.1" cy="-113" rx="48.19" ry="18"/>
<text text-anchor="middle" x="48.1" y="-109.3" font-family="Times New Roman,serif" font-size="14.00">XXGGX1</text>
</g>
<!-- XGGGG2 -->
<g id="node2" class="node">
<title>XGGGG2</title>
<ellipse fill="none" stroke="black" cx="180.94" cy="-315" rx="48.99" ry="18"/>
<text text-anchor="middle" x="180.94" y="-311.3" font-family="Times New Roman,serif" font-size="14.00">XGGGG2</text>
</g>
<!-- XXGGX1&#45;&gt;XGGGG2 -->
<g id="edge1" class="edge">
<title>XXGGX1&#45;&gt;XGGGG2</title>
<path fill="none" stroke="black" d="M60.48,-130.57C83.53,-166.16 135.85,-246.93 162.95,-288.78"/>
<polygon fill="black" stroke="black" points="160.11,-290.83 168.49,-297.32 165.99,-287.03 160.11,-290.83"/>
</g>
<!-- XXGGG2 -->
<g id="node5" class="node">
<title>XXGGG2</title>
<ellipse fill="none" stroke="black" cx="180.94" cy="-153" rx="48.19" ry="18"/>
<text text-anchor="middle" x="180.94" y="-149.3" font-family="Times New Roman,serif" font-size="14.00">XXGGG2</text>
</g>
<!-- XXGGX1&#45;&gt;XXGGG2 -->
<g id="edge4" class="edge">
<title>XXGGX1&#45;&gt;XXGGG2</title>
<path fill="none" stroke="black" d="M85.89,-124.25C100.52,-128.72 117.54,-133.92 133.04,-138.66"/>
<polygon fill="black" stroke="black" points="132.38,-142.12 142.97,-141.7 134.43,-135.43 132.38,-142.12"/>
</g>
<!-- XXGGX2 -->
<g id="node8" class="node">
<title>XXGGX2</title>
<ellipse fill="none" stroke="black" cx="180.94" cy="-86" rx="48.19" ry="18"/>
<text text-anchor="middle" x="180.94" y="-82.3" font-family="Times New Roman,serif" font-size="14.00">XXGGX2</text>
</g>
<!-- XXGGX1&#45;&gt;XXGGX2 -->
<g id="edge7" class="edge">
<title>XXGGX1&#45;&gt;XXGGX2</title>
<path fill="none" stroke="black" d="M90.49,-104.46C102.55,-101.97 115.86,-99.22 128.45,-96.62"/>
<polygon fill="black" stroke="black" points="129.27,-100.03 138.36,-94.58 127.86,-93.17 129.27,-100.03"/>
</g>
<!-- brick -->
<g id="node16" class="node">
<title>brick</title>
<ellipse fill="none" stroke="black" cx="180.94" cy="-32" rx="29.5" ry="18"/>
<text text-anchor="middle" x="180.94" y="-28.3" font-family="Times New Roman,serif" font-size="14.00">brick</text>
</g>
<!-- XXGGX1&#45;&gt;brick -->
<g id="edge15" class="edge">
<title>XXGGX1&#45;&gt;brick</title>
<path fill="none" stroke="black" d="M72.49,-97.25C89.01,-86.26 111.75,-71.41 132.19,-59 137.75,-55.63 143.73,-52.13 149.53,-48.83"/>
<polygon fill="black" stroke="black" points="151.4,-51.79 158.38,-43.82 147.96,-45.69 151.4,-51.79"/>
</g>
<!-- OGXOX3 -->
<g id="node3" class="node">
<title>OGXOX3</title>
<ellipse fill="none" stroke="black" cx="313.78" cy="-396" rx="48.19" ry="18"/>
<text text-anchor="middle" x="313.78" y="-392.3" font-family="Times New Roman,serif" font-size="14.00">OGXOX3</text>
</g>
<!-- XGGGG2&#45;&gt;OGXOX3 -->
<g id="edge2" class="edge">
<title>XGGGG2&#45;&gt;OGXOX3</title>
<path fill="none" stroke="black" d="M205.55,-330.7C222.22,-341.65 245.14,-356.5 265.68,-369 269.5,-371.32 273.52,-373.71 277.53,-376.06"/>
<polygon fill="black" stroke="black" points="275.83,-379.12 286.23,-381.1 279.34,-373.06 275.83,-379.12"/>
</g>
<!-- GGXXX3 -->
<g id="node10" class="node">
<title>GGXXX3</title>
<ellipse fill="none" stroke="black" cx="313.78" cy="-342" rx="48.19" ry="18"/>
<text text-anchor="middle" x="313.78" y="-338.3" font-family="Times New Roman,serif" font-size="14.00">GGXXX3</text>
</g>
<!-- XGGGG2&#45;&gt;GGXXX3 -->
<g id="edge9" class="edge">
<title>XGGGG2&#45;&gt;GGXXX3</title>
<path fill="none" stroke="black" d="M224.06,-323.69C235.85,-326.12 248.8,-328.8 261.07,-331.33"/>
<polygon fill="black" stroke="black" points="260.68,-334.82 271.19,-333.42 262.1,-327.97 260.68,-334.82"/>
</g>
<!-- OGXXO3 -->
<g id="node14" class="node">
<title>OGXXO3</title>
<ellipse fill="none" stroke="black" cx="313.78" cy="-288" rx="48.19" ry="18"/>
<text text-anchor="middle" x="313.78" y="-284.3" font-family="Times New Roman,serif" font-size="14.00">OGXXO3</text>
</g>
<!-- XGGGG2&#45;&gt;OGXXO3 -->
<g id="edge13" class="edge">
<title>XGGGG2&#45;&gt;OGXXO3</title>
<path fill="none" stroke="black" d="M224.06,-306.31C235.85,-303.88 248.8,-301.2 261.07,-298.67"/>
<polygon fill="black" stroke="black" points="262.1,-302.03 271.19,-296.58 260.68,-295.18 262.1,-302.03"/>
</g>
<!-- prick -->
<g id="node4" class="node">
<title>prick</title>
<ellipse fill="none" stroke="black" cx="430.37" cy="-396" rx="29.5" ry="18"/>
<text text-anchor="middle" x="430.37" y="-392.3" font-family="Times New Roman,serif" font-size="14.00">prick</text>
</g>
<!-- OGXOX3&#45;&gt;prick -->
<g id="edge3" class="edge">
<title>OGXOX3&#45;&gt;prick</title>
<path fill="none" stroke="black" d="M362.05,-396C371.64,-396 381.61,-396 390.85,-396"/>
<polygon fill="black" stroke="black" points="390.91,-399.5 400.91,-396 390.91,-392.5 390.91,-399.5"/>
</g>
<!-- GGGXX3 -->
<g id="node6" class="node">
<title>GGGXX3</title>
<ellipse fill="none" stroke="black" cx="313.78" cy="-234" rx="48.19" ry="18"/>
<text text-anchor="middle" x="313.78" y="-230.3" font-family="Times New Roman,serif" font-size="14.00">GGGXX3</text>
</g>
<!-- XXGGG2&#45;&gt;GGGXX3 -->
<g id="edge5" class="edge">
<title>XXGGG2&#45;&gt;GGGXX3</title>
<path fill="none" stroke="black" d="M205.55,-168.7C222.22,-179.65 245.14,-194.5 265.68,-207 269.5,-209.32 273.52,-211.71 277.53,-214.06"/>
<polygon fill="black" stroke="black" points="275.83,-217.12 286.23,-219.1 279.34,-211.06 275.83,-217.12"/>
</g>
<!-- XXGXX3 -->
<g id="node17" class="node">
<title>XXGXX3</title>
<ellipse fill="none" stroke="black" cx="313.78" cy="-180" rx="47.39" ry="18"/>
<text text-anchor="middle" x="313.78" y="-176.3" font-family="Times New Roman,serif" font-size="14.00">XXGXX3</text>
</g>
<!-- XXGGG2&#45;&gt;XXGXX3 -->
<g id="edge16" class="edge">
<title>XXGGG2&#45;&gt;XXGXX3</title>
<path fill="none" stroke="black" d="M223.34,-161.54C235.51,-164.05 248.96,-166.83 261.66,-169.45"/>
<polygon fill="black" stroke="black" points="261.15,-172.92 271.65,-171.51 262.56,-166.06 261.15,-172.92"/>
</g>
<!-- XXGXO3 -->
<g id="node19" class="node">
<title>XXGXO3</title>
<ellipse fill="none" stroke="black" cx="313.78" cy="-126" rx="48.19" ry="18"/>
<text text-anchor="middle" x="313.78" y="-122.3" font-family="Times New Roman,serif" font-size="14.00">XXGXO3</text>
</g>
<!-- XXGGG2&#45;&gt;XXGXO3 -->
<g id="edge18" class="edge">
<title>XXGGG2&#45;&gt;XXGXO3</title>
<path fill="none" stroke="black" d="M223.34,-144.46C235.39,-141.97 248.7,-139.22 261.29,-136.62"/>
<polygon fill="black" stroke="black" points="262.11,-140.03 271.2,-134.58 260.7,-133.17 262.11,-140.03"/>
</g>
<!-- quick -->
<g id="node7" class="node">
<title>quick</title>
<ellipse fill="none" stroke="black" cx="430.37" cy="-234" rx="30.59" ry="18"/>
<text text-anchor="middle" x="430.37" y="-230.3" font-family="Times New Roman,serif" font-size="14.00">quick</text>
</g>
<!-- GGGXX3&#45;&gt;quick -->
<g id="edge6" class="edge">
<title>GGGXX3&#45;&gt;quick</title>
<path fill="none" stroke="black" d="M362.05,-234C371.18,-234 380.66,-234 389.52,-234"/>
<polygon fill="black" stroke="black" points="389.58,-237.5 399.58,-234 389.58,-230.5 389.58,-237.5"/>
</g>
<!-- juicy -->
<g id="node9" class="node">
<title>juicy</title>
<ellipse fill="none" stroke="black" cx="313.78" cy="-72" rx="27.9" ry="18"/>
<text text-anchor="middle" x="313.78" y="-68.3" font-family="Times New Roman,serif" font-size="14.00">juicy</text>
</g>
<!-- XXGGX2&#45;&gt;juicy -->
<g id="edge8" class="edge">
<title>XXGGX2&#45;&gt;juicy</title>
<path fill="none" stroke="black" d="M227.33,-81.14C243.28,-79.44 260.99,-77.54 276.14,-75.92"/>
<polygon fill="black" stroke="black" points="276.58,-79.39 286.15,-74.85 275.84,-72.43 276.58,-79.39"/>
</g>
<!-- XXGGX3 -->
<g id="node12" class="node">
<title>XXGGX3</title>
<ellipse fill="none" stroke="black" cx="313.78" cy="-18" rx="48.19" ry="18"/>
<text text-anchor="middle" x="313.78" y="-14.3" font-family="Times New Roman,serif" font-size="14.00">XXGGX3</text>
</g>
<!-- XXGGX2&#45;&gt;XXGGX3 -->
<g id="edge11" class="edge">
<title>XXGGX2&#45;&gt;XXGGX3</title>
<path fill="none" stroke="black" d="M210.01,-71.41C229.24,-61.42 254.94,-48.06 275.83,-37.2"/>
<polygon fill="black" stroke="black" points="277.5,-40.28 284.76,-32.56 274.27,-34.07 277.5,-40.28"/>
</g>
<!-- crick -->
<g id="node11" class="node">
<title>crick</title>
<ellipse fill="none" stroke="black" cx="430.37" cy="-342" rx="28.7" ry="18"/>
<text text-anchor="middle" x="430.37" y="-338.3" font-family="Times New Roman,serif" font-size="14.00">crick</text>
</g>
<!-- GGXXX3&#45;&gt;crick -->
<g id="edge10" class="edge">
<title>GGXXX3&#45;&gt;crick</title>
<path fill="none" stroke="black" d="M362.05,-342C371.81,-342 381.98,-342 391.37,-342"/>
<polygon fill="black" stroke="black" points="391.57,-345.5 401.57,-342 391.57,-338.5 391.57,-345.5"/>
</g>
<!-- which -->
<g id="node13" class="node">
<title>which</title>
<ellipse fill="none" stroke="black" cx="430.37" cy="-18" rx="32.49" ry="18"/>
<text text-anchor="middle" x="430.37" y="-14.3" font-family="Times New Roman,serif" font-size="14.00">which</text>
</g>
<!-- XXGGX3&#45;&gt;which -->
<g id="edge12" class="edge">
<title>XXGGX3&#45;&gt;which</title>
<path fill="none" stroke="black" d="M362.05,-18C370.46,-18 379.17,-18 387.42,-18"/>
<polygon fill="black" stroke="black" points="387.56,-21.5 397.56,-18 387.56,-14.5 387.56,-21.5"/>
</g>
<!-- trick -->
<g id="node15" class="node">
<title>trick</title>
<ellipse fill="none" stroke="black" cx="430.37" cy="-288" rx="27" ry="18"/>
<text text-anchor="middle" x="430.37" y="-284.3" font-family="Times New Roman,serif" font-size="14.00">trick</text>
</g>
<!-- OGXXO3&#45;&gt;trick -->
<g id="edge14" class="edge">
<title>OGXXO3&#45;&gt;trick</title>
<path fill="none" stroke="black" d="M362.05,-288C372.37,-288 383.14,-288 392.97,-288"/>
<polygon fill="black" stroke="black" points="393.18,-291.5 403.18,-288 393.18,-284.5 393.18,-291.5"/>
</g>
<!-- chick -->
<g id="node18" class="node">
<title>chick</title>
<ellipse fill="none" stroke="black" cx="430.37" cy="-180" rx="30.59" ry="18"/>
<text text-anchor="middle" x="430.37" y="-176.3" font-family="Times New Roman,serif" font-size="14.00">chick</text>
</g>
<!-- XXGXX3&#45;&gt;chick -->
<g id="edge17" class="edge">
<title>XXGXX3&#45;&gt;chick</title>
<path fill="none" stroke="black" d="M361.39,-180C370.65,-180 380.3,-180 389.32,-180"/>
<polygon fill="black" stroke="black" points="389.56,-183.5 399.56,-180 389.56,-176.5 389.56,-183.5"/>
</g>
<!-- thick -->
<g id="node20" class="node">
<title>thick</title>
<ellipse fill="none" stroke="black" cx="430.37" cy="-126" rx="28.7" ry="18"/>
<text text-anchor="middle" x="430.37" y="-122.3" font-family="Times New Roman,serif" font-size="14.00">thick</text>
</g>
<!-- XXGXO3&#45;&gt;thick -->
<g id="edge19" class="edge">
<title>XXGXO3&#45;&gt;thick</title>
<path fill="none" stroke="black" d="M362.05,-126C371.81,-126 381.98,-126 391.37,-126"/>
<polygon fill="black" stroke="black" points="391.57,-129.5 401.57,-126 391.57,-122.5 391.57,-129.5"/>
</g>
</g>
</svg>
