<?xml version="1.0" encoding="UTF-8" standalone="no"?>
<!DOCTYPE svg PUBLIC "-//W3C//DTD SVG 1.1//EN"
 "http://www.w3.org/Graphics/SVG/1.1/DTD/svg11.dtd">
<!-- Generated by graphviz version 2.50.0 (20211204.2007)
 -->
<!-- Pages: 1 -->
<svg width="464pt" height="260pt"
 viewBox="0.00 0.00 464.37 260.00" xmlns="http://www.w3.org/2000/svg" xmlns:xlink="http://www.w3.org/1999/xlink">
<g id="graph0" class="graph" transform="scale(1 1) rotate(0) translate(4 256)">
<polygon fill="white" stroke="transparent" points="-4,4 -4,-256 460.37,-256 460.37,4 -4,4"/>
<!-- XOGXG1 -->
<g id="node1" class="node">
<title>XOGXG1</title>
<ellipse fill="none" stroke="black" cx="48.1" cy="-99" rx="48.19" ry="18"/>
<text text-anchor="middle" x="48.1" y="-95.3" font-family="Times New Roman,serif" font-size="14.00">XOGXG1</text>
</g>
<!-- XXOOG2 -->
<g id="node2" class="node">
<title>XXOOG2</title>
<ellipse fill="none" stroke="black" cx="180.29" cy="-207" rx="48.19" ry="18"/>
<text text-anchor="middle" x="180.29" y="-203.3" font-family="Times New Roman,serif" font-size="14.00">XXOOG2</text>
</g>
<!-- XOGXG1&#45;&gt;XXOOG2 -->
<g id="edge1" class="edge">
<title>XOGXG1&#45;&gt;XXOOG2</title>
<path fill="none" stroke="black" d="M68.87,-115.4C90.85,-133.64 126.53,-163.24 151.36,-183.83"/>
<polygon fill="black" stroke="black" points="149.4,-186.75 159.33,-190.44 153.87,-181.36 149.4,-186.75"/>
</g>
<!-- XXXXG2 -->
<g id="node4" class="node">
<title>XXXXG2</title>
<ellipse fill="none" stroke="black" cx="180.29" cy="-126" rx="47.39" ry="18"/>
<text text-anchor="middle" x="180.29" y="-122.3" font-family="Times New Roman,serif" font-size="14.00">XXXXG2</text>
</g>
<!-- XOGXG1&#45;&gt;XXXXG2 -->
<g id="edge3" class="edge">
<title>XOGXG1&#45;&gt;XXXXG2</title>
<path fill="none" stroke="black" d="M90.65,-107.62C102.63,-110.1 115.83,-112.84 128.31,-115.43"/>
<polygon fill="black" stroke="black" points="127.63,-118.86 138.13,-117.46 129.05,-112.01 127.63,-118.86"/>
</g>
<!-- XXXOG2 -->
<g id="node6" class="node">
<title>XXXOG2</title>
<ellipse fill="none" stroke="black" cx="180.29" cy="-72" rx="48.19" ry="18"/>
<text text-anchor="middle" x="180.29" y="-68.3" font-family="Times New Roman,serif" font-size="14.00">XXXOG2</text>
</g>
<!-- XOGXG1&#45;&gt;XXXOG2 -->
<g id="edge5" class="edge">
<title>XOGXG1&#45;&gt;XXXOG2</title>
<path fill="none" stroke="black" d="M90.65,-90.38C102.39,-87.95 115.32,-85.27 127.58,-82.72"/>
<polygon fill="black" stroke="black" points="128.6,-86.09 137.68,-80.63 127.18,-79.23 128.6,-86.09"/>
</g>
<!-- GXOXG2 -->
<g id="node10" class="node">
<title>GXOXG2</title>
<ellipse fill="none" stroke="black" cx="180.29" cy="-18" rx="48.19" ry="18"/>
<text text-anchor="middle" x="180.29" y="-14.3" font-family="Times New Roman,serif" font-size="14.00">GXOXG2</text>
</g>
<!-- XOGXG1&#45;&gt;GXOXG2 -->
<g id="edge9" class="edge">
<title>XOGXG1&#45;&gt;GXOXG2</title>
<path fill="none" stroke="black" d="M72.51,-83.28C89.04,-72.32 111.78,-57.47 132.19,-45 136,-42.67 140.02,-40.28 144.03,-37.93"/>
<polygon fill="black" stroke="black" points="145.84,-40.92 152.73,-32.88 142.33,-34.87 145.84,-40.92"/>
</g>
<!-- guile -->
<g id="node3" class="node">
<title>guile</title>
<ellipse fill="none" stroke="black" cx="313.13" cy="-234" rx="27.1" ry="18"/>
<text text-anchor="middle" x="313.13" y="-230.3" font-family="Times New Roman,serif" font-size="14.00">guile</text>
</g>
<!-- XXOOG2&#45;&gt;guile -->
<g id="edge2" class="edge">
<title>XXOOG2&#45;&gt;guile</title>
<path fill="none" stroke="black" d="M222.69,-215.54C240.17,-219.15 260.31,-223.31 277.05,-226.76"/>
<polygon fill="black" stroke="black" points="276.48,-230.22 286.98,-228.81 277.89,-223.36 276.48,-230.22"/>
</g>
<!-- exile -->
<g id="node5" class="node">
<title>exile</title>
<ellipse fill="none" stroke="black" cx="313.13" cy="-180" rx="27" ry="18"/>
<text text-anchor="middle" x="313.13" y="-176.3" font-family="Times New Roman,serif" font-size="14.00">exile</text>
</g>
<!-- XXXXG2&#45;&gt;exile -->
<g id="edge4" class="edge">
<title>XXXXG2&#45;&gt;exile</title>
<path fill="none" stroke="black" d="M212.96,-139.07C233.37,-147.49 259.81,-158.41 280.26,-166.85"/>
<polygon fill="black" stroke="black" points="279.18,-170.19 289.76,-170.77 281.85,-163.72 279.18,-170.19"/>
</g>
<!-- OXGGG3 -->
<g id="node8" class="node">
<title>OXGGG3</title>
<ellipse fill="none" stroke="black" cx="313.13" cy="-126" rx="48.99" ry="18"/>
<text text-anchor="middle" x="313.13" y="-122.3" font-family="Times New Roman,serif" font-size="14.00">OXGGG3</text>
</g>
<!-- XXXXG2&#45;&gt;OXGGG3 -->
<g id="edge7" class="edge">
<title>XXXXG2&#45;&gt;OXGGG3</title>
<path fill="none" stroke="black" d="M227.79,-126C236.23,-126 245.14,-126 253.87,-126"/>
<polygon fill="black" stroke="black" points="254.01,-129.5 264.01,-126 254.01,-122.5 254.01,-129.5"/>
</g>
<!-- utile -->
<g id="node7" class="node">
<title>utile</title>
<ellipse fill="none" stroke="black" cx="313.13" cy="-72" rx="27" ry="18"/>
<text text-anchor="middle" x="313.13" y="-68.3" font-family="Times New Roman,serif" font-size="14.00">utile</text>
</g>
<!-- XXXOG2&#45;&gt;utile -->
<g id="edge6" class="edge">
<title>XXXOG2&#45;&gt;utile</title>
<path fill="none" stroke="black" d="M228.52,-72C244.07,-72 261.11,-72 275.73,-72"/>
<polygon fill="black" stroke="black" points="275.89,-75.5 285.89,-72 275.89,-68.5 275.89,-75.5"/>
</g>
<!-- while -->
<g id="node9" class="node">
<title>while</title>
<ellipse fill="none" stroke="black" cx="427.12" cy="-126" rx="29.5" ry="18"/>
<text text-anchor="middle" x="427.12" y="-122.3" font-family="Times New Roman,serif" font-size="14.00">while</text>
</g>
<!-- OXGGG3&#45;&gt;while -->
<g id="edge8" class="edge">
<title>OXGGG3&#45;&gt;while</title>
<path fill="none" stroke="black" d="M361.95,-126C370.48,-126 379.26,-126 387.49,-126"/>
<polygon fill="black" stroke="black" points="387.56,-129.5 397.56,-126 387.56,-122.5 387.56,-129.5"/>
</g>
<!-- agile -->
<g id="node11" class="node">
<title>agile</title>
<ellipse fill="none" stroke="black" cx="313.13" cy="-18" rx="27" ry="18"/>
<text text-anchor="middle" x="313.13" y="-14.3" font-family="Times New Roman,serif" font-size="14.00">agile</text>
</g>
<!-- GXOXG2&#45;&gt;agile -->
<g id="edge10" class="edge">
<title>GXOXG2&#45;&gt;agile</title>
<path fill="none" stroke="black" d="M228.52,-18C244.07,-18 261.11,-18 275.73,-18"/>
<polygon fill="black" stroke="black" points="275.89,-21.5 285.89,-18 275.89,-14.5 275.89,-21.5"/>
</g>
</g>
</svg>
