<?xml version="1.0" encoding="UTF-8" standalone="no"?>
<!DOCTYPE svg PUBLIC "-//W3C//DTD SVG 1.1//EN"
 "http://www.w3.org/Graphics/SVG/1.1/DTD/svg11.dtd">
<!-- Generated by graphviz version 2.50.0 (20211204.2007)
 -->
<!-- Pages: 1 -->
<svg width="470pt" height="476pt"
 viewBox="0.00 0.00 469.57 476.00" xmlns="http://www.w3.org/2000/svg" xmlns:xlink="http://www.w3.org/1999/xlink">
<g id="graph0" class="graph" transform="scale(1 1) rotate(0) translate(4 472)">
<polygon fill="white" stroke="transparent" points="-4,4 -4,-472 465.57,-472 465.57,4 -4,4"/>
<!-- XGGXX1 -->
<g id="node1" class="node">
<title>XGGXX1</title>
<ellipse fill="none" stroke="black" cx="48.1" cy="-261" rx="48.19" ry="18"/>
<text text-anchor="middle" x="48.1" y="-257.3" font-family="Times New Roman,serif" font-size="14.00">XGGXX1</text>
</g>
<!-- GGGGX2 -->
<g id="node2" class="node">
<title>GGGGX2</title>
<ellipse fill="none" stroke="black" cx="180.94" cy="-450" rx="48.99" ry="18"/>
<text text-anchor="middle" x="180.94" y="-446.3" font-family="Times New Roman,serif" font-size="14.00">GGGGX2</text>
</g>
<!-- XGGXX1&#45;&gt;GGGGX2 -->
<g id="edge1" class="edge">
<title>XGGXX1&#45;&gt;GGGGX2</title>
<path fill="none" stroke="black" d="M54.44,-278.86C64.84,-311.07 90.49,-379.56 132.19,-423 134.78,-425.7 137.71,-428.21 140.8,-430.52"/>
<polygon fill="black" stroke="black" points="138.99,-433.52 149.25,-436.17 142.88,-427.7 138.99,-433.52"/>
</g>
<!-- XGGGX2 -->
<g id="node4" class="node">
<title>XGGGX2</title>
<ellipse fill="none" stroke="black" cx="180.94" cy="-396" rx="48.19" ry="18"/>
<text text-anchor="middle" x="180.94" y="-392.3" font-family="Times New Roman,serif" font-size="14.00">XGGGX2</text>
</g>
<!-- XGGXX1&#45;&gt;XGGGX2 -->
<g id="edge3" class="edge">
<title>XGGXX1&#45;&gt;XGGGX2</title>
<path fill="none" stroke="black" d="M59.64,-278.84C73.89,-301.82 101.1,-342.02 132.19,-369 135.22,-371.63 138.54,-374.12 141.98,-376.46"/>
<polygon fill="black" stroke="black" points="140.34,-379.56 150.67,-381.91 144.06,-373.63 140.34,-379.56"/>
</g>
<!-- flint -->
<g id="node7" class="node">
<title>flint</title>
<ellipse fill="none" stroke="black" cx="180.94" cy="-342" rx="27" ry="18"/>
<text text-anchor="middle" x="180.94" y="-338.3" font-family="Times New Roman,serif" font-size="14.00">flint</text>
</g>
<!-- XGGXX1&#45;&gt;flint -->
<g id="edge6" class="edge">
<title>XGGXX1&#45;&gt;flint</title>
<path fill="none" stroke="black" d="M72.49,-276.75C89.01,-287.74 111.75,-302.59 132.19,-315 137.96,-318.5 144.2,-322.13 150.2,-325.56"/>
<polygon fill="black" stroke="black" points="148.9,-328.84 159.33,-330.71 152.34,-322.75 148.9,-328.84"/>
</g>
<!-- XGGGG2 -->
<g id="node8" class="node">
<title>XGGGG2</title>
<ellipse fill="none" stroke="black" cx="180.94" cy="-288" rx="48.99" ry="18"/>
<text text-anchor="middle" x="180.94" y="-284.3" font-family="Times New Roman,serif" font-size="14.00">XGGGG2</text>
</g>
<!-- XGGXX1&#45;&gt;XGGGG2 -->
<g id="edge7" class="edge">
<title>XGGXX1&#45;&gt;XGGGG2</title>
<path fill="none" stroke="black" d="M90.49,-269.54C102.43,-272.01 115.6,-274.72 128.08,-277.3"/>
<polygon fill="black" stroke="black" points="127.41,-280.73 137.91,-279.33 128.82,-273.88 127.41,-280.73"/>
</g>
<!-- XGGOX2 -->
<g id="node10" class="node">
<title>XGGOX2</title>
<ellipse fill="none" stroke="black" cx="180.94" cy="-234" rx="48.19" ry="18"/>
<text text-anchor="middle" x="180.94" y="-230.3" font-family="Times New Roman,serif" font-size="14.00">XGGOX2</text>
</g>
<!-- XGGXX1&#45;&gt;XGGOX2 -->
<g id="edge9" class="edge">
<title>XGGXX1&#45;&gt;XGGOX2</title>
<path fill="none" stroke="black" d="M90.49,-252.46C102.55,-249.97 115.86,-247.22 128.45,-244.62"/>
<polygon fill="black" stroke="black" points="129.27,-248.03 138.36,-242.58 127.86,-241.17 129.27,-248.03"/>
</g>
<!-- GGGXG2 -->
<g id="node12" class="node">
<title>GGGXG2</title>
<ellipse fill="none" stroke="black" cx="180.94" cy="-180" rx="48.99" ry="18"/>
<text text-anchor="middle" x="180.94" y="-176.3" font-family="Times New Roman,serif" font-size="14.00">GGGXG2</text>
</g>
<!-- XGGXX1&#45;&gt;GGGXG2 -->
<g id="edge11" class="edge">
<title>XGGXX1&#45;&gt;GGGXG2</title>
<path fill="none" stroke="black" d="M72.49,-245.25C89.01,-234.26 111.75,-219.41 132.19,-207 136.05,-204.66 140.12,-202.26 144.18,-199.9"/>
<polygon fill="black" stroke="black" points="146.06,-202.86 153,-194.85 142.58,-196.78 146.06,-202.86"/>
</g>
<!-- XGGXX2 -->
<g id="node14" class="node">
<title>XGGXX2</title>
<ellipse fill="none" stroke="black" cx="180.94" cy="-126" rx="48.19" ry="18"/>
<text text-anchor="middle" x="180.94" y="-122.3" font-family="Times New Roman,serif" font-size="14.00">XGGXX2</text>
</g>
<!-- XGGXX1&#45;&gt;XGGXX2 -->
<g id="edge13" class="edge">
<title>XGGXX1&#45;&gt;XGGXX2</title>
<path fill="none" stroke="black" d="M59.64,-243.16C73.89,-220.18 101.1,-179.98 132.19,-153 135.22,-150.37 138.54,-147.88 141.98,-145.54"/>
<polygon fill="black" stroke="black" points="144.06,-148.37 150.67,-140.09 140.34,-142.44 144.06,-148.37"/>
</g>
<!-- XGGXO2 -->
<g id="node17" class="node">
<title>XGGXO2</title>
<ellipse fill="none" stroke="black" cx="180.94" cy="-45" rx="48.19" ry="18"/>
<text text-anchor="middle" x="180.94" y="-41.3" font-family="Times New Roman,serif" font-size="14.00">XGGXO2</text>
</g>
<!-- XGGXX1&#45;&gt;XGGXO2 -->
<g id="edge16" class="edge">
<title>XGGXX1&#45;&gt;XGGXO2</title>
<path fill="none" stroke="black" d="M56.48,-243.17C69.58,-212.44 98.69,-148.08 132.19,-99 139.18,-88.77 147.9,-78.37 155.97,-69.47"/>
<polygon fill="black" stroke="black" points="158.6,-71.79 162.84,-62.08 153.47,-67.03 158.6,-71.79"/>
</g>
<!-- fling -->
<g id="node3" class="node">
<title>fling</title>
<ellipse fill="none" stroke="black" cx="314.43" cy="-450" rx="27" ry="18"/>
<text text-anchor="middle" x="314.43" y="-446.3" font-family="Times New Roman,serif" font-size="14.00">fling</text>
</g>
<!-- GGGGX2&#45;&gt;fling -->
<g id="edge2" class="edge">
<title>GGGGX2&#45;&gt;fling</title>
<path fill="none" stroke="black" d="M229.78,-450C245.38,-450 262.43,-450 277.05,-450"/>
<polygon fill="black" stroke="black" points="277.21,-453.5 287.21,-450 277.21,-446.5 277.21,-453.5"/>
</g>
<!-- GGGGX3 -->
<g id="node5" class="node">
<title>GGGGX3</title>
<ellipse fill="none" stroke="black" cx="314.43" cy="-396" rx="48.99" ry="18"/>
<text text-anchor="middle" x="314.43" y="-392.3" font-family="Times New Roman,serif" font-size="14.00">GGGGX3</text>
</g>
<!-- XGGGX2&#45;&gt;GGGGX3 -->
<g id="edge4" class="edge">
<title>XGGGX2&#45;&gt;GGGGX3</title>
<path fill="none" stroke="black" d="M229.04,-396C237.51,-396 246.44,-396 255.18,-396"/>
<polygon fill="black" stroke="black" points="255.33,-399.5 265.33,-396 255.33,-392.5 255.33,-399.5"/>
</g>
<!-- blind -->
<g id="node19" class="node">
<title>blind</title>
<ellipse fill="none" stroke="black" cx="314.43" cy="-342" rx="28.7" ry="18"/>
<text text-anchor="middle" x="314.43" y="-338.3" font-family="Times New Roman,serif" font-size="14.00">blind</text>
</g>
<!-- XGGGX2&#45;&gt;blind -->
<g id="edge18" class="edge">
<title>XGGGX2&#45;&gt;blind</title>
<path fill="none" stroke="black" d="M214.1,-382.79C234.23,-374.53 260.09,-363.9 280.38,-355.57"/>
<polygon fill="black" stroke="black" points="281.92,-358.72 289.84,-351.69 279.26,-352.25 281.92,-358.72"/>
</g>
<!-- blink -->
<g id="node6" class="node">
<title>blink</title>
<ellipse fill="none" stroke="black" cx="430.37" cy="-396" rx="28.7" ry="18"/>
<text text-anchor="middle" x="430.37" y="-392.3" font-family="Times New Roman,serif" font-size="14.00">blink</text>
</g>
<!-- GGGGX3&#45;&gt;blink -->
<g id="edge5" class="edge">
<title>GGGGX3&#45;&gt;blink</title>
<path fill="none" stroke="black" d="M363.42,-396C372.78,-396 382.46,-396 391.44,-396"/>
<polygon fill="black" stroke="black" points="391.58,-399.5 401.58,-396 391.58,-392.5 391.58,-399.5"/>
</g>
<!-- glint -->
<g id="node9" class="node">
<title>glint</title>
<ellipse fill="none" stroke="black" cx="314.43" cy="-288" rx="27" ry="18"/>
<text text-anchor="middle" x="314.43" y="-284.3" font-family="Times New Roman,serif" font-size="14.00">glint</text>
</g>
<!-- XGGGG2&#45;&gt;glint -->
<g id="edge8" class="edge">
<title>XGGGG2&#45;&gt;glint</title>
<path fill="none" stroke="black" d="M229.78,-288C245.38,-288 262.43,-288 277.05,-288"/>
<polygon fill="black" stroke="black" points="277.21,-291.5 287.21,-288 277.21,-284.5 277.21,-291.5"/>
</g>
<!-- align -->
<g id="node11" class="node">
<title>align</title>
<ellipse fill="none" stroke="black" cx="314.43" cy="-234" rx="27.1" ry="18"/>
<text text-anchor="middle" x="314.43" y="-230.3" font-family="Times New Roman,serif" font-size="14.00">align</text>
</g>
<!-- XGGOX2&#45;&gt;align -->
<g id="edge10" class="edge">
<title>XGGOX2&#45;&gt;align</title>
<path fill="none" stroke="black" d="M229.04,-234C244.69,-234 261.88,-234 276.64,-234"/>
<polygon fill="black" stroke="black" points="276.9,-237.5 286.9,-234 276.9,-230.5 276.9,-237.5"/>
</g>
<!-- flirt -->
<g id="node13" class="node">
<title>flirt</title>
<ellipse fill="none" stroke="black" cx="314.43" cy="-180" rx="27" ry="18"/>
<text text-anchor="middle" x="314.43" y="-176.3" font-family="Times New Roman,serif" font-size="14.00">flirt</text>
</g>
<!-- GGGXG2&#45;&gt;flirt -->
<g id="edge12" class="edge">
<title>GGGXG2&#45;&gt;flirt</title>
<path fill="none" stroke="black" d="M229.78,-180C245.38,-180 262.43,-180 277.05,-180"/>
<polygon fill="black" stroke="black" points="277.21,-183.5 287.21,-180 277.21,-176.5 277.21,-183.5"/>
</g>
<!-- XGGOO3 -->
<g id="node15" class="node">
<title>XGGOO3</title>
<ellipse fill="none" stroke="black" cx="314.43" cy="-126" rx="48.99" ry="18"/>
<text text-anchor="middle" x="314.43" y="-122.3" font-family="Times New Roman,serif" font-size="14.00">XGGOO3</text>
</g>
<!-- XGGXX2&#45;&gt;XGGOO3 -->
<g id="edge14" class="edge">
<title>XGGXX2&#45;&gt;XGGOO3</title>
<path fill="none" stroke="black" d="M229.04,-126C237.51,-126 246.44,-126 255.18,-126"/>
<polygon fill="black" stroke="black" points="255.33,-129.5 265.33,-126 255.33,-122.5 255.33,-129.5"/>
</g>
<!-- alibi -->
<g id="node20" class="node">
<title>alibi</title>
<ellipse fill="none" stroke="black" cx="314.43" cy="-72" rx="27" ry="18"/>
<text text-anchor="middle" x="314.43" y="-68.3" font-family="Times New Roman,serif" font-size="14.00">alibi</text>
</g>
<!-- XGGXX2&#45;&gt;alibi -->
<g id="edge19" class="edge">
<title>XGGXX2&#45;&gt;alibi</title>
<path fill="none" stroke="black" d="M214.1,-112.79C234.62,-104.36 261.1,-93.49 281.56,-85.09"/>
<polygon fill="black" stroke="black" points="283.15,-88.22 291.07,-81.18 280.49,-81.75 283.15,-88.22"/>
</g>
<!-- blimp -->
<g id="node16" class="node">
<title>blimp</title>
<ellipse fill="none" stroke="black" cx="430.37" cy="-126" rx="31.4" ry="18"/>
<text text-anchor="middle" x="430.37" y="-122.3" font-family="Times New Roman,serif" font-size="14.00">blimp</text>
</g>
<!-- XGGOO3&#45;&gt;blimp -->
<g id="edge15" class="edge">
<title>XGGOO3&#45;&gt;blimp</title>
<path fill="none" stroke="black" d="M363.42,-126C371.89,-126 380.63,-126 388.86,-126"/>
<polygon fill="black" stroke="black" points="388.97,-129.5 398.97,-126 388.97,-122.5 388.97,-129.5"/>
</g>
<!-- blitz -->
<g id="node18" class="node">
<title>blitz</title>
<ellipse fill="none" stroke="black" cx="314.43" cy="-18" rx="27" ry="18"/>
<text text-anchor="middle" x="314.43" y="-14.3" font-family="Times New Roman,serif" font-size="14.00">blitz</text>
</g>
<!-- XGGXO2&#45;&gt;blitz -->
<g id="edge17" class="edge">
<title>XGGXO2&#45;&gt;blitz</title>
<path fill="none" stroke="black" d="M223.54,-36.46C241.11,-32.85 261.36,-28.69 278.18,-25.24"/>
<polygon fill="black" stroke="black" points="279.06,-28.63 288.15,-23.19 277.65,-21.77 279.06,-28.63"/>
</g>
</g>
</svg>
