<?xml version="1.0" encoding="UTF-8" standalone="no"?>
<!DOCTYPE svg PUBLIC "-//W3C//DTD SVG 1.1//EN"
 "http://www.w3.org/Graphics/SVG/1.1/DTD/svg11.dtd">
<!-- Generated by graphviz version 2.50.0 (20211204.2007)
 -->
<!-- Pages: 1 -->
<svg width="471pt" height="962pt"
 viewBox="0.00 0.00 470.87 962.00" xmlns="http://www.w3.org/2000/svg" xmlns:xlink="http://www.w3.org/1999/xlink">
<g id="graph0" class="graph" transform="scale(1 1) rotate(0) translate(4 958)">
<polygon fill="white" stroke="transparent" points="-4,4 -4,-958 466.87,-958 466.87,4 -4,4"/>
<!-- OXOXX1 -->
<g id="node1" class="node">
<title>OXOXX1</title>
<ellipse fill="none" stroke="black" cx="48.1" cy="-561" rx="48.19" ry="18"/>
<text text-anchor="middle" x="48.1" y="-557.3" font-family="Times New Roman,serif" font-size="14.00">OXOXX1</text>
</g>
<!-- first -->
<g id="node2" class="node">
<title>first</title>
<ellipse fill="none" stroke="black" cx="180.29" cy="-910" rx="27" ry="18"/>
<text text-anchor="middle" x="180.29" y="-906.3" font-family="Times New Roman,serif" font-size="14.00">first</text>
</g>
<!-- OXOXX1&#45;&gt;first -->
<g id="edge1" class="edge">
<title>OXOXX1&#45;&gt;first</title>
<path fill="none" stroke="black" d="M49.06,-579.11C49.86,-631.67 58.68,-786.58 132.19,-883 136.24,-888.31 141.66,-892.75 147.38,-896.4"/>
<polygon fill="black" stroke="black" points="146.02,-899.65 156.45,-901.48 149.44,-893.54 146.02,-899.65"/>
</g>
<!-- XGXGG2 -->
<g id="node3" class="node">
<title>XGXGG2</title>
<ellipse fill="none" stroke="black" cx="180.29" cy="-856" rx="48.19" ry="18"/>
<text text-anchor="middle" x="180.29" y="-852.3" font-family="Times New Roman,serif" font-size="14.00">XGXGG2</text>
</g>
<!-- OXOXX1&#45;&gt;XGXGG2 -->
<g id="edge2" class="edge">
<title>OXOXX1&#45;&gt;XGXGG2</title>
<path fill="none" stroke="black" d="M50.21,-579.05C53.95,-625.48 69.6,-750.88 132.19,-829 134.38,-831.73 136.92,-834.24 139.67,-836.53"/>
<polygon fill="black" stroke="black" points="137.69,-839.41 147.85,-842.41 141.78,-833.73 137.69,-839.41"/>
</g>
<!-- XGXGO2 -->
<g id="node5" class="node">
<title>XGXGO2</title>
<ellipse fill="none" stroke="black" cx="180.29" cy="-802" rx="48.19" ry="18"/>
<text text-anchor="middle" x="180.29" y="-798.3" font-family="Times New Roman,serif" font-size="14.00">XGXGO2</text>
</g>
<!-- OXOXX1&#45;&gt;XGXGO2 -->
<g id="edge4" class="edge">
<title>OXOXX1&#45;&gt;XGXGO2</title>
<path fill="none" stroke="black" d="M51.93,-579.16C58.95,-618.91 80.47,-714.87 132.19,-775 134.47,-777.65 137.08,-780.1 139.88,-782.36"/>
<polygon fill="black" stroke="black" points="137.94,-785.27 148.13,-788.18 141.98,-779.55 137.94,-785.27"/>
</g>
<!-- XOXGX2 -->
<g id="node7" class="node">
<title>XOXGX2</title>
<ellipse fill="none" stroke="black" cx="180.29" cy="-748" rx="48.19" ry="18"/>
<text text-anchor="middle" x="180.29" y="-744.3" font-family="Times New Roman,serif" font-size="14.00">XOXGX2</text>
</g>
<!-- OXOXX1&#45;&gt;XOXGX2 -->
<g id="edge6" class="edge">
<title>OXOXX1&#45;&gt;XOXGX2</title>
<path fill="none" stroke="black" d="M54.61,-578.86C65.19,-610.74 91.02,-678.08 132.19,-721 134.76,-723.67 137.64,-726.16 140.7,-728.46"/>
<polygon fill="black" stroke="black" points="138.8,-731.4 149.04,-734.1 142.71,-725.6 138.8,-731.4"/>
</g>
<!-- XGXOG2 -->
<g id="node9" class="node">
<title>XGXOG2</title>
<ellipse fill="none" stroke="black" cx="180.29" cy="-694" rx="48.19" ry="18"/>
<text text-anchor="middle" x="180.29" y="-690.3" font-family="Times New Roman,serif" font-size="14.00">XGXOG2</text>
</g>
<!-- OXOXX1&#45;&gt;XGXOG2 -->
<g id="edge8" class="edge">
<title>OXOXX1&#45;&gt;XGXOG2</title>
<path fill="none" stroke="black" d="M59.74,-578.47C74.09,-600.98 101.42,-640.38 132.19,-667 135.15,-669.56 138.4,-672.01 141.75,-674.3"/>
<polygon fill="black" stroke="black" points="139.9,-677.27 150.21,-679.68 143.65,-671.36 139.9,-677.27"/>
</g>
<!-- XGOOX2 -->
<g id="node11" class="node">
<title>XGOOX2</title>
<ellipse fill="none" stroke="black" cx="180.29" cy="-640" rx="48.19" ry="18"/>
<text text-anchor="middle" x="180.29" y="-636.3" font-family="Times New Roman,serif" font-size="14.00">XGOOX2</text>
</g>
<!-- OXOXX1&#45;&gt;XGOOX2 -->
<g id="edge10" class="edge">
<title>OXOXX1&#45;&gt;XGOOX2</title>
<path fill="none" stroke="black" d="M74.2,-576.23C94.46,-588.53 123.16,-605.94 145.45,-619.47"/>
<polygon fill="black" stroke="black" points="143.9,-622.62 154.26,-624.81 147.53,-616.63 143.9,-622.62"/>
</g>
<!-- XOXOX2 -->
<g id="node13" class="node">
<title>XOXOX2</title>
<ellipse fill="none" stroke="black" cx="180.29" cy="-561" rx="48.19" ry="18"/>
<text text-anchor="middle" x="180.29" y="-557.3" font-family="Times New Roman,serif" font-size="14.00">XOXOX2</text>
</g>
<!-- OXOXX1&#45;&gt;XOXOX2 -->
<g id="edge12" class="edge">
<title>OXOXX1&#45;&gt;XOXOX2</title>
<path fill="none" stroke="black" d="M96.47,-561C104.74,-561 113.42,-561 121.92,-561"/>
<polygon fill="black" stroke="black" points="122.17,-564.5 132.17,-561 122.17,-557.5 122.17,-564.5"/>
</g>
<!-- XGXGX2 -->
<g id="node15" class="node">
<title>XGXGX2</title>
<ellipse fill="none" stroke="black" cx="180.29" cy="-500" rx="48.19" ry="18"/>
<text text-anchor="middle" x="180.29" y="-496.3" font-family="Times New Roman,serif" font-size="14.00">XGXGX2</text>
</g>
<!-- OXOXX1&#45;&gt;XGXGX2 -->
<g id="edge14" class="edge">
<title>OXOXX1&#45;&gt;XGXGX2</title>
<path fill="none" stroke="black" d="M78.96,-547.01C97.16,-538.48 120.6,-527.5 140.26,-518.29"/>
<polygon fill="black" stroke="black" points="141.99,-521.34 149.56,-513.93 139.02,-515 141.99,-521.34"/>
</g>
<!-- XGXOO2 -->
<g id="node18" class="node">
<title>XGXOO2</title>
<ellipse fill="none" stroke="black" cx="180.29" cy="-433" rx="48.19" ry="18"/>
<text text-anchor="middle" x="180.29" y="-429.3" font-family="Times New Roman,serif" font-size="14.00">XGXOO2</text>
</g>
<!-- OXOXX1&#45;&gt;XGXOO2 -->
<g id="edge17" class="edge">
<title>OXOXX1&#45;&gt;XGXOO2</title>
<path fill="none" stroke="black" d="M64.19,-543.93C80.45,-525.8 107.34,-496.57 132.19,-473 138.21,-467.29 144.89,-461.38 151.29,-455.91"/>
<polygon fill="black" stroke="black" points="153.77,-458.39 159.16,-449.27 149.26,-453.04 153.77,-458.39"/>
</g>
<!-- XOXOG2 -->
<g id="node20" class="node">
<title>XOXOG2</title>
<ellipse fill="none" stroke="black" cx="180.29" cy="-352" rx="48.19" ry="18"/>
<text text-anchor="middle" x="180.29" y="-348.3" font-family="Times New Roman,serif" font-size="14.00">XOXOG2</text>
</g>
<!-- OXOXX1&#45;&gt;XOXOG2 -->
<g id="edge19" class="edge">
<title>OXOXX1&#45;&gt;XOXOG2</title>
<path fill="none" stroke="black" d="M57.1,-543.05C70.67,-513.37 99.91,-452.72 132.19,-406 139.19,-395.87 147.82,-385.5 155.77,-376.59"/>
<polygon fill="black" stroke="black" points="158.38,-378.92 162.53,-369.18 153.21,-374.21 158.38,-378.92"/>
</g>
<!-- GGXOX2 -->
<g id="node24" class="node">
<title>GGXOX2</title>
<ellipse fill="none" stroke="black" cx="180.29" cy="-244" rx="48.19" ry="18"/>
<text text-anchor="middle" x="180.29" y="-240.3" font-family="Times New Roman,serif" font-size="14.00">GGXOX2</text>
</g>
<!-- OXOXX1&#45;&gt;GGXOX2 -->
<g id="edge23" class="edge">
<title>OXOXX1&#45;&gt;GGXOX2</title>
<path fill="none" stroke="black" d="M54.14,-543.08C65.69,-503.05 95.86,-403.68 132.19,-325 140.97,-305.99 152.83,-285.61 162.45,-270.06"/>
<polygon fill="black" stroke="black" points="165.47,-271.83 167.82,-261.5 159.54,-268.11 165.47,-271.83"/>
</g>
<!-- XGXOX2 -->
<g id="node27" class="node">
<title>XGXOX2</title>
<ellipse fill="none" stroke="black" cx="180.29" cy="-153" rx="48.19" ry="18"/>
<text text-anchor="middle" x="180.29" y="-149.3" font-family="Times New Roman,serif" font-size="14.00">XGXOX2</text>
</g>
<!-- OXOXX1&#45;&gt;XGXOX2 -->
<g id="edge26" class="edge">
<title>OXOXX1&#45;&gt;XGXOX2</title>
<path fill="none" stroke="black" d="M50.91,-543C56.71,-490.52 77.74,-333.97 132.19,-217 138.64,-203.15 148.33,-189.3 157.24,-178.05"/>
<polygon fill="black" stroke="black" points="160.21,-179.95 163.84,-169.99 154.79,-175.51 160.21,-179.95"/>
</g>
<!-- XGGOX2 -->
<g id="node35" class="node">
<title>XGGOX2</title>
<ellipse fill="none" stroke="black" cx="180.29" cy="-45" rx="48.19" ry="18"/>
<text text-anchor="middle" x="180.29" y="-41.3" font-family="Times New Roman,serif" font-size="14.00">XGGOX2</text>
</g>
<!-- OXOXX1&#45;&gt;XGGOX2 -->
<g id="edge34" class="edge">
<title>OXOXX1&#45;&gt;XGGOX2</title>
<path fill="none" stroke="black" d="M50.35,-543.02C55.04,-482.42 74.31,-280.84 132.19,-126 139.48,-106.51 151.24,-86.28 161.18,-70.91"/>
<polygon fill="black" stroke="black" points="164.17,-72.73 166.78,-62.46 158.34,-68.86 164.17,-72.73"/>
</g>
<!-- midst -->
<g id="node4" class="node">
<title>midst</title>
<ellipse fill="none" stroke="black" cx="313.13" cy="-936" rx="30.59" ry="18"/>
<text text-anchor="middle" x="313.13" y="-932.3" font-family="Times New Roman,serif" font-size="14.00">midst</text>
</g>
<!-- XGXGG2&#45;&gt;midst -->
<g id="edge3" class="edge">
<title>XGXGG2&#45;&gt;midst</title>
<path fill="none" stroke="black" d="M208.48,-870.94C215.07,-874.74 222.05,-878.91 228.38,-883 244.97,-893.7 247.77,-898.35 264.38,-909 269.75,-912.44 275.57,-915.93 281.25,-919.2"/>
<polygon fill="black" stroke="black" points="279.53,-922.25 289.96,-924.13 282.98,-916.16 279.53,-922.25"/>
</g>
<!-- tipsy -->
<g id="node6" class="node">
<title>tipsy</title>
<ellipse fill="none" stroke="black" cx="313.13" cy="-882" rx="28.7" ry="18"/>
<text text-anchor="middle" x="313.13" y="-878.3" font-family="Times New Roman,serif" font-size="14.00">tipsy</text>
</g>
<!-- XGXGO2&#45;&gt;tipsy -->
<g id="edge5" class="edge">
<title>XGXGO2&#45;&gt;tipsy</title>
<path fill="none" stroke="black" d="M208.48,-816.94C215.07,-820.74 222.05,-824.91 228.38,-829 244.97,-839.7 247.77,-844.35 264.38,-855 269.85,-858.51 275.8,-862.06 281.58,-865.39"/>
<polygon fill="black" stroke="black" points="280.01,-868.53 290.44,-870.4 283.46,-862.43 280.01,-868.53"/>
</g>
<!-- quasi -->
<g id="node8" class="node">
<title>quasi</title>
<ellipse fill="none" stroke="black" cx="313.13" cy="-828" rx="29.8" ry="18"/>
<text text-anchor="middle" x="313.13" y="-824.3" font-family="Times New Roman,serif" font-size="14.00">quasi</text>
</g>
<!-- XOXGX2&#45;&gt;quasi -->
<g id="edge7" class="edge">
<title>XOXGX2&#45;&gt;quasi</title>
<path fill="none" stroke="black" d="M208.48,-762.94C215.07,-766.74 222.05,-770.91 228.38,-775 244.97,-785.7 247.77,-790.35 264.38,-801 269.75,-804.44 275.57,-807.93 281.25,-811.2"/>
<polygon fill="black" stroke="black" points="279.53,-814.25 289.96,-816.13 282.98,-808.16 279.53,-814.25"/>
</g>
<!-- visit -->
<g id="node10" class="node">
<title>visit</title>
<ellipse fill="none" stroke="black" cx="313.13" cy="-774" rx="27" ry="18"/>
<text text-anchor="middle" x="313.13" y="-770.3" font-family="Times New Roman,serif" font-size="14.00">visit</text>
</g>
<!-- XGXOG2&#45;&gt;visit -->
<g id="edge9" class="edge">
<title>XGXOG2&#45;&gt;visit</title>
<path fill="none" stroke="black" d="M208.48,-708.94C215.07,-712.74 222.05,-716.91 228.38,-721 244.97,-731.7 247.77,-736.35 264.38,-747 270.06,-750.64 276.26,-754.34 282.25,-757.78"/>
<polygon fill="black" stroke="black" points="280.96,-761.07 291.39,-762.93 284.39,-754.97 280.96,-761.07"/>
</g>
<!-- risky -->
<g id="node12" class="node">
<title>risky</title>
<ellipse fill="none" stroke="black" cx="313.13" cy="-720" rx="28.7" ry="18"/>
<text text-anchor="middle" x="313.13" y="-716.3" font-family="Times New Roman,serif" font-size="14.00">risky</text>
</g>
<!-- XGOOX2&#45;&gt;risky -->
<g id="edge11" class="edge">
<title>XGOOX2&#45;&gt;risky</title>
<path fill="none" stroke="black" d="M208.48,-654.94C215.07,-658.74 222.05,-662.91 228.38,-667 244.97,-677.7 247.77,-682.35 264.38,-693 269.85,-696.51 275.8,-700.06 281.58,-703.39"/>
<polygon fill="black" stroke="black" points="280.01,-706.53 290.44,-708.4 283.46,-700.43 280.01,-706.53"/>
</g>
<!-- OGGXX3 -->
<g id="node37" class="node">
<title>OGGXX3</title>
<ellipse fill="none" stroke="black" cx="313.13" cy="-666" rx="48.19" ry="18"/>
<text text-anchor="middle" x="313.13" y="-662.3" font-family="Times New Roman,serif" font-size="14.00">OGGXX3</text>
</g>
<!-- XGOOX2&#45;&gt;OGGXX3 -->
<g id="edge36" class="edge">
<title>XGOOX2&#45;&gt;OGGXX3</title>
<path fill="none" stroke="black" d="M223.05,-648.3C234.85,-650.64 247.84,-653.22 260.16,-655.67"/>
<polygon fill="black" stroke="black" points="259.83,-659.18 270.32,-657.69 261.19,-652.31 259.83,-659.18"/>
</g>
<!-- basin -->
<g id="node14" class="node">
<title>basin</title>
<ellipse fill="none" stroke="black" cx="313.13" cy="-612" rx="29.8" ry="18"/>
<text text-anchor="middle" x="313.13" y="-608.3" font-family="Times New Roman,serif" font-size="14.00">basin</text>
</g>
<!-- XOXOX2&#45;&gt;basin -->
<g id="edge13" class="edge">
<title>XOXOX2&#45;&gt;basin</title>
<path fill="none" stroke="black" d="M214.3,-573.87C233.73,-581.44 258.26,-591 277.9,-598.66"/>
<polygon fill="black" stroke="black" points="276.8,-601.98 287.38,-602.35 279.34,-595.46 276.8,-601.98"/>
</g>
<!-- GGGGX3 -->
<g id="node30" class="node">
<title>GGGGX3</title>
<ellipse fill="none" stroke="black" cx="313.13" cy="-558" rx="48.99" ry="18"/>
<text text-anchor="middle" x="313.13" y="-554.3" font-family="Times New Roman,serif" font-size="14.00">GGGGX3</text>
</g>
<!-- XOXOX2&#45;&gt;GGGGX3 -->
<g id="edge29" class="edge">
<title>XOXOX2&#45;&gt;GGGGX3</title>
<path fill="none" stroke="black" d="M228.52,-559.92C236.75,-559.73 245.38,-559.53 253.86,-559.34"/>
<polygon fill="black" stroke="black" points="254.16,-562.83 264.08,-559.1 254,-555.83 254.16,-562.83"/>
</g>
<!-- XGXGX3 -->
<g id="node16" class="node">
<title>XGXGX3</title>
<ellipse fill="none" stroke="black" cx="313.13" cy="-504" rx="48.19" ry="18"/>
<text text-anchor="middle" x="313.13" y="-500.3" font-family="Times New Roman,serif" font-size="14.00">XGXGX3</text>
</g>
<!-- XGXGX2&#45;&gt;XGXGX3 -->
<g id="edge15" class="edge">
<title>XGXGX2&#45;&gt;XGXGX3</title>
<path fill="none" stroke="black" d="M228.52,-501.44C237.05,-501.7 246.02,-501.98 254.79,-502.25"/>
<polygon fill="black" stroke="black" points="254.86,-505.75 264.96,-502.56 255.07,-498.75 254.86,-505.75"/>
</g>
<!-- XGXGG3 -->
<g id="node22" class="node">
<title>XGXGG3</title>
<ellipse fill="none" stroke="black" cx="313.13" cy="-450" rx="48.19" ry="18"/>
<text text-anchor="middle" x="313.13" y="-446.3" font-family="Times New Roman,serif" font-size="14.00">XGXGG3</text>
</g>
<!-- XGXGX2&#45;&gt;XGXGG3 -->
<g id="edge21" class="edge">
<title>XGXGX2&#45;&gt;XGXGG3</title>
<path fill="none" stroke="black" d="M214.64,-487.25C231.25,-480.91 251.53,-473.16 269.27,-466.38"/>
<polygon fill="black" stroke="black" points="270.74,-469.56 278.83,-462.72 268.24,-463.02 270.74,-469.56"/>
</g>
<!-- gipsy -->
<g id="node26" class="node">
<title>gipsy</title>
<ellipse fill="none" stroke="black" cx="313.13" cy="-396" rx="30.59" ry="18"/>
<text text-anchor="middle" x="313.13" y="-392.3" font-family="Times New Roman,serif" font-size="14.00">gipsy</text>
</g>
<!-- XGXGX2&#45;&gt;gipsy -->
<g id="edge25" class="edge">
<title>XGXGX2&#45;&gt;gipsy</title>
<path fill="none" stroke="black" d="M201.36,-483.67C209.85,-476.58 219.76,-468.06 228.38,-460 245.15,-444.33 246.21,-437.01 264.38,-423 269.21,-419.27 274.62,-415.72 280,-412.49"/>
<polygon fill="black" stroke="black" points="282,-415.38 288.95,-407.38 278.53,-409.3 282,-415.38"/>
</g>
<!-- kiosk -->
<g id="node17" class="node">
<title>kiosk</title>
<ellipse fill="none" stroke="black" cx="430.37" cy="-504" rx="30.59" ry="18"/>
<text text-anchor="middle" x="430.37" y="-500.3" font-family="Times New Roman,serif" font-size="14.00">kiosk</text>
</g>
<!-- XGXGX3&#45;&gt;kiosk -->
<g id="edge16" class="edge">
<title>XGXGX3&#45;&gt;kiosk</title>
<path fill="none" stroke="black" d="M361.33,-504C370.63,-504 380.29,-504 389.32,-504"/>
<polygon fill="black" stroke="black" points="389.57,-507.5 399.57,-504 389.57,-500.5 389.57,-507.5"/>
</g>
<!-- vista -->
<g id="node19" class="node">
<title>vista</title>
<ellipse fill="none" stroke="black" cx="313.13" cy="-342" rx="27.1" ry="18"/>
<text text-anchor="middle" x="313.13" y="-338.3" font-family="Times New Roman,serif" font-size="14.00">vista</text>
</g>
<!-- XGXOO2&#45;&gt;vista -->
<g id="edge18" class="edge">
<title>XGXOO2&#45;&gt;vista</title>
<path fill="none" stroke="black" d="M200.85,-416.66C217.33,-403.21 241.77,-383.99 264.38,-369 270.01,-365.27 276.18,-361.54 282.16,-358.09"/>
<polygon fill="black" stroke="black" points="284.3,-360.9 291.3,-352.94 280.87,-354.8 284.3,-360.9"/>
</g>
<!-- posit -->
<g id="node21" class="node">
<title>posit</title>
<ellipse fill="none" stroke="black" cx="313.13" cy="-288" rx="28.7" ry="18"/>
<text text-anchor="middle" x="313.13" y="-284.3" font-family="Times New Roman,serif" font-size="14.00">posit</text>
</g>
<!-- XOXOG2&#45;&gt;posit -->
<g id="edge20" class="edge">
<title>XOXOG2&#45;&gt;posit</title>
<path fill="none" stroke="black" d="M210.33,-337.8C231.31,-327.53 259.62,-313.68 281.06,-303.2"/>
<polygon fill="black" stroke="black" points="282.64,-306.32 290.08,-298.78 279.56,-300.03 282.64,-306.32"/>
</g>
<!-- missy -->
<g id="node23" class="node">
<title>missy</title>
<ellipse fill="none" stroke="black" cx="430.37" cy="-450" rx="31.7" ry="18"/>
<text text-anchor="middle" x="430.37" y="-446.3" font-family="Times New Roman,serif" font-size="14.00">missy</text>
</g>
<!-- XGXGG3&#45;&gt;missy -->
<g id="edge22" class="edge">
<title>XGXGG3&#45;&gt;missy</title>
<path fill="none" stroke="black" d="M361.33,-450C370.17,-450 379.35,-450 387.99,-450"/>
<polygon fill="black" stroke="black" points="388.22,-453.5 398.22,-450 388.22,-446.5 388.22,-453.5"/>
</g>
<!-- fishy -->
<g id="node25" class="node">
<title>fishy</title>
<ellipse fill="none" stroke="black" cx="313.13" cy="-234" rx="28.7" ry="18"/>
<text text-anchor="middle" x="313.13" y="-230.3" font-family="Times New Roman,serif" font-size="14.00">fishy</text>
</g>
<!-- GGXOX2&#45;&gt;fishy -->
<g id="edge24" class="edge">
<title>GGXOX2&#45;&gt;fishy</title>
<path fill="none" stroke="black" d="M227.79,-240.45C243.03,-239.28 259.78,-238 274.31,-236.89"/>
<polygon fill="black" stroke="black" points="274.74,-240.37 284.44,-236.12 274.21,-233.39 274.74,-240.37"/>
</g>
<!-- XGGXX3 -->
<g id="node28" class="node">
<title>XGGXX3</title>
<ellipse fill="none" stroke="black" cx="313.13" cy="-180" rx="48.19" ry="18"/>
<text text-anchor="middle" x="313.13" y="-176.3" font-family="Times New Roman,serif" font-size="14.00">XGGXX3</text>
</g>
<!-- XGXOX2&#45;&gt;XGGXX3 -->
<g id="edge27" class="edge">
<title>XGXOX2&#45;&gt;XGGXX3</title>
<path fill="none" stroke="black" d="M222.69,-161.54C234.74,-164.03 248.05,-166.78 260.64,-169.38"/>
<polygon fill="black" stroke="black" points="260.05,-172.83 270.55,-171.42 261.46,-165.97 260.05,-172.83"/>
</g>
<!-- XGOXO3 -->
<g id="node32" class="node">
<title>XGOXO3</title>
<ellipse fill="none" stroke="black" cx="313.13" cy="-126" rx="48.19" ry="18"/>
<text text-anchor="middle" x="313.13" y="-122.3" font-family="Times New Roman,serif" font-size="14.00">XGOXO3</text>
</g>
<!-- XGXOX2&#45;&gt;XGOXO3 -->
<g id="edge31" class="edge">
<title>XGXOX2&#45;&gt;XGOXO3</title>
<path fill="none" stroke="black" d="M222.69,-144.46C234.74,-141.97 248.05,-139.22 260.64,-136.62"/>
<polygon fill="black" stroke="black" points="261.46,-140.03 270.55,-134.58 260.05,-133.17 261.46,-140.03"/>
</g>
<!-- bison -->
<g id="node34" class="node">
<title>bison</title>
<ellipse fill="none" stroke="black" cx="313.13" cy="-72" rx="30.59" ry="18"/>
<text text-anchor="middle" x="313.13" y="-68.3" font-family="Times New Roman,serif" font-size="14.00">bison</text>
</g>
<!-- XGXOX2&#45;&gt;bison -->
<g id="edge33" class="edge">
<title>XGXOX2&#45;&gt;bison</title>
<path fill="none" stroke="black" d="M204.68,-137.25C221.2,-126.26 243.94,-111.41 264.38,-99 269.83,-95.69 275.7,-92.27 281.39,-89.02"/>
<polygon fill="black" stroke="black" points="283.12,-92.06 290.1,-84.09 279.67,-85.97 283.12,-92.06"/>
</g>
<!-- wispy -->
<g id="node29" class="node">
<title>wispy</title>
<ellipse fill="none" stroke="black" cx="430.37" cy="-180" rx="32.49" ry="18"/>
<text text-anchor="middle" x="430.37" y="-176.3" font-family="Times New Roman,serif" font-size="14.00">wispy</text>
</g>
<!-- XGGXX3&#45;&gt;wispy -->
<g id="edge28" class="edge">
<title>XGGXX3&#45;&gt;wispy</title>
<path fill="none" stroke="black" d="M361.33,-180C370,-180 378.98,-180 387.48,-180"/>
<polygon fill="black" stroke="black" points="387.54,-183.5 397.54,-180 387.54,-176.5 387.54,-183.5"/>
</g>
<!-- basis -->
<g id="node31" class="node">
<title>basis</title>
<ellipse fill="none" stroke="black" cx="430.37" cy="-558" rx="29.5" ry="18"/>
<text text-anchor="middle" x="430.37" y="-554.3" font-family="Times New Roman,serif" font-size="14.00">basis</text>
</g>
<!-- GGGGX3&#45;&gt;basis -->
<g id="edge30" class="edge">
<title>GGGGX3&#45;&gt;basis</title>
<path fill="none" stroke="black" d="M362,-558C371.62,-558 381.6,-558 390.85,-558"/>
<polygon fill="black" stroke="black" points="390.92,-561.5 400.92,-558 390.92,-554.5 390.92,-561.5"/>
</g>
<!-- minus -->
<g id="node33" class="node">
<title>minus</title>
<ellipse fill="none" stroke="black" cx="430.37" cy="-126" rx="32.49" ry="18"/>
<text text-anchor="middle" x="430.37" y="-122.3" font-family="Times New Roman,serif" font-size="14.00">minus</text>
</g>
<!-- XGOXO3&#45;&gt;minus -->
<g id="edge32" class="edge">
<title>XGOXO3&#45;&gt;minus</title>
<path fill="none" stroke="black" d="M361.33,-126C370,-126 378.98,-126 387.48,-126"/>
<polygon fill="black" stroke="black" points="387.54,-129.5 397.54,-126 387.54,-122.5 387.54,-129.5"/>
</g>
<!-- virus -->
<g id="node36" class="node">
<title>virus</title>
<ellipse fill="none" stroke="black" cx="313.13" cy="-18" rx="28.7" ry="18"/>
<text text-anchor="middle" x="313.13" y="-14.3" font-family="Times New Roman,serif" font-size="14.00">virus</text>
</g>
<!-- XGGOX2&#45;&gt;virus -->
<g id="edge35" class="edge">
<title>XGGOX2&#45;&gt;virus</title>
<path fill="none" stroke="black" d="M222.69,-36.46C239.8,-32.93 259.46,-28.87 275.98,-25.46"/>
<polygon fill="black" stroke="black" points="276.72,-28.88 285.81,-23.43 275.31,-22.02 276.72,-28.88"/>
</g>
<!-- visor -->
<g id="node38" class="node">
<title>visor</title>
<ellipse fill="none" stroke="black" cx="430.37" cy="-666" rx="28.7" ry="18"/>
<text text-anchor="middle" x="430.37" y="-662.3" font-family="Times New Roman,serif" font-size="14.00">visor</text>
</g>
<!-- OGGXX3&#45;&gt;visor -->
<g id="edge37" class="edge">
<title>OGGXX3&#45;&gt;visor</title>
<path fill="none" stroke="black" d="M361.33,-666C371.38,-666 381.86,-666 391.5,-666"/>
<polygon fill="black" stroke="black" points="391.57,-669.5 401.57,-666 391.57,-662.5 391.57,-669.5"/>
</g>
</g>
</svg>
