<?xml version="1.0" encoding="UTF-8" standalone="no"?>
<!DOCTYPE svg PUBLIC "-//W3C//DTD SVG 1.1//EN"
 "http://www.w3.org/Graphics/SVG/1.1/DTD/svg11.dtd">
<!-- Generated by graphviz version 2.50.0 (20211204.2007)
 -->
<!-- Pages: 1 -->
<svg width="466pt" height="206pt"
 viewBox="0.00 0.00 465.67 206.00" xmlns="http://www.w3.org/2000/svg" xmlns:xlink="http://www.w3.org/1999/xlink">
<g id="graph0" class="graph" transform="scale(1 1) rotate(0) translate(4 202)">
<polygon fill="white" stroke="transparent" points="-4,4 -4,-202 461.67,-202 461.67,4 -4,4"/>
<!-- GOXOX1 -->
<g id="node1" class="node">
<title>GOXOX1</title>
<ellipse fill="none" stroke="black" cx="48.1" cy="-99" rx="48.19" ry="18"/>
<text text-anchor="middle" x="48.1" y="-95.3" font-family="Times New Roman,serif" font-size="14.00">GOXOX1</text>
</g>
<!-- scald -->
<g id="node2" class="node">
<title>scald</title>
<ellipse fill="none" stroke="black" cx="180.94" cy="-180" rx="29.8" ry="18"/>
<text text-anchor="middle" x="180.94" y="-176.3" font-family="Times New Roman,serif" font-size="14.00">scald</text>
</g>
<!-- GOXOX1&#45;&gt;scald -->
<g id="edge1" class="edge">
<title>GOXOX1&#45;&gt;scald</title>
<path fill="none" stroke="black" d="M72.49,-114.75C89.01,-125.74 111.75,-140.59 132.19,-153 137.75,-156.37 143.73,-159.87 149.53,-163.17"/>
<polygon fill="black" stroke="black" points="147.96,-166.31 158.38,-168.18 151.4,-160.21 147.96,-166.31"/>
</g>
<!-- GGGGX2 -->
<g id="node3" class="node">
<title>GGGGX2</title>
<ellipse fill="none" stroke="black" cx="180.94" cy="-126" rx="48.99" ry="18"/>
<text text-anchor="middle" x="180.94" y="-122.3" font-family="Times New Roman,serif" font-size="14.00">GGGGX2</text>
</g>
<!-- GOXOX1&#45;&gt;GGGGX2 -->
<g id="edge2" class="edge">
<title>GOXOX1&#45;&gt;GGGGX2</title>
<path fill="none" stroke="black" d="M90.49,-107.54C102.43,-110.01 115.6,-112.72 128.08,-115.3"/>
<polygon fill="black" stroke="black" points="127.41,-118.73 137.91,-117.33 128.82,-111.88 127.41,-118.73"/>
</g>
<!-- GGXGG2 -->
<g id="node7" class="node">
<title>GGXGG2</title>
<ellipse fill="none" stroke="black" cx="180.94" cy="-72" rx="48.99" ry="18"/>
<text text-anchor="middle" x="180.94" y="-68.3" font-family="Times New Roman,serif" font-size="14.00">GGXGG2</text>
</g>
<!-- GOXOX1&#45;&gt;GGXGG2 -->
<g id="edge6" class="edge">
<title>GOXOX1&#45;&gt;GGXGG2</title>
<path fill="none" stroke="black" d="M90.49,-90.46C102.43,-87.99 115.6,-85.28 128.08,-82.7"/>
<polygon fill="black" stroke="black" points="128.82,-86.12 137.91,-80.67 127.41,-79.27 128.82,-86.12"/>
</g>
<!-- GGXOX2 -->
<g id="node9" class="node">
<title>GGXOX2</title>
<ellipse fill="none" stroke="black" cx="180.94" cy="-18" rx="48.19" ry="18"/>
<text text-anchor="middle" x="180.94" y="-14.3" font-family="Times New Roman,serif" font-size="14.00">GGXOX2</text>
</g>
<!-- GOXOX1&#45;&gt;GGXOX2 -->
<g id="edge8" class="edge">
<title>GOXOX1&#45;&gt;GGXOX2</title>
<path fill="none" stroke="black" d="M72.49,-83.25C89.01,-72.26 111.75,-57.41 132.19,-45 136.05,-42.66 140.12,-40.26 144.18,-37.9"/>
<polygon fill="black" stroke="black" points="146.06,-40.86 153,-32.85 142.58,-34.78 146.06,-40.86"/>
</g>
<!-- scalp -->
<g id="node4" class="node">
<title>scalp</title>
<ellipse fill="none" stroke="black" cx="314.43" cy="-180" rx="29.8" ry="18"/>
<text text-anchor="middle" x="314.43" y="-176.3" font-family="Times New Roman,serif" font-size="14.00">scalp</text>
</g>
<!-- GGGGX2&#45;&gt;scalp -->
<g id="edge3" class="edge">
<title>GGGGX2&#45;&gt;scalp</title>
<path fill="none" stroke="black" d="M214.1,-139.21C233.97,-147.37 259.42,-157.82 279.59,-166.1"/>
<polygon fill="black" stroke="black" points="278.43,-169.41 289.01,-169.97 281.09,-162.94 278.43,-169.41"/>
</g>
<!-- GGGGX3 -->
<g id="node5" class="node">
<title>GGGGX3</title>
<ellipse fill="none" stroke="black" cx="314.43" cy="-126" rx="48.99" ry="18"/>
<text text-anchor="middle" x="314.43" y="-122.3" font-family="Times New Roman,serif" font-size="14.00">GGGGX3</text>
</g>
<!-- GGGGX2&#45;&gt;GGGGX3 -->
<g id="edge4" class="edge">
<title>GGGGX2&#45;&gt;GGGGX3</title>
<path fill="none" stroke="black" d="M229.78,-126C238.03,-126 246.68,-126 255.17,-126"/>
<polygon fill="black" stroke="black" points="255.4,-129.5 265.4,-126 255.4,-122.5 255.4,-129.5"/>
</g>
<!-- scaly -->
<g id="node6" class="node">
<title>scaly</title>
<ellipse fill="none" stroke="black" cx="428.42" cy="-126" rx="29.5" ry="18"/>
<text text-anchor="middle" x="428.42" y="-122.3" font-family="Times New Roman,serif" font-size="14.00">scaly</text>
</g>
<!-- GGGGX3&#45;&gt;scaly -->
<g id="edge5" class="edge">
<title>GGGGX3&#45;&gt;scaly</title>
<path fill="none" stroke="black" d="M363.25,-126C371.78,-126 380.56,-126 388.79,-126"/>
<polygon fill="black" stroke="black" points="388.86,-129.5 398.86,-126 388.86,-122.5 388.86,-129.5"/>
</g>
<!-- scold -->
<g id="node8" class="node">
<title>scold</title>
<ellipse fill="none" stroke="black" cx="314.43" cy="-72" rx="30.59" ry="18"/>
<text text-anchor="middle" x="314.43" y="-68.3" font-family="Times New Roman,serif" font-size="14.00">scold</text>
</g>
<!-- GGXGG2&#45;&gt;scold -->
<g id="edge7" class="edge">
<title>GGXGG2&#45;&gt;scold</title>
<path fill="none" stroke="black" d="M229.78,-72C244.18,-72 259.81,-72 273.62,-72"/>
<polygon fill="black" stroke="black" points="273.78,-75.5 283.78,-72 273.78,-68.5 273.78,-75.5"/>
</g>
<!-- scowl -->
<g id="node10" class="node">
<title>scowl</title>
<ellipse fill="none" stroke="black" cx="314.43" cy="-18" rx="32.49" ry="18"/>
<text text-anchor="middle" x="314.43" y="-14.3" font-family="Times New Roman,serif" font-size="14.00">scowl</text>
</g>
<!-- GGXOX2&#45;&gt;scowl -->
<g id="edge9" class="edge">
<title>GGXOX2&#45;&gt;scowl</title>
<path fill="none" stroke="black" d="M229.04,-18C243.01,-18 258.21,-18 271.82,-18"/>
<polygon fill="black" stroke="black" points="271.86,-21.5 281.86,-18 271.86,-14.5 271.86,-21.5"/>
</g>
</g>
</svg>
