<?xml version="1.0" encoding="UTF-8" standalone="no"?>
<!DOCTYPE svg PUBLIC "-//W3C//DTD SVG 1.1//EN"
 "http://www.w3.org/Graphics/SVG/1.1/DTD/svg11.dtd">
<!-- Generated by graphviz version 2.50.0 (20211204.2007)
 -->
<!-- Pages: 1 -->
<svg width="332pt" height="152pt"
 viewBox="0.00 0.00 332.18 152.00" xmlns="http://www.w3.org/2000/svg" xmlns:xlink="http://www.w3.org/1999/xlink">
<g id="graph0" class="graph" transform="scale(1 1) rotate(0) translate(4 148)">
<polygon fill="white" stroke="transparent" points="-4,4 -4,-148 328.18,-148 328.18,4 -4,4"/>
<!-- XOXOG1 -->
<g id="node1" class="node">
<title>XOXOG1</title>
<ellipse fill="none" stroke="black" cx="48.1" cy="-72" rx="48.19" ry="18"/>
<text text-anchor="middle" x="48.1" y="-68.3" font-family="Times New Roman,serif" font-size="14.00">XOXOG1</text>
</g>
<!-- GXXGG2 -->
<g id="node2" class="node">
<title>GXXGG2</title>
<ellipse fill="none" stroke="black" cx="180.29" cy="-126" rx="48.19" ry="18"/>
<text text-anchor="middle" x="180.29" y="-122.3" font-family="Times New Roman,serif" font-size="14.00">GXXGG2</text>
</g>
<!-- XOXOG1&#45;&gt;GXXGG2 -->
<g id="edge1" class="edge">
<title>XOXOG1&#45;&gt;GXXGG2</title>
<path fill="none" stroke="black" d="M80.94,-85.21C98.12,-92.34 119.53,-101.21 137.98,-108.87"/>
<polygon fill="black" stroke="black" points="136.74,-112.14 147.32,-112.74 139.42,-105.68 136.74,-112.14"/>
</g>
<!-- OXXGG2 -->
<g id="node4" class="node">
<title>OXXGG2</title>
<ellipse fill="none" stroke="black" cx="180.29" cy="-72" rx="48.19" ry="18"/>
<text text-anchor="middle" x="180.29" y="-68.3" font-family="Times New Roman,serif" font-size="14.00">OXXGG2</text>
</g>
<!-- XOXOG1&#45;&gt;OXXGG2 -->
<g id="edge3" class="edge">
<title>XOXOG1&#45;&gt;OXXGG2</title>
<path fill="none" stroke="black" d="M96.47,-72C104.74,-72 113.42,-72 121.92,-72"/>
<polygon fill="black" stroke="black" points="122.17,-75.5 132.17,-72 122.17,-68.5 122.17,-75.5"/>
</g>
<!-- cable -->
<g id="node6" class="node">
<title>cable</title>
<ellipse fill="none" stroke="black" cx="180.29" cy="-18" rx="29.8" ry="18"/>
<text text-anchor="middle" x="180.29" y="-14.3" font-family="Times New Roman,serif" font-size="14.00">cable</text>
</g>
<!-- XOXOG1&#45;&gt;cable -->
<g id="edge5" class="edge">
<title>XOXOG1&#45;&gt;cable</title>
<path fill="none" stroke="black" d="M80.94,-58.79C100.61,-50.63 125.81,-40.18 145.78,-31.9"/>
<polygon fill="black" stroke="black" points="147.22,-35.09 155.11,-28.03 144.54,-28.62 147.22,-35.09"/>
</g>
<!-- cycle -->
<g id="node3" class="node">
<title>cycle</title>
<ellipse fill="none" stroke="black" cx="294.28" cy="-126" rx="29.8" ry="18"/>
<text text-anchor="middle" x="294.28" y="-122.3" font-family="Times New Roman,serif" font-size="14.00">cycle</text>
</g>
<!-- GXXGG2&#45;&gt;cycle -->
<g id="edge2" class="edge">
<title>GXXGG2&#45;&gt;cycle</title>
<path fill="none" stroke="black" d="M228.46,-126C237.03,-126 245.89,-126 254.2,-126"/>
<polygon fill="black" stroke="black" points="254.37,-129.5 264.37,-126 254.37,-122.5 254.37,-129.5"/>
</g>
<!-- uncle -->
<g id="node5" class="node">
<title>uncle</title>
<ellipse fill="none" stroke="black" cx="294.28" cy="-72" rx="29.8" ry="18"/>
<text text-anchor="middle" x="294.28" y="-68.3" font-family="Times New Roman,serif" font-size="14.00">uncle</text>
</g>
<!-- OXXGG2&#45;&gt;uncle -->
<g id="edge4" class="edge">
<title>OXXGG2&#45;&gt;uncle</title>
<path fill="none" stroke="black" d="M228.46,-72C237.03,-72 245.89,-72 254.2,-72"/>
<polygon fill="black" stroke="black" points="254.37,-75.5 264.37,-72 254.37,-68.5 254.37,-75.5"/>
</g>
</g>
</svg>
