<?xml version="1.0" encoding="UTF-8" standalone="no"?>
<!DOCTYPE svg PUBLIC "-//W3C//DTD SVG 1.1//EN"
 "http://www.w3.org/Graphics/SVG/1.1/DTD/svg11.dtd">
<!-- Generated by graphviz version 2.50.0 (20211204.2007)
 -->
<!-- Pages: 1 -->
<svg width="337pt" height="98pt"
 viewBox="0.00 0.00 337.38 98.00" xmlns="http://www.w3.org/2000/svg" xmlns:xlink="http://www.w3.org/1999/xlink">
<g id="graph0" class="graph" transform="scale(1 1) rotate(0) translate(4 94)">
<polygon fill="white" stroke="transparent" points="-4,4 -4,-94 333.38,-94 333.38,4 -4,4"/>
<!-- GXXOO1 -->
<g id="node1" class="node">
<title>GXXOO1</title>
<ellipse fill="none" stroke="black" cx="48.1" cy="-45" rx="48.19" ry="18"/>
<text text-anchor="middle" x="48.1" y="-41.3" font-family="Times New Roman,serif" font-size="14.00">GXXOO1</text>
</g>
<!-- GGOXX2 -->
<g id="node2" class="node">
<title>GGOXX2</title>
<ellipse fill="none" stroke="black" cx="180.29" cy="-72" rx="48.19" ry="18"/>
<text text-anchor="middle" x="180.29" y="-68.3" font-family="Times New Roman,serif" font-size="14.00">GGOXX2</text>
</g>
<!-- GXXOO1&#45;&gt;GGOXX2 -->
<g id="edge1" class="edge">
<title>GXXOO1&#45;&gt;GGOXX2</title>
<path fill="none" stroke="black" d="M90.65,-53.62C102.39,-56.05 115.32,-58.73 127.58,-61.28"/>
<polygon fill="black" stroke="black" points="127.18,-64.77 137.68,-63.37 128.6,-57.91 127.18,-64.77"/>
</g>
<!-- scent -->
<g id="node4" class="node">
<title>scent</title>
<ellipse fill="none" stroke="black" cx="180.29" cy="-18" rx="29.8" ry="18"/>
<text text-anchor="middle" x="180.29" y="-14.3" font-family="Times New Roman,serif" font-size="14.00">scent</text>
</g>
<!-- GXXOO1&#45;&gt;scent -->
<g id="edge3" class="edge">
<title>GXXOO1&#45;&gt;scent</title>
<path fill="none" stroke="black" d="M90.65,-36.38C107.01,-32.99 125.66,-29.12 141.62,-25.81"/>
<polygon fill="black" stroke="black" points="142.59,-29.19 151.67,-23.73 141.17,-22.33 142.59,-29.19"/>
</g>
<!-- screw -->
<g id="node3" class="node">
<title>screw</title>
<ellipse fill="none" stroke="black" cx="296.88" cy="-72" rx="32.49" ry="18"/>
<text text-anchor="middle" x="296.88" y="-68.3" font-family="Times New Roman,serif" font-size="14.00">screw</text>
</g>
<!-- GGOXX2&#45;&gt;screw -->
<g id="edge2" class="edge">
<title>GGOXX2&#45;&gt;screw</title>
<path fill="none" stroke="black" d="M228.56,-72C236.97,-72 245.67,-72 253.92,-72"/>
<polygon fill="black" stroke="black" points="254.07,-75.5 264.07,-72 254.07,-68.5 254.07,-75.5"/>
</g>
</g>
</svg>
