<?xml version="1.0" encoding="UTF-8" standalone="no"?>
<!DOCTYPE svg PUBLIC "-//W3C//DTD SVG 1.1//EN"
 "http://www.w3.org/Graphics/SVG/1.1/DTD/svg11.dtd">
<!-- Generated by graphviz version 2.50.0 (20211204.2007)
 -->
<!-- Pages: 1 -->
<svg width="328pt" height="98pt"
 viewBox="0.00 0.00 328.28 98.00" xmlns="http://www.w3.org/2000/svg" xmlns:xlink="http://www.w3.org/1999/xlink">
<g id="graph0" class="graph" transform="scale(1 1) rotate(0) translate(4 94)">
<polygon fill="white" stroke="transparent" points="-4,4 -4,-94 324.28,-94 324.28,4 -4,4"/>
<!-- GXGGX1 -->
<g id="node1" class="node">
<title>GXGGX1</title>
<ellipse fill="none" stroke="black" cx="48.1" cy="-45" rx="48.19" ry="18"/>
<text text-anchor="middle" x="48.1" y="-41.3" font-family="Times New Roman,serif" font-size="14.00">GXGGX1</text>
</g>
<!-- spicy -->
<g id="node2" class="node">
<title>spicy</title>
<ellipse fill="none" stroke="black" cx="180.29" cy="-72" rx="30.59" ry="18"/>
<text text-anchor="middle" x="180.29" y="-68.3" font-family="Times New Roman,serif" font-size="14.00">spicy</text>
</g>
<!-- GXGGX1&#45;&gt;spicy -->
<g id="edge1" class="edge">
<title>GXGGX1&#45;&gt;spicy</title>
<path fill="none" stroke="black" d="M90.65,-53.62C106.89,-56.98 125.38,-60.82 141.26,-64.11"/>
<polygon fill="black" stroke="black" points="140.77,-67.59 151.27,-66.19 142.19,-60.73 140.77,-67.59"/>
</g>
<!-- GXGGX2 -->
<g id="node3" class="node">
<title>GXGGX2</title>
<ellipse fill="none" stroke="black" cx="180.29" cy="-18" rx="48.19" ry="18"/>
<text text-anchor="middle" x="180.29" y="-14.3" font-family="Times New Roman,serif" font-size="14.00">GXGGX2</text>
</g>
<!-- GXGGX1&#45;&gt;GXGGX2 -->
<g id="edge2" class="edge">
<title>GXGGX1&#45;&gt;GXGGX2</title>
<path fill="none" stroke="black" d="M90.65,-36.38C102.39,-33.95 115.32,-31.27 127.58,-28.72"/>
<polygon fill="black" stroke="black" points="128.6,-32.09 137.68,-26.63 127.18,-25.23 128.6,-32.09"/>
</g>
<!-- stick -->
<g id="node4" class="node">
<title>stick</title>
<ellipse fill="none" stroke="black" cx="292.33" cy="-18" rx="27.9" ry="18"/>
<text text-anchor="middle" x="292.33" y="-14.3" font-family="Times New Roman,serif" font-size="14.00">stick</text>
</g>
<!-- GXGGX2&#45;&gt;stick -->
<g id="edge3" class="edge">
<title>GXGGX2&#45;&gt;stick</title>
<path fill="none" stroke="black" d="M228.59,-18C237.2,-18 246.05,-18 254.3,-18"/>
<polygon fill="black" stroke="black" points="254.37,-21.5 264.37,-18 254.37,-14.5 254.37,-21.5"/>
</g>
</g>
</svg>
