<?xml version="1.0" encoding="UTF-8" standalone="no"?>
<!DOCTYPE svg PUBLIC "-//W3C//DTD SVG 1.1//EN"
 "http://www.w3.org/Graphics/SVG/1.1/DTD/svg11.dtd">
<!-- Generated by graphviz version 2.50.0 (20211204.2007)
 -->
<!-- Pages: 1 -->
<svg width="336pt" height="260pt"
 viewBox="0.00 0.00 336.08 260.00" xmlns="http://www.w3.org/2000/svg" xmlns:xlink="http://www.w3.org/1999/xlink">
<g id="graph0" class="graph" transform="scale(1 1) rotate(0) translate(4 256)">
<polygon fill="white" stroke="transparent" points="-4,4 -4,-256 332.08,-256 332.08,4 -4,4"/>
<!-- OOXXO1 -->
<g id="node1" class="node">
<title>OOXXO1</title>
<ellipse fill="none" stroke="black" cx="48.1" cy="-126" rx="48.19" ry="18"/>
<text text-anchor="middle" x="48.1" y="-122.3" font-family="Times New Roman,serif" font-size="14.00">OOXXO1</text>
</g>
<!-- GOXOX2 -->
<g id="node2" class="node">
<title>GOXOX2</title>
<ellipse fill="none" stroke="black" cx="180.94" cy="-234" rx="48.19" ry="18"/>
<text text-anchor="middle" x="180.94" y="-230.3" font-family="Times New Roman,serif" font-size="14.00">GOXOX2</text>
</g>
<!-- OOXXO1&#45;&gt;GOXOX2 -->
<g id="edge1" class="edge">
<title>OOXXO1&#45;&gt;GOXOX2</title>
<path fill="none" stroke="black" d="M64.21,-143.14C80.07,-160.52 106.25,-187.53 132.19,-207 135.58,-209.54 139.22,-212.01 142.94,-214.36"/>
<polygon fill="black" stroke="black" points="141.28,-217.45 151.66,-219.6 144.89,-211.45 141.28,-217.45"/>
</g>
<!-- GGGGX2 -->
<g id="node4" class="node">
<title>GGGGX2</title>
<ellipse fill="none" stroke="black" cx="180.94" cy="-180" rx="48.99" ry="18"/>
<text text-anchor="middle" x="180.94" y="-176.3" font-family="Times New Roman,serif" font-size="14.00">GGGGX2</text>
</g>
<!-- OOXXO1&#45;&gt;GGGGX2 -->
<g id="edge3" class="edge">
<title>OOXXO1&#45;&gt;GGGGX2</title>
<path fill="none" stroke="black" d="M81.1,-139.21C98.37,-146.34 119.88,-155.21 138.42,-162.87"/>
<polygon fill="black" stroke="black" points="137.23,-166.16 147.81,-166.74 139.9,-159.69 137.23,-166.16"/>
</g>
<!-- OOOOX2 -->
<g id="node6" class="node">
<title>OOOOX2</title>
<ellipse fill="none" stroke="black" cx="180.94" cy="-126" rx="48.99" ry="18"/>
<text text-anchor="middle" x="180.94" y="-122.3" font-family="Times New Roman,serif" font-size="14.00">OOOOX2</text>
</g>
<!-- OOXXO1&#45;&gt;OOOOX2 -->
<g id="edge5" class="edge">
<title>OOXXO1&#45;&gt;OOOOX2</title>
<path fill="none" stroke="black" d="M96.33,-126C104.55,-126 113.19,-126 121.67,-126"/>
<polygon fill="black" stroke="black" points="121.89,-129.5 131.89,-126 121.89,-122.5 121.89,-129.5"/>
</g>
<!-- OGXGG2 -->
<g id="node8" class="node">
<title>OGXGG2</title>
<ellipse fill="none" stroke="black" cx="180.94" cy="-72" rx="48.99" ry="18"/>
<text text-anchor="middle" x="180.94" y="-68.3" font-family="Times New Roman,serif" font-size="14.00">OGXGG2</text>
</g>
<!-- OOXXO1&#45;&gt;OGXGG2 -->
<g id="edge7" class="edge">
<title>OOXXO1&#45;&gt;OGXGG2</title>
<path fill="none" stroke="black" d="M81.1,-112.79C98.37,-105.66 119.88,-96.79 138.42,-89.13"/>
<polygon fill="black" stroke="black" points="139.9,-92.31 147.81,-85.26 137.23,-85.84 139.9,-92.31"/>
</g>
<!-- leash -->
<g id="node10" class="node">
<title>leash</title>
<ellipse fill="none" stroke="black" cx="180.94" cy="-18" rx="28.7" ry="18"/>
<text text-anchor="middle" x="180.94" y="-14.3" font-family="Times New Roman,serif" font-size="14.00">leash</text>
</g>
<!-- OOXXO1&#45;&gt;leash -->
<g id="edge9" class="edge">
<title>OOXXO1&#45;&gt;leash</title>
<path fill="none" stroke="black" d="M64.21,-108.86C80.07,-91.48 106.25,-64.47 132.19,-45 137.39,-41.1 143.21,-37.36 148.95,-33.97"/>
<polygon fill="black" stroke="black" points="150.82,-36.93 157.81,-28.97 147.38,-30.84 150.82,-36.93"/>
</g>
<!-- loser -->
<g id="node3" class="node">
<title>loser</title>
<ellipse fill="none" stroke="black" cx="296.88" cy="-234" rx="28.7" ry="18"/>
<text text-anchor="middle" x="296.88" y="-230.3" font-family="Times New Roman,serif" font-size="14.00">loser</text>
</g>
<!-- GOXOX2&#45;&gt;loser -->
<g id="edge2" class="edge">
<title>GOXOX2&#45;&gt;loser</title>
<path fill="none" stroke="black" d="M229.27,-234C238.87,-234 248.84,-234 258.05,-234"/>
<polygon fill="black" stroke="black" points="258.07,-237.5 268.07,-234 258.07,-230.5 258.07,-237.5"/>
</g>
<!-- least -->
<g id="node5" class="node">
<title>least</title>
<ellipse fill="none" stroke="black" cx="296.88" cy="-180" rx="27" ry="18"/>
<text text-anchor="middle" x="296.88" y="-176.3" font-family="Times New Roman,serif" font-size="14.00">least</text>
</g>
<!-- GGGGX2&#45;&gt;least -->
<g id="edge4" class="edge">
<title>GGGGX2&#45;&gt;least</title>
<path fill="none" stroke="black" d="M229.93,-180C239.83,-180 250.1,-180 259.5,-180"/>
<polygon fill="black" stroke="black" points="259.69,-183.5 269.69,-180 259.69,-176.5 259.69,-183.5"/>
</g>
<!-- easel -->
<g id="node7" class="node">
<title>easel</title>
<ellipse fill="none" stroke="black" cx="296.88" cy="-126" rx="28.7" ry="18"/>
<text text-anchor="middle" x="296.88" y="-122.3" font-family="Times New Roman,serif" font-size="14.00">easel</text>
</g>
<!-- OOOOX2&#45;&gt;easel -->
<g id="edge6" class="edge">
<title>OOOOX2&#45;&gt;easel</title>
<path fill="none" stroke="black" d="M229.93,-126C239.28,-126 248.97,-126 257.94,-126"/>
<polygon fill="black" stroke="black" points="258.09,-129.5 268.09,-126 258.09,-122.5 258.09,-129.5"/>
</g>
<!-- welsh -->
<g id="node9" class="node">
<title>welsh</title>
<ellipse fill="none" stroke="black" cx="296.88" cy="-72" rx="31.4" ry="18"/>
<text text-anchor="middle" x="296.88" y="-68.3" font-family="Times New Roman,serif" font-size="14.00">welsh</text>
</g>
<!-- OGXGG2&#45;&gt;welsh -->
<g id="edge8" class="edge">
<title>OGXGG2&#45;&gt;welsh</title>
<path fill="none" stroke="black" d="M229.93,-72C238.4,-72 247.13,-72 255.37,-72"/>
<polygon fill="black" stroke="black" points="255.48,-75.5 265.48,-72 255.48,-68.5 255.48,-75.5"/>
</g>
</g>
</svg>
