<?xml version="1.0" encoding="UTF-8" standalone="no"?>
<!DOCTYPE svg PUBLIC "-//W3C//DTD SVG 1.1//EN"
 "http://www.w3.org/Graphics/SVG/1.1/DTD/svg11.dtd">
<!-- Generated by graphviz version 2.50.0 (20211204.2007)
 -->
<!-- Pages: 1 -->
<svg width="606pt" height="1691pt"
 viewBox="0.00 0.00 605.66 1691.00" xmlns="http://www.w3.org/2000/svg" xmlns:xlink="http://www.w3.org/1999/xlink">
<g id="graph0" class="graph" transform="scale(1 1) rotate(0) translate(4 1687)">
<polygon fill="white" stroke="transparent" points="-4,4 -4,-1687 601.66,-1687 601.66,4 -4,4"/>
<!-- OXXXG1 -->
<g id="node1" class="node">
<title>OXXXG1</title>
<ellipse fill="none" stroke="black" cx="48.1" cy="-477" rx="48.19" ry="18"/>
<text text-anchor="middle" x="48.1" y="-473.3" font-family="Times New Roman,serif" font-size="14.00">OXXXG1</text>
</g>
<!-- GXXGG2 -->
<g id="node2" class="node">
<title>GXXGG2</title>
<ellipse fill="none" stroke="black" cx="180.94" cy="-1557" rx="48.19" ry="18"/>
<text text-anchor="middle" x="180.94" y="-1553.3" font-family="Times New Roman,serif" font-size="14.00">GXXGG2</text>
</g>
<!-- OXXXG1&#45;&gt;GXXGG2 -->
<g id="edge1" class="edge">
<title>OXXXG1&#45;&gt;GXXGG2</title>
<path fill="none" stroke="black" d="M49.42,-495.3C51.38,-590.4 63.99,-1037.38 132.19,-1395 141.36,-1443.08 158.87,-1497.34 169.95,-1529.28"/>
<polygon fill="black" stroke="black" points="166.69,-1530.55 173.3,-1538.82 173.29,-1528.23 166.69,-1530.55"/>
</g>
<!-- OXXGG2 -->
<g id="node5" class="node">
<title>OXXGG2</title>
<ellipse fill="none" stroke="black" cx="180.94" cy="-1044" rx="48.19" ry="18"/>
<text text-anchor="middle" x="180.94" y="-1040.3" font-family="Times New Roman,serif" font-size="14.00">OXXGG2</text>
</g>
<!-- OXXXG1&#45;&gt;OXXGG2 -->
<g id="edge4" class="edge">
<title>OXXXG1&#45;&gt;OXXGG2</title>
<path fill="none" stroke="black" d="M50.34,-495.08C55.14,-558.86 75.08,-778.77 132.19,-950 140.17,-973.91 153.38,-999.31 163.89,-1017.66"/>
<polygon fill="black" stroke="black" points="160.88,-1019.45 168.94,-1026.32 166.93,-1015.92 160.88,-1019.45"/>
</g>
<!-- XXGGG2 -->
<g id="node8" class="node">
<title>XXGGG2</title>
<ellipse fill="none" stroke="black" cx="180.94" cy="-1368" rx="48.19" ry="18"/>
<text text-anchor="middle" x="180.94" y="-1364.3" font-family="Times New Roman,serif" font-size="14.00">XXGGG2</text>
</g>
<!-- OXXXG1&#45;&gt;XXGGG2 -->
<g id="edge7" class="edge">
<title>OXXXG1&#45;&gt;XXGGG2</title>
<path fill="none" stroke="black" d="M51.48,-495C61.08,-567.35 98.06,-843.95 132.19,-1071 147.08,-1170.05 166.46,-1287.38 175.24,-1340.01"/>
<polygon fill="black" stroke="black" points="171.8,-1340.65 176.9,-1349.94 178.71,-1339.5 171.8,-1340.65"/>
</g>
<!-- OXXOG2 -->
<g id="node18" class="node">
<title>OXXOG2</title>
<ellipse fill="none" stroke="black" cx="180.94" cy="-585" rx="48.19" ry="18"/>
<text text-anchor="middle" x="180.94" y="-581.3" font-family="Times New Roman,serif" font-size="14.00">OXXOG2</text>
</g>
<!-- OXXXG1&#45;&gt;OXXOG2 -->
<g id="edge17" class="edge">
<title>OXXXG1&#45;&gt;OXXOG2</title>
<path fill="none" stroke="black" d="M68.97,-493.4C91.06,-511.64 126.92,-541.24 151.87,-561.83"/>
<polygon fill="black" stroke="black" points="149.94,-564.78 159.88,-568.44 154.39,-559.38 149.94,-564.78"/>
</g>
<!-- XOXGG2 -->
<g id="node24" class="node">
<title>XOXGG2</title>
<ellipse fill="none" stroke="black" cx="180.94" cy="-477" rx="48.19" ry="18"/>
<text text-anchor="middle" x="180.94" y="-473.3" font-family="Times New Roman,serif" font-size="14.00">XOXGG2</text>
</g>
<!-- OXXXG1&#45;&gt;XOXGG2 -->
<g id="edge23" class="edge">
<title>OXXXG1&#45;&gt;XOXGG2</title>
<path fill="none" stroke="black" d="M96.33,-477C104.86,-477 113.83,-477 122.6,-477"/>
<polygon fill="black" stroke="black" points="122.77,-480.5 132.77,-477 122.77,-473.5 122.77,-480.5"/>
</g>
<!-- XXOGG2 -->
<g id="node27" class="node">
<title>XXOGG2</title>
<ellipse fill="none" stroke="black" cx="180.94" cy="-923" rx="48.19" ry="18"/>
<text text-anchor="middle" x="180.94" y="-919.3" font-family="Times New Roman,serif" font-size="14.00">XXOGG2</text>
</g>
<!-- OXXXG1&#45;&gt;XXOGG2 -->
<g id="edge27" class="edge">
<title>OXXXG1&#45;&gt;XXOGG2</title>
<path fill="none" stroke="black" d="M52.42,-495.28C61.98,-546.54 91.52,-695.75 132.19,-815 141.83,-843.27 155.96,-874.34 166.35,-895.87"/>
<polygon fill="black" stroke="black" points="163.3,-897.59 170.83,-905.04 169.59,-894.52 163.3,-897.59"/>
</g>
<!-- XGGGG2 -->
<g id="node29" class="node">
<title>XGGGG2</title>
<ellipse fill="none" stroke="black" cx="180.94" cy="-369" rx="48.99" ry="18"/>
<text text-anchor="middle" x="180.94" y="-365.3" font-family="Times New Roman,serif" font-size="14.00">XGGGG2</text>
</g>
<!-- OXXXG1&#45;&gt;XGGGG2 -->
<g id="edge29" class="edge">
<title>OXXXG1&#45;&gt;XGGGG2</title>
<path fill="none" stroke="black" d="M68.97,-460.6C91.06,-442.36 126.92,-412.76 151.87,-392.17"/>
<polygon fill="black" stroke="black" points="154.39,-394.62 159.88,-385.56 149.94,-389.22 154.39,-394.62"/>
</g>
<!-- XOOGG2 -->
<g id="node34" class="node">
<title>XOOGG2</title>
<ellipse fill="none" stroke="black" cx="180.94" cy="-288" rx="48.99" ry="18"/>
<text text-anchor="middle" x="180.94" y="-284.3" font-family="Times New Roman,serif" font-size="14.00">XOOGG2</text>
</g>
<!-- OXXXG1&#45;&gt;XOOGG2 -->
<g id="edge34" class="edge">
<title>OXXXG1&#45;&gt;XOOGG2</title>
<path fill="none" stroke="black" d="M58.67,-459.33C73.27,-432.93 102.53,-382.02 132.19,-342 139.68,-331.89 148.66,-321.39 156.79,-312.37"/>
<polygon fill="black" stroke="black" points="159.49,-314.61 163.66,-304.87 154.33,-309.88 159.49,-314.61"/>
</g>
<!-- XXXOG2 -->
<g id="node37" class="node">
<title>XXXOG2</title>
<ellipse fill="none" stroke="black" cx="180.94" cy="-234" rx="48.19" ry="18"/>
<text text-anchor="middle" x="180.94" y="-230.3" font-family="Times New Roman,serif" font-size="14.00">XXXOG2</text>
</g>
<!-- OXXXG1&#45;&gt;XXXOG2 -->
<g id="edge37" class="edge">
<title>OXXXG1&#45;&gt;XXXOG2</title>
<path fill="none" stroke="black" d="M51.8,-458.95C58.62,-418.97 79.84,-321.7 132.19,-261 134.64,-258.17 137.46,-255.56 140.48,-253.19"/>
<polygon fill="black" stroke="black" points="142.58,-256 148.83,-247.44 138.61,-250.23 142.58,-256"/>
</g>
<!-- XXXGG2 -->
<g id="node45" class="node">
<title>XXXGG2</title>
<ellipse fill="none" stroke="black" cx="180.94" cy="-788" rx="48.19" ry="18"/>
<text text-anchor="middle" x="180.94" y="-784.3" font-family="Times New Roman,serif" font-size="14.00">XXXGG2</text>
</g>
<!-- OXXXG1&#45;&gt;XXXGG2 -->
<g id="edge45" class="edge">
<title>OXXXG1&#45;&gt;XXXGG2</title>
<path fill="none" stroke="black" d="M56.7,-495.06C78.65,-547.26 142.28,-698.49 168.47,-760.74"/>
<polygon fill="black" stroke="black" points="165.37,-762.41 172.48,-770.27 171.83,-759.7 165.37,-762.41"/>
</g>
<!-- arose -->
<g id="node47" class="node">
<title>arose</title>
<ellipse fill="none" stroke="black" cx="180.94" cy="-180" rx="30.59" ry="18"/>
<text text-anchor="middle" x="180.94" y="-176.3" font-family="Times New Roman,serif" font-size="14.00">arose</text>
</g>
<!-- OXXXG1&#45;&gt;arose -->
<g id="edge47" class="edge">
<title>OXXXG1&#45;&gt;arose</title>
<path fill="none" stroke="black" d="M50.15,-458.79C53.73,-411.97 69.03,-285.54 132.19,-207 136.01,-202.25 140.91,-198.18 146.11,-194.76"/>
<polygon fill="black" stroke="black" points="148.12,-197.64 155,-189.59 144.6,-191.59 148.12,-197.64"/>
</g>
<!-- OGXGG2 -->
<g id="node56" class="node">
<title>OGXGG2</title>
<ellipse fill="none" stroke="black" cx="180.94" cy="-99" rx="48.99" ry="18"/>
<text text-anchor="middle" x="180.94" y="-95.3" font-family="Times New Roman,serif" font-size="14.00">OGXGG2</text>
</g>
<!-- OXXXG1&#45;&gt;OGXGG2 -->
<g id="edge61" class="edge">
<title>OXXXG1&#45;&gt;OGXGG2</title>
<path fill="none" stroke="black" d="M50.76,-458.72C56.02,-407.62 75.47,-259.97 132.19,-153 137.9,-142.23 146.19,-131.83 154.25,-123.08"/>
<polygon fill="black" stroke="black" points="156.8,-125.49 161.22,-115.86 151.76,-120.63 156.8,-125.49"/>
</g>
<!-- OOXGG2 -->
<g id="node60" class="node">
<title>OOXGG2</title>
<ellipse fill="none" stroke="black" cx="180.94" cy="-32" rx="48.99" ry="18"/>
<text text-anchor="middle" x="180.94" y="-28.3" font-family="Times New Roman,serif" font-size="14.00">OOXGG2</text>
</g>
<!-- OXXXG1&#45;&gt;OOXGG2 -->
<g id="edge65" class="edge">
<title>OXXXG1&#45;&gt;OOXGG2</title>
<path fill="none" stroke="black" d="M48.72,-458.95C48.28,-399.2 53.31,-204.22 132.19,-72 136.08,-65.49 141.42,-59.54 147.12,-54.34"/>
<polygon fill="black" stroke="black" points="149.6,-56.83 155.03,-47.73 145.11,-51.46 149.6,-56.83"/>
</g>
<!-- OXXXG3 -->
<g id="node3" class="node">
<title>OXXXG3</title>
<ellipse fill="none" stroke="black" cx="314.43" cy="-1611" rx="48.19" ry="18"/>
<text text-anchor="middle" x="314.43" y="-1607.3" font-family="Times New Roman,serif" font-size="14.00">OXXXG3</text>
</g>
<!-- GXXGG2&#45;&gt;OXXXG3 -->
<g id="edge2" class="edge">
<title>GXXGG2&#45;&gt;OXXXG3</title>
<path fill="none" stroke="black" d="M214.1,-1570.21C231.46,-1577.34 253.07,-1586.21 271.71,-1593.87"/>
<polygon fill="black" stroke="black" points="270.56,-1597.18 281.14,-1597.74 273.22,-1590.7 270.56,-1597.18"/>
</g>
<!-- XXXOG3 -->
<g id="node41" class="node">
<title>XXXOG3</title>
<ellipse fill="none" stroke="black" cx="314.43" cy="-1557" rx="48.19" ry="18"/>
<text text-anchor="middle" x="314.43" y="-1553.3" font-family="Times New Roman,serif" font-size="14.00">XXXOG3</text>
</g>
<!-- GXXGG2&#45;&gt;XXXOG3 -->
<g id="edge41" class="edge">
<title>GXXGG2&#45;&gt;XXXOG3</title>
<path fill="none" stroke="black" d="M229.04,-1557C237.82,-1557 247.08,-1557 256.13,-1557"/>
<polygon fill="black" stroke="black" points="256.22,-1560.5 266.22,-1557 256.22,-1553.5 256.22,-1560.5"/>
</g>
<!-- abase -->
<g id="node4" class="node">
<title>abase</title>
<ellipse fill="none" stroke="black" cx="448.57" cy="-1611" rx="31.4" ry="18"/>
<text text-anchor="middle" x="448.57" y="-1607.3" font-family="Times New Roman,serif" font-size="14.00">abase</text>
</g>
<!-- OXXXG3&#45;&gt;abase -->
<g id="edge3" class="edge">
<title>OXXXG3&#45;&gt;abase</title>
<path fill="none" stroke="black" d="M362.76,-1611C377.16,-1611 392.85,-1611 406.78,-1611"/>
<polygon fill="black" stroke="black" points="407.04,-1614.5 417.04,-1611 407.04,-1607.5 407.04,-1614.5"/>
</g>
<!-- GGOGG4 -->
<g id="node52" class="node">
<title>GGOGG4</title>
<ellipse fill="none" stroke="black" cx="448.57" cy="-1665" rx="49.29" ry="18"/>
<text text-anchor="middle" x="448.57" y="-1661.3" font-family="Times New Roman,serif" font-size="14.00">GGOGG4</text>
</g>
<!-- OXXXG3&#45;&gt;GGOGG4 -->
<g id="edge56" class="edge">
<title>OXXXG3&#45;&gt;GGOGG4</title>
<path fill="none" stroke="black" d="M347.75,-1624.21C365.19,-1631.34 386.92,-1640.21 405.64,-1647.87"/>
<polygon fill="black" stroke="black" points="404.54,-1651.2 415.12,-1651.74 407.19,-1644.72 404.54,-1651.2"/>
</g>
<!-- XGXGG3 -->
<g id="node6" class="node">
<title>XGXGG3</title>
<ellipse fill="none" stroke="black" cx="314.43" cy="-1044" rx="48.19" ry="18"/>
<text text-anchor="middle" x="314.43" y="-1040.3" font-family="Times New Roman,serif" font-size="14.00">XGXGG3</text>
</g>
<!-- OXXGG2&#45;&gt;XGXGG3 -->
<g id="edge5" class="edge">
<title>OXXGG2&#45;&gt;XGXGG3</title>
<path fill="none" stroke="black" d="M229.04,-1044C237.82,-1044 247.08,-1044 256.13,-1044"/>
<polygon fill="black" stroke="black" points="256.22,-1047.5 266.22,-1044 256.22,-1040.5 256.22,-1047.5"/>
</g>
<!-- pause -->
<g id="node11" class="node">
<title>pause</title>
<ellipse fill="none" stroke="black" cx="314.43" cy="-1152" rx="31.7" ry="18"/>
<text text-anchor="middle" x="314.43" y="-1148.3" font-family="Times New Roman,serif" font-size="14.00">pause</text>
</g>
<!-- OXXGG2&#45;&gt;pause -->
<g id="edge10" class="edge">
<title>OXXGG2&#45;&gt;pause</title>
<path fill="none" stroke="black" d="M197.2,-1061.13C213.2,-1078.5 239.59,-1105.51 265.68,-1125 270.47,-1128.58 275.78,-1132.03 281.07,-1135.19"/>
<polygon fill="black" stroke="black" points="279.44,-1138.29 289.86,-1140.22 282.92,-1132.22 279.44,-1138.29"/>
</g>
<!-- XOXGG3 -->
<g id="node12" class="node">
<title>XOXGG3</title>
<ellipse fill="none" stroke="black" cx="314.43" cy="-923" rx="48.19" ry="18"/>
<text text-anchor="middle" x="314.43" y="-919.3" font-family="Times New Roman,serif" font-size="14.00">XOXGG3</text>
</g>
<!-- OXXGG2&#45;&gt;XOXGG3 -->
<g id="edge11" class="edge">
<title>OXXGG2&#45;&gt;XOXGG3</title>
<path fill="none" stroke="black" d="M194.69,-1026.49C209.97,-1006.33 237.1,-973.06 265.68,-950 268.93,-947.38 272.47,-944.86 276.11,-942.49"/>
<polygon fill="black" stroke="black" points="277.97,-945.45 284.66,-937.24 274.31,-939.49 277.97,-945.45"/>
</g>
<!-- GOXGG3 -->
<g id="node14" class="node">
<title>GOXGG3</title>
<ellipse fill="none" stroke="black" cx="314.43" cy="-1098" rx="48.99" ry="18"/>
<text text-anchor="middle" x="314.43" y="-1094.3" font-family="Times New Roman,serif" font-size="14.00">GOXGG3</text>
</g>
<!-- OXXGG2&#45;&gt;GOXGG3 -->
<g id="edge13" class="edge">
<title>OXXGG2&#45;&gt;GOXGG3</title>
<path fill="none" stroke="black" d="M214.1,-1057.21C231.46,-1064.34 253.07,-1073.21 271.71,-1080.87"/>
<polygon fill="black" stroke="black" points="270.56,-1084.18 281.14,-1084.74 273.22,-1077.7 270.56,-1084.18"/>
</g>
<!-- masse -->
<g id="node7" class="node">
<title>masse</title>
<ellipse fill="none" stroke="black" cx="448.57" cy="-1179" rx="33.29" ry="18"/>
<text text-anchor="middle" x="448.57" y="-1175.3" font-family="Times New Roman,serif" font-size="14.00">masse</text>
</g>
<!-- XGXGG3&#45;&gt;masse -->
<g id="edge6" class="edge">
<title>XGXGG3&#45;&gt;masse</title>
<path fill="none" stroke="black" d="M346.33,-1057.63C352.45,-1061.33 358.44,-1065.78 363.17,-1071 389.66,-1100.17 372.61,-1122.91 399.17,-1152 403.03,-1156.22 407.69,-1159.93 412.59,-1163.15"/>
<polygon fill="black" stroke="black" points="411.14,-1166.35 421.53,-1168.4 414.69,-1160.32 411.14,-1166.35"/>
</g>
<!-- posse -->
<g id="node48" class="node">
<title>posse</title>
<ellipse fill="none" stroke="black" cx="448.57" cy="-1125" rx="32.49" ry="18"/>
<text text-anchor="middle" x="448.57" y="-1121.3" font-family="Times New Roman,serif" font-size="14.00">posse</text>
</g>
<!-- XGXGG3&#45;&gt;posse -->
<g id="edge49" class="edge">
<title>XGXGG3&#45;&gt;posse</title>
<path fill="none" stroke="black" d="M343.06,-1058.83C349.74,-1062.63 356.8,-1066.83 363.17,-1071 379.91,-1081.95 382.4,-1087.1 399.17,-1098 404.24,-1101.29 409.73,-1104.59 415.13,-1107.7"/>
<polygon fill="black" stroke="black" points="413.62,-1110.86 424.06,-1112.71 417.05,-1104.76 413.62,-1110.86"/>
</g>
<!-- geese -->
<g id="node71" class="node">
<title>geese</title>
<ellipse fill="none" stroke="black" cx="448.57" cy="-1071" rx="30.59" ry="18"/>
<text text-anchor="middle" x="448.57" y="-1067.3" font-family="Times New Roman,serif" font-size="14.00">geese</text>
</g>
<!-- XGXGG3&#45;&gt;geese -->
<g id="edge77" class="edge">
<title>XGXGG3&#45;&gt;geese</title>
<path fill="none" stroke="black" d="M356.88,-1052.47C373.67,-1055.9 392.95,-1059.84 409.4,-1063.2"/>
<polygon fill="black" stroke="black" points="408.73,-1066.64 419.23,-1065.21 410.13,-1059.78 408.73,-1066.64"/>
</g>
<!-- GXXXX3 -->
<g id="node9" class="node">
<title>GXXXX3</title>
<ellipse fill="none" stroke="black" cx="314.43" cy="-1341" rx="47.39" ry="18"/>
<text text-anchor="middle" x="314.43" y="-1337.3" font-family="Times New Roman,serif" font-size="14.00">GXXXX3</text>
</g>
<!-- XXGGG2&#45;&gt;GXXXX3 -->
<g id="edge8" class="edge">
<title>XXGGG2&#45;&gt;GXXXX3</title>
<path fill="none" stroke="black" d="M223.54,-1359.46C235.77,-1356.95 249.3,-1354.17 262.06,-1351.55"/>
<polygon fill="black" stroke="black" points="263,-1354.93 272.09,-1349.49 261.59,-1348.07 263,-1354.93"/>
</g>
<!-- XXXXO3 -->
<g id="node16" class="node">
<title>XXXXO3</title>
<ellipse fill="none" stroke="black" cx="314.43" cy="-1287" rx="47.39" ry="18"/>
<text text-anchor="middle" x="314.43" y="-1283.3" font-family="Times New Roman,serif" font-size="14.00">XXXXO3</text>
</g>
<!-- XXGGG2&#45;&gt;XXXXO3 -->
<g id="edge15" class="edge">
<title>XXGGG2&#45;&gt;XXXXO3</title>
<path fill="none" stroke="black" d="M205.53,-1352.27C222.18,-1341.29 245.1,-1326.44 265.68,-1314 269.55,-1311.66 273.62,-1309.27 277.68,-1306.91"/>
<polygon fill="black" stroke="black" points="279.56,-1309.87 286.5,-1301.87 276.08,-1303.8 279.56,-1309.87"/>
</g>
<!-- XXXOX3 -->
<g id="node39" class="node">
<title>XXXOX3</title>
<ellipse fill="none" stroke="black" cx="314.43" cy="-1503" rx="47.39" ry="18"/>
<text text-anchor="middle" x="314.43" y="-1499.3" font-family="Times New Roman,serif" font-size="14.00">XXXOX3</text>
</g>
<!-- XXGGG2&#45;&gt;XXXOX3 -->
<g id="edge39" class="edge">
<title>XXGGG2&#45;&gt;XXXOX3</title>
<path fill="none" stroke="black" d="M192.6,-1385.83C206.99,-1408.81 234.45,-1449 265.68,-1476 268.84,-1478.73 272.32,-1481.32 275.92,-1483.74"/>
<polygon fill="black" stroke="black" points="274.09,-1486.72 284.43,-1489.04 277.79,-1480.78 274.09,-1486.72"/>
</g>
<!-- XXXXX3 -->
<g id="node72" class="node">
<title>XXXXX3</title>
<ellipse fill="none" stroke="black" cx="314.43" cy="-1449" rx="46.59" ry="18"/>
<text text-anchor="middle" x="314.43" y="-1445.3" font-family="Times New Roman,serif" font-size="14.00">XXXXX3</text>
</g>
<!-- XXGGG2&#45;&gt;XXXXX3 -->
<g id="edge78" class="edge">
<title>XXGGG2&#45;&gt;XXXXX3</title>
<path fill="none" stroke="black" d="M205.53,-1383.73C222.18,-1394.71 245.1,-1409.56 265.68,-1422 269.55,-1424.34 273.62,-1426.73 277.68,-1429.09"/>
<polygon fill="black" stroke="black" points="276.08,-1432.2 286.5,-1434.13 279.56,-1426.13 276.08,-1432.2"/>
</g>
<!-- XOXXX3 -->
<g id="node74" class="node">
<title>XOXXX3</title>
<ellipse fill="none" stroke="black" cx="314.43" cy="-1395" rx="47.39" ry="18"/>
<text text-anchor="middle" x="314.43" y="-1391.3" font-family="Times New Roman,serif" font-size="14.00">XOXXX3</text>
</g>
<!-- XXGGG2&#45;&gt;XOXXX3 -->
<g id="edge80" class="edge">
<title>XXGGG2&#45;&gt;XOXXX3</title>
<path fill="none" stroke="black" d="M223.54,-1376.54C235.77,-1379.05 249.3,-1381.83 262.06,-1384.45"/>
<polygon fill="black" stroke="black" points="261.59,-1387.93 272.09,-1386.51 263,-1381.07 261.59,-1387.93"/>
</g>
<!-- those -->
<g id="node10" class="node">
<title>those</title>
<ellipse fill="none" stroke="black" cx="448.57" cy="-1341" rx="30.59" ry="18"/>
<text text-anchor="middle" x="448.57" y="-1337.3" font-family="Times New Roman,serif" font-size="14.00">those</text>
</g>
<!-- GXXXX3&#45;&gt;those -->
<g id="edge9" class="edge">
<title>GXXXX3&#45;&gt;those</title>
<path fill="none" stroke="black" d="M362.02,-1341C376.96,-1341 393.37,-1341 407.79,-1341"/>
<polygon fill="black" stroke="black" points="407.88,-1344.5 417.88,-1341 407.88,-1337.5 407.88,-1344.5"/>
</g>
<!-- tease -->
<g id="node13" class="node">
<title>tease</title>
<ellipse fill="none" stroke="black" cx="448.57" cy="-1017" rx="28.7" ry="18"/>
<text text-anchor="middle" x="448.57" y="-1013.3" font-family="Times New Roman,serif" font-size="14.00">tease</text>
</g>
<!-- XOXGG3&#45;&gt;tease -->
<g id="edge12" class="edge">
<title>XOXGG3&#45;&gt;tease</title>
<path fill="none" stroke="black" d="M344.18,-937.26C350.69,-941.03 357.38,-945.35 363.17,-950 381.83,-964.97 380.48,-975.08 399.17,-990 404.31,-994.1 410.14,-997.93 415.94,-1001.34"/>
<polygon fill="black" stroke="black" points="414.48,-1004.53 424.92,-1006.35 417.89,-998.42 414.48,-1004.53"/>
</g>
<!-- obese -->
<g id="node51" class="node">
<title>obese</title>
<ellipse fill="none" stroke="black" cx="448.57" cy="-963" rx="32.49" ry="18"/>
<text text-anchor="middle" x="448.57" y="-959.3" font-family="Times New Roman,serif" font-size="14.00">obese</text>
</g>
<!-- XOXGG3&#45;&gt;obese -->
<g id="edge55" class="edge">
<title>XOXGG3&#45;&gt;obese</title>
<path fill="none" stroke="black" d="M352.24,-934.14C370.28,-939.6 391.97,-946.17 410.1,-951.66"/>
<polygon fill="black" stroke="black" points="409.17,-955.03 419.76,-954.58 411.2,-948.33 409.17,-955.03"/>
</g>
<!-- these -->
<g id="node55" class="node">
<title>these</title>
<ellipse fill="none" stroke="black" cx="448.57" cy="-909" rx="29.5" ry="18"/>
<text text-anchor="middle" x="448.57" y="-905.3" font-family="Times New Roman,serif" font-size="14.00">these</text>
</g>
<!-- XOXGG3&#45;&gt;these -->
<g id="edge60" class="edge">
<title>XOXGG3&#45;&gt;these</title>
<path fill="none" stroke="black" d="M360.9,-918.18C376.68,-916.51 394.19,-914.66 409.32,-913.05"/>
<polygon fill="black" stroke="black" points="409.78,-916.52 419.36,-911.99 409.05,-909.56 409.78,-916.52"/>
</g>
<!-- phase -->
<g id="node15" class="node">
<title>phase</title>
<ellipse fill="none" stroke="black" cx="448.57" cy="-1233" rx="31.7" ry="18"/>
<text text-anchor="middle" x="448.57" y="-1229.3" font-family="Times New Roman,serif" font-size="14.00">phase</text>
</g>
<!-- GOXGG3&#45;&gt;phase -->
<g id="edge14" class="edge">
<title>GOXGG3&#45;&gt;phase</title>
<path fill="none" stroke="black" d="M346.33,-1111.63C352.45,-1115.33 358.44,-1119.78 363.17,-1125 389.66,-1154.17 372.61,-1176.91 399.17,-1206 403.25,-1210.46 408.23,-1214.36 413.44,-1217.7"/>
<polygon fill="black" stroke="black" points="411.87,-1220.84 422.29,-1222.8 415.37,-1214.77 411.87,-1220.84"/>
</g>
<!-- goose -->
<g id="node17" class="node">
<title>goose</title>
<ellipse fill="none" stroke="black" cx="448.57" cy="-1287" rx="32.49" ry="18"/>
<text text-anchor="middle" x="448.57" y="-1283.3" font-family="Times New Roman,serif" font-size="14.00">goose</text>
</g>
<!-- XXXXO3&#45;&gt;goose -->
<g id="edge16" class="edge">
<title>XXXXO3&#45;&gt;goose</title>
<path fill="none" stroke="black" d="M362.02,-1287C376.23,-1287 391.76,-1287 405.64,-1287"/>
<polygon fill="black" stroke="black" points="405.89,-1290.5 415.89,-1287 405.89,-1283.5 405.89,-1290.5"/>
</g>
<!-- XGGGG3 -->
<g id="node19" class="node">
<title>XGGGG3</title>
<ellipse fill="none" stroke="black" cx="314.43" cy="-693" rx="48.99" ry="18"/>
<text text-anchor="middle" x="314.43" y="-689.3" font-family="Times New Roman,serif" font-size="14.00">XGGGG3</text>
</g>
<!-- OXXOG2&#45;&gt;XGGGG3 -->
<g id="edge18" class="edge">
<title>OXXOG2&#45;&gt;XGGGG3</title>
<path fill="none" stroke="black" d="M201.91,-601.4C224.11,-619.64 260.15,-649.24 285.22,-669.83"/>
<polygon fill="black" stroke="black" points="283.32,-672.8 293.27,-676.44 287.76,-667.39 283.32,-672.8"/>
</g>
<!-- XOOXG3 -->
<g id="node43" class="node">
<title>XOOXG3</title>
<ellipse fill="none" stroke="black" cx="314.43" cy="-612" rx="48.19" ry="18"/>
<text text-anchor="middle" x="314.43" y="-608.3" font-family="Times New Roman,serif" font-size="14.00">XOOXG3</text>
</g>
<!-- OXXOG2&#45;&gt;XOOXG3 -->
<g id="edge43" class="edge">
<title>OXXOG2&#45;&gt;XOOXG3</title>
<path fill="none" stroke="black" d="M223.54,-593.54C235.65,-596.03 249.03,-598.78 261.69,-601.38"/>
<polygon fill="black" stroke="black" points="261.14,-604.84 271.64,-603.42 262.55,-597.98 261.14,-604.84"/>
</g>
<!-- baste -->
<g id="node70" class="node">
<title>baste</title>
<ellipse fill="none" stroke="black" cx="314.43" cy="-558" rx="29.8" ry="18"/>
<text text-anchor="middle" x="314.43" y="-554.3" font-family="Times New Roman,serif" font-size="14.00">baste</text>
</g>
<!-- OXXOG2&#45;&gt;baste -->
<g id="edge75" class="edge">
<title>OXXOG2&#45;&gt;baste</title>
<path fill="none" stroke="black" d="M223.54,-576.46C240.21,-573.04 259.27,-569.12 275.55,-565.78"/>
<polygon fill="black" stroke="black" points="276.69,-569.12 285.78,-563.68 275.28,-562.26 276.69,-569.12"/>
</g>
<!-- GXOXX4 -->
<g id="node20" class="node">
<title>GXOXX4</title>
<ellipse fill="none" stroke="black" cx="448.57" cy="-693" rx="48.19" ry="18"/>
<text text-anchor="middle" x="448.57" y="-689.3" font-family="Times New Roman,serif" font-size="14.00">GXOXX4</text>
</g>
<!-- XGGGG3&#45;&gt;GXOXX4 -->
<g id="edge19" class="edge">
<title>XGGGG3&#45;&gt;GXOXX4</title>
<path fill="none" stroke="black" d="M363.51,-693C372.1,-693 381.13,-693 389.96,-693"/>
<polygon fill="black" stroke="black" points="390.19,-696.5 400.19,-693 390.19,-689.5 390.19,-696.5"/>
</g>
<!-- XXOXO4 -->
<g id="node22" class="node">
<title>XXOXO4</title>
<ellipse fill="none" stroke="black" cx="448.57" cy="-639" rx="48.19" ry="18"/>
<text text-anchor="middle" x="448.57" y="-635.3" font-family="Times New Roman,serif" font-size="14.00">XXOXO4</text>
</g>
<!-- XGGGG3&#45;&gt;XXOXO4 -->
<g id="edge21" class="edge">
<title>XGGGG3&#45;&gt;XXOXO4</title>
<path fill="none" stroke="black" d="M347.75,-679.79C365.19,-672.66 386.92,-663.79 405.64,-656.13"/>
<polygon fill="black" stroke="black" points="407.19,-659.28 415.12,-652.26 404.54,-652.8 407.19,-659.28"/>
</g>
<!-- purse -->
<g id="node25" class="node">
<title>purse</title>
<ellipse fill="none" stroke="black" cx="448.57" cy="-585" rx="30.59" ry="18"/>
<text text-anchor="middle" x="448.57" y="-581.3" font-family="Times New Roman,serif" font-size="14.00">purse</text>
</g>
<!-- XGGGG3&#45;&gt;purse -->
<g id="edge25" class="edge">
<title>XGGGG3&#45;&gt;purse</title>
<path fill="none" stroke="black" d="M330.67,-675.84C346.65,-658.45 373.03,-631.42 399.17,-612 404.34,-608.16 410.12,-604.48 415.83,-601.14"/>
<polygon fill="black" stroke="black" points="417.64,-604.14 424.65,-596.2 414.22,-598.04 417.64,-604.14"/>
</g>
<!-- mouse -->
<g id="node49" class="node">
<title>mouse</title>
<ellipse fill="none" stroke="black" cx="448.57" cy="-531" rx="34.39" ry="18"/>
<text text-anchor="middle" x="448.57" y="-527.3" font-family="Times New Roman,serif" font-size="14.00">mouse</text>
</g>
<!-- XGGGG3&#45;&gt;mouse -->
<g id="edge51" class="edge">
<title>XGGGG3&#45;&gt;mouse</title>
<path fill="none" stroke="black" d="M332.81,-676.11C342.58,-665.98 354.52,-652.48 363.17,-639 384.47,-605.86 372.61,-587.09 399.17,-558 402.95,-553.87 407.5,-550.22 412.29,-547.05"/>
<polygon fill="black" stroke="black" points="414.22,-549.98 421.03,-541.86 410.65,-543.96 414.22,-549.98"/>
</g>
<!-- tense -->
<g id="node50" class="node">
<title>tense</title>
<ellipse fill="none" stroke="black" cx="448.57" cy="-855" rx="29.5" ry="18"/>
<text text-anchor="middle" x="448.57" y="-851.3" font-family="Times New Roman,serif" font-size="14.00">tense</text>
</g>
<!-- XGGGG3&#45;&gt;tense -->
<g id="edge53" class="edge">
<title>XGGGG3&#45;&gt;tense</title>
<path fill="none" stroke="black" d="M328.59,-710.51C338.53,-724.01 352.27,-743.32 363.17,-761 380.92,-789.77 375.46,-803.91 399.17,-828 403.69,-832.59 409.16,-836.63 414.76,-840.08"/>
<polygon fill="black" stroke="black" points="413.14,-843.19 423.57,-845.04 416.57,-837.08 413.14,-843.19"/>
</g>
<!-- XOOXX4 -->
<g id="node58" class="node">
<title>XOOXX4</title>
<ellipse fill="none" stroke="black" cx="448.57" cy="-801" rx="48.19" ry="18"/>
<text text-anchor="middle" x="448.57" y="-797.3" font-family="Times New Roman,serif" font-size="14.00">XOOXX4</text>
</g>
<!-- XGGGG3&#45;&gt;XOOXX4 -->
<g id="edge63" class="edge">
<title>XGGGG3&#45;&gt;XOOXX4</title>
<path fill="none" stroke="black" d="M330.67,-710.16C346.65,-727.55 373.03,-754.58 399.17,-774 402.61,-776.55 406.31,-779.03 410.08,-781.38"/>
<polygon fill="black" stroke="black" points="408.52,-784.53 418.91,-786.63 412.1,-778.51 408.52,-784.53"/>
</g>
<!-- XXOXX4 -->
<g id="node62" class="node">
<title>XXOXX4</title>
<ellipse fill="none" stroke="black" cx="448.57" cy="-747" rx="47.39" ry="18"/>
<text text-anchor="middle" x="448.57" y="-743.3" font-family="Times New Roman,serif" font-size="14.00">XXOXX4</text>
</g>
<!-- XGGGG3&#45;&gt;XXOXX4 -->
<g id="edge67" class="edge">
<title>XGGGG3&#45;&gt;XXOXX4</title>
<path fill="none" stroke="black" d="M347.75,-706.21C365.4,-713.42 387.44,-722.43 406.32,-730.14"/>
<polygon fill="black" stroke="black" points="405,-733.38 415.58,-733.93 407.65,-726.9 405,-733.38"/>
</g>
<!-- waste -->
<g id="node21" class="node">
<title>waste</title>
<ellipse fill="none" stroke="black" cx="565.81" cy="-693" rx="31.4" ry="18"/>
<text text-anchor="middle" x="565.81" y="-689.3" font-family="Times New Roman,serif" font-size="14.00">waste</text>
</g>
<!-- GXOXX4&#45;&gt;waste -->
<g id="edge20" class="edge">
<title>GXOXX4&#45;&gt;waste</title>
<path fill="none" stroke="black" d="M496.78,-693C505.89,-693 515.36,-693 524.24,-693"/>
<polygon fill="black" stroke="black" points="524.34,-696.5 534.34,-693 524.34,-689.5 524.34,-696.5"/>
</g>
<!-- paste -->
<g id="node23" class="node">
<title>paste</title>
<ellipse fill="none" stroke="black" cx="565.81" cy="-639" rx="29.8" ry="18"/>
<text text-anchor="middle" x="565.81" y="-635.3" font-family="Times New Roman,serif" font-size="14.00">paste</text>
</g>
<!-- XXOXO4&#45;&gt;paste -->
<g id="edge22" class="edge">
<title>XXOXO4&#45;&gt;paste</title>
<path fill="none" stroke="black" d="M496.78,-639C506.35,-639 516.32,-639 525.58,-639"/>
<polygon fill="black" stroke="black" points="525.68,-642.5 535.68,-639 525.68,-635.5 525.68,-642.5"/>
</g>
<!-- XOXGG2&#45;&gt;XGGGG3 -->
<g id="edge24" class="edge">
<title>XOXGG2&#45;&gt;XGGGG3</title>
<path fill="none" stroke="black" d="M193.16,-494.69C203.24,-510.88 218.18,-535.65 229.68,-558 247.71,-593.03 244.39,-605.86 265.68,-639 272.38,-649.42 281.04,-659.86 289.14,-668.74"/>
<polygon fill="black" stroke="black" points="286.65,-671.21 296.05,-676.11 291.76,-666.42 286.65,-671.21"/>
</g>
<!-- nurse -->
<g id="node26" class="node">
<title>nurse</title>
<ellipse fill="none" stroke="black" cx="314.43" cy="-504" rx="30.59" ry="18"/>
<text text-anchor="middle" x="314.43" y="-500.3" font-family="Times New Roman,serif" font-size="14.00">nurse</text>
</g>
<!-- XOXGG2&#45;&gt;nurse -->
<g id="edge26" class="edge">
<title>XOXGG2&#45;&gt;nurse</title>
<path fill="none" stroke="black" d="M223.54,-485.54C240.08,-488.94 258.99,-492.82 275.18,-496.15"/>
<polygon fill="black" stroke="black" points="274.88,-499.66 285.38,-498.24 276.29,-492.8 274.88,-499.66"/>
</g>
<!-- XXGGG3 -->
<g id="node31" class="node">
<title>XXGGG3</title>
<ellipse fill="none" stroke="black" cx="314.43" cy="-450" rx="48.19" ry="18"/>
<text text-anchor="middle" x="314.43" y="-446.3" font-family="Times New Roman,serif" font-size="14.00">XXGGG3</text>
</g>
<!-- XOXGG2&#45;&gt;XXGGG3 -->
<g id="edge31" class="edge">
<title>XOXGG2&#45;&gt;XXGGG3</title>
<path fill="none" stroke="black" d="M223.54,-468.46C235.65,-465.97 249.03,-463.22 261.69,-460.62"/>
<polygon fill="black" stroke="black" points="262.55,-464.02 271.64,-458.58 261.14,-457.16 262.55,-464.02"/>
</g>
<!-- XOOGG3 -->
<g id="node66" class="node">
<title>XOOGG3</title>
<ellipse fill="none" stroke="black" cx="314.43" cy="-396" rx="48.99" ry="18"/>
<text text-anchor="middle" x="314.43" y="-392.3" font-family="Times New Roman,serif" font-size="14.00">XOOGG3</text>
</g>
<!-- XOXGG2&#45;&gt;XOOGG3 -->
<g id="edge71" class="edge">
<title>XOXGG2&#45;&gt;XOOGG3</title>
<path fill="none" stroke="black" d="M205.53,-461.27C222.18,-450.29 245.1,-435.44 265.68,-423 269.55,-420.66 273.62,-418.27 277.68,-415.91"/>
<polygon fill="black" stroke="black" points="279.56,-418.87 286.5,-410.87 276.08,-412.8 279.56,-418.87"/>
</g>
<!-- XXOGG2&#45;&gt;XGXGG3 -->
<g id="edge48" class="edge">
<title>XXOGG2&#45;&gt;XGXGG3</title>
<path fill="none" stroke="black" d="M198.6,-939.81C215.27,-956.45 241.78,-982.48 265.68,-1004 271.9,-1009.6 278.72,-1015.46 285.21,-1020.92"/>
<polygon fill="black" stroke="black" points="283.26,-1023.86 293.18,-1027.58 287.74,-1018.48 283.26,-1023.86"/>
</g>
<!-- XXOGG2&#45;&gt;XOXGG3 -->
<g id="edge54" class="edge">
<title>XXOGG2&#45;&gt;XOXGG3</title>
<path fill="none" stroke="black" d="M229.04,-923C237.82,-923 247.08,-923 256.13,-923"/>
<polygon fill="black" stroke="black" points="256.22,-926.5 266.22,-923 256.22,-919.5 256.22,-926.5"/>
</g>
<!-- XXOGG2&#45;&gt;XGGGG3 -->
<g id="edge50" class="edge">
<title>XXOGG2&#45;&gt;XGGGG3</title>
<path fill="none" stroke="black" d="M190.22,-905.07C204.46,-874.74 235.01,-811.64 265.68,-761 274.43,-746.56 285.15,-731.12 294.22,-718.6"/>
<polygon fill="black" stroke="black" points="297.1,-720.59 300.19,-710.46 291.46,-716.46 297.1,-720.59"/>
</g>
<!-- house -->
<g id="node28" class="node">
<title>house</title>
<ellipse fill="none" stroke="black" cx="314.43" cy="-977" rx="32.49" ry="18"/>
<text text-anchor="middle" x="314.43" y="-973.3" font-family="Times New Roman,serif" font-size="14.00">house</text>
</g>
<!-- XXOGG2&#45;&gt;house -->
<g id="edge28" class="edge">
<title>XXOGG2&#45;&gt;house</title>
<path fill="none" stroke="black" d="M214.1,-936.21C233.57,-944.21 258.42,-954.41 278.39,-962.61"/>
<polygon fill="black" stroke="black" points="277.17,-965.89 287.75,-966.46 279.83,-959.42 277.17,-965.89"/>
</g>
<!-- prose -->
<g id="node30" class="node">
<title>prose</title>
<ellipse fill="none" stroke="black" cx="314.43" cy="-342" rx="31.4" ry="18"/>
<text text-anchor="middle" x="314.43" y="-338.3" font-family="Times New Roman,serif" font-size="14.00">prose</text>
</g>
<!-- XGGGG2&#45;&gt;prose -->
<g id="edge30" class="edge">
<title>XGGGG2&#45;&gt;prose</title>
<path fill="none" stroke="black" d="M223.9,-360.38C240.18,-357.04 258.7,-353.24 274.66,-349.96"/>
<polygon fill="black" stroke="black" points="275.64,-353.33 284.73,-347.89 274.23,-346.48 275.64,-353.33"/>
</g>
<!-- XGGGG4 -->
<g id="node32" class="node">
<title>XGGGG4</title>
<ellipse fill="none" stroke="black" cx="448.57" cy="-423" rx="48.99" ry="18"/>
<text text-anchor="middle" x="448.57" y="-419.3" font-family="Times New Roman,serif" font-size="14.00">XGGGG4</text>
</g>
<!-- XXGGG3&#45;&gt;XGGGG4 -->
<g id="edge32" class="edge">
<title>XXGGG3&#45;&gt;XGGGG4</title>
<path fill="none" stroke="black" d="M356.88,-441.53C369.06,-439.04 382.55,-436.29 395.31,-433.68"/>
<polygon fill="black" stroke="black" points="396.26,-437.06 405.36,-431.62 394.86,-430.2 396.26,-437.06"/>
</g>
<!-- terse -->
<g id="node54" class="node">
<title>terse</title>
<ellipse fill="none" stroke="black" cx="448.57" cy="-369" rx="27.9" ry="18"/>
<text text-anchor="middle" x="448.57" y="-365.3" font-family="Times New Roman,serif" font-size="14.00">terse</text>
</g>
<!-- XXGGG3&#45;&gt;terse -->
<g id="edge58" class="edge">
<title>XXGGG3&#45;&gt;terse</title>
<path fill="none" stroke="black" d="M343.06,-435.17C349.74,-431.37 356.8,-427.17 363.17,-423 379.91,-412.05 382.4,-406.9 399.17,-396 404.79,-392.35 410.92,-388.7 416.88,-385.3"/>
<polygon fill="black" stroke="black" points="418.97,-388.15 426,-380.22 415.56,-382.03 418.97,-388.15"/>
</g>
<!-- verse -->
<g id="node33" class="node">
<title>verse</title>
<ellipse fill="none" stroke="black" cx="565.81" cy="-423" rx="29.8" ry="18"/>
<text text-anchor="middle" x="565.81" y="-419.3" font-family="Times New Roman,serif" font-size="14.00">verse</text>
</g>
<!-- XGGGG4&#45;&gt;verse -->
<g id="edge33" class="edge">
<title>XGGGG4&#45;&gt;verse</title>
<path fill="none" stroke="black" d="M497.44,-423C506.78,-423 516.46,-423 525.48,-423"/>
<polygon fill="black" stroke="black" points="525.7,-426.5 535.7,-423 525.7,-419.5 525.7,-426.5"/>
</g>
<!-- XXOOX3 -->
<g id="node35" class="node">
<title>XXOOX3</title>
<ellipse fill="none" stroke="black" cx="314.43" cy="-288" rx="48.19" ry="18"/>
<text text-anchor="middle" x="314.43" y="-284.3" font-family="Times New Roman,serif" font-size="14.00">XXOOX3</text>
</g>
<!-- XOOGG2&#45;&gt;XXOOX3 -->
<g id="edge35" class="edge">
<title>XOOGG2&#45;&gt;XXOOX3</title>
<path fill="none" stroke="black" d="M229.78,-288C238.33,-288 247.32,-288 256.1,-288"/>
<polygon fill="black" stroke="black" points="256.28,-291.5 266.28,-288 256.28,-284.5 256.28,-291.5"/>
</g>
<!-- XXGOO3 -->
<g id="node64" class="node">
<title>XXGOO3</title>
<ellipse fill="none" stroke="black" cx="314.43" cy="-234" rx="48.19" ry="18"/>
<text text-anchor="middle" x="314.43" y="-230.3" font-family="Times New Roman,serif" font-size="14.00">XXGOO3</text>
</g>
<!-- XOOGG2&#45;&gt;XXGOO3 -->
<g id="edge69" class="edge">
<title>XOOGG2&#45;&gt;XXGOO3</title>
<path fill="none" stroke="black" d="M214.1,-274.79C231.46,-267.66 253.07,-258.79 271.71,-251.13"/>
<polygon fill="black" stroke="black" points="273.22,-254.3 281.14,-247.26 270.56,-247.82 273.22,-254.3"/>
</g>
<!-- XOGOX3 -->
<g id="node68" class="node">
<title>XOGOX3</title>
<ellipse fill="none" stroke="black" cx="314.43" cy="-180" rx="48.19" ry="18"/>
<text text-anchor="middle" x="314.43" y="-176.3" font-family="Times New Roman,serif" font-size="14.00">XOGOX3</text>
</g>
<!-- XOOGG2&#45;&gt;XOGOX3 -->
<g id="edge73" class="edge">
<title>XOOGG2&#45;&gt;XOGOX3</title>
<path fill="none" stroke="black" d="M211.69,-274.03C218.02,-270.31 224.38,-265.93 229.68,-261 250.81,-241.37 244.55,-226.63 265.68,-207 268.58,-204.31 271.8,-201.77 275.15,-199.42"/>
<polygon fill="black" stroke="black" points="277.14,-202.31 283.67,-193.97 273.36,-196.41 277.14,-202.31"/>
</g>
<!-- rouse -->
<g id="node36" class="node">
<title>rouse</title>
<ellipse fill="none" stroke="black" cx="448.57" cy="-261" rx="30.59" ry="18"/>
<text text-anchor="middle" x="448.57" y="-257.3" font-family="Times New Roman,serif" font-size="14.00">rouse</text>
</g>
<!-- XXOOX3&#45;&gt;rouse -->
<g id="edge36" class="edge">
<title>XXOOX3&#45;&gt;rouse</title>
<path fill="none" stroke="black" d="M356.88,-279.53C373.67,-276.1 392.95,-272.16 409.4,-268.8"/>
<polygon fill="black" stroke="black" points="410.13,-272.22 419.23,-266.79 408.73,-265.36 410.13,-272.22"/>
</g>
<!-- ensue -->
<g id="node38" class="node">
<title>ensue</title>
<ellipse fill="none" stroke="black" cx="314.43" cy="-126" rx="31.4" ry="18"/>
<text text-anchor="middle" x="314.43" y="-122.3" font-family="Times New Roman,serif" font-size="14.00">ensue</text>
</g>
<!-- XXXOG2&#45;&gt;ensue -->
<g id="edge38" class="edge">
<title>XXXOG2&#45;&gt;ensue</title>
<path fill="none" stroke="black" d="M211.69,-220.03C218.02,-216.31 224.38,-211.93 229.68,-207 250.81,-187.37 244.55,-172.63 265.68,-153 270.06,-148.93 275.17,-145.23 280.37,-141.97"/>
<polygon fill="black" stroke="black" points="282.23,-144.94 289.13,-136.9 278.72,-138.88 282.23,-144.94"/>
</g>
<!-- noose -->
<g id="node40" class="node">
<title>noose</title>
<ellipse fill="none" stroke="black" cx="448.57" cy="-1503" rx="32.49" ry="18"/>
<text text-anchor="middle" x="448.57" y="-1499.3" font-family="Times New Roman,serif" font-size="14.00">noose</text>
</g>
<!-- XXXOX3&#45;&gt;noose -->
<g id="edge40" class="edge">
<title>XXXOX3&#45;&gt;noose</title>
<path fill="none" stroke="black" d="M362.02,-1503C376.23,-1503 391.76,-1503 405.64,-1503"/>
<polygon fill="black" stroke="black" points="405.89,-1506.5 415.89,-1503 405.89,-1499.5 405.89,-1506.5"/>
</g>
<!-- amuse -->
<g id="node42" class="node">
<title>amuse</title>
<ellipse fill="none" stroke="black" cx="448.57" cy="-1557" rx="33.6" ry="18"/>
<text text-anchor="middle" x="448.57" y="-1553.3" font-family="Times New Roman,serif" font-size="14.00">amuse</text>
</g>
<!-- XXXOG3&#45;&gt;amuse -->
<g id="edge42" class="edge">
<title>XXXOG3&#45;&gt;amuse</title>
<path fill="none" stroke="black" d="M362.76,-1557C376.32,-1557 391.02,-1557 404.32,-1557"/>
<polygon fill="black" stroke="black" points="404.63,-1560.5 414.63,-1557 404.63,-1553.5 404.63,-1560.5"/>
</g>
<!-- usage -->
<g id="node44" class="node">
<title>usage</title>
<ellipse fill="none" stroke="black" cx="448.57" cy="-477" rx="31.4" ry="18"/>
<text text-anchor="middle" x="448.57" y="-473.3" font-family="Times New Roman,serif" font-size="14.00">usage</text>
</g>
<!-- XOOXG3&#45;&gt;usage -->
<g id="edge44" class="edge">
<title>XOOXG3&#45;&gt;usage</title>
<path fill="none" stroke="black" d="M346.33,-598.37C352.45,-594.67 358.44,-590.22 363.17,-585 389.66,-555.83 372.61,-533.09 399.17,-504 403.25,-499.54 408.23,-495.64 413.44,-492.3"/>
<polygon fill="black" stroke="black" points="415.37,-495.23 422.29,-487.2 411.87,-489.16 415.37,-495.23"/>
</g>
<!-- XXXGG2&#45;&gt;XGXGG3 -->
<g id="edge76" class="edge">
<title>XXXGG2&#45;&gt;XGXGG3</title>
<path fill="none" stroke="black" d="M190.4,-805.75C200.38,-826.97 217.19,-863.69 229.68,-896 247.93,-943.19 237.21,-962.17 265.68,-1004 270.03,-1010.39 275.68,-1016.33 281.55,-1021.58"/>
<polygon fill="black" stroke="black" points="279.68,-1024.57 289.61,-1028.27 284.16,-1019.19 279.68,-1024.57"/>
</g>
<!-- XXXGG2&#45;&gt;XOXGG3 -->
<g id="edge59" class="edge">
<title>XXXGG2&#45;&gt;XOXGG3</title>
<path fill="none" stroke="black" d="M198.32,-804.82C221.36,-828.47 263.43,-871.67 289.83,-898.77"/>
<polygon fill="black" stroke="black" points="287.35,-901.24 296.83,-905.96 292.36,-896.36 287.35,-901.24"/>
</g>
<!-- XXXGG2&#45;&gt;XGGGG3 -->
<g id="edge52" class="edge">
<title>XXXGG2&#45;&gt;XGGGG3</title>
<path fill="none" stroke="black" d="M203.95,-772.1C225.66,-756.41 259.02,-732.31 283.21,-714.83"/>
<polygon fill="black" stroke="black" points="285.29,-717.65 291.35,-708.95 281.19,-711.97 285.29,-717.65"/>
</g>
<!-- dense -->
<g id="node46" class="node">
<title>dense</title>
<ellipse fill="none" stroke="black" cx="314.43" cy="-788" rx="31.7" ry="18"/>
<text text-anchor="middle" x="314.43" y="-784.3" font-family="Times New Roman,serif" font-size="14.00">dense</text>
</g>
<!-- XXXGG2&#45;&gt;dense -->
<g id="edge46" class="edge">
<title>XXXGG2&#45;&gt;dense</title>
<path fill="none" stroke="black" d="M229.04,-788C243.13,-788 258.47,-788 272.16,-788"/>
<polygon fill="black" stroke="black" points="272.26,-791.5 282.26,-788 272.26,-784.5 272.26,-791.5"/>
</g>
<!-- abuse -->
<g id="node53" class="node">
<title>abuse</title>
<ellipse fill="none" stroke="black" cx="565.81" cy="-1665" rx="31.7" ry="18"/>
<text text-anchor="middle" x="565.81" y="-1661.3" font-family="Times New Roman,serif" font-size="14.00">abuse</text>
</g>
<!-- GGOGG4&#45;&gt;abuse -->
<g id="edge57" class="edge">
<title>GGOGG4&#45;&gt;abuse</title>
<path fill="none" stroke="black" d="M498.11,-1665C506.59,-1665 515.33,-1665 523.59,-1665"/>
<polygon fill="black" stroke="black" points="523.73,-1668.5 533.73,-1665 523.73,-1661.5 523.73,-1668.5"/>
</g>
<!-- erase -->
<g id="node57" class="node">
<title>erase</title>
<ellipse fill="none" stroke="black" cx="314.43" cy="-72" rx="29.5" ry="18"/>
<text text-anchor="middle" x="314.43" y="-68.3" font-family="Times New Roman,serif" font-size="14.00">erase</text>
</g>
<!-- OGXGG2&#45;&gt;erase -->
<g id="edge62" class="edge">
<title>OGXGG2&#45;&gt;erase</title>
<path fill="none" stroke="black" d="M223.9,-90.38C240.67,-86.94 259.83,-83.01 276.11,-79.66"/>
<polygon fill="black" stroke="black" points="277.24,-83 286.33,-77.56 275.83,-76.15 277.24,-83"/>
</g>
<!-- haste -->
<g id="node59" class="node">
<title>haste</title>
<ellipse fill="none" stroke="black" cx="565.81" cy="-801" rx="29.5" ry="18"/>
<text text-anchor="middle" x="565.81" y="-797.3" font-family="Times New Roman,serif" font-size="14.00">haste</text>
</g>
<!-- XOOXX4&#45;&gt;haste -->
<g id="edge64" class="edge">
<title>XOOXX4&#45;&gt;haste</title>
<path fill="none" stroke="black" d="M496.78,-801C506.53,-801 516.7,-801 526.11,-801"/>
<polygon fill="black" stroke="black" points="526.35,-804.5 536.35,-801 526.35,-797.5 526.35,-804.5"/>
</g>
<!-- parse -->
<g id="node61" class="node">
<title>parse</title>
<ellipse fill="none" stroke="black" cx="314.43" cy="-18" rx="30.59" ry="18"/>
<text text-anchor="middle" x="314.43" y="-14.3" font-family="Times New Roman,serif" font-size="14.00">parse</text>
</g>
<!-- OOXGG2&#45;&gt;parse -->
<g id="edge66" class="edge">
<title>OOXGG2&#45;&gt;parse</title>
<path fill="none" stroke="black" d="M227.93,-27.1C242.94,-25.5 259.48,-23.74 273.97,-22.2"/>
<polygon fill="black" stroke="black" points="274.54,-25.66 284.11,-21.12 273.8,-18.7 274.54,-25.66"/>
</g>
<!-- taste -->
<g id="node63" class="node">
<title>taste</title>
<ellipse fill="none" stroke="black" cx="565.81" cy="-747" rx="27.1" ry="18"/>
<text text-anchor="middle" x="565.81" y="-743.3" font-family="Times New Roman,serif" font-size="14.00">taste</text>
</g>
<!-- XXOXX4&#45;&gt;taste -->
<g id="edge68" class="edge">
<title>XXOXX4&#45;&gt;taste</title>
<path fill="none" stroke="black" d="M496.11,-747C506.77,-747 517.96,-747 528.14,-747"/>
<polygon fill="black" stroke="black" points="528.32,-750.5 538.32,-747 528.32,-743.5 528.32,-750.5"/>
</g>
<!-- worse -->
<g id="node65" class="node">
<title>worse</title>
<ellipse fill="none" stroke="black" cx="448.57" cy="-207" rx="32.49" ry="18"/>
<text text-anchor="middle" x="448.57" y="-203.3" font-family="Times New Roman,serif" font-size="14.00">worse</text>
</g>
<!-- XXGOO3&#45;&gt;worse -->
<g id="edge70" class="edge">
<title>XXGOO3&#45;&gt;worse</title>
<path fill="none" stroke="black" d="M356.88,-225.53C373.02,-222.23 391.45,-218.47 407.46,-215.19"/>
<polygon fill="black" stroke="black" points="408.49,-218.56 417.59,-213.13 407.09,-211.7 408.49,-218.56"/>
</g>
<!-- reuse -->
<g id="node67" class="node">
<title>reuse</title>
<ellipse fill="none" stroke="black" cx="448.57" cy="-315" rx="29.8" ry="18"/>
<text text-anchor="middle" x="448.57" y="-311.3" font-family="Times New Roman,serif" font-size="14.00">reuse</text>
</g>
<!-- XOOGG3&#45;&gt;reuse -->
<g id="edge72" class="edge">
<title>XOOGG3&#45;&gt;reuse</title>
<path fill="none" stroke="black" d="M343.06,-381.17C349.74,-377.37 356.8,-373.17 363.17,-369 379.91,-358.05 382.4,-352.9 399.17,-342 404.68,-338.42 410.69,-334.83 416.54,-331.49"/>
<polygon fill="black" stroke="black" points="418.49,-334.41 425.52,-326.49 415.08,-328.3 418.49,-334.41"/>
</g>
<!-- horse -->
<g id="node69" class="node">
<title>horse</title>
<ellipse fill="none" stroke="black" cx="448.57" cy="-153" rx="30.59" ry="18"/>
<text text-anchor="middle" x="448.57" y="-149.3" font-family="Times New Roman,serif" font-size="14.00">horse</text>
</g>
<!-- XOGOX3&#45;&gt;horse -->
<g id="edge74" class="edge">
<title>XOGOX3&#45;&gt;horse</title>
<path fill="none" stroke="black" d="M356.88,-171.53C373.67,-168.1 392.95,-164.16 409.4,-160.8"/>
<polygon fill="black" stroke="black" points="410.13,-164.22 419.23,-158.79 408.73,-157.36 410.13,-164.22"/>
</g>
<!-- moose -->
<g id="node73" class="node">
<title>moose</title>
<ellipse fill="none" stroke="black" cx="448.57" cy="-1449" rx="35.19" ry="18"/>
<text text-anchor="middle" x="448.57" y="-1445.3" font-family="Times New Roman,serif" font-size="14.00">moose</text>
</g>
<!-- XXXXX3&#45;&gt;moose -->
<g id="edge79" class="edge">
<title>XXXXX3&#45;&gt;moose</title>
<path fill="none" stroke="black" d="M361.27,-1449C374.68,-1449 389.33,-1449 402.68,-1449"/>
<polygon fill="black" stroke="black" points="403.06,-1452.5 413.06,-1449 403.06,-1445.5 403.06,-1452.5"/>
</g>
<!-- whose -->
<g id="node75" class="node">
<title>whose</title>
<ellipse fill="none" stroke="black" cx="448.57" cy="-1395" rx="34.39" ry="18"/>
<text text-anchor="middle" x="448.57" y="-1391.3" font-family="Times New Roman,serif" font-size="14.00">whose</text>
</g>
<!-- XOXXX3&#45;&gt;whose -->
<g id="edge81" class="edge">
<title>XOXXX3&#45;&gt;whose</title>
<path fill="none" stroke="black" d="M362.02,-1395C375.5,-1395 390.18,-1395 403.5,-1395"/>
<polygon fill="black" stroke="black" points="403.85,-1398.5 413.85,-1395 403.85,-1391.5 403.85,-1398.5"/>
</g>
</g>
</svg>
