<?xml version="1.0" encoding="UTF-8" standalone="no"?>
<!DOCTYPE svg PUBLIC "-//W3C//DTD SVG 1.1//EN"
 "http://www.w3.org/Graphics/SVG/1.1/DTD/svg11.dtd">
<!-- Generated by graphviz version 2.50.0 (20211204.2007)
 -->
<!-- Pages: 1 -->
<svg width="463pt" height="260pt"
 viewBox="0.00 0.00 463.07 260.00" xmlns="http://www.w3.org/2000/svg" xmlns:xlink="http://www.w3.org/1999/xlink">
<g id="graph0" class="graph" transform="scale(1 1) rotate(0) translate(4 256)">
<polygon fill="white" stroke="transparent" points="-4,4 -4,-256 459.07,-256 459.07,4 -4,4"/>
<!-- GOOXX1 -->
<g id="node1" class="node">
<title>GOOXX1</title>
<ellipse fill="none" stroke="black" cx="48.1" cy="-99" rx="48.19" ry="18"/>
<text text-anchor="middle" x="48.1" y="-95.3" font-family="Times New Roman,serif" font-size="14.00">GOOXX1</text>
</g>
<!-- GOOXX2 -->
<g id="node2" class="node">
<title>GOOXX2</title>
<ellipse fill="none" stroke="black" cx="180.94" cy="-180" rx="48.19" ry="18"/>
<text text-anchor="middle" x="180.94" y="-176.3" font-family="Times New Roman,serif" font-size="14.00">GOOXX2</text>
</g>
<!-- GOOXX1&#45;&gt;GOOXX2 -->
<g id="edge1" class="edge">
<title>GOOXX1&#45;&gt;GOOXX2</title>
<path fill="none" stroke="black" d="M72.49,-114.75C89.01,-125.74 111.75,-140.59 132.19,-153 136.05,-155.34 140.12,-157.74 144.18,-160.1"/>
<polygon fill="black" stroke="black" points="142.58,-163.22 153,-165.15 146.06,-157.14 142.58,-163.22"/>
</g>
<!-- silky -->
<g id="node6" class="node">
<title>silky</title>
<ellipse fill="none" stroke="black" cx="180.94" cy="-126" rx="27.1" ry="18"/>
<text text-anchor="middle" x="180.94" y="-122.3" font-family="Times New Roman,serif" font-size="14.00">silky</text>
</g>
<!-- GOOXX1&#45;&gt;silky -->
<g id="edge5" class="edge">
<title>GOOXX1&#45;&gt;silky</title>
<path fill="none" stroke="black" d="M90.49,-107.54C107.98,-111.15 128.12,-115.31 144.86,-118.76"/>
<polygon fill="black" stroke="black" points="144.29,-122.22 154.79,-120.81 145.7,-115.36 144.29,-122.22"/>
</g>
<!-- GOGXX2 -->
<g id="node7" class="node">
<title>GOGXX2</title>
<ellipse fill="none" stroke="black" cx="180.94" cy="-72" rx="48.19" ry="18"/>
<text text-anchor="middle" x="180.94" y="-68.3" font-family="Times New Roman,serif" font-size="14.00">GOGXX2</text>
</g>
<!-- GOOXX1&#45;&gt;GOGXX2 -->
<g id="edge6" class="edge">
<title>GOOXX1&#45;&gt;GOGXX2</title>
<path fill="none" stroke="black" d="M90.49,-90.46C102.55,-87.97 115.86,-85.22 128.45,-82.62"/>
<polygon fill="black" stroke="black" points="129.27,-86.03 138.36,-80.58 127.86,-79.17 129.27,-86.03"/>
</g>
<!-- GGGXG2 -->
<g id="node9" class="node">
<title>GGGXG2</title>
<ellipse fill="none" stroke="black" cx="180.94" cy="-18" rx="48.99" ry="18"/>
<text text-anchor="middle" x="180.94" y="-14.3" font-family="Times New Roman,serif" font-size="14.00">GGGXG2</text>
</g>
<!-- GOOXX1&#45;&gt;GGGXG2 -->
<g id="edge8" class="edge">
<title>GOOXX1&#45;&gt;GGGXG2</title>
<path fill="none" stroke="black" d="M72.49,-83.25C89.01,-72.26 111.75,-57.41 132.19,-45 136.05,-42.66 140.12,-40.26 144.18,-37.9"/>
<polygon fill="black" stroke="black" points="146.06,-40.86 153,-32.85 142.58,-34.78 146.06,-40.86"/>
</g>
<!-- GXXGG3 -->
<g id="node3" class="node">
<title>GXXGG3</title>
<ellipse fill="none" stroke="black" cx="313.78" cy="-234" rx="48.19" ry="18"/>
<text text-anchor="middle" x="313.78" y="-230.3" font-family="Times New Roman,serif" font-size="14.00">GXXGG3</text>
</g>
<!-- GOOXX2&#45;&gt;GXXGG3 -->
<g id="edge2" class="edge">
<title>GOOXX2&#45;&gt;GXXGG3</title>
<path fill="none" stroke="black" d="M213.94,-193.21C231.21,-200.34 252.72,-209.21 271.26,-216.87"/>
<polygon fill="black" stroke="black" points="270.07,-220.16 280.65,-220.74 272.74,-213.69 270.07,-220.16"/>
</g>
<!-- snail -->
<g id="node5" class="node">
<title>snail</title>
<ellipse fill="none" stroke="black" cx="313.78" cy="-180" rx="27" ry="18"/>
<text text-anchor="middle" x="313.78" y="-176.3" font-family="Times New Roman,serif" font-size="14.00">snail</text>
</g>
<!-- GOOXX2&#45;&gt;snail -->
<g id="edge4" class="edge">
<title>GOOXX2&#45;&gt;snail</title>
<path fill="none" stroke="black" d="M229.17,-180C244.72,-180 261.76,-180 276.38,-180"/>
<polygon fill="black" stroke="black" points="276.54,-183.5 286.54,-180 276.54,-176.5 276.54,-183.5"/>
</g>
<!-- spoil -->
<g id="node4" class="node">
<title>spoil</title>
<ellipse fill="none" stroke="black" cx="426.47" cy="-234" rx="28.7" ry="18"/>
<text text-anchor="middle" x="426.47" y="-230.3" font-family="Times New Roman,serif" font-size="14.00">spoil</text>
</g>
<!-- GXXGG3&#45;&gt;spoil -->
<g id="edge3" class="edge">
<title>GXXGG3&#45;&gt;spoil</title>
<path fill="none" stroke="black" d="M362.04,-234C370.64,-234 379.5,-234 387.77,-234"/>
<polygon fill="black" stroke="black" points="387.87,-237.5 397.87,-234 387.87,-230.5 387.87,-237.5"/>
</g>
<!-- solid -->
<g id="node8" class="node">
<title>solid</title>
<ellipse fill="none" stroke="black" cx="313.78" cy="-126" rx="28.7" ry="18"/>
<text text-anchor="middle" x="313.78" y="-122.3" font-family="Times New Roman,serif" font-size="14.00">solid</text>
</g>
<!-- GOGXX2&#45;&gt;solid -->
<g id="edge7" class="edge">
<title>GOGXX2&#45;&gt;solid</title>
<path fill="none" stroke="black" d="M213.94,-85.21C233.97,-93.47 259.7,-104.1 279.89,-112.43"/>
<polygon fill="black" stroke="black" points="278.73,-115.73 289.31,-116.31 281.4,-109.26 278.73,-115.73"/>
</g>
<!-- GXGGX3 -->
<g id="node11" class="node">
<title>GXGGX3</title>
<ellipse fill="none" stroke="black" cx="313.78" cy="-72" rx="48.19" ry="18"/>
<text text-anchor="middle" x="313.78" y="-68.3" font-family="Times New Roman,serif" font-size="14.00">GXGGX3</text>
</g>
<!-- GOGXX2&#45;&gt;GXGGX3 -->
<g id="edge10" class="edge">
<title>GOGXX2&#45;&gt;GXGGX3</title>
<path fill="none" stroke="black" d="M229.17,-72C237.7,-72 246.67,-72 255.44,-72"/>
<polygon fill="black" stroke="black" points="255.61,-75.5 265.61,-72 255.61,-68.5 255.61,-75.5"/>
</g>
<!-- silly -->
<g id="node10" class="node">
<title>silly</title>
<ellipse fill="none" stroke="black" cx="313.78" cy="-18" rx="27" ry="18"/>
<text text-anchor="middle" x="313.78" y="-14.3" font-family="Times New Roman,serif" font-size="14.00">silly</text>
</g>
<!-- GGGXG2&#45;&gt;silly -->
<g id="edge9" class="edge">
<title>GGGXG2&#45;&gt;silly</title>
<path fill="none" stroke="black" d="M229.91,-18C245.29,-18 262.05,-18 276.46,-18"/>
<polygon fill="black" stroke="black" points="276.47,-21.5 286.47,-18 276.47,-14.5 276.47,-21.5"/>
</g>
<!-- split -->
<g id="node12" class="node">
<title>split</title>
<ellipse fill="none" stroke="black" cx="426.47" cy="-72" rx="27" ry="18"/>
<text text-anchor="middle" x="426.47" y="-68.3" font-family="Times New Roman,serif" font-size="14.00">split</text>
</g>
<!-- GXGGX3&#45;&gt;split -->
<g id="edge11" class="edge">
<title>GXGGX3&#45;&gt;split</title>
<path fill="none" stroke="black" d="M362.04,-72C371.15,-72 380.56,-72 389.24,-72"/>
<polygon fill="black" stroke="black" points="389.42,-75.5 399.42,-72 389.42,-68.5 389.42,-75.5"/>
</g>
</g>
</svg>
