<?xml version="1.0" encoding="UTF-8" standalone="no"?>
<!DOCTYPE svg PUBLIC "-//W3C//DTD SVG 1.1//EN"
 "http://www.w3.org/Graphics/SVG/1.1/DTD/svg11.dtd">
<!-- Generated by graphviz version 2.50.0 (20211204.2007)
 -->
<!-- Pages: 1 -->
<svg width="463pt" height="206pt"
 viewBox="0.00 0.00 463.07 206.00" xmlns="http://www.w3.org/2000/svg" xmlns:xlink="http://www.w3.org/1999/xlink">
<g id="graph0" class="graph" transform="scale(1 1) rotate(0) translate(4 202)">
<polygon fill="white" stroke="transparent" points="-4,4 -4,-202 459.07,-202 459.07,4 -4,4"/>
<!-- GGXXO1 -->
<g id="node1" class="node">
<title>GGXXO1</title>
<ellipse fill="none" stroke="black" cx="48.1" cy="-99" rx="48.19" ry="18"/>
<text text-anchor="middle" x="48.1" y="-95.3" font-family="Times New Roman,serif" font-size="14.00">GGXXO1</text>
</g>
<!-- OXXXO2 -->
<g id="node2" class="node">
<title>OXXXO2</title>
<ellipse fill="none" stroke="black" cx="180.29" cy="-126" rx="48.19" ry="18"/>
<text text-anchor="middle" x="180.29" y="-122.3" font-family="Times New Roman,serif" font-size="14.00">OXXXO2</text>
</g>
<!-- GGXXO1&#45;&gt;OXXXO2 -->
<g id="edge1" class="edge">
<title>GGXXO1&#45;&gt;OXXXO2</title>
<path fill="none" stroke="black" d="M90.65,-107.62C102.39,-110.05 115.32,-112.73 127.58,-115.28"/>
<polygon fill="black" stroke="black" points="127.18,-118.77 137.68,-117.37 128.6,-111.91 127.18,-118.77"/>
</g>
<!-- XXXXO2 -->
<g id="node4" class="node">
<title>XXXXO2</title>
<ellipse fill="none" stroke="black" cx="180.29" cy="-72" rx="47.39" ry="18"/>
<text text-anchor="middle" x="180.29" y="-68.3" font-family="Times New Roman,serif" font-size="14.00">XXXXO2</text>
</g>
<!-- GGXXO1&#45;&gt;XXXXO2 -->
<g id="edge3" class="edge">
<title>GGXXO1&#45;&gt;XXXXO2</title>
<path fill="none" stroke="black" d="M90.65,-90.38C102.63,-87.9 115.83,-85.16 128.31,-82.57"/>
<polygon fill="black" stroke="black" points="129.05,-85.99 138.13,-80.54 127.63,-79.14 129.05,-85.99"/>
</g>
<!-- sleep -->
<g id="node3" class="node">
<title>sleep</title>
<ellipse fill="none" stroke="black" cx="313.78" cy="-180" rx="29.5" ry="18"/>
<text text-anchor="middle" x="313.78" y="-176.3" font-family="Times New Roman,serif" font-size="14.00">sleep</text>
</g>
<!-- OXXXO2&#45;&gt;sleep -->
<g id="edge2" class="edge">
<title>OXXXO2&#45;&gt;sleep</title>
<path fill="none" stroke="black" d="M213.45,-139.21C233.45,-147.42 259.1,-157.96 279.33,-166.26"/>
<polygon fill="black" stroke="black" points="278.2,-169.58 288.78,-170.14 280.86,-163.11 278.2,-169.58"/>
</g>
<!-- GGGOO3 -->
<g id="node7" class="node">
<title>GGGOO3</title>
<ellipse fill="none" stroke="black" cx="313.78" cy="-126" rx="49.29" ry="18"/>
<text text-anchor="middle" x="313.78" y="-122.3" font-family="Times New Roman,serif" font-size="14.00">GGGOO3</text>
</g>
<!-- OXXXO2&#45;&gt;GGGOO3 -->
<g id="edge6" class="edge">
<title>OXXXO2&#45;&gt;GGGOO3</title>
<path fill="none" stroke="black" d="M228.39,-126C236.76,-126 245.56,-126 254.2,-126"/>
<polygon fill="black" stroke="black" points="254.23,-129.5 264.23,-126 254.23,-122.5 254.23,-129.5"/>
</g>
<!-- GGGGX3 -->
<g id="node5" class="node">
<title>GGGGX3</title>
<ellipse fill="none" stroke="black" cx="313.78" cy="-72" rx="48.99" ry="18"/>
<text text-anchor="middle" x="313.78" y="-68.3" font-family="Times New Roman,serif" font-size="14.00">GGGGX3</text>
</g>
<!-- XXXXO2&#45;&gt;GGGGX3 -->
<g id="edge4" class="edge">
<title>XXXXO2&#45;&gt;GGGGX3</title>
<path fill="none" stroke="black" d="M228.02,-72C236.7,-72 245.88,-72 254.85,-72"/>
<polygon fill="black" stroke="black" points="254.87,-75.5 264.87,-72 254.87,-68.5 254.87,-75.5"/>
</g>
<!-- sleek -->
<g id="node9" class="node">
<title>sleek</title>
<ellipse fill="none" stroke="black" cx="313.78" cy="-18" rx="28.7" ry="18"/>
<text text-anchor="middle" x="313.78" y="-14.3" font-family="Times New Roman,serif" font-size="14.00">sleek</text>
</g>
<!-- XXXXO2&#45;&gt;sleek -->
<g id="edge8" class="edge">
<title>XXXXO2&#45;&gt;sleek</title>
<path fill="none" stroke="black" d="M213.12,-58.93C233.37,-50.61 259.53,-39.87 279.96,-31.48"/>
<polygon fill="black" stroke="black" points="281.56,-34.6 289.48,-27.57 278.9,-28.13 281.56,-34.6"/>
</g>
<!-- sleet -->
<g id="node6" class="node">
<title>sleet</title>
<ellipse fill="none" stroke="black" cx="427.12" cy="-72" rx="27" ry="18"/>
<text text-anchor="middle" x="427.12" y="-68.3" font-family="Times New Roman,serif" font-size="14.00">sleet</text>
</g>
<!-- GGGGX3&#45;&gt;sleet -->
<g id="edge5" class="edge">
<title>GGGGX3&#45;&gt;sleet</title>
<path fill="none" stroke="black" d="M362.64,-72C371.78,-72 381.2,-72 389.9,-72"/>
<polygon fill="black" stroke="black" points="390.08,-75.5 400.08,-72 390.08,-68.5 390.08,-75.5"/>
</g>
<!-- slept -->
<g id="node8" class="node">
<title>slept</title>
<ellipse fill="none" stroke="black" cx="427.12" cy="-126" rx="27.9" ry="18"/>
<text text-anchor="middle" x="427.12" y="-122.3" font-family="Times New Roman,serif" font-size="14.00">slept</text>
</g>
<!-- GGGOO3&#45;&gt;slept -->
<g id="edge7" class="edge">
<title>GGGOO3&#45;&gt;slept</title>
<path fill="none" stroke="black" d="M363.29,-126C371.86,-126 380.66,-126 388.86,-126"/>
<polygon fill="black" stroke="black" points="388.87,-129.5 398.87,-126 388.87,-122.5 388.87,-129.5"/>
</g>
</g>
</svg>
