<?xml version="1.0" encoding="UTF-8" standalone="no"?>
<!DOCTYPE svg PUBLIC "-//W3C//DTD SVG 1.1//EN"
 "http://www.w3.org/Graphics/SVG/1.1/DTD/svg11.dtd">
<!-- Generated by graphviz version 2.50.0 (20211204.2007)
 -->
<!-- Pages: 1 -->
<svg width="473pt" height="692pt"
 viewBox="0.00 0.00 473.47 692.00" xmlns="http://www.w3.org/2000/svg" xmlns:xlink="http://www.w3.org/1999/xlink">
<g id="graph0" class="graph" transform="scale(1 1) rotate(0) translate(4 688)">
<polygon fill="white" stroke="transparent" points="-4,4 -4,-688 469.47,-688 469.47,4 -4,4"/>
<!-- GXXOX1 -->
<g id="node1" class="node">
<title>GXXOX1</title>
<ellipse fill="none" stroke="black" cx="48.1" cy="-346" rx="48.19" ry="18"/>
<text text-anchor="middle" x="48.1" y="-342.3" font-family="Times New Roman,serif" font-size="14.00">GXXOX1</text>
</g>
<!-- GGOXX2 -->
<g id="node2" class="node">
<title>GGOXX2</title>
<ellipse fill="none" stroke="black" cx="180.94" cy="-612" rx="48.19" ry="18"/>
<text text-anchor="middle" x="180.94" y="-608.3" font-family="Times New Roman,serif" font-size="14.00">GGOXX2</text>
</g>
<!-- GXXOX1&#45;&gt;GGOXX2 -->
<g id="edge1" class="edge">
<title>GXXOX1&#45;&gt;GGOXX2</title>
<path fill="none" stroke="black" d="M51.36,-364.24C57.45,-406.67 77.55,-513.62 132.19,-582 135.09,-585.63 138.55,-588.94 142.27,-591.93"/>
<polygon fill="black" stroke="black" points="140.52,-594.98 150.69,-597.95 144.6,-589.29 140.52,-594.98"/>
</g>
<!-- scrap -->
<g id="node5" class="node">
<title>scrap</title>
<ellipse fill="none" stroke="black" cx="180.94" cy="-555" rx="30.59" ry="18"/>
<text text-anchor="middle" x="180.94" y="-551.3" font-family="Times New Roman,serif" font-size="14.00">scrap</text>
</g>
<!-- GXXOX1&#45;&gt;scrap -->
<g id="edge4" class="edge">
<title>GXXOX1&#45;&gt;scrap</title>
<path fill="none" stroke="black" d="M53.34,-364.12C62.41,-399.43 86.64,-478.34 132.19,-528 136.31,-532.5 141.36,-536.43 146.62,-539.81"/>
<polygon fill="black" stroke="black" points="145.12,-542.98 155.53,-544.96 148.62,-536.92 145.12,-542.98"/>
</g>
<!-- GGXOX2 -->
<g id="node7" class="node">
<title>GGXOX2</title>
<ellipse fill="none" stroke="black" cx="180.94" cy="-501" rx="48.19" ry="18"/>
<text text-anchor="middle" x="180.94" y="-497.3" font-family="Times New Roman,serif" font-size="14.00">GGXOX2</text>
</g>
<!-- GXXOX1&#45;&gt;GGXOX2 -->
<g id="edge6" class="edge">
<title>GXXOX1&#45;&gt;GGXOX2</title>
<path fill="none" stroke="black" d="M58.68,-363.85C72.64,-388.79 100.39,-434.65 132.19,-467 136.49,-471.37 141.4,-475.57 146.41,-479.43"/>
<polygon fill="black" stroke="black" points="144.69,-482.51 154.83,-485.58 148.82,-476.85 144.69,-482.51"/>
</g>
<!-- GOXGX2 -->
<g id="node10" class="node">
<title>GOXGX2</title>
<ellipse fill="none" stroke="black" cx="180.94" cy="-440" rx="48.19" ry="18"/>
<text text-anchor="middle" x="180.94" y="-436.3" font-family="Times New Roman,serif" font-size="14.00">GOXGX2</text>
</g>
<!-- GXXOX1&#45;&gt;GOXGX2 -->
<g id="edge9" class="edge">
<title>GXXOX1&#45;&gt;GOXGX2</title>
<path fill="none" stroke="black" d="M71.29,-361.95C92.72,-377.34 125.35,-400.78 149.26,-417.96"/>
<polygon fill="black" stroke="black" points="147.47,-420.98 157.63,-423.98 151.55,-415.3 147.47,-420.98"/>
</g>
<!-- GGGXX2 -->
<g id="node12" class="node">
<title>GGGXX2</title>
<ellipse fill="none" stroke="black" cx="180.94" cy="-373" rx="48.19" ry="18"/>
<text text-anchor="middle" x="180.94" y="-369.3" font-family="Times New Roman,serif" font-size="14.00">GGGXX2</text>
</g>
<!-- GXXOX1&#45;&gt;GGGXX2 -->
<g id="edge11" class="edge">
<title>GXXOX1&#45;&gt;GGGXX2</title>
<path fill="none" stroke="black" d="M90.49,-354.54C102.55,-357.03 115.86,-359.78 128.45,-362.38"/>
<polygon fill="black" stroke="black" points="127.86,-365.83 138.36,-364.42 129.27,-358.97 127.86,-365.83"/>
</g>
<!-- GGOOX2 -->
<g id="node14" class="node">
<title>GGOOX2</title>
<ellipse fill="none" stroke="black" cx="180.94" cy="-319" rx="48.99" ry="18"/>
<text text-anchor="middle" x="180.94" y="-315.3" font-family="Times New Roman,serif" font-size="14.00">GGOOX2</text>
</g>
<!-- GXXOX1&#45;&gt;GGOOX2 -->
<g id="edge13" class="edge">
<title>GXXOX1&#45;&gt;GGOOX2</title>
<path fill="none" stroke="black" d="M90.49,-337.46C102.43,-334.99 115.6,-332.28 128.08,-329.7"/>
<polygon fill="black" stroke="black" points="128.82,-333.12 137.91,-327.67 127.41,-326.27 128.82,-333.12"/>
</g>
<!-- GGXXG2 -->
<g id="node16" class="node">
<title>GGXXG2</title>
<ellipse fill="none" stroke="black" cx="180.94" cy="-238" rx="48.19" ry="18"/>
<text text-anchor="middle" x="180.94" y="-234.3" font-family="Times New Roman,serif" font-size="14.00">GGXXG2</text>
</g>
<!-- GXXOX1&#45;&gt;GGXXG2 -->
<g id="edge15" class="edge">
<title>GXXOX1&#45;&gt;GGXXG2</title>
<path fill="none" stroke="black" d="M68.97,-329.6C91.06,-311.36 126.92,-281.76 151.87,-261.17"/>
<polygon fill="black" stroke="black" points="154.39,-263.62 159.88,-254.56 149.94,-258.22 154.39,-263.62"/>
</g>
<!-- GGXXX2 -->
<g id="node18" class="node">
<title>GGXXX2</title>
<ellipse fill="none" stroke="black" cx="180.94" cy="-180" rx="48.19" ry="18"/>
<text text-anchor="middle" x="180.94" y="-176.3" font-family="Times New Roman,serif" font-size="14.00">GGXXX2</text>
</g>
<!-- GXXOX1&#45;&gt;GGXXX2 -->
<g id="edge17" class="edge">
<title>GXXOX1&#45;&gt;GGXXX2</title>
<path fill="none" stroke="black" d="M56.93,-328.12C69.67,-300.54 97.01,-247.04 132.19,-211 135.81,-207.29 139.95,-203.81 144.24,-200.6"/>
<polygon fill="black" stroke="black" points="146.37,-203.38 152.59,-194.81 142.38,-197.63 146.37,-203.38"/>
</g>
<!-- GGXOG2 -->
<g id="node26" class="node">
<title>GGXOG2</title>
<ellipse fill="none" stroke="black" cx="180.94" cy="-99" rx="48.99" ry="18"/>
<text text-anchor="middle" x="180.94" y="-95.3" font-family="Times New Roman,serif" font-size="14.00">GGXOG2</text>
</g>
<!-- GXXOX1&#45;&gt;GGXOG2 -->
<g id="edge26" class="edge">
<title>GXXOX1&#45;&gt;GGXOG2</title>
<path fill="none" stroke="black" d="M54.69,-328.04C66.11,-292.78 94.28,-212.76 132.19,-153 138.83,-142.54 147.47,-132.09 155.58,-123.21"/>
<polygon fill="black" stroke="black" points="158.2,-125.54 162.5,-115.86 153.1,-120.74 158.2,-125.54"/>
</g>
<!-- GGGGX2 -->
<g id="node28" class="node">
<title>GGGGX2</title>
<ellipse fill="none" stroke="black" cx="180.94" cy="-32" rx="48.99" ry="18"/>
<text text-anchor="middle" x="180.94" y="-28.3" font-family="Times New Roman,serif" font-size="14.00">GGGGX2</text>
</g>
<!-- GXXOX1&#45;&gt;GGGGX2 -->
<g id="edge28" class="edge">
<title>GXXOX1&#45;&gt;GGGGX2</title>
<path fill="none" stroke="black" d="M50.99,-327.83C56.52,-281.58 76.01,-157.02 132.19,-72 136.45,-65.55 142.06,-59.58 147.93,-54.33"/>
<polygon fill="black" stroke="black" points="150.53,-56.72 155.99,-47.64 146.06,-51.33 150.53,-56.72"/>
</g>
<!-- GGGOX3 -->
<g id="node3" class="node">
<title>GGGOX3</title>
<ellipse fill="none" stroke="black" cx="314.43" cy="-666" rx="48.99" ry="18"/>
<text text-anchor="middle" x="314.43" y="-662.3" font-family="Times New Roman,serif" font-size="14.00">GGGOX3</text>
</g>
<!-- GGOXX2&#45;&gt;GGGOX3 -->
<g id="edge2" class="edge">
<title>GGOXX2&#45;&gt;GGGOX3</title>
<path fill="none" stroke="black" d="M214.1,-625.21C231.46,-632.34 253.07,-641.21 271.71,-648.87"/>
<polygon fill="black" stroke="black" points="270.56,-652.18 281.14,-652.74 273.22,-645.7 270.56,-652.18"/>
</g>
<!-- scorn -->
<g id="node6" class="node">
<title>scorn</title>
<ellipse fill="none" stroke="black" cx="314.43" cy="-612" rx="31.4" ry="18"/>
<text text-anchor="middle" x="314.43" y="-608.3" font-family="Times New Roman,serif" font-size="14.00">scorn</text>
</g>
<!-- GGOXX2&#45;&gt;scorn -->
<g id="edge5" class="edge">
<title>GGOXX2&#45;&gt;scorn</title>
<path fill="none" stroke="black" d="M229.04,-612C243.37,-612 258.98,-612 272.84,-612"/>
<polygon fill="black" stroke="black" points="273.05,-615.5 283.05,-612 273.05,-608.5 273.05,-615.5"/>
</g>
<!-- scour -->
<g id="node4" class="node">
<title>scour</title>
<ellipse fill="none" stroke="black" cx="432.32" cy="-666" rx="31.4" ry="18"/>
<text text-anchor="middle" x="432.32" y="-662.3" font-family="Times New Roman,serif" font-size="14.00">scour</text>
</g>
<!-- GGGOX3&#45;&gt;scour -->
<g id="edge3" class="edge">
<title>GGGOX3&#45;&gt;scour</title>
<path fill="none" stroke="black" d="M363.24,-666C372.38,-666 381.87,-666 390.76,-666"/>
<polygon fill="black" stroke="black" points="390.86,-669.5 400.86,-666 390.86,-662.5 390.86,-669.5"/>
</g>
<!-- GGOXX3 -->
<g id="node8" class="node">
<title>GGOXX3</title>
<ellipse fill="none" stroke="black" cx="314.43" cy="-558" rx="48.19" ry="18"/>
<text text-anchor="middle" x="314.43" y="-554.3" font-family="Times New Roman,serif" font-size="14.00">GGOXX3</text>
</g>
<!-- GGXOX2&#45;&gt;GGOXX3 -->
<g id="edge7" class="edge">
<title>GGXOX2&#45;&gt;GGOXX3</title>
<path fill="none" stroke="black" d="M213.1,-514.51C230.9,-522.22 253.43,-531.99 272.63,-540.31"/>
<polygon fill="black" stroke="black" points="271.47,-543.63 282.03,-544.39 274.25,-537.2 271.47,-543.63"/>
</g>
<!-- scant -->
<g id="node22" class="node">
<title>scant</title>
<ellipse fill="none" stroke="black" cx="314.43" cy="-504" rx="29.8" ry="18"/>
<text text-anchor="middle" x="314.43" y="-500.3" font-family="Times New Roman,serif" font-size="14.00">scant</text>
</g>
<!-- GGXOX2&#45;&gt;scant -->
<g id="edge21" class="edge">
<title>GGXOX2&#45;&gt;scant</title>
<path fill="none" stroke="black" d="M229.04,-502.07C243.72,-502.41 259.75,-502.78 273.86,-503.1"/>
<polygon fill="black" stroke="black" points="274.14,-506.6 284.22,-503.33 274.3,-499.61 274.14,-506.6"/>
</g>
<!-- scuba -->
<g id="node9" class="node">
<title>scuba</title>
<ellipse fill="none" stroke="black" cx="432.32" cy="-558" rx="32.49" ry="18"/>
<text text-anchor="middle" x="432.32" y="-554.3" font-family="Times New Roman,serif" font-size="14.00">scuba</text>
</g>
<!-- GGOXX3&#45;&gt;scuba -->
<g id="edge8" class="edge">
<title>GGOXX3&#45;&gt;scuba</title>
<path fill="none" stroke="black" d="M362.57,-558C371.57,-558 380.94,-558 389.76,-558"/>
<polygon fill="black" stroke="black" points="389.81,-561.5 399.81,-558 389.81,-554.5 389.81,-561.5"/>
</g>
<!-- sumac -->
<g id="node11" class="node">
<title>sumac</title>
<ellipse fill="none" stroke="black" cx="314.43" cy="-450" rx="34.39" ry="18"/>
<text text-anchor="middle" x="314.43" y="-446.3" font-family="Times New Roman,serif" font-size="14.00">sumac</text>
</g>
<!-- GOXGX2&#45;&gt;sumac -->
<g id="edge10" class="edge">
<title>GOXGX2&#45;&gt;sumac</title>
<path fill="none" stroke="black" d="M228.3,-443.53C241.83,-444.56 256.57,-445.68 269.92,-446.69"/>
<polygon fill="black" stroke="black" points="270.05,-450.21 280.28,-447.48 270.58,-443.23 270.05,-450.21"/>
</g>
<!-- scrub -->
<g id="node13" class="node">
<title>scrub</title>
<ellipse fill="none" stroke="black" cx="314.43" cy="-396" rx="31.4" ry="18"/>
<text text-anchor="middle" x="314.43" y="-392.3" font-family="Times New Roman,serif" font-size="14.00">scrub</text>
</g>
<!-- GGGXX2&#45;&gt;scrub -->
<g id="edge12" class="edge">
<title>GGGXX2&#45;&gt;scrub</title>
<path fill="none" stroke="black" d="M224.99,-380.53C240.81,-383.3 258.64,-386.42 274.11,-389.12"/>
<polygon fill="black" stroke="black" points="273.95,-392.65 284.4,-390.92 275.15,-385.75 273.95,-392.65"/>
</g>
<!-- GGGGX3 -->
<g id="node20" class="node">
<title>GGGGX3</title>
<ellipse fill="none" stroke="black" cx="314.43" cy="-342" rx="48.99" ry="18"/>
<text text-anchor="middle" x="314.43" y="-338.3" font-family="Times New Roman,serif" font-size="14.00">GGGGX3</text>
</g>
<!-- GGGXX2&#45;&gt;GGGGX3 -->
<g id="edge19" class="edge">
<title>GGGXX2&#45;&gt;GGGGX3</title>
<path fill="none" stroke="black" d="M222.1,-363.53C234.98,-360.49 249.41,-357.09 262.93,-353.9"/>
<polygon fill="black" stroke="black" points="264.13,-357.22 273.06,-351.52 262.52,-350.41 264.13,-357.22"/>
</g>
<!-- scarf -->
<g id="node15" class="node">
<title>scarf</title>
<ellipse fill="none" stroke="black" cx="314.43" cy="-288" rx="28.7" ry="18"/>
<text text-anchor="middle" x="314.43" y="-284.3" font-family="Times New Roman,serif" font-size="14.00">scarf</text>
</g>
<!-- GGOOX2&#45;&gt;scarf -->
<g id="edge14" class="edge">
<title>GGOOX2&#45;&gt;scarf</title>
<path fill="none" stroke="black" d="M222.46,-309.45C239.96,-305.32 260.27,-300.53 277.25,-296.53"/>
<polygon fill="black" stroke="black" points="278.41,-299.85 287.34,-294.15 276.8,-293.04 278.41,-299.85"/>
</g>
<!-- GGOOX2&#45;&gt;GGGGX3 -->
<g id="edge24" class="edge">
<title>GGOOX2&#45;&gt;GGGGX3</title>
<path fill="none" stroke="black" d="M225.36,-326.59C236.47,-328.54 248.54,-330.65 260.08,-332.67"/>
<polygon fill="black" stroke="black" points="259.6,-336.14 270.05,-334.41 260.81,-329.24 259.6,-336.14"/>
</g>
<!-- scoop -->
<g id="node17" class="node">
<title>scoop</title>
<ellipse fill="none" stroke="black" cx="314.43" cy="-234" rx="33.6" ry="18"/>
<text text-anchor="middle" x="314.43" y="-230.3" font-family="Times New Roman,serif" font-size="14.00">scoop</text>
</g>
<!-- GGXXG2&#45;&gt;scoop -->
<g id="edge16" class="edge">
<title>GGXXG2&#45;&gt;scoop</title>
<path fill="none" stroke="black" d="M229.04,-236.57C242.53,-236.16 257.16,-235.71 270.39,-235.31"/>
<polygon fill="black" stroke="black" points="270.77,-238.8 280.66,-235 270.55,-231.8 270.77,-238.8"/>
</g>
<!-- scoff -->
<g id="node19" class="node">
<title>scoff</title>
<ellipse fill="none" stroke="black" cx="314.43" cy="-180" rx="29.8" ry="18"/>
<text text-anchor="middle" x="314.43" y="-176.3" font-family="Times New Roman,serif" font-size="14.00">scoff</text>
</g>
<!-- GGXXX2&#45;&gt;scoff -->
<g id="edge18" class="edge">
<title>GGXXX2&#45;&gt;scoff</title>
<path fill="none" stroke="black" d="M229.04,-180C243.72,-180 259.75,-180 273.86,-180"/>
<polygon fill="black" stroke="black" points="274.22,-183.5 284.22,-180 274.22,-176.5 274.22,-183.5"/>
</g>
<!-- GGGXX3 -->
<g id="node23" class="node">
<title>GGGXX3</title>
<ellipse fill="none" stroke="black" cx="314.43" cy="-126" rx="48.19" ry="18"/>
<text text-anchor="middle" x="314.43" y="-122.3" font-family="Times New Roman,serif" font-size="14.00">GGGXX3</text>
</g>
<!-- GGXXX2&#45;&gt;GGGXX3 -->
<g id="edge22" class="edge">
<title>GGXXX2&#45;&gt;GGGXX3</title>
<path fill="none" stroke="black" d="M214.1,-166.79C231.46,-159.66 253.07,-150.79 271.71,-143.13"/>
<polygon fill="black" stroke="black" points="273.22,-146.3 281.14,-139.26 270.56,-139.82 273.22,-146.3"/>
</g>
<!-- scrum -->
<g id="node21" class="node">
<title>scrum</title>
<ellipse fill="none" stroke="black" cx="432.32" cy="-369" rx="33.29" ry="18"/>
<text text-anchor="middle" x="432.32" y="-365.3" font-family="Times New Roman,serif" font-size="14.00">scrum</text>
</g>
<!-- GGGGX3&#45;&gt;scrum -->
<g id="edge20" class="edge">
<title>GGGGX3&#45;&gt;scrum</title>
<path fill="none" stroke="black" d="M355.96,-351.44C367.57,-354.15 380.21,-357.09 391.77,-359.78"/>
<polygon fill="black" stroke="black" points="391.05,-363.21 401.58,-362.07 392.64,-356.39 391.05,-363.21"/>
</g>
<!-- scary -->
<g id="node25" class="node">
<title>scary</title>
<ellipse fill="none" stroke="black" cx="432.32" cy="-315" rx="30.59" ry="18"/>
<text text-anchor="middle" x="432.32" y="-311.3" font-family="Times New Roman,serif" font-size="14.00">scary</text>
</g>
<!-- GGGGX3&#45;&gt;scary -->
<g id="edge25" class="edge">
<title>GGGGX3&#45;&gt;scary</title>
<path fill="none" stroke="black" d="M355.96,-332.56C368.3,-329.68 381.81,-326.54 393.93,-323.71"/>
<polygon fill="black" stroke="black" points="394.79,-327.11 403.73,-321.43 393.2,-320.29 394.79,-327.11"/>
</g>
<!-- scout -->
<g id="node24" class="node">
<title>scout</title>
<ellipse fill="none" stroke="black" cx="432.32" cy="-126" rx="30.59" ry="18"/>
<text text-anchor="middle" x="432.32" y="-122.3" font-family="Times New Roman,serif" font-size="14.00">scout</text>
</g>
<!-- GGGXX3&#45;&gt;scout -->
<g id="edge23" class="edge">
<title>GGGXX3&#45;&gt;scout</title>
<path fill="none" stroke="black" d="M362.57,-126C372.13,-126 382.1,-126 391.38,-126"/>
<polygon fill="black" stroke="black" points="391.51,-129.5 401.51,-126 391.51,-122.5 391.51,-129.5"/>
</g>
<!-- scamp -->
<g id="node27" class="node">
<title>scamp</title>
<ellipse fill="none" stroke="black" cx="314.43" cy="-72" rx="34.39" ry="18"/>
<text text-anchor="middle" x="314.43" y="-68.3" font-family="Times New Roman,serif" font-size="14.00">scamp</text>
</g>
<!-- GGXOG2&#45;&gt;scamp -->
<g id="edge27" class="edge">
<title>GGXOG2&#45;&gt;scamp</title>
<path fill="none" stroke="black" d="M223.9,-90.38C239.17,-87.25 256.41,-83.71 271.66,-80.58"/>
<polygon fill="black" stroke="black" points="272.76,-83.92 281.85,-78.48 271.35,-77.07 272.76,-83.92"/>
</g>
<!-- scram -->
<g id="node29" class="node">
<title>scram</title>
<ellipse fill="none" stroke="black" cx="314.43" cy="-18" rx="32.49" ry="18"/>
<text text-anchor="middle" x="314.43" y="-14.3" font-family="Times New Roman,serif" font-size="14.00">scram</text>
</g>
<!-- GGGGX2&#45;&gt;scram -->
<g id="edge29" class="edge">
<title>GGGGX2&#45;&gt;scram</title>
<path fill="none" stroke="black" d="M227.93,-27.1C242.21,-25.58 257.86,-23.92 271.83,-22.43"/>
<polygon fill="black" stroke="black" points="272.55,-25.87 282.13,-21.33 271.81,-18.91 272.55,-25.87"/>
</g>
</g>
</svg>
