<?xml version="1.0" encoding="UTF-8" standalone="no"?>
<!DOCTYPE svg PUBLIC "-//W3C//DTD SVG 1.1//EN"
 "http://www.w3.org/Graphics/SVG/1.1/DTD/svg11.dtd">
<!-- Generated by graphviz version 2.50.0 (20211204.2007)
 -->
<!-- Pages: 1 -->
<svg width="471pt" height="611pt"
 viewBox="0.00 0.00 470.87 611.00" xmlns="http://www.w3.org/2000/svg" xmlns:xlink="http://www.w3.org/1999/xlink">
<g id="graph0" class="graph" transform="scale(1 1) rotate(0) translate(4 607)">
<polygon fill="white" stroke="transparent" points="-4,4 -4,-607 466.87,-607 466.87,4 -4,4"/>
<!-- GXGXG1 -->
<g id="node1" class="node">
<title>GXGXG1</title>
<ellipse fill="none" stroke="black" cx="48.1" cy="-153" rx="48.19" ry="18"/>
<text text-anchor="middle" x="48.1" y="-149.3" font-family="Times New Roman,serif" font-size="14.00">GXGXG1</text>
</g>
<!-- GXGOG2 -->
<g id="node2" class="node">
<title>GXGOG2</title>
<ellipse fill="none" stroke="black" cx="181.59" cy="-504" rx="48.99" ry="18"/>
<text text-anchor="middle" x="181.59" y="-500.3" font-family="Times New Roman,serif" font-size="14.00">GXGOG2</text>
</g>
<!-- GXGXG1&#45;&gt;GXGOG2 -->
<g id="edge1" class="edge">
<title>GXGXG1&#45;&gt;GXGOG2</title>
<path fill="none" stroke="black" d="M55.8,-170.89C77.25,-228.16 144.35,-407.28 170.25,-476.4"/>
<polygon fill="black" stroke="black" points="167.11,-478.01 173.9,-486.15 173.67,-475.55 167.11,-478.01"/>
</g>
<!-- GXGXG2 -->
<g id="node5" class="node">
<title>GXGXG2</title>
<ellipse fill="none" stroke="black" cx="181.59" cy="-315" rx="48.19" ry="18"/>
<text text-anchor="middle" x="181.59" y="-311.3" font-family="Times New Roman,serif" font-size="14.00">GXGXG2</text>
</g>
<!-- GXGXG1&#45;&gt;GXGXG2 -->
<g id="edge4" class="edge">
<title>GXGXG1&#45;&gt;GXGXG2</title>
<path fill="none" stroke="black" d="M63.17,-170.34C86.5,-199.08 133.28,-256.72 160.22,-289.91"/>
<polygon fill="black" stroke="black" points="157.6,-292.23 166.62,-297.79 163.03,-287.82 157.6,-292.23"/>
</g>
<!-- GOGXG2 -->
<g id="node12" class="node">
<title>GOGXG2</title>
<ellipse fill="none" stroke="black" cx="181.59" cy="-180" rx="48.99" ry="18"/>
<text text-anchor="middle" x="181.59" y="-176.3" font-family="Times New Roman,serif" font-size="14.00">GOGXG2</text>
</g>
<!-- GXGXG1&#45;&gt;GOGXG2 -->
<g id="edge11" class="edge">
<title>GXGXG1&#45;&gt;GOGXG2</title>
<path fill="none" stroke="black" d="M90.7,-161.54C102.69,-164.01 115.93,-166.72 128.47,-169.3"/>
<polygon fill="black" stroke="black" points="127.85,-172.74 138.35,-171.33 129.26,-165.89 127.85,-172.74"/>
</g>
<!-- GGGXG2 -->
<g id="node17" class="node">
<title>GGGXG2</title>
<ellipse fill="none" stroke="black" cx="181.59" cy="-126" rx="48.99" ry="18"/>
<text text-anchor="middle" x="181.59" y="-122.3" font-family="Times New Roman,serif" font-size="14.00">GGGXG2</text>
</g>
<!-- GXGXG1&#45;&gt;GGGXG2 -->
<g id="edge16" class="edge">
<title>GXGXG1&#45;&gt;GGGXG2</title>
<path fill="none" stroke="black" d="M90.7,-144.46C102.69,-141.99 115.93,-139.28 128.47,-136.7"/>
<polygon fill="black" stroke="black" points="129.26,-140.11 138.35,-134.67 127.85,-133.26 129.26,-140.11"/>
</g>
<!-- GOGOG2 -->
<g id="node23" class="node">
<title>GOGOG2</title>
<ellipse fill="none" stroke="black" cx="181.59" cy="-72" rx="49.29" ry="18"/>
<text text-anchor="middle" x="181.59" y="-68.3" font-family="Times New Roman,serif" font-size="14.00">GOGOG2</text>
</g>
<!-- GXGXG1&#45;&gt;GOGOG2 -->
<g id="edge22" class="edge">
<title>GXGXG1&#45;&gt;GOGOG2</title>
<path fill="none" stroke="black" d="M72.47,-137.21C88.97,-126.21 111.71,-111.35 132.19,-99 136.1,-96.64 140.22,-94.24 144.34,-91.87"/>
<polygon fill="black" stroke="black" points="146.29,-94.79 153.27,-86.82 142.84,-88.7 146.29,-94.79"/>
</g>
<!-- snipe -->
<g id="node25" class="node">
<title>snipe</title>
<ellipse fill="none" stroke="black" cx="181.59" cy="-18" rx="29.8" ry="18"/>
<text text-anchor="middle" x="181.59" y="-14.3" font-family="Times New Roman,serif" font-size="14.00">snipe</text>
</g>
<!-- GXGXG1&#45;&gt;snipe -->
<g id="edge24" class="edge">
<title>GXGXG1&#45;&gt;snipe</title>
<path fill="none" stroke="black" d="M59.62,-135.13C73.84,-112.12 101.03,-71.89 132.19,-45 137.07,-40.79 142.7,-36.94 148.37,-33.54"/>
<polygon fill="black" stroke="black" points="150.17,-36.54 157.18,-28.6 146.75,-30.44 150.17,-36.54"/>
</g>
<!-- XXXXO3 -->
<g id="node3" class="node">
<title>XXXXO3</title>
<ellipse fill="none" stroke="black" cx="315.73" cy="-585" rx="47.39" ry="18"/>
<text text-anchor="middle" x="315.73" y="-581.3" font-family="Times New Roman,serif" font-size="14.00">XXXXO3</text>
</g>
<!-- GXGOG2&#45;&gt;XXXXO3 -->
<g id="edge2" class="edge">
<title>GXGOG2&#45;&gt;XXXXO3</title>
<path fill="none" stroke="black" d="M206.38,-519.71C223.17,-530.68 246.27,-545.53 266.98,-558 270.85,-560.33 274.92,-562.72 278.99,-565.07"/>
<polygon fill="black" stroke="black" points="277.39,-568.19 287.81,-570.12 280.87,-562.11 277.39,-568.19"/>
</g>
<!-- OXXXX3 -->
<g id="node10" class="node">
<title>OXXXX3</title>
<ellipse fill="none" stroke="black" cx="315.73" cy="-531" rx="47.39" ry="18"/>
<text text-anchor="middle" x="315.73" y="-527.3" font-family="Times New Roman,serif" font-size="14.00">OXXXX3</text>
</g>
<!-- GXGOG2&#45;&gt;OXXXX3 -->
<g id="edge9" class="edge">
<title>GXGOG2&#45;&gt;OXXXX3</title>
<path fill="none" stroke="black" d="M224.76,-512.62C237.04,-515.13 250.59,-517.89 263.36,-520.51"/>
<polygon fill="black" stroke="black" points="262.91,-523.98 273.41,-522.56 264.31,-517.13 262.91,-523.98"/>
</g>
<!-- XOXXX3 -->
<g id="node19" class="node">
<title>XOXXX3</title>
<ellipse fill="none" stroke="black" cx="315.73" cy="-477" rx="47.39" ry="18"/>
<text text-anchor="middle" x="315.73" y="-473.3" font-family="Times New Roman,serif" font-size="14.00">XOXXX3</text>
</g>
<!-- GXGOG2&#45;&gt;XOXXX3 -->
<g id="edge18" class="edge">
<title>GXGOG2&#45;&gt;XOXXX3</title>
<path fill="none" stroke="black" d="M224.76,-495.38C237.04,-492.87 250.59,-490.11 263.36,-487.49"/>
<polygon fill="black" stroke="black" points="264.31,-490.87 273.41,-485.44 262.91,-484.02 264.31,-490.87"/>
</g>
<!-- spike -->
<g id="node4" class="node">
<title>spike</title>
<ellipse fill="none" stroke="black" cx="431.67" cy="-585" rx="29.8" ry="18"/>
<text text-anchor="middle" x="431.67" y="-581.3" font-family="Times New Roman,serif" font-size="14.00">spike</text>
</g>
<!-- XXXXO3&#45;&gt;spike -->
<g id="edge3" class="edge">
<title>XXXXO3&#45;&gt;spike</title>
<path fill="none" stroke="black" d="M363.4,-585C372.68,-585 382.33,-585 391.33,-585"/>
<polygon fill="black" stroke="black" points="391.54,-588.5 401.54,-585 391.54,-581.5 391.54,-588.5"/>
</g>
<!-- OXXXO3 -->
<g id="node6" class="node">
<title>OXXXO3</title>
<ellipse fill="none" stroke="black" cx="315.73" cy="-423" rx="48.19" ry="18"/>
<text text-anchor="middle" x="315.73" y="-419.3" font-family="Times New Roman,serif" font-size="14.00">OXXXO3</text>
</g>
<!-- GXGXG2&#45;&gt;OXXXO3 -->
<g id="edge5" class="edge">
<title>GXGXG2&#45;&gt;OXXXO3</title>
<path fill="none" stroke="black" d="M197.99,-332.12C214.13,-349.47 240.75,-376.48 266.98,-396 270.38,-398.53 274.03,-400.99 277.75,-403.33"/>
<polygon fill="black" stroke="black" points="276.1,-406.42 286.47,-408.57 279.7,-400.42 276.1,-406.42"/>
</g>
<!-- XXOXX3 -->
<g id="node8" class="node">
<title>XXOXX3</title>
<ellipse fill="none" stroke="black" cx="315.73" cy="-369" rx="47.39" ry="18"/>
<text text-anchor="middle" x="315.73" y="-365.3" font-family="Times New Roman,serif" font-size="14.00">XXOXX3</text>
</g>
<!-- GXGXG2&#45;&gt;XXOXX3 -->
<g id="edge7" class="edge">
<title>GXGXG2&#45;&gt;XXOXX3</title>
<path fill="none" stroke="black" d="M214.91,-328.21C232.56,-335.42 254.6,-344.43 273.48,-352.14"/>
<polygon fill="black" stroke="black" points="272.16,-355.38 282.74,-355.93 274.8,-348.9 272.16,-355.38"/>
</g>
<!-- XXXXX3 -->
<g id="node15" class="node">
<title>XXXXX3</title>
<ellipse fill="none" stroke="black" cx="315.73" cy="-315" rx="46.59" ry="18"/>
<text text-anchor="middle" x="315.73" y="-311.3" font-family="Times New Roman,serif" font-size="14.00">XXXXX3</text>
</g>
<!-- GXGXG2&#45;&gt;XXXXX3 -->
<g id="edge14" class="edge">
<title>GXGXG2&#45;&gt;XXXXX3</title>
<path fill="none" stroke="black" d="M229.92,-315C239.17,-315 248.94,-315 258.45,-315"/>
<polygon fill="black" stroke="black" points="258.61,-318.5 268.61,-315 258.61,-311.5 258.61,-318.5"/>
</g>
<!-- XGXXX3 -->
<g id="node21" class="node">
<title>XGXXX3</title>
<ellipse fill="none" stroke="black" cx="315.73" cy="-261" rx="47.39" ry="18"/>
<text text-anchor="middle" x="315.73" y="-257.3" font-family="Times New Roman,serif" font-size="14.00">XGXXX3</text>
</g>
<!-- GXGXG2&#45;&gt;XGXXX3 -->
<g id="edge20" class="edge">
<title>GXGXG2&#45;&gt;XGXXX3</title>
<path fill="none" stroke="black" d="M214.91,-301.79C232.56,-294.58 254.6,-285.57 273.48,-277.86"/>
<polygon fill="black" stroke="black" points="274.8,-281.1 282.74,-274.07 272.16,-274.62 274.8,-281.1"/>
</g>
<!-- shire -->
<g id="node7" class="node">
<title>shire</title>
<ellipse fill="none" stroke="black" cx="431.67" cy="-423" rx="27.9" ry="18"/>
<text text-anchor="middle" x="431.67" y="-419.3" font-family="Times New Roman,serif" font-size="14.00">shire</text>
</g>
<!-- OXXXO3&#45;&gt;shire -->
<g id="edge6" class="edge">
<title>OXXXO3&#45;&gt;shire</title>
<path fill="none" stroke="black" d="M364.06,-423C373.83,-423 384,-423 393.35,-423"/>
<polygon fill="black" stroke="black" points="393.51,-426.5 403.51,-423 393.51,-419.5 393.51,-426.5"/>
</g>
<!-- smite -->
<g id="node9" class="node">
<title>smite</title>
<ellipse fill="none" stroke="black" cx="431.67" cy="-369" rx="29.8" ry="18"/>
<text text-anchor="middle" x="431.67" y="-365.3" font-family="Times New Roman,serif" font-size="14.00">smite</text>
</g>
<!-- XXOXX3&#45;&gt;smite -->
<g id="edge8" class="edge">
<title>XXOXX3&#45;&gt;smite</title>
<path fill="none" stroke="black" d="M363.4,-369C372.68,-369 382.33,-369 391.33,-369"/>
<polygon fill="black" stroke="black" points="391.54,-372.5 401.54,-369 391.54,-365.5 391.54,-372.5"/>
</g>
<!-- spite -->
<g id="node11" class="node">
<title>spite</title>
<ellipse fill="none" stroke="black" cx="431.67" cy="-531" rx="27.9" ry="18"/>
<text text-anchor="middle" x="431.67" y="-527.3" font-family="Times New Roman,serif" font-size="14.00">spite</text>
</g>
<!-- OXXXX3&#45;&gt;spite -->
<g id="edge10" class="edge">
<title>OXXXX3&#45;&gt;spite</title>
<path fill="none" stroke="black" d="M363.4,-531C373.42,-531 383.88,-531 393.48,-531"/>
<polygon fill="black" stroke="black" points="393.51,-534.5 403.51,-531 393.51,-527.5 393.51,-534.5"/>
</g>
<!-- GXGGG3 -->
<g id="node13" class="node">
<title>GXGGG3</title>
<ellipse fill="none" stroke="black" cx="315.73" cy="-207" rx="48.99" ry="18"/>
<text text-anchor="middle" x="315.73" y="-203.3" font-family="Times New Roman,serif" font-size="14.00">GXGGG3</text>
</g>
<!-- GOGXG2&#45;&gt;GXGGG3 -->
<g id="edge12" class="edge">
<title>GOGXG2&#45;&gt;GXGGG3</title>
<path fill="none" stroke="black" d="M224.76,-188.62C236.8,-191.08 250.06,-193.79 262.62,-196.35"/>
<polygon fill="black" stroke="black" points="262,-199.8 272.5,-198.37 263.41,-192.94 262,-199.8"/>
</g>
<!-- shine -->
<g id="node26" class="node">
<title>shine</title>
<ellipse fill="none" stroke="black" cx="315.73" cy="-153" rx="29.5" ry="18"/>
<text text-anchor="middle" x="315.73" y="-149.3" font-family="Times New Roman,serif" font-size="14.00">shine</text>
</g>
<!-- GOGXG2&#45;&gt;shine -->
<g id="edge25" class="edge">
<title>GOGXG2&#45;&gt;shine</title>
<path fill="none" stroke="black" d="M224.76,-171.38C241.77,-167.91 261.23,-163.93 277.69,-160.57"/>
<polygon fill="black" stroke="black" points="278.4,-163.99 287.5,-158.56 277,-157.14 278.4,-163.99"/>
</g>
<!-- swine -->
<g id="node14" class="node">
<title>swine</title>
<ellipse fill="none" stroke="black" cx="431.67" cy="-207" rx="31.4" ry="18"/>
<text text-anchor="middle" x="431.67" y="-203.3" font-family="Times New Roman,serif" font-size="14.00">swine</text>
</g>
<!-- GXGGG3&#45;&gt;swine -->
<g id="edge13" class="edge">
<title>GXGGG3&#45;&gt;swine</title>
<path fill="none" stroke="black" d="M364.72,-207C373.19,-207 381.93,-207 390.16,-207"/>
<polygon fill="black" stroke="black" points="390.27,-210.5 400.27,-207 390.27,-203.5 390.27,-210.5"/>
</g>
<!-- seize -->
<g id="node16" class="node">
<title>seize</title>
<ellipse fill="none" stroke="black" cx="431.67" cy="-315" rx="28.7" ry="18"/>
<text text-anchor="middle" x="431.67" y="-311.3" font-family="Times New Roman,serif" font-size="14.00">seize</text>
</g>
<!-- XXXXX3&#45;&gt;seize -->
<g id="edge15" class="edge">
<title>XXXXX3&#45;&gt;seize</title>
<path fill="none" stroke="black" d="M362.74,-315C372.72,-315 383.17,-315 392.79,-315"/>
<polygon fill="black" stroke="black" points="392.85,-318.5 402.85,-315 392.85,-311.5 392.85,-318.5"/>
</g>
<!-- snide -->
<g id="node18" class="node">
<title>snide</title>
<ellipse fill="none" stroke="black" cx="315.73" cy="-99" rx="29.8" ry="18"/>
<text text-anchor="middle" x="315.73" y="-95.3" font-family="Times New Roman,serif" font-size="14.00">snide</text>
</g>
<!-- GGGXG2&#45;&gt;snide -->
<g id="edge17" class="edge">
<title>GGGXG2&#45;&gt;snide</title>
<path fill="none" stroke="black" d="M224.76,-117.38C241.49,-113.96 260.58,-110.06 276.86,-106.74"/>
<polygon fill="black" stroke="black" points="278,-110.08 287.1,-104.65 276.6,-103.22 278,-110.08"/>
</g>
<!-- spire -->
<g id="node20" class="node">
<title>spire</title>
<ellipse fill="none" stroke="black" cx="431.67" cy="-477" rx="28.7" ry="18"/>
<text text-anchor="middle" x="431.67" y="-473.3" font-family="Times New Roman,serif" font-size="14.00">spire</text>
</g>
<!-- XOXXX3&#45;&gt;spire -->
<g id="edge19" class="edge">
<title>XOXXX3&#45;&gt;spire</title>
<path fill="none" stroke="black" d="M363.4,-477C373.14,-477 383.29,-477 392.66,-477"/>
<polygon fill="black" stroke="black" points="392.86,-480.5 402.86,-477 392.86,-473.5 392.86,-480.5"/>
</g>
<!-- suite -->
<g id="node22" class="node">
<title>suite</title>
<ellipse fill="none" stroke="black" cx="431.67" cy="-261" rx="27.1" ry="18"/>
<text text-anchor="middle" x="431.67" y="-257.3" font-family="Times New Roman,serif" font-size="14.00">suite</text>
</g>
<!-- XGXXX3&#45;&gt;suite -->
<g id="edge21" class="edge">
<title>XGXXX3&#45;&gt;suite</title>
<path fill="none" stroke="black" d="M363.4,-261C373.6,-261 384.26,-261 394,-261"/>
<polygon fill="black" stroke="black" points="394.15,-264.5 404.15,-261 394.15,-257.5 394.15,-264.5"/>
</g>
<!-- spine -->
<g id="node24" class="node">
<title>spine</title>
<ellipse fill="none" stroke="black" cx="315.73" cy="-45" rx="29.8" ry="18"/>
<text text-anchor="middle" x="315.73" y="-41.3" font-family="Times New Roman,serif" font-size="14.00">spine</text>
</g>
<!-- GOGOG2&#45;&gt;spine -->
<g id="edge23" class="edge">
<title>GOGOG2&#45;&gt;spine</title>
<path fill="none" stroke="black" d="M225.12,-63.31C241.84,-59.89 260.86,-56.01 277.06,-52.7"/>
<polygon fill="black" stroke="black" points="278.15,-56.05 287.25,-50.61 276.75,-49.19 278.15,-56.05"/>
</g>
</g>
</svg>
