<?xml version="1.0" encoding="UTF-8" standalone="no"?>
<!DOCTYPE svg PUBLIC "-//W3C//DTD SVG 1.1//EN"
 "http://www.w3.org/Graphics/SVG/1.1/DTD/svg11.dtd">
<!-- Generated by graphviz version 2.50.0 (20211204.2007)
 -->
<!-- Pages: 1 -->
<svg width="462pt" height="260pt"
 viewBox="0.00 0.00 461.77 260.00" xmlns="http://www.w3.org/2000/svg" xmlns:xlink="http://www.w3.org/1999/xlink">
<g id="graph0" class="graph" transform="scale(1 1) rotate(0) translate(4 256)">
<polygon fill="white" stroke="transparent" points="-4,4 -4,-256 457.77,-256 457.77,4 -4,4"/>
<!-- GOXXG1 -->
<g id="node1" class="node">
<title>GOXXG1</title>
<ellipse fill="none" stroke="black" cx="48.1" cy="-99" rx="48.19" ry="18"/>
<text text-anchor="middle" x="48.1" y="-95.3" font-family="Times New Roman,serif" font-size="14.00">GOXXG1</text>
</g>
<!-- GXGGG2 -->
<g id="node2" class="node">
<title>GXGGG2</title>
<ellipse fill="none" stroke="black" cx="180.94" cy="-207" rx="48.99" ry="18"/>
<text text-anchor="middle" x="180.94" y="-203.3" font-family="Times New Roman,serif" font-size="14.00">GXGGG2</text>
</g>
<!-- GOXXG1&#45;&gt;GXGGG2 -->
<g id="edge1" class="edge">
<title>GOXXG1&#45;&gt;GXGGG2</title>
<path fill="none" stroke="black" d="M68.97,-115.4C91.06,-133.64 126.92,-163.24 151.87,-183.83"/>
<polygon fill="black" stroke="black" points="149.94,-186.78 159.88,-190.44 154.39,-181.38 149.94,-186.78"/>
</g>
<!-- GOOXG2 -->
<g id="node4" class="node">
<title>GOOXG2</title>
<ellipse fill="none" stroke="black" cx="180.94" cy="-126" rx="48.99" ry="18"/>
<text text-anchor="middle" x="180.94" y="-122.3" font-family="Times New Roman,serif" font-size="14.00">GOOXG2</text>
</g>
<!-- GOXXG1&#45;&gt;GOOXG2 -->
<g id="edge3" class="edge">
<title>GOXXG1&#45;&gt;GOOXG2</title>
<path fill="none" stroke="black" d="M90.49,-107.54C102.43,-110.01 115.6,-112.72 128.08,-115.3"/>
<polygon fill="black" stroke="black" points="127.41,-118.73 137.91,-117.33 128.82,-111.88 127.41,-118.73"/>
</g>
<!-- GXOXG2 -->
<g id="node7" class="node">
<title>GXOXG2</title>
<ellipse fill="none" stroke="black" cx="180.94" cy="-72" rx="48.19" ry="18"/>
<text text-anchor="middle" x="180.94" y="-68.3" font-family="Times New Roman,serif" font-size="14.00">GXOXG2</text>
</g>
<!-- GOXXG1&#45;&gt;GXOXG2 -->
<g id="edge6" class="edge">
<title>GOXXG1&#45;&gt;GXOXG2</title>
<path fill="none" stroke="black" d="M90.49,-90.46C102.55,-87.97 115.86,-85.22 128.45,-82.62"/>
<polygon fill="black" stroke="black" points="129.27,-86.03 138.36,-80.58 127.86,-79.17 129.27,-86.03"/>
</g>
<!-- salve -->
<g id="node10" class="node">
<title>salve</title>
<ellipse fill="none" stroke="black" cx="180.94" cy="-18" rx="28.7" ry="18"/>
<text text-anchor="middle" x="180.94" y="-14.3" font-family="Times New Roman,serif" font-size="14.00">salve</text>
</g>
<!-- GOXXG1&#45;&gt;salve -->
<g id="edge9" class="edge">
<title>GOXXG1&#45;&gt;salve</title>
<path fill="none" stroke="black" d="M72.49,-83.25C89.01,-72.26 111.75,-57.41 132.19,-45 137.85,-41.56 143.97,-38 149.86,-34.63"/>
<polygon fill="black" stroke="black" points="151.87,-37.52 158.86,-29.55 148.43,-31.42 151.87,-37.52"/>
</g>
<!-- solve -->
<g id="node3" class="node">
<title>solve</title>
<ellipse fill="none" stroke="black" cx="314.43" cy="-234" rx="29.8" ry="18"/>
<text text-anchor="middle" x="314.43" y="-230.3" font-family="Times New Roman,serif" font-size="14.00">solve</text>
</g>
<!-- GXGGG2&#45;&gt;solve -->
<g id="edge2" class="edge">
<title>GXGGG2&#45;&gt;solve</title>
<path fill="none" stroke="black" d="M223.9,-215.62C240.55,-219.04 259.55,-222.94 275.75,-226.26"/>
<polygon fill="black" stroke="black" points="275.44,-229.77 285.93,-228.35 276.84,-222.91 275.44,-229.77"/>
</g>
<!-- GXGGG3 -->
<g id="node5" class="node">
<title>GXGGG3</title>
<ellipse fill="none" stroke="black" cx="314.43" cy="-180" rx="48.99" ry="18"/>
<text text-anchor="middle" x="314.43" y="-176.3" font-family="Times New Roman,serif" font-size="14.00">GXGGG3</text>
</g>
<!-- GOOXG2&#45;&gt;GXGGG3 -->
<g id="edge4" class="edge">
<title>GOOXG2&#45;&gt;GXGGG3</title>
<path fill="none" stroke="black" d="M214.1,-139.21C231.46,-146.34 253.07,-155.21 271.71,-162.87"/>
<polygon fill="black" stroke="black" points="270.56,-166.18 281.14,-166.74 273.22,-159.7 270.56,-166.18"/>
</g>
<!-- shale -->
<g id="node9" class="node">
<title>shale</title>
<ellipse fill="none" stroke="black" cx="314.43" cy="-126" rx="28.7" ry="18"/>
<text text-anchor="middle" x="314.43" y="-122.3" font-family="Times New Roman,serif" font-size="14.00">shale</text>
</g>
<!-- GOOXG2&#45;&gt;shale -->
<g id="edge8" class="edge">
<title>GOOXG2&#45;&gt;shale</title>
<path fill="none" stroke="black" d="M229.78,-126C244.76,-126 261.08,-126 275.3,-126"/>
<polygon fill="black" stroke="black" points="275.7,-129.5 285.7,-126 275.7,-122.5 275.7,-129.5"/>
</g>
<!-- stale -->
<g id="node6" class="node">
<title>stale</title>
<ellipse fill="none" stroke="black" cx="426.47" cy="-180" rx="27" ry="18"/>
<text text-anchor="middle" x="426.47" y="-176.3" font-family="Times New Roman,serif" font-size="14.00">stale</text>
</g>
<!-- GXGGG3&#45;&gt;stale -->
<g id="edge5" class="edge">
<title>GXGGG3&#45;&gt;stale</title>
<path fill="none" stroke="black" d="M363.37,-180C372.09,-180 381.05,-180 389.35,-180"/>
<polygon fill="black" stroke="black" points="389.45,-183.5 399.45,-180 389.45,-176.5 389.45,-183.5"/>
</g>
<!-- stole -->
<g id="node8" class="node">
<title>stole</title>
<ellipse fill="none" stroke="black" cx="314.43" cy="-72" rx="27.9" ry="18"/>
<text text-anchor="middle" x="314.43" y="-68.3" font-family="Times New Roman,serif" font-size="14.00">stole</text>
</g>
<!-- GXOXG2&#45;&gt;stole -->
<g id="edge7" class="edge">
<title>GXOXG2&#45;&gt;stole</title>
<path fill="none" stroke="black" d="M229.04,-72C244.45,-72 261.36,-72 275.97,-72"/>
<polygon fill="black" stroke="black" points="276.15,-75.5 286.15,-72 276.15,-68.5 276.15,-75.5"/>
</g>
<!-- GGXGG3 -->
<g id="node11" class="node">
<title>GGXGG3</title>
<ellipse fill="none" stroke="black" cx="314.43" cy="-18" rx="48.99" ry="18"/>
<text text-anchor="middle" x="314.43" y="-14.3" font-family="Times New Roman,serif" font-size="14.00">GGXGG3</text>
</g>
<!-- GXOXG2&#45;&gt;GGXGG3 -->
<g id="edge10" class="edge">
<title>GXOXG2&#45;&gt;GGXGG3</title>
<path fill="none" stroke="black" d="M214.1,-58.79C231.46,-51.66 253.07,-42.79 271.71,-35.13"/>
<polygon fill="black" stroke="black" points="273.22,-38.3 281.14,-31.26 270.56,-31.82 273.22,-38.3"/>
</g>
<!-- style -->
<g id="node12" class="node">
<title>style</title>
<ellipse fill="none" stroke="black" cx="426.47" cy="-18" rx="27.1" ry="18"/>
<text text-anchor="middle" x="426.47" y="-14.3" font-family="Times New Roman,serif" font-size="14.00">style</text>
</g>
<!-- GGXGG3&#45;&gt;style -->
<g id="edge11" class="edge">
<title>GGXGG3&#45;&gt;style</title>
<path fill="none" stroke="black" d="M363.37,-18C372.01,-18 380.88,-18 389.12,-18"/>
<polygon fill="black" stroke="black" points="389.14,-21.5 399.14,-18 389.14,-14.5 389.14,-21.5"/>
</g>
</g>
</svg>
