<?xml version="1.0" encoding="UTF-8" standalone="no"?>
<!DOCTYPE svg PUBLIC "-//W3C//DTD SVG 1.1//EN"
 "http://www.w3.org/Graphics/SVG/1.1/DTD/svg11.dtd">
<!-- Generated by graphviz version 2.50.0 (20211204.2007)
 -->
<!-- Pages: 1 -->
<svg width="606pt" height="503pt"
 viewBox="0.00 0.00 605.66 503.00" xmlns="http://www.w3.org/2000/svg" xmlns:xlink="http://www.w3.org/1999/xlink">
<g id="graph0" class="graph" transform="scale(1 1) rotate(0) translate(4 499)">
<polygon fill="white" stroke="transparent" points="-4,4 -4,-499 601.66,-499 601.66,4 -4,4"/>
<!-- XXOGX1 -->
<g id="node1" class="node">
<title>XXOGX1</title>
<ellipse fill="none" stroke="black" cx="48.1" cy="-126" rx="48.19" ry="18"/>
<text text-anchor="middle" x="48.1" y="-122.3" font-family="Times New Roman,serif" font-size="14.00">XXOGX1</text>
</g>
<!-- XGGGG2 -->
<g id="node2" class="node">
<title>XGGGG2</title>
<ellipse fill="none" stroke="black" cx="180.94" cy="-369" rx="48.99" ry="18"/>
<text text-anchor="middle" x="180.94" y="-365.3" font-family="Times New Roman,serif" font-size="14.00">XGGGG2</text>
</g>
<!-- XXOGX1&#45;&gt;XGGGG2 -->
<g id="edge1" class="edge">
<title>XXOGX1&#45;&gt;XGGGG2</title>
<path fill="none" stroke="black" d="M58.72,-143.87C81.45,-186.09 138.58,-292.2 165.49,-342.17"/>
<polygon fill="black" stroke="black" points="162.48,-343.96 170.3,-351.11 168.64,-340.64 162.48,-343.96"/>
</g>
<!-- XGXGG2 -->
<g id="node5" class="node">
<title>XGXGG2</title>
<ellipse fill="none" stroke="black" cx="180.94" cy="-207" rx="48.19" ry="18"/>
<text text-anchor="middle" x="180.94" y="-203.3" font-family="Times New Roman,serif" font-size="14.00">XGXGG2</text>
</g>
<!-- XXOGX1&#45;&gt;XGXGG2 -->
<g id="edge4" class="edge">
<title>XXOGX1&#45;&gt;XGXGG2</title>
<path fill="none" stroke="black" d="M74.01,-141.43C94.57,-154.15 123.91,-172.32 146.51,-186.3"/>
<polygon fill="black" stroke="black" points="144.77,-189.34 155.11,-191.63 148.45,-183.39 144.77,-189.34"/>
</g>
<!-- GGXGG2 -->
<g id="node10" class="node">
<title>GGXGG2</title>
<ellipse fill="none" stroke="black" cx="180.94" cy="-126" rx="48.99" ry="18"/>
<text text-anchor="middle" x="180.94" y="-122.3" font-family="Times New Roman,serif" font-size="14.00">GGXGG2</text>
</g>
<!-- XXOGX1&#45;&gt;GGXGG2 -->
<g id="edge9" class="edge">
<title>XXOGX1&#45;&gt;GGXGG2</title>
<path fill="none" stroke="black" d="M96.33,-126C104.55,-126 113.19,-126 121.67,-126"/>
<polygon fill="black" stroke="black" points="121.89,-129.5 131.89,-126 121.89,-122.5 121.89,-129.5"/>
</g>
<!-- XGXGX2 -->
<g id="node18" class="node">
<title>XGXGX2</title>
<ellipse fill="none" stroke="black" cx="180.94" cy="-72" rx="48.19" ry="18"/>
<text text-anchor="middle" x="180.94" y="-68.3" font-family="Times New Roman,serif" font-size="14.00">XGXGX2</text>
</g>
<!-- XXOGX1&#45;&gt;XGXGX2 -->
<g id="edge17" class="edge">
<title>XXOGX1&#45;&gt;XGXGX2</title>
<path fill="none" stroke="black" d="M81.1,-112.79C98.37,-105.66 119.88,-96.79 138.42,-89.13"/>
<polygon fill="black" stroke="black" points="139.9,-92.31 147.81,-85.26 137.23,-85.84 139.9,-92.31"/>
</g>
<!-- pinch -->
<g id="node22" class="node">
<title>pinch</title>
<ellipse fill="none" stroke="black" cx="180.94" cy="-18" rx="30.59" ry="18"/>
<text text-anchor="middle" x="180.94" y="-14.3" font-family="Times New Roman,serif" font-size="14.00">pinch</text>
</g>
<!-- XXOGX1&#45;&gt;pinch -->
<g id="edge21" class="edge">
<title>XXOGX1&#45;&gt;pinch</title>
<path fill="none" stroke="black" d="M64.21,-108.86C80.07,-91.48 106.25,-64.47 132.19,-45 137.07,-41.34 142.5,-37.82 147.89,-34.6"/>
<polygon fill="black" stroke="black" points="149.89,-37.49 156.84,-29.49 146.42,-31.41 149.89,-37.49"/>
</g>
<!-- XXOXX3 -->
<g id="node3" class="node">
<title>XXOXX3</title>
<ellipse fill="none" stroke="black" cx="313.78" cy="-423" rx="47.39" ry="18"/>
<text text-anchor="middle" x="313.78" y="-419.3" font-family="Times New Roman,serif" font-size="14.00">XXOXX3</text>
</g>
<!-- XGGGG2&#45;&gt;XXOXX3 -->
<g id="edge2" class="edge">
<title>XGGGG2&#45;&gt;XXOXX3</title>
<path fill="none" stroke="black" d="M214.28,-382.35C231.55,-389.48 252.99,-398.33 271.46,-405.95"/>
<polygon fill="black" stroke="black" points="270.23,-409.23 280.81,-409.81 272.9,-402.75 270.23,-409.23"/>
</g>
<!-- GXOXX3 -->
<g id="node12" class="node">
<title>GXOXX3</title>
<ellipse fill="none" stroke="black" cx="313.78" cy="-369" rx="48.19" ry="18"/>
<text text-anchor="middle" x="313.78" y="-365.3" font-family="Times New Roman,serif" font-size="14.00">GXOXX3</text>
</g>
<!-- XGGGG2&#45;&gt;GXOXX3 -->
<g id="edge11" class="edge">
<title>XGGGG2&#45;&gt;GXOXX3</title>
<path fill="none" stroke="black" d="M229.91,-369C238.21,-369 246.91,-369 255.43,-369"/>
<polygon fill="black" stroke="black" points="255.68,-372.5 265.68,-369 255.68,-365.5 255.68,-372.5"/>
</g>
<!-- cinch -->
<g id="node4" class="node">
<title>cinch</title>
<ellipse fill="none" stroke="black" cx="447.27" cy="-477" rx="30.59" ry="18"/>
<text text-anchor="middle" x="447.27" y="-473.3" font-family="Times New Roman,serif" font-size="14.00">cinch</text>
</g>
<!-- XXOXX3&#45;&gt;cinch -->
<g id="edge3" class="edge">
<title>XXOXX3&#45;&gt;cinch</title>
<path fill="none" stroke="black" d="M346.61,-436.07C366.47,-444.23 392.01,-454.72 412.26,-463.03"/>
<polygon fill="black" stroke="black" points="411.15,-466.36 421.73,-466.92 413.81,-459.89 411.15,-466.36"/>
</g>
<!-- OGGGG4 -->
<g id="node8" class="node">
<title>OGGGG4</title>
<ellipse fill="none" stroke="black" cx="447.27" cy="-423" rx="49.29" ry="18"/>
<text text-anchor="middle" x="447.27" y="-419.3" font-family="Times New Roman,serif" font-size="14.00">OGGGG4</text>
</g>
<!-- XXOXX3&#45;&gt;OGGGG4 -->
<g id="edge7" class="edge">
<title>XXOXX3&#45;&gt;OGGGG4</title>
<path fill="none" stroke="black" d="M361.51,-423C369.89,-423 378.72,-423 387.4,-423"/>
<polygon fill="black" stroke="black" points="387.47,-426.5 397.47,-423 387.47,-419.5 387.47,-426.5"/>
</g>
<!-- OXXXX3 -->
<g id="node6" class="node">
<title>OXXXX3</title>
<ellipse fill="none" stroke="black" cx="313.78" cy="-315" rx="47.39" ry="18"/>
<text text-anchor="middle" x="313.78" y="-311.3" font-family="Times New Roman,serif" font-size="14.00">OXXXX3</text>
</g>
<!-- XGXGG2&#45;&gt;OXXXX3 -->
<g id="edge5" class="edge">
<title>XGXGG2&#45;&gt;OXXXX3</title>
<path fill="none" stroke="black" d="M197.22,-224.1C213.24,-241.44 239.65,-268.43 265.68,-288 268.9,-290.42 272.35,-292.78 275.87,-295.03"/>
<polygon fill="black" stroke="black" points="274.3,-298.18 284.66,-300.4 277.95,-292.2 274.3,-298.18"/>
</g>
<!-- GXXXX3 -->
<g id="node14" class="node">
<title>GXXXX3</title>
<ellipse fill="none" stroke="black" cx="313.78" cy="-261" rx="47.39" ry="18"/>
<text text-anchor="middle" x="313.78" y="-257.3" font-family="Times New Roman,serif" font-size="14.00">GXXXX3</text>
</g>
<!-- XGXGG2&#45;&gt;GXXXX3 -->
<g id="edge13" class="edge">
<title>XGXGG2&#45;&gt;GXXXX3</title>
<path fill="none" stroke="black" d="M213.94,-220.21C231.34,-227.39 253.04,-236.35 271.68,-244.04"/>
<polygon fill="black" stroke="black" points="270.52,-247.35 281.1,-247.93 273.19,-240.88 270.52,-247.35"/>
</g>
<!-- OXXOX3 -->
<g id="node16" class="node">
<title>OXXOX3</title>
<ellipse fill="none" stroke="black" cx="313.78" cy="-207" rx="48.19" ry="18"/>
<text text-anchor="middle" x="313.78" y="-203.3" font-family="Times New Roman,serif" font-size="14.00">OXXOX3</text>
</g>
<!-- XGXGG2&#45;&gt;OXXOX3 -->
<g id="edge15" class="edge">
<title>XGXGG2&#45;&gt;OXXOX3</title>
<path fill="none" stroke="black" d="M229.17,-207C237.7,-207 246.67,-207 255.44,-207"/>
<polygon fill="black" stroke="black" points="255.61,-210.5 265.61,-207 255.61,-203.5 255.61,-210.5"/>
</g>
<!-- OXOXX3 -->
<g id="node20" class="node">
<title>OXOXX3</title>
<ellipse fill="none" stroke="black" cx="313.78" cy="-153" rx="48.19" ry="18"/>
<text text-anchor="middle" x="313.78" y="-149.3" font-family="Times New Roman,serif" font-size="14.00">OXOXX3</text>
</g>
<!-- XGXGG2&#45;&gt;OXOXX3 -->
<g id="edge19" class="edge">
<title>XGXGG2&#45;&gt;OXOXX3</title>
<path fill="none" stroke="black" d="M213.94,-193.79C231.21,-186.66 252.72,-177.79 271.26,-170.13"/>
<polygon fill="black" stroke="black" points="272.74,-173.31 280.65,-166.26 270.07,-166.84 272.74,-173.31"/>
</g>
<!-- birch -->
<g id="node7" class="node">
<title>birch</title>
<ellipse fill="none" stroke="black" cx="447.27" cy="-315" rx="29.5" ry="18"/>
<text text-anchor="middle" x="447.27" y="-311.3" font-family="Times New Roman,serif" font-size="14.00">birch</text>
</g>
<!-- OXXXX3&#45;&gt;birch -->
<g id="edge6" class="edge">
<title>OXXXX3&#45;&gt;birch</title>
<path fill="none" stroke="black" d="M361.51,-315C376.6,-315 393.14,-315 407.58,-315"/>
<polygon fill="black" stroke="black" points="407.67,-318.5 417.67,-315 407.67,-311.5 407.67,-318.5"/>
</g>
<!-- winch -->
<g id="node9" class="node">
<title>winch</title>
<ellipse fill="none" stroke="black" cx="565.16" cy="-423" rx="32.49" ry="18"/>
<text text-anchor="middle" x="565.16" y="-419.3" font-family="Times New Roman,serif" font-size="14.00">winch</text>
</g>
<!-- OGGGG4&#45;&gt;winch -->
<g id="edge8" class="edge">
<title>OGGGG4&#45;&gt;winch</title>
<path fill="none" stroke="black" d="M496.75,-423C505.21,-423 513.95,-423 522.21,-423"/>
<polygon fill="black" stroke="black" points="522.37,-426.5 532.37,-423 522.37,-419.5 522.37,-426.5"/>
</g>
<!-- pitch -->
<g id="node11" class="node">
<title>pitch</title>
<ellipse fill="none" stroke="black" cx="313.78" cy="-99" rx="28.7" ry="18"/>
<text text-anchor="middle" x="313.78" y="-95.3" font-family="Times New Roman,serif" font-size="14.00">pitch</text>
</g>
<!-- GGXGG2&#45;&gt;pitch -->
<g id="edge10" class="edge">
<title>GGXGG2&#45;&gt;pitch</title>
<path fill="none" stroke="black" d="M224.06,-117.31C240.85,-113.84 259.99,-109.89 276.19,-106.55"/>
<polygon fill="black" stroke="black" points="277.27,-109.9 286.36,-104.45 275.86,-103.05 277.27,-109.9"/>
</g>
<!-- finch -->
<g id="node13" class="node">
<title>finch</title>
<ellipse fill="none" stroke="black" cx="447.27" cy="-369" rx="28.7" ry="18"/>
<text text-anchor="middle" x="447.27" y="-365.3" font-family="Times New Roman,serif" font-size="14.00">finch</text>
</g>
<!-- GXOXX3&#45;&gt;finch -->
<g id="edge12" class="edge">
<title>GXOXX3&#45;&gt;finch</title>
<path fill="none" stroke="black" d="M361.88,-369C377.18,-369 393.95,-369 408.47,-369"/>
<polygon fill="black" stroke="black" points="408.61,-372.5 418.61,-369 408.61,-365.5 408.61,-372.5"/>
</g>
<!-- hitch -->
<g id="node15" class="node">
<title>hitch</title>
<ellipse fill="none" stroke="black" cx="447.27" cy="-261" rx="28.7" ry="18"/>
<text text-anchor="middle" x="447.27" y="-257.3" font-family="Times New Roman,serif" font-size="14.00">hitch</text>
</g>
<!-- GXXXX3&#45;&gt;hitch -->
<g id="edge14" class="edge">
<title>GXXXX3&#45;&gt;hitch</title>
<path fill="none" stroke="black" d="M361.51,-261C376.83,-261 393.67,-261 408.27,-261"/>
<polygon fill="black" stroke="black" points="408.45,-264.5 418.45,-261 408.45,-257.5 408.45,-264.5"/>
</g>
<!-- ditch -->
<g id="node17" class="node">
<title>ditch</title>
<ellipse fill="none" stroke="black" cx="447.27" cy="-207" rx="28.7" ry="18"/>
<text text-anchor="middle" x="447.27" y="-203.3" font-family="Times New Roman,serif" font-size="14.00">ditch</text>
</g>
<!-- OXXOX3&#45;&gt;ditch -->
<g id="edge16" class="edge">
<title>OXXOX3&#45;&gt;ditch</title>
<path fill="none" stroke="black" d="M361.88,-207C377.18,-207 393.95,-207 408.47,-207"/>
<polygon fill="black" stroke="black" points="408.61,-210.5 418.61,-207 408.61,-203.5 408.61,-210.5"/>
</g>
<!-- circa -->
<g id="node19" class="node">
<title>circa</title>
<ellipse fill="none" stroke="black" cx="313.78" cy="-45" rx="28.7" ry="18"/>
<text text-anchor="middle" x="313.78" y="-41.3" font-family="Times New Roman,serif" font-size="14.00">circa</text>
</g>
<!-- XGXGX2&#45;&gt;circa -->
<g id="edge18" class="edge">
<title>XGXGX2&#45;&gt;circa</title>
<path fill="none" stroke="black" d="M223.34,-63.46C240.45,-59.93 260.11,-55.87 276.63,-52.46"/>
<polygon fill="black" stroke="black" points="277.37,-55.88 286.46,-50.43 275.96,-49.02 277.37,-55.88"/>
</g>
<!-- witch -->
<g id="node21" class="node">
<title>witch</title>
<ellipse fill="none" stroke="black" cx="447.27" cy="-153" rx="30.59" ry="18"/>
<text text-anchor="middle" x="447.27" y="-149.3" font-family="Times New Roman,serif" font-size="14.00">witch</text>
</g>
<!-- OXOXX3&#45;&gt;witch -->
<g id="edge20" class="edge">
<title>OXOXX3&#45;&gt;witch</title>
<path fill="none" stroke="black" d="M361.88,-153C376.44,-153 392.34,-153 406.36,-153"/>
<polygon fill="black" stroke="black" points="406.67,-156.5 416.67,-153 406.67,-149.5 406.67,-156.5"/>
</g>
</g>
</svg>
