<?xml version="1.0" encoding="UTF-8" standalone="no"?>
<!DOCTYPE svg PUBLIC "-//W3C//DTD SVG 1.1//EN"
 "http://www.w3.org/Graphics/SVG/1.1/DTD/svg11.dtd">
<!-- Generated by graphviz version 2.50.0 (20211204.2007)
 -->
<!-- Pages: 1 -->
<svg width="462pt" height="368pt"
 viewBox="0.00 0.00 462.47 368.00" xmlns="http://www.w3.org/2000/svg" xmlns:xlink="http://www.w3.org/1999/xlink">
<g id="graph0" class="graph" transform="scale(1 1) rotate(0) translate(4 364)">
<polygon fill="white" stroke="transparent" points="-4,4 -4,-364 458.47,-364 458.47,4 -4,4"/>
<!-- XOOXG1 -->
<g id="node1" class="node">
<title>XOOXG1</title>
<ellipse fill="none" stroke="black" cx="48.1" cy="-153" rx="48.19" ry="18"/>
<text text-anchor="middle" x="48.1" y="-149.3" font-family="Times New Roman,serif" font-size="14.00">XOOXG1</text>
</g>
<!-- GGOOG2 -->
<g id="node2" class="node">
<title>GGOOG2</title>
<ellipse fill="none" stroke="black" cx="181.59" cy="-315" rx="49.29" ry="18"/>
<text text-anchor="middle" x="181.59" y="-311.3" font-family="Times New Roman,serif" font-size="14.00">GGOOG2</text>
</g>
<!-- XOOXG1&#45;&gt;GGOOG2 -->
<g id="edge1" class="edge">
<title>XOOXG1&#45;&gt;GGOOG2</title>
<path fill="none" stroke="black" d="M61.94,-170.52C77.95,-192.15 106.34,-229.88 132.19,-261 140.28,-270.74 149.48,-281.15 157.67,-290.22"/>
<polygon fill="black" stroke="black" points="155.24,-292.74 164.56,-297.78 160.41,-288.03 155.24,-292.74"/>
</g>
<!-- XGXOG2 -->
<g id="node4" class="node">
<title>XGXOG2</title>
<ellipse fill="none" stroke="black" cx="181.59" cy="-234" rx="48.19" ry="18"/>
<text text-anchor="middle" x="181.59" y="-230.3" font-family="Times New Roman,serif" font-size="14.00">XGXOG2</text>
</g>
<!-- XOOXG1&#45;&gt;XGXOG2 -->
<g id="edge3" class="edge">
<title>XOOXG1&#45;&gt;XGXOG2</title>
<path fill="none" stroke="black" d="M72.47,-168.79C88.97,-179.79 111.71,-194.65 132.19,-207 136.15,-209.38 140.32,-211.82 144.49,-214.21"/>
<polygon fill="black" stroke="black" points="143.1,-217.45 153.52,-219.32 146.54,-211.35 143.1,-217.45"/>
</g>
<!-- XGXGG2 -->
<g id="node7" class="node">
<title>XGXGG2</title>
<ellipse fill="none" stroke="black" cx="181.59" cy="-180" rx="48.19" ry="18"/>
<text text-anchor="middle" x="181.59" y="-176.3" font-family="Times New Roman,serif" font-size="14.00">XGXGG2</text>
</g>
<!-- XOOXG1&#45;&gt;XGXGG2 -->
<g id="edge6" class="edge">
<title>XOOXG1&#45;&gt;XGXGG2</title>
<path fill="none" stroke="black" d="M90.7,-161.54C102.81,-164.03 116.19,-166.78 128.85,-169.38"/>
<polygon fill="black" stroke="black" points="128.3,-172.84 138.8,-171.42 129.71,-165.98 128.3,-172.84"/>
</g>
<!-- title -->
<g id="node10" class="node">
<title>title</title>
<ellipse fill="none" stroke="black" cx="181.59" cy="-126" rx="27" ry="18"/>
<text text-anchor="middle" x="181.59" y="-122.3" font-family="Times New Roman,serif" font-size="14.00">title</text>
</g>
<!-- XOOXG1&#45;&gt;title -->
<g id="edge9" class="edge">
<title>XOOXG1&#45;&gt;title</title>
<path fill="none" stroke="black" d="M90.7,-144.46C108.27,-140.85 128.51,-136.69 145.33,-133.24"/>
<polygon fill="black" stroke="black" points="146.22,-136.63 155.31,-131.19 144.81,-129.77 146.22,-136.63"/>
</g>
<!-- OGGOG2 -->
<g id="node13" class="node">
<title>OGGOG2</title>
<ellipse fill="none" stroke="black" cx="181.59" cy="-72" rx="49.29" ry="18"/>
<text text-anchor="middle" x="181.59" y="-68.3" font-family="Times New Roman,serif" font-size="14.00">OGGOG2</text>
</g>
<!-- XOOXG1&#45;&gt;OGGOG2 -->
<g id="edge12" class="edge">
<title>XOOXG1&#45;&gt;OGGOG2</title>
<path fill="none" stroke="black" d="M72.47,-137.21C88.97,-126.21 111.71,-111.35 132.19,-99 136.1,-96.64 140.22,-94.24 144.34,-91.87"/>
<polygon fill="black" stroke="black" points="146.29,-94.79 153.27,-86.82 142.84,-88.7 146.29,-94.79"/>
</g>
<!-- XOXOG2 -->
<g id="node15" class="node">
<title>XOXOG2</title>
<ellipse fill="none" stroke="black" cx="181.59" cy="-18" rx="48.19" ry="18"/>
<text text-anchor="middle" x="181.59" y="-14.3" font-family="Times New Roman,serif" font-size="14.00">XOXOG2</text>
</g>
<!-- XOOXG1&#45;&gt;XOXOG2 -->
<g id="edge14" class="edge">
<title>XOOXG1&#45;&gt;XOXOG2</title>
<path fill="none" stroke="black" d="M59.62,-135.13C73.84,-112.12 101.03,-71.89 132.19,-45 135.35,-42.28 138.82,-39.7 142.41,-37.31"/>
<polygon fill="black" stroke="black" points="144.26,-40.28 150.92,-32.04 140.57,-34.33 144.26,-40.28"/>
</g>
<!-- tilde -->
<g id="node3" class="node">
<title>tilde</title>
<ellipse fill="none" stroke="black" cx="315.73" cy="-342" rx="27" ry="18"/>
<text text-anchor="middle" x="315.73" y="-338.3" font-family="Times New Roman,serif" font-size="14.00">tilde</text>
</g>
<!-- GGOOG2&#45;&gt;tilde -->
<g id="edge2" class="edge">
<title>GGOOG2&#45;&gt;tilde</title>
<path fill="none" stroke="black" d="M225.12,-323.69C242.74,-327.29 262.93,-331.42 279.68,-334.84"/>
<polygon fill="black" stroke="black" points="279.11,-338.29 289.61,-336.87 280.51,-331.44 279.11,-338.29"/>
</g>
<!-- XGOGG3 -->
<g id="node5" class="node">
<title>XGOGG3</title>
<ellipse fill="none" stroke="black" cx="315.73" cy="-288" rx="48.99" ry="18"/>
<text text-anchor="middle" x="315.73" y="-284.3" font-family="Times New Roman,serif" font-size="14.00">XGOGG3</text>
</g>
<!-- XGXOG2&#45;&gt;XGOGG3 -->
<g id="edge4" class="edge">
<title>XGXOG2&#45;&gt;XGOGG3</title>
<path fill="none" stroke="black" d="M214.91,-247.21C232.35,-254.34 254.07,-263.21 272.8,-270.87"/>
<polygon fill="black" stroke="black" points="271.7,-274.2 282.28,-274.74 274.35,-267.72 271.7,-274.2"/>
</g>
<!-- bilge -->
<g id="node11" class="node">
<title>bilge</title>
<ellipse fill="none" stroke="black" cx="315.73" cy="-234" rx="27.9" ry="18"/>
<text text-anchor="middle" x="315.73" y="-230.3" font-family="Times New Roman,serif" font-size="14.00">bilge</text>
</g>
<!-- XGXOG2&#45;&gt;bilge -->
<g id="edge10" class="edge">
<title>XGXOG2&#45;&gt;bilge</title>
<path fill="none" stroke="black" d="M229.92,-234C245.53,-234 262.67,-234 277.42,-234"/>
<polygon fill="black" stroke="black" points="277.69,-237.5 287.69,-234 277.69,-230.5 277.69,-237.5"/>
</g>
<!-- liege -->
<g id="node6" class="node">
<title>liege</title>
<ellipse fill="none" stroke="black" cx="427.47" cy="-288" rx="27" ry="18"/>
<text text-anchor="middle" x="427.47" y="-284.3" font-family="Times New Roman,serif" font-size="14.00">liege</text>
</g>
<!-- XGOGG3&#45;&gt;liege -->
<g id="edge5" class="edge">
<title>XGOGG3&#45;&gt;liege</title>
<path fill="none" stroke="black" d="M364.55,-288C373.16,-288 382,-288 390.22,-288"/>
<polygon fill="black" stroke="black" points="390.22,-291.5 400.22,-288 390.22,-284.5 390.22,-291.5"/>
</g>
<!-- XGXGG3 -->
<g id="node8" class="node">
<title>XGXGG3</title>
<ellipse fill="none" stroke="black" cx="315.73" cy="-180" rx="48.19" ry="18"/>
<text text-anchor="middle" x="315.73" y="-176.3" font-family="Times New Roman,serif" font-size="14.00">XGXGG3</text>
</g>
<!-- XGXGG2&#45;&gt;XGXGG3 -->
<g id="edge7" class="edge">
<title>XGXGG2&#45;&gt;XGXGG3</title>
<path fill="none" stroke="black" d="M229.92,-180C238.74,-180 248.05,-180 257.15,-180"/>
<polygon fill="black" stroke="black" points="257.28,-183.5 267.28,-180 257.28,-176.5 257.28,-183.5"/>
</g>
<!-- bible -->
<g id="node12" class="node">
<title>bible</title>
<ellipse fill="none" stroke="black" cx="315.73" cy="-126" rx="28.7" ry="18"/>
<text text-anchor="middle" x="315.73" y="-122.3" font-family="Times New Roman,serif" font-size="14.00">bible</text>
</g>
<!-- XGXGG2&#45;&gt;bible -->
<g id="edge11" class="edge">
<title>XGXGG2&#45;&gt;bible</title>
<path fill="none" stroke="black" d="M214.91,-166.79C235.27,-158.47 261.46,-147.77 281.91,-139.41"/>
<polygon fill="black" stroke="black" points="283.51,-142.54 291.44,-135.52 280.86,-136.06 283.51,-142.54"/>
</g>
<!-- rifle -->
<g id="node9" class="node">
<title>rifle</title>
<ellipse fill="none" stroke="black" cx="427.47" cy="-180" rx="27" ry="18"/>
<text text-anchor="middle" x="427.47" y="-176.3" font-family="Times New Roman,serif" font-size="14.00">rifle</text>
</g>
<!-- XGXGG3&#45;&gt;rifle -->
<g id="edge8" class="edge">
<title>XGXGG3&#45;&gt;rifle</title>
<path fill="none" stroke="black" d="M363.91,-180C372.65,-180 381.66,-180 390.02,-180"/>
<polygon fill="black" stroke="black" points="390.2,-183.5 400.2,-180 390.2,-176.5 390.2,-183.5"/>
</g>
<!-- lithe -->
<g id="node14" class="node">
<title>lithe</title>
<ellipse fill="none" stroke="black" cx="315.73" cy="-72" rx="27" ry="18"/>
<text text-anchor="middle" x="315.73" y="-68.3" font-family="Times New Roman,serif" font-size="14.00">lithe</text>
</g>
<!-- OGGOG2&#45;&gt;lithe -->
<g id="edge13" class="edge">
<title>OGGOG2&#45;&gt;lithe</title>
<path fill="none" stroke="black" d="M231.04,-72C246.69,-72 263.76,-72 278.38,-72"/>
<polygon fill="black" stroke="black" points="278.53,-75.5 288.53,-72 278.53,-68.5 278.53,-75.5"/>
</g>
<!-- belie -->
<g id="node16" class="node">
<title>belie</title>
<ellipse fill="none" stroke="black" cx="315.73" cy="-18" rx="27.1" ry="18"/>
<text text-anchor="middle" x="315.73" y="-14.3" font-family="Times New Roman,serif" font-size="14.00">belie</text>
</g>
<!-- XOXOG2&#45;&gt;belie -->
<g id="edge15" class="edge">
<title>XOXOG2&#45;&gt;belie</title>
<path fill="none" stroke="black" d="M229.92,-18C245.65,-18 262.93,-18 277.76,-18"/>
<polygon fill="black" stroke="black" points="278.07,-21.5 288.07,-18 278.07,-14.5 278.07,-21.5"/>
</g>
</g>
</svg>
