<?xml version="1.0" encoding="UTF-8" standalone="no"?>
<!DOCTYPE svg PUBLIC "-//W3C//DTD SVG 1.1//EN"
 "http://www.w3.org/Graphics/SVG/1.1/DTD/svg11.dtd">
<!-- Generated by graphviz version 2.50.0 (20211204.2007)
 -->
<!-- Pages: 1 -->
<svg width="600pt" height="1259pt"
 viewBox="0.00 0.00 600.46 1259.00" xmlns="http://www.w3.org/2000/svg" xmlns:xlink="http://www.w3.org/1999/xlink">
<g id="graph0" class="graph" transform="scale(1 1) rotate(0) translate(4 1255)">
<polygon fill="white" stroke="transparent" points="-4,4 -4,-1255 596.46,-1255 596.46,4 -4,4"/>
<!-- GOXXX1 -->
<g id="node1" class="node">
<title>GOXXX1</title>
<ellipse fill="none" stroke="black" cx="48.1" cy="-450" rx="48.19" ry="18"/>
<text text-anchor="middle" x="48.1" y="-446.3" font-family="Times New Roman,serif" font-size="14.00">GOXXX1</text>
</g>
<!-- GXXOX2 -->
<g id="node2" class="node">
<title>GXXOX2</title>
<ellipse fill="none" stroke="black" cx="180.94" cy="-1179" rx="48.19" ry="18"/>
<text text-anchor="middle" x="180.94" y="-1175.3" font-family="Times New Roman,serif" font-size="14.00">GXXOX2</text>
</g>
<!-- GOXXX1&#45;&gt;GXXOX2 -->
<g id="edge1" class="edge">
<title>GOXXX1&#45;&gt;GXXOX2</title>
<path fill="none" stroke="black" d="M49.24,-468.15C50.32,-544.84 59.24,-849.2 132.19,-1085 139.64,-1109.08 152.9,-1134.46 163.55,-1152.77"/>
<polygon fill="black" stroke="black" points="160.57,-1154.6 168.69,-1161.4 166.58,-1151.02 160.57,-1154.6"/>
</g>
<!-- GGOOX2 -->
<g id="node5" class="node">
<title>GGOOX2</title>
<ellipse fill="none" stroke="black" cx="180.94" cy="-1058" rx="48.99" ry="18"/>
<text text-anchor="middle" x="180.94" y="-1054.3" font-family="Times New Roman,serif" font-size="14.00">GGOOX2</text>
</g>
<!-- GOXXX1&#45;&gt;GGOOX2 -->
<g id="edge4" class="edge">
<title>GOXXX1&#45;&gt;GGOOX2</title>
<path fill="none" stroke="black" d="M50.04,-468.19C53.95,-535.44 71.6,-775.88 132.19,-963 140.07,-987.34 153.41,-1013.17 163.99,-1031.74"/>
<polygon fill="black" stroke="black" points="161.03,-1033.6 169.08,-1040.49 167.08,-1030.08 161.03,-1033.6"/>
</g>
<!-- GOXOX2 -->
<g id="node7" class="node">
<title>GOXOX2</title>
<ellipse fill="none" stroke="black" cx="180.94" cy="-936" rx="48.19" ry="18"/>
<text text-anchor="middle" x="180.94" y="-932.3" font-family="Times New Roman,serif" font-size="14.00">GOXOX2</text>
</g>
<!-- GOXXX1&#45;&gt;GOXOX2 -->
<g id="edge6" class="edge">
<title>GOXXX1&#45;&gt;GOXOX2</title>
<path fill="none" stroke="black" d="M53.91,-467.87C73.64,-541.18 148.47,-819.11 172.48,-908.28"/>
<polygon fill="black" stroke="black" points="169.1,-909.22 175.08,-917.96 175.86,-907.4 169.1,-909.22"/>
</g>
<!-- GOXGX2 -->
<g id="node10" class="node">
<title>GOXGX2</title>
<ellipse fill="none" stroke="black" cx="180.94" cy="-639" rx="48.19" ry="18"/>
<text text-anchor="middle" x="180.94" y="-635.3" font-family="Times New Roman,serif" font-size="14.00">GOXGX2</text>
</g>
<!-- GOXXX1&#45;&gt;GOXGX2 -->
<g id="edge9" class="edge">
<title>GOXXX1&#45;&gt;GOXGX2</title>
<path fill="none" stroke="black" d="M61.17,-467.44C84.34,-500.92 135.15,-574.3 162.19,-613.36"/>
<polygon fill="black" stroke="black" points="159.32,-615.37 167.89,-621.6 165.08,-611.39 159.32,-615.37"/>
</g>
<!-- sadly -->
<g id="node19" class="node">
<title>sadly</title>
<ellipse fill="none" stroke="black" cx="180.94" cy="-504" rx="29.8" ry="18"/>
<text text-anchor="middle" x="180.94" y="-500.3" font-family="Times New Roman,serif" font-size="14.00">sadly</text>
</g>
<!-- GOXXX1&#45;&gt;sadly -->
<g id="edge18" class="edge">
<title>GOXXX1&#45;&gt;sadly</title>
<path fill="none" stroke="black" d="M81.1,-463.21C100.87,-471.37 126.2,-481.82 146.26,-490.1"/>
<polygon fill="black" stroke="black" points="145.06,-493.39 155.64,-493.97 147.73,-486.92 145.06,-493.39"/>
</g>
<!-- GGXOX2 -->
<g id="node23" class="node">
<title>GGXOX2</title>
<ellipse fill="none" stroke="black" cx="180.94" cy="-369" rx="48.19" ry="18"/>
<text text-anchor="middle" x="180.94" y="-365.3" font-family="Times New Roman,serif" font-size="14.00">GGXOX2</text>
</g>
<!-- GOXXX1&#45;&gt;GGXOX2 -->
<g id="edge22" class="edge">
<title>GOXXX1&#45;&gt;GGXOX2</title>
<path fill="none" stroke="black" d="M74.01,-434.57C94.57,-421.85 123.91,-403.68 146.51,-389.7"/>
<polygon fill="black" stroke="black" points="148.45,-392.61 155.11,-384.37 144.77,-386.66 148.45,-392.61"/>
</g>
<!-- GXXGX2 -->
<g id="node26" class="node">
<title>GXXGX2</title>
<ellipse fill="none" stroke="black" cx="180.94" cy="-234" rx="48.19" ry="18"/>
<text text-anchor="middle" x="180.94" y="-230.3" font-family="Times New Roman,serif" font-size="14.00">GXXGX2</text>
</g>
<!-- GOXXX1&#45;&gt;GXXGX2 -->
<g id="edge25" class="edge">
<title>GOXXX1&#45;&gt;GXXGX2</title>
<path fill="none" stroke="black" d="M59.8,-432.32C82.77,-394.42 136.85,-305.13 163.92,-260.44"/>
<polygon fill="black" stroke="black" points="167.08,-261.98 169.27,-251.62 161.09,-258.36 167.08,-261.98"/>
</g>
<!-- GXXGG2 -->
<g id="node30" class="node">
<title>GXXGG2</title>
<ellipse fill="none" stroke="black" cx="180.94" cy="-450" rx="48.19" ry="18"/>
<text text-anchor="middle" x="180.94" y="-446.3" font-family="Times New Roman,serif" font-size="14.00">GXXGG2</text>
</g>
<!-- GOXXX1&#45;&gt;GXXGG2 -->
<g id="edge29" class="edge">
<title>GOXXX1&#45;&gt;GXXGG2</title>
<path fill="none" stroke="black" d="M96.33,-450C104.86,-450 113.83,-450 122.6,-450"/>
<polygon fill="black" stroke="black" points="122.77,-453.5 132.77,-450 122.77,-446.5 122.77,-453.5"/>
</g>
<!-- GXXOG2 -->
<g id="node33" class="node">
<title>GXXOG2</title>
<ellipse fill="none" stroke="black" cx="180.94" cy="-173" rx="48.19" ry="18"/>
<text text-anchor="middle" x="180.94" y="-169.3" font-family="Times New Roman,serif" font-size="14.00">GXXOG2</text>
</g>
<!-- GOXXX1&#45;&gt;GXXOG2 -->
<g id="edge32" class="edge">
<title>GOXXX1&#45;&gt;GXXOG2</title>
<path fill="none" stroke="black" d="M51.44,-431.76C57.74,-388.76 78.35,-279.2 132.19,-207 135.78,-202.19 140.24,-197.8 144.99,-193.88"/>
<polygon fill="black" stroke="black" points="147.26,-196.55 153.15,-187.74 143.05,-190.96 147.26,-196.55"/>
</g>
<!-- GGXGG2 -->
<g id="node37" class="node">
<title>GGXGG2</title>
<ellipse fill="none" stroke="black" cx="180.94" cy="-92" rx="48.99" ry="18"/>
<text text-anchor="middle" x="180.94" y="-88.3" font-family="Times New Roman,serif" font-size="14.00">GGXGG2</text>
</g>
<!-- GOXXX1&#45;&gt;GGXGG2 -->
<g id="edge36" class="edge">
<title>GOXXX1&#45;&gt;GGXGG2</title>
<path fill="none" stroke="black" d="M51.15,-431.8C57.25,-382.91 78.35,-245.64 132.19,-146 137.99,-135.27 146.29,-124.89 154.35,-116.14"/>
<polygon fill="black" stroke="black" points="156.9,-118.54 161.3,-108.9 151.85,-113.69 156.9,-118.54"/>
</g>
<!-- GGXOG2 -->
<g id="node39" class="node">
<title>GGXOG2</title>
<ellipse fill="none" stroke="black" cx="180.94" cy="-25" rx="48.99" ry="18"/>
<text text-anchor="middle" x="180.94" y="-21.3" font-family="Times New Roman,serif" font-size="14.00">GGXOG2</text>
</g>
<!-- GOXXX1&#45;&gt;GGXOG2 -->
<g id="edge38" class="edge">
<title>GOXXX1&#45;&gt;GGXOG2</title>
<path fill="none" stroke="black" d="M48.97,-431.62C49.38,-373.42 56.93,-189.7 132.19,-65 136.19,-58.38 141.67,-52.34 147.51,-47.07"/>
<polygon fill="black" stroke="black" points="150.11,-49.45 155.57,-40.38 145.64,-44.07 150.11,-49.45"/>
</g>
<!-- GXGGG3 -->
<g id="node3" class="node">
<title>GXGGG3</title>
<ellipse fill="none" stroke="black" cx="315.08" cy="-1179" rx="48.99" ry="18"/>
<text text-anchor="middle" x="315.08" y="-1175.3" font-family="Times New Roman,serif" font-size="14.00">GXGGG3</text>
</g>
<!-- GXXOX2&#45;&gt;GXGGG3 -->
<g id="edge2" class="edge">
<title>GXXOX2&#45;&gt;GXGGG3</title>
<path fill="none" stroke="black" d="M229.27,-1179C237.99,-1179 247.18,-1179 256.16,-1179"/>
<polygon fill="black" stroke="black" points="256.19,-1182.5 266.19,-1179 256.19,-1175.5 256.19,-1182.5"/>
</g>
<!-- spool -->
<g id="node43" class="node">
<title>spool</title>
<ellipse fill="none" stroke="black" cx="315.08" cy="-1233" rx="31.4" ry="18"/>
<text text-anchor="middle" x="315.08" y="-1229.3" font-family="Times New Roman,serif" font-size="14.00">spool</text>
</g>
<!-- GXXOX2&#45;&gt;spool -->
<g id="edge42" class="edge">
<title>GXXOX2&#45;&gt;spool</title>
<path fill="none" stroke="black" d="M214.26,-1192.21C234.09,-1200.31 259.47,-1210.68 279.67,-1218.94"/>
<polygon fill="black" stroke="black" points="278.54,-1222.26 289.12,-1222.8 281.19,-1215.78 278.54,-1222.26"/>
</g>
<!-- stool -->
<g id="node4" class="node">
<title>stool</title>
<ellipse fill="none" stroke="black" cx="449.87" cy="-1179" rx="28.7" ry="18"/>
<text text-anchor="middle" x="449.87" y="-1175.3" font-family="Times New Roman,serif" font-size="14.00">stool</text>
</g>
<!-- GXGGG3&#45;&gt;stool -->
<g id="edge3" class="edge">
<title>GXGGG3&#45;&gt;stool</title>
<path fill="none" stroke="black" d="M364.02,-1179C379.44,-1179 396.31,-1179 410.91,-1179"/>
<polygon fill="black" stroke="black" points="411.09,-1182.5 421.09,-1179 411.09,-1175.5 411.09,-1182.5"/>
</g>
<!-- salad -->
<g id="node6" class="node">
<title>salad</title>
<ellipse fill="none" stroke="black" cx="315.08" cy="-1125" rx="29.5" ry="18"/>
<text text-anchor="middle" x="315.08" y="-1121.3" font-family="Times New Roman,serif" font-size="14.00">salad</text>
</g>
<!-- GGOOX2&#45;&gt;salad -->
<g id="edge5" class="edge">
<title>GGOOX2&#45;&gt;salad</title>
<path fill="none" stroke="black" d="M210.28,-1072.37C231.65,-1083.21 260.93,-1098.05 282.95,-1109.22"/>
<polygon fill="black" stroke="black" points="281.39,-1112.35 291.89,-1113.75 284.56,-1106.11 281.39,-1112.35"/>
</g>
<!-- GXOGO3 -->
<g id="node8" class="node">
<title>GXOGO3</title>
<ellipse fill="none" stroke="black" cx="315.08" cy="-1017" rx="48.99" ry="18"/>
<text text-anchor="middle" x="315.08" y="-1013.3" font-family="Times New Roman,serif" font-size="14.00">GXOGO3</text>
</g>
<!-- GOXOX2&#45;&gt;GXOGO3 -->
<g id="edge7" class="edge">
<title>GOXOX2&#45;&gt;GXOGO3</title>
<path fill="none" stroke="black" d="M205.51,-951.77C222.15,-962.76 245.07,-977.62 265.68,-990 269.59,-992.35 273.71,-994.75 277.84,-997.11"/>
<polygon fill="black" stroke="black" points="276.34,-1000.29 286.77,-1002.17 279.79,-994.2 276.34,-1000.29"/>
</g>
<!-- GGXOG3 -->
<g id="node13" class="node">
<title>GGXOG3</title>
<ellipse fill="none" stroke="black" cx="315.08" cy="-963" rx="48.99" ry="18"/>
<text text-anchor="middle" x="315.08" y="-959.3" font-family="Times New Roman,serif" font-size="14.00">GGXOG3</text>
</g>
<!-- GOXOX2&#45;&gt;GGXOG3 -->
<g id="edge12" class="edge">
<title>GOXOX2&#45;&gt;GGXOG3</title>
<path fill="none" stroke="black" d="M223.38,-944.47C235.57,-946.96 249.06,-949.71 261.82,-952.32"/>
<polygon fill="black" stroke="black" points="261.37,-955.8 271.87,-954.38 262.77,-948.94 261.37,-955.8"/>
</g>
<!-- GXXOG3 -->
<g id="node17" class="node">
<title>GXXOG3</title>
<ellipse fill="none" stroke="black" cx="315.08" cy="-909" rx="48.19" ry="18"/>
<text text-anchor="middle" x="315.08" y="-905.3" font-family="Times New Roman,serif" font-size="14.00">GXXOG3</text>
</g>
<!-- GOXOX2&#45;&gt;GXXOG3 -->
<g id="edge16" class="edge">
<title>GOXOX2&#45;&gt;GXXOG3</title>
<path fill="none" stroke="black" d="M223.38,-927.53C235.69,-925.02 249.32,-922.23 262.2,-919.6"/>
<polygon fill="black" stroke="black" points="263.23,-922.96 272.32,-917.53 261.83,-916.1 263.23,-922.96"/>
</g>
<!-- GXXGO3 -->
<g id="node20" class="node">
<title>GXXGO3</title>
<ellipse fill="none" stroke="black" cx="315.08" cy="-855" rx="48.19" ry="18"/>
<text text-anchor="middle" x="315.08" y="-851.3" font-family="Times New Roman,serif" font-size="14.00">GXXGO3</text>
</g>
<!-- GOXOX2&#45;&gt;GXXGO3 -->
<g id="edge19" class="edge">
<title>GOXOX2&#45;&gt;GXXGO3</title>
<path fill="none" stroke="black" d="M205.51,-920.23C222.15,-909.24 245.07,-894.38 265.68,-882 269.64,-879.62 273.82,-877.19 277.99,-874.8"/>
<polygon fill="black" stroke="black" points="280.04,-877.66 287.03,-869.69 276.6,-871.57 280.04,-877.66"/>
</g>
<!-- shoal -->
<g id="node22" class="node">
<title>shoal</title>
<ellipse fill="none" stroke="black" cx="315.08" cy="-1071" rx="29.8" ry="18"/>
<text text-anchor="middle" x="315.08" y="-1067.3" font-family="Times New Roman,serif" font-size="14.00">shoal</text>
</g>
<!-- GOXOX2&#45;&gt;shoal -->
<g id="edge21" class="edge">
<title>GOXOX2&#45;&gt;shoal</title>
<path fill="none" stroke="black" d="M192.57,-953.86C206.94,-976.87 234.38,-1017.09 265.68,-1044 270.57,-1048.2 276.21,-1052.05 281.87,-1055.44"/>
<polygon fill="black" stroke="black" points="280.25,-1058.55 290.69,-1060.39 283.68,-1052.44 280.25,-1058.55"/>
</g>
<!-- solar -->
<g id="node9" class="node">
<title>solar</title>
<ellipse fill="none" stroke="black" cx="449.87" cy="-1017" rx="28.7" ry="18"/>
<text text-anchor="middle" x="449.87" y="-1013.3" font-family="Times New Roman,serif" font-size="14.00">solar</text>
</g>
<!-- GXOGO3&#45;&gt;solar -->
<g id="edge8" class="edge">
<title>GXOGO3&#45;&gt;solar</title>
<path fill="none" stroke="black" d="M364.02,-1017C379.44,-1017 396.31,-1017 410.91,-1017"/>
<polygon fill="black" stroke="black" points="411.09,-1020.5 421.09,-1017 411.09,-1013.5 411.09,-1020.5"/>
</g>
<!-- XGXXX3 -->
<g id="node11" class="node">
<title>XGXXX3</title>
<ellipse fill="none" stroke="black" cx="315.08" cy="-531" rx="47.39" ry="18"/>
<text text-anchor="middle" x="315.08" y="-527.3" font-family="Times New Roman,serif" font-size="14.00">XGXXX3</text>
</g>
<!-- GOXGX2&#45;&gt;XGXXX3 -->
<g id="edge10" class="edge">
<title>GOXGX2&#45;&gt;XGXXX3</title>
<path fill="none" stroke="black" d="M202.01,-622.6C224.55,-604.17 261.27,-574.16 286.5,-553.54"/>
<polygon fill="black" stroke="black" points="288.73,-556.24 294.25,-547.2 284.3,-550.82 288.73,-556.24"/>
</g>
<!-- OXXXX3 -->
<g id="node15" class="node">
<title>OXXXX3</title>
<ellipse fill="none" stroke="black" cx="315.08" cy="-747" rx="47.39" ry="18"/>
<text text-anchor="middle" x="315.08" y="-743.3" font-family="Times New Roman,serif" font-size="14.00">OXXXX3</text>
</g>
<!-- GOXGX2&#45;&gt;OXXXX3 -->
<g id="edge14" class="edge">
<title>GOXGX2&#45;&gt;OXXXX3</title>
<path fill="none" stroke="black" d="M197.17,-656.16C213.16,-673.55 239.54,-700.58 265.68,-720 269.26,-722.65 273.12,-725.23 277.05,-727.67"/>
<polygon fill="black" stroke="black" points="275.28,-730.69 285.67,-732.77 278.84,-724.67 275.28,-730.69"/>
</g>
<!-- OGXXX3 -->
<g id="node28" class="node">
<title>OGXXX3</title>
<ellipse fill="none" stroke="black" cx="315.08" cy="-693" rx="48.19" ry="18"/>
<text text-anchor="middle" x="315.08" y="-689.3" font-family="Times New Roman,serif" font-size="14.00">OGXXX3</text>
</g>
<!-- GOXGX2&#45;&gt;OGXXX3 -->
<g id="edge27" class="edge">
<title>GOXGX2&#45;&gt;OGXXX3</title>
<path fill="none" stroke="black" d="M214.26,-652.21C231.7,-659.34 253.42,-668.21 272.15,-675.87"/>
<polygon fill="black" stroke="black" points="271.05,-679.2 281.63,-679.74 273.7,-672.72 271.05,-679.2"/>
</g>
<!-- XXXOX3 -->
<g id="node46" class="node">
<title>XXXOX3</title>
<ellipse fill="none" stroke="black" cx="315.08" cy="-639" rx="47.39" ry="18"/>
<text text-anchor="middle" x="315.08" y="-635.3" font-family="Times New Roman,serif" font-size="14.00">XXXOX3</text>
</g>
<!-- GOXGX2&#45;&gt;XXXOX3 -->
<g id="edge46" class="edge">
<title>GOXGX2&#45;&gt;XXXOX3</title>
<path fill="none" stroke="black" d="M229.27,-639C238.41,-639 248.06,-639 257.46,-639"/>
<polygon fill="black" stroke="black" points="257.52,-642.5 267.52,-639 257.52,-635.5 257.52,-642.5"/>
</g>
<!-- shall -->
<g id="node12" class="node">
<title>shall</title>
<ellipse fill="none" stroke="black" cx="449.87" cy="-477" rx="27" ry="18"/>
<text text-anchor="middle" x="449.87" y="-473.3" font-family="Times New Roman,serif" font-size="14.00">shall</text>
</g>
<!-- XGXXX3&#45;&gt;shall -->
<g id="edge11" class="edge">
<title>XGXXX3&#45;&gt;shall</title>
<path fill="none" stroke="black" d="M348.22,-517.93C369.03,-509.47 396.02,-498.49 416.81,-490.04"/>
<polygon fill="black" stroke="black" points="418.22,-493.24 426.17,-486.23 415.59,-486.76 418.22,-493.24"/>
</g>
<!-- GGOGG4 -->
<g id="node44" class="node">
<title>GGOGG4</title>
<ellipse fill="none" stroke="black" cx="449.87" cy="-585" rx="49.29" ry="18"/>
<text text-anchor="middle" x="449.87" y="-581.3" font-family="Times New Roman,serif" font-size="14.00">GGOGG4</text>
</g>
<!-- XGXXX3&#45;&gt;GGOGG4 -->
<g id="edge44" class="edge">
<title>XGXXX3&#45;&gt;GGOGG4</title>
<path fill="none" stroke="black" d="M348.22,-544.07C365.82,-551.23 387.84,-560.18 406.79,-567.89"/>
<polygon fill="black" stroke="black" points="405.52,-571.15 416.1,-571.67 408.15,-564.66 405.52,-571.15"/>
</g>
<!-- sully -->
<g id="node52" class="node">
<title>sully</title>
<ellipse fill="none" stroke="black" cx="449.87" cy="-531" rx="27.1" ry="18"/>
<text text-anchor="middle" x="449.87" y="-527.3" font-family="Times New Roman,serif" font-size="14.00">sully</text>
</g>
<!-- XGXXX3&#45;&gt;sully -->
<g id="edge52" class="edge">
<title>XGXXX3&#45;&gt;sully</title>
<path fill="none" stroke="black" d="M362.9,-531C379.16,-531 397.14,-531 412.43,-531"/>
<polygon fill="black" stroke="black" points="412.54,-534.5 422.54,-531 412.54,-527.5 412.54,-534.5"/>
</g>
<!-- shawl -->
<g id="node14" class="node">
<title>shawl</title>
<ellipse fill="none" stroke="black" cx="449.87" cy="-963" rx="31.4" ry="18"/>
<text text-anchor="middle" x="449.87" y="-959.3" font-family="Times New Roman,serif" font-size="14.00">shawl</text>
</g>
<!-- GGXOG3&#45;&gt;shawl -->
<g id="edge13" class="edge">
<title>GGXOG3&#45;&gt;shawl</title>
<path fill="none" stroke="black" d="M364.02,-963C378.46,-963 394.17,-963 408.11,-963"/>
<polygon fill="black" stroke="black" points="408.36,-966.5 418.36,-963 408.36,-959.5 408.36,-966.5"/>
</g>
<!-- stalk -->
<g id="node16" class="node">
<title>stalk</title>
<ellipse fill="none" stroke="black" cx="449.87" cy="-747" rx="27.1" ry="18"/>
<text text-anchor="middle" x="449.87" y="-743.3" font-family="Times New Roman,serif" font-size="14.00">stalk</text>
</g>
<!-- OXXXX3&#45;&gt;stalk -->
<g id="edge15" class="edge">
<title>OXXXX3&#45;&gt;stalk</title>
<path fill="none" stroke="black" d="M362.9,-747C379.16,-747 397.14,-747 412.43,-747"/>
<polygon fill="black" stroke="black" points="412.54,-750.5 422.54,-747 412.54,-743.5 412.54,-750.5"/>
</g>
<!-- GGGGX4 -->
<g id="node48" class="node">
<title>GGGGX4</title>
<ellipse fill="none" stroke="black" cx="449.87" cy="-801" rx="48.99" ry="18"/>
<text text-anchor="middle" x="449.87" y="-797.3" font-family="Times New Roman,serif" font-size="14.00">GGGGX4</text>
</g>
<!-- OXXXX3&#45;&gt;GGGGX4 -->
<g id="edge48" class="edge">
<title>OXXXX3&#45;&gt;GGGGX4</title>
<path fill="none" stroke="black" d="M348.22,-760.07C365.82,-767.23 387.84,-776.18 406.79,-783.89"/>
<polygon fill="black" stroke="black" points="405.52,-787.15 416.1,-787.67 408.15,-780.66 405.52,-787.15"/>
</g>
<!-- snarl -->
<g id="node18" class="node">
<title>snarl</title>
<ellipse fill="none" stroke="black" cx="449.87" cy="-909" rx="27.9" ry="18"/>
<text text-anchor="middle" x="449.87" y="-905.3" font-family="Times New Roman,serif" font-size="14.00">snarl</text>
</g>
<!-- GXXOG3&#45;&gt;snarl -->
<g id="edge17" class="edge">
<title>GXXOG3&#45;&gt;snarl</title>
<path fill="none" stroke="black" d="M363.27,-909C378.99,-909 396.27,-909 411.17,-909"/>
<polygon fill="black" stroke="black" points="411.54,-912.5 421.54,-909 411.54,-905.5 411.54,-912.5"/>
</g>
<!-- splat -->
<g id="node21" class="node">
<title>splat</title>
<ellipse fill="none" stroke="black" cx="449.87" cy="-855" rx="27.9" ry="18"/>
<text text-anchor="middle" x="449.87" y="-851.3" font-family="Times New Roman,serif" font-size="14.00">splat</text>
</g>
<!-- GXXGO3&#45;&gt;splat -->
<g id="edge20" class="edge">
<title>GXXGO3&#45;&gt;splat</title>
<path fill="none" stroke="black" d="M363.27,-855C378.99,-855 396.27,-855 411.17,-855"/>
<polygon fill="black" stroke="black" points="411.54,-858.5 421.54,-855 411.54,-851.5 411.54,-858.5"/>
</g>
<!-- GOGXX3 -->
<g id="node24" class="node">
<title>GOGXX3</title>
<ellipse fill="none" stroke="black" cx="315.08" cy="-288" rx="48.19" ry="18"/>
<text text-anchor="middle" x="315.08" y="-284.3" font-family="Times New Roman,serif" font-size="14.00">GOGXX3</text>
</g>
<!-- GGXOX2&#45;&gt;GOGXX3 -->
<g id="edge23" class="edge">
<title>GGXOX2&#45;&gt;GOGXX3</title>
<path fill="none" stroke="black" d="M205.51,-353.23C222.15,-342.24 245.07,-327.38 265.68,-315 269.64,-312.62 273.82,-310.19 277.99,-307.8"/>
<polygon fill="black" stroke="black" points="280.04,-310.66 287.03,-302.69 276.6,-304.57 280.04,-310.66"/>
</g>
<!-- GXGXX3 -->
<g id="node41" class="node">
<title>GXGXX3</title>
<ellipse fill="none" stroke="black" cx="315.08" cy="-396" rx="48.19" ry="18"/>
<text text-anchor="middle" x="315.08" y="-392.3" font-family="Times New Roman,serif" font-size="14.00">GXGXX3</text>
</g>
<!-- GGXOX2&#45;&gt;GXGXX3 -->
<g id="edge40" class="edge">
<title>GGXOX2&#45;&gt;GXGXX3</title>
<path fill="none" stroke="black" d="M223.38,-377.47C235.69,-379.98 249.32,-382.77 262.2,-385.4"/>
<polygon fill="black" stroke="black" points="261.83,-388.9 272.32,-387.47 263.23,-382.04 261.83,-388.9"/>
</g>
<!-- GOGGX3 -->
<g id="node50" class="node">
<title>GOGGX3</title>
<ellipse fill="none" stroke="black" cx="315.08" cy="-342" rx="48.99" ry="18"/>
<text text-anchor="middle" x="315.08" y="-338.3" font-family="Times New Roman,serif" font-size="14.00">GOGGX3</text>
</g>
<!-- GGXOX2&#45;&gt;GOGGX3 -->
<g id="edge50" class="edge">
<title>GGXOX2&#45;&gt;GOGGX3</title>
<path fill="none" stroke="black" d="M223.38,-360.53C235.57,-358.04 249.06,-355.29 261.82,-352.68"/>
<polygon fill="black" stroke="black" points="262.77,-356.06 271.87,-350.62 261.37,-349.2 262.77,-356.06"/>
</g>
<!-- salon -->
<g id="node25" class="node">
<title>salon</title>
<ellipse fill="none" stroke="black" cx="449.87" cy="-261" rx="29.8" ry="18"/>
<text text-anchor="middle" x="449.87" y="-257.3" font-family="Times New Roman,serif" font-size="14.00">salon</text>
</g>
<!-- GOGXX3&#45;&gt;salon -->
<g id="edge24" class="edge">
<title>GOGXX3&#45;&gt;salon</title>
<path fill="none" stroke="black" d="M357.73,-279.53C374.86,-276.05 394.56,-272.04 411.25,-268.65"/>
<polygon fill="black" stroke="black" points="412.1,-272.05 421.2,-266.63 410.71,-265.19 412.1,-272.05"/>
</g>
<!-- skulk -->
<g id="node27" class="node">
<title>skulk</title>
<ellipse fill="none" stroke="black" cx="315.08" cy="-180" rx="29.8" ry="18"/>
<text text-anchor="middle" x="315.08" y="-176.3" font-family="Times New Roman,serif" font-size="14.00">skulk</text>
</g>
<!-- GXXGX2&#45;&gt;skulk -->
<g id="edge26" class="edge">
<title>GXXGX2&#45;&gt;skulk</title>
<path fill="none" stroke="black" d="M214.26,-220.79C234.36,-212.58 260.14,-202.04 280.47,-193.74"/>
<polygon fill="black" stroke="black" points="282.03,-196.88 289.96,-189.86 279.38,-190.4 282.03,-196.88"/>
</g>
<!-- GGGGO3 -->
<g id="node35" class="node">
<title>GGGGO3</title>
<ellipse fill="none" stroke="black" cx="315.08" cy="-234" rx="49.29" ry="18"/>
<text text-anchor="middle" x="315.08" y="-230.3" font-family="Times New Roman,serif" font-size="14.00">GGGGO3</text>
</g>
<!-- GXXGX2&#45;&gt;GGGGO3 -->
<g id="edge34" class="edge">
<title>GXXGX2&#45;&gt;GGGGO3</title>
<path fill="none" stroke="black" d="M229.27,-234C237.68,-234 246.53,-234 255.21,-234"/>
<polygon fill="black" stroke="black" points="255.29,-237.5 265.29,-234 255.29,-230.5 255.29,-237.5"/>
</g>
<!-- shalt -->
<g id="node29" class="node">
<title>shalt</title>
<ellipse fill="none" stroke="black" cx="449.87" cy="-693" rx="27.1" ry="18"/>
<text text-anchor="middle" x="449.87" y="-689.3" font-family="Times New Roman,serif" font-size="14.00">shalt</text>
</g>
<!-- OGXXX3&#45;&gt;shalt -->
<g id="edge28" class="edge">
<title>OGXXX3&#45;&gt;shalt</title>
<path fill="none" stroke="black" d="M363.27,-693C379.38,-693 397.14,-693 412.29,-693"/>
<polygon fill="black" stroke="black" points="412.31,-696.5 422.31,-693 412.31,-689.5 412.31,-696.5"/>
</g>
<!-- GXXGG2&#45;&gt;XGXXX3 -->
<g id="edge43" class="edge">
<title>GXXGG2&#45;&gt;XGXXX3</title>
<path fill="none" stroke="black" d="M208.85,-464.88C215.69,-468.75 222.99,-472.97 229.68,-477 247.12,-487.5 266.26,-499.69 281.89,-509.82"/>
<polygon fill="black" stroke="black" points="280.36,-513 290.65,-515.52 284.18,-507.13 280.36,-513"/>
</g>
<!-- OXXXO3 -->
<g id="node31" class="node">
<title>OXXXO3</title>
<ellipse fill="none" stroke="black" cx="315.08" cy="-450" rx="48.19" ry="18"/>
<text text-anchor="middle" x="315.08" y="-446.3" font-family="Times New Roman,serif" font-size="14.00">OXXXO3</text>
</g>
<!-- GXXGG2&#45;&gt;OXXXO3 -->
<g id="edge30" class="edge">
<title>GXXGG2&#45;&gt;OXXXO3</title>
<path fill="none" stroke="black" d="M229.27,-450C238.09,-450 247.4,-450 256.5,-450"/>
<polygon fill="black" stroke="black" points="256.63,-453.5 266.63,-450 256.63,-446.5 256.63,-453.5"/>
</g>
<!-- shyly -->
<g id="node32" class="node">
<title>shyly</title>
<ellipse fill="none" stroke="black" cx="449.87" cy="-423" rx="29.8" ry="18"/>
<text text-anchor="middle" x="449.87" y="-419.3" font-family="Times New Roman,serif" font-size="14.00">shyly</text>
</g>
<!-- OXXXO3&#45;&gt;shyly -->
<g id="edge31" class="edge">
<title>OXXXO3&#45;&gt;shyly</title>
<path fill="none" stroke="black" d="M357.73,-441.53C374.86,-438.05 394.56,-434.04 411.25,-430.65"/>
<polygon fill="black" stroke="black" points="412.1,-434.05 421.2,-428.63 410.71,-427.19 412.1,-434.05"/>
</g>
<!-- sulky -->
<g id="node34" class="node">
<title>sulky</title>
<ellipse fill="none" stroke="black" cx="315.08" cy="-126" rx="29.8" ry="18"/>
<text text-anchor="middle" x="315.08" y="-122.3" font-family="Times New Roman,serif" font-size="14.00">sulky</text>
</g>
<!-- GXXOG2&#45;&gt;sulky -->
<g id="edge33" class="edge">
<title>GXXOG2&#45;&gt;sulky</title>
<path fill="none" stroke="black" d="M216.31,-160.77C235.81,-153.84 260.12,-145.19 279.63,-138.25"/>
<polygon fill="black" stroke="black" points="280.81,-141.55 289.06,-134.9 278.47,-134.95 280.81,-141.55"/>
</g>
<!-- skull -->
<g id="node36" class="node">
<title>skull</title>
<ellipse fill="none" stroke="black" cx="449.87" cy="-207" rx="27.1" ry="18"/>
<text text-anchor="middle" x="449.87" y="-203.3" font-family="Times New Roman,serif" font-size="14.00">skull</text>
</g>
<!-- GGGGO3&#45;&gt;skull -->
<g id="edge35" class="edge">
<title>GGGGO3&#45;&gt;skull</title>
<path fill="none" stroke="black" d="M358.46,-225.38C376.19,-221.78 396.55,-217.64 413.46,-214.2"/>
<polygon fill="black" stroke="black" points="414.38,-217.58 423.49,-212.16 412.99,-210.72 414.38,-217.58"/>
</g>
<!-- sally -->
<g id="node38" class="node">
<title>sally</title>
<ellipse fill="none" stroke="black" cx="315.08" cy="-72" rx="27" ry="18"/>
<text text-anchor="middle" x="315.08" y="-68.3" font-family="Times New Roman,serif" font-size="14.00">sally</text>
</g>
<!-- GGXGG2&#45;&gt;sally -->
<g id="edge37" class="edge">
<title>GGXGG2&#45;&gt;sally</title>
<path fill="none" stroke="black" d="M226.31,-85.28C243.28,-82.72 262.41,-79.82 278.46,-77.39"/>
<polygon fill="black" stroke="black" points="279.15,-80.83 288.51,-75.87 278.1,-73.91 279.15,-80.83"/>
</g>
<!-- salty -->
<g id="node40" class="node">
<title>salty</title>
<ellipse fill="none" stroke="black" cx="315.08" cy="-18" rx="27.1" ry="18"/>
<text text-anchor="middle" x="315.08" y="-14.3" font-family="Times New Roman,serif" font-size="14.00">salty</text>
</g>
<!-- GGXOG2&#45;&gt;salty -->
<g id="edge39" class="edge">
<title>GGXOG2&#45;&gt;salty</title>
<path fill="none" stroke="black" d="M229.27,-22.49C245.12,-21.65 262.54,-20.73 277.45,-19.94"/>
<polygon fill="black" stroke="black" points="278,-23.42 287.8,-19.39 277.63,-16.43 278,-23.42"/>
</g>
<!-- salsa -->
<g id="node42" class="node">
<title>salsa</title>
<ellipse fill="none" stroke="black" cx="449.87" cy="-369" rx="28.7" ry="18"/>
<text text-anchor="middle" x="449.87" y="-365.3" font-family="Times New Roman,serif" font-size="14.00">salsa</text>
</g>
<!-- GXGXX3&#45;&gt;salsa -->
<g id="edge41" class="edge">
<title>GXGXX3&#45;&gt;salsa</title>
<path fill="none" stroke="black" d="M357.73,-387.53C375.24,-383.97 395.43,-379.87 412.35,-376.43"/>
<polygon fill="black" stroke="black" points="413.31,-379.8 422.41,-374.38 411.91,-372.94 413.31,-379.8"/>
</g>
<!-- surly -->
<g id="node45" class="node">
<title>surly</title>
<ellipse fill="none" stroke="black" cx="563.86" cy="-585" rx="28.7" ry="18"/>
<text text-anchor="middle" x="563.86" y="-581.3" font-family="Times New Roman,serif" font-size="14.00">surly</text>
</g>
<!-- GGOGG4&#45;&gt;surly -->
<g id="edge45" class="edge">
<title>GGOGG4&#45;&gt;surly</title>
<path fill="none" stroke="black" d="M499.34,-585C507.9,-585 516.7,-585 524.92,-585"/>
<polygon fill="black" stroke="black" points="524.96,-588.5 534.96,-585 524.96,-581.5 524.96,-588.5"/>
</g>
<!-- small -->
<g id="node47" class="node">
<title>small</title>
<ellipse fill="none" stroke="black" cx="449.87" cy="-639" rx="29.5" ry="18"/>
<text text-anchor="middle" x="449.87" y="-635.3" font-family="Times New Roman,serif" font-size="14.00">small</text>
</g>
<!-- XXXOX3&#45;&gt;small -->
<g id="edge47" class="edge">
<title>XXXOX3&#45;&gt;small</title>
<path fill="none" stroke="black" d="M362.9,-639C378.4,-639 395.46,-639 410.28,-639"/>
<polygon fill="black" stroke="black" points="410.61,-642.5 420.61,-639 410.61,-635.5 410.61,-642.5"/>
</g>
<!-- stall -->
<g id="node49" class="node">
<title>stall</title>
<ellipse fill="none" stroke="black" cx="563.86" cy="-801" rx="27" ry="18"/>
<text text-anchor="middle" x="563.86" y="-797.3" font-family="Times New Roman,serif" font-size="14.00">stall</text>
</g>
<!-- GGGGX4&#45;&gt;stall -->
<g id="edge49" class="edge">
<title>GGGGX4&#45;&gt;stall</title>
<path fill="none" stroke="black" d="M498.69,-801C508.09,-801 517.81,-801 526.74,-801"/>
<polygon fill="black" stroke="black" points="526.82,-804.5 536.82,-801 526.82,-797.5 526.82,-804.5"/>
</g>
<!-- salvo -->
<g id="node51" class="node">
<title>salvo</title>
<ellipse fill="none" stroke="black" cx="449.87" cy="-315" rx="29.8" ry="18"/>
<text text-anchor="middle" x="449.87" y="-311.3" font-family="Times New Roman,serif" font-size="14.00">salvo</text>
</g>
<!-- GOGGX3&#45;&gt;salvo -->
<g id="edge51" class="edge">
<title>GOGGX3&#45;&gt;salvo</title>
<path fill="none" stroke="black" d="M358.09,-333.46C375.21,-329.98 394.84,-325.99 411.45,-322.61"/>
<polygon fill="black" stroke="black" points="412.25,-326.02 421.36,-320.59 410.86,-319.16 412.25,-326.02"/>
</g>
</g>
</svg>
