<?xml version="1.0" encoding="UTF-8" standalone="no"?>
<!DOCTYPE svg PUBLIC "-//W3C//DTD SVG 1.1//EN"
 "http://www.w3.org/Graphics/SVG/1.1/DTD/svg11.dtd">
<!-- Generated by graphviz version 2.50.0 (20211204.2007)
 -->
<!-- Pages: 1 -->
<svg width="332pt" height="152pt"
 viewBox="0.00 0.00 332.18 152.00" xmlns="http://www.w3.org/2000/svg" xmlns:xlink="http://www.w3.org/1999/xlink">
<g id="graph0" class="graph" transform="scale(1 1) rotate(0) translate(4 148)">
<polygon fill="white" stroke="transparent" points="-4,4 -4,-148 328.18,-148 328.18,4 -4,4"/>
<!-- OGXOX1 -->
<g id="node1" class="node">
<title>OGXOX1</title>
<ellipse fill="none" stroke="black" cx="48.1" cy="-72" rx="48.19" ry="18"/>
<text text-anchor="middle" x="48.1" y="-68.3" font-family="Times New Roman,serif" font-size="14.00">OGXOX1</text>
</g>
<!-- XXGGX2 -->
<g id="node2" class="node">
<title>XXGGX2</title>
<ellipse fill="none" stroke="black" cx="180.29" cy="-126" rx="48.19" ry="18"/>
<text text-anchor="middle" x="180.29" y="-122.3" font-family="Times New Roman,serif" font-size="14.00">XXGGX2</text>
</g>
<!-- OGXOX1&#45;&gt;XXGGX2 -->
<g id="edge1" class="edge">
<title>OGXOX1&#45;&gt;XXGGX2</title>
<path fill="none" stroke="black" d="M80.94,-85.21C98.12,-92.34 119.53,-101.21 137.98,-108.87"/>
<polygon fill="black" stroke="black" points="136.74,-112.14 147.32,-112.74 139.42,-105.68 136.74,-112.14"/>
</g>
<!-- OXGGX2 -->
<g id="node4" class="node">
<title>OXGGX2</title>
<ellipse fill="none" stroke="black" cx="180.29" cy="-72" rx="48.19" ry="18"/>
<text text-anchor="middle" x="180.29" y="-68.3" font-family="Times New Roman,serif" font-size="14.00">OXGGX2</text>
</g>
<!-- OGXOX1&#45;&gt;OXGGX2 -->
<g id="edge3" class="edge">
<title>OGXOX1&#45;&gt;OXGGX2</title>
<path fill="none" stroke="black" d="M96.47,-72C104.74,-72 113.42,-72 121.92,-72"/>
<polygon fill="black" stroke="black" points="122.17,-75.5 132.17,-72 122.17,-68.5 122.17,-75.5"/>
</g>
<!-- XOGGX2 -->
<g id="node6" class="node">
<title>XOGGX2</title>
<ellipse fill="none" stroke="black" cx="180.29" cy="-18" rx="48.19" ry="18"/>
<text text-anchor="middle" x="180.29" y="-14.3" font-family="Times New Roman,serif" font-size="14.00">XOGGX2</text>
</g>
<!-- OGXOX1&#45;&gt;XOGGX2 -->
<g id="edge5" class="edge">
<title>OGXOX1&#45;&gt;XOGGX2</title>
<path fill="none" stroke="black" d="M80.94,-58.79C98.12,-51.66 119.53,-42.79 137.98,-35.13"/>
<polygon fill="black" stroke="black" points="139.42,-38.32 147.32,-31.26 136.74,-31.86 139.42,-38.32"/>
</g>
<!-- class -->
<g id="node3" class="node">
<title>class</title>
<ellipse fill="none" stroke="black" cx="294.28" cy="-126" rx="28.7" ry="18"/>
<text text-anchor="middle" x="294.28" y="-122.3" font-family="Times New Roman,serif" font-size="14.00">class</text>
</g>
<!-- XXGGX2&#45;&gt;class -->
<g id="edge2" class="edge">
<title>XXGGX2&#45;&gt;class</title>
<path fill="none" stroke="black" d="M228.46,-126C237.47,-126 246.79,-126 255.46,-126"/>
<polygon fill="black" stroke="black" points="255.65,-129.5 265.65,-126 255.65,-122.5 255.65,-129.5"/>
</g>
<!-- clasp -->
<g id="node5" class="node">
<title>clasp</title>
<ellipse fill="none" stroke="black" cx="294.28" cy="-72" rx="29.8" ry="18"/>
<text text-anchor="middle" x="294.28" y="-68.3" font-family="Times New Roman,serif" font-size="14.00">clasp</text>
</g>
<!-- OXGGX2&#45;&gt;clasp -->
<g id="edge4" class="edge">
<title>OXGGX2&#45;&gt;clasp</title>
<path fill="none" stroke="black" d="M228.46,-72C237.03,-72 245.89,-72 254.2,-72"/>
<polygon fill="black" stroke="black" points="254.37,-75.5 264.37,-72 254.37,-68.5 254.37,-75.5"/>
</g>
<!-- clash -->
<g id="node7" class="node">
<title>clash</title>
<ellipse fill="none" stroke="black" cx="294.28" cy="-18" rx="29.5" ry="18"/>
<text text-anchor="middle" x="294.28" y="-14.3" font-family="Times New Roman,serif" font-size="14.00">clash</text>
</g>
<!-- XOGGX2&#45;&gt;clash -->
<g id="edge6" class="edge">
<title>XOGGX2&#45;&gt;clash</title>
<path fill="none" stroke="black" d="M228.46,-18C237.3,-18 246.44,-18 254.97,-18"/>
<polygon fill="black" stroke="black" points="255.01,-21.5 265.01,-18 255.01,-14.5 255.01,-21.5"/>
</g>
</g>
</svg>
