<?xml version="1.0" encoding="UTF-8" standalone="no"?>
<!DOCTYPE svg PUBLIC "-//W3C//DTD SVG 1.1//EN"
 "http://www.w3.org/Graphics/SVG/1.1/DTD/svg11.dtd">
<!-- Generated by graphviz version 2.50.0 (20211204.2007)
 -->
<!-- Pages: 1 -->
<svg width="600pt" height="584pt"
 viewBox="0.00 0.00 600.46 584.00" xmlns="http://www.w3.org/2000/svg" xmlns:xlink="http://www.w3.org/1999/xlink">
<g id="graph0" class="graph" transform="scale(1 1) rotate(0) translate(4 580)">
<polygon fill="white" stroke="transparent" points="-4,4 -4,-580 596.46,-580 596.46,4 -4,4"/>
<!-- GGXXX1 -->
<g id="node1" class="node">
<title>GGXXX1</title>
<ellipse fill="none" stroke="black" cx="48.1" cy="-234" rx="48.19" ry="18"/>
<text text-anchor="middle" x="48.1" y="-230.3" font-family="Times New Roman,serif" font-size="14.00">GGXXX1</text>
</g>
<!-- GGGOX2 -->
<g id="node2" class="node">
<title>GGGOX2</title>
<ellipse fill="none" stroke="black" cx="180.94" cy="-423" rx="48.99" ry="18"/>
<text text-anchor="middle" x="180.94" y="-419.3" font-family="Times New Roman,serif" font-size="14.00">GGGOX2</text>
</g>
<!-- GGXXX1&#45;&gt;GGGOX2 -->
<g id="edge1" class="edge">
<title>GGXXX1&#45;&gt;GGGOX2</title>
<path fill="none" stroke="black" d="M61.17,-251.44C84.34,-284.92 135.15,-358.3 162.19,-397.36"/>
<polygon fill="black" stroke="black" points="159.32,-399.37 167.89,-405.6 165.08,-395.39 159.32,-399.37"/>
</g>
<!-- GGXGG2 -->
<g id="node5" class="node">
<title>GGXGG2</title>
<ellipse fill="none" stroke="black" cx="180.94" cy="-288" rx="48.99" ry="18"/>
<text text-anchor="middle" x="180.94" y="-284.3" font-family="Times New Roman,serif" font-size="14.00">GGXGG2</text>
</g>
<!-- GGXXX1&#45;&gt;GGXGG2 -->
<g id="edge4" class="edge">
<title>GGXXX1&#45;&gt;GGXGG2</title>
<path fill="none" stroke="black" d="M81.1,-247.21C98.37,-254.34 119.88,-263.21 138.42,-270.87"/>
<polygon fill="black" stroke="black" points="137.23,-274.16 147.81,-274.74 139.9,-267.69 137.23,-274.16"/>
</g>
<!-- GGXOG2 -->
<g id="node10" class="node">
<title>GGXOG2</title>
<ellipse fill="none" stroke="black" cx="180.94" cy="-234" rx="48.99" ry="18"/>
<text text-anchor="middle" x="180.94" y="-230.3" font-family="Times New Roman,serif" font-size="14.00">GGXOG2</text>
</g>
<!-- GGXXX1&#45;&gt;GGXOG2 -->
<g id="edge9" class="edge">
<title>GGXXX1&#45;&gt;GGXOG2</title>
<path fill="none" stroke="black" d="M96.33,-234C104.55,-234 113.19,-234 121.67,-234"/>
<polygon fill="black" stroke="black" points="121.89,-237.5 131.89,-234 121.89,-230.5 121.89,-237.5"/>
</g>
<!-- GGXOX2 -->
<g id="node12" class="node">
<title>GGXOX2</title>
<ellipse fill="none" stroke="black" cx="180.94" cy="-180" rx="48.19" ry="18"/>
<text text-anchor="middle" x="180.94" y="-176.3" font-family="Times New Roman,serif" font-size="14.00">GGXOX2</text>
</g>
<!-- GGXXX1&#45;&gt;GGXOX2 -->
<g id="edge11" class="edge">
<title>GGXXX1&#45;&gt;GGXOX2</title>
<path fill="none" stroke="black" d="M81.1,-220.79C98.37,-213.66 119.88,-204.79 138.42,-197.13"/>
<polygon fill="black" stroke="black" points="139.9,-200.31 147.81,-193.26 137.23,-193.84 139.9,-200.31"/>
</g>
<!-- slush -->
<g id="node16" class="node">
<title>slush</title>
<ellipse fill="none" stroke="black" cx="180.94" cy="-126" rx="29.5" ry="18"/>
<text text-anchor="middle" x="180.94" y="-122.3" font-family="Times New Roman,serif" font-size="14.00">slush</text>
</g>
<!-- GGXXX1&#45;&gt;slush -->
<g id="edge15" class="edge">
<title>GGXXX1&#45;&gt;slush</title>
<path fill="none" stroke="black" d="M64.21,-216.86C80.07,-199.48 106.25,-172.47 132.19,-153 137.29,-149.17 142.99,-145.5 148.62,-142.17"/>
<polygon fill="black" stroke="black" points="150.36,-145.21 157.33,-137.23 146.9,-139.12 150.36,-145.21"/>
</g>
<!-- OXGXX3 -->
<g id="node3" class="node">
<title>OXGXX3</title>
<ellipse fill="none" stroke="black" cx="314.43" cy="-531" rx="48.19" ry="18"/>
<text text-anchor="middle" x="314.43" y="-527.3" font-family="Times New Roman,serif" font-size="14.00">OXGXX3</text>
</g>
<!-- GGGOX2&#45;&gt;OXGXX3 -->
<g id="edge2" class="edge">
<title>GGGOX2&#45;&gt;OXGXX3</title>
<path fill="none" stroke="black" d="M201.91,-439.4C224.11,-457.64 260.15,-487.24 285.22,-507.83"/>
<polygon fill="black" stroke="black" points="283.32,-510.8 293.27,-514.44 287.76,-505.39 283.32,-510.8"/>
</g>
<!-- XXGXO3 -->
<g id="node8" class="node">
<title>XXGXO3</title>
<ellipse fill="none" stroke="black" cx="314.43" cy="-450" rx="48.19" ry="18"/>
<text text-anchor="middle" x="314.43" y="-446.3" font-family="Times New Roman,serif" font-size="14.00">XXGXO3</text>
</g>
<!-- GGGOX2&#45;&gt;XXGXO3 -->
<g id="edge7" class="edge">
<title>GGGOX2&#45;&gt;XXGXO3</title>
<path fill="none" stroke="black" d="M223.9,-431.62C236,-434.1 249.34,-436.84 261.95,-439.43"/>
<polygon fill="black" stroke="black" points="261.36,-442.88 271.86,-441.46 262.77,-436.02 261.36,-442.88"/>
</g>
<!-- XXGGX3 -->
<g id="node14" class="node">
<title>XXGGX3</title>
<ellipse fill="none" stroke="black" cx="314.43" cy="-396" rx="48.19" ry="18"/>
<text text-anchor="middle" x="314.43" y="-392.3" font-family="Times New Roman,serif" font-size="14.00">XXGGX3</text>
</g>
<!-- GGGOX2&#45;&gt;XXGGX3 -->
<g id="edge13" class="edge">
<title>GGGOX2&#45;&gt;XXGGX3</title>
<path fill="none" stroke="black" d="M223.9,-414.38C236,-411.9 249.34,-409.16 261.95,-406.57"/>
<polygon fill="black" stroke="black" points="262.77,-409.98 271.86,-404.54 261.36,-403.12 262.77,-409.98"/>
</g>
<!-- slump -->
<g id="node4" class="node">
<title>slump</title>
<ellipse fill="none" stroke="black" cx="447.92" cy="-558" rx="32.49" ry="18"/>
<text text-anchor="middle" x="447.92" y="-554.3" font-family="Times New Roman,serif" font-size="14.00">slump</text>
</g>
<!-- OXGXX3&#45;&gt;slump -->
<g id="edge3" class="edge">
<title>OXGXX3&#45;&gt;slump</title>
<path fill="none" stroke="black" d="M357.03,-539.54C373.08,-542.84 391.36,-546.59 407.22,-549.85"/>
<polygon fill="black" stroke="black" points="406.75,-553.32 417.25,-551.91 408.16,-546.47 406.75,-553.32"/>
</g>
<!-- GGXGG3 -->
<g id="node6" class="node">
<title>GGXGG3</title>
<ellipse fill="none" stroke="black" cx="314.43" cy="-342" rx="48.99" ry="18"/>
<text text-anchor="middle" x="314.43" y="-338.3" font-family="Times New Roman,serif" font-size="14.00">GGXGG3</text>
</g>
<!-- GGXGG2&#45;&gt;GGXGG3 -->
<g id="edge5" class="edge">
<title>GGXGG2&#45;&gt;GGXGG3</title>
<path fill="none" stroke="black" d="M214.1,-301.21C231.46,-308.34 253.07,-317.21 271.71,-324.87"/>
<polygon fill="black" stroke="black" points="270.56,-328.18 281.14,-328.74 273.22,-321.7 270.56,-328.18"/>
</g>
<!-- slash -->
<g id="node17" class="node">
<title>slash</title>
<ellipse fill="none" stroke="black" cx="314.43" cy="-288" rx="28.7" ry="18"/>
<text text-anchor="middle" x="314.43" y="-284.3" font-family="Times New Roman,serif" font-size="14.00">slash</text>
</g>
<!-- GGXGG2&#45;&gt;slash -->
<g id="edge16" class="edge">
<title>GGXGG2&#45;&gt;slash</title>
<path fill="none" stroke="black" d="M229.78,-288C244.76,-288 261.08,-288 275.3,-288"/>
<polygon fill="black" stroke="black" points="275.7,-291.5 285.7,-288 275.7,-284.5 275.7,-291.5"/>
</g>
<!-- slosh -->
<g id="node7" class="node">
<title>slosh</title>
<ellipse fill="none" stroke="black" cx="447.92" cy="-342" rx="29.8" ry="18"/>
<text text-anchor="middle" x="447.92" y="-338.3" font-family="Times New Roman,serif" font-size="14.00">slosh</text>
</g>
<!-- GGXGG3&#45;&gt;slosh -->
<g id="edge6" class="edge">
<title>GGXGG3&#45;&gt;slosh</title>
<path fill="none" stroke="black" d="M363.27,-342C377.78,-342 393.56,-342 407.45,-342"/>
<polygon fill="black" stroke="black" points="407.66,-345.5 417.66,-342 407.66,-338.5 407.66,-345.5"/>
</g>
<!-- slung -->
<g id="node9" class="node">
<title>slung</title>
<ellipse fill="none" stroke="black" cx="447.92" cy="-504" rx="29.8" ry="18"/>
<text text-anchor="middle" x="447.92" y="-500.3" font-family="Times New Roman,serif" font-size="14.00">slung</text>
</g>
<!-- XXGXO3&#45;&gt;slung -->
<g id="edge8" class="edge">
<title>XXGXO3&#45;&gt;slung</title>
<path fill="none" stroke="black" d="M347.59,-463.21C367.46,-471.37 392.91,-481.82 413.08,-490.1"/>
<polygon fill="black" stroke="black" points="411.93,-493.41 422.51,-493.97 414.58,-486.94 411.93,-493.41"/>
</g>
<!-- GGGGX4 -->
<g id="node22" class="node">
<title>GGGGX4</title>
<ellipse fill="none" stroke="black" cx="447.92" cy="-450" rx="48.99" ry="18"/>
<text text-anchor="middle" x="447.92" y="-446.3" font-family="Times New Roman,serif" font-size="14.00">GGGGX4</text>
</g>
<!-- XXGXO3&#45;&gt;GGGGX4 -->
<g id="edge21" class="edge">
<title>XXGXO3&#45;&gt;GGGGX4</title>
<path fill="none" stroke="black" d="M362.53,-450C371,-450 379.93,-450 388.67,-450"/>
<polygon fill="black" stroke="black" points="388.82,-453.5 398.82,-450 388.82,-446.5 388.82,-453.5"/>
</g>
<!-- sloth -->
<g id="node11" class="node">
<title>sloth</title>
<ellipse fill="none" stroke="black" cx="314.43" cy="-234" rx="28.7" ry="18"/>
<text text-anchor="middle" x="314.43" y="-230.3" font-family="Times New Roman,serif" font-size="14.00">sloth</text>
</g>
<!-- GGXOG2&#45;&gt;sloth -->
<g id="edge10" class="edge">
<title>GGXOG2&#45;&gt;sloth</title>
<path fill="none" stroke="black" d="M229.78,-234C244.76,-234 261.08,-234 275.3,-234"/>
<polygon fill="black" stroke="black" points="275.7,-237.5 285.7,-234 275.7,-230.5 275.7,-237.5"/>
</g>
<!-- slang -->
<g id="node13" class="node">
<title>slang</title>
<ellipse fill="none" stroke="black" cx="314.43" cy="-180" rx="29.5" ry="18"/>
<text text-anchor="middle" x="314.43" y="-176.3" font-family="Times New Roman,serif" font-size="14.00">slang</text>
</g>
<!-- GGXOX2&#45;&gt;slang -->
<g id="edge12" class="edge">
<title>GGXOX2&#45;&gt;slang</title>
<path fill="none" stroke="black" d="M229.04,-180C244.1,-180 260.58,-180 274.96,-180"/>
<polygon fill="black" stroke="black" points="275,-183.5 285,-180 275,-176.5 275,-183.5"/>
</g>
<!-- GGGGX3 -->
<g id="node18" class="node">
<title>GGGGX3</title>
<ellipse fill="none" stroke="black" cx="314.43" cy="-126" rx="48.99" ry="18"/>
<text text-anchor="middle" x="314.43" y="-122.3" font-family="Times New Roman,serif" font-size="14.00">GGGGX3</text>
</g>
<!-- GGXOX2&#45;&gt;GGGGX3 -->
<g id="edge17" class="edge">
<title>GGXOX2&#45;&gt;GGGGX3</title>
<path fill="none" stroke="black" d="M214.1,-166.79C231.46,-159.66 253.07,-150.79 271.71,-143.13"/>
<polygon fill="black" stroke="black" points="273.22,-146.3 281.14,-139.26 270.56,-139.82 273.22,-146.3"/>
</g>
<!-- GGXXX3 -->
<g id="node20" class="node">
<title>GGXXX3</title>
<ellipse fill="none" stroke="black" cx="314.43" cy="-72" rx="48.19" ry="18"/>
<text text-anchor="middle" x="314.43" y="-68.3" font-family="Times New Roman,serif" font-size="14.00">GGXXX3</text>
</g>
<!-- GGXOX2&#45;&gt;GGXXX3 -->
<g id="edge19" class="edge">
<title>GGXOX2&#45;&gt;GGXXX3</title>
<path fill="none" stroke="black" d="M211.69,-166.03C218.02,-162.31 224.38,-157.93 229.68,-153 250.81,-133.37 244.55,-118.63 265.68,-99 268.58,-96.31 271.8,-93.77 275.15,-91.42"/>
<polygon fill="black" stroke="black" points="277.14,-94.31 283.67,-85.97 273.36,-88.41 277.14,-94.31"/>
</g>
<!-- slurp -->
<g id="node15" class="node">
<title>slurp</title>
<ellipse fill="none" stroke="black" cx="447.92" cy="-396" rx="28.7" ry="18"/>
<text text-anchor="middle" x="447.92" y="-392.3" font-family="Times New Roman,serif" font-size="14.00">slurp</text>
</g>
<!-- XXGGX3&#45;&gt;slurp -->
<g id="edge14" class="edge">
<title>XXGGX3&#45;&gt;slurp</title>
<path fill="none" stroke="black" d="M362.53,-396C377.83,-396 394.6,-396 409.12,-396"/>
<polygon fill="black" stroke="black" points="409.26,-399.5 419.26,-396 409.26,-392.5 409.26,-399.5"/>
</g>
<!-- slant -->
<g id="node19" class="node">
<title>slant</title>
<ellipse fill="none" stroke="black" cx="447.92" cy="-126" rx="27.1" ry="18"/>
<text text-anchor="middle" x="447.92" y="-122.3" font-family="Times New Roman,serif" font-size="14.00">slant</text>
</g>
<!-- GGGGX3&#45;&gt;slant -->
<g id="edge18" class="edge">
<title>GGGGX3&#45;&gt;slant</title>
<path fill="none" stroke="black" d="M363.27,-126C378.75,-126 395.67,-126 410.21,-126"/>
<polygon fill="black" stroke="black" points="410.33,-129.5 420.33,-126 410.33,-122.5 410.33,-129.5"/>
</g>
<!-- sloop -->
<g id="node21" class="node">
<title>sloop</title>
<ellipse fill="none" stroke="black" cx="447.92" cy="-72" rx="31.4" ry="18"/>
<text text-anchor="middle" x="447.92" y="-68.3" font-family="Times New Roman,serif" font-size="14.00">sloop</text>
</g>
<!-- GGXXX3&#45;&gt;sloop -->
<g id="edge20" class="edge">
<title>GGXXX3&#45;&gt;sloop</title>
<path fill="none" stroke="black" d="M362.53,-72C376.86,-72 392.47,-72 406.33,-72"/>
<polygon fill="black" stroke="black" points="406.54,-75.5 416.54,-72 406.54,-68.5 406.54,-75.5"/>
</g>
<!-- GGXXX4 -->
<g id="node24" class="node">
<title>GGXXX4</title>
<ellipse fill="none" stroke="black" cx="447.92" cy="-18" rx="48.19" ry="18"/>
<text text-anchor="middle" x="447.92" y="-14.3" font-family="Times New Roman,serif" font-size="14.00">GGXXX4</text>
</g>
<!-- GGXXX3&#45;&gt;GGXXX4 -->
<g id="edge23" class="edge">
<title>GGXXX3&#45;&gt;GGXXX4</title>
<path fill="none" stroke="black" d="M347.59,-58.79C364.95,-51.66 386.56,-42.79 405.2,-35.13"/>
<polygon fill="black" stroke="black" points="406.71,-38.3 414.63,-31.26 404.05,-31.82 406.71,-38.3"/>
</g>
<!-- slunk -->
<g id="node23" class="node">
<title>slunk</title>
<ellipse fill="none" stroke="black" cx="562.56" cy="-450" rx="29.8" ry="18"/>
<text text-anchor="middle" x="562.56" y="-446.3" font-family="Times New Roman,serif" font-size="14.00">slunk</text>
</g>
<!-- GGGGX4&#45;&gt;slunk -->
<g id="edge22" class="edge">
<title>GGGGX4&#45;&gt;slunk</title>
<path fill="none" stroke="black" d="M496.69,-450C505.29,-450 514.16,-450 522.48,-450"/>
<polygon fill="black" stroke="black" points="522.66,-453.5 532.66,-450 522.66,-446.5 522.66,-453.5"/>
</g>
<!-- slyly -->
<g id="node25" class="node">
<title>slyly</title>
<ellipse fill="none" stroke="black" cx="562.56" cy="-18" rx="27.1" ry="18"/>
<text text-anchor="middle" x="562.56" y="-14.3" font-family="Times New Roman,serif" font-size="14.00">slyly</text>
</g>
<!-- GGXXX4&#45;&gt;slyly -->
<g id="edge24" class="edge">
<title>GGXXX4&#45;&gt;slyly</title>
<path fill="none" stroke="black" d="M496.04,-18C505.76,-18 515.86,-18 525.14,-18"/>
<polygon fill="black" stroke="black" points="525.19,-21.5 535.19,-18 525.19,-14.5 525.19,-21.5"/>
</g>
</g>
</svg>
