<?xml version="1.0" encoding="UTF-8" standalone="no"?>
<!DOCTYPE svg PUBLIC "-//W3C//DTD SVG 1.1//EN"
 "http://www.w3.org/Graphics/SVG/1.1/DTD/svg11.dtd">
<!-- Generated by graphviz version 2.50.0 (20211204.2007)
 -->
<!-- Pages: 1 -->
<svg width="467pt" height="962pt"
 viewBox="0.00 0.00 466.97 962.00" xmlns="http://www.w3.org/2000/svg" xmlns:xlink="http://www.w3.org/1999/xlink">
<g id="graph0" class="graph" transform="scale(1 1) rotate(0) translate(4 958)">
<polygon fill="white" stroke="transparent" points="-4,4 -4,-958 462.97,-958 462.97,4 -4,4"/>
<!-- XOOXO1 -->
<g id="node1" class="node">
<title>XOOXO1</title>
<ellipse fill="none" stroke="black" cx="48.1" cy="-342" rx="48.19" ry="18"/>
<text text-anchor="middle" x="48.1" y="-338.3" font-family="Times New Roman,serif" font-size="14.00">XOOXO1</text>
</g>
<!-- OOXOX2 -->
<g id="node2" class="node">
<title>OOXOX2</title>
<ellipse fill="none" stroke="black" cx="180.94" cy="-855" rx="48.19" ry="18"/>
<text text-anchor="middle" x="180.94" y="-851.3" font-family="Times New Roman,serif" font-size="14.00">OOXOX2</text>
</g>
<!-- XOOXO1&#45;&gt;OOXOX2 -->
<g id="edge1" class="edge">
<title>XOOXO1&#45;&gt;OOXOX2</title>
<path fill="none" stroke="black" d="M52.29,-360.3C62.06,-415.28 93.26,-583.67 132.19,-720 142.97,-757.73 158.6,-800.25 169.01,-827.32"/>
<polygon fill="black" stroke="black" points="165.85,-828.83 172.72,-836.89 172.37,-826.3 165.85,-828.83"/>
</g>
<!-- GGXGX2 -->
<g id="node5" class="node">
<title>GGXGX2</title>
<ellipse fill="none" stroke="black" cx="180.94" cy="-693" rx="48.19" ry="18"/>
<text text-anchor="middle" x="180.94" y="-689.3" font-family="Times New Roman,serif" font-size="14.00">GGXGX2</text>
</g>
<!-- XOOXO1&#45;&gt;GGXGX2 -->
<g id="edge4" class="edge">
<title>XOOXO1&#45;&gt;GGXGX2</title>
<path fill="none" stroke="black" d="M55.76,-359.89C77.11,-417.16 143.88,-596.28 169.65,-665.4"/>
<polygon fill="black" stroke="black" points="166.51,-667 173.28,-675.15 173.07,-664.55 166.51,-667"/>
</g>
<!-- OGXOX2 -->
<g id="node8" class="node">
<title>OGXOX2</title>
<ellipse fill="none" stroke="black" cx="180.94" cy="-531" rx="48.19" ry="18"/>
<text text-anchor="middle" x="180.94" y="-527.3" font-family="Times New Roman,serif" font-size="14.00">OGXOX2</text>
</g>
<!-- XOOXO1&#45;&gt;OGXOX2 -->
<g id="edge7" class="edge">
<title>XOOXO1&#45;&gt;OGXOX2</title>
<path fill="none" stroke="black" d="M58.67,-359.67C73.27,-386.07 102.53,-436.98 132.19,-477 139.68,-487.11 148.66,-497.61 156.79,-506.63"/>
<polygon fill="black" stroke="black" points="154.33,-509.12 163.66,-514.13 159.49,-504.39 154.33,-509.12"/>
</g>
<!-- liver -->
<g id="node13" class="node">
<title>liver</title>
<ellipse fill="none" stroke="black" cx="180.94" cy="-450" rx="27" ry="18"/>
<text text-anchor="middle" x="180.94" y="-446.3" font-family="Times New Roman,serif" font-size="14.00">liver</text>
</g>
<!-- XOOXO1&#45;&gt;liver -->
<g id="edge12" class="edge">
<title>XOOXO1&#45;&gt;liver</title>
<path fill="none" stroke="black" d="M64.21,-359.14C80.07,-376.52 106.25,-403.53 132.19,-423 137.59,-427.05 143.66,-430.93 149.61,-434.42"/>
<polygon fill="black" stroke="black" points="148.33,-437.71 158.76,-439.55 151.75,-431.6 148.33,-437.71"/>
</g>
<!-- OGXGX2 -->
<g id="node18" class="node">
<title>OGXGX2</title>
<ellipse fill="none" stroke="black" cx="180.94" cy="-396" rx="48.19" ry="18"/>
<text text-anchor="middle" x="180.94" y="-392.3" font-family="Times New Roman,serif" font-size="14.00">OGXGX2</text>
</g>
<!-- XOOXO1&#45;&gt;OGXGX2 -->
<g id="edge17" class="edge">
<title>XOOXO1&#45;&gt;OGXGX2</title>
<path fill="none" stroke="black" d="M81.1,-355.21C98.37,-362.34 119.88,-371.21 138.42,-378.87"/>
<polygon fill="black" stroke="black" points="137.23,-382.16 147.81,-382.74 139.9,-375.69 137.23,-382.16"/>
</g>
<!-- OOXGG2 -->
<g id="node20" class="node">
<title>OOXGG2</title>
<ellipse fill="none" stroke="black" cx="180.94" cy="-342" rx="48.99" ry="18"/>
<text text-anchor="middle" x="180.94" y="-338.3" font-family="Times New Roman,serif" font-size="14.00">OOXGG2</text>
</g>
<!-- XOOXO1&#45;&gt;OOXGG2 -->
<g id="edge19" class="edge">
<title>XOOXO1&#45;&gt;OOXGG2</title>
<path fill="none" stroke="black" d="M96.33,-342C104.55,-342 113.19,-342 121.67,-342"/>
<polygon fill="black" stroke="black" points="121.89,-345.5 131.89,-342 121.89,-338.5 121.89,-345.5"/>
</g>
<!-- GGXGG2 -->
<g id="node26" class="node">
<title>GGXGG2</title>
<ellipse fill="none" stroke="black" cx="180.94" cy="-288" rx="48.99" ry="18"/>
<text text-anchor="middle" x="180.94" y="-284.3" font-family="Times New Roman,serif" font-size="14.00">GGXGG2</text>
</g>
<!-- XOOXO1&#45;&gt;GGXGG2 -->
<g id="edge25" class="edge">
<title>XOOXO1&#45;&gt;GGXGG2</title>
<path fill="none" stroke="black" d="M81.1,-328.79C98.37,-321.66 119.88,-312.79 138.42,-305.13"/>
<polygon fill="black" stroke="black" points="139.9,-308.31 147.81,-301.26 137.23,-301.84 139.9,-308.31"/>
</g>
<!-- OOGOX2 -->
<g id="node28" class="node">
<title>OOGOX2</title>
<ellipse fill="none" stroke="black" cx="180.94" cy="-234" rx="48.99" ry="18"/>
<text text-anchor="middle" x="180.94" y="-230.3" font-family="Times New Roman,serif" font-size="14.00">OOGOX2</text>
</g>
<!-- XOOXO1&#45;&gt;OOGOX2 -->
<g id="edge27" class="edge">
<title>XOOXO1&#45;&gt;OOGOX2</title>
<path fill="none" stroke="black" d="M64.21,-324.86C80.07,-307.48 106.25,-280.47 132.19,-261 135.58,-258.46 139.22,-255.99 142.94,-253.64"/>
<polygon fill="black" stroke="black" points="144.89,-256.55 151.66,-248.4 141.28,-250.55 144.89,-256.55"/>
</g>
<!-- OGXGG2 -->
<g id="node32" class="node">
<title>OGXGG2</title>
<ellipse fill="none" stroke="black" cx="180.94" cy="-180" rx="48.99" ry="18"/>
<text text-anchor="middle" x="180.94" y="-176.3" font-family="Times New Roman,serif" font-size="14.00">OGXGG2</text>
</g>
<!-- XOOXO1&#45;&gt;OGXGG2 -->
<g id="edge31" class="edge">
<title>XOOXO1&#45;&gt;OGXGG2</title>
<path fill="none" stroke="black" d="M56.67,-323.85C69.05,-295.92 95.92,-241.95 132.19,-207 134.89,-204.4 137.88,-201.97 141.02,-199.7"/>
<polygon fill="black" stroke="black" points="143.1,-202.53 149.55,-194.12 139.26,-196.67 143.1,-202.53"/>
</g>
<!-- OOXGX2 -->
<g id="node35" class="node">
<title>OOXGX2</title>
<ellipse fill="none" stroke="black" cx="180.94" cy="-126" rx="48.19" ry="18"/>
<text text-anchor="middle" x="180.94" y="-122.3" font-family="Times New Roman,serif" font-size="14.00">OOXGX2</text>
</g>
<!-- XOOXO1&#45;&gt;OOXGX2 -->
<g id="edge34" class="edge">
<title>XOOXO1&#45;&gt;OOXGX2</title>
<path fill="none" stroke="black" d="M52.95,-324.03C61.52,-287.79 85.19,-204.98 132.19,-153 134.7,-150.22 137.57,-147.66 140.62,-145.32"/>
<polygon fill="black" stroke="black" points="142.72,-148.13 149.02,-139.61 138.78,-142.34 142.72,-148.13"/>
</g>
<!-- OOXOO2 -->
<g id="node39" class="node">
<title>OOXOO2</title>
<ellipse fill="none" stroke="black" cx="180.94" cy="-45" rx="48.99" ry="18"/>
<text text-anchor="middle" x="180.94" y="-41.3" font-family="Times New Roman,serif" font-size="14.00">OOXOO2</text>
</g>
<!-- XOOXO1&#45;&gt;OOXOO2 -->
<g id="edge38" class="edge">
<title>XOOXO1&#45;&gt;OOXOO2</title>
<path fill="none" stroke="black" d="M52.72,-323.9C61.61,-282.09 87.14,-176.47 132.19,-99 138.42,-88.29 146.97,-77.79 155.12,-68.93"/>
<polygon fill="black" stroke="black" points="157.73,-71.27 162.1,-61.61 152.67,-66.43 157.73,-71.27"/>
</g>
<!-- OXXGO3 -->
<g id="node3" class="node">
<title>OXXGO3</title>
<ellipse fill="none" stroke="black" cx="314.43" cy="-936" rx="48.19" ry="18"/>
<text text-anchor="middle" x="314.43" y="-932.3" font-family="Times New Roman,serif" font-size="14.00">OXXGO3</text>
</g>
<!-- OOXOX2&#45;&gt;OXXGO3 -->
<g id="edge2" class="edge">
<title>OOXOX2&#45;&gt;OXXGO3</title>
<path fill="none" stroke="black" d="M205.53,-870.73C222.18,-881.71 245.1,-896.56 265.68,-909 269.55,-911.34 273.62,-913.73 277.68,-916.09"/>
<polygon fill="black" stroke="black" points="276.08,-919.2 286.5,-921.13 279.56,-913.13 276.08,-919.2"/>
</g>
<!-- OXOOG3 -->
<g id="node16" class="node">
<title>OXOOG3</title>
<ellipse fill="none" stroke="black" cx="314.43" cy="-882" rx="48.99" ry="18"/>
<text text-anchor="middle" x="314.43" y="-878.3" font-family="Times New Roman,serif" font-size="14.00">OXOOG3</text>
</g>
<!-- OOXOX2&#45;&gt;OXOOG3 -->
<g id="edge15" class="edge">
<title>OOXOX2&#45;&gt;OXOOG3</title>
<path fill="none" stroke="black" d="M223.54,-863.54C235.53,-866.01 248.77,-868.72 261.32,-871.3"/>
<polygon fill="black" stroke="black" points="260.69,-874.74 271.19,-873.33 262.1,-867.89 260.69,-874.74"/>
</g>
<!-- email -->
<g id="node34" class="node">
<title>email</title>
<ellipse fill="none" stroke="black" cx="314.43" cy="-828" rx="29.5" ry="18"/>
<text text-anchor="middle" x="314.43" y="-824.3" font-family="Times New Roman,serif" font-size="14.00">email</text>
</g>
<!-- OOXOX2&#45;&gt;email -->
<g id="edge33" class="edge">
<title>OOXOX2&#45;&gt;email</title>
<path fill="none" stroke="black" d="M223.54,-846.46C240.61,-842.95 260.21,-838.93 276.74,-835.53"/>
<polygon fill="black" stroke="black" points="277.49,-838.95 286.58,-833.51 276.08,-832.1 277.49,-838.95"/>
</g>
<!-- helix -->
<g id="node4" class="node">
<title>helix</title>
<ellipse fill="none" stroke="black" cx="429.07" cy="-936" rx="27.1" ry="18"/>
<text text-anchor="middle" x="429.07" y="-932.3" font-family="Times New Roman,serif" font-size="14.00">helix</text>
</g>
<!-- OXXGO3&#45;&gt;helix -->
<g id="edge3" class="edge">
<title>OXXGO3&#45;&gt;helix</title>
<path fill="none" stroke="black" d="M362.55,-936C372.27,-936 382.37,-936 391.65,-936"/>
<polygon fill="black" stroke="black" points="391.7,-939.5 401.7,-936 391.7,-932.5 391.7,-939.5"/>
</g>
<!-- XXOOX3 -->
<g id="node6" class="node">
<title>XXOOX3</title>
<ellipse fill="none" stroke="black" cx="314.43" cy="-774" rx="48.19" ry="18"/>
<text text-anchor="middle" x="314.43" y="-770.3" font-family="Times New Roman,serif" font-size="14.00">XXOOX3</text>
</g>
<!-- GGXGX2&#45;&gt;XXOOX3 -->
<g id="edge5" class="edge">
<title>GGXGX2&#45;&gt;XXOOX3</title>
<path fill="none" stroke="black" d="M205.53,-708.73C222.18,-719.71 245.1,-734.56 265.68,-747 269.55,-749.34 273.62,-751.73 277.68,-754.09"/>
<polygon fill="black" stroke="black" points="276.08,-757.2 286.5,-759.13 279.56,-751.13 276.08,-757.2"/>
</g>
<!-- OXOXX3 -->
<g id="node14" class="node">
<title>OXOXX3</title>
<ellipse fill="none" stroke="black" cx="314.43" cy="-720" rx="48.19" ry="18"/>
<text text-anchor="middle" x="314.43" y="-716.3" font-family="Times New Roman,serif" font-size="14.00">OXOXX3</text>
</g>
<!-- GGXGX2&#45;&gt;OXOXX3 -->
<g id="edge13" class="edge">
<title>GGXGX2&#45;&gt;OXOXX3</title>
<path fill="none" stroke="black" d="M223.54,-701.54C235.65,-704.03 249.03,-706.78 261.69,-709.38"/>
<polygon fill="black" stroke="black" points="261.14,-712.84 271.64,-711.42 262.55,-705.98 261.14,-712.84"/>
</g>
<!-- XXOOO3 -->
<g id="node30" class="node">
<title>XXOOO3</title>
<ellipse fill="none" stroke="black" cx="314.43" cy="-666" rx="48.19" ry="18"/>
<text text-anchor="middle" x="314.43" y="-662.3" font-family="Times New Roman,serif" font-size="14.00">XXOOO3</text>
</g>
<!-- GGXGX2&#45;&gt;XXOOO3 -->
<g id="edge29" class="edge">
<title>GGXGX2&#45;&gt;XXOOO3</title>
<path fill="none" stroke="black" d="M223.54,-684.46C235.65,-681.97 249.03,-679.22 261.69,-676.62"/>
<polygon fill="black" stroke="black" points="262.55,-680.02 271.64,-674.58 261.14,-673.16 262.55,-680.02"/>
</g>
<!-- linen -->
<g id="node7" class="node">
<title>linen</title>
<ellipse fill="none" stroke="black" cx="429.07" cy="-774" rx="27.1" ry="18"/>
<text text-anchor="middle" x="429.07" y="-770.3" font-family="Times New Roman,serif" font-size="14.00">linen</text>
</g>
<!-- XXOOX3&#45;&gt;linen -->
<g id="edge6" class="edge">
<title>XXOOX3&#45;&gt;linen</title>
<path fill="none" stroke="black" d="M362.55,-774C372.27,-774 382.37,-774 391.65,-774"/>
<polygon fill="black" stroke="black" points="391.7,-777.5 401.7,-774 391.7,-770.5 391.7,-777.5"/>
</g>
<!-- OXXXX3 -->
<g id="node9" class="node">
<title>OXXXX3</title>
<ellipse fill="none" stroke="black" cx="314.43" cy="-612" rx="47.39" ry="18"/>
<text text-anchor="middle" x="314.43" y="-608.3" font-family="Times New Roman,serif" font-size="14.00">OXXXX3</text>
</g>
<!-- OGXOX2&#45;&gt;OXXXX3 -->
<g id="edge8" class="edge">
<title>OGXOX2&#45;&gt;OXXXX3</title>
<path fill="none" stroke="black" d="M205.53,-546.73C222.18,-557.71 245.1,-572.56 265.68,-585 269.55,-587.34 273.62,-589.73 277.68,-592.09"/>
<polygon fill="black" stroke="black" points="276.08,-595.2 286.5,-597.13 279.56,-589.13 276.08,-595.2"/>
</g>
<!-- OXXXO3 -->
<g id="node11" class="node">
<title>OXXXO3</title>
<ellipse fill="none" stroke="black" cx="314.43" cy="-558" rx="48.19" ry="18"/>
<text text-anchor="middle" x="314.43" y="-554.3" font-family="Times New Roman,serif" font-size="14.00">OXXXO3</text>
</g>
<!-- OGXOX2&#45;&gt;OXXXO3 -->
<g id="edge10" class="edge">
<title>OGXOX2&#45;&gt;OXXXO3</title>
<path fill="none" stroke="black" d="M223.54,-539.54C235.65,-542.03 249.03,-544.78 261.69,-547.38"/>
<polygon fill="black" stroke="black" points="261.14,-550.84 271.64,-549.42 262.55,-543.98 261.14,-550.84"/>
</g>
<!-- OOXXX3 -->
<g id="node22" class="node">
<title>OOXXX3</title>
<ellipse fill="none" stroke="black" cx="314.43" cy="-504" rx="48.19" ry="18"/>
<text text-anchor="middle" x="314.43" y="-500.3" font-family="Times New Roman,serif" font-size="14.00">OOXXX3</text>
</g>
<!-- OGXOX2&#45;&gt;OOXXX3 -->
<g id="edge21" class="edge">
<title>OGXOX2&#45;&gt;OOXXX3</title>
<path fill="none" stroke="black" d="M223.54,-522.46C235.65,-519.97 249.03,-517.22 261.69,-514.62"/>
<polygon fill="black" stroke="black" points="262.55,-518.02 271.64,-512.58 261.14,-511.16 262.55,-518.02"/>
</g>
<!-- yield -->
<g id="node10" class="node">
<title>yield</title>
<ellipse fill="none" stroke="black" cx="429.07" cy="-612" rx="27.9" ry="18"/>
<text text-anchor="middle" x="429.07" y="-608.3" font-family="Times New Roman,serif" font-size="14.00">yield</text>
</g>
<!-- OXXXX3&#45;&gt;yield -->
<g id="edge9" class="edge">
<title>OXXXX3&#45;&gt;yield</title>
<path fill="none" stroke="black" d="M361.9,-612C371.58,-612 381.67,-612 390.97,-612"/>
<polygon fill="black" stroke="black" points="391.06,-615.5 401.06,-612 391.06,-608.5 391.06,-615.5"/>
</g>
<!-- field -->
<g id="node12" class="node">
<title>field</title>
<ellipse fill="none" stroke="black" cx="429.07" cy="-558" rx="27" ry="18"/>
<text text-anchor="middle" x="429.07" y="-554.3" font-family="Times New Roman,serif" font-size="14.00">field</text>
</g>
<!-- OXXXO3&#45;&gt;field -->
<g id="edge11" class="edge">
<title>OXXXO3&#45;&gt;field</title>
<path fill="none" stroke="black" d="M362.55,-558C372.36,-558 382.55,-558 391.9,-558"/>
<polygon fill="black" stroke="black" points="392.02,-561.5 402.02,-558 392.02,-554.5 392.02,-561.5"/>
</g>
<!-- libel -->
<g id="node15" class="node">
<title>libel</title>
<ellipse fill="none" stroke="black" cx="429.07" cy="-720" rx="27" ry="18"/>
<text text-anchor="middle" x="429.07" y="-716.3" font-family="Times New Roman,serif" font-size="14.00">libel</text>
</g>
<!-- OXOXX3&#45;&gt;libel -->
<g id="edge14" class="edge">
<title>OXOXX3&#45;&gt;libel</title>
<path fill="none" stroke="black" d="M362.55,-720C372.36,-720 382.55,-720 391.9,-720"/>
<polygon fill="black" stroke="black" points="392.02,-723.5 402.02,-720 392.02,-716.5 392.02,-723.5"/>
</g>
<!-- ideal -->
<g id="node17" class="node">
<title>ideal</title>
<ellipse fill="none" stroke="black" cx="429.07" cy="-882" rx="27.1" ry="18"/>
<text text-anchor="middle" x="429.07" y="-878.3" font-family="Times New Roman,serif" font-size="14.00">ideal</text>
</g>
<!-- OXOOG3&#45;&gt;ideal -->
<g id="edge16" class="edge">
<title>OXOOG3&#45;&gt;ideal</title>
<path fill="none" stroke="black" d="M363.2,-882C372.68,-882 382.49,-882 391.53,-882"/>
<polygon fill="black" stroke="black" points="391.71,-885.5 401.71,-882 391.71,-878.5 391.71,-885.5"/>
</g>
<!-- filet -->
<g id="node19" class="node">
<title>filet</title>
<ellipse fill="none" stroke="black" cx="314.43" cy="-450" rx="27" ry="18"/>
<text text-anchor="middle" x="314.43" y="-446.3" font-family="Times New Roman,serif" font-size="14.00">filet</text>
</g>
<!-- OGXGX2&#45;&gt;filet -->
<g id="edge18" class="edge">
<title>OGXGX2&#45;&gt;filet</title>
<path fill="none" stroke="black" d="M214.1,-409.21C234.62,-417.64 261.1,-428.51 281.56,-436.91"/>
<polygon fill="black" stroke="black" points="280.49,-440.25 291.07,-440.82 283.15,-433.78 280.49,-440.25"/>
</g>
<!-- XGOGX3 -->
<g id="node24" class="node">
<title>XGOGX3</title>
<ellipse fill="none" stroke="black" cx="314.43" cy="-396" rx="48.19" ry="18"/>
<text text-anchor="middle" x="314.43" y="-392.3" font-family="Times New Roman,serif" font-size="14.00">XGOGX3</text>
</g>
<!-- OGXGX2&#45;&gt;XGOGX3 -->
<g id="edge23" class="edge">
<title>OGXGX2&#45;&gt;XGOGX3</title>
<path fill="none" stroke="black" d="M229.04,-396C237.82,-396 247.08,-396 256.13,-396"/>
<polygon fill="black" stroke="black" points="256.22,-399.5 266.22,-396 256.22,-392.5 256.22,-399.5"/>
</g>
<!-- idler -->
<g id="node21" class="node">
<title>idler</title>
<ellipse fill="none" stroke="black" cx="314.43" cy="-342" rx="27" ry="18"/>
<text text-anchor="middle" x="314.43" y="-338.3" font-family="Times New Roman,serif" font-size="14.00">idler</text>
</g>
<!-- OOXGG2&#45;&gt;idler -->
<g id="edge20" class="edge">
<title>OOXGG2&#45;&gt;idler</title>
<path fill="none" stroke="black" d="M229.78,-342C245.38,-342 262.43,-342 277.05,-342"/>
<polygon fill="black" stroke="black" points="277.21,-345.5 287.21,-342 277.21,-338.5 277.21,-345.5"/>
</g>
<!-- wield -->
<g id="node23" class="node">
<title>wield</title>
<ellipse fill="none" stroke="black" cx="429.07" cy="-504" rx="29.8" ry="18"/>
<text text-anchor="middle" x="429.07" y="-500.3" font-family="Times New Roman,serif" font-size="14.00">wield</text>
</g>
<!-- OOXXX3&#45;&gt;wield -->
<g id="edge22" class="edge">
<title>OOXXX3&#45;&gt;wield</title>
<path fill="none" stroke="black" d="M362.55,-504C371.38,-504 380.52,-504 389.07,-504"/>
<polygon fill="black" stroke="black" points="389.14,-507.5 399.14,-504 389.14,-500.5 389.14,-507.5"/>
</g>
<!-- pixel -->
<g id="node25" class="node">
<title>pixel</title>
<ellipse fill="none" stroke="black" cx="429.07" cy="-396" rx="27.9" ry="18"/>
<text text-anchor="middle" x="429.07" y="-392.3" font-family="Times New Roman,serif" font-size="14.00">pixel</text>
</g>
<!-- XGOGX3&#45;&gt;pixel -->
<g id="edge24" class="edge">
<title>XGOGX3&#45;&gt;pixel</title>
<path fill="none" stroke="black" d="M362.55,-396C371.99,-396 381.79,-396 390.85,-396"/>
<polygon fill="black" stroke="black" points="391.07,-399.5 401.07,-396 391.07,-392.5 391.07,-399.5"/>
</g>
<!-- liner -->
<g id="node27" class="node">
<title>liner</title>
<ellipse fill="none" stroke="black" cx="314.43" cy="-288" rx="27" ry="18"/>
<text text-anchor="middle" x="314.43" y="-284.3" font-family="Times New Roman,serif" font-size="14.00">liner</text>
</g>
<!-- GGXGG2&#45;&gt;liner -->
<g id="edge26" class="edge">
<title>GGXGG2&#45;&gt;liner</title>
<path fill="none" stroke="black" d="M229.78,-288C245.38,-288 262.43,-288 277.05,-288"/>
<polygon fill="black" stroke="black" points="277.21,-291.5 287.21,-288 277.21,-284.5 277.21,-291.5"/>
</g>
<!-- devil -->
<g id="node29" class="node">
<title>devil</title>
<ellipse fill="none" stroke="black" cx="314.43" cy="-234" rx="27.9" ry="18"/>
<text text-anchor="middle" x="314.43" y="-230.3" font-family="Times New Roman,serif" font-size="14.00">devil</text>
</g>
<!-- OOGOX2&#45;&gt;devil -->
<g id="edge28" class="edge">
<title>OOGOX2&#45;&gt;devil</title>
<path fill="none" stroke="black" d="M229.78,-234C245.14,-234 261.92,-234 276.39,-234"/>
<polygon fill="black" stroke="black" points="276.46,-237.5 286.46,-234 276.46,-230.5 276.46,-237.5"/>
</g>
<!-- liken -->
<g id="node31" class="node">
<title>liken</title>
<ellipse fill="none" stroke="black" cx="429.07" cy="-666" rx="27.1" ry="18"/>
<text text-anchor="middle" x="429.07" y="-662.3" font-family="Times New Roman,serif" font-size="14.00">liken</text>
</g>
<!-- XXOOO3&#45;&gt;liken -->
<g id="edge30" class="edge">
<title>XXOOO3&#45;&gt;liken</title>
<path fill="none" stroke="black" d="M362.55,-666C372.27,-666 382.37,-666 391.65,-666"/>
<polygon fill="black" stroke="black" points="391.7,-669.5 401.7,-666 391.7,-662.5 391.7,-669.5"/>
</g>
<!-- filer -->
<g id="node33" class="node">
<title>filer</title>
<ellipse fill="none" stroke="black" cx="314.43" cy="-180" rx="27" ry="18"/>
<text text-anchor="middle" x="314.43" y="-176.3" font-family="Times New Roman,serif" font-size="14.00">filer</text>
</g>
<!-- OGXGG2&#45;&gt;filer -->
<g id="edge32" class="edge">
<title>OGXGG2&#45;&gt;filer</title>
<path fill="none" stroke="black" d="M229.78,-180C245.38,-180 262.43,-180 277.05,-180"/>
<polygon fill="black" stroke="black" points="277.21,-183.5 287.21,-180 277.21,-176.5 277.21,-183.5"/>
</g>
<!-- impel -->
<g id="node36" class="node">
<title>impel</title>
<ellipse fill="none" stroke="black" cx="314.43" cy="-126" rx="30.59" ry="18"/>
<text text-anchor="middle" x="314.43" y="-122.3" font-family="Times New Roman,serif" font-size="14.00">impel</text>
</g>
<!-- OOXGX2&#45;&gt;impel -->
<g id="edge35" class="edge">
<title>OOXGX2&#45;&gt;impel</title>
<path fill="none" stroke="black" d="M229.04,-126C243.6,-126 259.49,-126 273.52,-126"/>
<polygon fill="black" stroke="black" points="273.83,-129.5 283.83,-126 273.83,-122.5 273.83,-129.5"/>
</g>
<!-- GXXGO3 -->
<g id="node37" class="node">
<title>GXXGO3</title>
<ellipse fill="none" stroke="black" cx="314.43" cy="-72" rx="48.19" ry="18"/>
<text text-anchor="middle" x="314.43" y="-68.3" font-family="Times New Roman,serif" font-size="14.00">GXXGO3</text>
</g>
<!-- OOXGX2&#45;&gt;GXXGO3 -->
<g id="edge36" class="edge">
<title>OOXGX2&#45;&gt;GXXGO3</title>
<path fill="none" stroke="black" d="M214.1,-112.79C231.46,-105.66 253.07,-96.79 271.71,-89.13"/>
<polygon fill="black" stroke="black" points="273.22,-92.3 281.14,-85.26 270.56,-85.82 273.22,-92.3"/>
</g>
<!-- inlet -->
<g id="node38" class="node">
<title>inlet</title>
<ellipse fill="none" stroke="black" cx="429.07" cy="-72" rx="27" ry="18"/>
<text text-anchor="middle" x="429.07" y="-68.3" font-family="Times New Roman,serif" font-size="14.00">inlet</text>
</g>
<!-- GXXGO3&#45;&gt;inlet -->
<g id="edge37" class="edge">
<title>GXXGO3&#45;&gt;inlet</title>
<path fill="none" stroke="black" d="M362.55,-72C372.36,-72 382.55,-72 391.9,-72"/>
<polygon fill="black" stroke="black" points="392.02,-75.5 402.02,-72 392.02,-68.5 392.02,-75.5"/>
</g>
<!-- peril -->
<g id="node40" class="node">
<title>peril</title>
<ellipse fill="none" stroke="black" cx="314.43" cy="-18" rx="27" ry="18"/>
<text text-anchor="middle" x="314.43" y="-14.3" font-family="Times New Roman,serif" font-size="14.00">peril</text>
</g>
<!-- OOXOO2&#45;&gt;peril -->
<g id="edge39" class="edge">
<title>OOXOO2&#45;&gt;peril</title>
<path fill="none" stroke="black" d="M223.9,-36.38C241.46,-32.78 261.62,-28.64 278.36,-25.2"/>
<polygon fill="black" stroke="black" points="279.2,-28.6 288.29,-23.16 277.79,-21.74 279.2,-28.6"/>
</g>
</g>
</svg>
