<?xml version="1.0" encoding="UTF-8" standalone="no"?>
<!DOCTYPE svg PUBLIC "-//W3C//DTD SVG 1.1//EN"
 "http://www.w3.org/Graphics/SVG/1.1/DTD/svg11.dtd">
<!-- Generated by graphviz version 2.50.0 (20211204.2007)
 -->
<!-- Pages: 1 -->
<svg width="599pt" height="1664pt"
 viewBox="0.00 0.00 599.16 1664.00" xmlns="http://www.w3.org/2000/svg" xmlns:xlink="http://www.w3.org/1999/xlink">
<g id="graph0" class="graph" transform="scale(1 1) rotate(0) translate(4 1660)">
<polygon fill="white" stroke="transparent" points="-4,4 -4,-1660 595.16,-1660 595.16,4 -4,4"/>
<!-- XXOOX1 -->
<g id="node1" class="node">
<title>XXOOX1</title>
<ellipse fill="none" stroke="black" cx="48.1" cy="-504" rx="48.19" ry="18"/>
<text text-anchor="middle" x="48.1" y="-500.3" font-family="Times New Roman,serif" font-size="14.00">XXOOX1</text>
</g>
<!-- GOXOX2 -->
<g id="node2" class="node">
<title>GOXOX2</title>
<ellipse fill="none" stroke="black" cx="180.94" cy="-1584" rx="48.19" ry="18"/>
<text text-anchor="middle" x="180.94" y="-1580.3" font-family="Times New Roman,serif" font-size="14.00">GOXOX2</text>
</g>
<!-- XXOOX1&#45;&gt;GOXOX2 -->
<g id="edge1" class="edge">
<title>XXOOX1&#45;&gt;GOXOX2</title>
<path fill="none" stroke="black" d="M49.5,-522.06C52.32,-640.72 70.76,-1309.78 132.19,-1503 138.52,-1522.9 150.44,-1543.13 160.79,-1558.4"/>
<polygon fill="black" stroke="black" points="158.05,-1560.58 166.64,-1566.77 163.78,-1556.57 158.05,-1560.58"/>
</g>
<!-- OXXGX2 -->
<g id="node4" class="node">
<title>OXXGX2</title>
<ellipse fill="none" stroke="black" cx="180.94" cy="-1476" rx="48.19" ry="18"/>
<text text-anchor="middle" x="180.94" y="-1472.3" font-family="Times New Roman,serif" font-size="14.00">OXXGX2</text>
</g>
<!-- XXOOX1&#45;&gt;OXXGX2 -->
<g id="edge3" class="edge">
<title>XXOOX1&#45;&gt;OXXGX2</title>
<path fill="none" stroke="black" d="M50.06,-522.06C54.86,-607.98 78.1,-983.87 132.19,-1287 142.53,-1344.92 160.84,-1411.33 171.53,-1447.99"/>
<polygon fill="black" stroke="black" points="168.28,-1449.34 174.46,-1457.94 175,-1447.36 168.28,-1449.34"/>
</g>
<!-- GXXGX2 -->
<g id="node7" class="node">
<title>GXXGX2</title>
<ellipse fill="none" stroke="black" cx="180.94" cy="-1260" rx="48.19" ry="18"/>
<text text-anchor="middle" x="180.94" y="-1256.3" font-family="Times New Roman,serif" font-size="14.00">GXXGX2</text>
</g>
<!-- XXOOX1&#45;&gt;GXXGX2 -->
<g id="edge6" class="edge">
<title>XXOOX1&#45;&gt;GXXGX2</title>
<path fill="none" stroke="black" d="M50.14,-522.03C54.77,-596.97 75.74,-890.77 132.19,-1125 141.38,-1163.15 157.39,-1205.57 168.32,-1232.5"/>
<polygon fill="black" stroke="black" points="165.19,-1234.1 172.23,-1242.02 171.66,-1231.44 165.19,-1234.1"/>
</g>
<!-- GXXGO2 -->
<g id="node10" class="node">
<title>GXXGO2</title>
<ellipse fill="none" stroke="black" cx="180.94" cy="-1098" rx="48.19" ry="18"/>
<text text-anchor="middle" x="180.94" y="-1094.3" font-family="Times New Roman,serif" font-size="14.00">GXXGO2</text>
</g>
<!-- XXOOX1&#45;&gt;GXXGO2 -->
<g id="edge9" class="edge">
<title>XXOOX1&#45;&gt;GXXGO2</title>
<path fill="none" stroke="black" d="M50.56,-522.02C56.15,-586.61 78.58,-812.15 132.19,-990 140.81,-1018.6 155.08,-1049.62 165.78,-1071.05"/>
<polygon fill="black" stroke="black" points="162.77,-1072.84 170.41,-1080.18 169.01,-1069.68 162.77,-1072.84"/>
</g>
<!-- OXXOX2 -->
<g id="node12" class="node">
<title>OXXOX2</title>
<ellipse fill="none" stroke="black" cx="180.94" cy="-963" rx="48.19" ry="18"/>
<text text-anchor="middle" x="180.94" y="-959.3" font-family="Times New Roman,serif" font-size="14.00">OXXOX2</text>
</g>
<!-- XXOOX1&#45;&gt;OXXOX2 -->
<g id="edge11" class="edge">
<title>XXOOX1&#45;&gt;OXXOX2</title>
<path fill="none" stroke="black" d="M52.19,-522.23C61.35,-574.76 90.38,-730.65 132.19,-855 141.71,-883.31 155.86,-914.37 166.28,-935.89"/>
<polygon fill="black" stroke="black" points="163.24,-937.62 170.78,-945.06 169.52,-934.54 163.24,-937.62"/>
</g>
<!-- OGXGO2 -->
<g id="node15" class="node">
<title>OGXGO2</title>
<ellipse fill="none" stroke="black" cx="180.94" cy="-828" rx="48.99" ry="18"/>
<text text-anchor="middle" x="180.94" y="-824.3" font-family="Times New Roman,serif" font-size="14.00">OGXGO2</text>
</g>
<!-- XXOOX1&#45;&gt;OGXGO2 -->
<g id="edge14" class="edge">
<title>XXOOX1&#45;&gt;OGXGO2</title>
<path fill="none" stroke="black" d="M53.94,-522.17C65.17,-563.24 94.93,-665.99 132.19,-747 140.97,-766.09 153,-786.47 162.78,-802"/>
<polygon fill="black" stroke="black" points="159.91,-804.01 168.24,-810.55 165.8,-800.24 159.91,-804.01"/>
</g>
<!-- OGXGX2 -->
<g id="node20" class="node">
<title>OGXGX2</title>
<ellipse fill="none" stroke="black" cx="180.94" cy="-720" rx="48.19" ry="18"/>
<text text-anchor="middle" x="180.94" y="-716.3" font-family="Times New Roman,serif" font-size="14.00">OGXGX2</text>
</g>
<!-- XXOOX1&#45;&gt;OGXGX2 -->
<g id="edge19" class="edge">
<title>XXOOX1&#45;&gt;OGXGX2</title>
<path fill="none" stroke="black" d="M59.8,-521.68C82.77,-559.58 136.85,-648.87 163.92,-693.56"/>
<polygon fill="black" stroke="black" points="161.09,-695.64 169.27,-702.38 167.08,-692.02 161.09,-695.64"/>
</g>
<!-- OXXGO2 -->
<g id="node23" class="node">
<title>OXXGO2</title>
<ellipse fill="none" stroke="black" cx="180.94" cy="-612" rx="48.19" ry="18"/>
<text text-anchor="middle" x="180.94" y="-608.3" font-family="Times New Roman,serif" font-size="14.00">OXXGO2</text>
</g>
<!-- XXOOX1&#45;&gt;OXXGO2 -->
<g id="edge22" class="edge">
<title>XXOOX1&#45;&gt;OXXGO2</title>
<path fill="none" stroke="black" d="M64.21,-521.14C80.07,-538.52 106.25,-565.53 132.19,-585 135.58,-587.54 139.22,-590.01 142.94,-592.36"/>
<polygon fill="black" stroke="black" points="141.28,-595.45 151.66,-597.6 144.89,-589.45 141.28,-595.45"/>
</g>
<!-- OXXOO2 -->
<g id="node26" class="node">
<title>OXXOO2</title>
<ellipse fill="none" stroke="black" cx="180.94" cy="-558" rx="48.19" ry="18"/>
<text text-anchor="middle" x="180.94" y="-554.3" font-family="Times New Roman,serif" font-size="14.00">OXXOO2</text>
</g>
<!-- XXOOX1&#45;&gt;OXXOO2 -->
<g id="edge25" class="edge">
<title>XXOOX1&#45;&gt;OXXOO2</title>
<path fill="none" stroke="black" d="M81.1,-517.21C98.37,-524.34 119.88,-533.21 138.42,-540.87"/>
<polygon fill="black" stroke="black" points="137.23,-544.16 147.81,-544.74 139.9,-537.69 137.23,-544.16"/>
</g>
<!-- cabin -->
<g id="node33" class="node">
<title>cabin</title>
<ellipse fill="none" stroke="black" cx="180.94" cy="-504" rx="30.59" ry="18"/>
<text text-anchor="middle" x="180.94" y="-500.3" font-family="Times New Roman,serif" font-size="14.00">cabin</text>
</g>
<!-- XXOOX1&#45;&gt;cabin -->
<g id="edge32" class="edge">
<title>XXOOX1&#45;&gt;cabin</title>
<path fill="none" stroke="black" d="M96.33,-504C110.68,-504 126.3,-504 140.11,-504"/>
<polygon fill="black" stroke="black" points="140.27,-507.5 150.27,-504 140.27,-500.5 140.27,-507.5"/>
</g>
<!-- OOXGX2 -->
<g id="node36" class="node">
<title>OOXGX2</title>
<ellipse fill="none" stroke="black" cx="180.94" cy="-450" rx="48.19" ry="18"/>
<text text-anchor="middle" x="180.94" y="-446.3" font-family="Times New Roman,serif" font-size="14.00">OOXGX2</text>
</g>
<!-- XXOOX1&#45;&gt;OOXGX2 -->
<g id="edge35" class="edge">
<title>XXOOX1&#45;&gt;OOXGX2</title>
<path fill="none" stroke="black" d="M81.1,-490.79C98.37,-483.66 119.88,-474.79 138.42,-467.13"/>
<polygon fill="black" stroke="black" points="139.9,-470.31 147.81,-463.26 137.23,-463.84 139.9,-470.31"/>
</g>
<!-- GXXGG2 -->
<g id="node40" class="node">
<title>GXXGG2</title>
<ellipse fill="none" stroke="black" cx="180.94" cy="-396" rx="48.19" ry="18"/>
<text text-anchor="middle" x="180.94" y="-392.3" font-family="Times New Roman,serif" font-size="14.00">GXXGG2</text>
</g>
<!-- XXOOX1&#45;&gt;GXXGG2 -->
<g id="edge39" class="edge">
<title>XXOOX1&#45;&gt;GXXGG2</title>
<path fill="none" stroke="black" d="M64.21,-486.86C80.07,-469.48 106.25,-442.47 132.19,-423 135.58,-420.46 139.22,-417.99 142.94,-415.64"/>
<polygon fill="black" stroke="black" points="144.89,-418.55 151.66,-410.4 141.28,-412.55 144.89,-418.55"/>
</g>
<!-- GOXGX2 -->
<g id="node42" class="node">
<title>GOXGX2</title>
<ellipse fill="none" stroke="black" cx="180.94" cy="-342" rx="48.19" ry="18"/>
<text text-anchor="middle" x="180.94" y="-338.3" font-family="Times New Roman,serif" font-size="14.00">GOXGX2</text>
</g>
<!-- XXOOX1&#45;&gt;GOXGX2 -->
<g id="edge41" class="edge">
<title>XXOOX1&#45;&gt;GOXGX2</title>
<path fill="none" stroke="black" d="M56.67,-485.85C69.05,-457.92 95.92,-403.95 132.19,-369 135.04,-366.25 138.22,-363.69 141.56,-361.32"/>
<polygon fill="black" stroke="black" points="143.55,-364.2 150.05,-355.83 139.75,-358.32 143.55,-364.2"/>
</g>
<!-- GGXOX2 -->
<g id="node48" class="node">
<title>GGXOX2</title>
<ellipse fill="none" stroke="black" cx="180.94" cy="-288" rx="48.19" ry="18"/>
<text text-anchor="middle" x="180.94" y="-284.3" font-family="Times New Roman,serif" font-size="14.00">GGXOX2</text>
</g>
<!-- XXOOX1&#45;&gt;GGXOX2 -->
<g id="edge47" class="edge">
<title>XXOOX1&#45;&gt;GGXOX2</title>
<path fill="none" stroke="black" d="M52.95,-486.03C61.52,-449.79 85.19,-366.98 132.19,-315 134.7,-312.22 137.57,-309.66 140.62,-307.32"/>
<polygon fill="black" stroke="black" points="142.72,-310.13 149.02,-301.61 138.78,-304.34 142.72,-310.13"/>
</g>
<!-- GXGGX2 -->
<g id="node50" class="node">
<title>GXGGX2</title>
<ellipse fill="none" stroke="black" cx="180.94" cy="-234" rx="48.19" ry="18"/>
<text text-anchor="middle" x="180.94" y="-230.3" font-family="Times New Roman,serif" font-size="14.00">GXGGX2</text>
</g>
<!-- XXOOX1&#45;&gt;GXGGX2 -->
<g id="edge49" class="edge">
<title>XXOOX1&#45;&gt;GXGGX2</title>
<path fill="none" stroke="black" d="M50.87,-486.02C56,-442.63 74.38,-330.64 132.19,-261 134.45,-258.28 137.06,-255.78 139.86,-253.5"/>
<polygon fill="black" stroke="black" points="142.04,-256.25 148.18,-247.62 138,-250.53 142.04,-256.25"/>
</g>
<!-- OOXOX2 -->
<g id="node55" class="node">
<title>OOXOX2</title>
<ellipse fill="none" stroke="black" cx="180.94" cy="-180" rx="48.19" ry="18"/>
<text text-anchor="middle" x="180.94" y="-176.3" font-family="Times New Roman,serif" font-size="14.00">OOXOX2</text>
</g>
<!-- XXOOX1&#45;&gt;OOXOX2 -->
<g id="edge54" class="edge">
<title>XXOOX1&#45;&gt;OOXOX2</title>
<path fill="none" stroke="black" d="M49.52,-485.84C51.58,-435.94 63.52,-294.67 132.19,-207 134.37,-204.22 136.92,-201.67 139.69,-199.36"/>
<polygon fill="black" stroke="black" points="141.87,-202.1 147.95,-193.43 137.79,-196.42 141.87,-202.1"/>
</g>
<!-- GOXGG2 -->
<g id="node60" class="node">
<title>GOXGG2</title>
<ellipse fill="none" stroke="black" cx="180.94" cy="-126" rx="48.99" ry="18"/>
<text text-anchor="middle" x="180.94" y="-122.3" font-family="Times New Roman,serif" font-size="14.00">GOXGG2</text>
</g>
<!-- XXOOX1&#45;&gt;GOXGG2 -->
<g id="edge59" class="edge">
<title>XXOOX1&#45;&gt;GOXGG2</title>
<path fill="none" stroke="black" d="M48.55,-485.86C47.79,-430.2 52.45,-259.14 132.19,-153 134.31,-150.17 136.83,-147.6 139.57,-145.26"/>
<polygon fill="black" stroke="black" points="141.75,-148.01 147.78,-139.3 137.63,-142.34 141.75,-148.01"/>
</g>
<!-- OXGGX2 -->
<g id="node62" class="node">
<title>OXGGX2</title>
<ellipse fill="none" stroke="black" cx="180.94" cy="-72" rx="48.19" ry="18"/>
<text text-anchor="middle" x="180.94" y="-68.3" font-family="Times New Roman,serif" font-size="14.00">OXGGX2</text>
</g>
<!-- XXOOX1&#45;&gt;OXGGX2 -->
<g id="edge61" class="edge">
<title>XXOOX1&#45;&gt;OXGGX2</title>
<path fill="none" stroke="black" d="M50.81,-486.01C57.75,-416.06 85.72,-162.83 132.19,-99 134.27,-96.14 136.75,-93.54 139.48,-91.19"/>
<polygon fill="black" stroke="black" points="141.65,-93.94 147.65,-85.2 137.52,-88.29 141.65,-93.94"/>
</g>
<!-- OOXGO2 -->
<g id="node64" class="node">
<title>OOXGO2</title>
<ellipse fill="none" stroke="black" cx="180.94" cy="-18" rx="48.99" ry="18"/>
<text text-anchor="middle" x="180.94" y="-14.3" font-family="Times New Roman,serif" font-size="14.00">OOXGO2</text>
</g>
<!-- XXOOX1&#45;&gt;OOXGO2 -->
<g id="edge63" class="edge">
<title>XXOOX1&#45;&gt;OOXGO2</title>
<path fill="none" stroke="black" d="M50.33,-486C55.82,-410.3 80.08,-118.37 132.19,-45 134.18,-42.21 136.55,-39.66 139.16,-37.36"/>
<polygon fill="black" stroke="black" points="141.6,-39.9 147.55,-31.13 137.43,-34.28 141.6,-39.9"/>
</g>
<!-- cigar -->
<g id="node3" class="node">
<title>cigar</title>
<ellipse fill="none" stroke="black" cx="315.08" cy="-1638" rx="28.7" ry="18"/>
<text text-anchor="middle" x="315.08" y="-1634.3" font-family="Times New Roman,serif" font-size="14.00">cigar</text>
</g>
<!-- GOXOX2&#45;&gt;cigar -->
<g id="edge2" class="edge">
<title>GOXOX2&#45;&gt;cigar</title>
<path fill="none" stroke="black" d="M214.26,-1597.21C234.62,-1605.53 260.81,-1616.23 281.26,-1624.59"/>
<polygon fill="black" stroke="black" points="280.21,-1627.94 290.79,-1628.48 282.86,-1621.46 280.21,-1627.94"/>
</g>
<!-- XXXGG3 -->
<g id="node5" class="node">
<title>XXXGG3</title>
<ellipse fill="none" stroke="black" cx="315.08" cy="-1584" rx="48.19" ry="18"/>
<text text-anchor="middle" x="315.08" y="-1580.3" font-family="Times New Roman,serif" font-size="14.00">XXXGG3</text>
</g>
<!-- OXXGX2&#45;&gt;XXXGG3 -->
<g id="edge4" class="edge">
<title>OXXGX2&#45;&gt;XXXGG3</title>
<path fill="none" stroke="black" d="M197.17,-1493.16C213.16,-1510.55 239.54,-1537.58 265.68,-1557 269.12,-1559.55 272.81,-1562.03 276.58,-1564.38"/>
<polygon fill="black" stroke="black" points="275.03,-1567.53 285.42,-1569.63 278.6,-1561.51 275.03,-1567.53"/>
</g>
<!-- optic -->
<g id="node44" class="node">
<title>optic</title>
<ellipse fill="none" stroke="black" cx="315.08" cy="-1530" rx="29.5" ry="18"/>
<text text-anchor="middle" x="315.08" y="-1526.3" font-family="Times New Roman,serif" font-size="14.00">optic</text>
</g>
<!-- OXXGX2&#45;&gt;optic -->
<g id="edge43" class="edge">
<title>OXXGX2&#45;&gt;optic</title>
<path fill="none" stroke="black" d="M214.26,-1489.21C234.49,-1497.47 260.48,-1508.1 280.87,-1516.43"/>
<polygon fill="black" stroke="black" points="279.79,-1519.77 290.38,-1520.31 282.44,-1513.29 279.79,-1519.77"/>
</g>
<!-- OOOGG3 -->
<g id="node53" class="node">
<title>OOOGG3</title>
<ellipse fill="none" stroke="black" cx="315.08" cy="-1476" rx="49.29" ry="18"/>
<text text-anchor="middle" x="315.08" y="-1472.3" font-family="Times New Roman,serif" font-size="14.00">OOOGG3</text>
</g>
<!-- OXXGX2&#45;&gt;OOOGG3 -->
<g id="edge52" class="edge">
<title>OXXGX2&#45;&gt;OOOGG3</title>
<path fill="none" stroke="black" d="M229.27,-1476C237.68,-1476 246.53,-1476 255.21,-1476"/>
<polygon fill="black" stroke="black" points="255.29,-1479.5 265.29,-1476 255.29,-1472.5 255.29,-1479.5"/>
</g>
<!-- OXOGG3 -->
<g id="node57" class="node">
<title>OXOGG3</title>
<ellipse fill="none" stroke="black" cx="315.08" cy="-1422" rx="48.99" ry="18"/>
<text text-anchor="middle" x="315.08" y="-1418.3" font-family="Times New Roman,serif" font-size="14.00">OXOGG3</text>
</g>
<!-- OXXGX2&#45;&gt;OXOGG3 -->
<g id="edge56" class="edge">
<title>OXXGX2&#45;&gt;OXOGG3</title>
<path fill="none" stroke="black" d="M214.26,-1462.79C231.7,-1455.66 253.42,-1446.79 272.15,-1439.13"/>
<polygon fill="black" stroke="black" points="273.7,-1442.28 281.63,-1435.26 271.05,-1435.8 273.7,-1442.28"/>
</g>
<!-- mimic -->
<g id="node6" class="node">
<title>mimic</title>
<ellipse fill="none" stroke="black" cx="449.22" cy="-1584" rx="32.49" ry="18"/>
<text text-anchor="middle" x="449.22" y="-1580.3" font-family="Times New Roman,serif" font-size="14.00">mimic</text>
</g>
<!-- XXXGG3&#45;&gt;mimic -->
<g id="edge5" class="edge">
<title>XXXGG3&#45;&gt;mimic</title>
<path fill="none" stroke="black" d="M363.41,-1584C377.46,-1584 392.73,-1584 406.4,-1584"/>
<polygon fill="black" stroke="black" points="406.49,-1587.5 416.49,-1584 406.49,-1580.5 406.49,-1587.5"/>
</g>
<!-- GXXGX3 -->
<g id="node8" class="node">
<title>GXXGX3</title>
<ellipse fill="none" stroke="black" cx="315.08" cy="-1368" rx="48.19" ry="18"/>
<text text-anchor="middle" x="315.08" y="-1364.3" font-family="Times New Roman,serif" font-size="14.00">GXXGX3</text>
</g>
<!-- GXXGX2&#45;&gt;GXXGX3 -->
<g id="edge7" class="edge">
<title>GXXGX2&#45;&gt;GXXGX3</title>
<path fill="none" stroke="black" d="M197.17,-1277.16C213.16,-1294.55 239.54,-1321.58 265.68,-1341 269.12,-1343.55 272.81,-1346.03 276.58,-1348.38"/>
<polygon fill="black" stroke="black" points="275.03,-1351.53 285.42,-1353.63 278.6,-1345.51 275.03,-1351.53"/>
</g>
<!-- choir -->
<g id="node32" class="node">
<title>choir</title>
<ellipse fill="none" stroke="black" cx="315.08" cy="-1314" rx="29.5" ry="18"/>
<text text-anchor="middle" x="315.08" y="-1310.3" font-family="Times New Roman,serif" font-size="14.00">choir</text>
</g>
<!-- GXXGX2&#45;&gt;choir -->
<g id="edge31" class="edge">
<title>GXXGX2&#45;&gt;choir</title>
<path fill="none" stroke="black" d="M214.26,-1273.21C234.49,-1281.47 260.48,-1292.1 280.87,-1300.43"/>
<polygon fill="black" stroke="black" points="279.79,-1303.77 290.38,-1304.31 282.44,-1297.29 279.79,-1303.77"/>
</g>
<!-- GXOGX3 -->
<g id="node34" class="node">
<title>GXOGX3</title>
<ellipse fill="none" stroke="black" cx="315.08" cy="-1260" rx="48.19" ry="18"/>
<text text-anchor="middle" x="315.08" y="-1256.3" font-family="Times New Roman,serif" font-size="14.00">GXOGX3</text>
</g>
<!-- GXXGX2&#45;&gt;GXOGX3 -->
<g id="edge33" class="edge">
<title>GXXGX2&#45;&gt;GXOGX3</title>
<path fill="none" stroke="black" d="M229.27,-1260C238.09,-1260 247.4,-1260 256.5,-1260"/>
<polygon fill="black" stroke="black" points="256.63,-1263.5 266.63,-1260 256.63,-1256.5 256.63,-1263.5"/>
</g>
<!-- GXOGO3 -->
<g id="node45" class="node">
<title>GXOGO3</title>
<ellipse fill="none" stroke="black" cx="315.08" cy="-1206" rx="48.99" ry="18"/>
<text text-anchor="middle" x="315.08" y="-1202.3" font-family="Times New Roman,serif" font-size="14.00">GXOGO3</text>
</g>
<!-- GXXGX2&#45;&gt;GXOGO3 -->
<g id="edge44" class="edge">
<title>GXXGX2&#45;&gt;GXOGO3</title>
<path fill="none" stroke="black" d="M214.26,-1246.79C231.7,-1239.66 253.42,-1230.79 272.15,-1223.13"/>
<polygon fill="black" stroke="black" points="273.7,-1226.28 281.63,-1219.26 271.05,-1219.8 273.7,-1226.28"/>
</g>
<!-- civic -->
<g id="node9" class="node">
<title>civic</title>
<ellipse fill="none" stroke="black" cx="449.22" cy="-1368" rx="27.9" ry="18"/>
<text text-anchor="middle" x="449.22" y="-1364.3" font-family="Times New Roman,serif" font-size="14.00">civic</text>
</g>
<!-- GXXGX3&#45;&gt;civic -->
<g id="edge8" class="edge">
<title>GXXGX3&#45;&gt;civic</title>
<path fill="none" stroke="black" d="M363.41,-1368C379.02,-1368 396.16,-1368 410.92,-1368"/>
<polygon fill="black" stroke="black" points="411.18,-1371.5 421.18,-1368 411.18,-1364.5 411.18,-1371.5"/>
</g>
<!-- conic -->
<g id="node11" class="node">
<title>conic</title>
<ellipse fill="none" stroke="black" cx="315.08" cy="-1152" rx="30.59" ry="18"/>
<text text-anchor="middle" x="315.08" y="-1148.3" font-family="Times New Roman,serif" font-size="14.00">conic</text>
</g>
<!-- GXXGO2&#45;&gt;conic -->
<g id="edge10" class="edge">
<title>GXXGO2&#45;&gt;conic</title>
<path fill="none" stroke="black" d="M214.26,-1111.21C234.22,-1119.37 259.8,-1129.82 280.07,-1138.1"/>
<polygon fill="black" stroke="black" points="278.96,-1141.43 289.54,-1141.97 281.61,-1134.95 278.96,-1141.43"/>
</g>
<!-- GXGGG3 -->
<g id="node18" class="node">
<title>GXGGG3</title>
<ellipse fill="none" stroke="black" cx="315.08" cy="-1098" rx="48.99" ry="18"/>
<text text-anchor="middle" x="315.08" y="-1094.3" font-family="Times New Roman,serif" font-size="14.00">GXGGG3</text>
</g>
<!-- GXXGO2&#45;&gt;GXGGG3 -->
<g id="edge17" class="edge">
<title>GXXGO2&#45;&gt;GXGGG3</title>
<path fill="none" stroke="black" d="M229.27,-1098C237.99,-1098 247.18,-1098 256.16,-1098"/>
<polygon fill="black" stroke="black" points="256.19,-1101.5 266.19,-1098 256.19,-1094.5 256.19,-1101.5"/>
</g>
<!-- OXGXG3 -->
<g id="node13" class="node">
<title>OXGXG3</title>
<ellipse fill="none" stroke="black" cx="315.08" cy="-1044" rx="48.19" ry="18"/>
<text text-anchor="middle" x="315.08" y="-1040.3" font-family="Times New Roman,serif" font-size="14.00">OXGXG3</text>
</g>
<!-- OXXOX2&#45;&gt;OXGXG3 -->
<g id="edge12" class="edge">
<title>OXXOX2&#45;&gt;OXGXG3</title>
<path fill="none" stroke="black" d="M205.51,-978.77C222.15,-989.76 245.07,-1004.62 265.68,-1017 269.64,-1019.38 273.82,-1021.81 277.99,-1024.2"/>
<polygon fill="black" stroke="black" points="276.6,-1027.43 287.03,-1029.31 280.04,-1021.34 276.6,-1027.43"/>
</g>
<!-- OXGXX3 -->
<g id="node38" class="node">
<title>OXGXX3</title>
<ellipse fill="none" stroke="black" cx="315.08" cy="-990" rx="48.19" ry="18"/>
<text text-anchor="middle" x="315.08" y="-986.3" font-family="Times New Roman,serif" font-size="14.00">OXGXX3</text>
</g>
<!-- OXXOX2&#45;&gt;OXGXX3 -->
<g id="edge37" class="edge">
<title>OXXOX2&#45;&gt;OXGXX3</title>
<path fill="none" stroke="black" d="M223.38,-971.47C235.69,-973.98 249.32,-976.77 262.2,-979.4"/>
<polygon fill="black" stroke="black" points="261.83,-982.9 272.32,-981.47 263.23,-976.04 261.83,-982.9"/>
</g>
<!-- itchy -->
<g id="node52" class="node">
<title>itchy</title>
<ellipse fill="none" stroke="black" cx="315.08" cy="-936" rx="28.7" ry="18"/>
<text text-anchor="middle" x="315.08" y="-932.3" font-family="Times New Roman,serif" font-size="14.00">itchy</text>
</g>
<!-- OXXOX2&#45;&gt;itchy -->
<g id="edge51" class="edge">
<title>OXXOX2&#45;&gt;itchy</title>
<path fill="none" stroke="black" d="M223.38,-954.53C240.81,-950.97 260.9,-946.87 277.74,-943.43"/>
<polygon fill="black" stroke="black" points="278.65,-946.81 287.75,-941.38 277.25,-939.95 278.65,-946.81"/>
</g>
<!-- picky -->
<g id="node14" class="node">
<title>picky</title>
<ellipse fill="none" stroke="black" cx="449.22" cy="-1044" rx="30.59" ry="18"/>
<text text-anchor="middle" x="449.22" y="-1040.3" font-family="Times New Roman,serif" font-size="14.00">picky</text>
</g>
<!-- OXGXG3&#45;&gt;picky -->
<g id="edge13" class="edge">
<title>OXGXG3&#45;&gt;picky</title>
<path fill="none" stroke="black" d="M363.41,-1044C378.05,-1044 394.02,-1044 408.12,-1044"/>
<polygon fill="black" stroke="black" points="408.48,-1047.5 418.48,-1044 408.48,-1040.5 408.48,-1047.5"/>
</g>
<!-- XGGGG3 -->
<g id="node16" class="node">
<title>XGGGG3</title>
<ellipse fill="none" stroke="black" cx="315.08" cy="-882" rx="48.99" ry="18"/>
<text text-anchor="middle" x="315.08" y="-878.3" font-family="Times New Roman,serif" font-size="14.00">XGGGG3</text>
</g>
<!-- OGXGO2&#45;&gt;XGGGG3 -->
<g id="edge15" class="edge">
<title>OGXGO2&#45;&gt;XGGGG3</title>
<path fill="none" stroke="black" d="M214.26,-841.21C231.7,-848.34 253.42,-857.21 272.15,-864.87"/>
<polygon fill="black" stroke="black" points="271.05,-868.2 281.63,-868.74 273.7,-861.72 271.05,-868.2"/>
</g>
<!-- manic -->
<g id="node47" class="node">
<title>manic</title>
<ellipse fill="none" stroke="black" cx="315.08" cy="-828" rx="32.49" ry="18"/>
<text text-anchor="middle" x="315.08" y="-824.3" font-family="Times New Roman,serif" font-size="14.00">manic</text>
</g>
<!-- OGXGO2&#45;&gt;manic -->
<g id="edge46" class="edge">
<title>OGXGO2&#45;&gt;manic</title>
<path fill="none" stroke="black" d="M230.02,-828C243.76,-828 258.62,-828 271.98,-828"/>
<polygon fill="black" stroke="black" points="272.31,-831.5 282.31,-828 272.31,-824.5 272.31,-831.5"/>
</g>
<!-- panic -->
<g id="node17" class="node">
<title>panic</title>
<ellipse fill="none" stroke="black" cx="449.22" cy="-882" rx="30.59" ry="18"/>
<text text-anchor="middle" x="449.22" y="-878.3" font-family="Times New Roman,serif" font-size="14.00">panic</text>
</g>
<!-- XGGGG3&#45;&gt;panic -->
<g id="edge16" class="edge">
<title>XGGGG3&#45;&gt;panic</title>
<path fill="none" stroke="black" d="M364.16,-882C378.62,-882 394.34,-882 408.22,-882"/>
<polygon fill="black" stroke="black" points="408.43,-885.5 418.43,-882 408.43,-878.5 408.43,-885.5"/>
</g>
<!-- cynic -->
<g id="node19" class="node">
<title>cynic</title>
<ellipse fill="none" stroke="black" cx="449.22" cy="-1098" rx="30.59" ry="18"/>
<text text-anchor="middle" x="449.22" y="-1094.3" font-family="Times New Roman,serif" font-size="14.00">cynic</text>
</g>
<!-- GXGGG3&#45;&gt;cynic -->
<g id="edge18" class="edge">
<title>GXGGG3&#45;&gt;cynic</title>
<path fill="none" stroke="black" d="M364.16,-1098C378.62,-1098 394.34,-1098 408.22,-1098"/>
<polygon fill="black" stroke="black" points="408.43,-1101.5 418.43,-1098 408.43,-1094.5 408.43,-1101.5"/>
</g>
<!-- XGXGO3 -->
<g id="node21" class="node">
<title>XGXGO3</title>
<ellipse fill="none" stroke="black" cx="315.08" cy="-774" rx="48.19" ry="18"/>
<text text-anchor="middle" x="315.08" y="-770.3" font-family="Times New Roman,serif" font-size="14.00">XGXGO3</text>
</g>
<!-- OGXGX2&#45;&gt;XGXGO3 -->
<g id="edge20" class="edge">
<title>OGXGX2&#45;&gt;XGXGO3</title>
<path fill="none" stroke="black" d="M214.26,-733.21C231.7,-740.34 253.42,-749.21 272.15,-756.87"/>
<polygon fill="black" stroke="black" points="271.05,-760.2 281.63,-760.74 273.7,-753.72 271.05,-760.2"/>
</g>
<!-- magic -->
<g id="node31" class="node">
<title>magic</title>
<ellipse fill="none" stroke="black" cx="315.08" cy="-720" rx="32.49" ry="18"/>
<text text-anchor="middle" x="315.08" y="-716.3" font-family="Times New Roman,serif" font-size="14.00">magic</text>
</g>
<!-- OGXGX2&#45;&gt;magic -->
<g id="edge30" class="edge">
<title>OGXGX2&#45;&gt;magic</title>
<path fill="none" stroke="black" d="M229.27,-720C243.32,-720 258.59,-720 272.26,-720"/>
<polygon fill="black" stroke="black" points="272.35,-723.5 282.35,-720 272.35,-716.5 272.35,-723.5"/>
</g>
<!-- tacit -->
<g id="node22" class="node">
<title>tacit</title>
<ellipse fill="none" stroke="black" cx="449.22" cy="-774" rx="27" ry="18"/>
<text text-anchor="middle" x="449.22" y="-770.3" font-family="Times New Roman,serif" font-size="14.00">tacit</text>
</g>
<!-- XGXGO3&#45;&gt;tacit -->
<g id="edge21" class="edge">
<title>XGXGO3&#45;&gt;tacit</title>
<path fill="none" stroke="black" d="M363.41,-774C379.26,-774 396.68,-774 411.59,-774"/>
<polygon fill="black" stroke="black" points="411.94,-777.5 421.94,-774 411.94,-770.5 411.94,-777.5"/>
</g>
<!-- XXOOX3 -->
<g id="node24" class="node">
<title>XXOOX3</title>
<ellipse fill="none" stroke="black" cx="315.08" cy="-666" rx="48.19" ry="18"/>
<text text-anchor="middle" x="315.08" y="-662.3" font-family="Times New Roman,serif" font-size="14.00">XXOOX3</text>
</g>
<!-- OXXGO2&#45;&gt;XXOOX3 -->
<g id="edge23" class="edge">
<title>OXXGO2&#45;&gt;XXOOX3</title>
<path fill="none" stroke="black" d="M214.26,-625.21C231.7,-632.34 253.42,-641.21 272.15,-648.87"/>
<polygon fill="black" stroke="black" points="271.05,-652.2 281.63,-652.74 273.7,-645.72 271.05,-652.2"/>
</g>
<!-- XOOOX3 -->
<g id="node28" class="node">
<title>XOOOX3</title>
<ellipse fill="none" stroke="black" cx="315.08" cy="-612" rx="48.19" ry="18"/>
<text text-anchor="middle" x="315.08" y="-608.3" font-family="Times New Roman,serif" font-size="14.00">XOOOX3</text>
</g>
<!-- OXXGO2&#45;&gt;XOOOX3 -->
<g id="edge27" class="edge">
<title>OXXGO2&#45;&gt;XOOOX3</title>
<path fill="none" stroke="black" d="M229.27,-612C238.09,-612 247.4,-612 256.5,-612"/>
<polygon fill="black" stroke="black" points="256.63,-615.5 266.63,-612 256.63,-608.5 256.63,-615.5"/>
</g>
<!-- ionic -->
<g id="node25" class="node">
<title>ionic</title>
<ellipse fill="none" stroke="black" cx="449.22" cy="-666" rx="28.7" ry="18"/>
<text text-anchor="middle" x="449.22" y="-662.3" font-family="Times New Roman,serif" font-size="14.00">ionic</text>
</g>
<!-- XXOOX3&#45;&gt;ionic -->
<g id="edge24" class="edge">
<title>XXOOX3&#45;&gt;ionic</title>
<path fill="none" stroke="black" d="M363.41,-666C378.79,-666 395.64,-666 410.24,-666"/>
<polygon fill="black" stroke="black" points="410.42,-669.5 420.42,-666 410.42,-662.5 410.42,-669.5"/>
</g>
<!-- incur -->
<g id="node27" class="node">
<title>incur</title>
<ellipse fill="none" stroke="black" cx="315.08" cy="-558" rx="28.7" ry="18"/>
<text text-anchor="middle" x="315.08" y="-554.3" font-family="Times New Roman,serif" font-size="14.00">incur</text>
</g>
<!-- OXXOO2&#45;&gt;incur -->
<g id="edge26" class="edge">
<title>OXXOO2&#45;&gt;incur</title>
<path fill="none" stroke="black" d="M229.27,-558C244.64,-558 261.5,-558 276.1,-558"/>
<polygon fill="black" stroke="black" points="276.28,-561.5 286.28,-558 276.28,-554.5 276.28,-561.5"/>
</g>
<!-- GXGGG4 -->
<g id="node29" class="node">
<title>GXGGG4</title>
<ellipse fill="none" stroke="black" cx="449.22" cy="-612" rx="48.99" ry="18"/>
<text text-anchor="middle" x="449.22" y="-608.3" font-family="Times New Roman,serif" font-size="14.00">GXGGG4</text>
</g>
<!-- XOOOX3&#45;&gt;GXGGG4 -->
<g id="edge28" class="edge">
<title>XOOOX3&#45;&gt;GXGGG4</title>
<path fill="none" stroke="black" d="M363.41,-612C372.13,-612 381.32,-612 390.31,-612"/>
<polygon fill="black" stroke="black" points="390.33,-615.5 400.33,-612 390.33,-608.5 390.33,-615.5"/>
</g>
<!-- tonic -->
<g id="node59" class="node">
<title>tonic</title>
<ellipse fill="none" stroke="black" cx="449.22" cy="-558" rx="28.7" ry="18"/>
<text text-anchor="middle" x="449.22" y="-554.3" font-family="Times New Roman,serif" font-size="14.00">tonic</text>
</g>
<!-- XOOOX3&#45;&gt;tonic -->
<g id="edge58" class="edge">
<title>XOOOX3&#45;&gt;tonic</title>
<path fill="none" stroke="black" d="M348.4,-598.79C368.76,-590.47 394.96,-579.77 415.4,-571.41"/>
<polygon fill="black" stroke="black" points="417,-574.54 424.93,-567.52 414.35,-568.06 417,-574.54"/>
</g>
<!-- tunic -->
<g id="node30" class="node">
<title>tunic</title>
<ellipse fill="none" stroke="black" cx="562.56" cy="-612" rx="28.7" ry="18"/>
<text text-anchor="middle" x="562.56" y="-608.3" font-family="Times New Roman,serif" font-size="14.00">tunic</text>
</g>
<!-- GXGGG4&#45;&gt;tunic -->
<g id="edge29" class="edge">
<title>GXGGG4&#45;&gt;tunic</title>
<path fill="none" stroke="black" d="M498.09,-612C506.62,-612 515.41,-612 523.62,-612"/>
<polygon fill="black" stroke="black" points="523.65,-615.5 533.65,-612 523.65,-608.5 523.65,-615.5"/>
</g>
<!-- comic -->
<g id="node35" class="node">
<title>comic</title>
<ellipse fill="none" stroke="black" cx="449.22" cy="-1260" rx="33.29" ry="18"/>
<text text-anchor="middle" x="449.22" y="-1256.3" font-family="Times New Roman,serif" font-size="14.00">comic</text>
</g>
<!-- GXOGX3&#45;&gt;comic -->
<g id="edge34" class="edge">
<title>GXOGX3&#45;&gt;comic</title>
<path fill="none" stroke="black" d="M363.41,-1260C377.08,-1260 391.93,-1260 405.31,-1260"/>
<polygon fill="black" stroke="black" points="405.69,-1263.5 415.69,-1260 405.69,-1256.5 405.69,-1263.5"/>
</g>
<!-- acrid -->
<g id="node37" class="node">
<title>acrid</title>
<ellipse fill="none" stroke="black" cx="315.08" cy="-504" rx="28.7" ry="18"/>
<text text-anchor="middle" x="315.08" y="-500.3" font-family="Times New Roman,serif" font-size="14.00">acrid</text>
</g>
<!-- OOXGX2&#45;&gt;acrid -->
<g id="edge36" class="edge">
<title>OOXGX2&#45;&gt;acrid</title>
<path fill="none" stroke="black" d="M214.26,-463.21C234.62,-471.53 260.81,-482.23 281.26,-490.59"/>
<polygon fill="black" stroke="black" points="280.21,-493.94 290.79,-494.48 282.86,-487.46 280.21,-493.94"/>
</g>
<!-- GOXGX3 -->
<g id="node66" class="node">
<title>GOXGX3</title>
<ellipse fill="none" stroke="black" cx="315.08" cy="-450" rx="48.19" ry="18"/>
<text text-anchor="middle" x="315.08" y="-446.3" font-family="Times New Roman,serif" font-size="14.00">GOXGX3</text>
</g>
<!-- OOXGX2&#45;&gt;GOXGX3 -->
<g id="edge65" class="edge">
<title>OOXGX2&#45;&gt;GOXGX3</title>
<path fill="none" stroke="black" d="M229.27,-450C238.09,-450 247.4,-450 256.5,-450"/>
<polygon fill="black" stroke="black" points="256.63,-453.5 266.63,-450 256.63,-446.5 256.63,-453.5"/>
</g>
<!-- micro -->
<g id="node39" class="node">
<title>micro</title>
<ellipse fill="none" stroke="black" cx="449.22" cy="-990" rx="31.7" ry="18"/>
<text text-anchor="middle" x="449.22" y="-986.3" font-family="Times New Roman,serif" font-size="14.00">micro</text>
</g>
<!-- OXGXX3&#45;&gt;micro -->
<g id="edge38" class="edge">
<title>OXGXX3&#45;&gt;micro</title>
<path fill="none" stroke="black" d="M363.41,-990C377.69,-990 393.25,-990 407.09,-990"/>
<polygon fill="black" stroke="black" points="407.29,-993.5 417.29,-990 407.29,-986.5 407.29,-993.5"/>
</g>
<!-- cumin -->
<g id="node41" class="node">
<title>cumin</title>
<ellipse fill="none" stroke="black" cx="315.08" cy="-396" rx="32.49" ry="18"/>
<text text-anchor="middle" x="315.08" y="-392.3" font-family="Times New Roman,serif" font-size="14.00">cumin</text>
</g>
<!-- GXXGG2&#45;&gt;cumin -->
<g id="edge40" class="edge">
<title>GXXGG2&#45;&gt;cumin</title>
<path fill="none" stroke="black" d="M229.27,-396C243.32,-396 258.59,-396 272.26,-396"/>
<polygon fill="black" stroke="black" points="272.35,-399.5 282.35,-396 272.35,-392.5 272.35,-399.5"/>
</g>
<!-- chair -->
<g id="node43" class="node">
<title>chair</title>
<ellipse fill="none" stroke="black" cx="315.08" cy="-342" rx="28.7" ry="18"/>
<text text-anchor="middle" x="315.08" y="-338.3" font-family="Times New Roman,serif" font-size="14.00">chair</text>
</g>
<!-- GOXGX2&#45;&gt;chair -->
<g id="edge42" class="edge">
<title>GOXGX2&#45;&gt;chair</title>
<path fill="none" stroke="black" d="M229.27,-342C244.64,-342 261.5,-342 276.1,-342"/>
<polygon fill="black" stroke="black" points="276.28,-345.5 286.28,-342 276.28,-338.5 276.28,-345.5"/>
</g>
<!-- curio -->
<g id="node46" class="node">
<title>curio</title>
<ellipse fill="none" stroke="black" cx="449.22" cy="-1206" rx="29.5" ry="18"/>
<text text-anchor="middle" x="449.22" y="-1202.3" font-family="Times New Roman,serif" font-size="14.00">curio</text>
</g>
<!-- GXOGO3&#45;&gt;curio -->
<g id="edge45" class="edge">
<title>GXOGO3&#45;&gt;curio</title>
<path fill="none" stroke="black" d="M364.16,-1206C378.98,-1206 395.1,-1206 409.23,-1206"/>
<polygon fill="black" stroke="black" points="409.59,-1209.5 419.59,-1206 409.59,-1202.5 409.59,-1209.5"/>
</g>
<!-- cacti -->
<g id="node49" class="node">
<title>cacti</title>
<ellipse fill="none" stroke="black" cx="315.08" cy="-288" rx="27.9" ry="18"/>
<text text-anchor="middle" x="315.08" y="-284.3" font-family="Times New Roman,serif" font-size="14.00">cacti</text>
</g>
<!-- GGXOX2&#45;&gt;cacti -->
<g id="edge48" class="edge">
<title>GGXOX2&#45;&gt;cacti</title>
<path fill="none" stroke="black" d="M229.27,-288C244.88,-288 262.02,-288 276.77,-288"/>
<polygon fill="black" stroke="black" points="277.04,-291.5 287.04,-288 277.04,-284.5 277.04,-291.5"/>
</g>
<!-- cubic -->
<g id="node51" class="node">
<title>cubic</title>
<ellipse fill="none" stroke="black" cx="315.08" cy="-234" rx="30.59" ry="18"/>
<text text-anchor="middle" x="315.08" y="-230.3" font-family="Times New Roman,serif" font-size="14.00">cubic</text>
</g>
<!-- GXGGX2&#45;&gt;cubic -->
<g id="edge50" class="edge">
<title>GXGGX2&#45;&gt;cubic</title>
<path fill="none" stroke="black" d="M229.27,-234C243.91,-234 259.88,-234 273.97,-234"/>
<polygon fill="black" stroke="black" points="274.34,-237.5 284.34,-234 274.34,-230.5 274.34,-237.5"/>
</g>
<!-- topic -->
<g id="node54" class="node">
<title>topic</title>
<ellipse fill="none" stroke="black" cx="449.22" cy="-1476" rx="29.5" ry="18"/>
<text text-anchor="middle" x="449.22" y="-1472.3" font-family="Times New Roman,serif" font-size="14.00">topic</text>
</g>
<!-- OOOGG3&#45;&gt;topic -->
<g id="edge53" class="edge">
<title>OOOGG3&#45;&gt;topic</title>
<path fill="none" stroke="black" d="M364.53,-1476C379.32,-1476 395.39,-1476 409.45,-1476"/>
<polygon fill="black" stroke="black" points="409.76,-1479.5 419.76,-1476 409.76,-1472.5 409.76,-1479.5"/>
</g>
<!-- vicar -->
<g id="node56" class="node">
<title>vicar</title>
<ellipse fill="none" stroke="black" cx="315.08" cy="-180" rx="28.7" ry="18"/>
<text text-anchor="middle" x="315.08" y="-176.3" font-family="Times New Roman,serif" font-size="14.00">vicar</text>
</g>
<!-- OOXOX2&#45;&gt;vicar -->
<g id="edge55" class="edge">
<title>OOXOX2&#45;&gt;vicar</title>
<path fill="none" stroke="black" d="M229.27,-180C244.64,-180 261.5,-180 276.1,-180"/>
<polygon fill="black" stroke="black" points="276.28,-183.5 286.28,-180 276.28,-176.5 276.28,-183.5"/>
</g>
<!-- toxic -->
<g id="node58" class="node">
<title>toxic</title>
<ellipse fill="none" stroke="black" cx="449.22" cy="-1422" rx="28.7" ry="18"/>
<text text-anchor="middle" x="449.22" y="-1418.3" font-family="Times New Roman,serif" font-size="14.00">toxic</text>
</g>
<!-- OXOGG3&#45;&gt;toxic -->
<g id="edge57" class="edge">
<title>OXOGG3&#45;&gt;toxic</title>
<path fill="none" stroke="black" d="M364.16,-1422C379.36,-1422 395.94,-1422 410.32,-1422"/>
<polygon fill="black" stroke="black" points="410.36,-1425.5 420.36,-1422 410.36,-1418.5 410.36,-1425.5"/>
</g>
<!-- chain -->
<g id="node61" class="node">
<title>chain</title>
<ellipse fill="none" stroke="black" cx="315.08" cy="-126" rx="29.8" ry="18"/>
<text text-anchor="middle" x="315.08" y="-122.3" font-family="Times New Roman,serif" font-size="14.00">chain</text>
</g>
<!-- GOXGG2&#45;&gt;chain -->
<g id="edge60" class="edge">
<title>GOXGG2&#45;&gt;chain</title>
<path fill="none" stroke="black" d="M230.02,-126C244.72,-126 260.71,-126 274.75,-126"/>
<polygon fill="black" stroke="black" points="275.06,-129.5 285.06,-126 275.06,-122.5 275.06,-129.5"/>
</g>
<!-- pubic -->
<g id="node63" class="node">
<title>pubic</title>
<ellipse fill="none" stroke="black" cx="315.08" cy="-72" rx="31.4" ry="18"/>
<text text-anchor="middle" x="315.08" y="-68.3" font-family="Times New Roman,serif" font-size="14.00">pubic</text>
</g>
<!-- OXGGX2&#45;&gt;pubic -->
<g id="edge62" class="edge">
<title>OXGGX2&#45;&gt;pubic</title>
<path fill="none" stroke="black" d="M229.27,-72C243.67,-72 259.36,-72 273.29,-72"/>
<polygon fill="black" stroke="black" points="273.55,-75.5 283.55,-72 273.55,-68.5 273.55,-75.5"/>
</g>
<!-- antic -->
<g id="node65" class="node">
<title>antic</title>
<ellipse fill="none" stroke="black" cx="315.08" cy="-18" rx="27.9" ry="18"/>
<text text-anchor="middle" x="315.08" y="-14.3" font-family="Times New Roman,serif" font-size="14.00">antic</text>
</g>
<!-- OOXGO2&#45;&gt;antic -->
<g id="edge64" class="edge">
<title>OOXGO2&#45;&gt;antic</title>
<path fill="none" stroke="black" d="M230.02,-18C245.46,-18 262.31,-18 276.85,-18"/>
<polygon fill="black" stroke="black" points="276.98,-21.5 286.98,-18 276.98,-14.5 276.98,-21.5"/>
</g>
<!-- attic -->
<g id="node67" class="node">
<title>attic</title>
<ellipse fill="none" stroke="black" cx="449.22" cy="-450" rx="27" ry="18"/>
<text text-anchor="middle" x="449.22" y="-446.3" font-family="Times New Roman,serif" font-size="14.00">attic</text>
</g>
<!-- GOXGX3&#45;&gt;attic -->
<g id="edge66" class="edge">
<title>GOXGX3&#45;&gt;attic</title>
<path fill="none" stroke="black" d="M363.41,-450C379.26,-450 396.68,-450 411.59,-450"/>
<polygon fill="black" stroke="black" points="411.94,-453.5 421.94,-450 411.94,-446.5 411.94,-453.5"/>
</g>
</g>
</svg>
