<?xml version="1.0" encoding="UTF-8" standalone="no"?>
<!DOCTYPE svg PUBLIC "-//W3C//DTD SVG 1.1//EN"
 "http://www.w3.org/Graphics/SVG/1.1/DTD/svg11.dtd">
<!-- Generated by graphviz version 2.50.0 (20211204.2007)
 -->
<!-- Pages: 1 -->
<svg width="472pt" height="1016pt"
 viewBox="0.00 0.00 472.17 1016.00" xmlns="http://www.w3.org/2000/svg" xmlns:xlink="http://www.w3.org/1999/xlink">
<g id="graph0" class="graph" transform="scale(1 1) rotate(0) translate(4 1012)">
<polygon fill="white" stroke="transparent" points="-4,4 -4,-1012 468.17,-1012 468.17,4 -4,4"/>
<!-- GXGXX1 -->
<g id="node1" class="node">
<title>GXGXX1</title>
<ellipse fill="none" stroke="black" cx="48.1" cy="-531" rx="48.19" ry="18"/>
<text text-anchor="middle" x="48.1" y="-527.3" font-family="Times New Roman,serif" font-size="14.00">GXGXX1</text>
</g>
<!-- stink -->
<g id="node2" class="node">
<title>stink</title>
<ellipse fill="none" stroke="black" cx="180.94" cy="-949" rx="27.9" ry="18"/>
<text text-anchor="middle" x="180.94" y="-945.3" font-family="Times New Roman,serif" font-size="14.00">stink</text>
</g>
<!-- GXGXX1&#45;&gt;stink -->
<g id="edge1" class="edge">
<title>GXGXX1&#45;&gt;stink</title>
<path fill="none" stroke="black" d="M50.99,-549.3C58.39,-618.14 87.25,-860.72 132.19,-922 136.11,-927.34 141.42,-931.77 147.08,-935.4"/>
<polygon fill="black" stroke="black" points="145.68,-938.62 156.12,-940.44 149.09,-932.51 145.68,-938.62"/>
</g>
<!-- GOGGX2 -->
<g id="node3" class="node">
<title>GOGGX2</title>
<ellipse fill="none" stroke="black" cx="180.94" cy="-895" rx="48.99" ry="18"/>
<text text-anchor="middle" x="180.94" y="-891.3" font-family="Times New Roman,serif" font-size="14.00">GOGGX2</text>
</g>
<!-- GXGXX1&#45;&gt;GOGGX2 -->
<g id="edge2" class="edge">
<title>GXGXX1&#45;&gt;GOGGX2</title>
<path fill="none" stroke="black" d="M48.77,-549.19C48.73,-603.45 55.35,-766.7 132.19,-868 134.33,-870.82 136.85,-873.38 139.6,-875.72"/>
<polygon fill="black" stroke="black" points="137.67,-878.64 147.82,-881.67 141.77,-872.97 137.67,-878.64"/>
</g>
<!-- GGGGX2 -->
<g id="node5" class="node">
<title>GGGGX2</title>
<ellipse fill="none" stroke="black" cx="180.94" cy="-841" rx="48.99" ry="18"/>
<text text-anchor="middle" x="180.94" y="-837.3" font-family="Times New Roman,serif" font-size="14.00">GGGGX2</text>
</g>
<!-- GXGXX1&#45;&gt;GGGGX2 -->
<g id="edge4" class="edge">
<title>GXGXX1&#45;&gt;GGGGX2</title>
<path fill="none" stroke="black" d="M53.36,-549.1C63.52,-590.46 91.36,-694.47 132.19,-774 139.65,-788.52 149.96,-803.43 159.09,-815.48"/>
<polygon fill="black" stroke="black" points="156.58,-817.95 165.48,-823.71 162.11,-813.66 156.58,-817.95"/>
</g>
<!-- GXGXO2 -->
<g id="node7" class="node">
<title>GXGXO2</title>
<ellipse fill="none" stroke="black" cx="180.94" cy="-747" rx="48.19" ry="18"/>
<text text-anchor="middle" x="180.94" y="-743.3" font-family="Times New Roman,serif" font-size="14.00">GXGXO2</text>
</g>
<!-- GXGXX1&#45;&gt;GXGXO2 -->
<g id="edge6" class="edge">
<title>GXGXX1&#45;&gt;GXGXO2</title>
<path fill="none" stroke="black" d="M59.8,-548.68C82.77,-586.58 136.85,-675.87 163.92,-720.56"/>
<polygon fill="black" stroke="black" points="161.09,-722.64 169.27,-729.38 167.08,-719.02 161.09,-722.64"/>
</g>
<!-- GOGXX2 -->
<g id="node10" class="node">
<title>GOGXX2</title>
<ellipse fill="none" stroke="black" cx="180.94" cy="-531" rx="48.19" ry="18"/>
<text text-anchor="middle" x="180.94" y="-527.3" font-family="Times New Roman,serif" font-size="14.00">GOGXX2</text>
</g>
<!-- GXGXX1&#45;&gt;GOGXX2 -->
<g id="edge9" class="edge">
<title>GXGXX1&#45;&gt;GOGXX2</title>
<path fill="none" stroke="black" d="M96.33,-531C104.86,-531 113.83,-531 122.6,-531"/>
<polygon fill="black" stroke="black" points="122.77,-534.5 132.77,-531 122.77,-527.5 122.77,-534.5"/>
</g>
<!-- GXGGX2 -->
<g id="node13" class="node">
<title>GXGGX2</title>
<ellipse fill="none" stroke="black" cx="180.94" cy="-342" rx="48.19" ry="18"/>
<text text-anchor="middle" x="180.94" y="-338.3" font-family="Times New Roman,serif" font-size="14.00">GXGGX2</text>
</g>
<!-- GXGXX1&#45;&gt;GXGGX2 -->
<g id="edge12" class="edge">
<title>GXGXX1&#45;&gt;GXGGX2</title>
<path fill="none" stroke="black" d="M61.17,-513.56C84.34,-480.08 135.15,-406.7 162.19,-367.64"/>
<polygon fill="black" stroke="black" points="165.08,-369.61 167.89,-359.4 159.32,-365.63 165.08,-369.61"/>
</g>
<!-- GXGXG2 -->
<g id="node21" class="node">
<title>GXGXG2</title>
<ellipse fill="none" stroke="black" cx="180.94" cy="-612" rx="48.19" ry="18"/>
<text text-anchor="middle" x="180.94" y="-608.3" font-family="Times New Roman,serif" font-size="14.00">GXGXG2</text>
</g>
<!-- GXGXX1&#45;&gt;GXGXG2 -->
<g id="edge20" class="edge">
<title>GXGXX1&#45;&gt;GXGXG2</title>
<path fill="none" stroke="black" d="M74.01,-546.43C94.57,-559.15 123.91,-577.32 146.51,-591.3"/>
<polygon fill="black" stroke="black" points="144.77,-594.34 155.11,-596.63 148.45,-588.39 144.77,-594.34"/>
</g>
<!-- GXGXX2 -->
<g id="node23" class="node">
<title>GXGXX2</title>
<ellipse fill="none" stroke="black" cx="180.94" cy="-261" rx="48.19" ry="18"/>
<text text-anchor="middle" x="180.94" y="-257.3" font-family="Times New Roman,serif" font-size="14.00">GXGXX2</text>
</g>
<!-- GXGXX1&#45;&gt;GXGXX2 -->
<g id="edge22" class="edge">
<title>GXGXX1&#45;&gt;GXGXX2</title>
<path fill="none" stroke="black" d="M53.68,-512.94C63.91,-474.56 91.01,-382.83 132.19,-315 138.62,-304.41 147.22,-293.93 155.34,-285.07"/>
<polygon fill="black" stroke="black" points="157.96,-287.4 162.3,-277.73 152.88,-282.58 157.96,-287.4"/>
</g>
<!-- GGGXX2 -->
<g id="node33" class="node">
<title>GGGXX2</title>
<ellipse fill="none" stroke="black" cx="180.94" cy="-180" rx="48.19" ry="18"/>
<text text-anchor="middle" x="180.94" y="-176.3" font-family="Times New Roman,serif" font-size="14.00">GGGXX2</text>
</g>
<!-- GXGXX1&#45;&gt;GGGXX2 -->
<g id="edge33" class="edge">
<title>GXGXX1&#45;&gt;GGGXX2</title>
<path fill="none" stroke="black" d="M51.29,-512.87C57.68,-464.8 79.34,-331.11 132.19,-234 138.02,-223.29 146.33,-212.91 154.39,-204.16"/>
<polygon fill="black" stroke="black" points="156.94,-206.56 161.34,-196.92 151.89,-201.71 156.94,-206.56"/>
</g>
<!-- GXGOX2 -->
<g id="node35" class="node">
<title>GXGOX2</title>
<ellipse fill="none" stroke="black" cx="180.94" cy="-126" rx="48.19" ry="18"/>
<text text-anchor="middle" x="180.94" y="-122.3" font-family="Times New Roman,serif" font-size="14.00">GXGOX2</text>
</g>
<!-- GXGXX1&#45;&gt;GXGOX2 -->
<g id="edge35" class="edge">
<title>GXGXX1&#45;&gt;GXGOX2</title>
<path fill="none" stroke="black" d="M51.11,-512.84C58.88,-445.67 88.57,-212.04 132.19,-153 134.29,-150.16 136.79,-147.57 139.52,-145.23"/>
<polygon fill="black" stroke="black" points="141.7,-147.97 147.71,-139.25 137.57,-142.31 141.7,-147.97"/>
</g>
<!-- GOGXO2 -->
<g id="node41" class="node">
<title>GOGXO2</title>
<ellipse fill="none" stroke="black" cx="180.94" cy="-72" rx="48.99" ry="18"/>
<text text-anchor="middle" x="180.94" y="-68.3" font-family="Times New Roman,serif" font-size="14.00">GOGXO2</text>
</g>
<!-- GXGXX1&#45;&gt;GOGXO2 -->
<g id="edge41" class="edge">
<title>GXGXX1&#45;&gt;GOGXO2</title>
<path fill="none" stroke="black" d="M50.57,-512.83C56.8,-439.69 82.94,-167.54 132.19,-99 134.19,-96.22 136.57,-93.68 139.19,-91.38"/>
<polygon fill="black" stroke="black" points="141.64,-93.92 147.6,-85.16 137.48,-88.3 141.64,-93.92"/>
</g>
<!-- saint -->
<g id="node4" class="node">
<title>saint</title>
<ellipse fill="none" stroke="black" cx="314.43" cy="-990" rx="27.1" ry="18"/>
<text text-anchor="middle" x="314.43" y="-986.3" font-family="Times New Roman,serif" font-size="14.00">saint</text>
</g>
<!-- GOGGX2&#45;&gt;saint -->
<g id="edge3" class="edge">
<title>GOGGX2&#45;&gt;saint</title>
<path fill="none" stroke="black" d="M210.98,-909.36C217.41,-913.09 223.99,-917.38 229.68,-922 248.5,-937.29 246.86,-947.71 265.68,-963 270.82,-967.18 276.7,-971.08 282.52,-974.54"/>
<polygon fill="black" stroke="black" points="281.1,-977.76 291.53,-979.61 284.53,-971.66 281.1,-977.76"/>
</g>
<!-- sting -->
<g id="node6" class="node">
<title>sting</title>
<ellipse fill="none" stroke="black" cx="314.43" cy="-936" rx="27.9" ry="18"/>
<text text-anchor="middle" x="314.43" y="-932.3" font-family="Times New Roman,serif" font-size="14.00">sting</text>
</g>
<!-- GGGGX2&#45;&gt;sting -->
<g id="edge5" class="edge">
<title>GGGGX2&#45;&gt;sting</title>
<path fill="none" stroke="black" d="M210.98,-855.36C217.41,-859.09 223.99,-863.38 229.68,-868 248.5,-883.29 246.86,-893.71 265.68,-909 270.82,-913.18 276.7,-917.08 282.52,-920.54"/>
<polygon fill="black" stroke="black" points="281.1,-923.76 291.53,-925.61 284.53,-917.66 281.1,-923.76"/>
</g>
<!-- GGGGX3 -->
<g id="node18" class="node">
<title>GGGGX3</title>
<ellipse fill="none" stroke="black" cx="314.43" cy="-882" rx="48.99" ry="18"/>
<text text-anchor="middle" x="314.43" y="-878.3" font-family="Times New Roman,serif" font-size="14.00">GGGGX3</text>
</g>
<!-- GGGGX2&#45;&gt;GGGGX3 -->
<g id="edge17" class="edge">
<title>GGGGX2&#45;&gt;GGGGX3</title>
<path fill="none" stroke="black" d="M218.91,-852.53C233.89,-857.2 251.34,-862.64 267.14,-867.57"/>
<polygon fill="black" stroke="black" points="266.14,-870.92 276.73,-870.56 268.22,-864.24 266.14,-870.92"/>
</g>
<!-- GGGXX3 -->
<g id="node8" class="node">
<title>GGGXX3</title>
<ellipse fill="none" stroke="black" cx="314.43" cy="-828" rx="48.19" ry="18"/>
<text text-anchor="middle" x="314.43" y="-824.3" font-family="Times New Roman,serif" font-size="14.00">GGGXX3</text>
</g>
<!-- GXGXO2&#45;&gt;GGGXX3 -->
<g id="edge7" class="edge">
<title>GXGXO2&#45;&gt;GGGXX3</title>
<path fill="none" stroke="black" d="M205.53,-762.73C222.18,-773.71 245.1,-788.56 265.68,-801 269.55,-803.34 273.62,-805.73 277.68,-808.09"/>
<polygon fill="black" stroke="black" points="276.08,-811.2 286.5,-813.13 279.56,-805.13 276.08,-811.2"/>
</g>
<!-- skiff -->
<g id="node30" class="node">
<title>skiff</title>
<ellipse fill="none" stroke="black" cx="314.43" cy="-774" rx="27" ry="18"/>
<text text-anchor="middle" x="314.43" y="-770.3" font-family="Times New Roman,serif" font-size="14.00">skiff</text>
</g>
<!-- GXGXO2&#45;&gt;skiff -->
<g id="edge30" class="edge">
<title>GXGXO2&#45;&gt;skiff</title>
<path fill="none" stroke="black" d="M223.54,-755.54C241.11,-759.15 261.36,-763.31 278.18,-766.76"/>
<polygon fill="black" stroke="black" points="277.65,-770.23 288.15,-768.81 279.06,-763.37 277.65,-770.23"/>
</g>
<!-- GOGXX3 -->
<g id="node37" class="node">
<title>GOGXX3</title>
<ellipse fill="none" stroke="black" cx="314.43" cy="-720" rx="48.19" ry="18"/>
<text text-anchor="middle" x="314.43" y="-716.3" font-family="Times New Roman,serif" font-size="14.00">GOGXX3</text>
</g>
<!-- GXGXO2&#45;&gt;GOGXX3 -->
<g id="edge37" class="edge">
<title>GXGXO2&#45;&gt;GOGXX3</title>
<path fill="none" stroke="black" d="M223.54,-738.46C235.65,-735.97 249.03,-733.22 261.69,-730.62"/>
<polygon fill="black" stroke="black" points="262.55,-734.02 271.64,-728.58 261.14,-727.16 262.55,-734.02"/>
</g>
<!-- skimp -->
<g id="node9" class="node">
<title>skimp</title>
<ellipse fill="none" stroke="black" cx="431.67" cy="-828" rx="32.49" ry="18"/>
<text text-anchor="middle" x="431.67" y="-824.3" font-family="Times New Roman,serif" font-size="14.00">skimp</text>
</g>
<!-- GGGXX3&#45;&gt;skimp -->
<g id="edge8" class="edge">
<title>GGGXX3&#45;&gt;skimp</title>
<path fill="none" stroke="black" d="M362.63,-828C371.3,-828 380.28,-828 388.78,-828"/>
<polygon fill="black" stroke="black" points="388.84,-831.5 398.84,-828 388.84,-824.5 388.84,-831.5"/>
</g>
<!-- GXGGG3 -->
<g id="node11" class="node">
<title>GXGGG3</title>
<ellipse fill="none" stroke="black" cx="314.43" cy="-612" rx="48.99" ry="18"/>
<text text-anchor="middle" x="314.43" y="-608.3" font-family="Times New Roman,serif" font-size="14.00">GXGGG3</text>
</g>
<!-- GOGXX2&#45;&gt;GXGGG3 -->
<g id="edge10" class="edge">
<title>GOGXX2&#45;&gt;GXGGG3</title>
<path fill="none" stroke="black" d="M205.53,-546.73C222.18,-557.71 245.1,-572.56 265.68,-585 269.55,-587.34 273.62,-589.73 277.68,-592.09"/>
<polygon fill="black" stroke="black" points="276.08,-595.2 286.5,-597.13 279.56,-589.13 276.08,-595.2"/>
</g>
<!-- shift -->
<g id="node20" class="node">
<title>shift</title>
<ellipse fill="none" stroke="black" cx="314.43" cy="-558" rx="27" ry="18"/>
<text text-anchor="middle" x="314.43" y="-554.3" font-family="Times New Roman,serif" font-size="14.00">shift</text>
</g>
<!-- GOGXX2&#45;&gt;shift -->
<g id="edge19" class="edge">
<title>GOGXX2&#45;&gt;shift</title>
<path fill="none" stroke="black" d="M223.54,-539.54C241.11,-543.15 261.36,-547.31 278.18,-550.76"/>
<polygon fill="black" stroke="black" points="277.65,-554.23 288.15,-552.81 279.06,-547.37 277.65,-554.23"/>
</g>
<!-- GGGXG3 -->
<g id="node25" class="node">
<title>GGGXG3</title>
<ellipse fill="none" stroke="black" cx="314.43" cy="-504" rx="48.99" ry="18"/>
<text text-anchor="middle" x="314.43" y="-500.3" font-family="Times New Roman,serif" font-size="14.00">GGGXG3</text>
</g>
<!-- GOGXX2&#45;&gt;GGGXG3 -->
<g id="edge24" class="edge">
<title>GOGXX2&#45;&gt;GGGXG3</title>
<path fill="none" stroke="black" d="M223.54,-522.46C235.53,-519.99 248.77,-517.28 261.32,-514.7"/>
<polygon fill="black" stroke="black" points="262.1,-518.11 271.19,-512.67 260.69,-511.26 262.1,-518.11"/>
</g>
<!-- GOGXO3 -->
<g id="node39" class="node">
<title>GOGXO3</title>
<ellipse fill="none" stroke="black" cx="314.43" cy="-450" rx="48.99" ry="18"/>
<text text-anchor="middle" x="314.43" y="-446.3" font-family="Times New Roman,serif" font-size="14.00">GOGXO3</text>
</g>
<!-- GOGXX2&#45;&gt;GOGXO3 -->
<g id="edge39" class="edge">
<title>GOGXX2&#45;&gt;GOGXO3</title>
<path fill="none" stroke="black" d="M205.53,-515.27C222.18,-504.29 245.1,-489.44 265.68,-477 269.55,-474.66 273.62,-472.27 277.68,-469.91"/>
<polygon fill="black" stroke="black" points="279.56,-472.87 286.5,-464.87 276.08,-466.8 279.56,-472.87"/>
</g>
<!-- swift -->
<g id="node12" class="node">
<title>swift</title>
<ellipse fill="none" stroke="black" cx="431.67" cy="-639" rx="28.7" ry="18"/>
<text text-anchor="middle" x="431.67" y="-635.3" font-family="Times New Roman,serif" font-size="14.00">swift</text>
</g>
<!-- GXGGG3&#45;&gt;swift -->
<g id="edge11" class="edge">
<title>GXGGG3&#45;&gt;swift</title>
<path fill="none" stroke="black" d="M356.06,-621.52C368.61,-624.46 382.35,-627.68 394.58,-630.54"/>
<polygon fill="black" stroke="black" points="393.9,-633.98 404.44,-632.85 395.5,-627.16 393.9,-633.98"/>
</g>
<!-- smirk -->
<g id="node27" class="node">
<title>smirk</title>
<ellipse fill="none" stroke="black" cx="431.67" cy="-585" rx="30.59" ry="18"/>
<text text-anchor="middle" x="431.67" y="-581.3" font-family="Times New Roman,serif" font-size="14.00">smirk</text>
</g>
<!-- GXGGG3&#45;&gt;smirk -->
<g id="edge27" class="edge">
<title>GXGGG3&#45;&gt;smirk</title>
<path fill="none" stroke="black" d="M356.06,-602.48C368.09,-599.66 381.2,-596.59 393.03,-593.82"/>
<polygon fill="black" stroke="black" points="394.1,-597.16 403.04,-591.47 392.51,-590.35 394.1,-597.16"/>
</g>
<!-- XXXOX3 -->
<g id="node14" class="node">
<title>XXXOX3</title>
<ellipse fill="none" stroke="black" cx="314.43" cy="-396" rx="47.39" ry="18"/>
<text text-anchor="middle" x="314.43" y="-392.3" font-family="Times New Roman,serif" font-size="14.00">XXXOX3</text>
</g>
<!-- GXGGX2&#45;&gt;XXXOX3 -->
<g id="edge13" class="edge">
<title>GXGGX2&#45;&gt;XXXOX3</title>
<path fill="none" stroke="black" d="M214.1,-355.21C231.58,-362.39 253.4,-371.35 272.12,-379.04"/>
<polygon fill="black" stroke="black" points="271.01,-382.37 281.59,-382.93 273.67,-375.89 271.01,-382.37"/>
</g>
<!-- XGXXX3 -->
<g id="node16" class="node">
<title>XGXXX3</title>
<ellipse fill="none" stroke="black" cx="314.43" cy="-342" rx="47.39" ry="18"/>
<text text-anchor="middle" x="314.43" y="-338.3" font-family="Times New Roman,serif" font-size="14.00">XGXXX3</text>
</g>
<!-- GXGGX2&#45;&gt;XGXXX3 -->
<g id="edge15" class="edge">
<title>GXGGX2&#45;&gt;XGXXX3</title>
<path fill="none" stroke="black" d="M229.04,-342C237.93,-342 247.31,-342 256.46,-342"/>
<polygon fill="black" stroke="black" points="256.66,-345.5 266.66,-342 256.66,-338.5 256.66,-345.5"/>
</g>
<!-- OXXXO3 -->
<g id="node28" class="node">
<title>OXXXO3</title>
<ellipse fill="none" stroke="black" cx="314.43" cy="-288" rx="48.19" ry="18"/>
<text text-anchor="middle" x="314.43" y="-284.3" font-family="Times New Roman,serif" font-size="14.00">OXXXO3</text>
</g>
<!-- GXGGX2&#45;&gt;OXXXO3 -->
<g id="edge28" class="edge">
<title>GXGGX2&#45;&gt;OXXXO3</title>
<path fill="none" stroke="black" d="M214.1,-328.79C231.46,-321.66 253.07,-312.79 271.71,-305.13"/>
<polygon fill="black" stroke="black" points="273.22,-308.3 281.14,-301.26 270.56,-301.82 273.22,-308.3"/>
</g>
<!-- XXXXX3 -->
<g id="node31" class="node">
<title>XXXXX3</title>
<ellipse fill="none" stroke="black" cx="314.43" cy="-234" rx="46.59" ry="18"/>
<text text-anchor="middle" x="314.43" y="-230.3" font-family="Times New Roman,serif" font-size="14.00">XXXXX3</text>
</g>
<!-- GXGGX2&#45;&gt;XXXXX3 -->
<g id="edge31" class="edge">
<title>GXGGX2&#45;&gt;XXXXX3</title>
<path fill="none" stroke="black" d="M197.2,-324.87C213.2,-307.5 239.59,-280.49 265.68,-261 269.12,-258.44 272.82,-255.94 276.59,-253.56"/>
<polygon fill="black" stroke="black" points="278.63,-256.42 285.41,-248.27 275.03,-250.41 278.63,-256.42"/>
</g>
<!-- spiny -->
<g id="node15" class="node">
<title>spiny</title>
<ellipse fill="none" stroke="black" cx="431.67" cy="-396" rx="30.59" ry="18"/>
<text text-anchor="middle" x="431.67" y="-392.3" font-family="Times New Roman,serif" font-size="14.00">spiny</text>
</g>
<!-- XXXOX3&#45;&gt;spiny -->
<g id="edge14" class="edge">
<title>XXXOX3&#45;&gt;spiny</title>
<path fill="none" stroke="black" d="M361.97,-396C371.5,-396 381.45,-396 390.73,-396"/>
<polygon fill="black" stroke="black" points="390.85,-399.5 400.85,-396 390.85,-392.5 390.85,-399.5"/>
</g>
<!-- suing -->
<g id="node17" class="node">
<title>suing</title>
<ellipse fill="none" stroke="black" cx="431.67" cy="-342" rx="29.8" ry="18"/>
<text text-anchor="middle" x="431.67" y="-338.3" font-family="Times New Roman,serif" font-size="14.00">suing</text>
</g>
<!-- XGXXX3&#45;&gt;suing -->
<g id="edge16" class="edge">
<title>XGXXX3&#45;&gt;suing</title>
<path fill="none" stroke="black" d="M361.97,-342C371.68,-342 381.83,-342 391.26,-342"/>
<polygon fill="black" stroke="black" points="391.53,-345.5 401.53,-342 391.53,-338.5 391.53,-345.5"/>
</g>
<!-- stint -->
<g id="node19" class="node">
<title>stint</title>
<ellipse fill="none" stroke="black" cx="431.67" cy="-882" rx="27" ry="18"/>
<text text-anchor="middle" x="431.67" y="-878.3" font-family="Times New Roman,serif" font-size="14.00">stint</text>
</g>
<!-- GGGGX3&#45;&gt;stint -->
<g id="edge18" class="edge">
<title>GGGGX3&#45;&gt;stint</title>
<path fill="none" stroke="black" d="M363.3,-882C373.66,-882 384.44,-882 394.27,-882"/>
<polygon fill="black" stroke="black" points="394.5,-885.5 404.5,-882 394.5,-878.5 394.5,-885.5"/>
</g>
<!-- GXGXG2&#45;&gt;GXGGG3 -->
<g id="edge26" class="edge">
<title>GXGXG2&#45;&gt;GXGGG3</title>
<path fill="none" stroke="black" d="M229.04,-612C237.51,-612 246.44,-612 255.18,-612"/>
<polygon fill="black" stroke="black" points="255.33,-615.5 265.33,-612 255.33,-608.5 255.33,-615.5"/>
</g>
<!-- shirk -->
<g id="node22" class="node">
<title>shirk</title>
<ellipse fill="none" stroke="black" cx="314.43" cy="-666" rx="28.7" ry="18"/>
<text text-anchor="middle" x="314.43" y="-662.3" font-family="Times New Roman,serif" font-size="14.00">shirk</text>
</g>
<!-- GXGXG2&#45;&gt;shirk -->
<g id="edge21" class="edge">
<title>GXGXG2&#45;&gt;shirk</title>
<path fill="none" stroke="black" d="M214.1,-625.21C234.23,-633.47 260.09,-644.1 280.38,-652.43"/>
<polygon fill="black" stroke="black" points="279.26,-655.75 289.84,-656.31 281.92,-649.28 279.26,-655.75"/>
</g>
<!-- swish -->
<g id="node24" class="node">
<title>swish</title>
<ellipse fill="none" stroke="black" cx="314.43" cy="-180" rx="31.4" ry="18"/>
<text text-anchor="middle" x="314.43" y="-176.3" font-family="Times New Roman,serif" font-size="14.00">swish</text>
</g>
<!-- GXGXX2&#45;&gt;swish -->
<g id="edge23" class="edge">
<title>GXGXX2&#45;&gt;swish</title>
<path fill="none" stroke="black" d="M205.53,-245.27C222.18,-234.29 245.1,-219.44 265.68,-207 270.9,-203.84 276.5,-200.58 281.96,-197.45"/>
<polygon fill="black" stroke="black" points="283.95,-200.35 290.93,-192.37 280.5,-194.26 283.95,-200.35"/>
</g>
<!-- shirt -->
<g id="node26" class="node">
<title>shirt</title>
<ellipse fill="none" stroke="black" cx="431.67" cy="-504" rx="27" ry="18"/>
<text text-anchor="middle" x="431.67" y="-500.3" font-family="Times New Roman,serif" font-size="14.00">shirt</text>
</g>
<!-- GGGXG3&#45;&gt;shirt -->
<g id="edge25" class="edge">
<title>GGGXG3&#45;&gt;shirt</title>
<path fill="none" stroke="black" d="M363.3,-504C373.66,-504 384.44,-504 394.27,-504"/>
<polygon fill="black" stroke="black" points="394.5,-507.5 404.5,-504 394.5,-500.5 394.5,-507.5"/>
</g>
<!-- shiny -->
<g id="node29" class="node">
<title>shiny</title>
<ellipse fill="none" stroke="black" cx="431.67" cy="-288" rx="29.8" ry="18"/>
<text text-anchor="middle" x="431.67" y="-284.3" font-family="Times New Roman,serif" font-size="14.00">shiny</text>
</g>
<!-- OXXXO3&#45;&gt;shiny -->
<g id="edge29" class="edge">
<title>OXXXO3&#45;&gt;shiny</title>
<path fill="none" stroke="black" d="M362.63,-288C372.21,-288 382.18,-288 391.44,-288"/>
<polygon fill="black" stroke="black" points="391.54,-291.5 401.54,-288 391.54,-284.5 391.54,-291.5"/>
</g>
<!-- swing -->
<g id="node32" class="node">
<title>swing</title>
<ellipse fill="none" stroke="black" cx="431.67" cy="-234" rx="31.7" ry="18"/>
<text text-anchor="middle" x="431.67" y="-230.3" font-family="Times New Roman,serif" font-size="14.00">swing</text>
</g>
<!-- XXXXX3&#45;&gt;swing -->
<g id="edge32" class="edge">
<title>XXXXX3&#45;&gt;swing</title>
<path fill="none" stroke="black" d="M361.31,-234C370.7,-234 380.53,-234 389.74,-234"/>
<polygon fill="black" stroke="black" points="389.81,-237.5 399.81,-234 389.81,-230.5 389.81,-237.5"/>
</g>
<!-- stiff -->
<g id="node34" class="node">
<title>stiff</title>
<ellipse fill="none" stroke="black" cx="314.43" cy="-126" rx="27" ry="18"/>
<text text-anchor="middle" x="314.43" y="-122.3" font-family="Times New Roman,serif" font-size="14.00">stiff</text>
</g>
<!-- GGGXX2&#45;&gt;stiff -->
<g id="edge34" class="edge">
<title>GGGXX2&#45;&gt;stiff</title>
<path fill="none" stroke="black" d="M214.1,-166.79C234.62,-158.36 261.1,-147.49 281.56,-139.09"/>
<polygon fill="black" stroke="black" points="283.15,-142.22 291.07,-135.18 280.49,-135.75 283.15,-142.22"/>
</g>
<!-- sniff -->
<g id="node36" class="node">
<title>sniff</title>
<ellipse fill="none" stroke="black" cx="314.43" cy="-72" rx="27" ry="18"/>
<text text-anchor="middle" x="314.43" y="-68.3" font-family="Times New Roman,serif" font-size="14.00">sniff</text>
</g>
<!-- GXGOX2&#45;&gt;sniff -->
<g id="edge36" class="edge">
<title>GXGOX2&#45;&gt;sniff</title>
<path fill="none" stroke="black" d="M214.1,-112.79C234.62,-104.36 261.1,-93.49 281.56,-85.09"/>
<polygon fill="black" stroke="black" points="283.15,-88.22 291.07,-81.18 280.49,-81.75 283.15,-88.22"/>
</g>
<!-- spiky -->
<g id="node38" class="node">
<title>spiky</title>
<ellipse fill="none" stroke="black" cx="431.67" cy="-720" rx="30.59" ry="18"/>
<text text-anchor="middle" x="431.67" y="-716.3" font-family="Times New Roman,serif" font-size="14.00">spiky</text>
</g>
<!-- GOGXX3&#45;&gt;spiky -->
<g id="edge38" class="edge">
<title>GOGXX3&#45;&gt;spiky</title>
<path fill="none" stroke="black" d="M362.63,-720C371.93,-720 381.59,-720 390.62,-720"/>
<polygon fill="black" stroke="black" points="390.87,-723.5 400.87,-720 390.87,-716.5 390.87,-723.5"/>
</g>
<!-- smith -->
<g id="node40" class="node">
<title>smith</title>
<ellipse fill="none" stroke="black" cx="431.67" cy="-450" rx="30.59" ry="18"/>
<text text-anchor="middle" x="431.67" y="-446.3" font-family="Times New Roman,serif" font-size="14.00">smith</text>
</g>
<!-- GOGXO3&#45;&gt;smith -->
<g id="edge40" class="edge">
<title>GOGXO3&#45;&gt;smith</title>
<path fill="none" stroke="black" d="M363.3,-450C372.46,-450 381.95,-450 390.82,-450"/>
<polygon fill="black" stroke="black" points="390.89,-453.5 400.89,-450 390.89,-446.5 390.89,-453.5"/>
</g>
<!-- skirt -->
<g id="node42" class="node">
<title>skirt</title>
<ellipse fill="none" stroke="black" cx="314.43" cy="-18" rx="27" ry="18"/>
<text text-anchor="middle" x="314.43" y="-14.3" font-family="Times New Roman,serif" font-size="14.00">skirt</text>
</g>
<!-- GOGXO2&#45;&gt;skirt -->
<g id="edge42" class="edge">
<title>GOGXO2&#45;&gt;skirt</title>
<path fill="none" stroke="black" d="M214.1,-58.79C234.62,-50.36 261.1,-39.49 281.56,-31.09"/>
<polygon fill="black" stroke="black" points="283.15,-34.22 291.07,-27.18 280.49,-27.75 283.15,-34.22"/>
</g>
</g>
</svg>
