<?xml version="1.0" encoding="UTF-8" standalone="no"?>
<!DOCTYPE svg PUBLIC "-//W3C//DTD SVG 1.1//EN"
 "http://www.w3.org/Graphics/SVG/1.1/DTD/svg11.dtd">
<!-- Generated by graphviz version 2.50.0 (20211204.2007)
 -->
<!-- Pages: 1 -->
<svg width="337pt" height="206pt"
 viewBox="0.00 0.00 337.38 206.00" xmlns="http://www.w3.org/2000/svg" xmlns:xlink="http://www.w3.org/1999/xlink">
<g id="graph0" class="graph" transform="scale(1 1) rotate(0) translate(4 202)">
<polygon fill="white" stroke="transparent" points="-4,4 -4,-202 333.38,-202 333.38,4 -4,4"/>
<!-- XXOGG1 -->
<g id="node1" class="node">
<title>XXOGG1</title>
<ellipse fill="none" stroke="black" cx="48.1" cy="-99" rx="48.19" ry="18"/>
<text text-anchor="middle" x="48.1" y="-95.3" font-family="Times New Roman,serif" font-size="14.00">XXOGG1</text>
</g>
<!-- OXXXX2 -->
<g id="node2" class="node">
<title>OXXXX2</title>
<ellipse fill="none" stroke="black" cx="180.29" cy="-180" rx="47.39" ry="18"/>
<text text-anchor="middle" x="180.29" y="-176.3" font-family="Times New Roman,serif" font-size="14.00">OXXXX2</text>
</g>
<!-- XXOGG1&#45;&gt;OXXXX2 -->
<g id="edge1" class="edge">
<title>XXOGG1&#45;&gt;OXXXX2</title>
<path fill="none" stroke="black" d="M72.51,-114.72C89.04,-125.68 111.78,-140.53 132.19,-153 136,-155.33 140.02,-157.72 144.03,-160.07"/>
<polygon fill="black" stroke="black" points="142.33,-163.13 152.73,-165.12 145.84,-157.08 142.33,-163.13"/>
</g>
<!-- OXOXX2 -->
<g id="node4" class="node">
<title>OXOXX2</title>
<ellipse fill="none" stroke="black" cx="180.29" cy="-126" rx="48.19" ry="18"/>
<text text-anchor="middle" x="180.29" y="-122.3" font-family="Times New Roman,serif" font-size="14.00">OXOXX2</text>
</g>
<!-- XXOGG1&#45;&gt;OXOXX2 -->
<g id="edge3" class="edge">
<title>XXOGG1&#45;&gt;OXOXX2</title>
<path fill="none" stroke="black" d="M90.65,-107.62C102.39,-110.05 115.32,-112.73 127.58,-115.28"/>
<polygon fill="black" stroke="black" points="127.18,-118.77 137.68,-117.37 128.6,-111.91 127.18,-118.77"/>
</g>
<!-- GXXXX2 -->
<g id="node6" class="node">
<title>GXXXX2</title>
<ellipse fill="none" stroke="black" cx="180.29" cy="-72" rx="47.39" ry="18"/>
<text text-anchor="middle" x="180.29" y="-68.3" font-family="Times New Roman,serif" font-size="14.00">GXXXX2</text>
</g>
<!-- XXOGG1&#45;&gt;GXXXX2 -->
<g id="edge5" class="edge">
<title>XXOGG1&#45;&gt;GXXXX2</title>
<path fill="none" stroke="black" d="M90.65,-90.38C102.63,-87.9 115.83,-85.16 128.31,-82.57"/>
<polygon fill="black" stroke="black" points="129.05,-85.99 138.13,-80.54 127.63,-79.14 129.05,-85.99"/>
</g>
<!-- XXXOX2 -->
<g id="node8" class="node">
<title>XXXOX2</title>
<ellipse fill="none" stroke="black" cx="180.29" cy="-18" rx="47.39" ry="18"/>
<text text-anchor="middle" x="180.29" y="-14.3" font-family="Times New Roman,serif" font-size="14.00">XXXOX2</text>
</g>
<!-- XXOGG1&#45;&gt;XXXOX2 -->
<g id="edge7" class="edge">
<title>XXOGG1&#45;&gt;XXXOX2</title>
<path fill="none" stroke="black" d="M72.51,-83.28C89.04,-72.32 111.78,-57.47 132.19,-45 136,-42.67 140.02,-40.28 144.03,-37.93"/>
<polygon fill="black" stroke="black" points="145.84,-40.92 152.73,-32.88 142.33,-34.87 145.84,-40.92"/>
</g>
<!-- wince -->
<g id="node3" class="node">
<title>wince</title>
<ellipse fill="none" stroke="black" cx="296.88" cy="-180" rx="31.7" ry="18"/>
<text text-anchor="middle" x="296.88" y="-176.3" font-family="Times New Roman,serif" font-size="14.00">wince</text>
</g>
<!-- OXXXX2&#45;&gt;wince -->
<g id="edge2" class="edge">
<title>OXXXX2&#45;&gt;wince</title>
<path fill="none" stroke="black" d="M227.9,-180C236.71,-180 245.87,-180 254.5,-180"/>
<polygon fill="black" stroke="black" points="254.72,-183.5 264.72,-180 254.72,-176.5 254.72,-183.5"/>
</g>
<!-- mince -->
<g id="node5" class="node">
<title>mince</title>
<ellipse fill="none" stroke="black" cx="296.88" cy="-126" rx="32.49" ry="18"/>
<text text-anchor="middle" x="296.88" y="-122.3" font-family="Times New Roman,serif" font-size="14.00">mince</text>
</g>
<!-- OXOXX2&#45;&gt;mince -->
<g id="edge4" class="edge">
<title>OXOXX2&#45;&gt;mince</title>
<path fill="none" stroke="black" d="M228.56,-126C236.97,-126 245.67,-126 253.92,-126"/>
<polygon fill="black" stroke="black" points="254.07,-129.5 264.07,-126 254.07,-122.5 254.07,-129.5"/>
</g>
<!-- niece -->
<g id="node7" class="node">
<title>niece</title>
<ellipse fill="none" stroke="black" cx="296.88" cy="-72" rx="29.5" ry="18"/>
<text text-anchor="middle" x="296.88" y="-68.3" font-family="Times New Roman,serif" font-size="14.00">niece</text>
</g>
<!-- GXXXX2&#45;&gt;niece -->
<g id="edge6" class="edge">
<title>GXXXX2&#45;&gt;niece</title>
<path fill="none" stroke="black" d="M227.9,-72C237.62,-72 247.77,-72 257.17,-72"/>
<polygon fill="black" stroke="black" points="257.41,-75.5 267.41,-72 257.41,-68.5 257.41,-75.5"/>
</g>
<!-- piece -->
<g id="node9" class="node">
<title>piece</title>
<ellipse fill="none" stroke="black" cx="296.88" cy="-18" rx="29.8" ry="18"/>
<text text-anchor="middle" x="296.88" y="-14.3" font-family="Times New Roman,serif" font-size="14.00">piece</text>
</g>
<!-- XXXOX2&#45;&gt;piece -->
<g id="edge8" class="edge">
<title>XXXOX2&#45;&gt;piece</title>
<path fill="none" stroke="black" d="M227.9,-18C237.44,-18 247.4,-18 256.65,-18"/>
<polygon fill="black" stroke="black" points="256.74,-21.5 266.74,-18 256.74,-14.5 256.74,-21.5"/>
</g>
</g>
</svg>
