<?xml version="1.0" encoding="UTF-8" standalone="no"?>
<!DOCTYPE svg PUBLIC "-//W3C//DTD SVG 1.1//EN"
 "http://www.w3.org/Graphics/SVG/1.1/DTD/svg11.dtd">
<!-- Generated by graphviz version 2.50.0 (20211204.2007)
 -->
<!-- Pages: 1 -->
<svg width="333pt" height="98pt"
 viewBox="0.00 0.00 333.48 98.00" xmlns="http://www.w3.org/2000/svg" xmlns:xlink="http://www.w3.org/1999/xlink">
<g id="graph0" class="graph" transform="scale(1 1) rotate(0) translate(4 94)">
<polygon fill="white" stroke="transparent" points="-4,4 -4,-94 329.48,-94 329.48,4 -4,4"/>
<!-- GGGXG1 -->
<g id="node1" class="node">
<title>GGGXG1</title>
<ellipse fill="none" stroke="black" cx="48.75" cy="-45" rx="48.99" ry="18"/>
<text text-anchor="middle" x="48.75" y="-41.3" font-family="Times New Roman,serif" font-size="14.00">GGGXG1</text>
</g>
<!-- slide -->
<g id="node2" class="node">
<title>slide</title>
<ellipse fill="none" stroke="black" cx="182.24" cy="-72" rx="27.1" ry="18"/>
<text text-anchor="middle" x="182.24" y="-68.3" font-family="Times New Roman,serif" font-size="14.00">slide</text>
</g>
<!-- GGGXG1&#45;&gt;slide -->
<g id="edge1" class="edge">
<title>GGGXG1&#45;&gt;slide</title>
<path fill="none" stroke="black" d="M91.71,-53.62C109.14,-57.2 129.14,-61.3 145.82,-64.73"/>
<polygon fill="black" stroke="black" points="145.21,-68.18 155.71,-66.76 146.62,-61.32 145.21,-68.18"/>
</g>
<!-- GGGXG2 -->
<g id="node3" class="node">
<title>GGGXG2</title>
<ellipse fill="none" stroke="black" cx="182.24" cy="-18" rx="48.99" ry="18"/>
<text text-anchor="middle" x="182.24" y="-14.3" font-family="Times New Roman,serif" font-size="14.00">GGGXG2</text>
</g>
<!-- GGGXG1&#45;&gt;GGGXG2 -->
<g id="edge2" class="edge">
<title>GGGXG1&#45;&gt;GGGXG2</title>
<path fill="none" stroke="black" d="M91.71,-36.38C103.69,-33.92 116.89,-31.21 129.38,-28.65"/>
<polygon fill="black" stroke="black" points="130.13,-32.07 139.22,-26.63 128.72,-25.21 130.13,-32.07"/>
</g>
<!-- slime -->
<g id="node4" class="node">
<title>slime</title>
<ellipse fill="none" stroke="black" cx="296.23" cy="-18" rx="29.5" ry="18"/>
<text text-anchor="middle" x="296.23" y="-14.3" font-family="Times New Roman,serif" font-size="14.00">slime</text>
</g>
<!-- GGGXG2&#45;&gt;slime -->
<g id="edge3" class="edge">
<title>GGGXG2&#45;&gt;slime</title>
<path fill="none" stroke="black" d="M231.06,-18C239.58,-18 248.37,-18 256.6,-18"/>
<polygon fill="black" stroke="black" points="256.67,-21.5 266.67,-18 256.67,-14.5 256.67,-21.5"/>
</g>
</g>
</svg>
