<?xml version="1.0" encoding="UTF-8" standalone="no"?>
<!DOCTYPE svg PUBLIC "-//W3C//DTD SVG 1.1//EN"
 "http://www.w3.org/Graphics/SVG/1.1/DTD/svg11.dtd">
<!-- Generated by graphviz version 2.50.0 (20211204.2007)
 -->
<!-- Pages: 1 -->
<svg width="464pt" height="246pt"
 viewBox="0.00 0.00 464.37 246.00" xmlns="http://www.w3.org/2000/svg" xmlns:xlink="http://www.w3.org/1999/xlink">
<g id="graph0" class="graph" transform="scale(1 1) rotate(0) translate(4 242)">
<polygon fill="white" stroke="transparent" points="-4,4 -4,-242 460.37,-242 460.37,4 -4,4"/>
<!-- XOXGX1 -->
<g id="node1" class="node">
<title>XOXGX1</title>
<ellipse fill="none" stroke="black" cx="48.1" cy="-139" rx="48.19" ry="18"/>
<text text-anchor="middle" x="48.1" y="-135.3" font-family="Times New Roman,serif" font-size="14.00">XOXGX1</text>
</g>
<!-- gulch -->
<g id="node2" class="node">
<title>gulch</title>
<ellipse fill="none" stroke="black" cx="180.94" cy="-220" rx="30.59" ry="18"/>
<text text-anchor="middle" x="180.94" y="-216.3" font-family="Times New Roman,serif" font-size="14.00">gulch</text>
</g>
<!-- XOXGX1&#45;&gt;gulch -->
<g id="edge1" class="edge">
<title>XOXGX1&#45;&gt;gulch</title>
<path fill="none" stroke="black" d="M72.49,-154.75C89.01,-165.74 111.75,-180.59 132.19,-193 137.64,-196.31 143.5,-199.73 149.19,-202.98"/>
<polygon fill="black" stroke="black" points="147.48,-206.03 157.91,-207.91 150.93,-199.94 147.48,-206.03"/>
</g>
<!-- XGGGG2 -->
<g id="node3" class="node">
<title>XGGGG2</title>
<ellipse fill="none" stroke="black" cx="180.94" cy="-166" rx="48.99" ry="18"/>
<text text-anchor="middle" x="180.94" y="-162.3" font-family="Times New Roman,serif" font-size="14.00">XGGGG2</text>
</g>
<!-- XOXGX1&#45;&gt;XGGGG2 -->
<g id="edge2" class="edge">
<title>XOXGX1&#45;&gt;XGGGG2</title>
<path fill="none" stroke="black" d="M90.49,-147.54C102.43,-150.01 115.6,-152.72 128.08,-155.3"/>
<polygon fill="black" stroke="black" points="127.41,-158.73 137.91,-157.33 128.82,-151.88 127.41,-158.73"/>
</g>
<!-- XGOGG2 -->
<g id="node5" class="node">
<title>XGOGG2</title>
<ellipse fill="none" stroke="black" cx="180.94" cy="-112" rx="48.99" ry="18"/>
<text text-anchor="middle" x="180.94" y="-108.3" font-family="Times New Roman,serif" font-size="14.00">XGOGG2</text>
</g>
<!-- XOXGX1&#45;&gt;XGOGG2 -->
<g id="edge4" class="edge">
<title>XOXGX1&#45;&gt;XGOGG2</title>
<path fill="none" stroke="black" d="M90.49,-130.46C102.43,-127.99 115.6,-125.28 128.08,-122.7"/>
<polygon fill="black" stroke="black" points="128.82,-126.12 137.91,-120.67 127.41,-119.27 128.82,-126.12"/>
</g>
<!-- XXOGG2 -->
<g id="node9" class="node">
<title>XXOGG2</title>
<ellipse fill="none" stroke="black" cx="180.94" cy="-45" rx="48.19" ry="18"/>
<text text-anchor="middle" x="180.94" y="-41.3" font-family="Times New Roman,serif" font-size="14.00">XXOGG2</text>
</g>
<!-- XOXGX1&#45;&gt;XXOGG2 -->
<g id="edge8" class="edge">
<title>XOXGX1&#45;&gt;XXOGG2</title>
<path fill="none" stroke="black" d="M71.29,-123.05C92.72,-107.66 125.35,-84.22 149.26,-67.04"/>
<polygon fill="black" stroke="black" points="151.55,-69.7 157.63,-61.02 147.47,-64.02 151.55,-69.7"/>
</g>
<!-- mulch -->
<g id="node4" class="node">
<title>mulch</title>
<ellipse fill="none" stroke="black" cx="314.43" cy="-180" rx="32.49" ry="18"/>
<text text-anchor="middle" x="314.43" y="-176.3" font-family="Times New Roman,serif" font-size="14.00">mulch</text>
</g>
<!-- XGGGG2&#45;&gt;mulch -->
<g id="edge3" class="edge">
<title>XGGGG2&#45;&gt;mulch</title>
<path fill="none" stroke="black" d="M227.93,-170.9C242.21,-172.42 257.86,-174.08 271.83,-175.57"/>
<polygon fill="black" stroke="black" points="271.81,-179.09 282.13,-176.67 272.55,-172.13 271.81,-179.09"/>
</g>
<!-- lunch -->
<g id="node6" class="node">
<title>lunch</title>
<ellipse fill="none" stroke="black" cx="314.43" cy="-126" rx="30.59" ry="18"/>
<text text-anchor="middle" x="314.43" y="-122.3" font-family="Times New Roman,serif" font-size="14.00">lunch</text>
</g>
<!-- XGOGG2&#45;&gt;lunch -->
<g id="edge5" class="edge">
<title>XGOGG2&#45;&gt;lunch</title>
<path fill="none" stroke="black" d="M227.93,-116.9C242.94,-118.5 259.48,-120.26 273.97,-121.8"/>
<polygon fill="black" stroke="black" points="273.8,-125.3 284.11,-122.88 274.54,-118.34 273.8,-125.3"/>
</g>
<!-- GGXGG3 -->
<g id="node7" class="node">
<title>GGXGG3</title>
<ellipse fill="none" stroke="black" cx="314.43" cy="-72" rx="48.99" ry="18"/>
<text text-anchor="middle" x="314.43" y="-68.3" font-family="Times New Roman,serif" font-size="14.00">GGXGG3</text>
</g>
<!-- XGOGG2&#45;&gt;GGXGG3 -->
<g id="edge6" class="edge">
<title>XGOGG2&#45;&gt;GGXGG3</title>
<path fill="none" stroke="black" d="M219.27,-100.64C233.84,-96.21 250.72,-91.08 266.13,-86.39"/>
<polygon fill="black" stroke="black" points="267.46,-89.64 276.01,-83.38 265.42,-82.95 267.46,-89.64"/>
</g>
<!-- lurch -->
<g id="node8" class="node">
<title>lurch</title>
<ellipse fill="none" stroke="black" cx="427.77" cy="-72" rx="28.7" ry="18"/>
<text text-anchor="middle" x="427.77" y="-68.3" font-family="Times New Roman,serif" font-size="14.00">lurch</text>
</g>
<!-- GGXGG3&#45;&gt;lurch -->
<g id="edge7" class="edge">
<title>GGXGG3&#45;&gt;lurch</title>
<path fill="none" stroke="black" d="M363.29,-72C371.83,-72 380.62,-72 388.83,-72"/>
<polygon fill="black" stroke="black" points="388.86,-75.5 398.86,-72 388.86,-68.5 388.86,-75.5"/>
</g>
<!-- latch -->
<g id="node10" class="node">
<title>latch</title>
<ellipse fill="none" stroke="black" cx="314.43" cy="-18" rx="27.9" ry="18"/>
<text text-anchor="middle" x="314.43" y="-14.3" font-family="Times New Roman,serif" font-size="14.00">latch</text>
</g>
<!-- XXOGG2&#45;&gt;latch -->
<g id="edge9" class="edge">
<title>XXOGG2&#45;&gt;latch</title>
<path fill="none" stroke="black" d="M223.54,-36.46C240.86,-32.9 260.78,-28.81 277.46,-25.39"/>
<polygon fill="black" stroke="black" points="278.28,-28.79 287.37,-23.35 276.87,-21.93 278.28,-28.79"/>
</g>
</g>
</svg>
