<?xml version="1.0" encoding="UTF-8" standalone="no"?>
<!DOCTYPE svg PUBLIC "-//W3C//DTD SVG 1.1//EN"
 "http://www.w3.org/Graphics/SVG/1.1/DTD/svg11.dtd">
<!-- Generated by graphviz version 2.50.0 (20211204.2007)
 -->
<!-- Pages: 1 -->
<svg width="471pt" height="746pt"
 viewBox="0.00 0.00 470.87 746.00" xmlns="http://www.w3.org/2000/svg" xmlns:xlink="http://www.w3.org/1999/xlink">
<g id="graph0" class="graph" transform="scale(1 1) rotate(0) translate(4 742)">
<polygon fill="white" stroke="transparent" points="-4,4 -4,-742 466.87,-742 466.87,4 -4,4"/>
<!-- OXGXX1 -->
<g id="node1" class="node">
<title>OXGXX1</title>
<ellipse fill="none" stroke="black" cx="48.1" cy="-396" rx="48.19" ry="18"/>
<text text-anchor="middle" x="48.1" y="-392.3" font-family="Times New Roman,serif" font-size="14.00">OXGXX1</text>
</g>
<!-- XXGOX2 -->
<g id="node2" class="node">
<title>XXGOX2</title>
<ellipse fill="none" stroke="black" cx="180.94" cy="-679" rx="48.19" ry="18"/>
<text text-anchor="middle" x="180.94" y="-675.3" font-family="Times New Roman,serif" font-size="14.00">XXGOX2</text>
</g>
<!-- OXGXX1&#45;&gt;XXGOX2 -->
<g id="edge1" class="edge">
<title>OXGXX1&#45;&gt;XXGOX2</title>
<path fill="none" stroke="black" d="M54.33,-414.02C65.71,-451.95 94.72,-542.28 132.19,-612 139.97,-626.48 150.41,-641.48 159.53,-653.6"/>
<polygon fill="black" stroke="black" points="157.02,-656.08 165.89,-661.88 162.57,-651.82 157.02,-656.08"/>
</g>
<!-- moist -->
<g id="node4" class="node">
<title>moist</title>
<ellipse fill="none" stroke="black" cx="180.94" cy="-585" rx="30.59" ry="18"/>
<text text-anchor="middle" x="180.94" y="-581.3" font-family="Times New Roman,serif" font-size="14.00">moist</text>
</g>
<!-- OXGXX1&#45;&gt;moist -->
<g id="edge3" class="edge">
<title>OXGXX1&#45;&gt;moist</title>
<path fill="none" stroke="black" d="M54.44,-413.86C64.84,-446.07 90.49,-514.56 132.19,-558 136.42,-562.4 141.52,-566.29 146.79,-569.65"/>
<polygon fill="black" stroke="black" points="145.29,-572.82 155.7,-574.79 148.79,-566.76 145.29,-572.82"/>
</g>
<!-- XXGGX2 -->
<g id="node5" class="node">
<title>XXGGX2</title>
<ellipse fill="none" stroke="black" cx="180.94" cy="-531" rx="48.19" ry="18"/>
<text text-anchor="middle" x="180.94" y="-527.3" font-family="Times New Roman,serif" font-size="14.00">XXGGX2</text>
</g>
<!-- OXGXX1&#45;&gt;XXGGX2 -->
<g id="edge4" class="edge">
<title>OXGXX1&#45;&gt;XXGGX2</title>
<path fill="none" stroke="black" d="M65.4,-412.82C88.32,-436.47 130.19,-479.67 156.46,-506.77"/>
<polygon fill="black" stroke="black" points="153.95,-509.22 163.43,-513.96 158.98,-504.35 153.95,-509.22"/>
</g>
<!-- XXGGG2 -->
<g id="node11" class="node">
<title>XXGGG2</title>
<ellipse fill="none" stroke="black" cx="180.94" cy="-396" rx="48.19" ry="18"/>
<text text-anchor="middle" x="180.94" y="-392.3" font-family="Times New Roman,serif" font-size="14.00">XXGGG2</text>
</g>
<!-- OXGXX1&#45;&gt;XXGGG2 -->
<g id="edge10" class="edge">
<title>OXGXX1&#45;&gt;XXGGG2</title>
<path fill="none" stroke="black" d="M96.33,-396C104.86,-396 113.83,-396 122.6,-396"/>
<polygon fill="black" stroke="black" points="122.77,-399.5 132.77,-396 122.77,-392.5 122.77,-399.5"/>
</g>
<!-- XGGGG2 -->
<g id="node16" class="node">
<title>XGGGG2</title>
<ellipse fill="none" stroke="black" cx="180.94" cy="-261" rx="48.99" ry="18"/>
<text text-anchor="middle" x="180.94" y="-257.3" font-family="Times New Roman,serif" font-size="14.00">XGGGG2</text>
</g>
<!-- OXGXX1&#45;&gt;XGGGG2 -->
<g id="edge15" class="edge">
<title>OXGXX1&#45;&gt;XGGGG2</title>
<path fill="none" stroke="black" d="M65.4,-379.18C88.32,-355.53 130.19,-312.33 156.46,-285.23"/>
<polygon fill="black" stroke="black" points="158.98,-287.65 163.43,-278.04 153.95,-282.78 158.98,-287.65"/>
</g>
<!-- OXGGX2 -->
<g id="node23" class="node">
<title>OXGGX2</title>
<ellipse fill="none" stroke="black" cx="180.94" cy="-126" rx="48.19" ry="18"/>
<text text-anchor="middle" x="180.94" y="-122.3" font-family="Times New Roman,serif" font-size="14.00">OXGGX2</text>
</g>
<!-- OXGXX1&#45;&gt;OXGGX2 -->
<g id="edge22" class="edge">
<title>OXGXX1&#45;&gt;OXGGX2</title>
<path fill="none" stroke="black" d="M57.68,-378.28C80.05,-332.13 140.21,-207.97 166.89,-152.92"/>
<polygon fill="black" stroke="black" points="170.11,-154.31 171.32,-143.78 163.81,-151.25 170.11,-154.31"/>
</g>
<!-- XGGGX2 -->
<g id="node26" class="node">
<title>XGGGX2</title>
<ellipse fill="none" stroke="black" cx="180.94" cy="-45" rx="48.19" ry="18"/>
<text text-anchor="middle" x="180.94" y="-41.3" font-family="Times New Roman,serif" font-size="14.00">XGGGX2</text>
</g>
<!-- OXGXX1&#45;&gt;XGGGX2 -->
<g id="edge25" class="edge">
<title>OXGXX1&#45;&gt;XGGGX2</title>
<path fill="none" stroke="black" d="M51.29,-377.87C57.68,-329.8 79.34,-196.11 132.19,-99 138.02,-88.29 146.33,-77.91 154.39,-69.16"/>
<polygon fill="black" stroke="black" points="156.94,-71.56 161.34,-61.92 151.89,-66.71 156.94,-71.56"/>
</g>
<!-- using -->
<g id="node3" class="node">
<title>using</title>
<ellipse fill="none" stroke="black" cx="314.43" cy="-720" rx="29.8" ry="18"/>
<text text-anchor="middle" x="314.43" y="-716.3" font-family="Times New Roman,serif" font-size="14.00">using</text>
</g>
<!-- XXGOX2&#45;&gt;using -->
<g id="edge2" class="edge">
<title>XXGOX2&#45;&gt;using</title>
<path fill="none" stroke="black" d="M218.56,-690.42C237.03,-696.18 259.34,-703.13 277.68,-708.85"/>
<polygon fill="black" stroke="black" points="276.82,-712.25 287.41,-711.89 278.91,-705.57 276.82,-712.25"/>
</g>
<!-- brisk -->
<g id="node6" class="node">
<title>brisk</title>
<ellipse fill="none" stroke="black" cx="314.43" cy="-666" rx="28.7" ry="18"/>
<text text-anchor="middle" x="314.43" y="-662.3" font-family="Times New Roman,serif" font-size="14.00">brisk</text>
</g>
<!-- XXGGX2&#45;&gt;brisk -->
<g id="edge5" class="edge">
<title>XXGGX2&#45;&gt;brisk</title>
<path fill="none" stroke="black" d="M212.84,-544.63C218.96,-548.33 224.95,-552.78 229.68,-558 256.16,-587.17 239.2,-609.83 265.68,-639 270.05,-643.81 275.48,-647.98 281.1,-651.5"/>
<polygon fill="black" stroke="black" points="279.53,-654.63 289.96,-656.5 282.98,-648.54 279.53,-654.63"/>
</g>
<!-- XXGGG3 -->
<g id="node7" class="node">
<title>XXGGG3</title>
<ellipse fill="none" stroke="black" cx="314.43" cy="-612" rx="48.19" ry="18"/>
<text text-anchor="middle" x="314.43" y="-608.3" font-family="Times New Roman,serif" font-size="14.00">XXGGG3</text>
</g>
<!-- XXGGX2&#45;&gt;XXGGG3 -->
<g id="edge6" class="edge">
<title>XXGGX2&#45;&gt;XXGGG3</title>
<path fill="none" stroke="black" d="M209.57,-545.83C216.25,-549.63 223.31,-553.83 229.68,-558 246.42,-568.95 248.94,-574.05 265.68,-585 269.27,-587.35 273.07,-589.7 276.9,-591.99"/>
<polygon fill="black" stroke="black" points="275.4,-595.16 285.8,-597.17 278.92,-589.12 275.4,-595.16"/>
</g>
<!-- XGGGG3 -->
<g id="node9" class="node">
<title>XGGGG3</title>
<ellipse fill="none" stroke="black" cx="314.43" cy="-558" rx="48.99" ry="18"/>
<text text-anchor="middle" x="314.43" y="-554.3" font-family="Times New Roman,serif" font-size="14.00">XGGGG3</text>
</g>
<!-- XXGGX2&#45;&gt;XGGGG3 -->
<g id="edge8" class="edge">
<title>XXGGX2&#45;&gt;XGGGG3</title>
<path fill="none" stroke="black" d="M223.54,-539.54C235.53,-542.01 248.77,-544.72 261.32,-547.3"/>
<polygon fill="black" stroke="black" points="260.69,-550.74 271.19,-549.33 262.1,-543.89 260.69,-550.74"/>
</g>
<!-- XXGGX3 -->
<g id="node14" class="node">
<title>XXGGX3</title>
<ellipse fill="none" stroke="black" cx="314.43" cy="-504" rx="48.19" ry="18"/>
<text text-anchor="middle" x="314.43" y="-500.3" font-family="Times New Roman,serif" font-size="14.00">XXGGX3</text>
</g>
<!-- XXGGX2&#45;&gt;XXGGX3 -->
<g id="edge13" class="edge">
<title>XXGGX2&#45;&gt;XXGGX3</title>
<path fill="none" stroke="black" d="M223.54,-522.46C235.65,-519.97 249.03,-517.22 261.69,-514.62"/>
<polygon fill="black" stroke="black" points="262.55,-518.02 271.64,-512.58 261.14,-511.16 262.55,-518.02"/>
</g>
<!-- whisk -->
<g id="node8" class="node">
<title>whisk</title>
<ellipse fill="none" stroke="black" cx="431.02" cy="-612" rx="31.7" ry="18"/>
<text text-anchor="middle" x="431.02" y="-608.3" font-family="Times New Roman,serif" font-size="14.00">whisk</text>
</g>
<!-- XXGGG3&#45;&gt;whisk -->
<g id="edge7" class="edge">
<title>XXGGG3&#45;&gt;whisk</title>
<path fill="none" stroke="black" d="M362.7,-612C371.38,-612 380.37,-612 388.85,-612"/>
<polygon fill="black" stroke="black" points="388.89,-615.5 398.89,-612 388.89,-608.5 388.89,-615.5"/>
</g>
<!-- frisk -->
<g id="node10" class="node">
<title>frisk</title>
<ellipse fill="none" stroke="black" cx="431.02" cy="-558" rx="27" ry="18"/>
<text text-anchor="middle" x="431.02" y="-554.3" font-family="Times New Roman,serif" font-size="14.00">frisk</text>
</g>
<!-- XGGGG3&#45;&gt;frisk -->
<g id="edge9" class="edge">
<title>XGGGG3&#45;&gt;frisk</title>
<path fill="none" stroke="black" d="M363.36,-558C373.54,-558 384.13,-558 393.78,-558"/>
<polygon fill="black" stroke="black" points="393.83,-561.5 403.83,-558 393.83,-554.5 393.83,-561.5"/>
</g>
<!-- OGXOX3 -->
<g id="node12" class="node">
<title>OGXOX3</title>
<ellipse fill="none" stroke="black" cx="314.43" cy="-450" rx="48.19" ry="18"/>
<text text-anchor="middle" x="314.43" y="-446.3" font-family="Times New Roman,serif" font-size="14.00">OGXOX3</text>
</g>
<!-- XXGGG2&#45;&gt;OGXOX3 -->
<g id="edge11" class="edge">
<title>XXGGG2&#45;&gt;OGXOX3</title>
<path fill="none" stroke="black" d="M214.1,-409.21C231.46,-416.34 253.07,-425.21 271.71,-432.87"/>
<polygon fill="black" stroke="black" points="270.56,-436.18 281.14,-436.74 273.22,-429.7 270.56,-436.18"/>
</g>
<!-- OXOOX3 -->
<g id="node21" class="node">
<title>OXOOX3</title>
<ellipse fill="none" stroke="black" cx="314.43" cy="-396" rx="48.19" ry="18"/>
<text text-anchor="middle" x="314.43" y="-392.3" font-family="Times New Roman,serif" font-size="14.00">OXOOX3</text>
</g>
<!-- XXGGG2&#45;&gt;OXOOX3 -->
<g id="edge20" class="edge">
<title>XXGGG2&#45;&gt;OXOOX3</title>
<path fill="none" stroke="black" d="M229.04,-396C237.82,-396 247.08,-396 256.13,-396"/>
<polygon fill="black" stroke="black" points="256.22,-399.5 266.22,-396 256.22,-392.5 256.22,-399.5"/>
</g>
<!-- GXXOX3 -->
<g id="node31" class="node">
<title>GXXOX3</title>
<ellipse fill="none" stroke="black" cx="314.43" cy="-342" rx="48.19" ry="18"/>
<text text-anchor="middle" x="314.43" y="-338.3" font-family="Times New Roman,serif" font-size="14.00">GXXOX3</text>
</g>
<!-- XXGGG2&#45;&gt;GXXOX3 -->
<g id="edge30" class="edge">
<title>XXGGG2&#45;&gt;GXXOX3</title>
<path fill="none" stroke="black" d="M214.1,-382.79C231.46,-375.66 253.07,-366.79 271.71,-359.13"/>
<polygon fill="black" stroke="black" points="273.22,-362.3 281.14,-355.26 270.56,-355.82 273.22,-362.3"/>
</g>
<!-- wrist -->
<g id="node13" class="node">
<title>wrist</title>
<ellipse fill="none" stroke="black" cx="431.02" cy="-450" rx="28.7" ry="18"/>
<text text-anchor="middle" x="431.02" y="-446.3" font-family="Times New Roman,serif" font-size="14.00">wrist</text>
</g>
<!-- OGXOX3&#45;&gt;wrist -->
<g id="edge12" class="edge">
<title>OGXOX3&#45;&gt;wrist</title>
<path fill="none" stroke="black" d="M362.7,-450C372.46,-450 382.63,-450 392.02,-450"/>
<polygon fill="black" stroke="black" points="392.22,-453.5 402.22,-450 392.22,-446.5 392.22,-453.5"/>
</g>
<!-- daisy -->
<g id="node15" class="node">
<title>daisy</title>
<ellipse fill="none" stroke="black" cx="431.02" cy="-504" rx="29.8" ry="18"/>
<text text-anchor="middle" x="431.02" y="-500.3" font-family="Times New Roman,serif" font-size="14.00">daisy</text>
</g>
<!-- XXGGX3&#45;&gt;daisy -->
<g id="edge14" class="edge">
<title>XXGGX3&#45;&gt;daisy</title>
<path fill="none" stroke="black" d="M362.7,-504C372.01,-504 381.67,-504 390.69,-504"/>
<polygon fill="black" stroke="black" points="390.9,-507.5 400.9,-504 390.9,-500.5 390.9,-507.5"/>
</g>
<!-- XXXGO3 -->
<g id="node17" class="node">
<title>XXXGO3</title>
<ellipse fill="none" stroke="black" cx="314.43" cy="-288" rx="48.19" ry="18"/>
<text text-anchor="middle" x="314.43" y="-284.3" font-family="Times New Roman,serif" font-size="14.00">XXXGO3</text>
</g>
<!-- XGGGG2&#45;&gt;XXXGO3 -->
<g id="edge16" class="edge">
<title>XGGGG2&#45;&gt;XXXGO3</title>
<path fill="none" stroke="black" d="M223.9,-269.62C236,-272.1 249.34,-274.84 261.95,-277.43"/>
<polygon fill="black" stroke="black" points="261.36,-280.88 271.86,-279.46 262.77,-274.02 261.36,-280.88"/>
</g>
<!-- XXXGX3 -->
<g id="node19" class="node">
<title>XXXGX3</title>
<ellipse fill="none" stroke="black" cx="314.43" cy="-234" rx="47.39" ry="18"/>
<text text-anchor="middle" x="314.43" y="-230.3" font-family="Times New Roman,serif" font-size="14.00">XXXGX3</text>
</g>
<!-- XGGGG2&#45;&gt;XXXGX3 -->
<g id="edge18" class="edge">
<title>XGGGG2&#45;&gt;XXXGX3</title>
<path fill="none" stroke="black" d="M223.9,-252.38C236.12,-249.87 249.6,-247.11 262.32,-244.49"/>
<polygon fill="black" stroke="black" points="263.22,-247.88 272.31,-242.44 261.81,-241.03 263.22,-247.88"/>
</g>
<!-- GXXGX3 -->
<g id="node28" class="node">
<title>GXXGX3</title>
<ellipse fill="none" stroke="black" cx="314.43" cy="-180" rx="48.19" ry="18"/>
<text text-anchor="middle" x="314.43" y="-176.3" font-family="Times New Roman,serif" font-size="14.00">GXXGX3</text>
</g>
<!-- XGGGG2&#45;&gt;GXXGX3 -->
<g id="edge27" class="edge">
<title>XGGGG2&#45;&gt;GXXGX3</title>
<path fill="none" stroke="black" d="M205.53,-245.27C222.18,-234.29 245.1,-219.44 265.68,-207 269.55,-204.66 273.62,-202.27 277.68,-199.91"/>
<polygon fill="black" stroke="black" points="279.56,-202.87 286.5,-194.87 276.08,-196.8 279.56,-202.87"/>
</g>
<!-- hoist -->
<g id="node18" class="node">
<title>hoist</title>
<ellipse fill="none" stroke="black" cx="431.02" cy="-288" rx="28.7" ry="18"/>
<text text-anchor="middle" x="431.02" y="-284.3" font-family="Times New Roman,serif" font-size="14.00">hoist</text>
</g>
<!-- XXXGO3&#45;&gt;hoist -->
<g id="edge17" class="edge">
<title>XXXGO3&#45;&gt;hoist</title>
<path fill="none" stroke="black" d="M362.7,-288C372.46,-288 382.63,-288 392.02,-288"/>
<polygon fill="black" stroke="black" points="392.22,-291.5 402.22,-288 392.22,-284.5 392.22,-291.5"/>
</g>
<!-- joist -->
<g id="node20" class="node">
<title>joist</title>
<ellipse fill="none" stroke="black" cx="431.02" cy="-234" rx="27" ry="18"/>
<text text-anchor="middle" x="431.02" y="-230.3" font-family="Times New Roman,serif" font-size="14.00">joist</text>
</g>
<!-- XXXGX3&#45;&gt;joist -->
<g id="edge19" class="edge">
<title>XXXGX3&#45;&gt;joist</title>
<path fill="none" stroke="black" d="M362.04,-234C372.62,-234 383.7,-234 393.77,-234"/>
<polygon fill="black" stroke="black" points="393.84,-237.5 403.84,-234 393.84,-230.5 393.84,-237.5"/>
</g>
<!-- waist -->
<g id="node22" class="node">
<title>waist</title>
<ellipse fill="none" stroke="black" cx="431.02" cy="-396" rx="29.5" ry="18"/>
<text text-anchor="middle" x="431.02" y="-392.3" font-family="Times New Roman,serif" font-size="14.00">waist</text>
</g>
<!-- OXOOX3&#45;&gt;waist -->
<g id="edge21" class="edge">
<title>OXOOX3&#45;&gt;waist</title>
<path fill="none" stroke="black" d="M362.7,-396C372.29,-396 382.26,-396 391.5,-396"/>
<polygon fill="black" stroke="black" points="391.56,-399.5 401.56,-396 391.56,-392.5 391.56,-399.5"/>
</g>
<!-- XOGGO3 -->
<g id="node24" class="node">
<title>XOGGO3</title>
<ellipse fill="none" stroke="black" cx="314.43" cy="-126" rx="48.99" ry="18"/>
<text text-anchor="middle" x="314.43" y="-122.3" font-family="Times New Roman,serif" font-size="14.00">XOGGO3</text>
</g>
<!-- OXGGX2&#45;&gt;XOGGO3 -->
<g id="edge23" class="edge">
<title>OXGGX2&#45;&gt;XOGGO3</title>
<path fill="none" stroke="black" d="M229.04,-126C237.51,-126 246.44,-126 255.18,-126"/>
<polygon fill="black" stroke="black" points="255.33,-129.5 265.33,-126 255.33,-122.5 255.33,-129.5"/>
</g>
<!-- amiss -->
<g id="node30" class="node">
<title>amiss</title>
<ellipse fill="none" stroke="black" cx="314.43" cy="-72" rx="31.4" ry="18"/>
<text text-anchor="middle" x="314.43" y="-68.3" font-family="Times New Roman,serif" font-size="14.00">amiss</text>
</g>
<!-- OXGGX2&#45;&gt;amiss -->
<g id="edge29" class="edge">
<title>OXGGX2&#45;&gt;amiss</title>
<path fill="none" stroke="black" d="M214.1,-112.79C233.84,-104.69 259.08,-94.32 279.19,-86.06"/>
<polygon fill="black" stroke="black" points="280.68,-89.23 288.6,-82.2 278.02,-82.76 280.68,-89.23"/>
</g>
<!-- prism -->
<g id="node25" class="node">
<title>prism</title>
<ellipse fill="none" stroke="black" cx="431.02" cy="-126" rx="31.4" ry="18"/>
<text text-anchor="middle" x="431.02" y="-122.3" font-family="Times New Roman,serif" font-size="14.00">prism</text>
</g>
<!-- XOGGO3&#45;&gt;prism -->
<g id="edge24" class="edge">
<title>XOGGO3&#45;&gt;prism</title>
<path fill="none" stroke="black" d="M363.36,-126C372.08,-126 381.1,-126 389.58,-126"/>
<polygon fill="black" stroke="black" points="389.59,-129.5 399.59,-126 389.59,-122.5 389.59,-129.5"/>
</g>
<!-- noisy -->
<g id="node27" class="node">
<title>noisy</title>
<ellipse fill="none" stroke="black" cx="314.43" cy="-18" rx="30.59" ry="18"/>
<text text-anchor="middle" x="314.43" y="-14.3" font-family="Times New Roman,serif" font-size="14.00">noisy</text>
</g>
<!-- XGGGX2&#45;&gt;noisy -->
<g id="edge26" class="edge">
<title>XGGGX2&#45;&gt;noisy</title>
<path fill="none" stroke="black" d="M223.54,-36.46C240.08,-33.06 258.99,-29.18 275.18,-25.85"/>
<polygon fill="black" stroke="black" points="276.29,-29.2 285.38,-23.76 274.88,-22.34 276.29,-29.2"/>
</g>
<!-- foist -->
<g id="node29" class="node">
<title>foist</title>
<ellipse fill="none" stroke="black" cx="431.02" cy="-180" rx="27" ry="18"/>
<text text-anchor="middle" x="431.02" y="-176.3" font-family="Times New Roman,serif" font-size="14.00">foist</text>
</g>
<!-- GXXGX3&#45;&gt;foist -->
<g id="edge28" class="edge">
<title>GXXGX3&#45;&gt;foist</title>
<path fill="none" stroke="black" d="M362.7,-180C373.02,-180 383.79,-180 393.62,-180"/>
<polygon fill="black" stroke="black" points="393.83,-183.5 403.83,-180 393.83,-176.5 393.83,-183.5"/>
</g>
<!-- twist -->
<g id="node32" class="node">
<title>twist</title>
<ellipse fill="none" stroke="black" cx="431.02" cy="-342" rx="27.9" ry="18"/>
<text text-anchor="middle" x="431.02" y="-338.3" font-family="Times New Roman,serif" font-size="14.00">twist</text>
</g>
<!-- GXXOX3&#45;&gt;twist -->
<g id="edge31" class="edge">
<title>GXXOX3&#45;&gt;twist</title>
<path fill="none" stroke="black" d="M362.7,-342C372.75,-342 383.23,-342 392.84,-342"/>
<polygon fill="black" stroke="black" points="392.87,-345.5 402.87,-342 392.87,-338.5 392.87,-345.5"/>
</g>
</g>
</svg>
