<?xml version="1.0" encoding="UTF-8" standalone="no"?>
<!DOCTYPE svg PUBLIC "-//W3C//DTD SVG 1.1//EN"
 "http://www.w3.org/Graphics/SVG/1.1/DTD/svg11.dtd">
<!-- Generated by graphviz version 2.50.0 (20211204.2007)
 -->
<!-- Pages: 1 -->
<svg width="332pt" height="98pt"
 viewBox="0.00 0.00 332.18 98.00" xmlns="http://www.w3.org/2000/svg" xmlns:xlink="http://www.w3.org/1999/xlink">
<g id="graph0" class="graph" transform="scale(1 1) rotate(0) translate(4 94)">
<polygon fill="white" stroke="transparent" points="-4,4 -4,-94 328.18,-94 328.18,4 -4,4"/>
<!-- XXOOG1 -->
<g id="node1" class="node">
<title>XXOOG1</title>
<ellipse fill="none" stroke="black" cx="48.1" cy="-45" rx="48.19" ry="18"/>
<text text-anchor="middle" x="48.1" y="-41.3" font-family="Times New Roman,serif" font-size="14.00">XXOOG1</text>
</g>
<!-- cutie -->
<g id="node2" class="node">
<title>cutie</title>
<ellipse fill="none" stroke="black" cx="180.29" cy="-72" rx="27.9" ry="18"/>
<text text-anchor="middle" x="180.29" y="-68.3" font-family="Times New Roman,serif" font-size="14.00">cutie</text>
</g>
<!-- XXOOG1&#45;&gt;cutie -->
<g id="edge1" class="edge">
<title>XXOOG1&#45;&gt;cutie</title>
<path fill="none" stroke="black" d="M90.65,-53.62C107.5,-57.11 126.78,-61.11 143.04,-64.48"/>
<polygon fill="black" stroke="black" points="142.74,-67.99 153.24,-66.6 144.16,-61.14 142.74,-67.99"/>
</g>
<!-- OXXOG2 -->
<g id="node3" class="node">
<title>OXXOG2</title>
<ellipse fill="none" stroke="black" cx="180.29" cy="-18" rx="48.19" ry="18"/>
<text text-anchor="middle" x="180.29" y="-14.3" font-family="Times New Roman,serif" font-size="14.00">OXXOG2</text>
</g>
<!-- XXOOG1&#45;&gt;OXXOG2 -->
<g id="edge2" class="edge">
<title>XXOOG1&#45;&gt;OXXOG2</title>
<path fill="none" stroke="black" d="M90.65,-36.38C102.39,-33.95 115.32,-31.27 127.58,-28.72"/>
<polygon fill="black" stroke="black" points="128.6,-32.09 137.68,-26.63 127.18,-25.23 128.6,-32.09"/>
</g>
<!-- niche -->
<g id="node4" class="node">
<title>niche</title>
<ellipse fill="none" stroke="black" cx="294.28" cy="-18" rx="29.8" ry="18"/>
<text text-anchor="middle" x="294.28" y="-14.3" font-family="Times New Roman,serif" font-size="14.00">niche</text>
</g>
<!-- OXXOG2&#45;&gt;niche -->
<g id="edge3" class="edge">
<title>OXXOG2&#45;&gt;niche</title>
<path fill="none" stroke="black" d="M228.46,-18C237.03,-18 245.89,-18 254.2,-18"/>
<polygon fill="black" stroke="black" points="254.37,-21.5 264.37,-18 254.37,-14.5 254.37,-21.5"/>
</g>
</g>
</svg>
