<?xml version="1.0" encoding="UTF-8" standalone="no"?>
<!DOCTYPE svg PUBLIC "-//W3C//DTD SVG 1.1//EN"
 "http://www.w3.org/Graphics/SVG/1.1/DTD/svg11.dtd">
<!-- Generated by graphviz version 2.50.0 (20211204.2007)
 -->
<!-- Pages: 1 -->
<svg width="600pt" height="908pt"
 viewBox="0.00 0.00 600.46 908.00" xmlns="http://www.w3.org/2000/svg" xmlns:xlink="http://www.w3.org/1999/xlink">
<g id="graph0" class="graph" transform="scale(1 1) rotate(0) translate(4 904)">
<polygon fill="white" stroke="transparent" points="-4,4 -4,-904 596.46,-904 596.46,4 -4,4"/>
<!-- XXXOG1 -->
<g id="node1" class="node">
<title>XXXOG1</title>
<ellipse fill="none" stroke="black" cx="48.1" cy="-369" rx="48.19" ry="18"/>
<text text-anchor="middle" x="48.1" y="-365.3" font-family="Times New Roman,serif" font-size="14.00">XXXOG1</text>
</g>
<!-- GGGXG2 -->
<g id="node2" class="node">
<title>GGGXG2</title>
<ellipse fill="none" stroke="black" cx="180.94" cy="-794" rx="48.99" ry="18"/>
<text text-anchor="middle" x="180.94" y="-790.3" font-family="Times New Roman,serif" font-size="14.00">GGGXG2</text>
</g>
<!-- XXXOG1&#45;&gt;GGGXG2 -->
<g id="edge1" class="edge">
<title>XXXOG1&#45;&gt;GGGXG2</title>
<path fill="none" stroke="black" d="M50.81,-387.3C56.38,-441.43 76.98,-604.56 132.19,-727 138.97,-742.02 149.33,-757.11 158.68,-769.16"/>
<polygon fill="black" stroke="black" points="155.95,-771.35 164.93,-776.97 161.41,-766.98 155.95,-771.35"/>
</g>
<!-- OXOXG2 -->
<g id="node7" class="node">
<title>OXOXG2</title>
<ellipse fill="none" stroke="black" cx="180.94" cy="-700" rx="48.19" ry="18"/>
<text text-anchor="middle" x="180.94" y="-696.3" font-family="Times New Roman,serif" font-size="14.00">OXOXG2</text>
</g>
<!-- XXXOG1&#45;&gt;OXOXG2 -->
<g id="edge6" class="edge">
<title>XXXOG1&#45;&gt;OXOXG2</title>
<path fill="none" stroke="black" d="M54.14,-387.07C65.8,-427.96 96.38,-530.34 132.19,-612 141.5,-633.22 154.06,-656.2 163.96,-673.36"/>
<polygon fill="black" stroke="black" points="161.09,-675.37 169.15,-682.24 167.13,-671.84 161.09,-675.37"/>
</g>
<!-- GXXXG2 -->
<g id="node9" class="node">
<title>GXXXG2</title>
<ellipse fill="none" stroke="black" cx="180.94" cy="-585" rx="48.19" ry="18"/>
<text text-anchor="middle" x="180.94" y="-581.3" font-family="Times New Roman,serif" font-size="14.00">GXXXG2</text>
</g>
<!-- XXXOG1&#45;&gt;GXXXG2 -->
<g id="edge8" class="edge">
<title>XXXOG1&#45;&gt;GXXXG2</title>
<path fill="none" stroke="black" d="M56.48,-386.83C69.58,-417.56 98.69,-481.92 132.19,-531 139.18,-541.23 147.9,-551.63 155.97,-560.53"/>
<polygon fill="black" stroke="black" points="153.47,-562.97 162.84,-567.92 158.6,-558.21 153.47,-562.97"/>
</g>
<!-- GXOOG2 -->
<g id="node15" class="node">
<title>GXOOG2</title>
<ellipse fill="none" stroke="black" cx="180.94" cy="-504" rx="48.99" ry="18"/>
<text text-anchor="middle" x="180.94" y="-500.3" font-family="Times New Roman,serif" font-size="14.00">GXOOG2</text>
</g>
<!-- XXXOG1&#45;&gt;GXOOG2 -->
<g id="edge14" class="edge">
<title>XXXOG1&#45;&gt;GXOOG2</title>
<path fill="none" stroke="black" d="M59.64,-386.84C73.89,-409.82 101.1,-450.02 132.19,-477 135.18,-479.59 138.46,-482.06 141.85,-484.36"/>
<polygon fill="black" stroke="black" points="140.1,-487.4 150.42,-489.76 143.83,-481.47 140.1,-487.4"/>
</g>
<!-- GOOXG2 -->
<g id="node17" class="node">
<title>GOOXG2</title>
<ellipse fill="none" stroke="black" cx="180.94" cy="-450" rx="48.99" ry="18"/>
<text text-anchor="middle" x="180.94" y="-446.3" font-family="Times New Roman,serif" font-size="14.00">GOOXG2</text>
</g>
<!-- XXXOG1&#45;&gt;GOOXG2 -->
<g id="edge16" class="edge">
<title>XXXOG1&#45;&gt;GOOXG2</title>
<path fill="none" stroke="black" d="M72.49,-384.75C89.01,-395.74 111.75,-410.59 132.19,-423 136.05,-425.34 140.12,-427.74 144.18,-430.1"/>
<polygon fill="black" stroke="black" points="142.58,-433.22 153,-435.15 146.06,-427.14 142.58,-433.22"/>
</g>
<!-- OXXXG2 -->
<g id="node19" class="node">
<title>OXXXG2</title>
<ellipse fill="none" stroke="black" cx="180.94" cy="-396" rx="48.19" ry="18"/>
<text text-anchor="middle" x="180.94" y="-392.3" font-family="Times New Roman,serif" font-size="14.00">OXXXG2</text>
</g>
<!-- XXXOG1&#45;&gt;OXXXG2 -->
<g id="edge18" class="edge">
<title>XXXOG1&#45;&gt;OXXXG2</title>
<path fill="none" stroke="black" d="M90.49,-377.54C102.55,-380.03 115.86,-382.78 128.45,-385.38"/>
<polygon fill="black" stroke="black" points="127.86,-388.83 138.36,-387.42 129.27,-381.97 127.86,-388.83"/>
</g>
<!-- GOXXG2 -->
<g id="node21" class="node">
<title>GOXXG2</title>
<ellipse fill="none" stroke="black" cx="180.94" cy="-342" rx="48.19" ry="18"/>
<text text-anchor="middle" x="180.94" y="-338.3" font-family="Times New Roman,serif" font-size="14.00">GOXXG2</text>
</g>
<!-- XXXOG1&#45;&gt;GOXXG2 -->
<g id="edge20" class="edge">
<title>XXXOG1&#45;&gt;GOXXG2</title>
<path fill="none" stroke="black" d="M90.49,-360.46C102.55,-357.97 115.86,-355.22 128.45,-352.62"/>
<polygon fill="black" stroke="black" points="129.27,-356.03 138.36,-350.58 127.86,-349.17 129.27,-356.03"/>
</g>
<!-- GXGXG2 -->
<g id="node23" class="node">
<title>GXGXG2</title>
<ellipse fill="none" stroke="black" cx="180.94" cy="-261" rx="48.19" ry="18"/>
<text text-anchor="middle" x="180.94" y="-257.3" font-family="Times New Roman,serif" font-size="14.00">GXGXG2</text>
</g>
<!-- XXXOG1&#45;&gt;GXGXG2 -->
<g id="edge22" class="edge">
<title>XXXOG1&#45;&gt;GXGXG2</title>
<path fill="none" stroke="black" d="M68.97,-352.6C91.06,-334.36 126.92,-304.76 151.87,-284.17"/>
<polygon fill="black" stroke="black" points="154.39,-286.62 159.88,-277.56 149.94,-281.22 154.39,-286.62"/>
</g>
<!-- GXOXG2 -->
<g id="node25" class="node">
<title>GXOXG2</title>
<ellipse fill="none" stroke="black" cx="180.94" cy="-204" rx="48.19" ry="18"/>
<text text-anchor="middle" x="180.94" y="-200.3" font-family="Times New Roman,serif" font-size="14.00">GXOXG2</text>
</g>
<!-- XXXOG1&#45;&gt;GXOXG2 -->
<g id="edge24" class="edge">
<title>XXXOG1&#45;&gt;GXOXG2</title>
<path fill="none" stroke="black" d="M56.87,-351.06C69.51,-323.39 96.74,-269.78 132.19,-234 135.63,-230.53 139.54,-227.28 143.61,-224.28"/>
<polygon fill="black" stroke="black" points="145.78,-227.04 152.08,-218.52 141.84,-221.25 145.78,-227.04"/>
</g>
<!-- GGXXG2 -->
<g id="node27" class="node">
<title>GGXXG2</title>
<ellipse fill="none" stroke="black" cx="180.94" cy="-143" rx="48.19" ry="18"/>
<text text-anchor="middle" x="180.94" y="-139.3" font-family="Times New Roman,serif" font-size="14.00">GGXXG2</text>
</g>
<!-- XXXOG1&#45;&gt;GGXXG2 -->
<g id="edge26" class="edge">
<title>XXXOG1&#45;&gt;GGXXG2</title>
<path fill="none" stroke="black" d="M53.41,-350.87C62.75,-314.64 87.64,-232.06 132.19,-177 135.96,-172.34 140.53,-168.02 145.32,-164.13"/>
<polygon fill="black" stroke="black" points="147.59,-166.81 153.51,-158.02 143.4,-161.2 147.59,-166.81"/>
</g>
<!-- crane -->
<g id="node34" class="node">
<title>crane</title>
<ellipse fill="none" stroke="black" cx="180.94" cy="-89" rx="30.59" ry="18"/>
<text text-anchor="middle" x="180.94" y="-85.3" font-family="Times New Roman,serif" font-size="14.00">crane</text>
</g>
<!-- XXXOG1&#45;&gt;crane -->
<g id="edge33" class="edge">
<title>XXXOG1&#45;&gt;crane</title>
<path fill="none" stroke="black" d="M50.59,-350.95C55.13,-306.29 72.4,-188.93 132.19,-116 136.06,-111.28 140.98,-107.24 146.19,-103.82"/>
<polygon fill="black" stroke="black" points="148.19,-106.7 155.08,-98.66 144.68,-100.65 148.19,-106.7"/>
</g>
<!-- GGXGG2 -->
<g id="node39" class="node">
<title>GGXGG2</title>
<ellipse fill="none" stroke="black" cx="180.94" cy="-22" rx="48.99" ry="18"/>
<text text-anchor="middle" x="180.94" y="-18.3" font-family="Times New Roman,serif" font-size="14.00">GGXGG2</text>
</g>
<!-- XXXOG1&#45;&gt;GGXGG2 -->
<g id="edge38" class="edge">
<title>XXXOG1&#45;&gt;GGXGG2</title>
<path fill="none" stroke="black" d="M50.24,-350.87C54.13,-300.95 70.32,-158.76 132.19,-62 136.36,-55.49 141.92,-49.49 147.77,-44.23"/>
<polygon fill="black" stroke="black" points="150.38,-46.62 155.84,-37.54 145.91,-41.23 150.38,-46.62"/>
</g>
<!-- XXOOX3 -->
<g id="node3" class="node">
<title>XXOOX3</title>
<ellipse fill="none" stroke="black" cx="313.78" cy="-882" rx="48.19" ry="18"/>
<text text-anchor="middle" x="313.78" y="-878.3" font-family="Times New Roman,serif" font-size="14.00">XXOOX3</text>
</g>
<!-- GGGXG2&#45;&gt;XXOOX3 -->
<g id="edge2" class="edge">
<title>GGGXG2&#45;&gt;XXOOX3</title>
<path fill="none" stroke="black" d="M202.83,-810.2C219.51,-822.89 243.65,-840.72 265.68,-855 269.24,-857.31 273,-859.64 276.79,-861.91"/>
<polygon fill="black" stroke="black" points="275.18,-865.03 285.58,-867.08 278.73,-858.99 275.18,-865.03"/>
</g>
<!-- XXXOX3 -->
<g id="node5" class="node">
<title>XXXOX3</title>
<ellipse fill="none" stroke="black" cx="313.78" cy="-828" rx="47.39" ry="18"/>
<text text-anchor="middle" x="313.78" y="-824.3" font-family="Times New Roman,serif" font-size="14.00">XXXOX3</text>
</g>
<!-- GGGXG2&#45;&gt;XXXOX3 -->
<g id="edge4" class="edge">
<title>GGGXG2&#45;&gt;XXXOX3</title>
<path fill="none" stroke="black" d="M221.19,-804.2C234.64,-807.7 249.85,-811.65 263.96,-815.31"/>
<polygon fill="black" stroke="black" points="263.44,-818.8 274,-817.92 265.2,-812.02 263.44,-818.8"/>
</g>
<!-- OXXOX3 -->
<g id="node13" class="node">
<title>OXXOX3</title>
<ellipse fill="none" stroke="black" cx="313.78" cy="-774" rx="48.19" ry="18"/>
<text text-anchor="middle" x="313.78" y="-770.3" font-family="Times New Roman,serif" font-size="14.00">OXXOX3</text>
</g>
<!-- GGGXG2&#45;&gt;OXXOX3 -->
<g id="edge12" class="edge">
<title>GGGXG2&#45;&gt;OXXOX3</title>
<path fill="none" stroke="black" d="M226.23,-787.23C236.68,-785.63 247.94,-783.91 258.76,-782.26"/>
<polygon fill="black" stroke="black" points="259.62,-785.67 268.97,-780.7 258.56,-778.75 259.62,-785.67"/>
</g>
<!-- crate -->
<g id="node4" class="node">
<title>crate</title>
<ellipse fill="none" stroke="black" cx="446.62" cy="-882" rx="28.7" ry="18"/>
<text text-anchor="middle" x="446.62" y="-878.3" font-family="Times New Roman,serif" font-size="14.00">crate</text>
</g>
<!-- XXOOX3&#45;&gt;crate -->
<g id="edge3" class="edge">
<title>XXOOX3&#45;&gt;crate</title>
<path fill="none" stroke="black" d="M362.02,-882C376.95,-882 393.25,-882 407.47,-882"/>
<polygon fill="black" stroke="black" points="407.87,-885.5 417.87,-882 407.87,-878.5 407.87,-885.5"/>
</g>
<!-- craze -->
<g id="node6" class="node">
<title>craze</title>
<ellipse fill="none" stroke="black" cx="446.62" cy="-828" rx="29.8" ry="18"/>
<text text-anchor="middle" x="446.62" y="-824.3" font-family="Times New Roman,serif" font-size="14.00">craze</text>
</g>
<!-- XXXOX3&#45;&gt;craze -->
<g id="edge5" class="edge">
<title>XXXOX3&#45;&gt;craze</title>
<path fill="none" stroke="black" d="M361.28,-828C375.91,-828 391.92,-828 406.03,-828"/>
<polygon fill="black" stroke="black" points="406.39,-831.5 416.39,-828 406.39,-824.5 406.39,-831.5"/>
</g>
<!-- acute -->
<g id="node8" class="node">
<title>acute</title>
<ellipse fill="none" stroke="black" cx="313.78" cy="-720" rx="29.8" ry="18"/>
<text text-anchor="middle" x="313.78" y="-716.3" font-family="Times New Roman,serif" font-size="14.00">acute</text>
</g>
<!-- OXOXG2&#45;&gt;acute -->
<g id="edge7" class="edge">
<title>OXOXG2&#45;&gt;acute</title>
<path fill="none" stroke="black" d="M225.87,-706.72C241.55,-709.11 259.09,-711.79 274.28,-714.12"/>
<polygon fill="black" stroke="black" points="273.96,-717.61 284.37,-715.66 275.01,-710.69 273.96,-717.61"/>
</g>
<!-- choke -->
<g id="node10" class="node">
<title>choke</title>
<ellipse fill="none" stroke="black" cx="313.78" cy="-666" rx="32.49" ry="18"/>
<text text-anchor="middle" x="313.78" y="-662.3" font-family="Times New Roman,serif" font-size="14.00">choke</text>
</g>
<!-- GXXXG2&#45;&gt;choke -->
<g id="edge9" class="edge">
<title>GXXXG2&#45;&gt;choke</title>
<path fill="none" stroke="black" d="M205.55,-600.7C222.22,-611.65 245.14,-626.5 265.68,-639 270.74,-642.08 276.15,-645.27 281.43,-648.33"/>
<polygon fill="black" stroke="black" points="279.71,-651.38 290.12,-653.33 283.2,-645.31 279.71,-651.38"/>
</g>
<!-- GGXXG3 -->
<g id="node11" class="node">
<title>GGXXG3</title>
<ellipse fill="none" stroke="black" cx="313.78" cy="-612" rx="48.19" ry="18"/>
<text text-anchor="middle" x="313.78" y="-608.3" font-family="Times New Roman,serif" font-size="14.00">GGXXG3</text>
</g>
<!-- GXXXG2&#45;&gt;GGXXG3 -->
<g id="edge10" class="edge">
<title>GXXXG2&#45;&gt;GGXXG3</title>
<path fill="none" stroke="black" d="M223.34,-593.54C235.39,-596.03 248.7,-598.78 261.29,-601.38"/>
<polygon fill="black" stroke="black" points="260.7,-604.83 271.2,-603.42 262.11,-597.97 260.7,-604.83"/>
</g>
<!-- GXOXG3 -->
<g id="node35" class="node">
<title>GXOXG3</title>
<ellipse fill="none" stroke="black" cx="313.78" cy="-558" rx="48.19" ry="18"/>
<text text-anchor="middle" x="313.78" y="-554.3" font-family="Times New Roman,serif" font-size="14.00">GXOXG3</text>
</g>
<!-- GXXXG2&#45;&gt;GXOXG3 -->
<g id="edge34" class="edge">
<title>GXXXG2&#45;&gt;GXOXG3</title>
<path fill="none" stroke="black" d="M223.34,-576.46C235.39,-573.97 248.7,-571.22 261.29,-568.62"/>
<polygon fill="black" stroke="black" points="262.11,-572.03 271.2,-566.58 260.7,-565.17 262.11,-572.03"/>
</g>
<!-- chute -->
<g id="node12" class="node">
<title>chute</title>
<ellipse fill="none" stroke="black" cx="446.62" cy="-612" rx="30.59" ry="18"/>
<text text-anchor="middle" x="446.62" y="-608.3" font-family="Times New Roman,serif" font-size="14.00">chute</text>
</g>
<!-- GGXXG3&#45;&gt;chute -->
<g id="edge11" class="edge">
<title>GGXXG3&#45;&gt;chute</title>
<path fill="none" stroke="black" d="M362.02,-612C376.36,-612 391.98,-612 405.79,-612"/>
<polygon fill="black" stroke="black" points="405.95,-615.5 415.95,-612 405.95,-608.5 405.95,-615.5"/>
</g>
<!-- crave -->
<g id="node14" class="node">
<title>crave</title>
<ellipse fill="none" stroke="black" cx="446.62" cy="-774" rx="30.59" ry="18"/>
<text text-anchor="middle" x="446.62" y="-770.3" font-family="Times New Roman,serif" font-size="14.00">crave</text>
</g>
<!-- OXXOX3&#45;&gt;crave -->
<g id="edge13" class="edge">
<title>OXXOX3&#45;&gt;crave</title>
<path fill="none" stroke="black" d="M362.02,-774C376.36,-774 391.98,-774 405.79,-774"/>
<polygon fill="black" stroke="black" points="405.95,-777.5 415.95,-774 405.95,-770.5 405.95,-777.5"/>
</g>
<!-- canoe -->
<g id="node16" class="node">
<title>canoe</title>
<ellipse fill="none" stroke="black" cx="313.78" cy="-504" rx="32.49" ry="18"/>
<text text-anchor="middle" x="313.78" y="-500.3" font-family="Times New Roman,serif" font-size="14.00">canoe</text>
</g>
<!-- GXOOG2&#45;&gt;canoe -->
<g id="edge15" class="edge">
<title>GXOOG2&#45;&gt;canoe</title>
<path fill="none" stroke="black" d="M229.91,-504C243.38,-504 257.91,-504 270.99,-504"/>
<polygon fill="black" stroke="black" points="271.11,-507.5 281.11,-504 271.11,-500.5 271.11,-507.5"/>
</g>
<!-- carve -->
<g id="node18" class="node">
<title>carve</title>
<ellipse fill="none" stroke="black" cx="313.78" cy="-450" rx="30.59" ry="18"/>
<text text-anchor="middle" x="313.78" y="-446.3" font-family="Times New Roman,serif" font-size="14.00">carve</text>
</g>
<!-- GOOXG2&#45;&gt;carve -->
<g id="edge17" class="edge">
<title>GOOXG2&#45;&gt;carve</title>
<path fill="none" stroke="black" d="M229.91,-450C244.1,-450 259.46,-450 273.06,-450"/>
<polygon fill="black" stroke="black" points="273.06,-453.5 283.06,-450 273.06,-446.5 273.06,-453.5"/>
</g>
<!-- emcee -->
<g id="node20" class="node">
<title>emcee</title>
<ellipse fill="none" stroke="black" cx="313.78" cy="-396" rx="33.6" ry="18"/>
<text text-anchor="middle" x="313.78" y="-392.3" font-family="Times New Roman,serif" font-size="14.00">emcee</text>
</g>
<!-- OXXXG2&#45;&gt;emcee -->
<g id="edge19" class="edge">
<title>OXXXG2&#45;&gt;emcee</title>
<path fill="none" stroke="black" d="M229.17,-396C242.46,-396 256.83,-396 269.85,-396"/>
<polygon fill="black" stroke="black" points="269.95,-399.5 279.95,-396 269.95,-392.5 269.95,-399.5"/>
</g>
<!-- chore -->
<g id="node22" class="node">
<title>chore</title>
<ellipse fill="none" stroke="black" cx="313.78" cy="-342" rx="31.4" ry="18"/>
<text text-anchor="middle" x="313.78" y="-338.3" font-family="Times New Roman,serif" font-size="14.00">chore</text>
</g>
<!-- GOXXG2&#45;&gt;chore -->
<g id="edge21" class="edge">
<title>GOXXG2&#45;&gt;chore</title>
<path fill="none" stroke="black" d="M229.17,-342C243.29,-342 258.63,-342 272.28,-342"/>
<polygon fill="black" stroke="black" points="272.33,-345.5 282.33,-342 272.33,-338.5 272.33,-345.5"/>
</g>
<!-- GXXOG3 -->
<g id="node37" class="node">
<title>GXXOG3</title>
<ellipse fill="none" stroke="black" cx="313.78" cy="-288" rx="48.19" ry="18"/>
<text text-anchor="middle" x="313.78" y="-284.3" font-family="Times New Roman,serif" font-size="14.00">GXXOG3</text>
</g>
<!-- GOXXG2&#45;&gt;GXXOG3 -->
<g id="edge36" class="edge">
<title>GOXXG2&#45;&gt;GXXOG3</title>
<path fill="none" stroke="black" d="M213.94,-328.79C231.21,-321.66 252.72,-312.79 271.26,-305.13"/>
<polygon fill="black" stroke="black" points="272.74,-308.31 280.65,-301.26 270.07,-301.84 272.74,-308.31"/>
</g>
<!-- chafe -->
<g id="node24" class="node">
<title>chafe</title>
<ellipse fill="none" stroke="black" cx="313.78" cy="-234" rx="30.59" ry="18"/>
<text text-anchor="middle" x="313.78" y="-230.3" font-family="Times New Roman,serif" font-size="14.00">chafe</text>
</g>
<!-- GXGXG2&#45;&gt;chafe -->
<g id="edge23" class="edge">
<title>GXGXG2&#45;&gt;chafe</title>
<path fill="none" stroke="black" d="M223.34,-252.46C239.67,-249.09 258.33,-245.24 274.36,-241.93"/>
<polygon fill="black" stroke="black" points="275.38,-245.29 284.47,-239.84 273.97,-238.44 275.38,-245.29"/>
</g>
<!-- cache -->
<g id="node26" class="node">
<title>cache</title>
<ellipse fill="none" stroke="black" cx="313.78" cy="-180" rx="31.7" ry="18"/>
<text text-anchor="middle" x="313.78" y="-176.3" font-family="Times New Roman,serif" font-size="14.00">cache</text>
</g>
<!-- GXOXG2&#45;&gt;cache -->
<g id="edge25" class="edge">
<title>GXOXG2&#45;&gt;cache</title>
<path fill="none" stroke="black" d="M224.42,-196.21C240.06,-193.34 257.7,-190.1 273.09,-187.28"/>
<polygon fill="black" stroke="black" points="274.13,-190.65 283.33,-185.4 272.86,-183.76 274.13,-190.65"/>
</g>
<!-- OOXXX3 -->
<g id="node28" class="node">
<title>OOXXX3</title>
<ellipse fill="none" stroke="black" cx="313.78" cy="-126" rx="48.19" ry="18"/>
<text text-anchor="middle" x="313.78" y="-122.3" font-family="Times New Roman,serif" font-size="14.00">OOXXX3</text>
</g>
<!-- GGXXG2&#45;&gt;OOXXX3 -->
<g id="edge27" class="edge">
<title>GGXXG2&#45;&gt;OOXXX3</title>
<path fill="none" stroke="black" d="M226.6,-137.2C236.59,-135.9 247.31,-134.51 257.67,-133.16"/>
<polygon fill="black" stroke="black" points="258.41,-136.59 267.87,-131.83 257.51,-129.65 258.41,-136.59"/>
</g>
<!-- OOXOX3 -->
<g id="node32" class="node">
<title>OOXOX3</title>
<ellipse fill="none" stroke="black" cx="313.78" cy="-72" rx="48.19" ry="18"/>
<text text-anchor="middle" x="313.78" y="-68.3" font-family="Times New Roman,serif" font-size="14.00">OOXOX3</text>
</g>
<!-- GGXXG2&#45;&gt;OOXOX3 -->
<g id="edge31" class="edge">
<title>GGXXG2&#45;&gt;OOXOX3</title>
<path fill="none" stroke="black" d="M209.05,-128.29C228.7,-117.63 255.46,-103.1 276.89,-91.48"/>
<polygon fill="black" stroke="black" points="278.58,-94.54 285.7,-86.69 275.24,-88.39 278.58,-94.54"/>
</g>
<!-- creme -->
<g id="node29" class="node">
<title>creme</title>
<ellipse fill="none" stroke="black" cx="446.62" cy="-180" rx="32.49" ry="18"/>
<text text-anchor="middle" x="446.62" y="-176.3" font-family="Times New Roman,serif" font-size="14.00">creme</text>
</g>
<!-- OOXXX3&#45;&gt;creme -->
<g id="edge28" class="edge">
<title>OOXXX3&#45;&gt;creme</title>
<path fill="none" stroke="black" d="M346.79,-139.21C366.16,-147.21 390.88,-157.41 410.75,-165.61"/>
<polygon fill="black" stroke="black" points="409.49,-168.88 420.07,-169.46 412.16,-162.41 409.49,-168.88"/>
</g>
<!-- GGGXG4 -->
<g id="node30" class="node">
<title>GGGXG4</title>
<ellipse fill="none" stroke="black" cx="446.62" cy="-126" rx="48.99" ry="18"/>
<text text-anchor="middle" x="446.62" y="-122.3" font-family="Times New Roman,serif" font-size="14.00">GGGXG4</text>
</g>
<!-- OOXXX3&#45;&gt;GGGXG4 -->
<g id="edge29" class="edge">
<title>OOXXX3&#45;&gt;GGGXG4</title>
<path fill="none" stroke="black" d="M362.02,-126C370.24,-126 378.88,-126 387.35,-126"/>
<polygon fill="black" stroke="black" points="387.57,-129.5 397.57,-126 387.57,-122.5 387.57,-129.5"/>
</g>
<!-- crepe -->
<g id="node31" class="node">
<title>crepe</title>
<ellipse fill="none" stroke="black" cx="561.91" cy="-126" rx="30.59" ry="18"/>
<text text-anchor="middle" x="561.91" y="-122.3" font-family="Times New Roman,serif" font-size="14.00">crepe</text>
</g>
<!-- GGGXG4&#45;&gt;crepe -->
<g id="edge30" class="edge">
<title>GGGXG4&#45;&gt;crepe</title>
<path fill="none" stroke="black" d="M495.67,-126C504.15,-126 512.89,-126 521.11,-126"/>
<polygon fill="black" stroke="black" points="521.19,-129.5 531.19,-126 521.19,-122.5 521.19,-129.5"/>
</g>
<!-- crude -->
<g id="node33" class="node">
<title>crude</title>
<ellipse fill="none" stroke="black" cx="446.62" cy="-72" rx="31.4" ry="18"/>
<text text-anchor="middle" x="446.62" y="-68.3" font-family="Times New Roman,serif" font-size="14.00">crude</text>
</g>
<!-- OOXOX3&#45;&gt;crude -->
<g id="edge32" class="edge">
<title>OOXOX3&#45;&gt;crude</title>
<path fill="none" stroke="black" d="M362.02,-72C376.13,-72 391.47,-72 405.12,-72"/>
<polygon fill="black" stroke="black" points="405.17,-75.5 415.17,-72 405.17,-68.5 405.17,-75.5"/>
</g>
<!-- coupe -->
<g id="node36" class="node">
<title>coupe</title>
<ellipse fill="none" stroke="black" cx="446.62" cy="-558" rx="33.29" ry="18"/>
<text text-anchor="middle" x="446.62" y="-554.3" font-family="Times New Roman,serif" font-size="14.00">coupe</text>
</g>
<!-- GXOXG3&#45;&gt;coupe -->
<g id="edge35" class="edge">
<title>GXOXG3&#45;&gt;coupe</title>
<path fill="none" stroke="black" d="M362.02,-558C375.42,-558 389.92,-558 403.03,-558"/>
<polygon fill="black" stroke="black" points="403.19,-561.5 413.19,-558 403.19,-554.5 403.19,-561.5"/>
</g>
<!-- curve -->
<g id="node38" class="node">
<title>curve</title>
<ellipse fill="none" stroke="black" cx="446.62" cy="-288" rx="30.59" ry="18"/>
<text text-anchor="middle" x="446.62" y="-284.3" font-family="Times New Roman,serif" font-size="14.00">curve</text>
</g>
<!-- GXXOG3&#45;&gt;curve -->
<g id="edge37" class="edge">
<title>GXXOG3&#45;&gt;curve</title>
<path fill="none" stroke="black" d="M362.02,-288C376.36,-288 391.98,-288 405.79,-288"/>
<polygon fill="black" stroke="black" points="405.95,-291.5 415.95,-288 405.95,-284.5 405.95,-291.5"/>
</g>
<!-- crone -->
<g id="node40" class="node">
<title>crone</title>
<ellipse fill="none" stroke="black" cx="313.78" cy="-18" rx="31.4" ry="18"/>
<text text-anchor="middle" x="313.78" y="-14.3" font-family="Times New Roman,serif" font-size="14.00">crone</text>
</g>
<!-- GGXGG2&#45;&gt;crone -->
<g id="edge39" class="edge">
<title>GGXGG2&#45;&gt;crone</title>
<path fill="none" stroke="black" d="M229.54,-20.54C243.63,-20.11 258.92,-19.65 272.5,-19.23"/>
<polygon fill="black" stroke="black" points="272.61,-22.73 282.5,-18.93 272.4,-15.73 272.61,-22.73"/>
</g>
</g>
</svg>
