<?xml version="1.0" encoding="UTF-8" standalone="no"?>
<!DOCTYPE svg PUBLIC "-//W3C//DTD SVG 1.1//EN"
 "http://www.w3.org/Graphics/SVG/1.1/DTD/svg11.dtd">
<!-- Generated by graphviz version 2.50.0 (20211204.2007)
 -->
<!-- Pages: 1 -->
<svg width="607pt" height="1826pt"
 viewBox="0.00 0.00 606.96 1826.00" xmlns="http://www.w3.org/2000/svg" xmlns:xlink="http://www.w3.org/1999/xlink">
<g id="graph0" class="graph" transform="scale(1 1) rotate(0) translate(4 1822)">
<polygon fill="white" stroke="transparent" points="-4,4 -4,-1822 602.96,-1822 602.96,4 -4,4"/>
<!-- XXXOO1 -->
<g id="node1" class="node">
<title>XXXOO1</title>
<ellipse fill="none" stroke="black" cx="48.1" cy="-558" rx="48.19" ry="18"/>
<text text-anchor="middle" x="48.1" y="-554.3" font-family="Times New Roman,serif" font-size="14.00">XXXOO1</text>
</g>
<!-- GGXGX2 -->
<g id="node2" class="node">
<title>GGXGX2</title>
<ellipse fill="none" stroke="black" cx="181.59" cy="-1530" rx="48.19" ry="18"/>
<text text-anchor="middle" x="181.59" y="-1526.3" font-family="Times New Roman,serif" font-size="14.00">GGXGX2</text>
</g>
<!-- XXXOO1&#45;&gt;GGXGX2 -->
<g id="edge1" class="edge">
<title>XXXOO1&#45;&gt;GGXGX2</title>
<path fill="none" stroke="black" d="M49.7,-576.22C53.55,-687.66 76.35,-1278.06 132.19,-1449 138.7,-1468.92 150.78,-1489.15 161.25,-1504.41"/>
<polygon fill="black" stroke="black" points="158.54,-1506.64 167.17,-1512.78 164.25,-1502.6 158.54,-1506.64"/>
</g>
<!-- GXXOX2 -->
<g id="node5" class="node">
<title>GXXOX2</title>
<ellipse fill="none" stroke="black" cx="181.59" cy="-1422" rx="48.19" ry="18"/>
<text text-anchor="middle" x="181.59" y="-1418.3" font-family="Times New Roman,serif" font-size="14.00">GXXOX2</text>
</g>
<!-- XXXOO1&#45;&gt;GXXOX2 -->
<g id="edge4" class="edge">
<title>XXXOO1&#45;&gt;GXXOX2</title>
<path fill="none" stroke="black" d="M49.03,-576.24C49.14,-661.39 54.36,-1027.63 132.19,-1314 140.04,-1342.89 154.63,-1373.87 165.75,-1395.21"/>
<polygon fill="black" stroke="black" points="162.79,-1397.11 170.57,-1404.3 168.97,-1393.82 162.79,-1397.11"/>
</g>
<!-- GXOGG2 -->
<g id="node8" class="node">
<title>GXOGG2</title>
<ellipse fill="none" stroke="black" cx="181.59" cy="-1287" rx="48.99" ry="18"/>
<text text-anchor="middle" x="181.59" y="-1283.3" font-family="Times New Roman,serif" font-size="14.00">GXOGG2</text>
</g>
<!-- XXXOO1&#45;&gt;GXOGG2 -->
<g id="edge7" class="edge">
<title>XXXOO1&#45;&gt;GXOGG2</title>
<path fill="none" stroke="black" d="M50.28,-576.24C55.31,-649.49 77.26,-929.06 132.19,-1152 141.59,-1190.16 157.8,-1232.58 168.84,-1259.5"/>
<polygon fill="black" stroke="black" points="165.73,-1261.13 172.8,-1269.02 172.19,-1258.45 165.73,-1261.13"/>
</g>
<!-- GXXGX2 -->
<g id="node12" class="node">
<title>GXXGX2</title>
<ellipse fill="none" stroke="black" cx="181.59" cy="-1125" rx="48.19" ry="18"/>
<text text-anchor="middle" x="181.59" y="-1121.3" font-family="Times New Roman,serif" font-size="14.00">GXXGX2</text>
</g>
<!-- XXXOO1&#45;&gt;GXXGX2 -->
<g id="edge11" class="edge">
<title>XXXOO1&#45;&gt;GXXGX2</title>
<path fill="none" stroke="black" d="M50.8,-576.31C56.98,-638.99 80.59,-850.29 132.19,-1017 141.04,-1045.59 155.49,-1076.62 166.3,-1098.05"/>
<polygon fill="black" stroke="black" points="163.31,-1099.87 170.98,-1107.18 169.54,-1096.68 163.31,-1099.87"/>
</g>
<!-- GXOOO2 -->
<g id="node15" class="node">
<title>GXOOO2</title>
<ellipse fill="none" stroke="black" cx="181.59" cy="-990" rx="48.99" ry="18"/>
<text text-anchor="middle" x="181.59" y="-986.3" font-family="Times New Roman,serif" font-size="14.00">GXOOO2</text>
</g>
<!-- XXXOO1&#45;&gt;GXOOO2 -->
<g id="edge14" class="edge">
<title>XXXOO1&#45;&gt;GXOOO2</title>
<path fill="none" stroke="black" d="M52.63,-576.23C62.54,-626.04 92.44,-768.25 132.19,-882 142.07,-910.26 156.37,-941.33 166.87,-962.86"/>
<polygon fill="black" stroke="black" points="163.84,-964.62 171.4,-972.04 170.12,-961.52 163.84,-964.62"/>
</g>
<!-- OXOOO2 -->
<g id="node20" class="node">
<title>OXOOO2</title>
<ellipse fill="none" stroke="black" cx="181.59" cy="-855" rx="48.99" ry="18"/>
<text text-anchor="middle" x="181.59" y="-851.3" font-family="Times New Roman,serif" font-size="14.00">OXOOO2</text>
</g>
<!-- XXXOO1&#45;&gt;OXOOO2 -->
<g id="edge19" class="edge">
<title>XXXOO1&#45;&gt;OXOOO2</title>
<path fill="none" stroke="black" d="M54.88,-576.08C67.17,-613.74 97.64,-703.01 132.19,-774 141.42,-792.96 153.6,-813.34 163.44,-828.91"/>
<polygon fill="black" stroke="black" points="160.58,-830.94 168.92,-837.47 166.48,-827.16 160.58,-830.94"/>
</g>
<!-- OOXGX2 -->
<g id="node27" class="node">
<title>OOXGX2</title>
<ellipse fill="none" stroke="black" cx="181.59" cy="-747" rx="48.19" ry="18"/>
<text text-anchor="middle" x="181.59" y="-743.3" font-family="Times New Roman,serif" font-size="14.00">OOXGX2</text>
</g>
<!-- XXXOO1&#45;&gt;OOXGX2 -->
<g id="edge26" class="edge">
<title>XXXOO1&#45;&gt;OOXGX2</title>
<path fill="none" stroke="black" d="M58.64,-575.69C73.19,-602.12 102.39,-653.08 132.19,-693 139.76,-703.14 148.85,-713.65 157.1,-722.67"/>
<polygon fill="black" stroke="black" points="154.7,-725.22 164.07,-730.16 159.82,-720.46 154.7,-725.22"/>
</g>
<!-- GXOGO2 -->
<g id="node31" class="node">
<title>GXOGO2</title>
<ellipse fill="none" stroke="black" cx="181.59" cy="-1685" rx="48.99" ry="18"/>
<text text-anchor="middle" x="181.59" y="-1681.3" font-family="Times New Roman,serif" font-size="14.00">GXOGO2</text>
</g>
<!-- XXXOO1&#45;&gt;GXOGO2 -->
<g id="edge30" class="edge">
<title>XXXOO1&#45;&gt;GXOGO2</title>
<path fill="none" stroke="black" d="M48.74,-576.02C47.17,-675.61 44.35,-1168.26 132.19,-1557 140.33,-1593.01 156.41,-1632.46 167.8,-1657.91"/>
<polygon fill="black" stroke="black" points="164.73,-1659.61 172.06,-1667.26 171.11,-1656.71 164.73,-1659.61"/>
</g>
<!-- OXXOX2 -->
<g id="node34" class="node">
<title>OXXOX2</title>
<ellipse fill="none" stroke="black" cx="181.59" cy="-666" rx="48.19" ry="18"/>
<text text-anchor="middle" x="181.59" y="-662.3" font-family="Times New Roman,serif" font-size="14.00">OXXOX2</text>
</g>
<!-- XXXOO1&#45;&gt;OXXOX2 -->
<g id="edge33" class="edge">
<title>XXXOO1&#45;&gt;OXXOX2</title>
<path fill="none" stroke="black" d="M69.07,-574.4C91.27,-592.64 127.3,-622.24 152.38,-642.83"/>
<polygon fill="black" stroke="black" points="150.48,-645.8 160.43,-649.44 154.92,-640.39 150.48,-645.8"/>
</g>
<!-- OOXOX2 -->
<g id="node36" class="node">
<title>OOXOX2</title>
<ellipse fill="none" stroke="black" cx="181.59" cy="-558" rx="48.19" ry="18"/>
<text text-anchor="middle" x="181.59" y="-554.3" font-family="Times New Roman,serif" font-size="14.00">OOXOX2</text>
</g>
<!-- XXXOO1&#45;&gt;OOXOX2 -->
<g id="edge35" class="edge">
<title>XXXOO1&#45;&gt;OOXOX2</title>
<path fill="none" stroke="black" d="M96.2,-558C104.98,-558 114.24,-558 123.29,-558"/>
<polygon fill="black" stroke="black" points="123.37,-561.5 133.37,-558 123.37,-554.5 123.37,-561.5"/>
</g>
<!-- GGOGG2 -->
<g id="node39" class="node">
<title>GGOGG2</title>
<ellipse fill="none" stroke="black" cx="181.59" cy="-477" rx="49.29" ry="18"/>
<text text-anchor="middle" x="181.59" y="-473.3" font-family="Times New Roman,serif" font-size="14.00">GGOGG2</text>
</g>
<!-- XXXOO1&#45;&gt;GGOGG2 -->
<g id="edge38" class="edge">
<title>XXXOO1&#45;&gt;GGOGG2</title>
<path fill="none" stroke="black" d="M73.83,-542.76C94.45,-530.06 124.04,-511.84 146.83,-497.79"/>
<polygon fill="black" stroke="black" points="148.84,-500.67 155.52,-492.44 145.17,-494.71 148.84,-500.67"/>
</g>
<!-- GOOOO2 -->
<g id="node46" class="node">
<title>GOOOO2</title>
<ellipse fill="none" stroke="black" cx="181.59" cy="-423" rx="49.29" ry="18"/>
<text text-anchor="middle" x="181.59" y="-419.3" font-family="Times New Roman,serif" font-size="14.00">GOOOO2</text>
</g>
<!-- XXXOO1&#45;&gt;GOOOO2 -->
<g id="edge46" class="edge">
<title>XXXOO1&#45;&gt;GOOOO2</title>
<path fill="none" stroke="black" d="M59.62,-540.13C73.84,-517.12 101.03,-476.89 132.19,-450 135.22,-447.39 138.54,-444.91 141.98,-442.6"/>
<polygon fill="black" stroke="black" points="144.03,-445.44 150.67,-437.19 140.33,-439.5 144.03,-445.44"/>
</g>
<!-- OXOGG2 -->
<g id="node49" class="node">
<title>OXOGG2</title>
<ellipse fill="none" stroke="black" cx="181.59" cy="-369" rx="48.99" ry="18"/>
<text text-anchor="middle" x="181.59" y="-365.3" font-family="Times New Roman,serif" font-size="14.00">OXOGG2</text>
</g>
<!-- XXXOO1&#45;&gt;OXOGG2 -->
<g id="edge49" class="edge">
<title>XXXOO1&#45;&gt;OXOGG2</title>
<path fill="none" stroke="black" d="M54.42,-540.12C64.77,-507.87 90.36,-439.32 132.19,-396 134.82,-393.28 137.78,-390.76 140.91,-388.44"/>
<polygon fill="black" stroke="black" points="143.07,-391.2 149.48,-382.77 139.21,-385.37 143.07,-391.2"/>
</g>
<!-- GXOOG2 -->
<g id="node51" class="node">
<title>GXOOG2</title>
<ellipse fill="none" stroke="black" cx="181.59" cy="-315" rx="48.99" ry="18"/>
<text text-anchor="middle" x="181.59" y="-311.3" font-family="Times New Roman,serif" font-size="14.00">GXOOG2</text>
</g>
<!-- XXXOO1&#45;&gt;GXOOG2 -->
<g id="edge51" class="edge">
<title>XXXOO1&#45;&gt;GXOOG2</title>
<path fill="none" stroke="black" d="M51.78,-539.93C58.54,-499.9 79.66,-402.55 132.19,-342 134.64,-339.18 137.45,-336.6 140.47,-334.24"/>
<polygon fill="black" stroke="black" points="142.53,-337.07 148.81,-328.53 138.58,-331.29 142.53,-337.07"/>
</g>
<!-- OXOOG2 -->
<g id="node54" class="node">
<title>OXOOG2</title>
<ellipse fill="none" stroke="black" cx="181.59" cy="-261" rx="48.99" ry="18"/>
<text text-anchor="middle" x="181.59" y="-257.3" font-family="Times New Roman,serif" font-size="14.00">OXOOG2</text>
</g>
<!-- XXXOO1&#45;&gt;OXOOG2 -->
<g id="edge54" class="edge">
<title>XXXOO1&#45;&gt;OXOOG2</title>
<path fill="none" stroke="black" d="M50.12,-539.77C53.64,-492.9 68.8,-366.35 132.19,-288 134.54,-285.1 137.28,-282.46 140.26,-280.06"/>
<polygon fill="black" stroke="black" points="142.33,-282.89 148.53,-274.3 138.32,-277.15 142.33,-282.89"/>
</g>
<!-- OOOOG2 -->
<g id="node56" class="node">
<title>OOOOG2</title>
<ellipse fill="none" stroke="black" cx="181.59" cy="-207" rx="49.29" ry="18"/>
<text text-anchor="middle" x="181.59" y="-203.3" font-family="Times New Roman,serif" font-size="14.00">OOOOG2</text>
</g>
<!-- XXXOO1&#45;&gt;OOOOG2 -->
<g id="edge56" class="edge">
<title>XXXOO1&#45;&gt;OOOOG2</title>
<path fill="none" stroke="black" d="M48.97,-539.73C49.53,-486.74 57.76,-330.6 132.19,-234 134.37,-231.17 136.94,-228.59 139.73,-226.26"/>
<polygon fill="black" stroke="black" points="141.98,-228.95 148.08,-220.29 137.9,-223.26 141.98,-228.95"/>
</g>
<!-- OXXGX2 -->
<g id="node58" class="node">
<title>OXXGX2</title>
<ellipse fill="none" stroke="black" cx="181.59" cy="-153" rx="48.19" ry="18"/>
<text text-anchor="middle" x="181.59" y="-149.3" font-family="Times New Roman,serif" font-size="14.00">OXXGX2</text>
</g>
<!-- XXXOO1&#45;&gt;OXXGX2 -->
<g id="edge58" class="edge">
<title>XXXOO1&#45;&gt;OXXGX2</title>
<path fill="none" stroke="black" d="M51.1,-539.84C58.83,-472.63 88.4,-238.92 132.19,-180 134.32,-177.13 136.85,-174.53 139.62,-172.17"/>
<polygon fill="black" stroke="black" points="141.87,-174.87 147.93,-166.18 137.77,-169.19 141.87,-174.87"/>
</g>
<!-- GOXGX2 -->
<g id="node60" class="node">
<title>GOXGX2</title>
<ellipse fill="none" stroke="black" cx="181.59" cy="-99" rx="48.19" ry="18"/>
<text text-anchor="middle" x="181.59" y="-95.3" font-family="Times New Roman,serif" font-size="14.00">GOXGX2</text>
</g>
<!-- XXXOO1&#45;&gt;GOXGX2 -->
<g id="edge60" class="edge">
<title>XXXOO1&#45;&gt;GOXGX2</title>
<path fill="none" stroke="black" d="M50.56,-539.82C56.74,-466.65 82.75,-194.39 132.19,-126 134.28,-123.11 136.79,-120.48 139.54,-118.11"/>
<polygon fill="black" stroke="black" points="141.79,-120.81 147.81,-112.09 137.67,-115.15 141.79,-120.81"/>
</g>
<!-- corer -->
<g id="node72" class="node">
<title>corer</title>
<ellipse fill="none" stroke="black" cx="181.59" cy="-45" rx="29.8" ry="18"/>
<text text-anchor="middle" x="181.59" y="-41.3" font-family="Times New Roman,serif" font-size="14.00">corer</text>
</g>
<!-- XXXOO1&#45;&gt;corer -->
<g id="edge72" class="edge">
<title>XXXOO1&#45;&gt;corer</title>
<path fill="none" stroke="black" d="M50.12,-540C54.88,-461.57 77.01,-150.01 132.19,-72 135.91,-66.74 140.99,-62.39 146.47,-58.82"/>
<polygon fill="black" stroke="black" points="148.28,-61.82 155.27,-53.86 144.84,-55.73 148.28,-61.82"/>
</g>
<!-- OGXXO3 -->
<g id="node3" class="node">
<title>OGXXO3</title>
<ellipse fill="none" stroke="black" cx="315.73" cy="-1645" rx="48.19" ry="18"/>
<text text-anchor="middle" x="315.73" y="-1641.3" font-family="Times New Roman,serif" font-size="14.00">OGXXO3</text>
</g>
<!-- GGXGX2&#45;&gt;OGXXO3 -->
<g id="edge2" class="edge">
<title>GGXGX2&#45;&gt;OGXXO3</title>
<path fill="none" stroke="black" d="M201.52,-1546.48C224.19,-1566.2 262.3,-1599.37 287.97,-1621.71"/>
<polygon fill="black" stroke="black" points="285.99,-1624.63 295.83,-1628.55 290.59,-1619.35 285.99,-1624.63"/>
</g>
<!-- XGGXO3 -->
<g id="node24" class="node">
<title>XGGXO3</title>
<ellipse fill="none" stroke="black" cx="315.73" cy="-1530" rx="48.19" ry="18"/>
<text text-anchor="middle" x="315.73" y="-1526.3" font-family="Times New Roman,serif" font-size="14.00">XGGXO3</text>
</g>
<!-- GGXGX2&#45;&gt;XGGXO3 -->
<g id="edge23" class="edge">
<title>GGXGX2&#45;&gt;XGGXO3</title>
<path fill="none" stroke="black" d="M229.92,-1530C238.74,-1530 248.05,-1530 257.15,-1530"/>
<polygon fill="black" stroke="black" points="257.28,-1533.5 267.28,-1530 257.28,-1526.5 257.28,-1533.5"/>
</g>
<!-- comet -->
<g id="node4" class="node">
<title>comet</title>
<ellipse fill="none" stroke="black" cx="449.22" cy="-1638" rx="33.29" ry="18"/>
<text text-anchor="middle" x="449.22" y="-1634.3" font-family="Times New Roman,serif" font-size="14.00">comet</text>
</g>
<!-- OGXXO3&#45;&gt;comet -->
<g id="edge3" class="edge">
<title>OGXXO3&#45;&gt;comet</title>
<path fill="none" stroke="black" d="M363.46,-1642.51C377.34,-1641.77 392.46,-1640.97 406.04,-1640.25"/>
<polygon fill="black" stroke="black" points="406.27,-1643.74 416.07,-1639.71 405.9,-1636.75 406.27,-1643.74"/>
</g>
<!-- creep -->
<g id="node43" class="node">
<title>creep</title>
<ellipse fill="none" stroke="black" cx="449.22" cy="-1692" rx="30.59" ry="18"/>
<text text-anchor="middle" x="449.22" y="-1688.3" font-family="Times New Roman,serif" font-size="14.00">creep</text>
</g>
<!-- OGXXO3&#45;&gt;creep -->
<g id="edge43" class="edge">
<title>OGXXO3&#45;&gt;creep</title>
<path fill="none" stroke="black" d="M351.28,-1657.35C370.33,-1664.16 393.93,-1672.59 413.07,-1679.44"/>
<polygon fill="black" stroke="black" points="412.03,-1682.78 422.63,-1682.85 414.39,-1676.19 412.03,-1682.78"/>
</g>
<!-- GGGGX3 -->
<g id="node6" class="node">
<title>GGGGX3</title>
<ellipse fill="none" stroke="black" cx="315.73" cy="-1476" rx="48.99" ry="18"/>
<text text-anchor="middle" x="315.73" y="-1472.3" font-family="Times New Roman,serif" font-size="14.00">GGGGX3</text>
</g>
<!-- GXXOX2&#45;&gt;GGGGX3 -->
<g id="edge5" class="edge">
<title>GXXOX2&#45;&gt;GGGGX3</title>
<path fill="none" stroke="black" d="M214.91,-1435.21C232.35,-1442.34 254.07,-1451.21 272.8,-1458.87"/>
<polygon fill="black" stroke="black" points="271.7,-1462.2 282.28,-1462.74 274.35,-1455.72 271.7,-1462.2"/>
</g>
<!-- cheap -->
<g id="node53" class="node">
<title>cheap</title>
<ellipse fill="none" stroke="black" cx="315.73" cy="-1422" rx="32.49" ry="18"/>
<text text-anchor="middle" x="315.73" y="-1418.3" font-family="Times New Roman,serif" font-size="14.00">cheap</text>
</g>
<!-- GXXOX2&#45;&gt;cheap -->
<g id="edge53" class="edge">
<title>GXXOX2&#45;&gt;cheap</title>
<path fill="none" stroke="black" d="M229.92,-1422C243.97,-1422 259.24,-1422 272.91,-1422"/>
<polygon fill="black" stroke="black" points="273,-1425.5 283,-1422 273,-1418.5 273,-1425.5"/>
</g>
<!-- cheat -->
<g id="node7" class="node">
<title>cheat</title>
<ellipse fill="none" stroke="black" cx="449.22" cy="-1422" rx="29.8" ry="18"/>
<text text-anchor="middle" x="449.22" y="-1418.3" font-family="Times New Roman,serif" font-size="14.00">cheat</text>
</g>
<!-- GGGGX3&#45;&gt;cheat -->
<g id="edge6" class="edge">
<title>GGGGX3&#45;&gt;cheat</title>
<path fill="none" stroke="black" d="M348.89,-1462.79C368.76,-1454.63 394.21,-1444.18 414.38,-1435.9"/>
<polygon fill="black" stroke="black" points="415.88,-1439.06 423.8,-1432.03 413.23,-1432.59 415.88,-1439.06"/>
</g>
<!-- XGXOX3 -->
<g id="node9" class="node">
<title>XGXOX3</title>
<ellipse fill="none" stroke="black" cx="315.73" cy="-1260" rx="48.19" ry="18"/>
<text text-anchor="middle" x="315.73" y="-1256.3" font-family="Times New Roman,serif" font-size="14.00">XGXOX3</text>
</g>
<!-- GXOGG2&#45;&gt;XGXOX3 -->
<g id="edge8" class="edge">
<title>GXOGG2&#45;&gt;XGXOX3</title>
<path fill="none" stroke="black" d="M224.76,-1278.38C236.92,-1275.9 250.32,-1273.16 262.99,-1270.57"/>
<polygon fill="black" stroke="black" points="263.86,-1273.97 272.95,-1268.54 262.46,-1267.11 263.86,-1273.97"/>
</g>
<!-- XXXOO3 -->
<g id="node44" class="node">
<title>XXXOO3</title>
<ellipse fill="none" stroke="black" cx="315.73" cy="-1368" rx="48.19" ry="18"/>
<text text-anchor="middle" x="315.73" y="-1364.3" font-family="Times New Roman,serif" font-size="14.00">XXXOO3</text>
</g>
<!-- GXOGG2&#45;&gt;XXXOO3 -->
<g id="edge44" class="edge">
<title>GXOGG2&#45;&gt;XXXOO3</title>
<path fill="none" stroke="black" d="M206.38,-1302.71C223.17,-1313.68 246.27,-1328.53 266.98,-1341 270.85,-1343.33 274.92,-1345.72 278.99,-1348.07"/>
<polygon fill="black" stroke="black" points="277.39,-1351.19 287.81,-1353.12 280.87,-1345.11 277.39,-1351.19"/>
</g>
<!-- OXXOX3 -->
<g id="node62" class="node">
<title>OXXOX3</title>
<ellipse fill="none" stroke="black" cx="315.73" cy="-1314" rx="48.19" ry="18"/>
<text text-anchor="middle" x="315.73" y="-1310.3" font-family="Times New Roman,serif" font-size="14.00">OXXOX3</text>
</g>
<!-- GXOGG2&#45;&gt;OXXOX3 -->
<g id="edge62" class="edge">
<title>GXOGG2&#45;&gt;OXXOX3</title>
<path fill="none" stroke="black" d="M224.76,-1295.62C236.92,-1298.1 250.32,-1300.84 262.99,-1303.43"/>
<polygon fill="black" stroke="black" points="262.46,-1306.89 272.95,-1305.46 263.86,-1300.03 262.46,-1306.89"/>
</g>
<!-- GGXGG4 -->
<g id="node10" class="node">
<title>GGXGG4</title>
<ellipse fill="none" stroke="black" cx="449.22" cy="-1206" rx="48.99" ry="18"/>
<text text-anchor="middle" x="449.22" y="-1202.3" font-family="Times New Roman,serif" font-size="14.00">GGXGG4</text>
</g>
<!-- XGXOX3&#45;&gt;GGXGG4 -->
<g id="edge9" class="edge">
<title>XGXOX3&#45;&gt;GGXGG4</title>
<path fill="none" stroke="black" d="M348.89,-1246.79C366.25,-1239.66 387.86,-1230.79 406.5,-1223.13"/>
<polygon fill="black" stroke="black" points="408.01,-1226.3 415.93,-1219.26 405.35,-1219.82 408.01,-1226.3"/>
</g>
<!-- caper -->
<g id="node48" class="node">
<title>caper</title>
<ellipse fill="none" stroke="black" cx="449.22" cy="-1260" rx="30.59" ry="18"/>
<text text-anchor="middle" x="449.22" y="-1256.3" font-family="Times New Roman,serif" font-size="14.00">caper</text>
</g>
<!-- XGXOX3&#45;&gt;caper -->
<g id="edge48" class="edge">
<title>XGXOX3&#45;&gt;caper</title>
<path fill="none" stroke="black" d="M363.83,-1260C378.39,-1260 394.29,-1260 408.31,-1260"/>
<polygon fill="black" stroke="black" points="408.62,-1263.5 418.62,-1260 408.62,-1256.5 408.62,-1263.5"/>
</g>
<!-- cater -->
<g id="node11" class="node">
<title>cater</title>
<ellipse fill="none" stroke="black" cx="566.46" cy="-1206" rx="28.7" ry="18"/>
<text text-anchor="middle" x="566.46" y="-1202.3" font-family="Times New Roman,serif" font-size="14.00">cater</text>
</g>
<!-- GGXGG4&#45;&gt;cater -->
<g id="edge10" class="edge">
<title>GGXGG4&#45;&gt;cater</title>
<path fill="none" stroke="black" d="M498.09,-1206C507.89,-1206 518.07,-1206 527.46,-1206"/>
<polygon fill="black" stroke="black" points="527.67,-1209.5 537.67,-1206 527.67,-1202.5 527.67,-1209.5"/>
</g>
<!-- GXXGX3 -->
<g id="node13" class="node">
<title>GXXGX3</title>
<ellipse fill="none" stroke="black" cx="315.73" cy="-1098" rx="48.19" ry="18"/>
<text text-anchor="middle" x="315.73" y="-1094.3" font-family="Times New Roman,serif" font-size="14.00">GXXGX3</text>
</g>
<!-- GXXGX2&#45;&gt;GXXGX3 -->
<g id="edge12" class="edge">
<title>GXXGX2&#45;&gt;GXXGX3</title>
<path fill="none" stroke="black" d="M224.03,-1116.53C236.34,-1114.02 249.97,-1111.23 262.85,-1108.6"/>
<polygon fill="black" stroke="black" points="263.88,-1111.96 272.97,-1106.53 262.48,-1105.1 263.88,-1111.96"/>
</g>
<!-- cadet -->
<g id="node67" class="node">
<title>cadet</title>
<ellipse fill="none" stroke="black" cx="315.73" cy="-1206" rx="30.59" ry="18"/>
<text text-anchor="middle" x="315.73" y="-1202.3" font-family="Times New Roman,serif" font-size="14.00">cadet</text>
</g>
<!-- GXXGX2&#45;&gt;cadet -->
<g id="edge67" class="edge">
<title>GXXGX2&#45;&gt;cadet</title>
<path fill="none" stroke="black" d="M206.38,-1140.71C223.17,-1151.68 246.27,-1166.53 266.98,-1179 272.44,-1182.29 278.31,-1185.7 284,-1188.95"/>
<polygon fill="black" stroke="black" points="282.29,-1192 292.72,-1193.88 285.74,-1185.91 282.29,-1192"/>
</g>
<!-- GGXGX3 -->
<g id="node73" class="node">
<title>GGXGX3</title>
<ellipse fill="none" stroke="black" cx="315.73" cy="-1152" rx="48.19" ry="18"/>
<text text-anchor="middle" x="315.73" y="-1148.3" font-family="Times New Roman,serif" font-size="14.00">GGXGX3</text>
</g>
<!-- GXXGX2&#45;&gt;GGXGX3 -->
<g id="edge73" class="edge">
<title>GXXGX2&#45;&gt;GGXGX3</title>
<path fill="none" stroke="black" d="M224.03,-1133.47C236.34,-1135.98 249.97,-1138.77 262.85,-1141.4"/>
<polygon fill="black" stroke="black" points="262.48,-1144.9 272.97,-1143.47 263.88,-1138.04 262.48,-1144.9"/>
</g>
<!-- cheek -->
<g id="node14" class="node">
<title>cheek</title>
<ellipse fill="none" stroke="black" cx="449.22" cy="-1098" rx="31.7" ry="18"/>
<text text-anchor="middle" x="449.22" y="-1094.3" font-family="Times New Roman,serif" font-size="14.00">cheek</text>
</g>
<!-- GXXGX3&#45;&gt;cheek -->
<g id="edge13" class="edge">
<title>GXXGX3&#45;&gt;cheek</title>
<path fill="none" stroke="black" d="M363.83,-1098C377.92,-1098 393.26,-1098 406.95,-1098"/>
<polygon fill="black" stroke="black" points="407.05,-1101.5 417.05,-1098 407.05,-1094.5 407.05,-1101.5"/>
</g>
<!-- OXOOO3 -->
<g id="node16" class="node">
<title>OXOOO3</title>
<ellipse fill="none" stroke="black" cx="315.73" cy="-1044" rx="48.99" ry="18"/>
<text text-anchor="middle" x="315.73" y="-1040.3" font-family="Times New Roman,serif" font-size="14.00">OXOOO3</text>
</g>
<!-- GXOOO2&#45;&gt;OXOOO3 -->
<g id="edge15" class="edge">
<title>GXOOO2&#45;&gt;OXOOO3</title>
<path fill="none" stroke="black" d="M214.91,-1003.21C232.35,-1010.34 254.07,-1019.21 272.8,-1026.87"/>
<polygon fill="black" stroke="black" points="271.7,-1030.2 282.28,-1030.74 274.35,-1023.72 271.7,-1030.2"/>
</g>
<!-- XOXOO3 -->
<g id="node18" class="node">
<title>XOXOO3</title>
<ellipse fill="none" stroke="black" cx="315.73" cy="-990" rx="48.19" ry="18"/>
<text text-anchor="middle" x="315.73" y="-986.3" font-family="Times New Roman,serif" font-size="14.00">XOXOO3</text>
</g>
<!-- GXOOO2&#45;&gt;XOXOO3 -->
<g id="edge17" class="edge">
<title>GXOOO2&#45;&gt;XOXOO3</title>
<path fill="none" stroke="black" d="M230.67,-990C239.26,-990 248.29,-990 257.12,-990"/>
<polygon fill="black" stroke="black" points="257.35,-993.5 267.35,-990 257.35,-986.5 257.35,-993.5"/>
</g>
<!-- crept -->
<g id="node17" class="node">
<title>crept</title>
<ellipse fill="none" stroke="black" cx="449.22" cy="-1044" rx="29.5" ry="18"/>
<text text-anchor="middle" x="449.22" y="-1040.3" font-family="Times New Roman,serif" font-size="14.00">crept</text>
</g>
<!-- OXOOO3&#45;&gt;crept -->
<g id="edge16" class="edge">
<title>OXOOO3&#45;&gt;crept</title>
<path fill="none" stroke="black" d="M364.57,-1044C379.32,-1044 395.36,-1044 409.42,-1044"/>
<polygon fill="black" stroke="black" points="409.73,-1047.5 419.73,-1044 409.73,-1040.5 409.73,-1047.5"/>
</g>
<!-- creak -->
<g id="node19" class="node">
<title>creak</title>
<ellipse fill="none" stroke="black" cx="449.22" cy="-936" rx="30.59" ry="18"/>
<text text-anchor="middle" x="449.22" y="-932.3" font-family="Times New Roman,serif" font-size="14.00">creak</text>
</g>
<!-- XOXOO3&#45;&gt;creak -->
<g id="edge18" class="edge">
<title>XOXOO3&#45;&gt;creak</title>
<path fill="none" stroke="black" d="M348.89,-976.79C368.76,-968.63 394.21,-958.18 414.38,-949.9"/>
<polygon fill="black" stroke="black" points="415.88,-953.06 423.8,-946.03 413.23,-946.59 415.88,-953.06"/>
</g>
<!-- GGGGX4 -->
<g id="node29" class="node">
<title>GGGGX4</title>
<ellipse fill="none" stroke="black" cx="449.22" cy="-990" rx="48.99" ry="18"/>
<text text-anchor="middle" x="449.22" y="-986.3" font-family="Times New Roman,serif" font-size="14.00">GGGGX4</text>
</g>
<!-- XOXOO3&#45;&gt;GGGGX4 -->
<g id="edge28" class="edge">
<title>XOXOO3&#45;&gt;GGGGX4</title>
<path fill="none" stroke="black" d="M363.83,-990C372.3,-990 381.23,-990 389.97,-990"/>
<polygon fill="black" stroke="black" points="390.12,-993.5 400.12,-990 390.12,-986.5 390.12,-993.5"/>
</g>
<!-- recap -->
<g id="node21" class="node">
<title>recap</title>
<ellipse fill="none" stroke="black" cx="315.73" cy="-828" rx="30.59" ry="18"/>
<text text-anchor="middle" x="315.73" y="-824.3" font-family="Times New Roman,serif" font-size="14.00">recap</text>
</g>
<!-- OXOOO2&#45;&gt;recap -->
<g id="edge20" class="edge">
<title>OXOOO2&#45;&gt;recap</title>
<path fill="none" stroke="black" d="M224.76,-846.38C241.37,-842.99 260.3,-839.12 276.5,-835.81"/>
<polygon fill="black" stroke="black" points="277.6,-839.16 286.7,-833.73 276.2,-832.3 277.6,-839.16"/>
</g>
<!-- GGGXX3 -->
<g id="node22" class="node">
<title>GGGXX3</title>
<ellipse fill="none" stroke="black" cx="315.73" cy="-936" rx="48.19" ry="18"/>
<text text-anchor="middle" x="315.73" y="-932.3" font-family="Times New Roman,serif" font-size="14.00">GGGXX3</text>
</g>
<!-- OXOOO2&#45;&gt;GGGXX3 -->
<g id="edge21" class="edge">
<title>OXOOO2&#45;&gt;GGGXX3</title>
<path fill="none" stroke="black" d="M206.38,-870.71C223.17,-881.68 246.27,-896.53 266.98,-909 270.85,-911.33 274.92,-913.72 278.99,-916.07"/>
<polygon fill="black" stroke="black" points="277.39,-919.19 287.81,-921.12 280.87,-913.11 277.39,-919.19"/>
</g>
<!-- OGGXX3 -->
<g id="node77" class="node">
<title>OGGXX3</title>
<ellipse fill="none" stroke="black" cx="315.73" cy="-882" rx="48.19" ry="18"/>
<text text-anchor="middle" x="315.73" y="-878.3" font-family="Times New Roman,serif" font-size="14.00">OGGXX3</text>
</g>
<!-- OXOOO2&#45;&gt;OGGXX3 -->
<g id="edge77" class="edge">
<title>OXOOO2&#45;&gt;OGGXX3</title>
<path fill="none" stroke="black" d="M224.76,-863.62C236.92,-866.1 250.32,-868.84 262.99,-871.43"/>
<polygon fill="black" stroke="black" points="262.46,-874.89 272.95,-873.46 263.86,-868.03 262.46,-874.89"/>
</g>
<!-- recut -->
<g id="node23" class="node">
<title>recut</title>
<ellipse fill="none" stroke="black" cx="449.22" cy="-882" rx="28.7" ry="18"/>
<text text-anchor="middle" x="449.22" y="-878.3" font-family="Times New Roman,serif" font-size="14.00">recut</text>
</g>
<!-- GGGXX3&#45;&gt;recut -->
<g id="edge22" class="edge">
<title>GGGXX3&#45;&gt;recut</title>
<path fill="none" stroke="black" d="M348.89,-922.79C369.02,-914.53 394.88,-903.9 415.17,-895.57"/>
<polygon fill="black" stroke="black" points="416.71,-898.72 424.63,-891.69 414.05,-892.25 416.71,-898.72"/>
</g>
<!-- OXXXX4 -->
<g id="node25" class="node">
<title>OXXXX4</title>
<ellipse fill="none" stroke="black" cx="449.22" cy="-1476" rx="47.39" ry="18"/>
<text text-anchor="middle" x="449.22" y="-1472.3" font-family="Times New Roman,serif" font-size="14.00">OXXXX4</text>
</g>
<!-- XGGXO3&#45;&gt;OXXXX4 -->
<g id="edge24" class="edge">
<title>XGGXO3&#45;&gt;OXXXX4</title>
<path fill="none" stroke="black" d="M348.89,-1516.79C366.38,-1509.61 388.19,-1500.65 406.91,-1492.96"/>
<polygon fill="black" stroke="black" points="408.46,-1496.11 416.39,-1489.07 405.81,-1489.63 408.46,-1496.11"/>
</g>
<!-- XXXXG4 -->
<g id="node64" class="node">
<title>XXXXG4</title>
<ellipse fill="none" stroke="black" cx="449.22" cy="-1584" rx="47.39" ry="18"/>
<text text-anchor="middle" x="449.22" y="-1580.3" font-family="Times New Roman,serif" font-size="14.00">XXXXG4</text>
</g>
<!-- XGGXO3&#45;&gt;XXXXG4 -->
<g id="edge64" class="edge">
<title>XGGXO3&#45;&gt;XXXXG4</title>
<path fill="none" stroke="black" d="M348.89,-1543.21C366.38,-1550.39 388.19,-1559.35 406.91,-1567.04"/>
<polygon fill="black" stroke="black" points="405.81,-1570.37 416.39,-1570.93 408.46,-1563.89 405.81,-1570.37"/>
</g>
<!-- XXOXX4 -->
<g id="node68" class="node">
<title>XXOXX4</title>
<ellipse fill="none" stroke="black" cx="449.22" cy="-1530" rx="47.39" ry="18"/>
<text text-anchor="middle" x="449.22" y="-1526.3" font-family="Times New Roman,serif" font-size="14.00">XXOXX4</text>
</g>
<!-- XGGXO3&#45;&gt;XXOXX4 -->
<g id="edge68" class="edge">
<title>XGGXO3&#45;&gt;XXOXX4</title>
<path fill="none" stroke="black" d="M363.83,-1530C372.72,-1530 382.1,-1530 391.25,-1530"/>
<polygon fill="black" stroke="black" points="391.45,-1533.5 401.45,-1530 391.45,-1526.5 391.45,-1533.5"/>
</g>
<!-- covet -->
<g id="node26" class="node">
<title>covet</title>
<ellipse fill="none" stroke="black" cx="566.46" cy="-1476" rx="30.59" ry="18"/>
<text text-anchor="middle" x="566.46" y="-1472.3" font-family="Times New Roman,serif" font-size="14.00">covet</text>
</g>
<!-- OXXXX4&#45;&gt;covet -->
<g id="edge25" class="edge">
<title>OXXXX4&#45;&gt;covet</title>
<path fill="none" stroke="black" d="M496.76,-1476C506.29,-1476 516.24,-1476 525.52,-1476"/>
<polygon fill="black" stroke="black" points="525.65,-1479.5 535.65,-1476 525.65,-1472.5 525.65,-1479.5"/>
</g>
<!-- octet -->
<g id="node28" class="node">
<title>octet</title>
<ellipse fill="none" stroke="black" cx="315.73" cy="-774" rx="28.7" ry="18"/>
<text text-anchor="middle" x="315.73" y="-770.3" font-family="Times New Roman,serif" font-size="14.00">octet</text>
</g>
<!-- OOXGX2&#45;&gt;octet -->
<g id="edge27" class="edge">
<title>OOXGX2&#45;&gt;octet</title>
<path fill="none" stroke="black" d="M224.03,-755.47C241.46,-759.03 261.55,-763.13 278.39,-766.57"/>
<polygon fill="black" stroke="black" points="277.9,-770.05 288.4,-768.62 279.3,-763.19 277.9,-770.05"/>
</g>
<!-- cream -->
<g id="node30" class="node">
<title>cream</title>
<ellipse fill="none" stroke="black" cx="566.46" cy="-990" rx="32.49" ry="18"/>
<text text-anchor="middle" x="566.46" y="-986.3" font-family="Times New Roman,serif" font-size="14.00">cream</text>
</g>
<!-- GGGGX4&#45;&gt;cream -->
<g id="edge29" class="edge">
<title>GGGGX4&#45;&gt;cream</title>
<path fill="none" stroke="black" d="M498.09,-990C506.53,-990 515.25,-990 523.51,-990"/>
<polygon fill="black" stroke="black" points="523.66,-993.5 533.66,-990 523.66,-986.5 523.66,-993.5"/>
</g>
<!-- GXOGO2&#45;&gt;OGXXO3 -->
<g id="edge42" class="edge">
<title>GXOGO2&#45;&gt;OGXXO3</title>
<path fill="none" stroke="black" d="M219.75,-1673.75C234.79,-1669.2 252.33,-1663.89 268.21,-1659.08"/>
<polygon fill="black" stroke="black" points="269.29,-1662.41 277.85,-1656.16 267.26,-1655.71 269.29,-1662.41"/>
</g>
<!-- XGXXO3 -->
<g id="node32" class="node">
<title>XGXXO3</title>
<ellipse fill="none" stroke="black" cx="315.73" cy="-1793" rx="48.19" ry="18"/>
<text text-anchor="middle" x="315.73" y="-1789.3" font-family="Times New Roman,serif" font-size="14.00">XGXXO3</text>
</g>
<!-- GXOGO2&#45;&gt;XGXXO3 -->
<g id="edge31" class="edge">
<title>GXOGO2&#45;&gt;XGXXO3</title>
<path fill="none" stroke="black" d="M202.66,-1701.4C225.07,-1719.72 261.5,-1749.49 286.71,-1770.1"/>
<polygon fill="black" stroke="black" points="284.51,-1772.82 294.47,-1776.44 288.94,-1767.4 284.51,-1772.82"/>
</g>
<!-- XGXOO3 -->
<g id="node41" class="node">
<title>XGXOO3</title>
<ellipse fill="none" stroke="black" cx="315.73" cy="-1726" rx="48.19" ry="18"/>
<text text-anchor="middle" x="315.73" y="-1722.3" font-family="Times New Roman,serif" font-size="14.00">XGXOO3</text>
</g>
<!-- GXOGO2&#45;&gt;XGXOO3 -->
<g id="edge40" class="edge">
<title>GXOGO2&#45;&gt;XGXOO3</title>
<path fill="none" stroke="black" d="M219.4,-1696.42C234.57,-1701.13 252.33,-1706.64 268.38,-1711.62"/>
<polygon fill="black" stroke="black" points="267.53,-1715.02 278.12,-1714.64 269.6,-1708.33 267.53,-1715.02"/>
</g>
<!-- creek -->
<g id="node33" class="node">
<title>creek</title>
<ellipse fill="none" stroke="black" cx="449.22" cy="-1800" rx="30.59" ry="18"/>
<text text-anchor="middle" x="449.22" y="-1796.3" font-family="Times New Roman,serif" font-size="14.00">creek</text>
</g>
<!-- XGXXO3&#45;&gt;creek -->
<g id="edge32" class="edge">
<title>XGXXO3&#45;&gt;creek</title>
<path fill="none" stroke="black" d="M363.46,-1795.49C378.05,-1796.26 394,-1797.11 408.09,-1797.86"/>
<polygon fill="black" stroke="black" points="408.28,-1801.38 418.45,-1798.42 408.65,-1794.39 408.28,-1801.38"/>
</g>
<!-- decay -->
<g id="node35" class="node">
<title>decay</title>
<ellipse fill="none" stroke="black" cx="315.73" cy="-720" rx="32.49" ry="18"/>
<text text-anchor="middle" x="315.73" y="-716.3" font-family="Times New Roman,serif" font-size="14.00">decay</text>
</g>
<!-- OXXOX2&#45;&gt;decay -->
<g id="edge34" class="edge">
<title>OXXOX2&#45;&gt;decay</title>
<path fill="none" stroke="black" d="M214.91,-679.21C234.48,-687.21 259.44,-697.41 279.51,-705.61"/>
<polygon fill="black" stroke="black" points="278.34,-708.91 288.93,-709.46 280.99,-702.43 278.34,-708.91"/>
</g>
<!-- XGGGX3 -->
<g id="node75" class="node">
<title>XGGGX3</title>
<ellipse fill="none" stroke="black" cx="315.73" cy="-666" rx="48.19" ry="18"/>
<text text-anchor="middle" x="315.73" y="-662.3" font-family="Times New Roman,serif" font-size="14.00">XGGGX3</text>
</g>
<!-- OXXOX2&#45;&gt;XGGGX3 -->
<g id="edge75" class="edge">
<title>OXXOX2&#45;&gt;XGGGX3</title>
<path fill="none" stroke="black" d="M229.92,-666C238.74,-666 248.05,-666 257.15,-666"/>
<polygon fill="black" stroke="black" points="257.28,-669.5 267.28,-666 257.28,-662.5 257.28,-669.5"/>
</g>
<!-- XOOOX3 -->
<g id="node37" class="node">
<title>XOOOX3</title>
<ellipse fill="none" stroke="black" cx="315.73" cy="-504" rx="48.19" ry="18"/>
<text text-anchor="middle" x="315.73" y="-500.3" font-family="Times New Roman,serif" font-size="14.00">XOOOX3</text>
</g>
<!-- OOXOX2&#45;&gt;XOOOX3 -->
<g id="edge36" class="edge">
<title>OOXOX2&#45;&gt;XOOOX3</title>
<path fill="none" stroke="black" d="M214.91,-544.79C232.35,-537.66 254.07,-528.79 272.8,-521.13"/>
<polygon fill="black" stroke="black" points="274.35,-524.28 282.28,-517.26 271.7,-517.8 274.35,-524.28"/>
</g>
<!-- decoy -->
<g id="node66" class="node">
<title>decoy</title>
<ellipse fill="none" stroke="black" cx="315.73" cy="-612" rx="33.29" ry="18"/>
<text text-anchor="middle" x="315.73" y="-608.3" font-family="Times New Roman,serif" font-size="14.00">decoy</text>
</g>
<!-- OOXOX2&#45;&gt;decoy -->
<g id="edge66" class="edge">
<title>OOXOX2&#45;&gt;decoy</title>
<path fill="none" stroke="black" d="M214.91,-571.21C234.35,-579.15 259.11,-589.27 279.11,-597.44"/>
<polygon fill="black" stroke="black" points="277.92,-600.74 288.5,-601.28 280.57,-594.26 277.92,-600.74"/>
</g>
<!-- XGGOX3 -->
<g id="node79" class="node">
<title>XGGOX3</title>
<ellipse fill="none" stroke="black" cx="315.73" cy="-558" rx="48.19" ry="18"/>
<text text-anchor="middle" x="315.73" y="-554.3" font-family="Times New Roman,serif" font-size="14.00">XGGOX3</text>
</g>
<!-- OOXOX2&#45;&gt;XGGOX3 -->
<g id="edge79" class="edge">
<title>OOXOX2&#45;&gt;XGGOX3</title>
<path fill="none" stroke="black" d="M229.92,-558C238.74,-558 248.05,-558 257.15,-558"/>
<polygon fill="black" stroke="black" points="257.28,-561.5 267.28,-558 257.28,-554.5 257.28,-561.5"/>
</g>
<!-- ocean -->
<g id="node38" class="node">
<title>ocean</title>
<ellipse fill="none" stroke="black" cx="449.22" cy="-504" rx="32.49" ry="18"/>
<text text-anchor="middle" x="449.22" y="-500.3" font-family="Times New Roman,serif" font-size="14.00">ocean</text>
</g>
<!-- XOOOX3&#45;&gt;ocean -->
<g id="edge37" class="edge">
<title>XOOOX3&#45;&gt;ocean</title>
<path fill="none" stroke="black" d="M363.83,-504C377.8,-504 393.01,-504 406.61,-504"/>
<polygon fill="black" stroke="black" points="406.65,-507.5 416.65,-504 406.65,-500.5 406.65,-507.5"/>
</g>
<!-- cover -->
<g id="node40" class="node">
<title>cover</title>
<ellipse fill="none" stroke="black" cx="315.73" cy="-450" rx="31.4" ry="18"/>
<text text-anchor="middle" x="315.73" y="-446.3" font-family="Times New Roman,serif" font-size="14.00">cover</text>
</g>
<!-- GGOGG2&#45;&gt;cover -->
<g id="edge39" class="edge">
<title>GGOGG2&#45;&gt;cover</title>
<path fill="none" stroke="black" d="M225.12,-468.31C241.46,-464.97 260.01,-461.18 275.98,-457.92"/>
<polygon fill="black" stroke="black" points="276.95,-461.29 286.05,-455.86 275.55,-454.43 276.95,-461.29"/>
</g>
<!-- GGXGG3 -->
<g id="node70" class="node">
<title>GGXGG3</title>
<ellipse fill="none" stroke="black" cx="315.73" cy="-396" rx="48.99" ry="18"/>
<text text-anchor="middle" x="315.73" y="-392.3" font-family="Times New Roman,serif" font-size="14.00">GGXGG3</text>
</g>
<!-- GGOGG2&#45;&gt;GGXGG3 -->
<g id="edge70" class="edge">
<title>GGOGG2&#45;&gt;GGXGG3</title>
<path fill="none" stroke="black" d="M210.35,-462.35C217.2,-458.51 224.45,-454.25 230.98,-450 247.75,-439.1 250.24,-433.95 266.98,-423 270.57,-420.65 274.37,-418.3 278.2,-416.01"/>
<polygon fill="black" stroke="black" points="280.22,-418.88 287.1,-410.83 276.7,-412.84 280.22,-418.88"/>
</g>
<!-- creed -->
<g id="node42" class="node">
<title>creed</title>
<ellipse fill="none" stroke="black" cx="449.22" cy="-1746" rx="30.59" ry="18"/>
<text text-anchor="middle" x="449.22" y="-1742.3" font-family="Times New Roman,serif" font-size="14.00">creed</text>
</g>
<!-- XGXOO3&#45;&gt;creed -->
<g id="edge41" class="edge">
<title>XGXOO3&#45;&gt;creed</title>
<path fill="none" stroke="black" d="M360.51,-1732.66C376.3,-1735.06 393.99,-1737.75 409.32,-1740.08"/>
<polygon fill="black" stroke="black" points="409.1,-1743.59 419.51,-1741.63 410.15,-1736.67 409.1,-1743.59"/>
</g>
<!-- cyber -->
<g id="node45" class="node">
<title>cyber</title>
<ellipse fill="none" stroke="black" cx="449.22" cy="-1368" rx="31.4" ry="18"/>
<text text-anchor="middle" x="449.22" y="-1364.3" font-family="Times New Roman,serif" font-size="14.00">cyber</text>
</g>
<!-- XXXOO3&#45;&gt;cyber -->
<g id="edge45" class="edge">
<title>XXXOO3&#45;&gt;cyber</title>
<path fill="none" stroke="black" d="M363.83,-1368C378.16,-1368 393.77,-1368 407.63,-1368"/>
<polygon fill="black" stroke="black" points="407.84,-1371.5 417.84,-1368 407.84,-1364.5 407.84,-1371.5"/>
</g>
<!-- credo -->
<g id="node47" class="node">
<title>credo</title>
<ellipse fill="none" stroke="black" cx="315.73" cy="-342" rx="31.7" ry="18"/>
<text text-anchor="middle" x="315.73" y="-338.3" font-family="Times New Roman,serif" font-size="14.00">credo</text>
</g>
<!-- GOOOO2&#45;&gt;credo -->
<g id="edge47" class="edge">
<title>GOOOO2&#45;&gt;credo</title>
<path fill="none" stroke="black" d="M210.35,-408.35C217.2,-404.51 224.45,-400.25 230.98,-396 247.75,-385.1 250.24,-379.95 266.98,-369 272.09,-365.66 277.63,-362.3 283.07,-359.14"/>
<polygon fill="black" stroke="black" points="285.06,-362.04 292.03,-354.05 281.6,-355.95 285.06,-362.04"/>
</g>
<!-- racer -->
<g id="node50" class="node">
<title>racer</title>
<ellipse fill="none" stroke="black" cx="315.73" cy="-288" rx="28.7" ry="18"/>
<text text-anchor="middle" x="315.73" y="-284.3" font-family="Times New Roman,serif" font-size="14.00">racer</text>
</g>
<!-- OXOGG2&#45;&gt;racer -->
<g id="edge50" class="edge">
<title>OXOGG2&#45;&gt;racer</title>
<path fill="none" stroke="black" d="M210.35,-354.35C217.2,-350.51 224.45,-346.25 230.98,-342 247.75,-331.1 250.24,-325.95 266.98,-315 272.42,-311.44 278.36,-307.86 284.13,-304.53"/>
<polygon fill="black" stroke="black" points="286,-307.49 292.99,-299.52 282.56,-301.4 286,-307.49"/>
</g>
<!-- cedar -->
<g id="node52" class="node">
<title>cedar</title>
<ellipse fill="none" stroke="black" cx="315.73" cy="-234" rx="30.59" ry="18"/>
<text text-anchor="middle" x="315.73" y="-230.3" font-family="Times New Roman,serif" font-size="14.00">cedar</text>
</g>
<!-- GXOOG2&#45;&gt;cedar -->
<g id="edge52" class="edge">
<title>GXOOG2&#45;&gt;cedar</title>
<path fill="none" stroke="black" d="M210.35,-300.35C217.2,-296.51 224.45,-292.25 230.98,-288 247.75,-277.1 250.24,-271.95 266.98,-261 272.32,-257.51 278.13,-254 283.8,-250.72"/>
<polygon fill="black" stroke="black" points="285.53,-253.76 292.51,-245.79 282.08,-247.67 285.53,-253.76"/>
</g>
<!-- recur -->
<g id="node55" class="node">
<title>recur</title>
<ellipse fill="none" stroke="black" cx="315.73" cy="-180" rx="29.5" ry="18"/>
<text text-anchor="middle" x="315.73" y="-176.3" font-family="Times New Roman,serif" font-size="14.00">recur</text>
</g>
<!-- OXOOG2&#45;&gt;recur -->
<g id="edge55" class="edge">
<title>OXOOG2&#45;&gt;recur</title>
<path fill="none" stroke="black" d="M210.35,-246.35C217.2,-242.51 224.45,-238.25 230.98,-234 247.75,-223.1 250.24,-217.95 266.98,-207 272.42,-203.44 278.36,-199.86 284.13,-196.53"/>
<polygon fill="black" stroke="black" points="286,-199.49 292.99,-191.52 282.56,-193.4 286,-199.49"/>
</g>
<!-- decor -->
<g id="node57" class="node">
<title>decor</title>
<ellipse fill="none" stroke="black" cx="315.73" cy="-126" rx="31.7" ry="18"/>
<text text-anchor="middle" x="315.73" y="-122.3" font-family="Times New Roman,serif" font-size="14.00">decor</text>
</g>
<!-- OOOOG2&#45;&gt;decor -->
<g id="edge57" class="edge">
<title>OOOOG2&#45;&gt;decor</title>
<path fill="none" stroke="black" d="M210.35,-192.35C217.2,-188.51 224.45,-184.25 230.98,-180 247.75,-169.1 250.24,-163.95 266.98,-153 272.09,-149.66 277.63,-146.3 283.07,-143.14"/>
<polygon fill="black" stroke="black" points="285.06,-146.04 292.03,-138.05 281.6,-139.95 285.06,-146.04"/>
</g>
<!-- facet -->
<g id="node59" class="node">
<title>facet</title>
<ellipse fill="none" stroke="black" cx="315.73" cy="-72" rx="28.7" ry="18"/>
<text text-anchor="middle" x="315.73" y="-68.3" font-family="Times New Roman,serif" font-size="14.00">facet</text>
</g>
<!-- OXXGX2&#45;&gt;facet -->
<g id="edge59" class="edge">
<title>OXXGX2&#45;&gt;facet</title>
<path fill="none" stroke="black" d="M210.1,-138.49C217.02,-134.61 224.37,-130.3 230.98,-126 247.75,-115.1 250.24,-109.95 266.98,-99 272.42,-95.44 278.36,-91.86 284.13,-88.53"/>
<polygon fill="black" stroke="black" points="286,-91.49 292.99,-83.52 282.56,-85.4 286,-91.49"/>
</g>
<!-- cameo -->
<g id="node61" class="node">
<title>cameo</title>
<ellipse fill="none" stroke="black" cx="315.73" cy="-18" rx="34.39" ry="18"/>
<text text-anchor="middle" x="315.73" y="-14.3" font-family="Times New Roman,serif" font-size="14.00">cameo</text>
</g>
<!-- GOXGX2&#45;&gt;cameo -->
<g id="edge61" class="edge">
<title>GOXGX2&#45;&gt;cameo</title>
<path fill="none" stroke="black" d="M210.1,-84.49C217.02,-80.61 224.37,-76.3 230.98,-72 247.75,-61.1 250.24,-55.95 266.98,-45 271.76,-41.87 276.93,-38.73 282.03,-35.75"/>
<polygon fill="black" stroke="black" points="284.11,-38.59 291.06,-30.59 280.64,-32.51 284.11,-38.59"/>
</g>
<!-- cheer -->
<g id="node63" class="node">
<title>cheer</title>
<ellipse fill="none" stroke="black" cx="449.22" cy="-1314" rx="30.59" ry="18"/>
<text text-anchor="middle" x="449.22" y="-1310.3" font-family="Times New Roman,serif" font-size="14.00">cheer</text>
</g>
<!-- OXXOX3&#45;&gt;cheer -->
<g id="edge63" class="edge">
<title>OXXOX3&#45;&gt;cheer</title>
<path fill="none" stroke="black" d="M363.83,-1314C378.39,-1314 394.29,-1314 408.31,-1314"/>
<polygon fill="black" stroke="black" points="408.62,-1317.5 418.62,-1314 408.62,-1310.5 408.62,-1317.5"/>
</g>
<!-- covey -->
<g id="node65" class="node">
<title>covey</title>
<ellipse fill="none" stroke="black" cx="566.46" cy="-1584" rx="32.49" ry="18"/>
<text text-anchor="middle" x="566.46" y="-1580.3" font-family="Times New Roman,serif" font-size="14.00">covey</text>
</g>
<!-- XXXXG4&#45;&gt;covey -->
<g id="edge65" class="edge">
<title>XXXXG4&#45;&gt;covey</title>
<path fill="none" stroke="black" d="M496.76,-1584C505.74,-1584 515.09,-1584 523.9,-1584"/>
<polygon fill="black" stroke="black" points="523.94,-1587.5 533.94,-1584 523.94,-1580.5 523.94,-1587.5"/>
</g>
<!-- coven -->
<g id="node69" class="node">
<title>coven</title>
<ellipse fill="none" stroke="black" cx="566.46" cy="-1530" rx="32.49" ry="18"/>
<text text-anchor="middle" x="566.46" y="-1526.3" font-family="Times New Roman,serif" font-size="14.00">coven</text>
</g>
<!-- XXOXX4&#45;&gt;coven -->
<g id="edge69" class="edge">
<title>XXOXX4&#45;&gt;coven</title>
<path fill="none" stroke="black" d="M496.76,-1530C505.74,-1530 515.09,-1530 523.9,-1530"/>
<polygon fill="black" stroke="black" points="523.94,-1533.5 533.94,-1530 523.94,-1526.5 523.94,-1533.5"/>
</g>
<!-- cower -->
<g id="node71" class="node">
<title>cower</title>
<ellipse fill="none" stroke="black" cx="449.22" cy="-396" rx="33.29" ry="18"/>
<text text-anchor="middle" x="449.22" y="-392.3" font-family="Times New Roman,serif" font-size="14.00">cower</text>
</g>
<!-- GGXGG3&#45;&gt;cower -->
<g id="edge71" class="edge">
<title>GGXGG3&#45;&gt;cower</title>
<path fill="none" stroke="black" d="M364.57,-396C378.01,-396 392.54,-396 405.65,-396"/>
<polygon fill="black" stroke="black" points="405.82,-399.5 415.82,-396 405.82,-392.5 405.82,-399.5"/>
</g>
<!-- cagey -->
<g id="node74" class="node">
<title>cagey</title>
<ellipse fill="none" stroke="black" cx="449.22" cy="-1152" rx="31.7" ry="18"/>
<text text-anchor="middle" x="449.22" y="-1148.3" font-family="Times New Roman,serif" font-size="14.00">cagey</text>
</g>
<!-- GGXGX3&#45;&gt;cagey -->
<g id="edge74" class="edge">
<title>GGXGX3&#45;&gt;cagey</title>
<path fill="none" stroke="black" d="M363.83,-1152C377.92,-1152 393.26,-1152 406.95,-1152"/>
<polygon fill="black" stroke="black" points="407.05,-1155.5 417.05,-1152 407.05,-1148.5 407.05,-1155.5"/>
</g>
<!-- pecan -->
<g id="node76" class="node">
<title>pecan</title>
<ellipse fill="none" stroke="black" cx="449.22" cy="-666" rx="32.49" ry="18"/>
<text text-anchor="middle" x="449.22" y="-662.3" font-family="Times New Roman,serif" font-size="14.00">pecan</text>
</g>
<!-- XGGGX3&#45;&gt;pecan -->
<g id="edge76" class="edge">
<title>XGGGX3&#45;&gt;pecan</title>
<path fill="none" stroke="black" d="M363.83,-666C377.8,-666 393.01,-666 406.61,-666"/>
<polygon fill="black" stroke="black" points="406.65,-669.5 416.65,-666 406.65,-662.5 406.65,-669.5"/>
</g>
<!-- decry -->
<g id="node78" class="node">
<title>decry</title>
<ellipse fill="none" stroke="black" cx="449.22" cy="-828" rx="31.4" ry="18"/>
<text text-anchor="middle" x="449.22" y="-824.3" font-family="Times New Roman,serif" font-size="14.00">decry</text>
</g>
<!-- OGGXX3&#45;&gt;decry -->
<g id="edge78" class="edge">
<title>OGGXX3&#45;&gt;decry</title>
<path fill="none" stroke="black" d="M348.89,-868.79C368.63,-860.69 393.88,-850.32 413.98,-842.06"/>
<polygon fill="black" stroke="black" points="415.47,-845.23 423.39,-838.2 412.81,-838.76 415.47,-845.23"/>
</g>
<!-- gecko -->
<g id="node80" class="node">
<title>gecko</title>
<ellipse fill="none" stroke="black" cx="449.22" cy="-558" rx="32.49" ry="18"/>
<text text-anchor="middle" x="449.22" y="-554.3" font-family="Times New Roman,serif" font-size="14.00">gecko</text>
</g>
<!-- XGGOX3&#45;&gt;gecko -->
<g id="edge80" class="edge">
<title>XGGOX3&#45;&gt;gecko</title>
<path fill="none" stroke="black" d="M363.83,-558C377.8,-558 393.01,-558 406.61,-558"/>
<polygon fill="black" stroke="black" points="406.65,-561.5 416.65,-558 406.65,-554.5 406.65,-561.5"/>
</g>
</g>
</svg>
