<?xml version="1.0" encoding="UTF-8" standalone="no"?>
<!DOCTYPE svg PUBLIC "-//W3C//DTD SVG 1.1//EN"
 "http://www.w3.org/Graphics/SVG/1.1/DTD/svg11.dtd">
<!-- Generated by graphviz version 2.50.0 (20211204.2007)
 -->
<!-- Pages: 1 -->
<svg width="639pt" height="1178pt"
 viewBox="0.00 0.00 639.46 1178.00" xmlns="http://www.w3.org/2000/svg" xmlns:xlink="http://www.w3.org/1999/xlink">
<g id="graph0" class="graph" transform="scale(1 1) rotate(0) translate(4 1174)">
<polygon fill="white" stroke="transparent" points="-4,4 -4,-1174 635.46,-1174 635.46,4 -4,4"/>
<!-- XXGXG1 -->
<g id="node1" class="node">
<title>XXGXG1</title>
<ellipse fill="none" stroke="black" cx="48.1" cy="-396" rx="48.19" ry="18"/>
<text text-anchor="middle" x="48.1" y="-392.3" font-family="Times New Roman,serif" font-size="14.00">XXGXG1</text>
</g>
<!-- XGGXG2 -->
<g id="node2" class="node">
<title>XGGXG2</title>
<ellipse fill="none" stroke="black" cx="180.94" cy="-963" rx="48.19" ry="18"/>
<text text-anchor="middle" x="180.94" y="-959.3" font-family="Times New Roman,serif" font-size="14.00">XGGXG2</text>
</g>
<!-- XXGXG1&#45;&gt;XGGXG2 -->
<g id="edge1" class="edge">
<title>XXGXG1&#45;&gt;XGGXG2</title>
<path fill="none" stroke="black" d="M53.19,-414.24C65.19,-467.61 101.35,-628.05 132.19,-761 146.6,-823.09 163.89,-895.81 173.2,-934.83"/>
<polygon fill="black" stroke="black" points="169.88,-935.99 175.61,-944.9 176.69,-934.37 169.88,-935.99"/>
</g>
<!-- GGGXG2 -->
<g id="node5" class="node">
<title>GGGXG2</title>
<ellipse fill="none" stroke="black" cx="180.94" cy="-734" rx="48.99" ry="18"/>
<text text-anchor="middle" x="180.94" y="-730.3" font-family="Times New Roman,serif" font-size="14.00">GGGXG2</text>
</g>
<!-- XXGXG1&#45;&gt;GGGXG2 -->
<g id="edge4" class="edge">
<title>XXGXG1&#45;&gt;GGGXG2</title>
<path fill="none" stroke="black" d="M55.96,-413.93C70.13,-450.97 103.7,-538.58 132.19,-612 144.85,-644.61 159.53,-682.08 169.24,-706.79"/>
<polygon fill="black" stroke="black" points="166.03,-708.21 172.95,-716.23 172.55,-705.65 166.03,-708.21"/>
</g>
<!-- brine -->
<g id="node11" class="node">
<title>brine</title>
<ellipse fill="none" stroke="black" cx="180.94" cy="-585" rx="28.7" ry="18"/>
<text text-anchor="middle" x="180.94" y="-581.3" font-family="Times New Roman,serif" font-size="14.00">brine</text>
</g>
<!-- XXGXG1&#45;&gt;brine -->
<g id="edge10" class="edge">
<title>XXGXG1&#45;&gt;brine</title>
<path fill="none" stroke="black" d="M54.44,-413.86C64.84,-446.07 90.49,-514.56 132.19,-558 136.69,-562.69 142.19,-566.8 147.83,-570.3"/>
<polygon fill="black" stroke="black" points="146.25,-573.43 156.68,-575.3 149.7,-567.34 146.25,-573.43"/>
</g>
<!-- XXGXG2 -->
<g id="node12" class="node">
<title>XXGXG2</title>
<ellipse fill="none" stroke="black" cx="180.94" cy="-531" rx="48.19" ry="18"/>
<text text-anchor="middle" x="180.94" y="-527.3" font-family="Times New Roman,serif" font-size="14.00">XXGXG2</text>
</g>
<!-- XXGXG1&#45;&gt;XXGXG2 -->
<g id="edge11" class="edge">
<title>XXGXG1&#45;&gt;XXGXG2</title>
<path fill="none" stroke="black" d="M65.4,-412.82C88.32,-436.47 130.19,-479.67 156.46,-506.77"/>
<polygon fill="black" stroke="black" points="153.95,-509.22 163.43,-513.96 158.98,-504.35 153.95,-509.22"/>
</g>
<!-- XXGGG2 -->
<g id="node20" class="node">
<title>XXGGG2</title>
<ellipse fill="none" stroke="black" cx="180.94" cy="-315" rx="48.19" ry="18"/>
<text text-anchor="middle" x="180.94" y="-311.3" font-family="Times New Roman,serif" font-size="14.00">XXGGG2</text>
</g>
<!-- XXGXG1&#45;&gt;XXGGG2 -->
<g id="edge20" class="edge">
<title>XXGXG1&#45;&gt;XXGGG2</title>
<path fill="none" stroke="black" d="M74.01,-380.57C94.57,-367.85 123.91,-349.68 146.51,-335.7"/>
<polygon fill="black" stroke="black" points="148.45,-338.61 155.11,-330.37 144.77,-332.66 148.45,-338.61"/>
</g>
<!-- XXGOG2 -->
<g id="node23" class="node">
<title>XXGOG2</title>
<ellipse fill="none" stroke="black" cx="180.94" cy="-423" rx="48.19" ry="18"/>
<text text-anchor="middle" x="180.94" y="-419.3" font-family="Times New Roman,serif" font-size="14.00">XXGOG2</text>
</g>
<!-- XXGXG1&#45;&gt;XXGOG2 -->
<g id="edge23" class="edge">
<title>XXGXG1&#45;&gt;XXGOG2</title>
<path fill="none" stroke="black" d="M90.49,-404.54C102.55,-407.03 115.86,-409.78 128.45,-412.38"/>
<polygon fill="black" stroke="black" points="127.86,-415.83 138.36,-414.42 129.27,-408.97 127.86,-415.83"/>
</g>
<!-- OXGXG2 -->
<g id="node36" class="node">
<title>OXGXG2</title>
<ellipse fill="none" stroke="black" cx="180.94" cy="-220" rx="48.19" ry="18"/>
<text text-anchor="middle" x="180.94" y="-216.3" font-family="Times New Roman,serif" font-size="14.00">OXGXG2</text>
</g>
<!-- XXGXG1&#45;&gt;OXGXG2 -->
<g id="edge37" class="edge">
<title>XXGXG1&#45;&gt;OXGXG2</title>
<path fill="none" stroke="black" d="M62.12,-378.48C85.34,-347.25 133.97,-281.84 160.92,-245.57"/>
<polygon fill="black" stroke="black" points="163.81,-247.56 166.97,-237.45 158.19,-243.39 163.81,-247.56"/>
</g>
<!-- XGGGG2 -->
<g id="node39" class="node">
<title>XGGGG2</title>
<ellipse fill="none" stroke="black" cx="180.94" cy="-153" rx="48.99" ry="18"/>
<text text-anchor="middle" x="180.94" y="-149.3" font-family="Times New Roman,serif" font-size="14.00">XGGGG2</text>
</g>
<!-- XXGXG1&#45;&gt;XGGGG2 -->
<g id="edge41" class="edge">
<title>XXGXG1&#45;&gt;XGGGG2</title>
<path fill="none" stroke="black" d="M53.32,-377.99C62.71,-340.69 88.05,-253.42 132.19,-193 136.75,-186.76 142.49,-180.88 148.39,-175.65"/>
<polygon fill="black" stroke="black" points="151,-178.04 156.45,-168.96 146.52,-172.66 151,-178.04"/>
</g>
<!-- XOGXG2 -->
<g id="node41" class="node">
<title>XOGXG2</title>
<ellipse fill="none" stroke="black" cx="180.94" cy="-99" rx="48.19" ry="18"/>
<text text-anchor="middle" x="180.94" y="-95.3" font-family="Times New Roman,serif" font-size="14.00">XOGXG2</text>
</g>
<!-- XXGXG1&#45;&gt;XOGXG2 -->
<g id="edge43" class="edge">
<title>XXGXG1&#45;&gt;XOGXG2</title>
<path fill="none" stroke="black" d="M50.15,-377.79C53.73,-330.97 69.03,-204.54 132.19,-126 134.41,-123.25 136.98,-120.72 139.77,-118.42"/>
<polygon fill="black" stroke="black" points="141.95,-121.17 148.06,-112.51 137.88,-115.47 141.95,-121.17"/>
</g>
<!-- OGGXG2 -->
<g id="node49" class="node">
<title>OGGXG2</title>
<ellipse fill="none" stroke="black" cx="180.94" cy="-45" rx="48.99" ry="18"/>
<text text-anchor="middle" x="180.94" y="-41.3" font-family="Times New Roman,serif" font-size="14.00">OGGXG2</text>
</g>
<!-- XXGXG1&#45;&gt;OGGXG2 -->
<g id="edge51" class="edge">
<title>XXGXG1&#45;&gt;OGGXG2</title>
<path fill="none" stroke="black" d="M49,-377.75C49.63,-324.82 58.04,-168.81 132.19,-72 134.34,-69.19 136.87,-66.63 139.63,-64.31"/>
<polygon fill="black" stroke="black" points="141.8,-67.05 147.86,-58.36 137.7,-61.38 141.8,-67.05"/>
</g>
<!-- OOXOX3 -->
<g id="node3" class="node">
<title>OOXOX3</title>
<ellipse fill="none" stroke="black" cx="315.08" cy="-1125" rx="48.19" ry="18"/>
<text text-anchor="middle" x="315.08" y="-1121.3" font-family="Times New Roman,serif" font-size="14.00">OOXOX3</text>
</g>
<!-- XGGXG2&#45;&gt;OOXOX3 -->
<g id="edge2" class="edge">
<title>XGGXG2&#45;&gt;OOXOX3</title>
<path fill="none" stroke="black" d="M194.91,-980.51C211.06,-1002.12 239.7,-1039.84 265.68,-1071 273.79,-1080.72 282.99,-1091.14 291.18,-1100.2"/>
<polygon fill="black" stroke="black" points="288.75,-1102.72 298.07,-1107.77 293.93,-1098.01 288.75,-1102.72"/>
</g>
<!-- XOOOX3 -->
<g id="node7" class="node">
<title>XOOOX3</title>
<ellipse fill="none" stroke="black" cx="315.08" cy="-1044" rx="48.19" ry="18"/>
<text text-anchor="middle" x="315.08" y="-1040.3" font-family="Times New Roman,serif" font-size="14.00">XOOOX3</text>
</g>
<!-- XGGXG2&#45;&gt;XOOOX3 -->
<g id="edge6" class="edge">
<title>XGGXG2&#45;&gt;XOOOX3</title>
<path fill="none" stroke="black" d="M205.51,-978.77C222.15,-989.76 245.07,-1004.62 265.68,-1017 269.64,-1019.38 273.82,-1021.81 277.99,-1024.2"/>
<polygon fill="black" stroke="black" points="276.6,-1027.43 287.03,-1029.31 280.04,-1021.34 276.6,-1027.43"/>
</g>
<!-- XOXOO3 -->
<g id="node15" class="node">
<title>XOXOO3</title>
<ellipse fill="none" stroke="black" cx="315.08" cy="-936" rx="48.19" ry="18"/>
<text text-anchor="middle" x="315.08" y="-932.3" font-family="Times New Roman,serif" font-size="14.00">XOXOO3</text>
</g>
<!-- XGGXG2&#45;&gt;XOXOO3 -->
<g id="edge14" class="edge">
<title>XGGXG2&#45;&gt;XOXOO3</title>
<path fill="none" stroke="black" d="M223.38,-954.53C235.69,-952.02 249.32,-949.23 262.2,-946.6"/>
<polygon fill="black" stroke="black" points="263.23,-949.96 272.32,-944.53 261.83,-943.1 263.23,-949.96"/>
</g>
<!-- XOXOX3 -->
<g id="node18" class="node">
<title>XOXOX3</title>
<ellipse fill="none" stroke="black" cx="315.08" cy="-990" rx="48.19" ry="18"/>
<text text-anchor="middle" x="315.08" y="-986.3" font-family="Times New Roman,serif" font-size="14.00">XOXOX3</text>
</g>
<!-- XGGXG2&#45;&gt;XOXOX3 -->
<g id="edge17" class="edge">
<title>XGGXG2&#45;&gt;XOXOX3</title>
<path fill="none" stroke="black" d="M223.38,-971.47C235.69,-973.98 249.32,-976.77 262.2,-979.4"/>
<polygon fill="black" stroke="black" points="261.83,-982.9 272.32,-981.47 263.23,-976.04 261.83,-982.9"/>
</g>
<!-- GOXOX3 -->
<g id="node56" class="node">
<title>GOXOX3</title>
<ellipse fill="none" stroke="black" cx="315.08" cy="-869" rx="48.19" ry="18"/>
<text text-anchor="middle" x="315.08" y="-865.3" font-family="Times New Roman,serif" font-size="14.00">GOXOX3</text>
</g>
<!-- XGGXG2&#45;&gt;GOXOX3 -->
<g id="edge58" class="edge">
<title>XGGXG2&#45;&gt;GOXOX3</title>
<path fill="none" stroke="black" d="M204.35,-947.05C225.99,-931.66 258.95,-908.22 283.09,-891.04"/>
<polygon fill="black" stroke="black" points="285.43,-893.67 291.55,-885.02 281.38,-887.97 285.43,-893.67"/>
</g>
<!-- pride -->
<g id="node4" class="node">
<title>pride</title>
<ellipse fill="none" stroke="black" cx="449.22" cy="-1152" rx="29.5" ry="18"/>
<text text-anchor="middle" x="449.22" y="-1148.3" font-family="Times New Roman,serif" font-size="14.00">pride</text>
</g>
<!-- OOXOX3&#45;&gt;pride -->
<g id="edge3" class="edge">
<title>OOXOX3&#45;&gt;pride</title>
<path fill="none" stroke="black" d="M357.53,-1133.47C374.7,-1136.98 394.46,-1141.02 411.15,-1144.43"/>
<polygon fill="black" stroke="black" points="410.59,-1147.88 421.09,-1146.46 411.99,-1141.03 410.59,-1147.88"/>
</g>
<!-- bribe -->
<g id="node6" class="node">
<title>bribe</title>
<ellipse fill="none" stroke="black" cx="315.08" cy="-788" rx="29.5" ry="18"/>
<text text-anchor="middle" x="315.08" y="-784.3" font-family="Times New Roman,serif" font-size="14.00">bribe</text>
</g>
<!-- GGGXG2&#45;&gt;bribe -->
<g id="edge5" class="edge">
<title>GGGXG2&#45;&gt;bribe</title>
<path fill="none" stroke="black" d="M214.26,-747.21C234.49,-755.47 260.48,-766.1 280.87,-774.43"/>
<polygon fill="black" stroke="black" points="279.79,-777.77 290.38,-778.31 282.44,-771.29 279.79,-777.77"/>
</g>
<!-- GGGOG3 -->
<g id="node43" class="node">
<title>GGGOG3</title>
<ellipse fill="none" stroke="black" cx="315.08" cy="-734" rx="49.29" ry="18"/>
<text text-anchor="middle" x="315.08" y="-730.3" font-family="Times New Roman,serif" font-size="14.00">GGGOG3</text>
</g>
<!-- GGGXG2&#45;&gt;GGGOG3 -->
<g id="edge45" class="edge">
<title>GGGXG2&#45;&gt;GGGOG3</title>
<path fill="none" stroke="black" d="M230.02,-734C238.2,-734 246.78,-734 255.21,-734"/>
<polygon fill="black" stroke="black" points="255.37,-737.5 265.37,-734 255.37,-730.5 255.37,-737.5"/>
</g>
<!-- grime -->
<g id="node8" class="node">
<title>grime</title>
<ellipse fill="none" stroke="black" cx="449.22" cy="-1098" rx="30.59" ry="18"/>
<text text-anchor="middle" x="449.22" y="-1094.3" font-family="Times New Roman,serif" font-size="14.00">grime</text>
</g>
<!-- XOOOX3&#45;&gt;grime -->
<g id="edge7" class="edge">
<title>XOOOX3&#45;&gt;grime</title>
<path fill="none" stroke="black" d="M348.4,-1057.21C368.37,-1065.37 393.94,-1075.82 414.21,-1084.1"/>
<polygon fill="black" stroke="black" points="413.1,-1087.43 423.68,-1087.97 415.75,-1080.95 413.1,-1087.43"/>
</g>
<!-- GGGXG4 -->
<g id="node9" class="node">
<title>GGGXG4</title>
<ellipse fill="none" stroke="black" cx="449.22" cy="-1044" rx="48.99" ry="18"/>
<text text-anchor="middle" x="449.22" y="-1040.3" font-family="Times New Roman,serif" font-size="14.00">GGGXG4</text>
</g>
<!-- XOOOX3&#45;&gt;GGGXG4 -->
<g id="edge8" class="edge">
<title>XOOOX3&#45;&gt;GGGXG4</title>
<path fill="none" stroke="black" d="M363.41,-1044C372.13,-1044 381.32,-1044 390.31,-1044"/>
<polygon fill="black" stroke="black" points="390.33,-1047.5 400.33,-1044 390.33,-1040.5 390.33,-1047.5"/>
</g>
<!-- gripe -->
<g id="node10" class="node">
<title>gripe</title>
<ellipse fill="none" stroke="black" cx="582.71" cy="-1098" rx="28.7" ry="18"/>
<text text-anchor="middle" x="582.71" y="-1094.3" font-family="Times New Roman,serif" font-size="14.00">gripe</text>
</g>
<!-- GGGXG4&#45;&gt;gripe -->
<g id="edge9" class="edge">
<title>GGGXG4&#45;&gt;gripe</title>
<path fill="none" stroke="black" d="M482.39,-1057.21C502.51,-1065.47 528.37,-1076.1 548.66,-1084.43"/>
<polygon fill="black" stroke="black" points="547.54,-1087.75 558.12,-1088.31 550.2,-1081.28 547.54,-1087.75"/>
</g>
<!-- prize -->
<g id="node19" class="node">
<title>prize</title>
<ellipse fill="none" stroke="black" cx="582.71" cy="-1044" rx="28.7" ry="18"/>
<text text-anchor="middle" x="582.71" y="-1040.3" font-family="Times New Roman,serif" font-size="14.00">prize</text>
</g>
<!-- GGGXG4&#45;&gt;prize -->
<g id="edge19" class="edge">
<title>GGGXG4&#45;&gt;prize</title>
<path fill="none" stroke="black" d="M498.06,-1044C513.04,-1044 529.37,-1044 543.58,-1044"/>
<polygon fill="black" stroke="black" points="543.99,-1047.5 553.99,-1044 543.99,-1040.5 543.99,-1047.5"/>
</g>
<!-- XXGGG3 -->
<g id="node13" class="node">
<title>XXGGG3</title>
<ellipse fill="none" stroke="black" cx="315.08" cy="-612" rx="48.19" ry="18"/>
<text text-anchor="middle" x="315.08" y="-608.3" font-family="Times New Roman,serif" font-size="14.00">XXGGG3</text>
</g>
<!-- XXGXG2&#45;&gt;XXGGG3 -->
<g id="edge12" class="edge">
<title>XXGXG2&#45;&gt;XXGGG3</title>
<path fill="none" stroke="black" d="M209.57,-545.83C216.25,-549.63 223.31,-553.83 229.68,-558 246.42,-568.95 248.91,-574.1 265.68,-585 269.51,-587.49 273.58,-589.98 277.66,-592.38"/>
<polygon fill="black" stroke="black" points="276.15,-595.55 286.57,-597.49 279.64,-589.48 276.15,-595.55"/>
</g>
<!-- XGGXG3 -->
<g id="node24" class="node">
<title>XGGXG3</title>
<ellipse fill="none" stroke="black" cx="315.08" cy="-504" rx="48.19" ry="18"/>
<text text-anchor="middle" x="315.08" y="-500.3" font-family="Times New Roman,serif" font-size="14.00">XGGXG3</text>
</g>
<!-- XXGXG2&#45;&gt;XGGXG3 -->
<g id="edge39" class="edge">
<title>XXGXG2&#45;&gt;XGGXG3</title>
<path fill="none" stroke="black" d="M223.38,-522.53C235.69,-520.02 249.32,-517.23 262.2,-514.6"/>
<polygon fill="black" stroke="black" points="263.23,-517.96 272.32,-512.53 261.83,-511.1 263.23,-517.96"/>
</g>
<!-- XXGXG3 -->
<g id="node30" class="node">
<title>XXGXG3</title>
<ellipse fill="none" stroke="black" cx="315.08" cy="-558" rx="48.19" ry="18"/>
<text text-anchor="middle" x="315.08" y="-554.3" font-family="Times New Roman,serif" font-size="14.00">XXGXG3</text>
</g>
<!-- XXGXG2&#45;&gt;XXGXG3 -->
<g id="edge30" class="edge">
<title>XXGXG2&#45;&gt;XXGXG3</title>
<path fill="none" stroke="black" d="M223.38,-539.47C235.69,-541.98 249.32,-544.77 262.2,-547.4"/>
<polygon fill="black" stroke="black" points="261.83,-550.9 272.32,-549.47 263.23,-544.04 261.83,-550.9"/>
</g>
<!-- guide -->
<g id="node46" class="node">
<title>guide</title>
<ellipse fill="none" stroke="black" cx="315.08" cy="-666" rx="30.59" ry="18"/>
<text text-anchor="middle" x="315.08" y="-662.3" font-family="Times New Roman,serif" font-size="14.00">guide</text>
</g>
<!-- XXGXG2&#45;&gt;guide -->
<g id="edge48" class="edge">
<title>XXGXG2&#45;&gt;guide</title>
<path fill="none" stroke="black" d="M212.84,-544.63C218.96,-548.33 224.95,-552.78 229.68,-558 256.16,-587.17 239.12,-609.91 265.68,-639 269.84,-643.55 274.95,-647.52 280.27,-650.9"/>
<polygon fill="black" stroke="black" points="278.88,-654.14 289.29,-656.06 282.35,-648.06 278.88,-654.14"/>
</g>
<!-- oxide -->
<g id="node14" class="node">
<title>oxide</title>
<ellipse fill="none" stroke="black" cx="449.22" cy="-720" rx="30.59" ry="18"/>
<text text-anchor="middle" x="449.22" y="-716.3" font-family="Times New Roman,serif" font-size="14.00">oxide</text>
</g>
<!-- XXGGG3&#45;&gt;oxide -->
<g id="edge13" class="edge">
<title>XXGGG3&#45;&gt;oxide</title>
<path fill="none" stroke="black" d="M346.24,-625.91C352.66,-629.64 359.1,-634.04 364.47,-639 385.66,-658.57 379.34,-673.37 400.47,-693 404.94,-697.15 410.17,-700.92 415.48,-704.23"/>
<polygon fill="black" stroke="black" points="414,-707.41 424.41,-709.36 417.49,-701.34 414,-707.41"/>
</g>
<!-- GGXXX4 -->
<g id="node16" class="node">
<title>GGXXX4</title>
<ellipse fill="none" stroke="black" cx="449.22" cy="-936" rx="48.19" ry="18"/>
<text text-anchor="middle" x="449.22" y="-932.3" font-family="Times New Roman,serif" font-size="14.00">GGXXX4</text>
</g>
<!-- XOXOO3&#45;&gt;GGXXX4 -->
<g id="edge15" class="edge">
<title>XOXOO3&#45;&gt;GGXXX4</title>
<path fill="none" stroke="black" d="M363.41,-936C372.24,-936 381.55,-936 390.64,-936"/>
<polygon fill="black" stroke="black" points="390.77,-939.5 400.77,-936 390.77,-932.5 390.77,-939.5"/>
</g>
<!-- OGXOX4 -->
<g id="node27" class="node">
<title>OGXOX4</title>
<ellipse fill="none" stroke="black" cx="449.22" cy="-882" rx="48.19" ry="18"/>
<text text-anchor="middle" x="449.22" y="-878.3" font-family="Times New Roman,serif" font-size="14.00">OGXOX4</text>
</g>
<!-- XOXOO3&#45;&gt;OGXOX4 -->
<g id="edge27" class="edge">
<title>XOXOO3&#45;&gt;OGXOX4</title>
<path fill="none" stroke="black" d="M348.4,-922.79C365.84,-915.66 387.57,-906.79 406.29,-899.13"/>
<polygon fill="black" stroke="black" points="407.84,-902.28 415.77,-895.26 405.19,-895.8 407.84,-902.28"/>
</g>
<!-- GGGXG5 -->
<g id="node17" class="node">
<title>GGGXG5</title>
<ellipse fill="none" stroke="black" cx="582.71" cy="-936" rx="48.99" ry="18"/>
<text text-anchor="middle" x="582.71" y="-932.3" font-family="Times New Roman,serif" font-size="14.00">GGGXG5</text>
</g>
<!-- GGXXX4&#45;&gt;GGGXG5 -->
<g id="edge16" class="edge">
<title>GGXXX4&#45;&gt;GGGXG5</title>
<path fill="none" stroke="black" d="M497.32,-936C505.79,-936 514.72,-936 523.47,-936"/>
<polygon fill="black" stroke="black" points="523.61,-939.5 533.61,-936 523.61,-932.5 523.61,-939.5"/>
</g>
<!-- tripe -->
<g id="node51" class="node">
<title>tripe</title>
<ellipse fill="none" stroke="black" cx="582.71" cy="-990" rx="27" ry="18"/>
<text text-anchor="middle" x="582.71" y="-986.3" font-family="Times New Roman,serif" font-size="14.00">tripe</text>
</g>
<!-- GGXXX4&#45;&gt;tripe -->
<g id="edge53" class="edge">
<title>GGXXX4&#45;&gt;tripe</title>
<path fill="none" stroke="black" d="M482.39,-949.21C502.9,-957.64 529.38,-968.51 549.84,-976.91"/>
<polygon fill="black" stroke="black" points="548.77,-980.25 559.35,-980.82 551.43,-973.78 548.77,-980.25"/>
</g>
<!-- XOXOX3&#45;&gt;GGGXG4 -->
<g id="edge18" class="edge">
<title>XOXOX3&#45;&gt;GGGXG4</title>
<path fill="none" stroke="black" d="M348.4,-1003.21C365.84,-1010.34 387.57,-1019.21 406.29,-1026.87"/>
<polygon fill="black" stroke="black" points="405.19,-1030.2 415.77,-1030.74 407.84,-1023.72 405.19,-1030.2"/>
</g>
<!-- prime -->
<g id="node34" class="node">
<title>prime</title>
<ellipse fill="none" stroke="black" cx="449.22" cy="-990" rx="31.4" ry="18"/>
<text text-anchor="middle" x="449.22" y="-986.3" font-family="Times New Roman,serif" font-size="14.00">prime</text>
</g>
<!-- XOXOX3&#45;&gt;prime -->
<g id="edge35" class="edge">
<title>XOXOX3&#45;&gt;prime</title>
<path fill="none" stroke="black" d="M363.41,-990C377.81,-990 393.5,-990 407.43,-990"/>
<polygon fill="black" stroke="black" points="407.69,-993.5 417.69,-990 407.69,-986.5 407.69,-993.5"/>
</g>
<!-- OXXOG3 -->
<g id="node21" class="node">
<title>OXXOG3</title>
<ellipse fill="none" stroke="black" cx="315.08" cy="-288" rx="48.19" ry="18"/>
<text text-anchor="middle" x="315.08" y="-284.3" font-family="Times New Roman,serif" font-size="14.00">OXXOG3</text>
</g>
<!-- XXGGG2&#45;&gt;OXXOG3 -->
<g id="edge21" class="edge">
<title>XXGGG2&#45;&gt;OXXOG3</title>
<path fill="none" stroke="black" d="M223.38,-306.53C235.69,-304.02 249.32,-301.23 262.2,-298.6"/>
<polygon fill="black" stroke="black" points="263.23,-301.96 272.32,-296.53 261.83,-295.1 263.23,-301.96"/>
</g>
<!-- XXOXG3 -->
<g id="node47" class="node">
<title>XXOXG3</title>
<ellipse fill="none" stroke="black" cx="315.08" cy="-234" rx="48.19" ry="18"/>
<text text-anchor="middle" x="315.08" y="-230.3" font-family="Times New Roman,serif" font-size="14.00">XXOXG3</text>
</g>
<!-- XXGGG2&#45;&gt;XXOXG3 -->
<g id="edge49" class="edge">
<title>XXGGG2&#45;&gt;XXOXG3</title>
<path fill="none" stroke="black" d="M205.51,-299.23C222.15,-288.24 245.07,-273.38 265.68,-261 269.64,-258.62 273.82,-256.19 277.99,-253.8"/>
<polygon fill="black" stroke="black" points="280.04,-256.66 287.03,-248.69 276.6,-250.57 280.04,-256.66"/>
</g>
<!-- GXXXG3 -->
<g id="node58" class="node">
<title>GXXXG3</title>
<ellipse fill="none" stroke="black" cx="315.08" cy="-342" rx="48.19" ry="18"/>
<text text-anchor="middle" x="315.08" y="-338.3" font-family="Times New Roman,serif" font-size="14.00">GXXXG3</text>
</g>
<!-- XXGGG2&#45;&gt;GXXXG3 -->
<g id="edge60" class="edge">
<title>XXGGG2&#45;&gt;GXXXG3</title>
<path fill="none" stroke="black" d="M223.38,-323.47C235.69,-325.98 249.32,-328.77 262.2,-331.4"/>
<polygon fill="black" stroke="black" points="261.83,-334.9 272.32,-333.47 263.23,-328.04 261.83,-334.9"/>
</g>
<!-- twine -->
<g id="node22" class="node">
<title>twine</title>
<ellipse fill="none" stroke="black" cx="449.22" cy="-288" rx="29.8" ry="18"/>
<text text-anchor="middle" x="449.22" y="-284.3" font-family="Times New Roman,serif" font-size="14.00">twine</text>
</g>
<!-- OXXOG3&#45;&gt;twine -->
<g id="edge22" class="edge">
<title>OXXOG3&#45;&gt;twine</title>
<path fill="none" stroke="black" d="M363.41,-288C378.43,-288 394.85,-288 409.22,-288"/>
<polygon fill="black" stroke="black" points="409.26,-291.5 419.26,-288 409.26,-284.5 409.26,-291.5"/>
</g>
<!-- XXGOG2&#45;&gt;XGGXG3 -->
<g id="edge24" class="edge">
<title>XXGOG2&#45;&gt;XGGXG3</title>
<path fill="none" stroke="black" d="M205.51,-438.77C222.15,-449.76 245.07,-464.62 265.68,-477 269.64,-479.38 273.82,-481.81 277.99,-484.2"/>
<polygon fill="black" stroke="black" points="276.6,-487.43 287.03,-489.31 280.04,-481.34 276.6,-487.43"/>
</g>
<!-- anime -->
<g id="node29" class="node">
<title>anime</title>
<ellipse fill="none" stroke="black" cx="315.08" cy="-450" rx="31.7" ry="18"/>
<text text-anchor="middle" x="315.08" y="-446.3" font-family="Times New Roman,serif" font-size="14.00">anime</text>
</g>
<!-- XXGOG2&#45;&gt;anime -->
<g id="edge29" class="edge">
<title>XXGOG2&#45;&gt;anime</title>
<path fill="none" stroke="black" d="M223.38,-431.47C239.78,-434.82 258.53,-438.65 274.71,-441.96"/>
<polygon fill="black" stroke="black" points="274.42,-445.47 284.92,-444.04 275.82,-438.61 274.42,-445.47"/>
</g>
<!-- OOGXG3 -->
<g id="node32" class="node">
<title>OOGXG3</title>
<ellipse fill="none" stroke="black" cx="315.08" cy="-396" rx="48.99" ry="18"/>
<text text-anchor="middle" x="315.08" y="-392.3" font-family="Times New Roman,serif" font-size="14.00">OOGXG3</text>
</g>
<!-- XXGOG2&#45;&gt;OOGXG3 -->
<g id="edge33" class="edge">
<title>XXGOG2&#45;&gt;OOGXG3</title>
<path fill="none" stroke="black" d="M223.38,-414.53C235.57,-412.04 249.06,-409.29 261.82,-406.68"/>
<polygon fill="black" stroke="black" points="262.77,-410.06 271.87,-404.62 261.37,-403.2 262.77,-410.06"/>
</g>
<!-- XGGXG4 -->
<g id="node25" class="node">
<title>XGGXG4</title>
<ellipse fill="none" stroke="black" cx="449.22" cy="-558" rx="48.19" ry="18"/>
<text text-anchor="middle" x="449.22" y="-554.3" font-family="Times New Roman,serif" font-size="14.00">XGGXG4</text>
</g>
<!-- XGGXG3&#45;&gt;XGGXG4 -->
<g id="edge25" class="edge">
<title>XGGXG3&#45;&gt;XGGXG4</title>
<path fill="none" stroke="black" d="M348.4,-517.21C365.84,-524.34 387.57,-533.21 406.29,-540.87"/>
<polygon fill="black" stroke="black" points="405.19,-544.2 415.77,-544.74 407.84,-537.72 405.19,-544.2"/>
</g>
<!-- knife -->
<g id="node35" class="node">
<title>knife</title>
<ellipse fill="none" stroke="black" cx="449.22" cy="-504" rx="28.7" ry="18"/>
<text text-anchor="middle" x="449.22" y="-500.3" font-family="Times New Roman,serif" font-size="14.00">knife</text>
</g>
<!-- XGGXG3&#45;&gt;knife -->
<g id="edge36" class="edge">
<title>XGGXG3&#45;&gt;knife</title>
<path fill="none" stroke="black" d="M363.41,-504C378.79,-504 395.64,-504 410.24,-504"/>
<polygon fill="black" stroke="black" points="410.42,-507.5 420.42,-504 410.42,-500.5 410.42,-507.5"/>
</g>
<!-- quite -->
<g id="node38" class="node">
<title>quite</title>
<ellipse fill="none" stroke="black" cx="449.22" cy="-450" rx="28.7" ry="18"/>
<text text-anchor="middle" x="449.22" y="-446.3" font-family="Times New Roman,serif" font-size="14.00">quite</text>
</g>
<!-- XGGXG3&#45;&gt;quite -->
<g id="edge40" class="edge">
<title>XGGXG3&#45;&gt;quite</title>
<path fill="none" stroke="black" d="M348.4,-490.79C368.76,-482.47 394.96,-471.77 415.4,-463.41"/>
<polygon fill="black" stroke="black" points="417,-466.54 424.93,-459.52 414.35,-460.06 417,-466.54"/>
</g>
<!-- unite -->
<g id="node26" class="node">
<title>unite</title>
<ellipse fill="none" stroke="black" cx="582.71" cy="-531" rx="27.9" ry="18"/>
<text text-anchor="middle" x="582.71" y="-527.3" font-family="Times New Roman,serif" font-size="14.00">unite</text>
</g>
<!-- XGGXG4&#45;&gt;unite -->
<g id="edge26" class="edge">
<title>XGGXG4&#45;&gt;unite</title>
<path fill="none" stroke="black" d="M491.82,-549.46C509.15,-545.9 529.06,-541.81 545.74,-538.39"/>
<polygon fill="black" stroke="black" points="546.56,-541.79 555.65,-536.35 545.15,-534.93 546.56,-541.79"/>
</g>
<!-- waive -->
<g id="node31" class="node">
<title>waive</title>
<ellipse fill="none" stroke="black" cx="582.71" cy="-585" rx="31.4" ry="18"/>
<text text-anchor="middle" x="582.71" y="-581.3" font-family="Times New Roman,serif" font-size="14.00">waive</text>
</g>
<!-- XGGXG4&#45;&gt;waive -->
<g id="edge32" class="edge">
<title>XGGXG4&#45;&gt;waive</title>
<path fill="none" stroke="black" d="M491.82,-566.54C508.12,-569.89 526.71,-573.71 542.74,-577"/>
<polygon fill="black" stroke="black" points="542.36,-580.49 552.85,-579.07 543.76,-573.63 542.36,-580.49"/>
</g>
<!-- write -->
<g id="node28" class="node">
<title>write</title>
<ellipse fill="none" stroke="black" cx="582.71" cy="-882" rx="28.7" ry="18"/>
<text text-anchor="middle" x="582.71" y="-878.3" font-family="Times New Roman,serif" font-size="14.00">write</text>
</g>
<!-- OGXOX4&#45;&gt;write -->
<g id="edge28" class="edge">
<title>OGXOX4&#45;&gt;write</title>
<path fill="none" stroke="black" d="M497.32,-882C512.62,-882 529.39,-882 543.92,-882"/>
<polygon fill="black" stroke="black" points="544.05,-885.5 554.05,-882 544.05,-878.5 544.05,-885.5"/>
</g>
<!-- XXGXG3&#45;&gt;XGGXG4 -->
<g id="edge31" class="edge">
<title>XXGXG3&#45;&gt;XGGXG4</title>
<path fill="none" stroke="black" d="M363.41,-558C372.24,-558 381.55,-558 390.64,-558"/>
<polygon fill="black" stroke="black" points="390.77,-561.5 400.77,-558 390.77,-554.5 390.77,-561.5"/>
</g>
<!-- maize -->
<g id="node45" class="node">
<title>maize</title>
<ellipse fill="none" stroke="black" cx="449.22" cy="-612" rx="31.4" ry="18"/>
<text text-anchor="middle" x="449.22" y="-608.3" font-family="Times New Roman,serif" font-size="14.00">maize</text>
</g>
<!-- XXGXG3&#45;&gt;maize -->
<g id="edge47" class="edge">
<title>XXGXG3&#45;&gt;maize</title>
<path fill="none" stroke="black" d="M348.4,-571.21C368.23,-579.31 393.61,-589.68 413.81,-597.94"/>
<polygon fill="black" stroke="black" points="412.68,-601.26 423.26,-601.8 415.33,-594.78 412.68,-601.26"/>
</g>
<!-- XXGXG4 -->
<g id="node52" class="node">
<title>XXGXG4</title>
<ellipse fill="none" stroke="black" cx="449.22" cy="-666" rx="48.19" ry="18"/>
<text text-anchor="middle" x="449.22" y="-662.3" font-family="Times New Roman,serif" font-size="14.00">XXGXG4</text>
</g>
<!-- XXGXG3&#45;&gt;XXGXG4 -->
<g id="edge54" class="edge">
<title>XXGXG3&#45;&gt;XXGXG4</title>
<path fill="none" stroke="black" d="M346.24,-571.91C352.66,-575.64 359.1,-580.04 364.47,-585 385.66,-604.57 379.34,-619.37 400.47,-639 403.37,-641.69 406.59,-644.23 409.94,-646.58"/>
<polygon fill="black" stroke="black" points="408.15,-649.59 418.46,-652.03 411.93,-643.69 408.15,-649.59"/>
</g>
<!-- naive -->
<g id="node33" class="node">
<title>naive</title>
<ellipse fill="none" stroke="black" cx="449.22" cy="-396" rx="29.5" ry="18"/>
<text text-anchor="middle" x="449.22" y="-392.3" font-family="Times New Roman,serif" font-size="14.00">naive</text>
</g>
<!-- OOGXG3&#45;&gt;naive -->
<g id="edge34" class="edge">
<title>OOGXG3&#45;&gt;naive</title>
<path fill="none" stroke="black" d="M364.16,-396C378.98,-396 395.1,-396 409.23,-396"/>
<polygon fill="black" stroke="black" points="409.59,-399.5 419.59,-396 409.59,-392.5 409.59,-399.5"/>
</g>
<!-- abide -->
<g id="node37" class="node">
<title>abide</title>
<ellipse fill="none" stroke="black" cx="315.08" cy="-180" rx="30.59" ry="18"/>
<text text-anchor="middle" x="315.08" y="-176.3" font-family="Times New Roman,serif" font-size="14.00">abide</text>
</g>
<!-- OXGXG2&#45;&gt;abide -->
<g id="edge38" class="edge">
<title>OXGXG2&#45;&gt;abide</title>
<path fill="none" stroke="black" d="M218.75,-208.86C237.17,-203.28 259.41,-196.55 277.77,-190.99"/>
<polygon fill="black" stroke="black" points="278.96,-194.29 287.52,-188.04 276.93,-187.59 278.96,-194.29"/>
</g>
<!-- urine -->
<g id="node40" class="node">
<title>urine</title>
<ellipse fill="none" stroke="black" cx="315.08" cy="-126" rx="28.7" ry="18"/>
<text text-anchor="middle" x="315.08" y="-122.3" font-family="Times New Roman,serif" font-size="14.00">urine</text>
</g>
<!-- XGGGG2&#45;&gt;urine -->
<g id="edge42" class="edge">
<title>XGGGG2&#45;&gt;urine</title>
<path fill="none" stroke="black" d="M224.11,-144.38C241.37,-140.86 261.15,-136.81 277.76,-133.42"/>
<polygon fill="black" stroke="black" points="278.55,-136.83 287.64,-131.4 277.14,-129.97 278.55,-136.83"/>
</g>
<!-- afire -->
<g id="node42" class="node">
<title>afire</title>
<ellipse fill="none" stroke="black" cx="315.08" cy="-72" rx="27" ry="18"/>
<text text-anchor="middle" x="315.08" y="-68.3" font-family="Times New Roman,serif" font-size="14.00">afire</text>
</g>
<!-- XOGXG2&#45;&gt;afire -->
<g id="edge44" class="edge">
<title>XOGXG2&#45;&gt;afire</title>
<path fill="none" stroke="black" d="M223.38,-90.53C241.19,-86.89 261.77,-82.69 278.82,-79.2"/>
<polygon fill="black" stroke="black" points="279.83,-82.57 288.93,-77.14 278.43,-75.71 279.83,-82.57"/>
</g>
<!-- bride -->
<g id="node44" class="node">
<title>bride</title>
<ellipse fill="none" stroke="black" cx="449.22" cy="-774" rx="29.5" ry="18"/>
<text text-anchor="middle" x="449.22" y="-770.3" font-family="Times New Roman,serif" font-size="14.00">bride</text>
</g>
<!-- GGGOG3&#45;&gt;bride -->
<g id="edge46" class="edge">
<title>GGGOG3&#45;&gt;bride</title>
<path fill="none" stroke="black" d="M353.59,-745.36C372.26,-751.01 394.7,-757.8 413.04,-763.35"/>
<polygon fill="black" stroke="black" points="412.17,-766.74 422.76,-766.29 414.2,-760.04 412.17,-766.74"/>
</g>
<!-- opine -->
<g id="node48" class="node">
<title>opine</title>
<ellipse fill="none" stroke="black" cx="449.22" cy="-234" rx="30.59" ry="18"/>
<text text-anchor="middle" x="449.22" y="-230.3" font-family="Times New Roman,serif" font-size="14.00">opine</text>
</g>
<!-- XXOXG3&#45;&gt;opine -->
<g id="edge50" class="edge">
<title>XXOXG3&#45;&gt;opine</title>
<path fill="none" stroke="black" d="M363.41,-234C378.05,-234 394.02,-234 408.12,-234"/>
<polygon fill="black" stroke="black" points="408.48,-237.5 418.48,-234 408.48,-230.5 408.48,-237.5"/>
</g>
<!-- GXGGG4 -->
<g id="node54" class="node">
<title>GXGGG4</title>
<ellipse fill="none" stroke="black" cx="449.22" cy="-180" rx="48.99" ry="18"/>
<text text-anchor="middle" x="449.22" y="-176.3" font-family="Times New Roman,serif" font-size="14.00">GXGGG4</text>
</g>
<!-- XXOXG3&#45;&gt;GXGGG4 -->
<g id="edge56" class="edge">
<title>XXOXG3&#45;&gt;GXGGG4</title>
<path fill="none" stroke="black" d="M348.4,-220.79C365.84,-213.66 387.57,-204.79 406.29,-197.13"/>
<polygon fill="black" stroke="black" points="407.84,-200.28 415.77,-193.26 405.19,-193.8 407.84,-200.28"/>
</g>
<!-- tribe -->
<g id="node50" class="node">
<title>tribe</title>
<ellipse fill="none" stroke="black" cx="315.08" cy="-18" rx="27" ry="18"/>
<text text-anchor="middle" x="315.08" y="-14.3" font-family="Times New Roman,serif" font-size="14.00">tribe</text>
</g>
<!-- OGGXG2&#45;&gt;tribe -->
<g id="edge52" class="edge">
<title>OGGXG2&#45;&gt;tribe</title>
<path fill="none" stroke="black" d="M224.11,-36.38C241.75,-32.78 262.01,-28.64 278.84,-25.2"/>
<polygon fill="black" stroke="black" points="279.72,-28.59 288.82,-23.16 278.32,-21.73 279.72,-28.59"/>
</g>
<!-- white -->
<g id="node53" class="node">
<title>white</title>
<ellipse fill="none" stroke="black" cx="582.71" cy="-666" rx="29.8" ry="18"/>
<text text-anchor="middle" x="582.71" y="-662.3" font-family="Times New Roman,serif" font-size="14.00">white</text>
</g>
<!-- XXGXG4&#45;&gt;white -->
<g id="edge55" class="edge">
<title>XXGXG4&#45;&gt;white</title>
<path fill="none" stroke="black" d="M497.32,-666C512,-666 528.03,-666 542.14,-666"/>
<polygon fill="black" stroke="black" points="542.5,-669.5 552.5,-666 542.5,-662.5 542.5,-669.5"/>
</g>
<!-- ovine -->
<g id="node55" class="node">
<title>ovine</title>
<ellipse fill="none" stroke="black" cx="582.71" cy="-180" rx="30.59" ry="18"/>
<text text-anchor="middle" x="582.71" y="-176.3" font-family="Times New Roman,serif" font-size="14.00">ovine</text>
</g>
<!-- GXGGG4&#45;&gt;ovine -->
<g id="edge57" class="edge">
<title>GXGGG4&#45;&gt;ovine</title>
<path fill="none" stroke="black" d="M498.06,-180C512.46,-180 528.09,-180 541.91,-180"/>
<polygon fill="black" stroke="black" points="542.06,-183.5 552.06,-180 542.06,-176.5 542.06,-183.5"/>
</g>
<!-- drive -->
<g id="node57" class="node">
<title>drive</title>
<ellipse fill="none" stroke="black" cx="449.22" cy="-828" rx="28.7" ry="18"/>
<text text-anchor="middle" x="449.22" y="-824.3" font-family="Times New Roman,serif" font-size="14.00">drive</text>
</g>
<!-- GOXOX3&#45;&gt;drive -->
<g id="edge59" class="edge">
<title>GOXOX3&#45;&gt;drive</title>
<path fill="none" stroke="black" d="M352.54,-857.69C371.57,-851.78 394.75,-844.59 413.52,-838.77"/>
<polygon fill="black" stroke="black" points="414.65,-842.08 423.17,-835.77 412.58,-835.39 414.65,-842.08"/>
</g>
<!-- whine -->
<g id="node59" class="node">
<title>whine</title>
<ellipse fill="none" stroke="black" cx="449.22" cy="-342" rx="31.7" ry="18"/>
<text text-anchor="middle" x="449.22" y="-338.3" font-family="Times New Roman,serif" font-size="14.00">whine</text>
</g>
<!-- GXXXG3&#45;&gt;whine -->
<g id="edge61" class="edge">
<title>GXXXG3&#45;&gt;whine</title>
<path fill="none" stroke="black" d="M363.41,-342C377.69,-342 393.25,-342 407.09,-342"/>
<polygon fill="black" stroke="black" points="407.29,-345.5 417.29,-342 407.29,-338.5 407.29,-345.5"/>
</g>
</g>
</svg>
