<?xml version="1.0" encoding="UTF-8" standalone="no"?>
<!DOCTYPE svg PUBLIC "-//W3C//DTD SVG 1.1//EN"
 "http://www.w3.org/Graphics/SVG/1.1/DTD/svg11.dtd">
<!-- Generated by graphviz version 2.50.0 (20211204.2007)
 -->
<!-- Pages: 1 -->
<svg width="467pt" height="422pt"
 viewBox="0.00 0.00 466.97 422.00" xmlns="http://www.w3.org/2000/svg" xmlns:xlink="http://www.w3.org/1999/xlink">
<g id="graph0" class="graph" transform="scale(1 1) rotate(0) translate(4 418)">
<polygon fill="white" stroke="transparent" points="-4,4 -4,-418 462.97,-418 462.97,4 -4,4"/>
<!-- OOXXX1 -->
<g id="node1" class="node">
<title>OOXXX1</title>
<ellipse fill="none" stroke="black" cx="48.1" cy="-207" rx="48.19" ry="18"/>
<text text-anchor="middle" x="48.1" y="-203.3" font-family="Times New Roman,serif" font-size="14.00">OOXXX1</text>
</g>
<!-- XXGXO2 -->
<g id="node2" class="node">
<title>XXGXO2</title>
<ellipse fill="none" stroke="black" cx="180.94" cy="-396" rx="48.19" ry="18"/>
<text text-anchor="middle" x="180.94" y="-392.3" font-family="Times New Roman,serif" font-size="14.00">XXGXO2</text>
</g>
<!-- OOXXX1&#45;&gt;XXGXO2 -->
<g id="edge1" class="edge">
<title>OOXXX1&#45;&gt;XXGXO2</title>
<path fill="none" stroke="black" d="M54.44,-224.86C64.84,-257.07 90.49,-325.56 132.19,-369 134.78,-371.7 137.71,-374.21 140.8,-376.52"/>
<polygon fill="black" stroke="black" points="138.99,-379.52 149.25,-382.17 142.88,-373.7 138.99,-379.52"/>
</g>
<!-- XOOGG2 -->
<g id="node4" class="node">
<title>XOOGG2</title>
<ellipse fill="none" stroke="black" cx="180.94" cy="-342" rx="48.99" ry="18"/>
<text text-anchor="middle" x="180.94" y="-338.3" font-family="Times New Roman,serif" font-size="14.00">XOOGG2</text>
</g>
<!-- OOXXX1&#45;&gt;XOOGG2 -->
<g id="edge3" class="edge">
<title>OOXXX1&#45;&gt;XOOGG2</title>
<path fill="none" stroke="black" d="M59.64,-224.84C73.89,-247.82 101.1,-288.02 132.19,-315 135.18,-317.59 138.46,-320.06 141.85,-322.36"/>
<polygon fill="black" stroke="black" points="140.1,-325.4 150.42,-327.76 143.83,-319.47 140.1,-325.4"/>
</g>
<!-- XGOOO2 -->
<g id="node6" class="node">
<title>XGOOO2</title>
<ellipse fill="none" stroke="black" cx="180.94" cy="-288" rx="48.99" ry="18"/>
<text text-anchor="middle" x="180.94" y="-284.3" font-family="Times New Roman,serif" font-size="14.00">XGOOO2</text>
</g>
<!-- OOXXX1&#45;&gt;XGOOO2 -->
<g id="edge5" class="edge">
<title>OOXXX1&#45;&gt;XGOOO2</title>
<path fill="none" stroke="black" d="M72.49,-222.75C89.01,-233.74 111.75,-248.59 132.19,-261 136.05,-263.34 140.12,-265.74 144.18,-268.1"/>
<polygon fill="black" stroke="black" points="142.58,-271.22 153,-273.15 146.06,-265.14 142.58,-271.22"/>
</g>
<!-- XOOOO2 -->
<g id="node8" class="node">
<title>XOOOO2</title>
<ellipse fill="none" stroke="black" cx="180.94" cy="-234" rx="48.99" ry="18"/>
<text text-anchor="middle" x="180.94" y="-230.3" font-family="Times New Roman,serif" font-size="14.00">XOOOO2</text>
</g>
<!-- OOXXX1&#45;&gt;XOOOO2 -->
<g id="edge7" class="edge">
<title>OOXXX1&#45;&gt;XOOOO2</title>
<path fill="none" stroke="black" d="M90.49,-215.54C102.43,-218.01 115.6,-220.72 128.08,-223.3"/>
<polygon fill="black" stroke="black" points="127.41,-226.73 137.91,-225.33 128.82,-219.88 127.41,-226.73"/>
</g>
<!-- XGGOO2 -->
<g id="node10" class="node">
<title>XGGOO2</title>
<ellipse fill="none" stroke="black" cx="180.94" cy="-180" rx="48.99" ry="18"/>
<text text-anchor="middle" x="180.94" y="-176.3" font-family="Times New Roman,serif" font-size="14.00">XGGOO2</text>
</g>
<!-- OOXXX1&#45;&gt;XGGOO2 -->
<g id="edge9" class="edge">
<title>OOXXX1&#45;&gt;XGGOO2</title>
<path fill="none" stroke="black" d="M90.49,-198.46C102.43,-195.99 115.6,-193.28 128.08,-190.7"/>
<polygon fill="black" stroke="black" points="128.82,-194.12 137.91,-188.67 127.41,-187.27 128.82,-194.12"/>
</g>
<!-- XXOXO2 -->
<g id="node12" class="node">
<title>XXOXO2</title>
<ellipse fill="none" stroke="black" cx="180.94" cy="-126" rx="48.19" ry="18"/>
<text text-anchor="middle" x="180.94" y="-122.3" font-family="Times New Roman,serif" font-size="14.00">XXOXO2</text>
</g>
<!-- OOXXX1&#45;&gt;XXOXO2 -->
<g id="edge11" class="edge">
<title>OOXXX1&#45;&gt;XXOXO2</title>
<path fill="none" stroke="black" d="M72.49,-191.25C89.01,-180.26 111.75,-165.41 132.19,-153 136.05,-150.66 140.12,-148.26 144.18,-145.9"/>
<polygon fill="black" stroke="black" points="146.06,-148.86 153,-140.85 142.58,-142.78 146.06,-148.86"/>
</g>
<!-- XGGGG2 -->
<g id="node16" class="node">
<title>XGGGG2</title>
<ellipse fill="none" stroke="black" cx="180.94" cy="-72" rx="48.99" ry="18"/>
<text text-anchor="middle" x="180.94" y="-68.3" font-family="Times New Roman,serif" font-size="14.00">XGGGG2</text>
</g>
<!-- OOXXX1&#45;&gt;XGGGG2 -->
<g id="edge15" class="edge">
<title>OOXXX1&#45;&gt;XGGGG2</title>
<path fill="none" stroke="black" d="M59.64,-189.16C73.89,-166.18 101.1,-125.98 132.19,-99 135.18,-96.41 138.46,-93.94 141.85,-91.64"/>
<polygon fill="black" stroke="black" points="143.83,-94.53 150.42,-86.24 140.1,-88.6 143.83,-94.53"/>
</g>
<!-- basal -->
<g id="node18" class="node">
<title>basal</title>
<ellipse fill="none" stroke="black" cx="180.94" cy="-18" rx="29.5" ry="18"/>
<text text-anchor="middle" x="180.94" y="-14.3" font-family="Times New Roman,serif" font-size="14.00">basal</text>
</g>
<!-- OOXXX1&#45;&gt;basal -->
<g id="edge17" class="edge">
<title>OOXXX1&#45;&gt;basal</title>
<path fill="none" stroke="black" d="M54.44,-189.14C64.84,-156.93 90.49,-88.44 132.19,-45 136.61,-40.4 141.98,-36.36 147.5,-32.9"/>
<polygon fill="black" stroke="black" points="149.24,-35.94 156.19,-27.95 145.77,-29.86 149.24,-35.94"/>
</g>
<!-- lusty -->
<g id="node3" class="node">
<title>lusty</title>
<ellipse fill="none" stroke="black" cx="313.78" cy="-396" rx="27.9" ry="18"/>
<text text-anchor="middle" x="313.78" y="-392.3" font-family="Times New Roman,serif" font-size="14.00">lusty</text>
</g>
<!-- XXGXO2&#45;&gt;lusty -->
<g id="edge2" class="edge">
<title>XXGXO2&#45;&gt;lusty</title>
<path fill="none" stroke="black" d="M229.17,-396C244.49,-396 261.25,-396 275.71,-396"/>
<polygon fill="black" stroke="black" points="275.79,-399.5 285.79,-396 275.79,-392.5 275.79,-399.5"/>
</g>
<!-- usual -->
<g id="node5" class="node">
<title>usual</title>
<ellipse fill="none" stroke="black" cx="313.78" cy="-342" rx="29.5" ry="18"/>
<text text-anchor="middle" x="313.78" y="-338.3" font-family="Times New Roman,serif" font-size="14.00">usual</text>
</g>
<!-- XOOGG2&#45;&gt;usual -->
<g id="edge4" class="edge">
<title>XOOGG2&#45;&gt;usual</title>
<path fill="none" stroke="black" d="M229.91,-342C244.44,-342 260.21,-342 274.06,-342"/>
<polygon fill="black" stroke="black" points="274.21,-345.5 284.21,-342 274.21,-338.5 274.21,-345.5"/>
</g>
<!-- palsy -->
<g id="node7" class="node">
<title>palsy</title>
<ellipse fill="none" stroke="black" cx="313.78" cy="-288" rx="29.8" ry="18"/>
<text text-anchor="middle" x="313.78" y="-284.3" font-family="Times New Roman,serif" font-size="14.00">palsy</text>
</g>
<!-- XGOOO2&#45;&gt;palsy -->
<g id="edge6" class="edge">
<title>XGOOO2&#45;&gt;palsy</title>
<path fill="none" stroke="black" d="M229.91,-288C244.33,-288 259.96,-288 273.72,-288"/>
<polygon fill="black" stroke="black" points="273.83,-291.5 283.83,-288 273.83,-284.5 273.83,-291.5"/>
</g>
<!-- psalm -->
<g id="node9" class="node">
<title>psalm</title>
<ellipse fill="none" stroke="black" cx="313.78" cy="-234" rx="32.49" ry="18"/>
<text text-anchor="middle" x="313.78" y="-230.3" font-family="Times New Roman,serif" font-size="14.00">psalm</text>
</g>
<!-- XOOOO2&#45;&gt;psalm -->
<g id="edge8" class="edge">
<title>XOOOO2&#45;&gt;psalm</title>
<path fill="none" stroke="black" d="M229.91,-234C243.38,-234 257.91,-234 270.99,-234"/>
<polygon fill="black" stroke="black" points="271.11,-237.5 281.11,-234 271.11,-230.5 271.11,-237.5"/>
</g>
<!-- lasso -->
<g id="node11" class="node">
<title>lasso</title>
<ellipse fill="none" stroke="black" cx="313.78" cy="-180" rx="29.5" ry="18"/>
<text text-anchor="middle" x="313.78" y="-176.3" font-family="Times New Roman,serif" font-size="14.00">lasso</text>
</g>
<!-- XGGOO2&#45;&gt;lasso -->
<g id="edge10" class="edge">
<title>XGGOO2&#45;&gt;lasso</title>
<path fill="none" stroke="black" d="M229.91,-180C244.44,-180 260.21,-180 274.06,-180"/>
<polygon fill="black" stroke="black" points="274.21,-183.5 284.21,-180 274.21,-176.5 274.21,-183.5"/>
</g>
<!-- lousy -->
<g id="node13" class="node">
<title>lousy</title>
<ellipse fill="none" stroke="black" cx="313.78" cy="-126" rx="30.59" ry="18"/>
<text text-anchor="middle" x="313.78" y="-122.3" font-family="Times New Roman,serif" font-size="14.00">lousy</text>
</g>
<!-- XXOXO2&#45;&gt;lousy -->
<g id="edge12" class="edge">
<title>XXOXO2&#45;&gt;lousy</title>
<path fill="none" stroke="black" d="M229.17,-126C243.52,-126 259.14,-126 272.95,-126"/>
<polygon fill="black" stroke="black" points="273.11,-129.5 283.11,-126 273.11,-122.5 273.11,-129.5"/>
</g>
<!-- GXOOX3 -->
<g id="node14" class="node">
<title>GXOOX3</title>
<ellipse fill="none" stroke="black" cx="313.78" cy="-72" rx="48.19" ry="18"/>
<text text-anchor="middle" x="313.78" y="-68.3" font-family="Times New Roman,serif" font-size="14.00">GXOOX3</text>
</g>
<!-- XXOXO2&#45;&gt;GXOOX3 -->
<g id="edge13" class="edge">
<title>XXOXO2&#45;&gt;GXOOX3</title>
<path fill="none" stroke="black" d="M213.94,-112.79C231.21,-105.66 252.72,-96.79 271.26,-89.13"/>
<polygon fill="black" stroke="black" points="272.74,-92.31 280.65,-85.26 270.07,-85.84 272.74,-92.31"/>
</g>
<!-- lupus -->
<g id="node15" class="node">
<title>lupus</title>
<ellipse fill="none" stroke="black" cx="428.42" cy="-72" rx="30.59" ry="18"/>
<text text-anchor="middle" x="428.42" y="-68.3" font-family="Times New Roman,serif" font-size="14.00">lupus</text>
</g>
<!-- GXOOX3&#45;&gt;lupus -->
<g id="edge14" class="edge">
<title>GXOOX3&#45;&gt;lupus</title>
<path fill="none" stroke="black" d="M361.9,-72C370.46,-72 379.31,-72 387.64,-72"/>
<polygon fill="black" stroke="black" points="387.84,-75.5 397.84,-72 387.84,-68.5 387.84,-75.5"/>
</g>
<!-- nasal -->
<g id="node17" class="node">
<title>nasal</title>
<ellipse fill="none" stroke="black" cx="313.78" cy="-18" rx="28.7" ry="18"/>
<text text-anchor="middle" x="313.78" y="-14.3" font-family="Times New Roman,serif" font-size="14.00">nasal</text>
</g>
<!-- XGGGG2&#45;&gt;nasal -->
<g id="edge16" class="edge">
<title>XGGGG2&#45;&gt;nasal</title>
<path fill="none" stroke="black" d="M214.28,-58.65C234.31,-50.38 259.95,-39.8 280.06,-31.51"/>
<polygon fill="black" stroke="black" points="281.52,-34.69 289.43,-27.64 278.85,-28.22 281.52,-34.69"/>
</g>
</g>
</svg>
