<?xml version="1.0" encoding="UTF-8" standalone="no"?>
<!DOCTYPE svg PUBLIC "-//W3C//DTD SVG 1.1//EN"
 "http://www.w3.org/Graphics/SVG/1.1/DTD/svg11.dtd">
<!-- Generated by graphviz version 2.50.0 (20211204.2007)
 -->
<!-- Pages: 1 -->
<svg width="329pt" height="98pt"
 viewBox="0.00 0.00 328.98 98.00" xmlns="http://www.w3.org/2000/svg" xmlns:xlink="http://www.w3.org/1999/xlink">
<g id="graph0" class="graph" transform="scale(1 1) rotate(0) translate(4 94)">
<polygon fill="white" stroke="transparent" points="-4,4 -4,-94 324.98,-94 324.98,4 -4,4"/>
<!-- XGGGX1 -->
<g id="node1" class="node">
<title>XGGGX1</title>
<ellipse fill="none" stroke="black" cx="48.1" cy="-45" rx="48.19" ry="18"/>
<text text-anchor="middle" x="48.1" y="-41.3" font-family="Times New Roman,serif" font-size="14.00">XGGGX1</text>
</g>
<!-- OGGGG2 -->
<g id="node2" class="node">
<title>OGGGG2</title>
<ellipse fill="none" stroke="black" cx="181.59" cy="-72" rx="49.29" ry="18"/>
<text text-anchor="middle" x="181.59" y="-68.3" font-family="Times New Roman,serif" font-size="14.00">OGGGG2</text>
</g>
<!-- XGGGX1&#45;&gt;OGGGG2 -->
<g id="edge1" class="edge">
<title>XGGGX1&#45;&gt;OGGGG2</title>
<path fill="none" stroke="black" d="M90.7,-53.54C102.46,-55.96 115.41,-58.62 127.73,-61.15"/>
<polygon fill="black" stroke="black" points="127.4,-64.65 137.9,-63.23 128.8,-57.79 127.4,-64.65"/>
</g>
<!-- click -->
<g id="node4" class="node">
<title>click</title>
<ellipse fill="none" stroke="black" cx="181.59" cy="-18" rx="27.9" ry="18"/>
<text text-anchor="middle" x="181.59" y="-14.3" font-family="Times New Roman,serif" font-size="14.00">click</text>
</g>
<!-- XGGGX1&#45;&gt;click -->
<g id="edge3" class="edge">
<title>XGGGX1&#45;&gt;click</title>
<path fill="none" stroke="black" d="M90.7,-36.46C108.02,-32.9 127.94,-28.81 144.62,-25.39"/>
<polygon fill="black" stroke="black" points="145.44,-28.79 154.53,-23.35 144.03,-21.93 145.44,-28.79"/>
</g>
<!-- flick -->
<g id="node3" class="node">
<title>flick</title>
<ellipse fill="none" stroke="black" cx="293.98" cy="-72" rx="27" ry="18"/>
<text text-anchor="middle" x="293.98" y="-68.3" font-family="Times New Roman,serif" font-size="14.00">flick</text>
</g>
<!-- OGGGG2&#45;&gt;flick -->
<g id="edge2" class="edge">
<title>OGGGG2&#45;&gt;flick</title>
<path fill="none" stroke="black" d="M231.01,-72C239.64,-72 248.5,-72 256.73,-72"/>
<polygon fill="black" stroke="black" points="256.74,-75.5 266.74,-72 256.74,-68.5 256.74,-75.5"/>
</g>
</g>
</svg>
