<?xml version="1.0" encoding="UTF-8" standalone="no"?>
<!DOCTYPE svg PUBLIC "-//W3C//DTD SVG 1.1//EN"
 "http://www.w3.org/Graphics/SVG/1.1/DTD/svg11.dtd">
<!-- Generated by graphviz version 2.50.0 (20211204.2007)
 -->
<!-- Pages: 1 -->
<svg width="476pt" height="692pt"
 viewBox="0.00 0.00 476.07 692.00" xmlns="http://www.w3.org/2000/svg" xmlns:xlink="http://www.w3.org/1999/xlink">
<g id="graph0" class="graph" transform="scale(1 1) rotate(0) translate(4 688)">
<polygon fill="white" stroke="transparent" points="-4,4 -4,-688 472.07,-688 472.07,4 -4,4"/>
<!-- GXOXX1 -->
<g id="node1" class="node">
<title>GXOXX1</title>
<ellipse fill="none" stroke="black" cx="48.1" cy="-275" rx="48.19" ry="18"/>
<text text-anchor="middle" x="48.1" y="-271.3" font-family="Times New Roman,serif" font-size="14.00">GXOXX1</text>
</g>
<!-- GXXOX2 -->
<g id="node2" class="node">
<title>GXXOX2</title>
<ellipse fill="none" stroke="black" cx="181.59" cy="-612" rx="48.19" ry="18"/>
<text text-anchor="middle" x="181.59" y="-608.3" font-family="Times New Roman,serif" font-size="14.00">GXXOX2</text>
</g>
<!-- GXOXX1&#45;&gt;GXXOX2 -->
<g id="edge1" class="edge">
<title>GXOXX1&#45;&gt;GXXOX2</title>
<path fill="none" stroke="black" d="M53.42,-292.89C63.99,-335.35 93.17,-445.06 132.19,-531 140.91,-550.2 153.1,-570.57 163.06,-586.09"/>
<polygon fill="black" stroke="black" points="160.23,-588.15 168.63,-594.61 166.09,-584.32 160.23,-588.15"/>
</g>
<!-- GOOGX2 -->
<g id="node4" class="node">
<title>GOOGX2</title>
<ellipse fill="none" stroke="black" cx="181.59" cy="-504" rx="48.99" ry="18"/>
<text text-anchor="middle" x="181.59" y="-500.3" font-family="Times New Roman,serif" font-size="14.00">GOOGX2</text>
</g>
<!-- GXOXX1&#45;&gt;GOOGX2 -->
<g id="edge3" class="edge">
<title>GXOXX1&#45;&gt;GOOGX2</title>
<path fill="none" stroke="black" d="M58.92,-292.86C74.31,-320.76 105.16,-376.34 132.19,-423 142.83,-441.37 155.1,-461.89 164.62,-477.68"/>
<polygon fill="black" stroke="black" points="161.71,-479.63 169.88,-486.38 167.7,-476.01 161.71,-479.63"/>
</g>
<!-- GOXOX2 -->
<g id="node7" class="node">
<title>GOXOX2</title>
<ellipse fill="none" stroke="black" cx="181.59" cy="-396" rx="48.19" ry="18"/>
<text text-anchor="middle" x="181.59" y="-392.3" font-family="Times New Roman,serif" font-size="14.00">GOXOX2</text>
</g>
<!-- GXOXX1&#45;&gt;GOXOX2 -->
<g id="edge6" class="edge">
<title>GXOXX1&#45;&gt;GOXOX2</title>
<path fill="none" stroke="black" d="M65.58,-291.86C82.07,-308.54 108.36,-334.6 132.19,-356 138.46,-361.63 145.36,-367.51 151.94,-372.98"/>
<polygon fill="black" stroke="black" points="150.08,-375.98 160.02,-379.63 154.52,-370.57 150.08,-375.98"/>
</g>
<!-- GOOGG2 -->
<g id="node11" class="node">
<title>GOOGG2</title>
<ellipse fill="none" stroke="black" cx="181.59" cy="-329" rx="49.29" ry="18"/>
<text text-anchor="middle" x="181.59" y="-325.3" font-family="Times New Roman,serif" font-size="14.00">GOOGG2</text>
</g>
<!-- GXOXX1&#45;&gt;GOOGG2 -->
<g id="edge10" class="edge">
<title>GXOXX1&#45;&gt;GOOGG2</title>
<path fill="none" stroke="black" d="M81.26,-288.21C98.48,-295.28 119.91,-304.08 138.45,-311.69"/>
<polygon fill="black" stroke="black" points="137.26,-314.99 147.84,-315.55 139.92,-308.51 137.26,-314.99"/>
</g>
<!-- GXOOX2 -->
<g id="node15" class="node">
<title>GXOOX2</title>
<ellipse fill="none" stroke="black" cx="181.59" cy="-248" rx="48.19" ry="18"/>
<text text-anchor="middle" x="181.59" y="-244.3" font-family="Times New Roman,serif" font-size="14.00">GXOOX2</text>
</g>
<!-- GXOXX1&#45;&gt;GXOOX2 -->
<g id="edge14" class="edge">
<title>GXOXX1&#45;&gt;GXOOX2</title>
<path fill="none" stroke="black" d="M90.7,-266.46C102.81,-263.97 116.19,-261.22 128.85,-258.62"/>
<polygon fill="black" stroke="black" points="129.71,-262.02 138.8,-256.58 128.3,-255.16 129.71,-262.02"/>
</g>
<!-- GXXGX2 -->
<g id="node18" class="node">
<title>GXXGX2</title>
<ellipse fill="none" stroke="black" cx="181.59" cy="-140" rx="48.19" ry="18"/>
<text text-anchor="middle" x="181.59" y="-136.3" font-family="Times New Roman,serif" font-size="14.00">GXXGX2</text>
</g>
<!-- GXOXX1&#45;&gt;GXXGX2 -->
<g id="edge17" class="edge">
<title>GXOXX1&#45;&gt;GXXGX2</title>
<path fill="none" stroke="black" d="M65.48,-258.18C88.52,-234.53 130.59,-191.33 156.99,-164.23"/>
<polygon fill="black" stroke="black" points="159.52,-166.64 163.99,-157.04 154.51,-161.76 159.52,-166.64"/>
</g>
<!-- GXOGX2 -->
<g id="node21" class="node">
<title>GXOGX2</title>
<ellipse fill="none" stroke="black" cx="181.59" cy="-86" rx="48.19" ry="18"/>
<text text-anchor="middle" x="181.59" y="-82.3" font-family="Times New Roman,serif" font-size="14.00">GXOGX2</text>
</g>
<!-- GXOXX1&#45;&gt;GXOGX2 -->
<g id="edge20" class="edge">
<title>GXOXX1&#45;&gt;GXOGX2</title>
<path fill="none" stroke="black" d="M54.42,-257.12C64.77,-224.87 90.36,-156.32 132.19,-113 134.93,-110.16 138.04,-107.54 141.32,-105.14"/>
<polygon fill="black" stroke="black" points="143.29,-108.03 149.74,-99.62 139.45,-102.18 143.29,-108.03"/>
</g>
<!-- satin -->
<g id="node27" class="node">
<title>satin</title>
<ellipse fill="none" stroke="black" cx="181.59" cy="-32" rx="27.1" ry="18"/>
<text text-anchor="middle" x="181.59" y="-28.3" font-family="Times New Roman,serif" font-size="14.00">satin</text>
</g>
<!-- GXOXX1&#45;&gt;satin -->
<g id="edge26" class="edge">
<title>GXOXX1&#45;&gt;satin</title>
<path fill="none" stroke="black" d="M51.78,-256.93C58.54,-216.9 79.66,-119.55 132.19,-59 136.77,-53.73 142.64,-49.27 148.7,-45.6"/>
<polygon fill="black" stroke="black" points="150.47,-48.62 157.59,-40.77 147.13,-42.47 150.47,-48.62"/>
</g>
<!-- sissy -->
<g id="node3" class="node">
<title>sissy</title>
<ellipse fill="none" stroke="black" cx="315.73" cy="-666" rx="28.7" ry="18"/>
<text text-anchor="middle" x="315.73" y="-662.3" font-family="Times New Roman,serif" font-size="14.00">sissy</text>
</g>
<!-- GXXOX2&#45;&gt;sissy -->
<g id="edge2" class="edge">
<title>GXXOX2&#45;&gt;sissy</title>
<path fill="none" stroke="black" d="M214.91,-625.21C235.27,-633.53 261.46,-644.23 281.91,-652.59"/>
<polygon fill="black" stroke="black" points="280.86,-655.94 291.44,-656.48 283.51,-649.46 280.86,-655.94"/>
</g>
<!-- GOGOX3 -->
<g id="node9" class="node">
<title>GOGOX3</title>
<ellipse fill="none" stroke="black" cx="315.73" cy="-612" rx="48.99" ry="18"/>
<text text-anchor="middle" x="315.73" y="-608.3" font-family="Times New Roman,serif" font-size="14.00">GOGOX3</text>
</g>
<!-- GXXOX2&#45;&gt;GOGOX3 -->
<g id="edge8" class="edge">
<title>GXXOX2&#45;&gt;GOGOX3</title>
<path fill="none" stroke="black" d="M229.92,-612C238.64,-612 247.83,-612 256.81,-612"/>
<polygon fill="black" stroke="black" points="256.84,-615.5 266.84,-612 256.84,-608.5 256.84,-615.5"/>
</g>
<!-- GGGGX3 -->
<g id="node5" class="node">
<title>GGGGX3</title>
<ellipse fill="none" stroke="black" cx="315.73" cy="-558" rx="48.99" ry="18"/>
<text text-anchor="middle" x="315.73" y="-554.3" font-family="Times New Roman,serif" font-size="14.00">GGGGX3</text>
</g>
<!-- GOOGX2&#45;&gt;GGGGX3 -->
<g id="edge4" class="edge">
<title>GOOGX2&#45;&gt;GGGGX3</title>
<path fill="none" stroke="black" d="M214.91,-517.21C232.35,-524.34 254.07,-533.21 272.8,-540.87"/>
<polygon fill="black" stroke="black" points="271.7,-544.2 282.28,-544.74 274.35,-537.72 271.7,-544.2"/>
</g>
<!-- staid -->
<g id="node28" class="node">
<title>staid</title>
<ellipse fill="none" stroke="black" cx="315.73" cy="-504" rx="27.9" ry="18"/>
<text text-anchor="middle" x="315.73" y="-500.3" font-family="Times New Roman,serif" font-size="14.00">staid</text>
</g>
<!-- GOOGX2&#45;&gt;staid -->
<g id="edge27" class="edge">
<title>GOOGX2&#45;&gt;staid</title>
<path fill="none" stroke="black" d="M230.67,-504C246.11,-504 262.96,-504 277.5,-504"/>
<polygon fill="black" stroke="black" points="277.63,-507.5 287.63,-504 277.63,-500.5 277.63,-507.5"/>
</g>
<!-- stair -->
<g id="node6" class="node">
<title>stair</title>
<ellipse fill="none" stroke="black" cx="434.27" cy="-558" rx="27" ry="18"/>
<text text-anchor="middle" x="434.27" y="-554.3" font-family="Times New Roman,serif" font-size="14.00">stair</text>
</g>
<!-- GGGGX3&#45;&gt;stair -->
<g id="edge5" class="edge">
<title>GGGGX3&#45;&gt;stair</title>
<path fill="none" stroke="black" d="M364.8,-558C375.51,-558 386.68,-558 396.83,-558"/>
<polygon fill="black" stroke="black" points="396.96,-561.5 406.96,-558 396.96,-554.5 396.96,-561.5"/>
</g>
<!-- sigma -->
<g id="node8" class="node">
<title>sigma</title>
<ellipse fill="none" stroke="black" cx="315.73" cy="-450" rx="31.7" ry="18"/>
<text text-anchor="middle" x="315.73" y="-446.3" font-family="Times New Roman,serif" font-size="14.00">sigma</text>
</g>
<!-- GOXOX2&#45;&gt;sigma -->
<g id="edge7" class="edge">
<title>GOXOX2&#45;&gt;sigma</title>
<path fill="none" stroke="black" d="M214.91,-409.21C234.61,-417.26 259.78,-427.55 279.92,-435.77"/>
<polygon fill="black" stroke="black" points="278.77,-439.09 289.35,-439.63 281.42,-432.61 278.77,-439.09"/>
</g>
<!-- GOXGO3 -->
<g id="node13" class="node">
<title>GOXGO3</title>
<ellipse fill="none" stroke="black" cx="315.73" cy="-396" rx="48.99" ry="18"/>
<text text-anchor="middle" x="315.73" y="-392.3" font-family="Times New Roman,serif" font-size="14.00">GOXGO3</text>
</g>
<!-- GOXOX2&#45;&gt;GOXGO3 -->
<g id="edge12" class="edge">
<title>GOXOX2&#45;&gt;GOXGO3</title>
<path fill="none" stroke="black" d="M229.92,-396C238.64,-396 247.83,-396 256.81,-396"/>
<polygon fill="black" stroke="black" points="256.84,-399.5 266.84,-396 256.84,-392.5 256.84,-399.5"/>
</g>
<!-- sushi -->
<g id="node10" class="node">
<title>sushi</title>
<ellipse fill="none" stroke="black" cx="434.27" cy="-612" rx="29.5" ry="18"/>
<text text-anchor="middle" x="434.27" y="-608.3" font-family="Times New Roman,serif" font-size="14.00">sushi</text>
</g>
<!-- GOGOX3&#45;&gt;sushi -->
<g id="edge9" class="edge">
<title>GOGOX3&#45;&gt;sushi</title>
<path fill="none" stroke="black" d="M364.8,-612C374.84,-612 385.3,-612 394.93,-612"/>
<polygon fill="black" stroke="black" points="394.99,-615.5 404.99,-612 394.99,-608.5 394.99,-615.5"/>
</g>
<!-- stain -->
<g id="node12" class="node">
<title>stain</title>
<ellipse fill="none" stroke="black" cx="315.73" cy="-342" rx="27.1" ry="18"/>
<text text-anchor="middle" x="315.73" y="-338.3" font-family="Times New Roman,serif" font-size="14.00">stain</text>
</g>
<!-- GOOGG2&#45;&gt;stain -->
<g id="edge11" class="edge">
<title>GOOGG2&#45;&gt;stain</title>
<path fill="none" stroke="black" d="M229.55,-333.62C245.7,-335.21 263.52,-336.96 278.67,-338.45"/>
<polygon fill="black" stroke="black" points="278.38,-341.94 288.68,-339.44 279.07,-334.97 278.38,-341.94"/>
</g>
<!-- swami -->
<g id="node14" class="node">
<title>swami</title>
<ellipse fill="none" stroke="black" cx="434.27" cy="-396" rx="33.6" ry="18"/>
<text text-anchor="middle" x="434.27" y="-392.3" font-family="Times New Roman,serif" font-size="14.00">swami</text>
</g>
<!-- GOXGO3&#45;&gt;swami -->
<g id="edge13" class="edge">
<title>GOXGO3&#45;&gt;swami</title>
<path fill="none" stroke="black" d="M364.8,-396C373.18,-396 381.85,-396 390.08,-396"/>
<polygon fill="black" stroke="black" points="390.23,-399.5 400.23,-396 390.23,-392.5 390.23,-399.5"/>
</g>
<!-- GGXOO3 -->
<g id="node16" class="node">
<title>GGXOO3</title>
<ellipse fill="none" stroke="black" cx="315.73" cy="-288" rx="48.99" ry="18"/>
<text text-anchor="middle" x="315.73" y="-284.3" font-family="Times New Roman,serif" font-size="14.00">GGXOO3</text>
</g>
<!-- GXOOX2&#45;&gt;GGXOO3 -->
<g id="edge15" class="edge">
<title>GXOOX2&#45;&gt;GGXOO3</title>
<path fill="none" stroke="black" d="M219.4,-259.14C234.32,-263.66 251.74,-268.93 267.58,-273.73"/>
<polygon fill="black" stroke="black" points="266.61,-277.09 277.2,-276.64 268.64,-270.39 266.61,-277.09"/>
</g>
<!-- sight -->
<g id="node23" class="node">
<title>sight</title>
<ellipse fill="none" stroke="black" cx="315.73" cy="-234" rx="27.9" ry="18"/>
<text text-anchor="middle" x="315.73" y="-230.3" font-family="Times New Roman,serif" font-size="14.00">sight</text>
</g>
<!-- GXOOX2&#45;&gt;sight -->
<g id="edge22" class="edge">
<title>GXOOX2&#45;&gt;sight</title>
<path fill="none" stroke="black" d="M228.06,-243.18C244.32,-241.46 262.42,-239.54 277.86,-237.91"/>
<polygon fill="black" stroke="black" points="278.5,-241.36 288.07,-236.82 277.76,-234.4 278.5,-241.36"/>
</g>
<!-- GGXXO3 -->
<g id="node24" class="node">
<title>GGXXO3</title>
<ellipse fill="none" stroke="black" cx="315.73" cy="-180" rx="48.19" ry="18"/>
<text text-anchor="middle" x="315.73" y="-176.3" font-family="Times New Roman,serif" font-size="14.00">GGXXO3</text>
</g>
<!-- GXOOX2&#45;&gt;GGXXO3 -->
<g id="edge23" class="edge">
<title>GXOOX2&#45;&gt;GGXXO3</title>
<path fill="none" stroke="black" d="M210.61,-233.58C230.14,-223.53 256.41,-210.01 277.67,-199.07"/>
<polygon fill="black" stroke="black" points="279.45,-202.09 286.75,-194.4 276.25,-195.86 279.45,-202.09"/>
</g>
<!-- sixth -->
<g id="node17" class="node">
<title>sixth</title>
<ellipse fill="none" stroke="black" cx="434.27" cy="-288" rx="27.9" ry="18"/>
<text text-anchor="middle" x="434.27" y="-284.3" font-family="Times New Roman,serif" font-size="14.00">sixth</text>
</g>
<!-- GGXOO3&#45;&gt;sixth -->
<g id="edge16" class="edge">
<title>GGXOO3&#45;&gt;sixth</title>
<path fill="none" stroke="black" d="M364.8,-288C375.32,-288 386.3,-288 396.3,-288"/>
<polygon fill="black" stroke="black" points="396.31,-291.5 406.31,-288 396.31,-284.5 396.31,-291.5"/>
</g>
<!-- GXXGX3 -->
<g id="node19" class="node">
<title>GXXGX3</title>
<ellipse fill="none" stroke="black" cx="315.73" cy="-126" rx="48.19" ry="18"/>
<text text-anchor="middle" x="315.73" y="-122.3" font-family="Times New Roman,serif" font-size="14.00">GXXGX3</text>
</g>
<!-- GXXGX2&#45;&gt;GXXGX3 -->
<g id="edge18" class="edge">
<title>GXXGX2&#45;&gt;GXXGX3</title>
<path fill="none" stroke="black" d="M228.06,-135.18C238.03,-134.13 248.69,-133 259.01,-131.9"/>
<polygon fill="black" stroke="black" points="259.59,-135.36 269.17,-130.83 258.86,-128.4 259.59,-135.36"/>
</g>
<!-- sprig -->
<g id="node26" class="node">
<title>sprig</title>
<ellipse fill="none" stroke="black" cx="315.73" cy="-72" rx="28.7" ry="18"/>
<text text-anchor="middle" x="315.73" y="-68.3" font-family="Times New Roman,serif" font-size="14.00">sprig</text>
</g>
<!-- GXXGX2&#45;&gt;sprig -->
<g id="edge25" class="edge">
<title>GXXGX2&#45;&gt;sprig</title>
<path fill="none" stroke="black" d="M210.61,-125.58C232.09,-114.53 261.7,-99.29 283.86,-87.89"/>
<polygon fill="black" stroke="black" points="285.56,-90.95 292.85,-83.26 282.36,-84.72 285.56,-90.95"/>
</g>
<!-- squib -->
<g id="node20" class="node">
<title>squib</title>
<ellipse fill="none" stroke="black" cx="434.27" cy="-126" rx="30.59" ry="18"/>
<text text-anchor="middle" x="434.27" y="-122.3" font-family="Times New Roman,serif" font-size="14.00">squib</text>
</g>
<!-- GXXGX3&#45;&gt;squib -->
<g id="edge19" class="edge">
<title>GXXGX3&#45;&gt;squib</title>
<path fill="none" stroke="black" d="M364.13,-126C373.84,-126 383.96,-126 393.37,-126"/>
<polygon fill="black" stroke="black" points="393.64,-129.5 403.64,-126 393.64,-122.5 393.64,-129.5"/>
</g>
<!-- strip -->
<g id="node22" class="node">
<title>strip</title>
<ellipse fill="none" stroke="black" cx="315.73" cy="-18" rx="27" ry="18"/>
<text text-anchor="middle" x="315.73" y="-14.3" font-family="Times New Roman,serif" font-size="14.00">strip</text>
</g>
<!-- GXOGX2&#45;&gt;strip -->
<g id="edge21" class="edge">
<title>GXOGX2&#45;&gt;strip</title>
<path fill="none" stroke="black" d="M210.61,-71.58C232.35,-60.39 262.44,-44.91 284.68,-33.46"/>
<polygon fill="black" stroke="black" points="286.39,-36.52 293.68,-28.83 283.19,-30.29 286.39,-36.52"/>
</g>
<!-- sixty -->
<g id="node25" class="node">
<title>sixty</title>
<ellipse fill="none" stroke="black" cx="434.27" cy="-180" rx="27.9" ry="18"/>
<text text-anchor="middle" x="434.27" y="-176.3" font-family="Times New Roman,serif" font-size="14.00">sixty</text>
</g>
<!-- GGXXO3&#45;&gt;sixty -->
<g id="edge24" class="edge">
<title>GGXXO3&#45;&gt;sixty</title>
<path fill="none" stroke="black" d="M364.13,-180C374.79,-180 385.96,-180 396.14,-180"/>
<polygon fill="black" stroke="black" points="396.31,-183.5 406.31,-180 396.31,-176.5 396.31,-183.5"/>
</g>
</g>
</svg>
