<?xml version="1.0" encoding="UTF-8" standalone="no"?>
<!DOCTYPE svg PUBLIC "-//W3C//DTD SVG 1.1//EN"
 "http://www.w3.org/Graphics/SVG/1.1/DTD/svg11.dtd">
<!-- Generated by graphviz version 2.50.0 (20211204.2007)
 -->
<!-- Pages: 1 -->
<svg width="343pt" height="584pt"
 viewBox="0.00 0.00 342.58 584.00" xmlns="http://www.w3.org/2000/svg" xmlns:xlink="http://www.w3.org/1999/xlink">
<g id="graph0" class="graph" transform="scale(1 1) rotate(0) translate(4 580)">
<polygon fill="white" stroke="transparent" points="-4,4 -4,-580 338.58,-580 338.58,4 -4,4"/>
<!-- OXXOX1 -->
<g id="node1" class="node">
<title>OXXOX1</title>
<ellipse fill="none" stroke="black" cx="48.1" cy="-288" rx="48.19" ry="18"/>
<text text-anchor="middle" x="48.1" y="-284.3" font-family="Times New Roman,serif" font-size="14.00">OXXOX1</text>
</g>
<!-- GXXXO2 -->
<g id="node2" class="node">
<title>GXXXO2</title>
<ellipse fill="none" stroke="black" cx="180.94" cy="-558" rx="48.19" ry="18"/>
<text text-anchor="middle" x="180.94" y="-554.3" font-family="Times New Roman,serif" font-size="14.00">GXXXO2</text>
</g>
<!-- OXXOX1&#45;&gt;GXXXO2 -->
<g id="edge1" class="edge">
<title>OXXOX1&#45;&gt;GXXXO2</title>
<path fill="none" stroke="black" d="M50.87,-305.98C56,-349.37 74.38,-461.36 132.19,-531 134.45,-533.72 137.06,-536.22 139.86,-538.5"/>
<polygon fill="black" stroke="black" points="138,-541.47 148.18,-544.38 142.04,-535.75 138,-541.47"/>
</g>
<!-- GXGXG2 -->
<g id="node4" class="node">
<title>GXGXG2</title>
<ellipse fill="none" stroke="black" cx="180.94" cy="-504" rx="48.19" ry="18"/>
<text text-anchor="middle" x="180.94" y="-500.3" font-family="Times New Roman,serif" font-size="14.00">GXGXG2</text>
</g>
<!-- OXXOX1&#45;&gt;GXGXG2 -->
<g id="edge3" class="edge">
<title>OXXOX1&#45;&gt;GXGXG2</title>
<path fill="none" stroke="black" d="M52.95,-305.97C61.52,-342.21 85.19,-425.02 132.19,-477 134.7,-479.78 137.57,-482.34 140.62,-484.68"/>
<polygon fill="black" stroke="black" points="138.78,-487.66 149.02,-490.39 142.72,-481.87 138.78,-487.66"/>
</g>
<!-- GXGOO2 -->
<g id="node6" class="node">
<title>GXGOO2</title>
<ellipse fill="none" stroke="black" cx="180.94" cy="-450" rx="48.99" ry="18"/>
<text text-anchor="middle" x="180.94" y="-446.3" font-family="Times New Roman,serif" font-size="14.00">GXGOO2</text>
</g>
<!-- OXXOX1&#45;&gt;GXGOO2 -->
<g id="edge5" class="edge">
<title>OXXOX1&#45;&gt;GXGOO2</title>
<path fill="none" stroke="black" d="M56.67,-306.15C69.05,-334.08 95.92,-388.05 132.19,-423 134.89,-425.6 137.88,-428.03 141.02,-430.3"/>
<polygon fill="black" stroke="black" points="139.26,-433.33 149.55,-435.88 143.1,-427.47 139.26,-433.33"/>
</g>
<!-- OXXOG2 -->
<g id="node8" class="node">
<title>OXXOG2</title>
<ellipse fill="none" stroke="black" cx="180.94" cy="-396" rx="48.19" ry="18"/>
<text text-anchor="middle" x="180.94" y="-392.3" font-family="Times New Roman,serif" font-size="14.00">OXXOG2</text>
</g>
<!-- OXXOX1&#45;&gt;OXXOG2 -->
<g id="edge7" class="edge">
<title>OXXOX1&#45;&gt;OXXOG2</title>
<path fill="none" stroke="black" d="M64.21,-305.14C80.07,-322.52 106.25,-349.53 132.19,-369 135.58,-371.54 139.22,-374.01 142.94,-376.36"/>
<polygon fill="black" stroke="black" points="141.28,-379.45 151.66,-381.6 144.89,-373.45 141.28,-379.45"/>
</g>
<!-- chaos -->
<g id="node10" class="node">
<title>chaos</title>
<ellipse fill="none" stroke="black" cx="180.94" cy="-342" rx="32.49" ry="18"/>
<text text-anchor="middle" x="180.94" y="-338.3" font-family="Times New Roman,serif" font-size="14.00">chaos</text>
</g>
<!-- OXXOX1&#45;&gt;chaos -->
<g id="edge9" class="edge">
<title>OXXOX1&#45;&gt;chaos</title>
<path fill="none" stroke="black" d="M81.1,-301.21C100.48,-309.21 125.2,-319.41 145.07,-327.61"/>
<polygon fill="black" stroke="black" points="143.81,-330.88 154.39,-331.46 146.48,-324.41 143.81,-330.88"/>
</g>
<!-- GXXOG2 -->
<g id="node11" class="node">
<title>GXXOG2</title>
<ellipse fill="none" stroke="black" cx="180.94" cy="-288" rx="48.19" ry="18"/>
<text text-anchor="middle" x="180.94" y="-284.3" font-family="Times New Roman,serif" font-size="14.00">GXXOG2</text>
</g>
<!-- OXXOX1&#45;&gt;GXXOG2 -->
<g id="edge10" class="edge">
<title>OXXOX1&#45;&gt;GXXOG2</title>
<path fill="none" stroke="black" d="M96.33,-288C104.86,-288 113.83,-288 122.6,-288"/>
<polygon fill="black" stroke="black" points="122.77,-291.5 132.77,-288 122.77,-284.5 122.77,-291.5"/>
</g>
<!-- OXOGO2 -->
<g id="node13" class="node">
<title>OXOGO2</title>
<ellipse fill="none" stroke="black" cx="180.94" cy="-234" rx="48.99" ry="18"/>
<text text-anchor="middle" x="180.94" y="-230.3" font-family="Times New Roman,serif" font-size="14.00">OXOGO2</text>
</g>
<!-- OXXOX1&#45;&gt;OXOGO2 -->
<g id="edge12" class="edge">
<title>OXXOX1&#45;&gt;OXOGO2</title>
<path fill="none" stroke="black" d="M81.1,-274.79C98.37,-267.66 119.88,-258.79 138.42,-251.13"/>
<polygon fill="black" stroke="black" points="139.9,-254.31 147.81,-247.26 137.23,-247.84 139.9,-254.31"/>
</g>
<!-- GOGXO2 -->
<g id="node15" class="node">
<title>GOGXO2</title>
<ellipse fill="none" stroke="black" cx="180.94" cy="-180" rx="48.99" ry="18"/>
<text text-anchor="middle" x="180.94" y="-176.3" font-family="Times New Roman,serif" font-size="14.00">GOGXO2</text>
</g>
<!-- OXXOX1&#45;&gt;GOGXO2 -->
<g id="edge14" class="edge">
<title>OXXOX1&#45;&gt;GOGXO2</title>
<path fill="none" stroke="black" d="M64.21,-270.86C80.07,-253.48 106.25,-226.47 132.19,-207 135.58,-204.46 139.22,-201.99 142.94,-199.64"/>
<polygon fill="black" stroke="black" points="144.89,-202.55 151.66,-194.4 141.28,-196.55 144.89,-202.55"/>
</g>
<!-- GGGXO2 -->
<g id="node17" class="node">
<title>GGGXO2</title>
<ellipse fill="none" stroke="black" cx="180.94" cy="-126" rx="48.99" ry="18"/>
<text text-anchor="middle" x="180.94" y="-122.3" font-family="Times New Roman,serif" font-size="14.00">GGGXO2</text>
</g>
<!-- OXXOX1&#45;&gt;GGGXO2 -->
<g id="edge16" class="edge">
<title>OXXOX1&#45;&gt;GGGXO2</title>
<path fill="none" stroke="black" d="M56.67,-269.85C69.05,-241.92 95.92,-187.95 132.19,-153 134.89,-150.4 137.88,-147.97 141.02,-145.7"/>
<polygon fill="black" stroke="black" points="143.1,-148.53 149.55,-140.12 139.26,-142.67 143.1,-148.53"/>
</g>
<!-- OXXXG2 -->
<g id="node19" class="node">
<title>OXXXG2</title>
<ellipse fill="none" stroke="black" cx="180.94" cy="-72" rx="48.19" ry="18"/>
<text text-anchor="middle" x="180.94" y="-68.3" font-family="Times New Roman,serif" font-size="14.00">OXXXG2</text>
</g>
<!-- OXXOX1&#45;&gt;OXXXG2 -->
<g id="edge18" class="edge">
<title>OXXOX1&#45;&gt;OXXXG2</title>
<path fill="none" stroke="black" d="M52.95,-270.03C61.52,-233.79 85.19,-150.98 132.19,-99 134.7,-96.22 137.57,-93.66 140.62,-91.32"/>
<polygon fill="black" stroke="black" points="142.72,-94.13 149.02,-85.61 138.78,-88.34 142.72,-94.13"/>
</g>
<!-- GOXXO2 -->
<g id="node21" class="node">
<title>GOXXO2</title>
<ellipse fill="none" stroke="black" cx="180.94" cy="-18" rx="48.19" ry="18"/>
<text text-anchor="middle" x="180.94" y="-14.3" font-family="Times New Roman,serif" font-size="14.00">GOXXO2</text>
</g>
<!-- OXXOX1&#45;&gt;GOXXO2 -->
<g id="edge20" class="edge">
<title>OXXOX1&#45;&gt;GOXXO2</title>
<path fill="none" stroke="black" d="M50.87,-270.02C56,-226.63 74.38,-114.64 132.19,-45 134.45,-42.28 137.06,-39.78 139.86,-37.5"/>
<polygon fill="black" stroke="black" points="142.04,-40.25 148.18,-31.62 138,-34.53 142.04,-40.25"/>
</g>
<!-- crust -->
<g id="node3" class="node">
<title>crust</title>
<ellipse fill="none" stroke="black" cx="300.13" cy="-558" rx="28.7" ry="18"/>
<text text-anchor="middle" x="300.13" y="-554.3" font-family="Times New Roman,serif" font-size="14.00">crust</text>
</g>
<!-- GXXXO2&#45;&gt;crust -->
<g id="edge2" class="edge">
<title>GXXXO2&#45;&gt;crust</title>
<path fill="none" stroke="black" d="M229.27,-558C239.92,-558 251.09,-558 261.3,-558"/>
<polygon fill="black" stroke="black" points="261.52,-561.5 271.52,-558 261.52,-554.5 261.52,-561.5"/>
</g>
<!-- crass -->
<g id="node5" class="node">
<title>crass</title>
<ellipse fill="none" stroke="black" cx="300.13" cy="-504" rx="29.8" ry="18"/>
<text text-anchor="middle" x="300.13" y="-500.3" font-family="Times New Roman,serif" font-size="14.00">crass</text>
</g>
<!-- GXGXG2&#45;&gt;crass -->
<g id="edge4" class="edge">
<title>GXGXG2&#45;&gt;crass</title>
<path fill="none" stroke="black" d="M229.27,-504C239.44,-504 250.08,-504 259.9,-504"/>
<polygon fill="black" stroke="black" points="260.18,-507.5 270.18,-504 260.18,-500.5 260.18,-507.5"/>
</g>
<!-- coast -->
<g id="node7" class="node">
<title>coast</title>
<ellipse fill="none" stroke="black" cx="300.13" cy="-450" rx="30.59" ry="18"/>
<text text-anchor="middle" x="300.13" y="-446.3" font-family="Times New Roman,serif" font-size="14.00">coast</text>
</g>
<!-- GXGOO2&#45;&gt;coast -->
<g id="edge6" class="edge">
<title>GXGOO2&#45;&gt;coast</title>
<path fill="none" stroke="black" d="M229.94,-450C239.68,-450 249.82,-450 259.24,-450"/>
<polygon fill="black" stroke="black" points="259.51,-453.5 269.51,-450 259.51,-446.5 259.51,-453.5"/>
</g>
<!-- focus -->
<g id="node9" class="node">
<title>focus</title>
<ellipse fill="none" stroke="black" cx="300.13" cy="-396" rx="31.4" ry="18"/>
<text text-anchor="middle" x="300.13" y="-392.3" font-family="Times New Roman,serif" font-size="14.00">focus</text>
</g>
<!-- OXXOG2&#45;&gt;focus -->
<g id="edge8" class="edge">
<title>OXXOG2&#45;&gt;focus</title>
<path fill="none" stroke="black" d="M229.27,-396C238.96,-396 249.08,-396 258.51,-396"/>
<polygon fill="black" stroke="black" points="258.81,-399.5 268.81,-396 258.81,-392.5 258.81,-399.5"/>
</g>
<!-- cross -->
<g id="node12" class="node">
<title>cross</title>
<ellipse fill="none" stroke="black" cx="300.13" cy="-288" rx="30.59" ry="18"/>
<text text-anchor="middle" x="300.13" y="-284.3" font-family="Times New Roman,serif" font-size="14.00">cross</text>
</g>
<!-- GXXOG2&#45;&gt;cross -->
<g id="edge11" class="edge">
<title>GXXOG2&#45;&gt;cross</title>
<path fill="none" stroke="black" d="M229.27,-288C239.25,-288 249.69,-288 259.36,-288"/>
<polygon fill="black" stroke="black" points="259.49,-291.5 269.49,-288 259.49,-284.5 259.49,-291.5"/>
</g>
<!-- ascot -->
<g id="node14" class="node">
<title>ascot</title>
<ellipse fill="none" stroke="black" cx="300.13" cy="-234" rx="30.59" ry="18"/>
<text text-anchor="middle" x="300.13" y="-230.3" font-family="Times New Roman,serif" font-size="14.00">ascot</text>
</g>
<!-- OXOGO2&#45;&gt;ascot -->
<g id="edge13" class="edge">
<title>OXOGO2&#45;&gt;ascot</title>
<path fill="none" stroke="black" d="M229.94,-234C239.68,-234 249.82,-234 259.24,-234"/>
<polygon fill="black" stroke="black" points="259.51,-237.5 269.51,-234 259.51,-230.5 259.51,-237.5"/>
</g>
<!-- crash -->
<g id="node16" class="node">
<title>crash</title>
<ellipse fill="none" stroke="black" cx="300.13" cy="-180" rx="30.59" ry="18"/>
<text text-anchor="middle" x="300.13" y="-176.3" font-family="Times New Roman,serif" font-size="14.00">crash</text>
</g>
<!-- GOGXO2&#45;&gt;crash -->
<g id="edge15" class="edge">
<title>GOGXO2&#45;&gt;crash</title>
<path fill="none" stroke="black" d="M229.94,-180C239.68,-180 249.82,-180 259.24,-180"/>
<polygon fill="black" stroke="black" points="259.51,-183.5 269.51,-180 259.51,-176.5 259.51,-183.5"/>
</g>
<!-- chasm -->
<g id="node18" class="node">
<title>chasm</title>
<ellipse fill="none" stroke="black" cx="300.13" cy="-126" rx="34.39" ry="18"/>
<text text-anchor="middle" x="300.13" y="-122.3" font-family="Times New Roman,serif" font-size="14.00">chasm</text>
</g>
<!-- GGGXO2&#45;&gt;chasm -->
<g id="edge17" class="edge">
<title>GGGXO2&#45;&gt;chasm</title>
<path fill="none" stroke="black" d="M229.94,-126C238.3,-126 246.95,-126 255.19,-126"/>
<polygon fill="black" stroke="black" points="255.35,-129.5 265.35,-126 255.35,-122.5 255.35,-129.5"/>
</g>
<!-- mucus -->
<g id="node20" class="node">
<title>mucus</title>
<ellipse fill="none" stroke="black" cx="300.13" cy="-72" rx="34.39" ry="18"/>
<text text-anchor="middle" x="300.13" y="-68.3" font-family="Times New Roman,serif" font-size="14.00">mucus</text>
</g>
<!-- OXXXG2&#45;&gt;mucus -->
<g id="edge19" class="edge">
<title>OXXXG2&#45;&gt;mucus</title>
<path fill="none" stroke="black" d="M229.27,-72C237.94,-72 246.95,-72 255.51,-72"/>
<polygon fill="black" stroke="black" points="255.66,-75.5 265.66,-72 255.66,-68.5 255.66,-75.5"/>
</g>
<!-- crush -->
<g id="node22" class="node">
<title>crush</title>
<ellipse fill="none" stroke="black" cx="300.13" cy="-18" rx="30.59" ry="18"/>
<text text-anchor="middle" x="300.13" y="-14.3" font-family="Times New Roman,serif" font-size="14.00">crush</text>
</g>
<!-- GOXXO2&#45;&gt;crush -->
<g id="edge21" class="edge">
<title>GOXXO2&#45;&gt;crush</title>
<path fill="none" stroke="black" d="M229.27,-18C239.25,-18 249.69,-18 259.36,-18"/>
<polygon fill="black" stroke="black" points="259.49,-21.5 269.49,-18 259.49,-14.5 259.49,-21.5"/>
</g>
</g>
</svg>
