<?xml version="1.0" encoding="UTF-8" standalone="no"?>
<!DOCTYPE svg PUBLIC "-//W3C//DTD SVG 1.1//EN"
 "http://www.w3.org/Graphics/SVG/1.1/DTD/svg11.dtd">
<!-- Generated by graphviz version 2.50.0 (20211204.2007)
 -->
<!-- Pages: 1 -->
<svg width="462pt" height="260pt"
 viewBox="0.00 0.00 461.77 260.00" xmlns="http://www.w3.org/2000/svg" xmlns:xlink="http://www.w3.org/1999/xlink">
<g id="graph0" class="graph" transform="scale(1 1) rotate(0) translate(4 256)">
<polygon fill="white" stroke="transparent" points="-4,4 -4,-256 457.77,-256 457.77,4 -4,4"/>
<!-- GXOXO1 -->
<g id="node1" class="node">
<title>GXOXO1</title>
<ellipse fill="none" stroke="black" cx="48.1" cy="-99" rx="48.19" ry="18"/>
<text text-anchor="middle" x="48.1" y="-95.3" font-family="Times New Roman,serif" font-size="14.00">GXOXO1</text>
</g>
<!-- GOXGX2 -->
<g id="node2" class="node">
<title>GOXGX2</title>
<ellipse fill="none" stroke="black" cx="180.29" cy="-180" rx="48.19" ry="18"/>
<text text-anchor="middle" x="180.29" y="-176.3" font-family="Times New Roman,serif" font-size="14.00">GOXGX2</text>
</g>
<!-- GXOXO1&#45;&gt;GOXGX2 -->
<g id="edge1" class="edge">
<title>GXOXO1&#45;&gt;GOXGX2</title>
<path fill="none" stroke="black" d="M72.51,-114.72C89.04,-125.68 111.78,-140.53 132.19,-153 136,-155.33 140.02,-157.72 144.03,-160.07"/>
<polygon fill="black" stroke="black" points="142.33,-163.13 152.73,-165.12 145.84,-157.08 142.33,-163.13"/>
</g>
<!-- GOXOX2 -->
<g id="node5" class="node">
<title>GOXOX2</title>
<ellipse fill="none" stroke="black" cx="180.29" cy="-126" rx="48.19" ry="18"/>
<text text-anchor="middle" x="180.29" y="-122.3" font-family="Times New Roman,serif" font-size="14.00">GOXOX2</text>
</g>
<!-- GXOXO1&#45;&gt;GOXOX2 -->
<g id="edge4" class="edge">
<title>GXOXO1&#45;&gt;GOXOX2</title>
<path fill="none" stroke="black" d="M90.65,-107.62C102.39,-110.05 115.32,-112.73 127.58,-115.28"/>
<polygon fill="black" stroke="black" points="127.18,-118.77 137.68,-117.37 128.6,-111.91 127.18,-118.77"/>
</g>
<!-- sepia -->
<g id="node8" class="node">
<title>sepia</title>
<ellipse fill="none" stroke="black" cx="180.29" cy="-72" rx="29.5" ry="18"/>
<text text-anchor="middle" x="180.29" y="-68.3" font-family="Times New Roman,serif" font-size="14.00">sepia</text>
</g>
<!-- GXOXO1&#45;&gt;sepia -->
<g id="edge7" class="edge">
<title>GXOXO1&#45;&gt;sepia</title>
<path fill="none" stroke="black" d="M90.65,-90.38C107.25,-86.94 126.22,-83.01 142.33,-79.66"/>
<polygon fill="black" stroke="black" points="143.38,-83.02 152.46,-77.56 141.96,-76.17 143.38,-83.02"/>
</g>
<!-- GGXGX2 -->
<g id="node11" class="node">
<title>GGXGX2</title>
<ellipse fill="none" stroke="black" cx="180.29" cy="-18" rx="48.19" ry="18"/>
<text text-anchor="middle" x="180.29" y="-14.3" font-family="Times New Roman,serif" font-size="14.00">GGXGX2</text>
</g>
<!-- GXOXO1&#45;&gt;GGXGX2 -->
<g id="edge10" class="edge">
<title>GXOXO1&#45;&gt;GGXGX2</title>
<path fill="none" stroke="black" d="M72.51,-83.28C89.04,-72.32 111.78,-57.47 132.19,-45 136,-42.67 140.02,-40.28 144.03,-37.93"/>
<polygon fill="black" stroke="black" points="145.84,-40.92 152.73,-32.88 142.33,-34.87 145.84,-40.92"/>
</g>
<!-- GXGGX3 -->
<g id="node3" class="node">
<title>GXGGX3</title>
<ellipse fill="none" stroke="black" cx="313.13" cy="-234" rx="48.19" ry="18"/>
<text text-anchor="middle" x="313.13" y="-230.3" font-family="Times New Roman,serif" font-size="14.00">GXGGX3</text>
</g>
<!-- GOXGX2&#45;&gt;GXGGX3 -->
<g id="edge2" class="edge">
<title>GOXGX2&#45;&gt;GXGGX3</title>
<path fill="none" stroke="black" d="M213.29,-193.21C230.56,-200.34 252.07,-209.21 270.61,-216.87"/>
<polygon fill="black" stroke="black" points="269.42,-220.16 280,-220.74 272.09,-213.69 269.42,-220.16"/>
</g>
<!-- sheik -->
<g id="node9" class="node">
<title>sheik</title>
<ellipse fill="none" stroke="black" cx="313.13" cy="-180" rx="29.5" ry="18"/>
<text text-anchor="middle" x="313.13" y="-176.3" font-family="Times New Roman,serif" font-size="14.00">sheik</text>
</g>
<!-- GOXGX2&#45;&gt;sheik -->
<g id="edge8" class="edge">
<title>GOXGX2&#45;&gt;sheik</title>
<path fill="none" stroke="black" d="M228.52,-180C243.22,-180 259.25,-180 273.31,-180"/>
<polygon fill="black" stroke="black" points="273.62,-183.5 283.62,-180 273.62,-176.5 273.62,-183.5"/>
</g>
<!-- stein -->
<g id="node4" class="node">
<title>stein</title>
<ellipse fill="none" stroke="black" cx="425.82" cy="-234" rx="27.1" ry="18"/>
<text text-anchor="middle" x="425.82" y="-230.3" font-family="Times New Roman,serif" font-size="14.00">stein</text>
</g>
<!-- GXGGX3&#45;&gt;stein -->
<g id="edge3" class="edge">
<title>GXGGX3&#45;&gt;stein</title>
<path fill="none" stroke="black" d="M361.39,-234C370.42,-234 379.73,-234 388.36,-234"/>
<polygon fill="black" stroke="black" points="388.46,-237.5 398.46,-234 388.46,-230.5 388.46,-237.5"/>
</g>
<!-- GGOGX3 -->
<g id="node6" class="node">
<title>GGOGX3</title>
<ellipse fill="none" stroke="black" cx="313.13" cy="-126" rx="48.99" ry="18"/>
<text text-anchor="middle" x="313.13" y="-122.3" font-family="Times New Roman,serif" font-size="14.00">GGOGX3</text>
</g>
<!-- GOXOX2&#45;&gt;GGOGX3 -->
<g id="edge5" class="edge">
<title>GOXOX2&#45;&gt;GGOGX3</title>
<path fill="none" stroke="black" d="M228.52,-126C236.75,-126 245.38,-126 253.86,-126"/>
<polygon fill="black" stroke="black" points="254.08,-129.5 264.08,-126 254.08,-122.5 254.08,-129.5"/>
</g>
<!-- sinew -->
<g id="node10" class="node">
<title>sinew</title>
<ellipse fill="none" stroke="black" cx="313.13" cy="-72" rx="31.4" ry="18"/>
<text text-anchor="middle" x="313.13" y="-68.3" font-family="Times New Roman,serif" font-size="14.00">sinew</text>
</g>
<!-- GOXOX2&#45;&gt;sinew -->
<g id="edge9" class="edge">
<title>GOXOX2&#45;&gt;sinew</title>
<path fill="none" stroke="black" d="M213.29,-112.79C232.93,-104.69 258.05,-94.32 278.06,-86.06"/>
<polygon fill="black" stroke="black" points="279.51,-89.25 287.42,-82.2 276.84,-82.78 279.51,-89.25"/>
</g>
<!-- siren -->
<g id="node7" class="node">
<title>siren</title>
<ellipse fill="none" stroke="black" cx="425.82" cy="-126" rx="27.9" ry="18"/>
<text text-anchor="middle" x="425.82" y="-122.3" font-family="Times New Roman,serif" font-size="14.00">siren</text>
</g>
<!-- GGOGX3&#45;&gt;siren -->
<g id="edge6" class="edge">
<title>GGOGX3&#45;&gt;siren</title>
<path fill="none" stroke="black" d="M362.04,-126C370.66,-126 379.54,-126 387.8,-126"/>
<polygon fill="black" stroke="black" points="387.87,-129.5 397.87,-126 387.87,-122.5 387.87,-129.5"/>
</g>
<!-- serif -->
<g id="node12" class="node">
<title>serif</title>
<ellipse fill="none" stroke="black" cx="313.13" cy="-18" rx="27" ry="18"/>
<text text-anchor="middle" x="313.13" y="-14.3" font-family="Times New Roman,serif" font-size="14.00">serif</text>
</g>
<!-- GGXGX2&#45;&gt;serif -->
<g id="edge11" class="edge">
<title>GGXGX2&#45;&gt;serif</title>
<path fill="none" stroke="black" d="M228.52,-18C244.07,-18 261.11,-18 275.73,-18"/>
<polygon fill="black" stroke="black" points="275.89,-21.5 285.89,-18 275.89,-14.5 275.89,-21.5"/>
</g>
</g>
</svg>
