<?xml version="1.0" encoding="UTF-8" standalone="no"?>
<!DOCTYPE svg PUBLIC "-//W3C//DTD SVG 1.1//EN"
 "http://www.w3.org/Graphics/SVG/1.1/DTD/svg11.dtd">
<!-- Generated by graphviz version 2.50.0 (20211204.2007)
 -->
<!-- Pages: 1 -->
<svg width="464pt" height="341pt"
 viewBox="0.00 0.00 464.37 341.00" xmlns="http://www.w3.org/2000/svg" xmlns:xlink="http://www.w3.org/1999/xlink">
<g id="graph0" class="graph" transform="scale(1 1) rotate(0) translate(4 337)">
<polygon fill="white" stroke="transparent" points="-4,4 -4,-337 460.37,-337 460.37,4 -4,4"/>
<!-- XGXOO1 -->
<g id="node1" class="node">
<title>XGXOO1</title>
<ellipse fill="none" stroke="black" cx="48.1" cy="-207" rx="48.19" ry="18"/>
<text text-anchor="middle" x="48.1" y="-203.3" font-family="Times New Roman,serif" font-size="14.00">XGXOO1</text>
</g>
<!-- OGOXX2 -->
<g id="node2" class="node">
<title>OGOXX2</title>
<ellipse fill="none" stroke="black" cx="180.94" cy="-315" rx="48.19" ry="18"/>
<text text-anchor="middle" x="180.94" y="-311.3" font-family="Times New Roman,serif" font-size="14.00">OGOXX2</text>
</g>
<!-- XGXOO1&#45;&gt;OGOXX2 -->
<g id="edge1" class="edge">
<title>XGXOO1&#45;&gt;OGOXX2</title>
<path fill="none" stroke="black" d="M64.21,-224.14C80.07,-241.52 106.25,-268.53 132.19,-288 135.58,-290.54 139.22,-293.01 142.94,-295.36"/>
<polygon fill="black" stroke="black" points="141.28,-298.45 151.66,-300.6 144.89,-292.45 141.28,-298.45"/>
</g>
<!-- clean -->
<g id="node4" class="node">
<title>clean</title>
<ellipse fill="none" stroke="black" cx="180.94" cy="-261" rx="29.5" ry="18"/>
<text text-anchor="middle" x="180.94" y="-257.3" font-family="Times New Roman,serif" font-size="14.00">clean</text>
</g>
<!-- XGXOO1&#45;&gt;clean -->
<g id="edge3" class="edge">
<title>XGXOO1&#45;&gt;clean</title>
<path fill="none" stroke="black" d="M81.1,-220.21C101,-228.42 126.53,-238.96 146.66,-247.26"/>
<polygon fill="black" stroke="black" points="145.48,-250.56 156.06,-251.14 148.15,-244.09 145.48,-250.56"/>
</g>
<!-- GGOXX2 -->
<g id="node5" class="node">
<title>GGOXX2</title>
<ellipse fill="none" stroke="black" cx="180.94" cy="-207" rx="48.19" ry="18"/>
<text text-anchor="middle" x="180.94" y="-203.3" font-family="Times New Roman,serif" font-size="14.00">GGOXX2</text>
</g>
<!-- XGXOO1&#45;&gt;GGOXX2 -->
<g id="edge4" class="edge">
<title>XGXOO1&#45;&gt;GGOXX2</title>
<path fill="none" stroke="black" d="M96.33,-207C104.86,-207 113.83,-207 122.6,-207"/>
<polygon fill="black" stroke="black" points="122.77,-210.5 132.77,-207 122.77,-203.5 122.77,-210.5"/>
</g>
<!-- GGGGX2 -->
<g id="node7" class="node">
<title>GGGGX2</title>
<ellipse fill="none" stroke="black" cx="180.94" cy="-153" rx="48.99" ry="18"/>
<text text-anchor="middle" x="180.94" y="-149.3" font-family="Times New Roman,serif" font-size="14.00">GGGGX2</text>
</g>
<!-- XGXOO1&#45;&gt;GGGGX2 -->
<g id="edge6" class="edge">
<title>XGXOO1&#45;&gt;GGGGX2</title>
<path fill="none" stroke="black" d="M81.1,-193.79C98.37,-186.66 119.88,-177.79 138.42,-170.13"/>
<polygon fill="black" stroke="black" points="139.9,-173.31 147.81,-166.26 137.23,-166.84 139.9,-173.31"/>
</g>
<!-- GGGXX2 -->
<g id="node11" class="node">
<title>GGGXX2</title>
<ellipse fill="none" stroke="black" cx="180.94" cy="-72" rx="48.19" ry="18"/>
<text text-anchor="middle" x="180.94" y="-68.3" font-family="Times New Roman,serif" font-size="14.00">GGGXX2</text>
</g>
<!-- XGXOO1&#45;&gt;GGGXX2 -->
<g id="edge10" class="edge">
<title>XGXOO1&#45;&gt;GGGXX2</title>
<path fill="none" stroke="black" d="M65.4,-190.18C88.32,-166.53 130.19,-123.33 156.46,-96.23"/>
<polygon fill="black" stroke="black" points="158.98,-98.65 163.43,-89.04 153.95,-93.78 158.98,-98.65"/>
</g>
<!-- ulcer -->
<g id="node3" class="node">
<title>ulcer</title>
<ellipse fill="none" stroke="black" cx="314.43" cy="-315" rx="28.7" ry="18"/>
<text text-anchor="middle" x="314.43" y="-311.3" font-family="Times New Roman,serif" font-size="14.00">ulcer</text>
</g>
<!-- OGOXX2&#45;&gt;ulcer -->
<g id="edge2" class="edge">
<title>OGOXX2&#45;&gt;ulcer</title>
<path fill="none" stroke="black" d="M229.04,-315C244.34,-315 261.1,-315 275.63,-315"/>
<polygon fill="black" stroke="black" points="275.76,-318.5 285.76,-315 275.76,-311.5 275.76,-318.5"/>
</g>
<!-- clued -->
<g id="node6" class="node">
<title>clued</title>
<ellipse fill="none" stroke="black" cx="314.43" cy="-234" rx="30.59" ry="18"/>
<text text-anchor="middle" x="314.43" y="-230.3" font-family="Times New Roman,serif" font-size="14.00">clued</text>
</g>
<!-- GGOXX2&#45;&gt;clued -->
<g id="edge5" class="edge">
<title>GGOXX2&#45;&gt;clued</title>
<path fill="none" stroke="black" d="M223.54,-215.54C240.08,-218.94 258.99,-222.82 275.18,-226.15"/>
<polygon fill="black" stroke="black" points="274.88,-229.66 285.38,-228.24 276.29,-222.8 274.88,-229.66"/>
</g>
<!-- clear -->
<g id="node8" class="node">
<title>clear</title>
<ellipse fill="none" stroke="black" cx="314.43" cy="-180" rx="27.9" ry="18"/>
<text text-anchor="middle" x="314.43" y="-176.3" font-family="Times New Roman,serif" font-size="14.00">clear</text>
</g>
<!-- GGGGX2&#45;&gt;clear -->
<g id="edge7" class="edge">
<title>GGGGX2&#45;&gt;clear</title>
<path fill="none" stroke="black" d="M223.9,-161.62C241.21,-165.17 261.05,-169.24 277.65,-172.65"/>
<polygon fill="black" stroke="black" points="277.02,-176.1 287.52,-174.68 278.42,-169.24 277.02,-176.1"/>
</g>
<!-- GGGGX3 -->
<g id="node9" class="node">
<title>GGGGX3</title>
<ellipse fill="none" stroke="black" cx="314.43" cy="-126" rx="48.99" ry="18"/>
<text text-anchor="middle" x="314.43" y="-122.3" font-family="Times New Roman,serif" font-size="14.00">GGGGX3</text>
</g>
<!-- GGGGX2&#45;&gt;GGGGX3 -->
<g id="edge8" class="edge">
<title>GGGGX2&#45;&gt;GGGGX3</title>
<path fill="none" stroke="black" d="M223.9,-144.38C235.88,-141.92 249.08,-139.21 261.58,-136.65"/>
<polygon fill="black" stroke="black" points="262.32,-140.07 271.41,-134.63 260.91,-133.21 262.32,-140.07"/>
</g>
<!-- cleat -->
<g id="node10" class="node">
<title>cleat</title>
<ellipse fill="none" stroke="black" cx="427.77" cy="-126" rx="27.1" ry="18"/>
<text text-anchor="middle" x="427.77" y="-122.3" font-family="Times New Roman,serif" font-size="14.00">cleat</text>
</g>
<!-- GGGGX3&#45;&gt;cleat -->
<g id="edge9" class="edge">
<title>GGGGX3&#45;&gt;cleat</title>
<path fill="none" stroke="black" d="M363.29,-126C372.35,-126 381.68,-126 390.31,-126"/>
<polygon fill="black" stroke="black" points="390.42,-129.5 400.42,-126 390.42,-122.5 390.42,-129.5"/>
</g>
<!-- GGGXX3 -->
<g id="node12" class="node">
<title>GGGXX3</title>
<ellipse fill="none" stroke="black" cx="314.43" cy="-72" rx="48.19" ry="18"/>
<text text-anchor="middle" x="314.43" y="-68.3" font-family="Times New Roman,serif" font-size="14.00">GGGXX3</text>
</g>
<!-- GGGXX2&#45;&gt;GGGXX3 -->
<g id="edge11" class="edge">
<title>GGGXX2&#45;&gt;GGGXX3</title>
<path fill="none" stroke="black" d="M229.04,-72C237.82,-72 247.08,-72 256.13,-72"/>
<polygon fill="black" stroke="black" points="256.22,-75.5 266.22,-72 256.22,-68.5 256.22,-75.5"/>
</g>
<!-- cleft -->
<g id="node14" class="node">
<title>cleft</title>
<ellipse fill="none" stroke="black" cx="314.43" cy="-18" rx="27" ry="18"/>
<text text-anchor="middle" x="314.43" y="-14.3" font-family="Times New Roman,serif" font-size="14.00">cleft</text>
</g>
<!-- GGGXX2&#45;&gt;cleft -->
<g id="edge13" class="edge">
<title>GGGXX2&#45;&gt;cleft</title>
<path fill="none" stroke="black" d="M214.1,-58.79C234.62,-50.36 261.1,-39.49 281.56,-31.09"/>
<polygon fill="black" stroke="black" points="283.15,-34.22 291.07,-27.18 280.49,-27.75 283.15,-34.22"/>
</g>
<!-- clerk -->
<g id="node13" class="node">
<title>clerk</title>
<ellipse fill="none" stroke="black" cx="427.77" cy="-72" rx="28.7" ry="18"/>
<text text-anchor="middle" x="427.77" y="-68.3" font-family="Times New Roman,serif" font-size="14.00">clerk</text>
</g>
<!-- GGGXX3&#45;&gt;clerk -->
<g id="edge12" class="edge">
<title>GGGXX3&#45;&gt;clerk</title>
<path fill="none" stroke="black" d="M362.65,-72C371.5,-72 380.64,-72 389.15,-72"/>
<polygon fill="black" stroke="black" points="389.15,-75.5 399.15,-72 389.15,-68.5 389.15,-75.5"/>
</g>
</g>
</svg>
