<?xml version="1.0" encoding="UTF-8" standalone="no"?>
<!DOCTYPE svg PUBLIC "-//W3C//DTD SVG 1.1//EN"
 "http://www.w3.org/Graphics/SVG/1.1/DTD/svg11.dtd">
<!-- Generated by graphviz version 2.50.0 (20211204.2007)
 -->
<!-- Pages: 1 -->
<svg width="596pt" height="962pt"
 viewBox="0.00 0.00 595.97 962.00" xmlns="http://www.w3.org/2000/svg" xmlns:xlink="http://www.w3.org/1999/xlink">
<g id="graph0" class="graph" transform="scale(1 1) rotate(0) translate(4 958)">
<polygon fill="white" stroke="transparent" points="-4,4 -4,-958 591.97,-958 591.97,4 -4,4"/>
<!-- XXGXO1 -->
<g id="node1" class="node">
<title>XXGXO1</title>
<ellipse fill="none" stroke="black" cx="48.1" cy="-369" rx="48.19" ry="18"/>
<text text-anchor="middle" x="48.1" y="-365.3" font-family="Times New Roman,serif" font-size="14.00">XXGXO1</text>
</g>
<!-- XOGXX2 -->
<g id="node2" class="node">
<title>XOGXX2</title>
<ellipse fill="none" stroke="black" cx="180.94" cy="-855" rx="48.19" ry="18"/>
<text text-anchor="middle" x="180.94" y="-851.3" font-family="Times New Roman,serif" font-size="14.00">XOGXX2</text>
</g>
<!-- XXGXO1&#45;&gt;XOGXX2 -->
<g id="edge1" class="edge">
<title>XXGXO1&#45;&gt;XOGXX2</title>
<path fill="none" stroke="black" d="M51.75,-387.05C60.1,-442.04 87.98,-611.94 132.19,-747 141.48,-775.38 155.66,-806.44 166.16,-827.93"/>
<polygon fill="black" stroke="black" points="163.12,-829.68 170.69,-837.09 169.39,-826.58 163.12,-829.68"/>
</g>
<!-- XGGGG2 -->
<g id="node5" class="node">
<title>XGGGG2</title>
<ellipse fill="none" stroke="black" cx="180.94" cy="-720" rx="48.99" ry="18"/>
<text text-anchor="middle" x="180.94" y="-716.3" font-family="Times New Roman,serif" font-size="14.00">XGGGG2</text>
</g>
<!-- XXGXO1&#45;&gt;XGGGG2 -->
<g id="edge4" class="edge">
<title>XXGXO1&#45;&gt;XGGGG2</title>
<path fill="none" stroke="black" d="M52.2,-387.04C60.58,-433.14 86.2,-558.26 132.19,-653 139.32,-667.68 149.6,-682.61 158.79,-694.63"/>
<polygon fill="black" stroke="black" points="156.3,-697.13 165.23,-702.83 161.81,-692.8 156.3,-697.13"/>
</g>
<!-- XGGOO2 -->
<g id="node7" class="node">
<title>XGGOO2</title>
<ellipse fill="none" stroke="black" cx="180.94" cy="-626" rx="48.99" ry="18"/>
<text text-anchor="middle" x="180.94" y="-622.3" font-family="Times New Roman,serif" font-size="14.00">XGGOO2</text>
</g>
<!-- XXGXO1&#45;&gt;XGGOO2 -->
<g id="edge6" class="edge">
<title>XXGXO1&#45;&gt;XGGOO2</title>
<path fill="none" stroke="black" d="M55.64,-387.02C68.4,-421.31 98.32,-497.89 132.19,-558 140.48,-572.7 151.16,-588.17 160.32,-600.63"/>
<polygon fill="black" stroke="black" points="157.59,-602.82 166.37,-608.73 163.19,-598.63 157.59,-602.82"/>
</g>
<!-- OOGXX2 -->
<g id="node9" class="node">
<title>OOGXX2</title>
<ellipse fill="none" stroke="black" cx="180.94" cy="-531" rx="48.19" ry="18"/>
<text text-anchor="middle" x="180.94" y="-527.3" font-family="Times New Roman,serif" font-size="14.00">OOGXX2</text>
</g>
<!-- XXGXO1&#45;&gt;OOGXX2 -->
<g id="edge8" class="edge">
<title>XXGXO1&#45;&gt;OOGXX2</title>
<path fill="none" stroke="black" d="M61.98,-386.49C78.02,-408.09 106.44,-445.8 132.19,-477 140.2,-486.7 149.28,-497.12 157.36,-506.18"/>
<polygon fill="black" stroke="black" points="154.87,-508.64 164.15,-513.75 160.08,-503.97 154.87,-508.64"/>
</g>
<!-- XOGOX2 -->
<g id="node15" class="node">
<title>XOGOX2</title>
<ellipse fill="none" stroke="black" cx="180.94" cy="-450" rx="48.19" ry="18"/>
<text text-anchor="middle" x="180.94" y="-446.3" font-family="Times New Roman,serif" font-size="14.00">XOGOX2</text>
</g>
<!-- XXGXO1&#45;&gt;XOGOX2 -->
<g id="edge14" class="edge">
<title>XXGXO1&#45;&gt;XOGOX2</title>
<path fill="none" stroke="black" d="M72.49,-384.75C89.01,-395.74 111.75,-410.59 132.19,-423 136.05,-425.34 140.12,-427.74 144.18,-430.1"/>
<polygon fill="black" stroke="black" points="142.58,-433.22 153,-435.15 146.06,-427.14 142.58,-433.22"/>
</g>
<!-- GGGXX2 -->
<g id="node19" class="node">
<title>GGGXX2</title>
<ellipse fill="none" stroke="black" cx="180.94" cy="-396" rx="48.19" ry="18"/>
<text text-anchor="middle" x="180.94" y="-392.3" font-family="Times New Roman,serif" font-size="14.00">GGGXX2</text>
</g>
<!-- XXGXO1&#45;&gt;GGGXX2 -->
<g id="edge18" class="edge">
<title>XXGXO1&#45;&gt;GGGXX2</title>
<path fill="none" stroke="black" d="M90.49,-377.54C102.55,-380.03 115.86,-382.78 128.45,-385.38"/>
<polygon fill="black" stroke="black" points="127.86,-388.83 138.36,-387.42 129.27,-381.97 127.86,-388.83"/>
</g>
<!-- deign -->
<g id="node21" class="node">
<title>deign</title>
<ellipse fill="none" stroke="black" cx="180.94" cy="-342" rx="30.59" ry="18"/>
<text text-anchor="middle" x="180.94" y="-338.3" font-family="Times New Roman,serif" font-size="14.00">deign</text>
</g>
<!-- XXGXO1&#45;&gt;deign -->
<g id="edge20" class="edge">
<title>XXGXO1&#45;&gt;deign</title>
<path fill="none" stroke="black" d="M90.49,-360.46C106.83,-357.09 125.49,-353.24 141.52,-349.93"/>
<polygon fill="black" stroke="black" points="142.54,-353.29 151.63,-347.84 141.13,-346.44 142.54,-353.29"/>
</g>
<!-- GOGXX2 -->
<g id="node23" class="node">
<title>GOGXX2</title>
<ellipse fill="none" stroke="black" cx="180.94" cy="-288" rx="48.19" ry="18"/>
<text text-anchor="middle" x="180.94" y="-284.3" font-family="Times New Roman,serif" font-size="14.00">GOGXX2</text>
</g>
<!-- XXGXO1&#45;&gt;GOGXX2 -->
<g id="edge22" class="edge">
<title>XXGXO1&#45;&gt;GOGXX2</title>
<path fill="none" stroke="black" d="M72.49,-353.25C89.01,-342.26 111.75,-327.41 132.19,-315 136.05,-312.66 140.12,-310.26 144.18,-307.9"/>
<polygon fill="black" stroke="black" points="146.06,-310.86 153,-302.85 142.58,-304.78 146.06,-310.86"/>
</g>
<!-- XGGGO2 -->
<g id="node26" class="node">
<title>XGGGO2</title>
<ellipse fill="none" stroke="black" cx="180.94" cy="-234" rx="48.99" ry="18"/>
<text text-anchor="middle" x="180.94" y="-230.3" font-family="Times New Roman,serif" font-size="14.00">XGGGO2</text>
</g>
<!-- XXGXO1&#45;&gt;XGGGO2 -->
<g id="edge25" class="edge">
<title>XXGXO1&#45;&gt;XGGGO2</title>
<path fill="none" stroke="black" d="M59.64,-351.16C73.89,-328.18 101.1,-287.98 132.19,-261 135.18,-258.41 138.46,-255.94 141.85,-253.64"/>
<polygon fill="black" stroke="black" points="143.83,-256.53 150.42,-248.24 140.1,-250.6 143.83,-256.53"/>
</g>
<!-- OGGXX2 -->
<g id="node28" class="node">
<title>OGGXX2</title>
<ellipse fill="none" stroke="black" cx="180.94" cy="-180" rx="48.19" ry="18"/>
<text text-anchor="middle" x="180.94" y="-176.3" font-family="Times New Roman,serif" font-size="14.00">OGGXX2</text>
</g>
<!-- XXGXO1&#45;&gt;OGGXX2 -->
<g id="edge27" class="edge">
<title>XXGXO1&#45;&gt;OGGXX2</title>
<path fill="none" stroke="black" d="M54.44,-351.14C64.84,-318.93 90.49,-250.44 132.19,-207 134.78,-204.3 137.71,-201.79 140.8,-199.48"/>
<polygon fill="black" stroke="black" points="142.88,-202.3 149.25,-193.83 138.99,-196.48 142.88,-202.3"/>
</g>
<!-- XGGGX2 -->
<g id="node32" class="node">
<title>XGGGX2</title>
<ellipse fill="none" stroke="black" cx="180.94" cy="-126" rx="48.19" ry="18"/>
<text text-anchor="middle" x="180.94" y="-122.3" font-family="Times New Roman,serif" font-size="14.00">XGGGX2</text>
</g>
<!-- XXGXO1&#45;&gt;XGGGX2 -->
<g id="edge31" class="edge">
<title>XXGXO1&#45;&gt;XGGGX2</title>
<path fill="none" stroke="black" d="M51.8,-350.95C58.62,-310.97 79.84,-213.7 132.19,-153 134.64,-150.17 137.46,-147.56 140.48,-145.19"/>
<polygon fill="black" stroke="black" points="142.58,-148 148.83,-139.44 138.61,-142.23 142.58,-148"/>
</g>
<!-- XOGOO2 -->
<g id="node36" class="node">
<title>XOGOO2</title>
<ellipse fill="none" stroke="black" cx="180.94" cy="-72" rx="48.99" ry="18"/>
<text text-anchor="middle" x="180.94" y="-68.3" font-family="Times New Roman,serif" font-size="14.00">XOGOO2</text>
</g>
<!-- XXGXO1&#45;&gt;XOGOO2 -->
<g id="edge35" class="edge">
<title>XXGXO1&#45;&gt;XOGOO2</title>
<path fill="none" stroke="black" d="M50.15,-350.79C53.73,-303.97 69.03,-177.54 132.19,-99 134.41,-96.25 136.98,-93.72 139.77,-91.42"/>
<polygon fill="black" stroke="black" points="141.95,-94.17 148.06,-85.51 137.88,-88.47 141.95,-94.17"/>
</g>
<!-- XXGGX3 -->
<g id="node3" class="node">
<title>XXGGX3</title>
<ellipse fill="none" stroke="black" cx="315.08" cy="-936" rx="48.19" ry="18"/>
<text text-anchor="middle" x="315.08" y="-932.3" font-family="Times New Roman,serif" font-size="14.00">XXGGX3</text>
</g>
<!-- XOGXX2&#45;&gt;XXGGX3 -->
<g id="edge2" class="edge">
<title>XOGXX2&#45;&gt;XXGGX3</title>
<path fill="none" stroke="black" d="M205.51,-870.77C222.15,-881.76 245.07,-896.62 265.68,-909 269.64,-911.38 273.82,-913.81 277.99,-916.2"/>
<polygon fill="black" stroke="black" points="276.6,-919.43 287.03,-921.31 280.04,-913.34 276.6,-919.43"/>
</g>
<!-- XXGGG3 -->
<g id="node17" class="node">
<title>XXGGG3</title>
<ellipse fill="none" stroke="black" cx="315.08" cy="-882" rx="48.19" ry="18"/>
<text text-anchor="middle" x="315.08" y="-878.3" font-family="Times New Roman,serif" font-size="14.00">XXGGG3</text>
</g>
<!-- XOGXX2&#45;&gt;XXGGG3 -->
<g id="edge16" class="edge">
<title>XOGXX2&#45;&gt;XXGGG3</title>
<path fill="none" stroke="black" d="M223.38,-863.47C235.69,-865.98 249.32,-868.77 262.2,-871.4"/>
<polygon fill="black" stroke="black" points="261.83,-874.9 272.32,-873.47 263.23,-868.04 261.83,-874.9"/>
</g>
<!-- brief -->
<g id="node22" class="node">
<title>brief</title>
<ellipse fill="none" stroke="black" cx="315.08" cy="-828" rx="27.1" ry="18"/>
<text text-anchor="middle" x="315.08" y="-824.3" font-family="Times New Roman,serif" font-size="14.00">brief</text>
</g>
<!-- XOGXX2&#45;&gt;brief -->
<g id="edge21" class="edge">
<title>XOGXX2&#45;&gt;brief</title>
<path fill="none" stroke="black" d="M223.38,-846.53C241.06,-842.92 261.48,-838.75 278.46,-835.28"/>
<polygon fill="black" stroke="black" points="279.44,-838.65 288.54,-833.22 278.04,-831.79 279.44,-838.65"/>
</g>
<!-- quiet -->
<g id="node4" class="node">
<title>quiet</title>
<ellipse fill="none" stroke="black" cx="449.22" cy="-936" rx="28.7" ry="18"/>
<text text-anchor="middle" x="449.22" y="-932.3" font-family="Times New Roman,serif" font-size="14.00">quiet</text>
</g>
<!-- XXGGX3&#45;&gt;quiet -->
<g id="edge3" class="edge">
<title>XXGGX3&#45;&gt;quiet</title>
<path fill="none" stroke="black" d="M363.41,-936C378.79,-936 395.64,-936 410.24,-936"/>
<polygon fill="black" stroke="black" points="410.42,-939.5 420.42,-936 410.42,-932.5 410.42,-939.5"/>
</g>
<!-- feign -->
<g id="node6" class="node">
<title>feign</title>
<ellipse fill="none" stroke="black" cx="315.08" cy="-774" rx="28.7" ry="18"/>
<text text-anchor="middle" x="315.08" y="-770.3" font-family="Times New Roman,serif" font-size="14.00">feign</text>
</g>
<!-- XGGGG2&#45;&gt;feign -->
<g id="edge5" class="edge">
<title>XGGGG2&#45;&gt;feign</title>
<path fill="none" stroke="black" d="M214.26,-733.21C234.62,-741.53 260.81,-752.23 281.26,-760.59"/>
<polygon fill="black" stroke="black" points="280.21,-763.94 290.79,-764.48 282.86,-757.46 280.21,-763.94"/>
</g>
<!-- XGGGG3 -->
<g id="node13" class="node">
<title>XGGGG3</title>
<ellipse fill="none" stroke="black" cx="315.08" cy="-720" rx="48.99" ry="18"/>
<text text-anchor="middle" x="315.08" y="-716.3" font-family="Times New Roman,serif" font-size="14.00">XGGGG3</text>
</g>
<!-- XGGGG2&#45;&gt;XGGGG3 -->
<g id="edge12" class="edge">
<title>XGGGG2&#45;&gt;XGGGG3</title>
<path fill="none" stroke="black" d="M230.02,-720C238.5,-720 247.42,-720 256.14,-720"/>
<polygon fill="black" stroke="black" points="256.26,-723.5 266.26,-720 256.26,-716.5 256.26,-723.5"/>
</g>
<!-- being -->
<g id="node8" class="node">
<title>being</title>
<ellipse fill="none" stroke="black" cx="315.08" cy="-666" rx="30.59" ry="18"/>
<text text-anchor="middle" x="315.08" y="-662.3" font-family="Times New Roman,serif" font-size="14.00">being</text>
</g>
<!-- XGGOO2&#45;&gt;being -->
<g id="edge7" class="edge">
<title>XGGOO2&#45;&gt;being</title>
<path fill="none" stroke="black" d="M219.1,-637.25C237.52,-642.82 259.67,-649.53 277.95,-655.06"/>
<polygon fill="black" stroke="black" points="277.07,-658.46 287.66,-658 279.1,-651.76 277.07,-658.46"/>
</g>
<!-- edify -->
<g id="node10" class="node">
<title>edify</title>
<ellipse fill="none" stroke="black" cx="315.08" cy="-612" rx="28.7" ry="18"/>
<text text-anchor="middle" x="315.08" y="-608.3" font-family="Times New Roman,serif" font-size="14.00">edify</text>
</g>
<!-- OOGXX2&#45;&gt;edify -->
<g id="edge9" class="edge">
<title>OOGXX2&#45;&gt;edify</title>
<path fill="none" stroke="black" d="M205.51,-546.77C222.15,-557.76 245.07,-572.62 265.68,-585 271.42,-588.45 277.61,-592.01 283.59,-595.38"/>
<polygon fill="black" stroke="black" points="282.27,-598.65 292.71,-600.46 285.68,-592.54 282.27,-598.65"/>
</g>
<!-- OOGXX3 -->
<g id="node11" class="node">
<title>OOGXX3</title>
<ellipse fill="none" stroke="black" cx="315.08" cy="-558" rx="48.19" ry="18"/>
<text text-anchor="middle" x="315.08" y="-554.3" font-family="Times New Roman,serif" font-size="14.00">OOGXX3</text>
</g>
<!-- OOGXX2&#45;&gt;OOGXX3 -->
<g id="edge10" class="edge">
<title>OOGXX2&#45;&gt;OOGXX3</title>
<path fill="none" stroke="black" d="M223.38,-539.47C235.69,-541.98 249.32,-544.77 262.2,-547.4"/>
<polygon fill="black" stroke="black" points="261.83,-550.9 272.32,-549.47 263.23,-544.04 261.83,-550.9"/>
</g>
<!-- OOGOX3 -->
<g id="node34" class="node">
<title>OOGOX3</title>
<ellipse fill="none" stroke="black" cx="315.08" cy="-504" rx="48.99" ry="18"/>
<text text-anchor="middle" x="315.08" y="-500.3" font-family="Times New Roman,serif" font-size="14.00">OOGOX3</text>
</g>
<!-- OOGXX2&#45;&gt;OOGOX3 -->
<g id="edge33" class="edge">
<title>OOGXX2&#45;&gt;OOGOX3</title>
<path fill="none" stroke="black" d="M223.38,-522.53C235.57,-520.04 249.06,-517.29 261.82,-514.68"/>
<polygon fill="black" stroke="black" points="262.77,-518.06 271.87,-512.62 261.37,-511.2 262.77,-518.06"/>
</g>
<!-- pried -->
<g id="node12" class="node">
<title>pried</title>
<ellipse fill="none" stroke="black" cx="449.22" cy="-612" rx="29.5" ry="18"/>
<text text-anchor="middle" x="449.22" y="-608.3" font-family="Times New Roman,serif" font-size="14.00">pried</text>
</g>
<!-- OOGXX3&#45;&gt;pried -->
<g id="edge11" class="edge">
<title>OOGXX3&#45;&gt;pried</title>
<path fill="none" stroke="black" d="M348.4,-571.21C368.63,-579.47 394.62,-590.1 415.01,-598.43"/>
<polygon fill="black" stroke="black" points="413.94,-601.77 424.52,-602.31 416.58,-595.29 413.94,-601.77"/>
</g>
<!-- XGGGG4 -->
<g id="node30" class="node">
<title>XGGGG4</title>
<ellipse fill="none" stroke="black" cx="449.22" cy="-558" rx="48.99" ry="18"/>
<text text-anchor="middle" x="449.22" y="-554.3" font-family="Times New Roman,serif" font-size="14.00">XGGGG4</text>
</g>
<!-- OOGXX3&#45;&gt;XGGGG4 -->
<g id="edge29" class="edge">
<title>OOGXX3&#45;&gt;XGGGG4</title>
<path fill="none" stroke="black" d="M363.41,-558C372.13,-558 381.32,-558 390.31,-558"/>
<polygon fill="black" stroke="black" points="390.33,-561.5 400.33,-558 390.33,-554.5 390.33,-561.5"/>
</g>
<!-- reign -->
<g id="node14" class="node">
<title>reign</title>
<ellipse fill="none" stroke="black" cx="449.22" cy="-720" rx="28.7" ry="18"/>
<text text-anchor="middle" x="449.22" y="-716.3" font-family="Times New Roman,serif" font-size="14.00">reign</text>
</g>
<!-- XGGGG3&#45;&gt;reign -->
<g id="edge13" class="edge">
<title>XGGGG3&#45;&gt;reign</title>
<path fill="none" stroke="black" d="M364.16,-720C379.36,-720 395.94,-720 410.32,-720"/>
<polygon fill="black" stroke="black" points="410.36,-723.5 420.36,-720 410.36,-716.5 410.36,-723.5"/>
</g>
<!-- grief -->
<g id="node16" class="node">
<title>grief</title>
<ellipse fill="none" stroke="black" cx="315.08" cy="-450" rx="27" ry="18"/>
<text text-anchor="middle" x="315.08" y="-446.3" font-family="Times New Roman,serif" font-size="14.00">grief</text>
</g>
<!-- XOGOX2&#45;&gt;grief -->
<g id="edge15" class="edge">
<title>XOGOX2&#45;&gt;grief</title>
<path fill="none" stroke="black" d="M229.27,-450C245.12,-450 262.54,-450 277.45,-450"/>
<polygon fill="black" stroke="black" points="277.8,-453.5 287.8,-450 277.8,-446.5 277.8,-453.5"/>
</g>
<!-- thief -->
<g id="node18" class="node">
<title>thief</title>
<ellipse fill="none" stroke="black" cx="449.22" cy="-882" rx="27" ry="18"/>
<text text-anchor="middle" x="449.22" y="-878.3" font-family="Times New Roman,serif" font-size="14.00">thief</text>
</g>
<!-- XXGGG3&#45;&gt;thief -->
<g id="edge17" class="edge">
<title>XXGGG3&#45;&gt;thief</title>
<path fill="none" stroke="black" d="M363.41,-882C379.26,-882 396.68,-882 411.59,-882"/>
<polygon fill="black" stroke="black" points="411.94,-885.5 421.94,-882 411.94,-878.5 411.94,-885.5"/>
</g>
<!-- deity -->
<g id="node20" class="node">
<title>deity</title>
<ellipse fill="none" stroke="black" cx="315.08" cy="-396" rx="28.7" ry="18"/>
<text text-anchor="middle" x="315.08" y="-392.3" font-family="Times New Roman,serif" font-size="14.00">deity</text>
</g>
<!-- GGGXX2&#45;&gt;deity -->
<g id="edge19" class="edge">
<title>GGGXX2&#45;&gt;deity</title>
<path fill="none" stroke="black" d="M229.27,-396C244.64,-396 261.5,-396 276.1,-396"/>
<polygon fill="black" stroke="black" points="276.28,-399.5 286.28,-396 276.28,-392.5 276.28,-399.5"/>
</g>
<!-- GGGGO3 -->
<g id="node24" class="node">
<title>GGGGO3</title>
<ellipse fill="none" stroke="black" cx="315.08" cy="-342" rx="49.29" ry="18"/>
<text text-anchor="middle" x="315.08" y="-338.3" font-family="Times New Roman,serif" font-size="14.00">GGGGO3</text>
</g>
<!-- GOGXX2&#45;&gt;GGGGO3 -->
<g id="edge23" class="edge">
<title>GOGXX2&#45;&gt;GGGGO3</title>
<path fill="none" stroke="black" d="M214.26,-301.21C231.7,-308.34 253.42,-317.21 272.15,-324.87"/>
<polygon fill="black" stroke="black" points="271.05,-328.2 281.63,-328.74 273.7,-321.72 271.05,-328.2"/>
</g>
<!-- dried -->
<g id="node38" class="node">
<title>dried</title>
<ellipse fill="none" stroke="black" cx="315.08" cy="-288" rx="29.5" ry="18"/>
<text text-anchor="middle" x="315.08" y="-284.3" font-family="Times New Roman,serif" font-size="14.00">dried</text>
</g>
<!-- GOGXX2&#45;&gt;dried -->
<g id="edge37" class="edge">
<title>GOGXX2&#45;&gt;dried</title>
<path fill="none" stroke="black" d="M229.27,-288C244.41,-288 260.97,-288 275.42,-288"/>
<polygon fill="black" stroke="black" points="275.51,-291.5 285.51,-288 275.51,-284.5 275.51,-291.5"/>
</g>
<!-- drier -->
<g id="node25" class="node">
<title>drier</title>
<ellipse fill="none" stroke="black" cx="449.22" cy="-342" rx="27.1" ry="18"/>
<text text-anchor="middle" x="449.22" y="-338.3" font-family="Times New Roman,serif" font-size="14.00">drier</text>
</g>
<!-- GGGGO3&#45;&gt;drier -->
<g id="edge24" class="edge">
<title>GGGGO3&#45;&gt;drier</title>
<path fill="none" stroke="black" d="M364.53,-342C380.06,-342 396.99,-342 411.54,-342"/>
<polygon fill="black" stroke="black" points="411.65,-345.5 421.65,-342 411.65,-338.5 411.65,-345.5"/>
</g>
<!-- neigh -->
<g id="node27" class="node">
<title>neigh</title>
<ellipse fill="none" stroke="black" cx="315.08" cy="-234" rx="29.8" ry="18"/>
<text text-anchor="middle" x="315.08" y="-230.3" font-family="Times New Roman,serif" font-size="14.00">neigh</text>
</g>
<!-- XGGGO2&#45;&gt;neigh -->
<g id="edge26" class="edge">
<title>XGGGO2&#45;&gt;neigh</title>
<path fill="none" stroke="black" d="M230.02,-234C244.72,-234 260.71,-234 274.75,-234"/>
<polygon fill="black" stroke="black" points="275.06,-237.5 285.06,-234 275.06,-230.5 275.06,-237.5"/>
</g>
<!-- weird -->
<g id="node29" class="node">
<title>weird</title>
<ellipse fill="none" stroke="black" cx="315.08" cy="-180" rx="30.59" ry="18"/>
<text text-anchor="middle" x="315.08" y="-176.3" font-family="Times New Roman,serif" font-size="14.00">weird</text>
</g>
<!-- OGGXX2&#45;&gt;weird -->
<g id="edge28" class="edge">
<title>OGGXX2&#45;&gt;weird</title>
<path fill="none" stroke="black" d="M229.27,-180C243.91,-180 259.88,-180 273.97,-180"/>
<polygon fill="black" stroke="black" points="274.34,-183.5 284.34,-180 274.34,-176.5 274.34,-183.5"/>
</g>
<!-- tried -->
<g id="node31" class="node">
<title>tried</title>
<ellipse fill="none" stroke="black" cx="560.97" cy="-558" rx="27" ry="18"/>
<text text-anchor="middle" x="560.97" y="-554.3" font-family="Times New Roman,serif" font-size="14.00">tried</text>
</g>
<!-- XGGGG4&#45;&gt;tried -->
<g id="edge30" class="edge">
<title>XGGGG4&#45;&gt;tried</title>
<path fill="none" stroke="black" d="M498.04,-558C506.65,-558 515.49,-558 523.71,-558"/>
<polygon fill="black" stroke="black" points="523.71,-561.5 533.71,-558 523.71,-554.5 523.71,-561.5"/>
</g>
<!-- weigh -->
<g id="node33" class="node">
<title>weigh</title>
<ellipse fill="none" stroke="black" cx="315.08" cy="-126" rx="31.7" ry="18"/>
<text text-anchor="middle" x="315.08" y="-122.3" font-family="Times New Roman,serif" font-size="14.00">weigh</text>
</g>
<!-- XGGGX2&#45;&gt;weigh -->
<g id="edge32" class="edge">
<title>XGGGX2&#45;&gt;weigh</title>
<path fill="none" stroke="black" d="M229.27,-126C243.55,-126 259.11,-126 272.95,-126"/>
<polygon fill="black" stroke="black" points="273.15,-129.5 283.15,-126 273.15,-122.5 273.15,-129.5"/>
</g>
<!-- fried -->
<g id="node35" class="node">
<title>fried</title>
<ellipse fill="none" stroke="black" cx="449.22" cy="-504" rx="27.1" ry="18"/>
<text text-anchor="middle" x="449.22" y="-500.3" font-family="Times New Roman,serif" font-size="14.00">fried</text>
</g>
<!-- OOGOX3&#45;&gt;fried -->
<g id="edge34" class="edge">
<title>OOGOX3&#45;&gt;fried</title>
<path fill="none" stroke="black" d="M364.16,-504C379.83,-504 396.97,-504 411.66,-504"/>
<polygon fill="black" stroke="black" points="411.87,-507.5 421.87,-504 411.87,-500.5 411.87,-507.5"/>
</g>
<!-- eking -->
<g id="node37" class="node">
<title>eking</title>
<ellipse fill="none" stroke="black" cx="315.08" cy="-72" rx="29.8" ry="18"/>
<text text-anchor="middle" x="315.08" y="-68.3" font-family="Times New Roman,serif" font-size="14.00">eking</text>
</g>
<!-- XOGOO2&#45;&gt;eking -->
<g id="edge36" class="edge">
<title>XOGOO2&#45;&gt;eking</title>
<path fill="none" stroke="black" d="M230.02,-72C244.72,-72 260.71,-72 274.75,-72"/>
<polygon fill="black" stroke="black" points="275.06,-75.5 285.06,-72 275.06,-68.5 275.06,-75.5"/>
</g>
<!-- GXGGG3 -->
<g id="node39" class="node">
<title>GXGGG3</title>
<ellipse fill="none" stroke="black" cx="315.08" cy="-18" rx="48.99" ry="18"/>
<text text-anchor="middle" x="315.08" y="-14.3" font-family="Times New Roman,serif" font-size="14.00">GXGGG3</text>
</g>
<!-- XOGOO2&#45;&gt;GXGGG3 -->
<g id="edge38" class="edge">
<title>XOGOO2&#45;&gt;GXGGG3</title>
<path fill="none" stroke="black" d="M214.26,-58.79C231.7,-51.66 253.42,-42.79 272.15,-35.13"/>
<polygon fill="black" stroke="black" points="273.7,-38.28 281.63,-31.26 271.05,-31.8 273.7,-38.28"/>
</g>
<!-- eying -->
<g id="node40" class="node">
<title>eying</title>
<ellipse fill="none" stroke="black" cx="449.22" cy="-18" rx="29.8" ry="18"/>
<text text-anchor="middle" x="449.22" y="-14.3" font-family="Times New Roman,serif" font-size="14.00">eying</text>
</g>
<!-- GXGGG3&#45;&gt;eying -->
<g id="edge39" class="edge">
<title>GXGGG3&#45;&gt;eying</title>
<path fill="none" stroke="black" d="M364.16,-18C378.86,-18 394.85,-18 408.89,-18"/>
<polygon fill="black" stroke="black" points="409.2,-21.5 419.2,-18 409.2,-14.5 409.2,-21.5"/>
</g>
</g>
</svg>
