<?xml version="1.0" encoding="UTF-8" standalone="no"?>
<!DOCTYPE svg PUBLIC "-//W3C//DTD SVG 1.1//EN"
 "http://www.w3.org/Graphics/SVG/1.1/DTD/svg11.dtd">
<!-- Generated by graphviz version 2.50.0 (20211204.2007)
 -->
<!-- Pages: 1 -->
<svg width="471pt" height="314pt"
 viewBox="0.00 0.00 470.87 314.00" xmlns="http://www.w3.org/2000/svg" xmlns:xlink="http://www.w3.org/1999/xlink">
<g id="graph0" class="graph" transform="scale(1 1) rotate(0) translate(4 310)">
<polygon fill="white" stroke="transparent" points="-4,4 -4,-310 466.87,-310 466.87,4 -4,4"/>
<!-- GXXOG1 -->
<g id="node1" class="node">
<title>GXXOG1</title>
<ellipse fill="none" stroke="black" cx="48.1" cy="-153" rx="48.19" ry="18"/>
<text text-anchor="middle" x="48.1" y="-149.3" font-family="Times New Roman,serif" font-size="14.00">GXXOG1</text>
</g>
<!-- OXXGG2 -->
<g id="node2" class="node">
<title>OXXGG2</title>
<ellipse fill="none" stroke="black" cx="180.29" cy="-281" rx="48.19" ry="18"/>
<text text-anchor="middle" x="180.29" y="-277.3" font-family="Times New Roman,serif" font-size="14.00">OXXGG2</text>
</g>
<!-- GXXOG1&#45;&gt;OXXGG2 -->
<g id="edge1" class="edge">
<title>GXXOG1&#45;&gt;OXXGG2</title>
<path fill="none" stroke="black" d="M62.47,-170.33C78.09,-190.02 105.23,-222.58 132.19,-247 136.9,-251.27 142.14,-255.49 147.37,-259.44"/>
<polygon fill="black" stroke="black" points="145.36,-262.3 155.5,-265.37 149.49,-256.65 145.36,-262.3"/>
</g>
<!-- XXGGG2 -->
<g id="node4" class="node">
<title>XXGGG2</title>
<ellipse fill="none" stroke="black" cx="180.29" cy="-220" rx="48.19" ry="18"/>
<text text-anchor="middle" x="180.29" y="-216.3" font-family="Times New Roman,serif" font-size="14.00">XXGGG2</text>
</g>
<!-- GXXOG1&#45;&gt;XXGGG2 -->
<g id="edge3" class="edge">
<title>GXXOG1&#45;&gt;XXGGG2</title>
<path fill="none" stroke="black" d="M77.35,-167.54C96.28,-177.28 121.42,-190.22 142,-200.81"/>
<polygon fill="black" stroke="black" points="140.6,-204.03 151.09,-205.49 143.8,-197.8 140.6,-204.03"/>
</g>
<!-- XXGXG2 -->
<g id="node6" class="node">
<title>XXGXG2</title>
<ellipse fill="none" stroke="black" cx="180.29" cy="-153" rx="48.19" ry="18"/>
<text text-anchor="middle" x="180.29" y="-149.3" font-family="Times New Roman,serif" font-size="14.00">XXGXG2</text>
</g>
<!-- GXXOG1&#45;&gt;XXGXG2 -->
<g id="edge5" class="edge">
<title>GXXOG1&#45;&gt;XXGXG2</title>
<path fill="none" stroke="black" d="M96.47,-153C104.74,-153 113.42,-153 121.92,-153"/>
<polygon fill="black" stroke="black" points="122.17,-156.5 132.17,-153 122.17,-149.5 122.17,-156.5"/>
</g>
<!-- XXXXG2 -->
<g id="node10" class="node">
<title>XXXXG2</title>
<ellipse fill="none" stroke="black" cx="180.29" cy="-99" rx="47.39" ry="18"/>
<text text-anchor="middle" x="180.29" y="-95.3" font-family="Times New Roman,serif" font-size="14.00">XXXXG2</text>
</g>
<!-- GXXOG1&#45;&gt;XXXXG2 -->
<g id="edge9" class="edge">
<title>GXXOG1&#45;&gt;XXXXG2</title>
<path fill="none" stroke="black" d="M80.94,-139.79C98.12,-132.66 119.53,-123.79 137.98,-116.13"/>
<polygon fill="black" stroke="black" points="139.42,-119.32 147.32,-112.26 136.74,-112.86 139.42,-119.32"/>
</g>
<!-- XXXOG2 -->
<g id="node12" class="node">
<title>XXXOG2</title>
<ellipse fill="none" stroke="black" cx="180.29" cy="-45" rx="48.19" ry="18"/>
<text text-anchor="middle" x="180.29" y="-41.3" font-family="Times New Roman,serif" font-size="14.00">XXXOG2</text>
</g>
<!-- GXXOG1&#45;&gt;XXXOG2 -->
<g id="edge11" class="edge">
<title>GXXOG1&#45;&gt;XXXOG2</title>
<path fill="none" stroke="black" d="M64.24,-135.89C80.11,-118.54 106.3,-91.54 132.19,-72 135.4,-69.58 138.85,-67.21 142.36,-64.95"/>
<polygon fill="black" stroke="black" points="144.44,-67.78 151.15,-59.58 140.8,-61.81 144.44,-67.78"/>
</g>
<!-- scare -->
<g id="node3" class="node">
<title>scare</title>
<ellipse fill="none" stroke="black" cx="313.13" cy="-288" rx="29.8" ry="18"/>
<text text-anchor="middle" x="313.13" y="-284.3" font-family="Times New Roman,serif" font-size="14.00">scare</text>
</g>
<!-- OXXGG2&#45;&gt;scare -->
<g id="edge2" class="edge">
<title>OXXGG2&#45;&gt;scare</title>
<path fill="none" stroke="black" d="M228.15,-283.51C242.76,-284.29 258.72,-285.14 272.76,-285.89"/>
<polygon fill="black" stroke="black" points="272.89,-289.41 283.07,-286.45 273.27,-282.42 272.89,-289.41"/>
</g>
<!-- score -->
<g id="node5" class="node">
<title>score</title>
<ellipse fill="none" stroke="black" cx="313.13" cy="-234" rx="30.59" ry="18"/>
<text text-anchor="middle" x="313.13" y="-230.3" font-family="Times New Roman,serif" font-size="14.00">score</text>
</g>
<!-- XXGGG2&#45;&gt;score -->
<g id="edge4" class="edge">
<title>XXGGG2&#45;&gt;score</title>
<path fill="none" stroke="black" d="M226.68,-224.86C241.65,-226.46 258.16,-228.23 272.65,-229.78"/>
<polygon fill="black" stroke="black" points="272.48,-233.28 282.79,-230.86 273.22,-226.32 272.48,-233.28"/>
</g>
<!-- GGGXG3 -->
<g id="node7" class="node">
<title>GGGXG3</title>
<ellipse fill="none" stroke="black" cx="313.13" cy="-180" rx="48.99" ry="18"/>
<text text-anchor="middle" x="313.13" y="-176.3" font-family="Times New Roman,serif" font-size="14.00">GGGXG3</text>
</g>
<!-- XXGXG2&#45;&gt;GGGXG3 -->
<g id="edge6" class="edge">
<title>XXGXG2&#45;&gt;GGGXG3</title>
<path fill="none" stroke="black" d="M222.69,-161.54C234.62,-164.01 247.79,-166.72 260.27,-169.3"/>
<polygon fill="black" stroke="black" points="259.6,-172.73 270.1,-171.33 261.01,-165.88 259.6,-172.73"/>
</g>
<!-- scone -->
<g id="node9" class="node">
<title>scone</title>
<ellipse fill="none" stroke="black" cx="313.13" cy="-126" rx="32.49" ry="18"/>
<text text-anchor="middle" x="313.13" y="-122.3" font-family="Times New Roman,serif" font-size="14.00">scone</text>
</g>
<!-- XXGXG2&#45;&gt;scone -->
<g id="edge8" class="edge">
<title>XXGXG2&#45;&gt;scone</title>
<path fill="none" stroke="black" d="M222.69,-144.46C238.53,-141.19 256.56,-137.47 272.26,-134.23"/>
<polygon fill="black" stroke="black" points="273.11,-137.63 282.19,-132.18 271.69,-130.77 273.11,-137.63"/>
</g>
<!-- scope -->
<g id="node8" class="node">
<title>scope</title>
<ellipse fill="none" stroke="black" cx="430.37" cy="-180" rx="32.49" ry="18"/>
<text text-anchor="middle" x="430.37" y="-176.3" font-family="Times New Roman,serif" font-size="14.00">scope</text>
</g>
<!-- GGGXG3&#45;&gt;scope -->
<g id="edge7" class="edge">
<title>GGGXG3&#45;&gt;scope</title>
<path fill="none" stroke="black" d="M362,-180C370.44,-180 379.16,-180 387.42,-180"/>
<polygon fill="black" stroke="black" points="387.57,-183.5 397.57,-180 387.57,-176.5 387.57,-183.5"/>
</g>
<!-- scene -->
<g id="node11" class="node">
<title>scene</title>
<ellipse fill="none" stroke="black" cx="313.13" cy="-72" rx="31.4" ry="18"/>
<text text-anchor="middle" x="313.13" y="-68.3" font-family="Times New Roman,serif" font-size="14.00">scene</text>
</g>
<!-- XXXXG2&#45;&gt;scene -->
<g id="edge10" class="edge">
<title>XXXXG2&#45;&gt;scene</title>
<path fill="none" stroke="black" d="M222.33,-90.53C238.56,-87.18 257.12,-83.35 273.15,-80.04"/>
<polygon fill="black" stroke="black" points="274.17,-83.41 283.26,-77.96 272.76,-76.55 274.17,-83.41"/>
</g>
<!-- scree -->
<g id="node13" class="node">
<title>scree</title>
<ellipse fill="none" stroke="black" cx="313.13" cy="-18" rx="29.8" ry="18"/>
<text text-anchor="middle" x="313.13" y="-14.3" font-family="Times New Roman,serif" font-size="14.00">scree</text>
</g>
<!-- XXXOG2&#45;&gt;scree -->
<g id="edge12" class="edge">
<title>XXXOG2&#45;&gt;scree</title>
<path fill="none" stroke="black" d="M222.69,-36.46C239.27,-33.04 258.24,-29.12 274.43,-25.78"/>
<polygon fill="black" stroke="black" points="275.53,-29.13 284.62,-23.68 274.12,-22.27 275.53,-29.13"/>
</g>
</g>
</svg>
