<?xml version="1.0" encoding="UTF-8" standalone="no"?>
<!DOCTYPE svg PUBLIC "-//W3C//DTD SVG 1.1//EN"
 "http://www.w3.org/Graphics/SVG/1.1/DTD/svg11.dtd">
<!-- Generated by graphviz version 2.50.0 (20211204.2007)
 -->
<!-- Pages: 1 -->
<svg width="459pt" height="152pt"
 viewBox="0.00 0.00 459.17 152.00" xmlns="http://www.w3.org/2000/svg" xmlns:xlink="http://www.w3.org/1999/xlink">
<g id="graph0" class="graph" transform="scale(1 1) rotate(0) translate(4 148)">
<polygon fill="white" stroke="transparent" points="-4,4 -4,-148 455.17,-148 455.17,4 -4,4"/>
<!-- GGGXX1 -->
<g id="node1" class="node">
<title>GGGXX1</title>
<ellipse fill="none" stroke="black" cx="48.1" cy="-99" rx="48.19" ry="18"/>
<text text-anchor="middle" x="48.1" y="-95.3" font-family="Times New Roman,serif" font-size="14.00">GGGXX1</text>
</g>
<!-- XXOXX2 -->
<g id="node2" class="node">
<title>XXOXX2</title>
<ellipse fill="none" stroke="black" cx="179.64" cy="-126" rx="47.39" ry="18"/>
<text text-anchor="middle" x="179.64" y="-122.3" font-family="Times New Roman,serif" font-size="14.00">XXOXX2</text>
</g>
<!-- GGGXX1&#45;&gt;XXOXX2 -->
<g id="edge1" class="edge">
<title>GGGXX1&#45;&gt;XXOXX2</title>
<path fill="none" stroke="black" d="M90.44,-107.62C102.24,-110.08 115.24,-112.79 127.55,-115.35"/>
<polygon fill="black" stroke="black" points="127.18,-118.85 137.69,-117.46 128.61,-112 127.18,-118.85"/>
</g>
<!-- XOXXX2 -->
<g id="node4" class="node">
<title>XOXXX2</title>
<ellipse fill="none" stroke="black" cx="179.64" cy="-72" rx="47.39" ry="18"/>
<text text-anchor="middle" x="179.64" y="-68.3" font-family="Times New Roman,serif" font-size="14.00">XOXXX2</text>
</g>
<!-- GGGXX1&#45;&gt;XOXXX2 -->
<g id="edge3" class="edge">
<title>GGGXX1&#45;&gt;XOXXX2</title>
<path fill="none" stroke="black" d="M90.44,-90.38C102.24,-87.92 115.24,-85.21 127.55,-82.65"/>
<polygon fill="black" stroke="black" points="128.61,-86 137.69,-80.54 127.18,-79.15 128.61,-86"/>
</g>
<!-- slimy -->
<g id="node3" class="node">
<title>slimy</title>
<ellipse fill="none" stroke="black" cx="311.83" cy="-126" rx="29.8" ry="18"/>
<text text-anchor="middle" x="311.83" y="-122.3" font-family="Times New Roman,serif" font-size="14.00">slimy</text>
</g>
<!-- XXOXX2&#45;&gt;slimy -->
<g id="edge2" class="edge">
<title>XXOXX2&#45;&gt;slimy</title>
<path fill="none" stroke="black" d="M227.27,-126C241.81,-126 257.68,-126 271.65,-126"/>
<polygon fill="black" stroke="black" points="271.91,-129.5 281.91,-126 271.91,-122.5 271.91,-129.5"/>
</g>
<!-- sling -->
<g id="node5" class="node">
<title>sling</title>
<ellipse fill="none" stroke="black" cx="311.83" cy="-72" rx="27.1" ry="18"/>
<text text-anchor="middle" x="311.83" y="-68.3" font-family="Times New Roman,serif" font-size="14.00">sling</text>
</g>
<!-- XOXXX2&#45;&gt;sling -->
<g id="edge4" class="edge">
<title>XOXXX2&#45;&gt;sling</title>
<path fill="none" stroke="black" d="M227.27,-72C242.65,-72 259.54,-72 274.07,-72"/>
<polygon fill="black" stroke="black" points="274.19,-75.5 284.19,-72 274.19,-68.5 274.19,-75.5"/>
</g>
<!-- GGGGX3 -->
<g id="node6" class="node">
<title>GGGGX3</title>
<ellipse fill="none" stroke="black" cx="311.83" cy="-18" rx="48.99" ry="18"/>
<text text-anchor="middle" x="311.83" y="-14.3" font-family="Times New Roman,serif" font-size="14.00">GGGGX3</text>
</g>
<!-- XOXXX2&#45;&gt;GGGGX3 -->
<g id="edge5" class="edge">
<title>XOXXX2&#45;&gt;GGGGX3</title>
<path fill="none" stroke="black" d="M212.49,-58.79C229.67,-51.66 251.07,-42.79 269.52,-35.13"/>
<polygon fill="black" stroke="black" points="270.96,-38.32 278.86,-31.26 268.28,-31.86 270.96,-38.32"/>
</g>
<!-- slink -->
<g id="node7" class="node">
<title>slink</title>
<ellipse fill="none" stroke="black" cx="423.87" cy="-18" rx="27.1" ry="18"/>
<text text-anchor="middle" x="423.87" y="-14.3" font-family="Times New Roman,serif" font-size="14.00">slink</text>
</g>
<!-- GGGGX3&#45;&gt;slink -->
<g id="edge6" class="edge">
<title>GGGGX3&#45;&gt;slink</title>
<path fill="none" stroke="black" d="M360.78,-18C369.41,-18 378.28,-18 386.52,-18"/>
<polygon fill="black" stroke="black" points="386.54,-21.5 396.54,-18 386.54,-14.5 386.54,-21.5"/>
</g>
</g>
</svg>
