<?xml version="1.0" encoding="UTF-8" standalone="no"?>
<!DOCTYPE svg PUBLIC "-//W3C//DTD SVG 1.1//EN"
 "http://www.w3.org/Graphics/SVG/1.1/DTD/svg11.dtd">
<!-- Generated by graphviz version 2.50.0 (20211204.2007)
 -->
<!-- Pages: 1 -->
<svg width="468pt" height="260pt"
 viewBox="0.00 0.00 468.27 260.00" xmlns="http://www.w3.org/2000/svg" xmlns:xlink="http://www.w3.org/1999/xlink">
<g id="graph0" class="graph" transform="scale(1 1) rotate(0) translate(4 256)">
<polygon fill="white" stroke="transparent" points="-4,4 -4,-256 464.27,-256 464.27,4 -4,4"/>
<!-- OOXXG1 -->
<g id="node1" class="node">
<title>OOXXG1</title>
<ellipse fill="none" stroke="black" cx="48.1" cy="-126" rx="48.19" ry="18"/>
<text text-anchor="middle" x="48.1" y="-122.3" font-family="Times New Roman,serif" font-size="14.00">OOXXG1</text>
</g>
<!-- XGOGG2 -->
<g id="node2" class="node">
<title>XGOGG2</title>
<ellipse fill="none" stroke="black" cx="180.94" cy="-234" rx="48.99" ry="18"/>
<text text-anchor="middle" x="180.94" y="-230.3" font-family="Times New Roman,serif" font-size="14.00">XGOGG2</text>
</g>
<!-- OOXXG1&#45;&gt;XGOGG2 -->
<g id="edge1" class="edge">
<title>OOXXG1&#45;&gt;XGOGG2</title>
<path fill="none" stroke="black" d="M64.21,-143.14C80.07,-160.52 106.25,-187.53 132.19,-207 135.58,-209.54 139.22,-212.01 142.94,-214.36"/>
<polygon fill="black" stroke="black" points="141.28,-217.45 151.66,-219.6 144.89,-211.45 141.28,-217.45"/>
</g>
<!-- XXOGG2 -->
<g id="node4" class="node">
<title>XXOGG2</title>
<ellipse fill="none" stroke="black" cx="180.94" cy="-180" rx="48.19" ry="18"/>
<text text-anchor="middle" x="180.94" y="-176.3" font-family="Times New Roman,serif" font-size="14.00">XXOGG2</text>
</g>
<!-- OOXXG1&#45;&gt;XXOGG2 -->
<g id="edge3" class="edge">
<title>OOXXG1&#45;&gt;XXOGG2</title>
<path fill="none" stroke="black" d="M81.1,-139.21C98.37,-146.34 119.88,-155.21 138.42,-162.87"/>
<polygon fill="black" stroke="black" points="137.23,-166.16 147.81,-166.74 139.9,-159.69 137.23,-166.16"/>
</g>
<!-- false -->
<g id="node8" class="node">
<title>false</title>
<ellipse fill="none" stroke="black" cx="180.94" cy="-126" rx="27.1" ry="18"/>
<text text-anchor="middle" x="180.94" y="-122.3" font-family="Times New Roman,serif" font-size="14.00">false</text>
</g>
<!-- OOXXG1&#45;&gt;false -->
<g id="edge7" class="edge">
<title>OOXXG1&#45;&gt;false</title>
<path fill="none" stroke="black" d="M96.33,-126C111.76,-126 128.66,-126 143.2,-126"/>
<polygon fill="black" stroke="black" points="143.32,-129.5 153.32,-126 143.32,-122.5 143.32,-129.5"/>
</g>
<!-- XOOGG2 -->
<g id="node9" class="node">
<title>XOOGG2</title>
<ellipse fill="none" stroke="black" cx="180.94" cy="-72" rx="48.99" ry="18"/>
<text text-anchor="middle" x="180.94" y="-68.3" font-family="Times New Roman,serif" font-size="14.00">XOOGG2</text>
</g>
<!-- OOXXG1&#45;&gt;XOOGG2 -->
<g id="edge8" class="edge">
<title>OOXXG1&#45;&gt;XOOGG2</title>
<path fill="none" stroke="black" d="M81.1,-112.79C98.37,-105.66 119.88,-96.79 138.42,-89.13"/>
<polygon fill="black" stroke="black" points="139.9,-92.31 147.81,-85.26 137.23,-85.84 139.9,-92.31"/>
</g>
<!-- XXGGG2 -->
<g id="node11" class="node">
<title>XXGGG2</title>
<ellipse fill="none" stroke="black" cx="180.94" cy="-18" rx="48.19" ry="18"/>
<text text-anchor="middle" x="180.94" y="-14.3" font-family="Times New Roman,serif" font-size="14.00">XXGGG2</text>
</g>
<!-- OOXXG1&#45;&gt;XXGGG2 -->
<g id="edge10" class="edge">
<title>OOXXG1&#45;&gt;XXGGG2</title>
<path fill="none" stroke="black" d="M64.21,-108.86C80.07,-91.48 106.25,-64.47 132.19,-45 135.58,-42.46 139.22,-39.99 142.94,-37.64"/>
<polygon fill="black" stroke="black" points="144.89,-40.55 151.66,-32.4 141.28,-34.55 144.89,-40.55"/>
</g>
<!-- lapse -->
<g id="node3" class="node">
<title>lapse</title>
<ellipse fill="none" stroke="black" cx="315.08" cy="-234" rx="29.5" ry="18"/>
<text text-anchor="middle" x="315.08" y="-230.3" font-family="Times New Roman,serif" font-size="14.00">lapse</text>
</g>
<!-- XGOGG2&#45;&gt;lapse -->
<g id="edge2" class="edge">
<title>XGOGG2&#45;&gt;lapse</title>
<path fill="none" stroke="black" d="M230.02,-234C244.84,-234 260.96,-234 275.09,-234"/>
<polygon fill="black" stroke="black" points="275.45,-237.5 285.45,-234 275.45,-230.5 275.45,-237.5"/>
</g>
<!-- GGOGG3 -->
<g id="node5" class="node">
<title>GGOGG3</title>
<ellipse fill="none" stroke="black" cx="315.08" cy="-180" rx="49.29" ry="18"/>
<text text-anchor="middle" x="315.08" y="-176.3" font-family="Times New Roman,serif" font-size="14.00">GGOGG3</text>
</g>
<!-- XXOGG2&#45;&gt;GGOGG3 -->
<g id="edge4" class="edge">
<title>XXOGG2&#45;&gt;GGOGG3</title>
<path fill="none" stroke="black" d="M229.27,-180C237.68,-180 246.53,-180 255.21,-180"/>
<polygon fill="black" stroke="black" points="255.29,-183.5 265.29,-180 255.29,-176.5 255.29,-183.5"/>
</g>
<!-- loose -->
<g id="node7" class="node">
<title>loose</title>
<ellipse fill="none" stroke="black" cx="315.08" cy="-126" rx="30.59" ry="18"/>
<text text-anchor="middle" x="315.08" y="-122.3" font-family="Times New Roman,serif" font-size="14.00">loose</text>
</g>
<!-- XXOGG2&#45;&gt;loose -->
<g id="edge6" class="edge">
<title>XXOGG2&#45;&gt;loose</title>
<path fill="none" stroke="black" d="M214.26,-166.79C234.22,-158.63 259.8,-148.18 280.07,-139.9"/>
<polygon fill="black" stroke="black" points="281.61,-143.05 289.54,-136.03 278.96,-136.57 281.61,-143.05"/>
</g>
<!-- louse -->
<g id="node6" class="node">
<title>louse</title>
<ellipse fill="none" stroke="black" cx="430.37" cy="-180" rx="29.8" ry="18"/>
<text text-anchor="middle" x="430.37" y="-176.3" font-family="Times New Roman,serif" font-size="14.00">louse</text>
</g>
<!-- GGOGG3&#45;&gt;louse -->
<g id="edge5" class="edge">
<title>GGOGG3&#45;&gt;louse</title>
<path fill="none" stroke="black" d="M364.78,-180C373.3,-180 382.06,-180 390.28,-180"/>
<polygon fill="black" stroke="black" points="390.33,-183.5 400.33,-180 390.33,-176.5 390.33,-183.5"/>
</g>
<!-- lease -->
<g id="node10" class="node">
<title>lease</title>
<ellipse fill="none" stroke="black" cx="315.08" cy="-72" rx="28.7" ry="18"/>
<text text-anchor="middle" x="315.08" y="-68.3" font-family="Times New Roman,serif" font-size="14.00">lease</text>
</g>
<!-- XOOGG2&#45;&gt;lease -->
<g id="edge9" class="edge">
<title>XOOGG2&#45;&gt;lease</title>
<path fill="none" stroke="black" d="M230.02,-72C245.22,-72 261.8,-72 276.18,-72"/>
<polygon fill="black" stroke="black" points="276.22,-75.5 286.22,-72 276.22,-68.5 276.22,-75.5"/>
</g>
<!-- pulse -->
<g id="node12" class="node">
<title>pulse</title>
<ellipse fill="none" stroke="black" cx="315.08" cy="-18" rx="29.8" ry="18"/>
<text text-anchor="middle" x="315.08" y="-14.3" font-family="Times New Roman,serif" font-size="14.00">pulse</text>
</g>
<!-- XXGGG2&#45;&gt;pulse -->
<g id="edge11" class="edge">
<title>XXGGG2&#45;&gt;pulse</title>
<path fill="none" stroke="black" d="M229.27,-18C244.29,-18 260.71,-18 275.07,-18"/>
<polygon fill="black" stroke="black" points="275.12,-21.5 285.12,-18 275.12,-14.5 275.12,-21.5"/>
</g>
</g>
</svg>
