<?xml version="1.0" encoding="UTF-8" standalone="no"?>
<!DOCTYPE svg PUBLIC "-//W3C//DTD SVG 1.1//EN"
 "http://www.w3.org/Graphics/SVG/1.1/DTD/svg11.dtd">
<!-- Generated by graphviz version 2.50.0 (20211204.2007)
 -->
<!-- Pages: 1 -->
<svg width="462pt" height="179pt"
 viewBox="0.00 0.00 462.47 179.00" xmlns="http://www.w3.org/2000/svg" xmlns:xlink="http://www.w3.org/1999/xlink">
<g id="graph0" class="graph" transform="scale(1 1) rotate(0) translate(4 175)">
<polygon fill="white" stroke="transparent" points="-4,4 -4,-175 458.47,-175 458.47,4 -4,4"/>
<!-- XOGOX1 -->
<g id="node1" class="node">
<title>XOGOX1</title>
<ellipse fill="none" stroke="black" cx="48.1" cy="-72" rx="48.19" ry="18"/>
<text text-anchor="middle" x="48.1" y="-68.3" font-family="Times New Roman,serif" font-size="14.00">XOGOX1</text>
</g>
<!-- GGGGX2 -->
<g id="node2" class="node">
<title>GGGGX2</title>
<ellipse fill="none" stroke="black" cx="180.94" cy="-126" rx="48.99" ry="18"/>
<text text-anchor="middle" x="180.94" y="-122.3" font-family="Times New Roman,serif" font-size="14.00">GGGGX2</text>
</g>
<!-- XOGOX1&#45;&gt;GGGGX2 -->
<g id="edge1" class="edge">
<title>XOGOX1&#45;&gt;GGGGX2</title>
<path fill="none" stroke="black" d="M81.1,-85.21C98.37,-92.34 119.88,-101.21 138.42,-108.87"/>
<polygon fill="black" stroke="black" points="137.23,-112.16 147.81,-112.74 139.9,-105.69 137.23,-112.16"/>
</g>
<!-- child -->
<g id="node5" class="node">
<title>child</title>
<ellipse fill="none" stroke="black" cx="180.94" cy="-72" rx="28.7" ry="18"/>
<text text-anchor="middle" x="180.94" y="-68.3" font-family="Times New Roman,serif" font-size="14.00">child</text>
</g>
<!-- XOGOX1&#45;&gt;child -->
<g id="edge4" class="edge">
<title>XOGOX1&#45;&gt;child</title>
<path fill="none" stroke="black" d="M96.33,-72C111.27,-72 127.57,-72 141.78,-72"/>
<polygon fill="black" stroke="black" points="142.19,-75.5 152.19,-72 142.19,-68.5 142.19,-75.5"/>
</g>
<!-- OXGGX2 -->
<g id="node7" class="node">
<title>OXGGX2</title>
<ellipse fill="none" stroke="black" cx="180.94" cy="-18" rx="48.19" ry="18"/>
<text text-anchor="middle" x="180.94" y="-14.3" font-family="Times New Roman,serif" font-size="14.00">OXGGX2</text>
</g>
<!-- XOGOX1&#45;&gt;OXGGX2 -->
<g id="edge6" class="edge">
<title>XOGOX1&#45;&gt;OXGGX2</title>
<path fill="none" stroke="black" d="M81.1,-58.79C98.37,-51.66 119.88,-42.79 138.42,-35.13"/>
<polygon fill="black" stroke="black" points="139.9,-38.31 147.81,-31.26 137.23,-31.84 139.9,-38.31"/>
</g>
<!-- GGGGO3 -->
<g id="node3" class="node">
<title>GGGGO3</title>
<ellipse fill="none" stroke="black" cx="315.08" cy="-153" rx="49.29" ry="18"/>
<text text-anchor="middle" x="315.08" y="-149.3" font-family="Times New Roman,serif" font-size="14.00">GGGGO3</text>
</g>
<!-- GGGGX2&#45;&gt;GGGGO3 -->
<g id="edge2" class="edge">
<title>GGGGX2&#45;&gt;GGGGO3</title>
<path fill="none" stroke="black" d="M224.11,-134.62C236.03,-137.05 249.15,-139.73 261.6,-142.28"/>
<polygon fill="black" stroke="black" points="260.9,-145.71 271.4,-144.28 262.3,-138.85 260.9,-145.71"/>
</g>
<!-- chili -->
<g id="node6" class="node">
<title>chili</title>
<ellipse fill="none" stroke="black" cx="315.08" cy="-99" rx="27" ry="18"/>
<text text-anchor="middle" x="315.08" y="-95.3" font-family="Times New Roman,serif" font-size="14.00">chili</text>
</g>
<!-- GGGGX2&#45;&gt;chili -->
<g id="edge5" class="edge">
<title>GGGGX2&#45;&gt;chili</title>
<path fill="none" stroke="black" d="M224.11,-117.38C241.75,-113.78 262.01,-109.64 278.84,-106.2"/>
<polygon fill="black" stroke="black" points="279.72,-109.59 288.82,-104.16 278.32,-102.73 279.72,-109.59"/>
</g>
<!-- chill -->
<g id="node4" class="node">
<title>chill</title>
<ellipse fill="none" stroke="black" cx="427.47" cy="-153" rx="27" ry="18"/>
<text text-anchor="middle" x="427.47" y="-149.3" font-family="Times New Roman,serif" font-size="14.00">chill</text>
</g>
<!-- GGGGO3&#45;&gt;chill -->
<g id="edge3" class="edge">
<title>GGGGO3&#45;&gt;chill</title>
<path fill="none" stroke="black" d="M364.5,-153C373.14,-153 382,-153 390.22,-153"/>
<polygon fill="black" stroke="black" points="390.23,-156.5 400.23,-153 390.23,-149.5 390.23,-156.5"/>
</g>
<!-- icily -->
<g id="node8" class="node">
<title>icily</title>
<ellipse fill="none" stroke="black" cx="315.08" cy="-18" rx="27" ry="18"/>
<text text-anchor="middle" x="315.08" y="-14.3" font-family="Times New Roman,serif" font-size="14.00">icily</text>
</g>
<!-- OXGGX2&#45;&gt;icily -->
<g id="edge7" class="edge">
<title>OXGGX2&#45;&gt;icily</title>
<path fill="none" stroke="black" d="M229.27,-18C245.12,-18 262.54,-18 277.45,-18"/>
<polygon fill="black" stroke="black" points="277.8,-21.5 287.8,-18 277.8,-14.5 277.8,-21.5"/>
</g>
</g>
</svg>
