<?xml version="1.0" encoding="UTF-8" standalone="no"?>
<!DOCTYPE svg PUBLIC "-//W3C//DTD SVG 1.1//EN"
 "http://www.w3.org/Graphics/SVG/1.1/DTD/svg11.dtd">
<!-- Generated by graphviz version 2.50.0 (20211204.2007)
 -->
<!-- Pages: 1 -->
<svg width="460pt" height="152pt"
 viewBox="0.00 0.00 459.87 152.00" xmlns="http://www.w3.org/2000/svg" xmlns:xlink="http://www.w3.org/1999/xlink">
<g id="graph0" class="graph" transform="scale(1 1) rotate(0) translate(4 148)">
<polygon fill="white" stroke="transparent" points="-4,4 -4,-148 455.87,-148 455.87,4 -4,4"/>
<!-- XXGOO1 -->
<g id="node1" class="node">
<title>XXGOO1</title>
<ellipse fill="none" stroke="black" cx="48.1" cy="-99" rx="48.19" ry="18"/>
<text text-anchor="middle" x="48.1" y="-95.3" font-family="Times New Roman,serif" font-size="14.00">XXGOO1</text>
</g>
<!-- OXOXO2 -->
<g id="node2" class="node">
<title>OXOXO2</title>
<ellipse fill="none" stroke="black" cx="180.29" cy="-126" rx="48.19" ry="18"/>
<text text-anchor="middle" x="180.29" y="-122.3" font-family="Times New Roman,serif" font-size="14.00">OXOXO2</text>
</g>
<!-- XXGOO1&#45;&gt;OXOXO2 -->
<g id="edge1" class="edge">
<title>XXGOO1&#45;&gt;OXOXO2</title>
<path fill="none" stroke="black" d="M90.65,-107.62C102.39,-110.05 115.32,-112.73 127.58,-115.28"/>
<polygon fill="black" stroke="black" points="127.18,-118.77 137.68,-117.37 128.6,-111.91 127.18,-118.77"/>
</g>
<!-- XGOXX2 -->
<g id="node4" class="node">
<title>XGOXX2</title>
<ellipse fill="none" stroke="black" cx="180.29" cy="-72" rx="48.19" ry="18"/>
<text text-anchor="middle" x="180.29" y="-68.3" font-family="Times New Roman,serif" font-size="14.00">XGOXX2</text>
</g>
<!-- XXGOO1&#45;&gt;XGOXX2 -->
<g id="edge3" class="edge">
<title>XXGOO1&#45;&gt;XGOXX2</title>
<path fill="none" stroke="black" d="M90.65,-90.38C102.39,-87.95 115.32,-85.27 127.58,-82.72"/>
<polygon fill="black" stroke="black" points="128.6,-86.09 137.68,-80.63 127.18,-79.23 128.6,-86.09"/>
</g>
<!-- chief -->
<g id="node3" class="node">
<title>chief</title>
<ellipse fill="none" stroke="black" cx="313.13" cy="-126" rx="28.7" ry="18"/>
<text text-anchor="middle" x="313.13" y="-122.3" font-family="Times New Roman,serif" font-size="14.00">chief</text>
</g>
<!-- OXOXO2&#45;&gt;chief -->
<g id="edge2" class="edge">
<title>OXOXO2&#45;&gt;chief</title>
<path fill="none" stroke="black" d="M228.52,-126C243.46,-126 259.76,-126 273.98,-126"/>
<polygon fill="black" stroke="black" points="274.38,-129.5 284.38,-126 274.38,-122.5 274.38,-129.5"/>
</g>
<!-- GGGGX3 -->
<g id="node5" class="node">
<title>GGGGX3</title>
<ellipse fill="none" stroke="black" cx="313.13" cy="-72" rx="48.99" ry="18"/>
<text text-anchor="middle" x="313.13" y="-68.3" font-family="Times New Roman,serif" font-size="14.00">GGGGX3</text>
</g>
<!-- XGOXX2&#45;&gt;GGGGX3 -->
<g id="edge4" class="edge">
<title>XGOXX2&#45;&gt;GGGGX3</title>
<path fill="none" stroke="black" d="M228.52,-72C236.75,-72 245.38,-72 253.86,-72"/>
<polygon fill="black" stroke="black" points="254.08,-75.5 264.08,-72 254.08,-68.5 254.08,-75.5"/>
</g>
<!-- cried -->
<g id="node7" class="node">
<title>cried</title>
<ellipse fill="none" stroke="black" cx="313.13" cy="-18" rx="28.7" ry="18"/>
<text text-anchor="middle" x="313.13" y="-14.3" font-family="Times New Roman,serif" font-size="14.00">cried</text>
</g>
<!-- XGOXX2&#45;&gt;cried -->
<g id="edge6" class="edge">
<title>XGOXX2&#45;&gt;cried</title>
<path fill="none" stroke="black" d="M213.29,-58.79C233.32,-50.53 259.05,-39.9 279.24,-31.57"/>
<polygon fill="black" stroke="black" points="280.75,-34.74 288.66,-27.69 278.08,-28.27 280.75,-34.74"/>
</g>
<!-- crier -->
<g id="node6" class="node">
<title>crier</title>
<ellipse fill="none" stroke="black" cx="424.87" cy="-72" rx="27" ry="18"/>
<text text-anchor="middle" x="424.87" y="-68.3" font-family="Times New Roman,serif" font-size="14.00">crier</text>
</g>
<!-- GGGGX3&#45;&gt;crier -->
<g id="edge5" class="edge">
<title>GGGGX3&#45;&gt;crier</title>
<path fill="none" stroke="black" d="M361.95,-72C370.56,-72 379.4,-72 387.62,-72"/>
<polygon fill="black" stroke="black" points="387.62,-75.5 397.62,-72 387.62,-68.5 387.62,-75.5"/>
</g>
</g>
</svg>
