<?xml version="1.0" encoding="UTF-8" standalone="no"?>
<!DOCTYPE svg PUBLIC "-//W3C//DTD SVG 1.1//EN"
 "http://www.w3.org/Graphics/SVG/1.1/DTD/svg11.dtd">
<!-- Generated by graphviz version 2.50.0 (20211204.2007)
 -->
<!-- Pages: 1 -->
<svg width="473pt" height="341pt"
 viewBox="0.00 0.00 473.47 341.00" xmlns="http://www.w3.org/2000/svg" xmlns:xlink="http://www.w3.org/1999/xlink">
<g id="graph0" class="graph" transform="scale(1 1) rotate(0) translate(4 337)">
<polygon fill="white" stroke="transparent" points="-4,4 -4,-337 469.47,-337 469.47,4 -4,4"/>
<!-- OXXOG1 -->
<g id="node1" class="node">
<title>OXXOG1</title>
<ellipse fill="none" stroke="black" cx="48.1" cy="-126" rx="48.19" ry="18"/>
<text text-anchor="middle" x="48.1" y="-122.3" font-family="Times New Roman,serif" font-size="14.00">OXXOG1</text>
</g>
<!-- GXXGG2 -->
<g id="node2" class="node">
<title>GXXGG2</title>
<ellipse fill="none" stroke="black" cx="180.94" cy="-261" rx="48.19" ry="18"/>
<text text-anchor="middle" x="180.94" y="-257.3" font-family="Times New Roman,serif" font-size="14.00">GXXGG2</text>
</g>
<!-- OXXOG1&#45;&gt;GXXGG2 -->
<g id="edge1" class="edge">
<title>OXXOG1&#45;&gt;GXXGG2</title>
<path fill="none" stroke="black" d="M65.4,-142.82C88.32,-166.47 130.19,-209.67 156.46,-236.77"/>
<polygon fill="black" stroke="black" points="153.95,-239.22 163.43,-243.96 158.98,-234.35 153.95,-239.22"/>
</g>
<!-- GOXGG2 -->
<g id="node4" class="node">
<title>GOXGG2</title>
<ellipse fill="none" stroke="black" cx="180.94" cy="-180" rx="48.99" ry="18"/>
<text text-anchor="middle" x="180.94" y="-176.3" font-family="Times New Roman,serif" font-size="14.00">GOXGG2</text>
</g>
<!-- OXXOG1&#45;&gt;GOXGG2 -->
<g id="edge3" class="edge">
<title>OXXOG1&#45;&gt;GOXGG2</title>
<path fill="none" stroke="black" d="M81.1,-139.21C98.37,-146.34 119.88,-155.21 138.42,-162.87"/>
<polygon fill="black" stroke="black" points="137.23,-166.16 147.81,-166.74 139.9,-159.69 137.23,-166.16"/>
</g>
<!-- GGXOG2 -->
<g id="node9" class="node">
<title>GGXOG2</title>
<ellipse fill="none" stroke="black" cx="180.94" cy="-126" rx="48.99" ry="18"/>
<text text-anchor="middle" x="180.94" y="-122.3" font-family="Times New Roman,serif" font-size="14.00">GGXOG2</text>
</g>
<!-- OXXOG1&#45;&gt;GGXOG2 -->
<g id="edge8" class="edge">
<title>OXXOG1&#45;&gt;GGXOG2</title>
<path fill="none" stroke="black" d="M96.33,-126C104.55,-126 113.19,-126 121.67,-126"/>
<polygon fill="black" stroke="black" points="121.89,-129.5 131.89,-126 121.89,-122.5 121.89,-129.5"/>
</g>
<!-- cause -->
<g id="node11" class="node">
<title>cause</title>
<ellipse fill="none" stroke="black" cx="180.94" cy="-72" rx="31.4" ry="18"/>
<text text-anchor="middle" x="180.94" y="-68.3" font-family="Times New Roman,serif" font-size="14.00">cause</text>
</g>
<!-- OXXOG1&#45;&gt;cause -->
<g id="edge10" class="edge">
<title>OXXOG1&#45;&gt;cause</title>
<path fill="none" stroke="black" d="M81.1,-112.79C100.74,-104.69 125.86,-94.32 145.87,-86.06"/>
<polygon fill="black" stroke="black" points="147.32,-89.25 155.23,-82.2 144.65,-82.78 147.32,-89.25"/>
</g>
<!-- GXOGG2 -->
<g id="node12" class="node">
<title>GXOGG2</title>
<ellipse fill="none" stroke="black" cx="180.94" cy="-18" rx="48.99" ry="18"/>
<text text-anchor="middle" x="180.94" y="-14.3" font-family="Times New Roman,serif" font-size="14.00">GXOGG2</text>
</g>
<!-- OXXOG1&#45;&gt;GXOGG2 -->
<g id="edge11" class="edge">
<title>OXXOG1&#45;&gt;GXOGG2</title>
<path fill="none" stroke="black" d="M64.21,-108.86C80.07,-91.48 106.25,-64.47 132.19,-45 135.58,-42.46 139.22,-39.99 142.94,-37.64"/>
<polygon fill="black" stroke="black" points="144.89,-40.55 151.66,-32.4 141.28,-34.55 144.89,-40.55"/>
</g>
<!-- chose -->
<g id="node3" class="node">
<title>chose</title>
<ellipse fill="none" stroke="black" cx="315.08" cy="-315" rx="32.49" ry="18"/>
<text text-anchor="middle" x="315.08" y="-311.3" font-family="Times New Roman,serif" font-size="14.00">chose</text>
</g>
<!-- GXXGG2&#45;&gt;chose -->
<g id="edge2" class="edge">
<title>GXXGG2&#45;&gt;chose</title>
<path fill="none" stroke="black" d="M214.26,-274.21C233.83,-282.21 258.79,-292.41 278.86,-300.61"/>
<polygon fill="black" stroke="black" points="277.69,-303.91 288.28,-304.46 280.34,-297.43 277.69,-303.91"/>
</g>
<!-- GXOGG3 -->
<g id="node7" class="node">
<title>GXOGG3</title>
<ellipse fill="none" stroke="black" cx="315.08" cy="-261" rx="48.99" ry="18"/>
<text text-anchor="middle" x="315.08" y="-257.3" font-family="Times New Roman,serif" font-size="14.00">GXOGG3</text>
</g>
<!-- GXXGG2&#45;&gt;GXOGG3 -->
<g id="edge6" class="edge">
<title>GXXGG2&#45;&gt;GXOGG3</title>
<path fill="none" stroke="black" d="M229.27,-261C237.99,-261 247.18,-261 256.16,-261"/>
<polygon fill="black" stroke="black" points="256.19,-264.5 266.19,-261 256.19,-257.5 256.19,-264.5"/>
</g>
<!-- GOGGG3 -->
<g id="node5" class="node">
<title>GOGGG3</title>
<ellipse fill="none" stroke="black" cx="315.08" cy="-207" rx="49.29" ry="18"/>
<text text-anchor="middle" x="315.08" y="-203.3" font-family="Times New Roman,serif" font-size="14.00">GOGGG3</text>
</g>
<!-- GOXGG2&#45;&gt;GOGGG3 -->
<g id="edge4" class="edge">
<title>GOXGG2&#45;&gt;GOGGG3</title>
<path fill="none" stroke="black" d="M224.11,-188.62C236.03,-191.05 249.15,-193.73 261.6,-196.28"/>
<polygon fill="black" stroke="black" points="260.9,-199.71 271.4,-198.28 262.3,-192.85 260.9,-199.71"/>
</g>
<!-- cease -->
<g id="node14" class="node">
<title>cease</title>
<ellipse fill="none" stroke="black" cx="315.08" cy="-153" rx="30.59" ry="18"/>
<text text-anchor="middle" x="315.08" y="-149.3" font-family="Times New Roman,serif" font-size="14.00">cease</text>
</g>
<!-- GOXGG2&#45;&gt;cease -->
<g id="edge13" class="edge">
<title>GOXGG2&#45;&gt;cease</title>
<path fill="none" stroke="black" d="M224.11,-171.38C240.72,-167.99 259.65,-164.12 275.85,-160.81"/>
<polygon fill="black" stroke="black" points="276.95,-164.16 286.05,-158.73 275.55,-157.3 276.95,-164.16"/>
</g>
<!-- chase -->
<g id="node6" class="node">
<title>chase</title>
<ellipse fill="none" stroke="black" cx="432.97" cy="-207" rx="31.4" ry="18"/>
<text text-anchor="middle" x="432.97" y="-203.3" font-family="Times New Roman,serif" font-size="14.00">chase</text>
</g>
<!-- GOGGG3&#45;&gt;chase -->
<g id="edge5" class="edge">
<title>GOGGG3&#45;&gt;chase</title>
<path fill="none" stroke="black" d="M364.56,-207C373.46,-207 382.68,-207 391.33,-207"/>
<polygon fill="black" stroke="black" points="391.54,-210.5 401.54,-207 391.54,-203.5 391.54,-210.5"/>
</g>
<!-- copse -->
<g id="node8" class="node">
<title>copse</title>
<ellipse fill="none" stroke="black" cx="432.97" cy="-261" rx="32.49" ry="18"/>
<text text-anchor="middle" x="432.97" y="-257.3" font-family="Times New Roman,serif" font-size="14.00">copse</text>
</g>
<!-- GXOGG3&#45;&gt;copse -->
<g id="edge7" class="edge">
<title>GXOGG3&#45;&gt;copse</title>
<path fill="none" stroke="black" d="M363.89,-261C372.57,-261 381.58,-261 390.08,-261"/>
<polygon fill="black" stroke="black" points="390.14,-264.5 400.14,-261 390.14,-257.5 390.14,-264.5"/>
</g>
<!-- caste -->
<g id="node10" class="node">
<title>caste</title>
<ellipse fill="none" stroke="black" cx="315.08" cy="-99" rx="29.5" ry="18"/>
<text text-anchor="middle" x="315.08" y="-95.3" font-family="Times New Roman,serif" font-size="14.00">caste</text>
</g>
<!-- GGXOG2&#45;&gt;caste -->
<g id="edge9" class="edge">
<title>GGXOG2&#45;&gt;caste</title>
<path fill="none" stroke="black" d="M224.11,-117.38C241.12,-113.91 260.58,-109.93 277.04,-106.57"/>
<polygon fill="black" stroke="black" points="277.75,-109.99 286.85,-104.56 276.35,-103.14 277.75,-109.99"/>
</g>
<!-- curse -->
<g id="node13" class="node">
<title>curse</title>
<ellipse fill="none" stroke="black" cx="315.08" cy="-18" rx="30.59" ry="18"/>
<text text-anchor="middle" x="315.08" y="-14.3" font-family="Times New Roman,serif" font-size="14.00">curse</text>
</g>
<!-- GXOGG2&#45;&gt;curse -->
<g id="edge12" class="edge">
<title>GXOGG2&#45;&gt;curse</title>
<path fill="none" stroke="black" d="M230.02,-18C244.48,-18 260.19,-18 274.08,-18"/>
<polygon fill="black" stroke="black" points="274.29,-21.5 284.29,-18 274.29,-14.5 274.29,-21.5"/>
</g>
</g>
</svg>
