<?xml version="1.0" encoding="UTF-8" standalone="no"?>
<!DOCTYPE svg PUBLIC "-//W3C//DTD SVG 1.1//EN"
 "http://www.w3.org/Graphics/SVG/1.1/DTD/svg11.dtd">
<!-- Generated by graphviz version 2.50.0 (20211204.2007)
 -->
<!-- Pages: 1 -->
<svg width="471pt" height="692pt"
 viewBox="0.00 0.00 470.87 692.00" xmlns="http://www.w3.org/2000/svg" xmlns:xlink="http://www.w3.org/1999/xlink">
<g id="graph0" class="graph" transform="scale(1 1) rotate(0) translate(4 688)">
<polygon fill="white" stroke="transparent" points="-4,4 -4,-688 466.87,-688 466.87,4 -4,4"/>
<!-- XXXGG1 -->
<g id="node1" class="node">
<title>XXXGG1</title>
<ellipse fill="none" stroke="black" cx="48.1" cy="-288" rx="48.19" ry="18"/>
<text text-anchor="middle" x="48.1" y="-284.3" font-family="Times New Roman,serif" font-size="14.00">XXXGG1</text>
</g>
<!-- XOXGG2 -->
<g id="node2" class="node">
<title>XOXGG2</title>
<ellipse fill="none" stroke="black" cx="180.94" cy="-558" rx="48.19" ry="18"/>
<text text-anchor="middle" x="180.94" y="-554.3" font-family="Times New Roman,serif" font-size="14.00">XOXGG2</text>
</g>
<!-- XXXGG1&#45;&gt;XOXGG2 -->
<g id="edge1" class="edge">
<title>XXXGG1&#45;&gt;XOXGG2</title>
<path fill="none" stroke="black" d="M57.68,-305.72C80.05,-351.87 140.21,-476.03 166.89,-531.08"/>
<polygon fill="black" stroke="black" points="163.81,-532.75 171.32,-540.22 170.11,-529.69 163.81,-532.75"/>
</g>
<!-- XGXGG2 -->
<g id="node5" class="node">
<title>XGXGG2</title>
<ellipse fill="none" stroke="black" cx="180.94" cy="-423" rx="48.19" ry="18"/>
<text text-anchor="middle" x="180.94" y="-419.3" font-family="Times New Roman,serif" font-size="14.00">XGXGG2</text>
</g>
<!-- XXXGG1&#45;&gt;XGXGG2 -->
<g id="edge4" class="edge">
<title>XXXGG1&#45;&gt;XGXGG2</title>
<path fill="none" stroke="black" d="M65.4,-304.82C88.32,-328.47 130.19,-371.67 156.46,-398.77"/>
<polygon fill="black" stroke="black" points="153.95,-401.22 163.43,-405.96 158.98,-396.35 153.95,-401.22"/>
</g>
<!-- XXXGG2 -->
<g id="node9" class="node">
<title>XXXGG2</title>
<ellipse fill="none" stroke="black" cx="180.94" cy="-342" rx="48.19" ry="18"/>
<text text-anchor="middle" x="180.94" y="-338.3" font-family="Times New Roman,serif" font-size="14.00">XXXGG2</text>
</g>
<!-- XXXGG1&#45;&gt;XXXGG2 -->
<g id="edge8" class="edge">
<title>XXXGG1&#45;&gt;XXXGG2</title>
<path fill="none" stroke="black" d="M81.1,-301.21C98.37,-308.34 119.88,-317.21 138.42,-324.87"/>
<polygon fill="black" stroke="black" points="137.23,-328.16 147.81,-328.74 139.9,-321.69 137.23,-328.16"/>
</g>
<!-- GXGGG2 -->
<g id="node12" class="node">
<title>GXGGG2</title>
<ellipse fill="none" stroke="black" cx="180.94" cy="-288" rx="48.99" ry="18"/>
<text text-anchor="middle" x="180.94" y="-284.3" font-family="Times New Roman,serif" font-size="14.00">GXGGG2</text>
</g>
<!-- XXXGG1&#45;&gt;GXGGG2 -->
<g id="edge11" class="edge">
<title>XXXGG1&#45;&gt;GXGGG2</title>
<path fill="none" stroke="black" d="M96.33,-288C104.55,-288 113.19,-288 121.67,-288"/>
<polygon fill="black" stroke="black" points="121.89,-291.5 131.89,-288 121.89,-284.5 121.89,-291.5"/>
</g>
<!-- XXGGG2 -->
<g id="node14" class="node">
<title>XXGGG2</title>
<ellipse fill="none" stroke="black" cx="180.94" cy="-234" rx="48.19" ry="18"/>
<text text-anchor="middle" x="180.94" y="-230.3" font-family="Times New Roman,serif" font-size="14.00">XXGGG2</text>
</g>
<!-- XXXGG1&#45;&gt;XXGGG2 -->
<g id="edge13" class="edge">
<title>XXXGG1&#45;&gt;XXGGG2</title>
<path fill="none" stroke="black" d="M81.1,-274.79C98.37,-267.66 119.88,-258.79 138.42,-251.13"/>
<polygon fill="black" stroke="black" points="139.9,-254.31 147.81,-247.26 137.23,-247.84 139.9,-254.31"/>
</g>
<!-- dance -->
<g id="node17" class="node">
<title>dance</title>
<ellipse fill="none" stroke="black" cx="180.94" cy="-180" rx="32.49" ry="18"/>
<text text-anchor="middle" x="180.94" y="-176.3" font-family="Times New Roman,serif" font-size="14.00">dance</text>
</g>
<!-- XXXGG1&#45;&gt;dance -->
<g id="edge16" class="edge">
<title>XXXGG1&#45;&gt;dance</title>
<path fill="none" stroke="black" d="M64.21,-270.86C80.07,-253.48 106.25,-226.47 132.19,-207 136.76,-203.57 141.81,-200.27 146.87,-197.22"/>
<polygon fill="black" stroke="black" points="148.95,-200.05 155.87,-192.03 145.46,-193.99 148.95,-200.05"/>
</g>
<!-- GXXGG2 -->
<g id="node23" class="node">
<title>GXXGG2</title>
<ellipse fill="none" stroke="black" cx="180.94" cy="-72" rx="48.19" ry="18"/>
<text text-anchor="middle" x="180.94" y="-68.3" font-family="Times New Roman,serif" font-size="14.00">GXXGG2</text>
</g>
<!-- XXXGG1&#45;&gt;GXXGG2 -->
<g id="edge22" class="edge">
<title>XXXGG1&#45;&gt;GXXGG2</title>
<path fill="none" stroke="black" d="M59.8,-270.32C82.77,-232.42 136.85,-143.13 163.92,-98.44"/>
<polygon fill="black" stroke="black" points="167.08,-99.98 169.27,-89.62 161.09,-96.36 167.08,-99.98"/>
</g>
<!-- XOXOO3 -->
<g id="node3" class="node">
<title>XOXOO3</title>
<ellipse fill="none" stroke="black" cx="313.78" cy="-666" rx="48.19" ry="18"/>
<text text-anchor="middle" x="313.78" y="-662.3" font-family="Times New Roman,serif" font-size="14.00">XOXOO3</text>
</g>
<!-- XOXGG2&#45;&gt;XOXOO3 -->
<g id="edge2" class="edge">
<title>XOXGG2&#45;&gt;XOXOO3</title>
<path fill="none" stroke="black" d="M197.22,-575.1C213.24,-592.44 239.65,-619.43 265.68,-639 268.9,-641.42 272.35,-643.78 275.87,-646.03"/>
<polygon fill="black" stroke="black" points="274.3,-649.18 284.66,-651.4 277.95,-643.2 274.3,-649.18"/>
</g>
<!-- XOOOX3 -->
<g id="node7" class="node">
<title>XOOOX3</title>
<ellipse fill="none" stroke="black" cx="313.78" cy="-612" rx="48.19" ry="18"/>
<text text-anchor="middle" x="313.78" y="-608.3" font-family="Times New Roman,serif" font-size="14.00">XOOOX3</text>
</g>
<!-- XOXGG2&#45;&gt;XOOOX3 -->
<g id="edge6" class="edge">
<title>XOXGG2&#45;&gt;XOOOX3</title>
<path fill="none" stroke="black" d="M213.94,-571.21C231.21,-578.34 252.72,-587.21 271.26,-594.87"/>
<polygon fill="black" stroke="black" points="270.07,-598.16 280.65,-598.74 272.74,-591.69 270.07,-598.16"/>
</g>
<!-- GOXOX3 -->
<g id="node25" class="node">
<title>GOXOX3</title>
<ellipse fill="none" stroke="black" cx="313.78" cy="-558" rx="48.19" ry="18"/>
<text text-anchor="middle" x="313.78" y="-554.3" font-family="Times New Roman,serif" font-size="14.00">GOXOX3</text>
</g>
<!-- XOXGG2&#45;&gt;GOXOX3 -->
<g id="edge24" class="edge">
<title>XOXGG2&#45;&gt;GOXOX3</title>
<path fill="none" stroke="black" d="M229.17,-558C237.7,-558 246.67,-558 255.44,-558"/>
<polygon fill="black" stroke="black" points="255.61,-561.5 265.61,-558 255.61,-554.5 255.61,-561.5"/>
</g>
<!-- XGXOX3 -->
<g id="node29" class="node">
<title>XGXOX3</title>
<ellipse fill="none" stroke="black" cx="313.78" cy="-504" rx="48.19" ry="18"/>
<text text-anchor="middle" x="313.78" y="-500.3" font-family="Times New Roman,serif" font-size="14.00">XGXOX3</text>
</g>
<!-- XOXGG2&#45;&gt;XGXOX3 -->
<g id="edge28" class="edge">
<title>XOXGG2&#45;&gt;XGXOX3</title>
<path fill="none" stroke="black" d="M213.94,-544.79C231.21,-537.66 252.72,-528.79 271.26,-521.13"/>
<polygon fill="black" stroke="black" points="272.74,-524.31 280.65,-517.26 270.07,-517.84 272.74,-524.31"/>
</g>
<!-- trace -->
<g id="node4" class="node">
<title>trace</title>
<ellipse fill="none" stroke="black" cx="430.37" cy="-666" rx="28.7" ry="18"/>
<text text-anchor="middle" x="430.37" y="-662.3" font-family="Times New Roman,serif" font-size="14.00">trace</text>
</g>
<!-- XOXOO3&#45;&gt;trace -->
<g id="edge3" class="edge">
<title>XOXOO3&#45;&gt;trace</title>
<path fill="none" stroke="black" d="M362.05,-666C371.81,-666 381.98,-666 391.37,-666"/>
<polygon fill="black" stroke="black" points="391.57,-669.5 401.57,-666 391.57,-662.5 391.57,-669.5"/>
</g>
<!-- farce -->
<g id="node6" class="node">
<title>farce</title>
<ellipse fill="none" stroke="black" cx="313.78" cy="-450" rx="28.7" ry="18"/>
<text text-anchor="middle" x="313.78" y="-446.3" font-family="Times New Roman,serif" font-size="14.00">farce</text>
</g>
<!-- XGXGG2&#45;&gt;farce -->
<g id="edge5" class="edge">
<title>XGXGG2&#45;&gt;farce</title>
<path fill="none" stroke="black" d="M223.34,-431.54C240.45,-435.07 260.11,-439.13 276.63,-442.54"/>
<polygon fill="black" stroke="black" points="275.96,-445.98 286.46,-444.57 277.37,-439.12 275.96,-445.98"/>
</g>
<!-- grace -->
<g id="node8" class="node">
<title>grace</title>
<ellipse fill="none" stroke="black" cx="430.37" cy="-612" rx="30.59" ry="18"/>
<text text-anchor="middle" x="430.37" y="-608.3" font-family="Times New Roman,serif" font-size="14.00">grace</text>
</g>
<!-- XOOOX3&#45;&gt;grace -->
<g id="edge7" class="edge">
<title>XOOOX3&#45;&gt;grace</title>
<path fill="none" stroke="black" d="M362.05,-612C371.18,-612 380.66,-612 389.52,-612"/>
<polygon fill="black" stroke="black" points="389.58,-615.5 399.58,-612 389.58,-608.5 389.58,-615.5"/>
</g>
<!-- XXOGG3 -->
<g id="node10" class="node">
<title>XXOGG3</title>
<ellipse fill="none" stroke="black" cx="313.78" cy="-396" rx="48.19" ry="18"/>
<text text-anchor="middle" x="313.78" y="-392.3" font-family="Times New Roman,serif" font-size="14.00">XXOGG3</text>
</g>
<!-- XXXGG2&#45;&gt;XXOGG3 -->
<g id="edge9" class="edge">
<title>XXXGG2&#45;&gt;XXOGG3</title>
<path fill="none" stroke="black" d="M213.94,-355.21C231.21,-362.34 252.72,-371.21 271.26,-378.87"/>
<polygon fill="black" stroke="black" points="270.07,-382.16 280.65,-382.74 272.74,-375.69 270.07,-382.16"/>
</g>
<!-- force -->
<g id="node18" class="node">
<title>force</title>
<ellipse fill="none" stroke="black" cx="313.78" cy="-342" rx="29.8" ry="18"/>
<text text-anchor="middle" x="313.78" y="-338.3" font-family="Times New Roman,serif" font-size="14.00">force</text>
</g>
<!-- XXXGG2&#45;&gt;force -->
<g id="edge17" class="edge">
<title>XXXGG2&#45;&gt;force</title>
<path fill="none" stroke="black" d="M229.17,-342C243.64,-342 259.39,-342 273.29,-342"/>
<polygon fill="black" stroke="black" points="273.5,-345.5 283.5,-342 273.5,-338.5 273.5,-345.5"/>
</g>
<!-- truce -->
<g id="node11" class="node">
<title>truce</title>
<ellipse fill="none" stroke="black" cx="430.37" cy="-396" rx="28.7" ry="18"/>
<text text-anchor="middle" x="430.37" y="-392.3" font-family="Times New Roman,serif" font-size="14.00">truce</text>
</g>
<!-- XXOGG3&#45;&gt;truce -->
<g id="edge10" class="edge">
<title>XXOGG3&#45;&gt;truce</title>
<path fill="none" stroke="black" d="M362.05,-396C371.81,-396 381.98,-396 391.37,-396"/>
<polygon fill="black" stroke="black" points="391.57,-399.5 401.57,-396 391.57,-392.5 391.57,-399.5"/>
</g>
<!-- dunce -->
<g id="node13" class="node">
<title>dunce</title>
<ellipse fill="none" stroke="black" cx="313.78" cy="-288" rx="32.49" ry="18"/>
<text text-anchor="middle" x="313.78" y="-284.3" font-family="Times New Roman,serif" font-size="14.00">dunce</text>
</g>
<!-- GXGGG2&#45;&gt;dunce -->
<g id="edge12" class="edge">
<title>GXGGG2&#45;&gt;dunce</title>
<path fill="none" stroke="black" d="M229.91,-288C243.38,-288 257.91,-288 270.99,-288"/>
<polygon fill="black" stroke="black" points="271.11,-291.5 281.11,-288 271.11,-284.5 271.11,-291.5"/>
</g>
<!-- XXXXX3 -->
<g id="node15" class="node">
<title>XXXXX3</title>
<ellipse fill="none" stroke="black" cx="313.78" cy="-234" rx="46.59" ry="18"/>
<text text-anchor="middle" x="313.78" y="-230.3" font-family="Times New Roman,serif" font-size="14.00">XXXXX3</text>
</g>
<!-- XXGGG2&#45;&gt;XXXXX3 -->
<g id="edge14" class="edge">
<title>XXGGG2&#45;&gt;XXXXX3</title>
<path fill="none" stroke="black" d="M229.17,-234C238.11,-234 247.54,-234 256.71,-234"/>
<polygon fill="black" stroke="black" points="256.92,-237.5 266.92,-234 256.92,-230.5 256.92,-237.5"/>
</g>
<!-- GXXXX3 -->
<g id="node19" class="node">
<title>GXXXX3</title>
<ellipse fill="none" stroke="black" cx="313.78" cy="-180" rx="47.39" ry="18"/>
<text text-anchor="middle" x="313.78" y="-176.3" font-family="Times New Roman,serif" font-size="14.00">GXXXX3</text>
</g>
<!-- XXGGG2&#45;&gt;GXXXX3 -->
<g id="edge18" class="edge">
<title>XXGGG2&#45;&gt;GXXXX3</title>
<path fill="none" stroke="black" d="M213.94,-220.79C231.34,-213.61 253.04,-204.65 271.68,-196.96"/>
<polygon fill="black" stroke="black" points="273.19,-200.12 281.1,-193.07 270.52,-193.65 273.19,-200.12"/>
</g>
<!-- XOXXX3 -->
<g id="node21" class="node">
<title>XOXXX3</title>
<ellipse fill="none" stroke="black" cx="313.78" cy="-126" rx="47.39" ry="18"/>
<text text-anchor="middle" x="313.78" y="-122.3" font-family="Times New Roman,serif" font-size="14.00">XOXXX3</text>
</g>
<!-- XXGGG2&#45;&gt;XOXXX3 -->
<g id="edge20" class="edge">
<title>XXGGG2&#45;&gt;XOXXX3</title>
<path fill="none" stroke="black" d="M211.69,-220.03C218.02,-216.31 224.38,-211.93 229.68,-207 250.81,-187.37 244.61,-172.7 265.68,-153 268.54,-150.33 271.72,-147.81 275.03,-145.47"/>
<polygon fill="black" stroke="black" points="276.94,-148.4 283.43,-140.02 273.14,-142.52 276.94,-148.4"/>
</g>
<!-- XXXXO3 -->
<g id="node27" class="node">
<title>XXXXO3</title>
<ellipse fill="none" stroke="black" cx="313.78" cy="-72" rx="47.39" ry="18"/>
<text text-anchor="middle" x="313.78" y="-68.3" font-family="Times New Roman,serif" font-size="14.00">XXXXO3</text>
</g>
<!-- XXGGG2&#45;&gt;XXXXO3 -->
<g id="edge26" class="edge">
<title>XXGGG2&#45;&gt;XXXXO3</title>
<path fill="none" stroke="black" d="M213.72,-220.41C219.64,-216.74 225.32,-212.29 229.68,-207 261.85,-167.94 233.63,-138.15 265.68,-99 268.03,-96.13 270.77,-93.51 273.72,-91.12"/>
<polygon fill="black" stroke="black" points="275.75,-93.97 281.91,-85.35 271.72,-88.25 275.75,-93.97"/>
</g>
<!-- pence -->
<g id="node16" class="node">
<title>pence</title>
<ellipse fill="none" stroke="black" cx="430.37" cy="-234" rx="32.49" ry="18"/>
<text text-anchor="middle" x="430.37" y="-230.3" font-family="Times New Roman,serif" font-size="14.00">pence</text>
</g>
<!-- XXXXX3&#45;&gt;pence -->
<g id="edge15" class="edge">
<title>XXXXX3&#45;&gt;pence</title>
<path fill="none" stroke="black" d="M360.73,-234C369.68,-234 379.01,-234 387.81,-234"/>
<polygon fill="black" stroke="black" points="387.84,-237.5 397.84,-234 387.84,-230.5 387.84,-237.5"/>
</g>
<!-- fence -->
<g id="node20" class="node">
<title>fence</title>
<ellipse fill="none" stroke="black" cx="430.37" cy="-180" rx="30.59" ry="18"/>
<text text-anchor="middle" x="430.37" y="-176.3" font-family="Times New Roman,serif" font-size="14.00">fence</text>
</g>
<!-- GXXXX3&#45;&gt;fence -->
<g id="edge19" class="edge">
<title>GXXXX3&#45;&gt;fence</title>
<path fill="none" stroke="black" d="M361.39,-180C370.65,-180 380.3,-180 389.32,-180"/>
<polygon fill="black" stroke="black" points="389.56,-183.5 399.56,-180 389.56,-176.5 389.56,-183.5"/>
</g>
<!-- ounce -->
<g id="node22" class="node">
<title>ounce</title>
<ellipse fill="none" stroke="black" cx="430.37" cy="-126" rx="32.49" ry="18"/>
<text text-anchor="middle" x="430.37" y="-122.3" font-family="Times New Roman,serif" font-size="14.00">ounce</text>
</g>
<!-- XOXXX3&#45;&gt;ounce -->
<g id="edge21" class="edge">
<title>XOXXX3&#45;&gt;ounce</title>
<path fill="none" stroke="black" d="M361.39,-126C370.11,-126 379.18,-126 387.74,-126"/>
<polygon fill="black" stroke="black" points="387.87,-129.5 397.87,-126 387.87,-122.5 387.87,-129.5"/>
</g>
<!-- deuce -->
<g id="node24" class="node">
<title>deuce</title>
<ellipse fill="none" stroke="black" cx="313.78" cy="-18" rx="32.49" ry="18"/>
<text text-anchor="middle" x="313.78" y="-14.3" font-family="Times New Roman,serif" font-size="14.00">deuce</text>
</g>
<!-- GXXGG2&#45;&gt;deuce -->
<g id="edge23" class="edge">
<title>GXXGG2&#45;&gt;deuce</title>
<path fill="none" stroke="black" d="M213.94,-58.79C233.32,-50.79 258.04,-40.59 277.91,-32.39"/>
<polygon fill="black" stroke="black" points="279.32,-35.59 287.23,-28.54 276.65,-29.12 279.32,-35.59"/>
</g>
<!-- brace -->
<g id="node26" class="node">
<title>brace</title>
<ellipse fill="none" stroke="black" cx="430.37" cy="-558" rx="30.59" ry="18"/>
<text text-anchor="middle" x="430.37" y="-554.3" font-family="Times New Roman,serif" font-size="14.00">brace</text>
</g>
<!-- GOXOX3&#45;&gt;brace -->
<g id="edge25" class="edge">
<title>GOXOX3&#45;&gt;brace</title>
<path fill="none" stroke="black" d="M362.05,-558C371.18,-558 380.66,-558 389.52,-558"/>
<polygon fill="black" stroke="black" points="389.58,-561.5 399.58,-558 389.58,-554.5 389.58,-561.5"/>
</g>
<!-- hence -->
<g id="node28" class="node">
<title>hence</title>
<ellipse fill="none" stroke="black" cx="430.37" cy="-72" rx="31.7" ry="18"/>
<text text-anchor="middle" x="430.37" y="-68.3" font-family="Times New Roman,serif" font-size="14.00">hence</text>
</g>
<!-- XXXXO3&#45;&gt;hence -->
<g id="edge27" class="edge">
<title>XXXXO3&#45;&gt;hence</title>
<path fill="none" stroke="black" d="M361.39,-72C370.2,-72 379.36,-72 387.99,-72"/>
<polygon fill="black" stroke="black" points="388.21,-75.5 398.21,-72 388.21,-68.5 388.21,-75.5"/>
</g>
<!-- peace -->
<g id="node30" class="node">
<title>peace</title>
<ellipse fill="none" stroke="black" cx="430.37" cy="-504" rx="31.7" ry="18"/>
<text text-anchor="middle" x="430.37" y="-500.3" font-family="Times New Roman,serif" font-size="14.00">peace</text>
</g>
<!-- XGXOX3&#45;&gt;peace -->
<g id="edge29" class="edge">
<title>XGXOX3&#45;&gt;peace</title>
<path fill="none" stroke="black" d="M362.05,-504C370.73,-504 379.72,-504 388.2,-504"/>
<polygon fill="black" stroke="black" points="388.24,-507.5 398.24,-504 388.24,-500.5 388.24,-507.5"/>
</g>
</g>
</svg>
