<?xml version="1.0" encoding="UTF-8" standalone="no"?>
<!DOCTYPE svg PUBLIC "-//W3C//DTD SVG 1.1//EN"
 "http://www.w3.org/Graphics/SVG/1.1/DTD/svg11.dtd">
<!-- Generated by graphviz version 2.50.0 (20211204.2007)
 -->
<!-- Pages: 1 -->
<svg width="460pt" height="260pt"
 viewBox="0.00 0.00 459.87 260.00" xmlns="http://www.w3.org/2000/svg" xmlns:xlink="http://www.w3.org/1999/xlink">
<g id="graph0" class="graph" transform="scale(1 1) rotate(0) translate(4 256)">
<polygon fill="white" stroke="transparent" points="-4,4 -4,-256 455.87,-256 455.87,4 -4,4"/>
<!-- XGGXG1 -->
<g id="node1" class="node">
<title>XGGXG1</title>
<ellipse fill="none" stroke="black" cx="48.1" cy="-126" rx="48.19" ry="18"/>
<text text-anchor="middle" x="48.1" y="-122.3" font-family="Times New Roman,serif" font-size="14.00">XGGXG1</text>
</g>
<!-- GXOXX2 -->
<g id="node2" class="node">
<title>GXOXX2</title>
<ellipse fill="none" stroke="black" cx="180.29" cy="-220" rx="48.19" ry="18"/>
<text text-anchor="middle" x="180.29" y="-216.3" font-family="Times New Roman,serif" font-size="14.00">GXOXX2</text>
</g>
<!-- XGGXG1&#45;&gt;GXOXX2 -->
<g id="edge1" class="edge">
<title>XGGXG1&#45;&gt;GXOXX2</title>
<path fill="none" stroke="black" d="M71.18,-141.95C92.5,-157.34 124.97,-180.78 148.76,-197.96"/>
<polygon fill="black" stroke="black" points="146.94,-200.96 157.09,-203.98 151.03,-195.28 146.94,-200.96"/>
</g>
<!-- XXOXO2 -->
<g id="node4" class="node">
<title>XXOXO2</title>
<ellipse fill="none" stroke="black" cx="180.29" cy="-153" rx="48.19" ry="18"/>
<text text-anchor="middle" x="180.29" y="-149.3" font-family="Times New Roman,serif" font-size="14.00">XXOXO2</text>
</g>
<!-- XGGXG1&#45;&gt;XXOXO2 -->
<g id="edge3" class="edge">
<title>XGGXG1&#45;&gt;XXOXO2</title>
<path fill="none" stroke="black" d="M90.65,-134.62C102.39,-137.05 115.32,-139.73 127.58,-142.28"/>
<polygon fill="black" stroke="black" points="127.18,-145.77 137.68,-144.37 128.6,-138.91 127.18,-145.77"/>
</g>
<!-- XXOXX2 -->
<g id="node6" class="node">
<title>XXOXX2</title>
<ellipse fill="none" stroke="black" cx="180.29" cy="-99" rx="47.39" ry="18"/>
<text text-anchor="middle" x="180.29" y="-95.3" font-family="Times New Roman,serif" font-size="14.00">XXOXX2</text>
</g>
<!-- XGGXG1&#45;&gt;XXOXX2 -->
<g id="edge5" class="edge">
<title>XGGXG1&#45;&gt;XXOXX2</title>
<path fill="none" stroke="black" d="M90.65,-117.38C102.63,-114.9 115.83,-112.16 128.31,-109.57"/>
<polygon fill="black" stroke="black" points="129.05,-112.99 138.13,-107.54 127.63,-106.14 129.05,-112.99"/>
</g>
<!-- XXOOX2 -->
<g id="node10" class="node">
<title>XXOOX2</title>
<ellipse fill="none" stroke="black" cx="180.29" cy="-45" rx="48.19" ry="18"/>
<text text-anchor="middle" x="180.29" y="-41.3" font-family="Times New Roman,serif" font-size="14.00">XXOOX2</text>
</g>
<!-- XGGXG1&#45;&gt;XXOOX2 -->
<g id="edge10" class="edge">
<title>XGGXG1&#45;&gt;XXOOX2</title>
<path fill="none" stroke="black" d="M72.51,-110.28C89.04,-99.32 111.78,-84.47 132.19,-72 136,-69.67 140.02,-67.28 144.03,-64.93"/>
<polygon fill="black" stroke="black" points="145.84,-67.92 152.73,-59.88 142.33,-61.87 145.84,-67.92"/>
</g>
<!-- olive -->
<g id="node3" class="node">
<title>olive</title>
<ellipse fill="none" stroke="black" cx="313.13" cy="-234" rx="27.9" ry="18"/>
<text text-anchor="middle" x="313.13" y="-230.3" font-family="Times New Roman,serif" font-size="14.00">olive</text>
</g>
<!-- GXOXX2&#45;&gt;olive -->
<g id="edge2" class="edge">
<title>GXOXX2&#45;&gt;olive</title>
<path fill="none" stroke="black" d="M226.68,-224.86C242.63,-226.56 260.34,-228.46 275.49,-230.08"/>
<polygon fill="black" stroke="black" points="275.19,-233.57 285.5,-231.15 275.93,-226.61 275.19,-233.57"/>
</g>
<!-- alike -->
<g id="node5" class="node">
<title>alike</title>
<ellipse fill="none" stroke="black" cx="313.13" cy="-180" rx="27" ry="18"/>
<text text-anchor="middle" x="313.13" y="-176.3" font-family="Times New Roman,serif" font-size="14.00">alike</text>
</g>
<!-- XXOXO2&#45;&gt;alike -->
<g id="edge4" class="edge">
<title>XXOXO2&#45;&gt;alike</title>
<path fill="none" stroke="black" d="M222.69,-161.54C240.17,-165.15 260.31,-169.31 277.05,-172.76"/>
<polygon fill="black" stroke="black" points="276.48,-176.22 286.98,-174.81 277.89,-169.36 276.48,-176.22"/>
</g>
<!-- GGGXG3 -->
<g id="node7" class="node">
<title>GGGXG3</title>
<ellipse fill="none" stroke="black" cx="313.13" cy="-126" rx="48.99" ry="18"/>
<text text-anchor="middle" x="313.13" y="-122.3" font-family="Times New Roman,serif" font-size="14.00">GGGXG3</text>
</g>
<!-- XXOXO2&#45;&gt;GGGXG3 -->
<g id="edge8" class="edge">
<title>XXOXO2&#45;&gt;GGGXG3</title>
<path fill="none" stroke="black" d="M222.69,-144.46C234.62,-141.99 247.79,-139.28 260.27,-136.7"/>
<polygon fill="black" stroke="black" points="261.01,-140.12 270.1,-134.67 259.6,-133.27 261.01,-140.12"/>
</g>
<!-- XXOXX2&#45;&gt;GGGXG3 -->
<g id="edge6" class="edge">
<title>XXOXX2&#45;&gt;GGGXG3</title>
<path fill="none" stroke="black" d="M222.33,-107.47C234.39,-109.96 247.75,-112.71 260.39,-115.32"/>
<polygon fill="black" stroke="black" points="259.83,-118.78 270.33,-117.38 261.25,-111.93 259.83,-118.78"/>
</g>
<!-- elide -->
<g id="node12" class="node">
<title>elide</title>
<ellipse fill="none" stroke="black" cx="313.13" cy="-72" rx="27.1" ry="18"/>
<text text-anchor="middle" x="313.13" y="-68.3" font-family="Times New Roman,serif" font-size="14.00">elide</text>
</g>
<!-- XXOXX2&#45;&gt;elide -->
<g id="edge12" class="edge">
<title>XXOXX2&#45;&gt;elide</title>
<path fill="none" stroke="black" d="M222.33,-90.53C239.83,-86.92 260.05,-82.75 276.86,-79.28"/>
<polygon fill="black" stroke="black" points="277.75,-82.67 286.84,-77.22 276.34,-75.81 277.75,-82.67"/>
</g>
<!-- elite -->
<g id="node8" class="node">
<title>elite</title>
<ellipse fill="none" stroke="black" cx="424.87" cy="-153" rx="27" ry="18"/>
<text text-anchor="middle" x="424.87" y="-149.3" font-family="Times New Roman,serif" font-size="14.00">elite</text>
</g>
<!-- GGGXG3&#45;&gt;elite -->
<g id="edge7" class="edge">
<title>GGGXG3&#45;&gt;elite</title>
<path fill="none" stroke="black" d="M354.06,-135.82C365.6,-138.66 378.1,-141.74 389.29,-144.49"/>
<polygon fill="black" stroke="black" points="388.58,-147.92 399.13,-146.91 390.26,-141.12 388.58,-147.92"/>
</g>
<!-- alive -->
<g id="node9" class="node">
<title>alive</title>
<ellipse fill="none" stroke="black" cx="424.87" cy="-99" rx="27" ry="18"/>
<text text-anchor="middle" x="424.87" y="-95.3" font-family="Times New Roman,serif" font-size="14.00">alive</text>
</g>
<!-- GGGXG3&#45;&gt;alive -->
<g id="edge9" class="edge">
<title>GGGXG3&#45;&gt;alive</title>
<path fill="none" stroke="black" d="M354.06,-116.18C365.6,-113.34 378.1,-110.26 389.29,-107.51"/>
<polygon fill="black" stroke="black" points="390.26,-110.88 399.13,-105.09 388.58,-104.08 390.26,-110.88"/>
</g>
<!-- glide -->
<g id="node11" class="node">
<title>glide</title>
<ellipse fill="none" stroke="black" cx="313.13" cy="-18" rx="27.9" ry="18"/>
<text text-anchor="middle" x="313.13" y="-14.3" font-family="Times New Roman,serif" font-size="14.00">glide</text>
</g>
<!-- XXOOX2&#45;&gt;glide -->
<g id="edge11" class="edge">
<title>XXOOX2&#45;&gt;glide</title>
<path fill="none" stroke="black" d="M222.69,-36.46C239.92,-32.9 259.74,-28.81 276.34,-25.39"/>
<polygon fill="black" stroke="black" points="277.11,-28.8 286.2,-23.35 275.7,-21.94 277.11,-28.8"/>
</g>
</g>
</svg>
