<?xml version="1.0" encoding="UTF-8" standalone="no"?>
<!DOCTYPE svg PUBLIC "-//W3C//DTD SVG 1.1//EN"
 "http://www.w3.org/Graphics/SVG/1.1/DTD/svg11.dtd">
<!-- Generated by graphviz version 2.50.0 (20211204.2007)
 -->
<!-- Pages: 1 -->
<svg width="331pt" height="98pt"
 viewBox="0.00 0.00 330.88 98.00" xmlns="http://www.w3.org/2000/svg" xmlns:xlink="http://www.w3.org/1999/xlink">
<g id="graph0" class="graph" transform="scale(1 1) rotate(0) translate(4 94)">
<polygon fill="white" stroke="transparent" points="-4,4 -4,-94 326.88,-94 326.88,4 -4,4"/>
<!-- GXOOX1 -->
<g id="node1" class="node">
<title>GXOOX1</title>
<ellipse fill="none" stroke="black" cx="48.1" cy="-45" rx="48.19" ry="18"/>
<text text-anchor="middle" x="48.1" y="-41.3" font-family="Times New Roman,serif" font-size="14.00">GXOOX1</text>
</g>
<!-- sonic -->
<g id="node2" class="node">
<title>sonic</title>
<ellipse fill="none" stroke="black" cx="180.94" cy="-72" rx="30.59" ry="18"/>
<text text-anchor="middle" x="180.94" y="-68.3" font-family="Times New Roman,serif" font-size="14.00">sonic</text>
</g>
<!-- GXOOX1&#45;&gt;sonic -->
<g id="edge1" class="edge">
<title>GXOOX1&#45;&gt;sonic</title>
<path fill="none" stroke="black" d="M90.49,-53.54C106.83,-56.91 125.49,-60.76 141.52,-64.07"/>
<polygon fill="black" stroke="black" points="141.13,-67.56 151.63,-66.16 142.54,-60.71 141.13,-67.56"/>
</g>
<!-- GOXGG2 -->
<g id="node3" class="node">
<title>GOXGG2</title>
<ellipse fill="none" stroke="black" cx="180.94" cy="-18" rx="48.99" ry="18"/>
<text text-anchor="middle" x="180.94" y="-14.3" font-family="Times New Roman,serif" font-size="14.00">GOXGG2</text>
</g>
<!-- GXOOX1&#45;&gt;GOXGG2 -->
<g id="edge2" class="edge">
<title>GXOOX1&#45;&gt;GOXGG2</title>
<path fill="none" stroke="black" d="M90.49,-36.46C102.43,-33.99 115.6,-31.28 128.08,-28.7"/>
<polygon fill="black" stroke="black" points="128.82,-32.12 137.91,-26.67 127.41,-25.27 128.82,-32.12"/>
</g>
<!-- stoic -->
<g id="node4" class="node">
<title>stoic</title>
<ellipse fill="none" stroke="black" cx="294.28" cy="-18" rx="28.7" ry="18"/>
<text text-anchor="middle" x="294.28" y="-14.3" font-family="Times New Roman,serif" font-size="14.00">stoic</text>
</g>
<!-- GOXGG2&#45;&gt;stoic -->
<g id="edge3" class="edge">
<title>GOXGG2&#45;&gt;stoic</title>
<path fill="none" stroke="black" d="M229.8,-18C238.34,-18 247.13,-18 255.34,-18"/>
<polygon fill="black" stroke="black" points="255.37,-21.5 265.37,-18 255.37,-14.5 255.37,-21.5"/>
</g>
</g>
</svg>
