<?xml version="1.0" encoding="UTF-8" standalone="no"?>
<!DOCTYPE svg PUBLIC "-//W3C//DTD SVG 1.1//EN"
 "http://www.w3.org/Graphics/SVG/1.1/DTD/svg11.dtd">
<!-- Generated by graphviz version 2.50.0 (20211204.2007)
 -->
<!-- Pages: 1 -->
<svg width="607pt" height="962pt"
 viewBox="0.00 0.00 606.96 962.00" xmlns="http://www.w3.org/2000/svg" xmlns:xlink="http://www.w3.org/1999/xlink">
<g id="graph0" class="graph" transform="scale(1 1) rotate(0) translate(4 958)">
<polygon fill="white" stroke="transparent" points="-4,4 -4,-958 602.96,-958 602.96,4 -4,4"/>
<!-- XGXXG1 -->
<g id="node1" class="node">
<title>XGXXG1</title>
<ellipse fill="none" stroke="black" cx="48.1" cy="-315" rx="48.19" ry="18"/>
<text text-anchor="middle" x="48.1" y="-311.3" font-family="Times New Roman,serif" font-size="14.00">XGXXG1</text>
</g>
<!-- XGXXG2 -->
<g id="node2" class="node">
<title>XGXXG2</title>
<ellipse fill="none" stroke="black" cx="180.94" cy="-558" rx="48.19" ry="18"/>
<text text-anchor="middle" x="180.94" y="-554.3" font-family="Times New Roman,serif" font-size="14.00">XGXXG2</text>
</g>
<!-- XGXXG1&#45;&gt;XGXXG2 -->
<g id="edge1" class="edge">
<title>XGXXG1&#45;&gt;XGXXG2</title>
<path fill="none" stroke="black" d="M58.72,-332.87C81.45,-375.09 138.58,-481.2 165.49,-531.17"/>
<polygon fill="black" stroke="black" points="162.48,-532.96 170.3,-540.11 168.64,-529.64 162.48,-532.96"/>
</g>
<!-- XGOXG2 -->
<g id="node5" class="node">
<title>XGOXG2</title>
<ellipse fill="none" stroke="black" cx="180.94" cy="-396" rx="48.19" ry="18"/>
<text text-anchor="middle" x="180.94" y="-392.3" font-family="Times New Roman,serif" font-size="14.00">XGOXG2</text>
</g>
<!-- XGXXG1&#45;&gt;XGOXG2 -->
<g id="edge4" class="edge">
<title>XGXXG1&#45;&gt;XGOXG2</title>
<path fill="none" stroke="black" d="M72.49,-330.75C89.01,-341.74 111.75,-356.59 132.19,-369 136.05,-371.34 140.12,-373.74 144.18,-376.1"/>
<polygon fill="black" stroke="black" points="142.58,-379.22 153,-381.15 146.06,-373.14 142.58,-379.22"/>
</g>
<!-- GGXXG2 -->
<g id="node8" class="node">
<title>GGXXG2</title>
<ellipse fill="none" stroke="black" cx="180.94" cy="-342" rx="48.19" ry="18"/>
<text text-anchor="middle" x="180.94" y="-338.3" font-family="Times New Roman,serif" font-size="14.00">GGXXG2</text>
</g>
<!-- XGXXG1&#45;&gt;GGXXG2 -->
<g id="edge7" class="edge">
<title>XGXXG1&#45;&gt;GGXXG2</title>
<path fill="none" stroke="black" d="M90.49,-323.54C102.55,-326.03 115.86,-328.78 128.45,-331.38"/>
<polygon fill="black" stroke="black" points="127.86,-334.83 138.36,-333.42 129.27,-327.97 127.86,-334.83"/>
</g>
<!-- OGXXG2 -->
<g id="node17" class="node">
<title>OGXXG2</title>
<ellipse fill="none" stroke="black" cx="180.94" cy="-288" rx="48.19" ry="18"/>
<text text-anchor="middle" x="180.94" y="-284.3" font-family="Times New Roman,serif" font-size="14.00">OGXXG2</text>
</g>
<!-- XGXXG1&#45;&gt;OGXXG2 -->
<g id="edge17" class="edge">
<title>XGXXG1&#45;&gt;OGXXG2</title>
<path fill="none" stroke="black" d="M90.49,-306.46C102.55,-303.97 115.86,-301.22 128.45,-298.62"/>
<polygon fill="black" stroke="black" points="129.27,-302.03 138.36,-296.58 127.86,-295.17 129.27,-302.03"/>
</g>
<!-- XGGXG2 -->
<g id="node20" class="node">
<title>XGGXG2</title>
<ellipse fill="none" stroke="black" cx="180.94" cy="-774" rx="48.19" ry="18"/>
<text text-anchor="middle" x="180.94" y="-770.3" font-family="Times New Roman,serif" font-size="14.00">XGGXG2</text>
</g>
<!-- XGXXG1&#45;&gt;XGGXG2 -->
<g id="edge20" class="edge">
<title>XGXXG1&#45;&gt;XGGXG2</title>
<path fill="none" stroke="black" d="M54.22,-332.99C74.32,-403.48 147.76,-661.12 172.07,-746.39"/>
<polygon fill="black" stroke="black" points="168.74,-747.47 174.84,-756.13 175.47,-745.55 168.74,-747.47"/>
</g>
<!-- XGGGG2 -->
<g id="node27" class="node">
<title>XGGGG2</title>
<ellipse fill="none" stroke="black" cx="180.94" cy="-234" rx="48.99" ry="18"/>
<text text-anchor="middle" x="180.94" y="-230.3" font-family="Times New Roman,serif" font-size="14.00">XGGGG2</text>
</g>
<!-- XGXXG1&#45;&gt;XGGGG2 -->
<g id="edge27" class="edge">
<title>XGXXG1&#45;&gt;XGGGG2</title>
<path fill="none" stroke="black" d="M72.49,-299.25C89.01,-288.26 111.75,-273.41 132.19,-261 136.05,-258.66 140.12,-256.26 144.18,-253.9"/>
<polygon fill="black" stroke="black" points="146.06,-256.86 153,-248.85 142.58,-250.78 146.06,-256.86"/>
</g>
<!-- GGGXG2 -->
<g id="node30" class="node">
<title>GGGXG2</title>
<ellipse fill="none" stroke="black" cx="180.94" cy="-126" rx="48.99" ry="18"/>
<text text-anchor="middle" x="180.94" y="-122.3" font-family="Times New Roman,serif" font-size="14.00">GGGXG2</text>
</g>
<!-- XGXXG1&#45;&gt;GGGXG2 -->
<g id="edge30" class="edge">
<title>XGXXG1&#45;&gt;GGGXG2</title>
<path fill="none" stroke="black" d="M61.17,-297.56C84.34,-264.08 135.15,-190.7 162.19,-151.64"/>
<polygon fill="black" stroke="black" points="165.08,-153.61 167.89,-143.4 159.32,-149.63 165.08,-153.61"/>
</g>
<!-- blare -->
<g id="node38" class="node">
<title>blare</title>
<ellipse fill="none" stroke="black" cx="180.94" cy="-72" rx="28.7" ry="18"/>
<text text-anchor="middle" x="180.94" y="-68.3" font-family="Times New Roman,serif" font-size="14.00">blare</text>
</g>
<!-- XGXXG1&#45;&gt;blare -->
<g id="edge38" class="edge">
<title>XGXXG1&#45;&gt;blare</title>
<path fill="none" stroke="black" d="M51.8,-296.95C58.62,-256.97 79.84,-159.7 132.19,-99 136.44,-94.08 141.81,-89.86 147.41,-86.32"/>
<polygon fill="black" stroke="black" points="149.28,-89.29 156.27,-81.32 145.84,-83.19 149.28,-89.29"/>
</g>
<!-- GGGXG3 -->
<g id="node3" class="node">
<title>GGGXG3</title>
<ellipse fill="none" stroke="black" cx="314.43" cy="-612" rx="48.99" ry="18"/>
<text text-anchor="middle" x="314.43" y="-608.3" font-family="Times New Roman,serif" font-size="14.00">GGGXG3</text>
</g>
<!-- XGXXG2&#45;&gt;GGGXG3 -->
<g id="edge2" class="edge">
<title>XGXXG2&#45;&gt;GGGXG3</title>
<path fill="none" stroke="black" d="M214.1,-571.21C231.46,-578.34 253.07,-587.21 271.71,-594.87"/>
<polygon fill="black" stroke="black" points="270.56,-598.18 281.14,-598.74 273.22,-591.7 270.56,-598.18"/>
</g>
<!-- XGXXG3 -->
<g id="node10" class="node">
<title>XGXXG3</title>
<ellipse fill="none" stroke="black" cx="314.43" cy="-558" rx="48.19" ry="18"/>
<text text-anchor="middle" x="314.43" y="-554.3" font-family="Times New Roman,serif" font-size="14.00">XGXXG3</text>
</g>
<!-- XGXXG2&#45;&gt;XGXXG3 -->
<g id="edge9" class="edge">
<title>XGXXG2&#45;&gt;XGXXG3</title>
<path fill="none" stroke="black" d="M229.04,-558C237.82,-558 247.08,-558 256.13,-558"/>
<polygon fill="black" stroke="black" points="256.22,-561.5 266.22,-558 256.22,-554.5 256.22,-561.5"/>
</g>
<!-- XGGXG3 -->
<g id="node12" class="node">
<title>XGGXG3</title>
<ellipse fill="none" stroke="black" cx="314.43" cy="-504" rx="48.19" ry="18"/>
<text text-anchor="middle" x="314.43" y="-500.3" font-family="Times New Roman,serif" font-size="14.00">XGGXG3</text>
</g>
<!-- XGXXG2&#45;&gt;XGGXG3 -->
<g id="edge11" class="edge">
<title>XGXXG2&#45;&gt;XGGXG3</title>
<path fill="none" stroke="black" d="M214.1,-544.79C231.46,-537.66 253.07,-528.79 271.71,-521.13"/>
<polygon fill="black" stroke="black" points="273.22,-524.3 281.14,-517.26 270.56,-517.82 273.22,-524.3"/>
</g>
<!-- fluke -->
<g id="node23" class="node">
<title>fluke</title>
<ellipse fill="none" stroke="black" cx="314.43" cy="-666" rx="28.7" ry="18"/>
<text text-anchor="middle" x="314.43" y="-662.3" font-family="Times New Roman,serif" font-size="14.00">fluke</text>
</g>
<!-- XGXXG2&#45;&gt;fluke -->
<g id="edge23" class="edge">
<title>XGXXG2&#45;&gt;fluke</title>
<path fill="none" stroke="black" d="M197.2,-575.13C213.2,-592.5 239.59,-619.51 265.68,-639 270.89,-642.89 276.71,-646.63 282.46,-650.01"/>
<polygon fill="black" stroke="black" points="280.88,-653.14 291.31,-655.02 284.33,-647.05 280.88,-653.14"/>
</g>
<!-- flume -->
<g id="node4" class="node">
<title>flume</title>
<ellipse fill="none" stroke="black" cx="448.57" cy="-612" rx="30.59" ry="18"/>
<text text-anchor="middle" x="448.57" y="-608.3" font-family="Times New Roman,serif" font-size="14.00">flume</text>
</g>
<!-- GGGXG3&#45;&gt;flume -->
<g id="edge3" class="edge">
<title>GGGXG3&#45;&gt;flume</title>
<path fill="none" stroke="black" d="M363.51,-612C377.97,-612 393.69,-612 407.57,-612"/>
<polygon fill="black" stroke="black" points="407.78,-615.5 417.78,-612 407.78,-608.5 407.78,-615.5"/>
</g>
<!-- GGGXG4 -->
<g id="node33" class="node">
<title>GGGXG4</title>
<ellipse fill="none" stroke="black" cx="448.57" cy="-666" rx="48.99" ry="18"/>
<text text-anchor="middle" x="448.57" y="-662.3" font-family="Times New Roman,serif" font-size="14.00">GGGXG4</text>
</g>
<!-- GGGXG3&#45;&gt;GGGXG4 -->
<g id="edge33" class="edge">
<title>GGGXG3&#45;&gt;GGGXG4</title>
<path fill="none" stroke="black" d="M347.75,-625.21C365.19,-632.34 386.92,-641.21 405.64,-648.87"/>
<polygon fill="black" stroke="black" points="404.54,-652.2 415.12,-652.74 407.19,-645.72 404.54,-652.2"/>
</g>
<!-- GGXOG3 -->
<g id="node6" class="node">
<title>GGXOG3</title>
<ellipse fill="none" stroke="black" cx="314.43" cy="-396" rx="48.99" ry="18"/>
<text text-anchor="middle" x="314.43" y="-392.3" font-family="Times New Roman,serif" font-size="14.00">GGXOG3</text>
</g>
<!-- XGOXG2&#45;&gt;GGXOG3 -->
<g id="edge5" class="edge">
<title>XGOXG2&#45;&gt;GGXOG3</title>
<path fill="none" stroke="black" d="M229.04,-396C237.51,-396 246.44,-396 255.18,-396"/>
<polygon fill="black" stroke="black" points="255.33,-399.5 265.33,-396 255.33,-392.5 255.33,-399.5"/>
</g>
<!-- algae -->
<g id="node19" class="node">
<title>algae</title>
<ellipse fill="none" stroke="black" cx="314.43" cy="-450" rx="28.7" ry="18"/>
<text text-anchor="middle" x="314.43" y="-446.3" font-family="Times New Roman,serif" font-size="14.00">algae</text>
</g>
<!-- XGOXG2&#45;&gt;algae -->
<g id="edge19" class="edge">
<title>XGOXG2&#45;&gt;algae</title>
<path fill="none" stroke="black" d="M214.1,-409.21C234.23,-417.47 260.09,-428.1 280.38,-436.43"/>
<polygon fill="black" stroke="black" points="279.26,-439.75 289.84,-440.31 281.92,-433.28 279.26,-439.75"/>
</g>
<!-- alone -->
<g id="node7" class="node">
<title>alone</title>
<ellipse fill="none" stroke="black" cx="448.57" cy="-396" rx="29.8" ry="18"/>
<text text-anchor="middle" x="448.57" y="-392.3" font-family="Times New Roman,serif" font-size="14.00">alone</text>
</g>
<!-- GGXOG3&#45;&gt;alone -->
<g id="edge6" class="edge">
<title>GGXOG3&#45;&gt;alone</title>
<path fill="none" stroke="black" d="M363.51,-396C378.21,-396 394.2,-396 408.24,-396"/>
<polygon fill="black" stroke="black" points="408.55,-399.5 418.55,-396 408.55,-392.5 408.55,-399.5"/>
</g>
<!-- bloke -->
<g id="node9" class="node">
<title>bloke</title>
<ellipse fill="none" stroke="black" cx="314.43" cy="-342" rx="30.59" ry="18"/>
<text text-anchor="middle" x="314.43" y="-338.3" font-family="Times New Roman,serif" font-size="14.00">bloke</text>
</g>
<!-- GGXXG2&#45;&gt;bloke -->
<g id="edge8" class="edge">
<title>GGXXG2&#45;&gt;bloke</title>
<path fill="none" stroke="black" d="M229.04,-342C243.6,-342 259.49,-342 273.52,-342"/>
<polygon fill="black" stroke="black" points="273.83,-345.5 283.83,-342 273.83,-338.5 273.83,-345.5"/>
</g>
<!-- elope -->
<g id="node11" class="node">
<title>elope</title>
<ellipse fill="none" stroke="black" cx="448.57" cy="-558" rx="30.59" ry="18"/>
<text text-anchor="middle" x="448.57" y="-554.3" font-family="Times New Roman,serif" font-size="14.00">elope</text>
</g>
<!-- XGXXG3&#45;&gt;elope -->
<g id="edge10" class="edge">
<title>XGXXG3&#45;&gt;elope</title>
<path fill="none" stroke="black" d="M362.76,-558C377.4,-558 393.37,-558 407.47,-558"/>
<polygon fill="black" stroke="black" points="407.83,-561.5 417.83,-558 407.83,-554.5 407.83,-561.5"/>
</g>
<!-- OGGXG4 -->
<g id="node13" class="node">
<title>OGGXG4</title>
<ellipse fill="none" stroke="black" cx="448.57" cy="-504" rx="48.99" ry="18"/>
<text text-anchor="middle" x="448.57" y="-500.3" font-family="Times New Roman,serif" font-size="14.00">OGGXG4</text>
</g>
<!-- XGXXG3&#45;&gt;OGGXG4 -->
<g id="edge15" class="edge">
<title>XGXXG3&#45;&gt;OGGXG4</title>
<path fill="none" stroke="black" d="M347.75,-544.79C365.19,-537.66 386.92,-528.79 405.64,-521.13"/>
<polygon fill="black" stroke="black" points="407.19,-524.28 415.12,-517.26 404.54,-517.8 407.19,-524.28"/>
</g>
<!-- XGGXG3&#45;&gt;OGGXG4 -->
<g id="edge12" class="edge">
<title>XGGXG3&#45;&gt;OGGXG4</title>
<path fill="none" stroke="black" d="M362.76,-504C371.48,-504 380.67,-504 389.66,-504"/>
<polygon fill="black" stroke="black" points="389.68,-507.5 399.68,-504 389.68,-500.5 389.68,-507.5"/>
</g>
<!-- elude -->
<g id="node15" class="node">
<title>elude</title>
<ellipse fill="none" stroke="black" cx="448.57" cy="-450" rx="29.8" ry="18"/>
<text text-anchor="middle" x="448.57" y="-446.3" font-family="Times New Roman,serif" font-size="14.00">elude</text>
</g>
<!-- XGGXG3&#45;&gt;elude -->
<g id="edge14" class="edge">
<title>XGGXG3&#45;&gt;elude</title>
<path fill="none" stroke="black" d="M347.75,-490.79C367.85,-482.58 393.63,-472.04 413.96,-463.74"/>
<polygon fill="black" stroke="black" points="415.52,-466.88 423.45,-459.86 412.87,-460.4 415.52,-466.88"/>
</g>
<!-- plume -->
<g id="node14" class="node">
<title>plume</title>
<ellipse fill="none" stroke="black" cx="566.46" cy="-531" rx="32.49" ry="18"/>
<text text-anchor="middle" x="566.46" y="-527.3" font-family="Times New Roman,serif" font-size="14.00">plume</text>
</g>
<!-- OGGXG4&#45;&gt;plume -->
<g id="edge13" class="edge">
<title>OGGXG4&#45;&gt;plume</title>
<path fill="none" stroke="black" d="M490.1,-513.44C501.82,-516.17 514.57,-519.14 526.21,-521.85"/>
<polygon fill="black" stroke="black" points="525.55,-525.3 536.09,-524.16 527.14,-518.48 525.55,-525.3"/>
</g>
<!-- glove -->
<g id="node16" class="node">
<title>glove</title>
<ellipse fill="none" stroke="black" cx="566.46" cy="-477" rx="30.59" ry="18"/>
<text text-anchor="middle" x="566.46" y="-473.3" font-family="Times New Roman,serif" font-size="14.00">glove</text>
</g>
<!-- OGGXG4&#45;&gt;glove -->
<g id="edge16" class="edge">
<title>OGGXG4&#45;&gt;glove</title>
<path fill="none" stroke="black" d="M490.1,-494.56C502.44,-491.68 515.95,-488.54 528.07,-485.71"/>
<polygon fill="black" stroke="black" points="528.93,-489.11 537.87,-483.43 527.34,-482.29 528.93,-489.11"/>
</g>
<!-- globe -->
<g id="node18" class="node">
<title>globe</title>
<ellipse fill="none" stroke="black" cx="314.43" cy="-288" rx="30.59" ry="18"/>
<text text-anchor="middle" x="314.43" y="-284.3" font-family="Times New Roman,serif" font-size="14.00">globe</text>
</g>
<!-- OGXXG2&#45;&gt;globe -->
<g id="edge18" class="edge">
<title>OGXXG2&#45;&gt;globe</title>
<path fill="none" stroke="black" d="M229.04,-288C243.6,-288 259.49,-288 273.52,-288"/>
<polygon fill="black" stroke="black" points="273.83,-291.5 283.83,-288 273.83,-284.5 273.83,-291.5"/>
</g>
<!-- XOXXO3 -->
<g id="node21" class="node">
<title>XOXXO3</title>
<ellipse fill="none" stroke="black" cx="314.43" cy="-909" rx="48.19" ry="18"/>
<text text-anchor="middle" x="314.43" y="-905.3" font-family="Times New Roman,serif" font-size="14.00">XOXXO3</text>
</g>
<!-- XGGXG2&#45;&gt;XOXXO3 -->
<g id="edge21" class="edge">
<title>XGGXG2&#45;&gt;XOXXO3</title>
<path fill="none" stroke="black" d="M198.32,-790.82C221.36,-814.47 263.43,-857.67 289.83,-884.77"/>
<polygon fill="black" stroke="black" points="287.35,-887.24 296.83,-891.96 292.36,-882.36 287.35,-887.24"/>
</g>
<!-- XOXXX3 -->
<g id="node24" class="node">
<title>XOXXX3</title>
<ellipse fill="none" stroke="black" cx="314.43" cy="-828" rx="47.39" ry="18"/>
<text text-anchor="middle" x="314.43" y="-824.3" font-family="Times New Roman,serif" font-size="14.00">XOXXX3</text>
</g>
<!-- XGGXG2&#45;&gt;XOXXX3 -->
<g id="edge24" class="edge">
<title>XGGXG2&#45;&gt;XOXXX3</title>
<path fill="none" stroke="black" d="M214.1,-787.21C231.58,-794.39 253.4,-803.35 272.12,-811.04"/>
<polygon fill="black" stroke="black" points="271.01,-814.37 281.59,-814.93 273.67,-807.89 271.01,-814.37"/>
</g>
<!-- XOXOX3 -->
<g id="node35" class="node">
<title>XOXOX3</title>
<ellipse fill="none" stroke="black" cx="314.43" cy="-720" rx="48.19" ry="18"/>
<text text-anchor="middle" x="314.43" y="-716.3" font-family="Times New Roman,serif" font-size="14.00">XOXOX3</text>
</g>
<!-- XGGXG2&#45;&gt;XOXOX3 -->
<g id="edge35" class="edge">
<title>XGGXG2&#45;&gt;XOXOX3</title>
<path fill="none" stroke="black" d="M214.1,-760.79C231.46,-753.66 253.07,-744.79 271.71,-737.13"/>
<polygon fill="black" stroke="black" points="273.22,-740.3 281.14,-733.26 270.56,-733.82 273.22,-740.3"/>
</g>
<!-- GOXXX3 -->
<g id="node39" class="node">
<title>GOXXX3</title>
<ellipse fill="none" stroke="black" cx="314.43" cy="-774" rx="48.19" ry="18"/>
<text text-anchor="middle" x="314.43" y="-770.3" font-family="Times New Roman,serif" font-size="14.00">GOXXX3</text>
</g>
<!-- XGGXG2&#45;&gt;GOXXX3 -->
<g id="edge39" class="edge">
<title>XGGXG2&#45;&gt;GOXXX3</title>
<path fill="none" stroke="black" d="M229.04,-774C237.82,-774 247.08,-774 256.13,-774"/>
<polygon fill="black" stroke="black" points="256.22,-777.5 266.22,-774 256.22,-770.5 256.22,-777.5"/>
</g>
<!-- plane -->
<g id="node22" class="node">
<title>plane</title>
<ellipse fill="none" stroke="black" cx="448.57" cy="-936" rx="29.8" ry="18"/>
<text text-anchor="middle" x="448.57" y="-932.3" font-family="Times New Roman,serif" font-size="14.00">plane</text>
</g>
<!-- XOXXO3&#45;&gt;plane -->
<g id="edge22" class="edge">
<title>XOXXO3&#45;&gt;plane</title>
<path fill="none" stroke="black" d="M356.88,-917.47C373.93,-920.95 393.53,-924.96 410.13,-928.35"/>
<polygon fill="black" stroke="black" points="409.54,-931.8 420.04,-930.37 410.94,-924.94 409.54,-931.8"/>
</g>
<!-- OGGGG4 -->
<g id="node25" class="node">
<title>OGGGG4</title>
<ellipse fill="none" stroke="black" cx="448.57" cy="-828" rx="49.29" ry="18"/>
<text text-anchor="middle" x="448.57" y="-824.3" font-family="Times New Roman,serif" font-size="14.00">OGGGG4</text>
</g>
<!-- XOXXX3&#45;&gt;OGGGG4 -->
<g id="edge25" class="edge">
<title>XOXXX3&#45;&gt;OGGGG4</title>
<path fill="none" stroke="black" d="M362.02,-828C370.76,-828 380.01,-828 389.06,-828"/>
<polygon fill="black" stroke="black" points="389.17,-831.5 399.17,-828 389.17,-824.5 389.17,-831.5"/>
</g>
<!-- elate -->
<g id="node37" class="node">
<title>elate</title>
<ellipse fill="none" stroke="black" cx="448.57" cy="-882" rx="27" ry="18"/>
<text text-anchor="middle" x="448.57" y="-878.3" font-family="Times New Roman,serif" font-size="14.00">elate</text>
</g>
<!-- XOXXX3&#45;&gt;elate -->
<g id="edge37" class="edge">
<title>XOXXX3&#45;&gt;elate</title>
<path fill="none" stroke="black" d="M347.42,-841.07C368.12,-849.53 394.98,-860.51 415.66,-868.96"/>
<polygon fill="black" stroke="black" points="414.4,-872.23 424.98,-872.77 417.05,-865.75 414.4,-872.23"/>
</g>
<!-- plate -->
<g id="node26" class="node">
<title>plate</title>
<ellipse fill="none" stroke="black" cx="566.46" cy="-828" rx="27.9" ry="18"/>
<text text-anchor="middle" x="566.46" y="-824.3" font-family="Times New Roman,serif" font-size="14.00">plate</text>
</g>
<!-- OGGGG4&#45;&gt;plate -->
<g id="edge26" class="edge">
<title>OGGGG4&#45;&gt;plate</title>
<path fill="none" stroke="black" d="M498.05,-828C508.16,-828 518.67,-828 528.29,-828"/>
<polygon fill="black" stroke="black" points="528.33,-831.5 538.33,-828 528.33,-824.5 528.33,-831.5"/>
</g>
<!-- XGGGG3 -->
<g id="node28" class="node">
<title>XGGGG3</title>
<ellipse fill="none" stroke="black" cx="314.43" cy="-180" rx="48.99" ry="18"/>
<text text-anchor="middle" x="314.43" y="-176.3" font-family="Times New Roman,serif" font-size="14.00">XGGGG3</text>
</g>
<!-- XGGGG2&#45;&gt;XGGGG3 -->
<g id="edge28" class="edge">
<title>XGGGG2&#45;&gt;XGGGG3</title>
<path fill="none" stroke="black" d="M214.1,-220.79C231.46,-213.66 253.07,-204.79 271.71,-197.13"/>
<polygon fill="black" stroke="black" points="273.22,-200.3 281.14,-193.26 270.56,-193.82 273.22,-200.3"/>
</g>
<!-- flare -->
<g id="node42" class="node">
<title>flare</title>
<ellipse fill="none" stroke="black" cx="314.43" cy="-234" rx="27" ry="18"/>
<text text-anchor="middle" x="314.43" y="-230.3" font-family="Times New Roman,serif" font-size="14.00">flare</text>
</g>
<!-- XGGGG2&#45;&gt;flare -->
<g id="edge43" class="edge">
<title>XGGGG2&#45;&gt;flare</title>
<path fill="none" stroke="black" d="M229.78,-234C245.38,-234 262.43,-234 277.05,-234"/>
<polygon fill="black" stroke="black" points="277.21,-237.5 287.21,-234 277.21,-230.5 277.21,-237.5"/>
</g>
<!-- glare -->
<g id="node29" class="node">
<title>glare</title>
<ellipse fill="none" stroke="black" cx="448.57" cy="-180" rx="27.9" ry="18"/>
<text text-anchor="middle" x="448.57" y="-176.3" font-family="Times New Roman,serif" font-size="14.00">glare</text>
</g>
<!-- XGGGG3&#45;&gt;glare -->
<g id="edge29" class="edge">
<title>XGGGG3&#45;&gt;glare</title>
<path fill="none" stroke="black" d="M363.51,-180C378.95,-180 395.81,-180 410.34,-180"/>
<polygon fill="black" stroke="black" points="410.47,-183.5 420.47,-180 410.47,-176.5 410.47,-183.5"/>
</g>
<!-- XXXOO3 -->
<g id="node31" class="node">
<title>XXXOO3</title>
<ellipse fill="none" stroke="black" cx="314.43" cy="-126" rx="48.19" ry="18"/>
<text text-anchor="middle" x="314.43" y="-122.3" font-family="Times New Roman,serif" font-size="14.00">XXXOO3</text>
</g>
<!-- GGGXG2&#45;&gt;XXXOO3 -->
<g id="edge31" class="edge">
<title>GGGXG2&#45;&gt;XXXOO3</title>
<path fill="none" stroke="black" d="M229.78,-126C238.33,-126 247.32,-126 256.1,-126"/>
<polygon fill="black" stroke="black" points="256.28,-129.5 266.28,-126 256.28,-122.5 256.28,-129.5"/>
</g>
<!-- XXOOO3 -->
<g id="node43" class="node">
<title>XXOOO3</title>
<ellipse fill="none" stroke="black" cx="314.43" cy="-72" rx="48.19" ry="18"/>
<text text-anchor="middle" x="314.43" y="-68.3" font-family="Times New Roman,serif" font-size="14.00">XXOOO3</text>
</g>
<!-- GGGXG2&#45;&gt;XXOOO3 -->
<g id="edge44" class="edge">
<title>GGGXG2&#45;&gt;XXOOO3</title>
<path fill="none" stroke="black" d="M214.1,-112.79C231.46,-105.66 253.07,-96.79 271.71,-89.13"/>
<polygon fill="black" stroke="black" points="273.22,-92.3 281.14,-85.26 270.56,-85.82 273.22,-92.3"/>
</g>
<!-- OXXOO3 -->
<g id="node46" class="node">
<title>OXXOO3</title>
<ellipse fill="none" stroke="black" cx="314.43" cy="-18" rx="48.19" ry="18"/>
<text text-anchor="middle" x="314.43" y="-14.3" font-family="Times New Roman,serif" font-size="14.00">OXXOO3</text>
</g>
<!-- GGGXG2&#45;&gt;OXXOO3 -->
<g id="edge48" class="edge">
<title>GGGXG2&#45;&gt;OXXOO3</title>
<path fill="none" stroke="black" d="M211.69,-112.03C218.02,-108.31 224.38,-103.93 229.68,-99 250.81,-79.37 244.55,-64.63 265.68,-45 268.58,-42.31 271.8,-39.77 275.15,-37.42"/>
<polygon fill="black" stroke="black" points="277.14,-40.31 283.67,-31.97 273.36,-34.41 277.14,-40.31"/>
</g>
<!-- blaze -->
<g id="node32" class="node">
<title>blaze</title>
<ellipse fill="none" stroke="black" cx="448.57" cy="-126" rx="29.5" ry="18"/>
<text text-anchor="middle" x="448.57" y="-122.3" font-family="Times New Roman,serif" font-size="14.00">blaze</text>
</g>
<!-- XXXOO3&#45;&gt;blaze -->
<g id="edge32" class="edge">
<title>XXXOO3&#45;&gt;blaze</title>
<path fill="none" stroke="black" d="M362.76,-126C377.9,-126 394.46,-126 408.91,-126"/>
<polygon fill="black" stroke="black" points="409,-129.5 419,-126 409,-122.5 409,-129.5"/>
</g>
<!-- flute -->
<g id="node34" class="node">
<title>flute</title>
<ellipse fill="none" stroke="black" cx="566.46" cy="-612" rx="27" ry="18"/>
<text text-anchor="middle" x="566.46" y="-608.3" font-family="Times New Roman,serif" font-size="14.00">flute</text>
</g>
<!-- GGGXG4&#45;&gt;flute -->
<g id="edge34" class="edge">
<title>GGGXG4&#45;&gt;flute</title>
<path fill="none" stroke="black" d="M479.72,-651.95C496.54,-644.12 517.45,-634.37 534.41,-626.47"/>
<polygon fill="black" stroke="black" points="536.3,-629.45 543.88,-622.06 533.34,-623.11 536.3,-629.45"/>
</g>
<!-- flame -->
<g id="node40" class="node">
<title>flame</title>
<ellipse fill="none" stroke="black" cx="566.46" cy="-720" rx="30.59" ry="18"/>
<text text-anchor="middle" x="566.46" y="-716.3" font-family="Times New Roman,serif" font-size="14.00">flame</text>
</g>
<!-- GGGXG4&#45;&gt;flame -->
<g id="edge41" class="edge">
<title>GGGXG4&#45;&gt;flame</title>
<path fill="none" stroke="black" d="M479.72,-680.05C495.98,-687.62 516.06,-696.98 532.7,-704.74"/>
<polygon fill="black" stroke="black" points="531.51,-708.04 542.05,-709.09 534.46,-701.7 531.51,-708.04"/>
</g>
<!-- glaze -->
<g id="node45" class="node">
<title>glaze</title>
<ellipse fill="none" stroke="black" cx="566.46" cy="-666" rx="28.7" ry="18"/>
<text text-anchor="middle" x="566.46" y="-662.3" font-family="Times New Roman,serif" font-size="14.00">glaze</text>
</g>
<!-- GGGXG4&#45;&gt;glaze -->
<g id="edge47" class="edge">
<title>GGGXG4&#45;&gt;glaze</title>
<path fill="none" stroke="black" d="M497.38,-666C507.45,-666 517.95,-666 527.59,-666"/>
<polygon fill="black" stroke="black" points="527.67,-669.5 537.67,-666 527.67,-662.5 527.67,-669.5"/>
</g>
<!-- XOXOX3&#45;&gt;GGGXG4 -->
<g id="edge46" class="edge">
<title>XOXOX3&#45;&gt;GGGXG4</title>
<path fill="none" stroke="black" d="M347.75,-706.79C365.19,-699.66 386.92,-690.79 405.64,-683.13"/>
<polygon fill="black" stroke="black" points="407.19,-686.28 415.12,-679.26 404.54,-679.8 407.19,-686.28"/>
</g>
<!-- glade -->
<g id="node36" class="node">
<title>glade</title>
<ellipse fill="none" stroke="black" cx="448.57" cy="-720" rx="29.8" ry="18"/>
<text text-anchor="middle" x="448.57" y="-716.3" font-family="Times New Roman,serif" font-size="14.00">glade</text>
</g>
<!-- XOXOX3&#45;&gt;glade -->
<g id="edge36" class="edge">
<title>XOXOX3&#45;&gt;glade</title>
<path fill="none" stroke="black" d="M362.76,-720C377.78,-720 394.2,-720 408.57,-720"/>
<polygon fill="black" stroke="black" points="408.61,-723.5 418.61,-720 408.61,-716.5 408.61,-723.5"/>
</g>
<!-- GOXXX3&#45;&gt;GGGXG4 -->
<g id="edge40" class="edge">
<title>GOXXX3&#45;&gt;GGGXG4</title>
<path fill="none" stroke="black" d="M345.19,-760.03C351.51,-756.31 357.87,-751.93 363.17,-747 384.3,-727.37 377.99,-712.57 399.17,-693 402.11,-690.29 405.37,-687.74 408.77,-685.38"/>
<polygon fill="black" stroke="black" points="410.83,-688.22 417.4,-679.91 407.08,-682.31 410.83,-688.22"/>
</g>
<!-- flake -->
<g id="node41" class="node">
<title>flake</title>
<ellipse fill="none" stroke="black" cx="448.57" cy="-774" rx="27.9" ry="18"/>
<text text-anchor="middle" x="448.57" y="-770.3" font-family="Times New Roman,serif" font-size="14.00">flake</text>
</g>
<!-- GOXXX3&#45;&gt;flake -->
<g id="edge42" class="edge">
<title>GOXXX3&#45;&gt;flake</title>
<path fill="none" stroke="black" d="M362.76,-774C378.37,-774 395.51,-774 410.27,-774"/>
<polygon fill="black" stroke="black" points="410.53,-777.5 420.53,-774 410.53,-770.5 410.53,-777.5"/>
</g>
<!-- blade -->
<g id="node44" class="node">
<title>blade</title>
<ellipse fill="none" stroke="black" cx="448.57" cy="-72" rx="30.59" ry="18"/>
<text text-anchor="middle" x="448.57" y="-68.3" font-family="Times New Roman,serif" font-size="14.00">blade</text>
</g>
<!-- XXOOO3&#45;&gt;blade -->
<g id="edge45" class="edge">
<title>XXOOO3&#45;&gt;blade</title>
<path fill="none" stroke="black" d="M362.76,-72C377.4,-72 393.37,-72 407.47,-72"/>
<polygon fill="black" stroke="black" points="407.83,-75.5 417.83,-72 407.83,-68.5 407.83,-75.5"/>
</g>
<!-- blame -->
<g id="node47" class="node">
<title>blame</title>
<ellipse fill="none" stroke="black" cx="448.57" cy="-18" rx="32.49" ry="18"/>
<text text-anchor="middle" x="448.57" y="-14.3" font-family="Times New Roman,serif" font-size="14.00">blame</text>
</g>
<!-- OXXOO3&#45;&gt;blame -->
<g id="edge49" class="edge">
<title>OXXOO3&#45;&gt;blame</title>
<path fill="none" stroke="black" d="M362.76,-18C376.81,-18 392.08,-18 405.75,-18"/>
<polygon fill="black" stroke="black" points="405.84,-21.5 415.84,-18 405.84,-14.5 405.84,-21.5"/>
</g>
</g>
</svg>
