<?xml version="1.0" encoding="UTF-8" standalone="no"?>
<!DOCTYPE svg PUBLIC "-//W3C//DTD SVG 1.1//EN"
 "http://www.w3.org/Graphics/SVG/1.1/DTD/svg11.dtd">
<!-- Generated by graphviz version 2.50.0 (20211204.2007)
 -->
<!-- Pages: 1 -->
<svg width="330pt" height="98pt"
 viewBox="0.00 0.00 329.58 98.00" xmlns="http://www.w3.org/2000/svg" xmlns:xlink="http://www.w3.org/1999/xlink">
<g id="graph0" class="graph" transform="scale(1 1) rotate(0) translate(4 94)">
<polygon fill="white" stroke="transparent" points="-4,4 -4,-94 325.58,-94 325.58,4 -4,4"/>
<!-- XXGGO1 -->
<g id="node1" class="node">
<title>XXGGO1</title>
<ellipse fill="none" stroke="black" cx="48.1" cy="-45" rx="48.19" ry="18"/>
<text text-anchor="middle" x="48.1" y="-41.3" font-family="Times New Roman,serif" font-size="14.00">XXGGO1</text>
</g>
<!-- edict -->
<g id="node2" class="node">
<title>edict</title>
<ellipse fill="none" stroke="black" cx="180.94" cy="-72" rx="28.7" ry="18"/>
<text text-anchor="middle" x="180.94" y="-68.3" font-family="Times New Roman,serif" font-size="14.00">edict</text>
</g>
<!-- XXGGO1&#45;&gt;edict -->
<g id="edge1" class="edge">
<title>XXGGO1&#45;&gt;edict</title>
<path fill="none" stroke="black" d="M90.49,-53.54C107.61,-57.07 127.27,-61.13 143.79,-64.54"/>
<polygon fill="black" stroke="black" points="143.12,-67.98 153.62,-66.57 144.53,-61.12 143.12,-67.98"/>
</g>
<!-- GXGGG2 -->
<g id="node3" class="node">
<title>GXGGG2</title>
<ellipse fill="none" stroke="black" cx="180.94" cy="-18" rx="48.99" ry="18"/>
<text text-anchor="middle" x="180.94" y="-14.3" font-family="Times New Roman,serif" font-size="14.00">GXGGG2</text>
</g>
<!-- XXGGO1&#45;&gt;GXGGG2 -->
<g id="edge2" class="edge">
<title>XXGGO1&#45;&gt;GXGGG2</title>
<path fill="none" stroke="black" d="M90.49,-36.46C102.43,-33.99 115.6,-31.28 128.08,-28.7"/>
<polygon fill="black" stroke="black" points="128.82,-32.12 137.91,-26.67 127.41,-25.27 128.82,-32.12"/>
</g>
<!-- evict -->
<g id="node4" class="node">
<title>evict</title>
<ellipse fill="none" stroke="black" cx="293.63" cy="-18" rx="27.9" ry="18"/>
<text text-anchor="middle" x="293.63" y="-14.3" font-family="Times New Roman,serif" font-size="14.00">evict</text>
</g>
<!-- GXGGG2&#45;&gt;evict -->
<g id="edge3" class="edge">
<title>GXGGG2&#45;&gt;evict</title>
<path fill="none" stroke="black" d="M229.84,-18C238.47,-18 247.35,-18 255.61,-18"/>
<polygon fill="black" stroke="black" points="255.67,-21.5 265.67,-18 255.67,-14.5 255.67,-21.5"/>
</g>
</g>
</svg>
