<?xml version="1.0" encoding="UTF-8" standalone="no"?>
<!DOCTYPE svg PUBLIC "-//W3C//DTD SVG 1.1//EN"
 "http://www.w3.org/Graphics/SVG/1.1/DTD/svg11.dtd">
<!-- Generated by graphviz version 2.50.0 (20211204.2007)
 -->
<!-- Pages: 1 -->
<svg width="471pt" height="152pt"
 viewBox="0.00 0.00 470.87 152.00" xmlns="http://www.w3.org/2000/svg" xmlns:xlink="http://www.w3.org/1999/xlink">
<g id="graph0" class="graph" transform="scale(1 1) rotate(0) translate(4 148)">
<polygon fill="white" stroke="transparent" points="-4,4 -4,-148 466.87,-148 466.87,4 -4,4"/>
<!-- XXGOG1 -->
<g id="node1" class="node">
<title>XXGOG1</title>
<ellipse fill="none" stroke="black" cx="48.1" cy="-45" rx="48.19" ry="18"/>
<text text-anchor="middle" x="48.1" y="-41.3" font-family="Times New Roman,serif" font-size="14.00">XXGOG1</text>
</g>
<!-- XXOXO2 -->
<g id="node2" class="node">
<title>XXOXO2</title>
<ellipse fill="none" stroke="black" cx="180.29" cy="-72" rx="48.19" ry="18"/>
<text text-anchor="middle" x="180.29" y="-68.3" font-family="Times New Roman,serif" font-size="14.00">XXOXO2</text>
</g>
<!-- XXGOG1&#45;&gt;XXOXO2 -->
<g id="edge1" class="edge">
<title>XXGOG1&#45;&gt;XXOXO2</title>
<path fill="none" stroke="black" d="M90.65,-53.62C102.39,-56.05 115.32,-58.73 127.58,-61.28"/>
<polygon fill="black" stroke="black" points="127.18,-64.77 137.68,-63.37 128.6,-57.91 127.18,-64.77"/>
</g>
<!-- XGOXX2 -->
<g id="node4" class="node">
<title>XGOXX2</title>
<ellipse fill="none" stroke="black" cx="180.29" cy="-18" rx="48.19" ry="18"/>
<text text-anchor="middle" x="180.29" y="-14.3" font-family="Times New Roman,serif" font-size="14.00">XGOXX2</text>
</g>
<!-- XXGOG1&#45;&gt;XGOXX2 -->
<g id="edge3" class="edge">
<title>XXGOG1&#45;&gt;XGOXX2</title>
<path fill="none" stroke="black" d="M90.65,-36.38C102.39,-33.95 115.32,-31.27 127.58,-28.72"/>
<polygon fill="black" stroke="black" points="128.6,-32.09 137.68,-26.63 127.18,-25.23 128.6,-32.09"/>
</g>
<!-- chide -->
<g id="node3" class="node">
<title>chide</title>
<ellipse fill="none" stroke="black" cx="313.13" cy="-126" rx="30.59" ry="18"/>
<text text-anchor="middle" x="313.13" y="-122.3" font-family="Times New Roman,serif" font-size="14.00">chide</text>
</g>
<!-- XXOXO2&#45;&gt;chide -->
<g id="edge2" class="edge">
<title>XXOXO2&#45;&gt;chide</title>
<path fill="none" stroke="black" d="M213.29,-85.21C232.93,-93.31 258.05,-103.68 278.06,-111.94"/>
<polygon fill="black" stroke="black" points="276.84,-115.22 287.42,-115.8 279.51,-108.75 276.84,-115.22"/>
</g>
<!-- GGGXG3 -->
<g id="node6" class="node">
<title>GGGXG3</title>
<ellipse fill="none" stroke="black" cx="313.13" cy="-72" rx="48.99" ry="18"/>
<text text-anchor="middle" x="313.13" y="-68.3" font-family="Times New Roman,serif" font-size="14.00">GGGXG3</text>
</g>
<!-- XXOXO2&#45;&gt;GGGXG3 -->
<g id="edge5" class="edge">
<title>XXOXO2&#45;&gt;GGGXG3</title>
<path fill="none" stroke="black" d="M228.52,-72C236.75,-72 245.38,-72 253.86,-72"/>
<polygon fill="black" stroke="black" points="254.08,-75.5 264.08,-72 254.08,-68.5 254.08,-75.5"/>
</g>
<!-- crime -->
<g id="node5" class="node">
<title>crime</title>
<ellipse fill="none" stroke="black" cx="313.13" cy="-18" rx="30.59" ry="18"/>
<text text-anchor="middle" x="313.13" y="-14.3" font-family="Times New Roman,serif" font-size="14.00">crime</text>
</g>
<!-- XGOXX2&#45;&gt;crime -->
<g id="edge4" class="edge">
<title>XGOXX2&#45;&gt;crime</title>
<path fill="none" stroke="black" d="M228.52,-18C242.87,-18 258.49,-18 272.3,-18"/>
<polygon fill="black" stroke="black" points="272.46,-21.5 282.46,-18 272.46,-14.5 272.46,-21.5"/>
</g>
<!-- chime -->
<g id="node7" class="node">
<title>chime</title>
<ellipse fill="none" stroke="black" cx="430.37" cy="-72" rx="32.49" ry="18"/>
<text text-anchor="middle" x="430.37" y="-68.3" font-family="Times New Roman,serif" font-size="14.00">chime</text>
</g>
<!-- GGGXG3&#45;&gt;chime -->
<g id="edge6" class="edge">
<title>GGGXG3&#45;&gt;chime</title>
<path fill="none" stroke="black" d="M362,-72C370.44,-72 379.16,-72 387.42,-72"/>
<polygon fill="black" stroke="black" points="387.57,-75.5 397.57,-72 387.57,-68.5 387.57,-75.5"/>
</g>
</g>
</svg>
