<?xml version="1.0" encoding="UTF-8" standalone="no"?>
<!DOCTYPE svg PUBLIC "-//W3C//DTD SVG 1.1//EN"
 "http://www.w3.org/Graphics/SVG/1.1/DTD/svg11.dtd">
<!-- Generated by graphviz version 2.50.0 (20211204.2007)
 -->
<!-- Pages: 1 -->
<svg width="467pt" height="246pt"
 viewBox="0.00 0.00 466.97 246.00" xmlns="http://www.w3.org/2000/svg" xmlns:xlink="http://www.w3.org/1999/xlink">
<g id="graph0" class="graph" transform="scale(1 1) rotate(0) translate(4 242)">
<polygon fill="white" stroke="transparent" points="-4,4 -4,-242 462.97,-242 462.97,4 -4,4"/>
<!-- XGGOX1 -->
<g id="node1" class="node">
<title>XGGOX1</title>
<ellipse fill="none" stroke="black" cx="48.1" cy="-139" rx="48.19" ry="18"/>
<text text-anchor="middle" x="48.1" y="-135.3" font-family="Times New Roman,serif" font-size="14.00">XGGOX1</text>
</g>
<!-- cling -->
<g id="node2" class="node">
<title>cling</title>
<ellipse fill="none" stroke="black" cx="180.94" cy="-220" rx="27.9" ry="18"/>
<text text-anchor="middle" x="180.94" y="-216.3" font-family="Times New Roman,serif" font-size="14.00">cling</text>
</g>
<!-- XGGOX1&#45;&gt;cling -->
<g id="edge1" class="edge">
<title>XGGOX1&#45;&gt;cling</title>
<path fill="none" stroke="black" d="M72.49,-154.75C89.01,-165.74 111.75,-180.59 132.19,-193 137.85,-196.44 143.97,-200 149.86,-203.37"/>
<polygon fill="black" stroke="black" points="148.43,-206.58 158.86,-208.45 151.87,-200.48 148.43,-206.58"/>
</g>
<!-- GGGGX2 -->
<g id="node3" class="node">
<title>GGGGX2</title>
<ellipse fill="none" stroke="black" cx="180.94" cy="-166" rx="48.99" ry="18"/>
<text text-anchor="middle" x="180.94" y="-162.3" font-family="Times New Roman,serif" font-size="14.00">GGGGX2</text>
</g>
<!-- XGGOX1&#45;&gt;GGGGX2 -->
<g id="edge2" class="edge">
<title>XGGOX1&#45;&gt;GGGGX2</title>
<path fill="none" stroke="black" d="M90.49,-147.54C102.43,-150.01 115.6,-152.72 128.08,-155.3"/>
<polygon fill="black" stroke="black" points="127.41,-158.73 137.91,-157.33 128.82,-151.88 127.41,-158.73"/>
</g>
<!-- GGGXX2 -->
<g id="node5" class="node">
<title>GGGXX2</title>
<ellipse fill="none" stroke="black" cx="180.94" cy="-112" rx="48.19" ry="18"/>
<text text-anchor="middle" x="180.94" y="-108.3" font-family="Times New Roman,serif" font-size="14.00">GGGXX2</text>
</g>
<!-- XGGOX1&#45;&gt;GGGXX2 -->
<g id="edge4" class="edge">
<title>XGGOX1&#45;&gt;GGGXX2</title>
<path fill="none" stroke="black" d="M90.49,-130.46C102.55,-127.97 115.86,-125.22 128.45,-122.62"/>
<polygon fill="black" stroke="black" points="129.27,-126.03 138.36,-120.58 127.86,-119.17 129.27,-126.03"/>
</g>
<!-- OGGXX2 -->
<g id="node7" class="node">
<title>OGGXX2</title>
<ellipse fill="none" stroke="black" cx="180.94" cy="-45" rx="48.19" ry="18"/>
<text text-anchor="middle" x="180.94" y="-41.3" font-family="Times New Roman,serif" font-size="14.00">OGGXX2</text>
</g>
<!-- XGGOX1&#45;&gt;OGGXX2 -->
<g id="edge6" class="edge">
<title>XGGOX1&#45;&gt;OGGXX2</title>
<path fill="none" stroke="black" d="M71.29,-123.05C92.72,-107.66 125.35,-84.22 149.26,-67.04"/>
<polygon fill="black" stroke="black" points="151.55,-69.7 157.63,-61.02 147.47,-64.02 151.55,-69.7"/>
</g>
<!-- clink -->
<g id="node4" class="node">
<title>clink</title>
<ellipse fill="none" stroke="black" cx="313.78" cy="-180" rx="27.9" ry="18"/>
<text text-anchor="middle" x="313.78" y="-176.3" font-family="Times New Roman,serif" font-size="14.00">clink</text>
</g>
<!-- GGGGX2&#45;&gt;clink -->
<g id="edge3" class="edge">
<title>GGGGX2&#45;&gt;clink</title>
<path fill="none" stroke="black" d="M228.07,-170.94C243.7,-172.61 260.94,-174.45 275.77,-176.04"/>
<polygon fill="black" stroke="black" points="275.76,-179.56 286.08,-177.14 276.51,-172.6 275.76,-179.56"/>
</g>
<!-- cliff -->
<g id="node6" class="node">
<title>cliff</title>
<ellipse fill="none" stroke="black" cx="313.78" cy="-126" rx="27" ry="18"/>
<text text-anchor="middle" x="313.78" y="-122.3" font-family="Times New Roman,serif" font-size="14.00">cliff</text>
</g>
<!-- GGGXX2&#45;&gt;cliff -->
<g id="edge5" class="edge">
<title>GGGXX2&#45;&gt;cliff</title>
<path fill="none" stroke="black" d="M227.33,-116.86C243.52,-118.59 261.53,-120.52 276.82,-122.15"/>
<polygon fill="black" stroke="black" points="276.6,-125.65 286.91,-123.23 277.34,-118.69 276.6,-125.65"/>
</g>
<!-- GGGXX3 -->
<g id="node9" class="node">
<title>GGGXX3</title>
<ellipse fill="none" stroke="black" cx="313.78" cy="-72" rx="48.19" ry="18"/>
<text text-anchor="middle" x="313.78" y="-68.3" font-family="Times New Roman,serif" font-size="14.00">GGGXX3</text>
</g>
<!-- GGGXX2&#45;&gt;GGGXX3 -->
<g id="edge8" class="edge">
<title>GGGXX2&#45;&gt;GGGXX3</title>
<path fill="none" stroke="black" d="M218.73,-100.75C233.36,-96.28 250.38,-91.08 265.88,-86.34"/>
<polygon fill="black" stroke="black" points="267.27,-89.57 275.81,-83.3 265.22,-82.88 267.27,-89.57"/>
</g>
<!-- iliac -->
<g id="node8" class="node">
<title>iliac</title>
<ellipse fill="none" stroke="black" cx="313.78" cy="-18" rx="27" ry="18"/>
<text text-anchor="middle" x="313.78" y="-14.3" font-family="Times New Roman,serif" font-size="14.00">iliac</text>
</g>
<!-- OGGXX2&#45;&gt;iliac -->
<g id="edge7" class="edge">
<title>OGGXX2&#45;&gt;iliac</title>
<path fill="none" stroke="black" d="M223.34,-36.46C240.82,-32.85 260.96,-28.69 277.7,-25.24"/>
<polygon fill="black" stroke="black" points="278.54,-28.64 287.63,-23.19 277.13,-21.78 278.54,-28.64"/>
</g>
<!-- climb -->
<g id="node10" class="node">
<title>climb</title>
<ellipse fill="none" stroke="black" cx="428.42" cy="-72" rx="30.59" ry="18"/>
<text text-anchor="middle" x="428.42" y="-68.3" font-family="Times New Roman,serif" font-size="14.00">climb</text>
</g>
<!-- GGGXX3&#45;&gt;climb -->
<g id="edge9" class="edge">
<title>GGGXX3&#45;&gt;climb</title>
<path fill="none" stroke="black" d="M361.9,-72C370.46,-72 379.31,-72 387.64,-72"/>
<polygon fill="black" stroke="black" points="387.84,-75.5 397.84,-72 387.84,-68.5 387.84,-75.5"/>
</g>
</g>
</svg>
