<?xml version="1.0" encoding="UTF-8" standalone="no"?>
<!DOCTYPE svg PUBLIC "-//W3C//DTD SVG 1.1//EN"
 "http://www.w3.org/Graphics/SVG/1.1/DTD/svg11.dtd">
<!-- Generated by graphviz version 2.50.0 (20211204.2007)
 -->
<!-- Pages: 1 -->
<svg width="330pt" height="98pt"
 viewBox="0.00 0.00 329.58 98.00" xmlns="http://www.w3.org/2000/svg" xmlns:xlink="http://www.w3.org/1999/xlink">
<g id="graph0" class="graph" transform="scale(1 1) rotate(0) translate(4 94)">
<polygon fill="white" stroke="transparent" points="-4,4 -4,-94 325.58,-94 325.58,4 -4,4"/>
<!-- OGXXO1 -->
<g id="node1" class="node">
<title>OGXXO1</title>
<ellipse fill="none" stroke="black" cx="48.1" cy="-45" rx="48.19" ry="18"/>
<text text-anchor="middle" x="48.1" y="-41.3" font-family="Times New Roman,serif" font-size="14.00">OGXXO1</text>
</g>
<!-- XGGGO2 -->
<g id="node2" class="node">
<title>XGGGO2</title>
<ellipse fill="none" stroke="black" cx="180.94" cy="-72" rx="48.99" ry="18"/>
<text text-anchor="middle" x="180.94" y="-68.3" font-family="Times New Roman,serif" font-size="14.00">XGGGO2</text>
</g>
<!-- OGXXO1&#45;&gt;XGGGO2 -->
<g id="edge1" class="edge">
<title>OGXXO1&#45;&gt;XGGGO2</title>
<path fill="none" stroke="black" d="M90.49,-53.54C102.43,-56.01 115.6,-58.72 128.08,-61.3"/>
<polygon fill="black" stroke="black" points="127.41,-64.73 137.91,-63.33 128.82,-57.88 127.41,-64.73"/>
</g>
<!-- bless -->
<g id="node4" class="node">
<title>bless</title>
<ellipse fill="none" stroke="black" cx="180.94" cy="-18" rx="29.5" ry="18"/>
<text text-anchor="middle" x="180.94" y="-14.3" font-family="Times New Roman,serif" font-size="14.00">bless</text>
</g>
<!-- OGXXO1&#45;&gt;bless -->
<g id="edge3" class="edge">
<title>OGXXO1&#45;&gt;bless</title>
<path fill="none" stroke="black" d="M90.49,-36.46C107.2,-33.01 126.33,-29.06 142.6,-25.7"/>
<polygon fill="black" stroke="black" points="143.74,-29.04 152.83,-23.59 142.33,-22.19 143.74,-29.04"/>
</g>
<!-- flesh -->
<g id="node3" class="node">
<title>flesh</title>
<ellipse fill="none" stroke="black" cx="293.63" cy="-72" rx="27.9" ry="18"/>
<text text-anchor="middle" x="293.63" y="-68.3" font-family="Times New Roman,serif" font-size="14.00">flesh</text>
</g>
<!-- XGGGO2&#45;&gt;flesh -->
<g id="edge2" class="edge">
<title>XGGGO2&#45;&gt;flesh</title>
<path fill="none" stroke="black" d="M229.84,-72C238.47,-72 247.35,-72 255.61,-72"/>
<polygon fill="black" stroke="black" points="255.67,-75.5 265.67,-72 255.67,-68.5 255.67,-75.5"/>
</g>
</g>
</svg>
