<?xml version="1.0" encoding="UTF-8" standalone="no"?>
<!DOCTYPE svg PUBLIC "-//W3C//DTD SVG 1.1//EN"
 "http://www.w3.org/Graphics/SVG/1.1/DTD/svg11.dtd">
<!-- Generated by graphviz version 2.50.0 (20211204.2007)
 -->
<!-- Pages: 1 -->
<svg width="337pt" height="98pt"
 viewBox="0.00 0.00 337.38 98.00" xmlns="http://www.w3.org/2000/svg" xmlns:xlink="http://www.w3.org/1999/xlink">
<g id="graph0" class="graph" transform="scale(1 1) rotate(0) translate(4 94)">
<polygon fill="white" stroke="transparent" points="-4,4 -4,-94 333.38,-94 333.38,4 -4,4"/>
<!-- GXXGG1 -->
<g id="node1" class="node">
<title>GXXGG1</title>
<ellipse fill="none" stroke="black" cx="48.1" cy="-45" rx="48.19" ry="18"/>
<text text-anchor="middle" x="48.1" y="-41.3" font-family="Times New Roman,serif" font-size="14.00">GXXGG1</text>
</g>
<!-- GOXGG2 -->
<g id="node2" class="node">
<title>GOXGG2</title>
<ellipse fill="none" stroke="black" cx="180.94" cy="-72" rx="48.99" ry="18"/>
<text text-anchor="middle" x="180.94" y="-68.3" font-family="Times New Roman,serif" font-size="14.00">GOXGG2</text>
</g>
<!-- GXXGG1&#45;&gt;GOXGG2 -->
<g id="edge1" class="edge">
<title>GXXGG1&#45;&gt;GOXGG2</title>
<path fill="none" stroke="black" d="M90.49,-53.54C102.43,-56.01 115.6,-58.72 128.08,-61.3"/>
<polygon fill="black" stroke="black" points="127.41,-64.73 137.91,-63.33 128.82,-57.88 127.41,-64.73"/>
</g>
<!-- sauce -->
<g id="node4" class="node">
<title>sauce</title>
<ellipse fill="none" stroke="black" cx="180.94" cy="-18" rx="31.4" ry="18"/>
<text text-anchor="middle" x="180.94" y="-14.3" font-family="Times New Roman,serif" font-size="14.00">sauce</text>
</g>
<!-- GXXGG1&#45;&gt;sauce -->
<g id="edge3" class="edge">
<title>GXXGG1&#45;&gt;sauce</title>
<path fill="none" stroke="black" d="M90.49,-36.46C106.71,-33.11 125.21,-29.29 141.16,-26"/>
<polygon fill="black" stroke="black" points="142.14,-29.37 151.22,-23.93 140.72,-22.52 142.14,-29.37"/>
</g>
<!-- space -->
<g id="node3" class="node">
<title>space</title>
<ellipse fill="none" stroke="black" cx="297.53" cy="-72" rx="31.7" ry="18"/>
<text text-anchor="middle" x="297.53" y="-68.3" font-family="Times New Roman,serif" font-size="14.00">space</text>
</g>
<!-- GOXGG2&#45;&gt;space -->
<g id="edge2" class="edge">
<title>GOXGG2&#45;&gt;space</title>
<path fill="none" stroke="black" d="M229.87,-72C238.32,-72 247.05,-72 255.3,-72"/>
<polygon fill="black" stroke="black" points="255.43,-75.5 265.43,-72 255.43,-68.5 255.43,-75.5"/>
</g>
</g>
</svg>
