<?xml version="1.0" encoding="UTF-8" standalone="no"?>
<!DOCTYPE svg PUBLIC "-//W3C//DTD SVG 1.1//EN"
 "http://www.w3.org/Graphics/SVG/1.1/DTD/svg11.dtd">
<!-- Generated by graphviz version 2.50.0 (20211204.2007)
 -->
<!-- Pages: 1 -->
<svg width="468pt" height="233pt"
 viewBox="0.00 0.00 468.27 233.00" xmlns="http://www.w3.org/2000/svg" xmlns:xlink="http://www.w3.org/1999/xlink">
<g id="graph0" class="graph" transform="scale(1 1) rotate(0) translate(4 229)">
<polygon fill="white" stroke="transparent" points="-4,4 -4,-229 464.27,-229 464.27,4 -4,4"/>
<!-- OXOXO1 -->
<g id="node1" class="node">
<title>OXOXO1</title>
<ellipse fill="none" stroke="black" cx="48.1" cy="-126" rx="48.19" ry="18"/>
<text text-anchor="middle" x="48.1" y="-122.3" font-family="Times New Roman,serif" font-size="14.00">OXOXO1</text>
</g>
<!-- XGGGO2 -->
<g id="node2" class="node">
<title>XGGGO2</title>
<ellipse fill="none" stroke="black" cx="180.94" cy="-207" rx="48.99" ry="18"/>
<text text-anchor="middle" x="180.94" y="-203.3" font-family="Times New Roman,serif" font-size="14.00">XGGGO2</text>
</g>
<!-- OXOXO1&#45;&gt;XGGGO2 -->
<g id="edge1" class="edge">
<title>OXOXO1&#45;&gt;XGGGO2</title>
<path fill="none" stroke="black" d="M72.49,-141.75C89.01,-152.74 111.75,-167.59 132.19,-180 136.05,-182.34 140.12,-184.74 144.18,-187.1"/>
<polygon fill="black" stroke="black" points="142.58,-190.22 153,-192.15 146.06,-184.14 142.58,-190.22"/>
</g>
<!-- XOGOO2 -->
<g id="node4" class="node">
<title>XOGOO2</title>
<ellipse fill="none" stroke="black" cx="180.94" cy="-153" rx="48.99" ry="18"/>
<text text-anchor="middle" x="180.94" y="-149.3" font-family="Times New Roman,serif" font-size="14.00">XOGOO2</text>
</g>
<!-- OXOXO1&#45;&gt;XOGOO2 -->
<g id="edge3" class="edge">
<title>OXOXO1&#45;&gt;XOGOO2</title>
<path fill="none" stroke="black" d="M90.49,-134.54C102.43,-137.01 115.6,-139.72 128.08,-142.3"/>
<polygon fill="black" stroke="black" points="127.41,-145.73 137.91,-144.33 128.82,-138.88 127.41,-145.73"/>
</g>
<!-- miser -->
<g id="node6" class="node">
<title>miser</title>
<ellipse fill="none" stroke="black" cx="180.94" cy="-99" rx="30.59" ry="18"/>
<text text-anchor="middle" x="180.94" y="-95.3" font-family="Times New Roman,serif" font-size="14.00">miser</text>
</g>
<!-- OXOXO1&#45;&gt;miser -->
<g id="edge5" class="edge">
<title>OXOXO1&#45;&gt;miser</title>
<path fill="none" stroke="black" d="M90.49,-117.46C106.83,-114.09 125.49,-110.24 141.52,-106.93"/>
<polygon fill="black" stroke="black" points="142.54,-110.29 151.63,-104.84 141.13,-103.44 142.54,-110.29"/>
</g>
<!-- XGGGG2 -->
<g id="node7" class="node">
<title>XGGGG2</title>
<ellipse fill="none" stroke="black" cx="180.94" cy="-45" rx="48.99" ry="18"/>
<text text-anchor="middle" x="180.94" y="-41.3" font-family="Times New Roman,serif" font-size="14.00">XGGGG2</text>
</g>
<!-- OXOXO1&#45;&gt;XGGGG2 -->
<g id="edge6" class="edge">
<title>OXOXO1&#45;&gt;XGGGG2</title>
<path fill="none" stroke="black" d="M72.49,-110.25C89.01,-99.26 111.75,-84.41 132.19,-72 136.05,-69.66 140.12,-67.26 144.18,-64.9"/>
<polygon fill="black" stroke="black" points="146.06,-67.86 153,-59.85 142.58,-61.78 146.06,-67.86"/>
</g>
<!-- risen -->
<g id="node3" class="node">
<title>risen</title>
<ellipse fill="none" stroke="black" cx="315.08" cy="-207" rx="27.9" ry="18"/>
<text text-anchor="middle" x="315.08" y="-203.3" font-family="Times New Roman,serif" font-size="14.00">risen</text>
</g>
<!-- XGGGO2&#45;&gt;risen -->
<g id="edge2" class="edge">
<title>XGGGO2&#45;&gt;risen</title>
<path fill="none" stroke="black" d="M230.02,-207C245.46,-207 262.31,-207 276.85,-207"/>
<polygon fill="black" stroke="black" points="276.98,-210.5 286.98,-207 276.98,-203.5 276.98,-210.5"/>
</g>
<!-- resin -->
<g id="node5" class="node">
<title>resin</title>
<ellipse fill="none" stroke="black" cx="315.08" cy="-153" rx="27.9" ry="18"/>
<text text-anchor="middle" x="315.08" y="-149.3" font-family="Times New Roman,serif" font-size="14.00">resin</text>
</g>
<!-- XOGOO2&#45;&gt;resin -->
<g id="edge4" class="edge">
<title>XOGOO2&#45;&gt;resin</title>
<path fill="none" stroke="black" d="M230.02,-153C245.46,-153 262.31,-153 276.85,-153"/>
<polygon fill="black" stroke="black" points="276.98,-156.5 286.98,-153 276.98,-149.5 276.98,-156.5"/>
</g>
<!-- OGGGG3 -->
<g id="node8" class="node">
<title>OGGGG3</title>
<ellipse fill="none" stroke="black" cx="315.08" cy="-72" rx="49.29" ry="18"/>
<text text-anchor="middle" x="315.08" y="-68.3" font-family="Times New Roman,serif" font-size="14.00">OGGGG3</text>
</g>
<!-- XGGGG2&#45;&gt;OGGGG3 -->
<g id="edge7" class="edge">
<title>XGGGG2&#45;&gt;OGGGG3</title>
<path fill="none" stroke="black" d="M224.11,-53.62C236.03,-56.05 249.15,-58.73 261.6,-61.28"/>
<polygon fill="black" stroke="black" points="260.9,-64.71 271.4,-63.28 262.3,-57.85 260.9,-64.71"/>
</g>
<!-- riser -->
<g id="node10" class="node">
<title>riser</title>
<ellipse fill="none" stroke="black" cx="315.08" cy="-18" rx="27" ry="18"/>
<text text-anchor="middle" x="315.08" y="-14.3" font-family="Times New Roman,serif" font-size="14.00">riser</text>
</g>
<!-- XGGGG2&#45;&gt;riser -->
<g id="edge9" class="edge">
<title>XGGGG2&#45;&gt;riser</title>
<path fill="none" stroke="black" d="M224.11,-36.38C241.75,-32.78 262.01,-28.64 278.84,-25.2"/>
<polygon fill="black" stroke="black" points="279.72,-28.59 288.82,-23.16 278.32,-21.73 279.72,-28.59"/>
</g>
<!-- wiser -->
<g id="node9" class="node">
<title>wiser</title>
<ellipse fill="none" stroke="black" cx="430.37" cy="-72" rx="29.8" ry="18"/>
<text text-anchor="middle" x="430.37" y="-68.3" font-family="Times New Roman,serif" font-size="14.00">wiser</text>
</g>
<!-- OGGGG3&#45;&gt;wiser -->
<g id="edge8" class="edge">
<title>OGGGG3&#45;&gt;wiser</title>
<path fill="none" stroke="black" d="M364.78,-72C373.3,-72 382.06,-72 390.28,-72"/>
<polygon fill="black" stroke="black" points="390.33,-75.5 400.33,-72 390.33,-68.5 390.33,-75.5"/>
</g>
</g>
</svg>
