<?xml version="1.0" encoding="UTF-8" standalone="no"?>
<!DOCTYPE svg PUBLIC "-//W3C//DTD SVG 1.1//EN"
 "http://www.w3.org/Graphics/SVG/1.1/DTD/svg11.dtd">
<!-- Generated by graphviz version 2.50.0 (20211204.2007)
 -->
<!-- Pages: 1 -->
<svg width="595pt" height="854pt"
 viewBox="0.00 0.00 594.67 854.00" xmlns="http://www.w3.org/2000/svg" xmlns:xlink="http://www.w3.org/1999/xlink">
<g id="graph0" class="graph" transform="scale(1 1) rotate(0) translate(4 850)">
<polygon fill="white" stroke="transparent" points="-4,4 -4,-850 590.67,-850 590.67,4 -4,4"/>
<!-- XXOXG1 -->
<g id="node1" class="node">
<title>XXOXG1</title>
<ellipse fill="none" stroke="black" cx="48.1" cy="-315" rx="48.19" ry="18"/>
<text text-anchor="middle" x="48.1" y="-311.3" font-family="Times New Roman,serif" font-size="14.00">XXOXG1</text>
</g>
<!-- GGXXG2 -->
<g id="node2" class="node">
<title>GGXXG2</title>
<ellipse fill="none" stroke="black" cx="180.94" cy="-784" rx="48.19" ry="18"/>
<text text-anchor="middle" x="180.94" y="-780.3" font-family="Times New Roman,serif" font-size="14.00">GGXXG2</text>
</g>
<!-- XXOXG1&#45;&gt;GGXXG2 -->
<g id="edge1" class="edge">
<title>XXOXG1&#45;&gt;GGXXG2</title>
<path fill="none" stroke="black" d="M50.4,-333.19C55.05,-390.93 73.79,-574.45 132.19,-713 139.05,-729.28 149.85,-745.76 159.44,-758.74"/>
<polygon fill="black" stroke="black" points="156.67,-760.88 165.51,-766.72 162.24,-756.65 156.67,-760.88"/>
</g>
<!-- XOXXG2 -->
<g id="node4" class="node">
<title>XOXXG2</title>
<ellipse fill="none" stroke="black" cx="180.94" cy="-686" rx="48.19" ry="18"/>
<text text-anchor="middle" x="180.94" y="-682.3" font-family="Times New Roman,serif" font-size="14.00">XOXXG2</text>
</g>
<!-- XXOXG1&#45;&gt;XOXXG2 -->
<g id="edge3" class="edge">
<title>XXOXG1&#45;&gt;XOXXG2</title>
<path fill="none" stroke="black" d="M51.78,-333.25C59.4,-381.72 83.76,-516.92 132.19,-619 139.19,-633.75 149.45,-648.68 158.67,-660.69"/>
<polygon fill="black" stroke="black" points="156.19,-663.2 165.14,-668.88 161.68,-658.86 156.19,-663.2"/>
</g>
<!-- XGGGG2 -->
<g id="node7" class="node">
<title>XGGGG2</title>
<ellipse fill="none" stroke="black" cx="180.94" cy="-592" rx="48.99" ry="18"/>
<text text-anchor="middle" x="180.94" y="-588.3" font-family="Times New Roman,serif" font-size="14.00">XGGGG2</text>
</g>
<!-- XXOXG1&#45;&gt;XGGGG2 -->
<g id="edge6" class="edge">
<title>XXOXG1&#45;&gt;XGGGG2</title>
<path fill="none" stroke="black" d="M56.4,-332.94C70.31,-366.79 101.91,-442.2 132.19,-504 142.45,-524.94 155.07,-548.1 164.76,-565.4"/>
<polygon fill="black" stroke="black" points="161.85,-567.37 169.81,-574.36 167.95,-563.93 161.85,-567.37"/>
</g>
<!-- XGXGG2 -->
<g id="node9" class="node">
<title>XGXGG2</title>
<ellipse fill="none" stroke="black" cx="180.94" cy="-477" rx="48.19" ry="18"/>
<text text-anchor="middle" x="180.94" y="-473.3" font-family="Times New Roman,serif" font-size="14.00">XGXGG2</text>
</g>
<!-- XXOXG1&#45;&gt;XGXGG2 -->
<g id="edge8" class="edge">
<title>XXOXG1&#45;&gt;XGXGG2</title>
<path fill="none" stroke="black" d="M63.1,-332.34C86.31,-361.08 132.87,-418.72 159.67,-451.91"/>
<polygon fill="black" stroke="black" points="157.03,-454.21 166.04,-459.79 162.48,-449.81 157.03,-454.21"/>
</g>
<!-- XOOXG2 -->
<g id="node12" class="node">
<title>XOOXG2</title>
<ellipse fill="none" stroke="black" cx="180.94" cy="-342" rx="48.19" ry="18"/>
<text text-anchor="middle" x="180.94" y="-338.3" font-family="Times New Roman,serif" font-size="14.00">XOOXG2</text>
</g>
<!-- XXOXG1&#45;&gt;XOOXG2 -->
<g id="edge11" class="edge">
<title>XXOXG1&#45;&gt;XOOXG2</title>
<path fill="none" stroke="black" d="M90.49,-323.54C102.55,-326.03 115.86,-328.78 128.45,-331.38"/>
<polygon fill="black" stroke="black" points="127.86,-334.83 138.36,-333.42 129.27,-327.97 127.86,-334.83"/>
</g>
<!-- XGXXG2 -->
<g id="node14" class="node">
<title>XGXXG2</title>
<ellipse fill="none" stroke="black" cx="180.94" cy="-288" rx="48.19" ry="18"/>
<text text-anchor="middle" x="180.94" y="-284.3" font-family="Times New Roman,serif" font-size="14.00">XGXXG2</text>
</g>
<!-- XXOXG1&#45;&gt;XGXXG2 -->
<g id="edge13" class="edge">
<title>XXOXG1&#45;&gt;XGXXG2</title>
<path fill="none" stroke="black" d="M90.49,-306.46C102.55,-303.97 115.86,-301.22 128.45,-298.62"/>
<polygon fill="black" stroke="black" points="129.27,-302.03 138.36,-296.58 127.86,-295.17 129.27,-302.03"/>
</g>
<!-- XOGOG2 -->
<g id="node21" class="node">
<title>XOGOG2</title>
<ellipse fill="none" stroke="black" cx="180.94" cy="-234" rx="48.99" ry="18"/>
<text text-anchor="middle" x="180.94" y="-230.3" font-family="Times New Roman,serif" font-size="14.00">XOGOG2</text>
</g>
<!-- XXOXG1&#45;&gt;XOGOG2 -->
<g id="edge20" class="edge">
<title>XXOXG1&#45;&gt;XOGOG2</title>
<path fill="none" stroke="black" d="M72.49,-299.25C89.01,-288.26 111.75,-273.41 132.19,-261 136.05,-258.66 140.12,-256.26 144.18,-253.9"/>
<polygon fill="black" stroke="black" points="146.06,-256.86 153,-248.85 142.58,-250.78 146.06,-256.86"/>
</g>
<!-- binge -->
<g id="node31" class="node">
<title>binge</title>
<ellipse fill="none" stroke="black" cx="180.94" cy="-180" rx="30.59" ry="18"/>
<text text-anchor="middle" x="180.94" y="-176.3" font-family="Times New Roman,serif" font-size="14.00">binge</text>
</g>
<!-- XXOXG1&#45;&gt;binge -->
<g id="edge30" class="edge">
<title>XXOXG1&#45;&gt;binge</title>
<path fill="none" stroke="black" d="M59.64,-297.16C73.89,-274.18 101.1,-233.98 132.19,-207 136.8,-203 142.09,-199.31 147.43,-196.03"/>
<polygon fill="black" stroke="black" points="149.44,-198.92 156.37,-190.91 145.95,-192.85 149.44,-198.92"/>
</g>
<!-- OOXXG2 -->
<g id="node32" class="node">
<title>OOXXG2</title>
<ellipse fill="none" stroke="black" cx="180.94" cy="-99" rx="48.19" ry="18"/>
<text text-anchor="middle" x="180.94" y="-95.3" font-family="Times New Roman,serif" font-size="14.00">OOXXG2</text>
</g>
<!-- XXOXG1&#45;&gt;OOXXG2 -->
<g id="edge31" class="edge">
<title>XXOXG1&#45;&gt;OOXXG2</title>
<path fill="none" stroke="black" d="M56.48,-297.17C69.58,-266.44 98.69,-202.08 132.19,-153 139.18,-142.77 147.9,-132.37 155.97,-123.47"/>
<polygon fill="black" stroke="black" points="158.6,-125.79 162.84,-116.08 153.47,-121.03 158.6,-125.79"/>
</g>
<!-- XOXGG2 -->
<g id="node34" class="node">
<title>XOXGG2</title>
<ellipse fill="none" stroke="black" cx="180.94" cy="-32" rx="48.19" ry="18"/>
<text text-anchor="middle" x="180.94" y="-28.3" font-family="Times New Roman,serif" font-size="14.00">XOXGG2</text>
</g>
<!-- XXOXG1&#45;&gt;XOXGG2 -->
<g id="edge33" class="edge">
<title>XXOXG1&#45;&gt;XOXGG2</title>
<path fill="none" stroke="black" d="M51.83,-297.04C58.95,-254.62 81.23,-146.26 132.19,-72 136.57,-65.63 142.22,-59.69 148.1,-54.45"/>
<polygon fill="black" stroke="black" points="150.71,-56.84 156.16,-47.75 146.23,-51.45 150.71,-56.84"/>
</g>
<!-- biome -->
<g id="node3" class="node">
<title>biome</title>
<ellipse fill="none" stroke="black" cx="315.08" cy="-828" rx="33.29" ry="18"/>
<text text-anchor="middle" x="315.08" y="-824.3" font-family="Times New Roman,serif" font-size="14.00">biome</text>
</g>
<!-- GGXXG2&#45;&gt;biome -->
<g id="edge2" class="edge">
<title>GGXXG2&#45;&gt;biome</title>
<path fill="none" stroke="black" d="M217.35,-795.79C235.75,-801.92 258.23,-809.41 276.89,-815.62"/>
<polygon fill="black" stroke="black" points="275.94,-818.99 286.53,-818.83 278.15,-812.35 275.94,-818.99"/>
</g>
<!-- OOXGG3 -->
<g id="node5" class="node">
<title>OOXGG3</title>
<ellipse fill="none" stroke="black" cx="315.08" cy="-774" rx="48.99" ry="18"/>
<text text-anchor="middle" x="315.08" y="-770.3" font-family="Times New Roman,serif" font-size="14.00">OOXGG3</text>
</g>
<!-- XOXXG2&#45;&gt;OOXGG3 -->
<g id="edge4" class="edge">
<title>XOXXG2&#45;&gt;OOXGG3</title>
<path fill="none" stroke="black" d="M202.78,-702.27C219.43,-715 243.56,-732.85 265.68,-747 269.48,-749.43 273.5,-751.87 277.55,-754.24"/>
<polygon fill="black" stroke="black" points="275.94,-757.35 286.35,-759.29 279.42,-751.28 275.94,-757.35"/>
</g>
<!-- eerie -->
<g id="node16" class="node">
<title>eerie</title>
<ellipse fill="none" stroke="black" cx="315.08" cy="-720" rx="27.1" ry="18"/>
<text text-anchor="middle" x="315.08" y="-716.3" font-family="Times New Roman,serif" font-size="14.00">eerie</text>
</g>
<!-- XOXXG2&#45;&gt;eerie -->
<g id="edge15" class="edge">
<title>XOXXG2&#45;&gt;eerie</title>
<path fill="none" stroke="black" d="M221.23,-696.11C239.76,-700.88 261.67,-706.51 279.55,-711.12"/>
<polygon fill="black" stroke="black" points="278.73,-714.52 289.29,-713.62 280.48,-707.74 278.73,-714.52"/>
</g>
<!-- OOOOG3 -->
<g id="node23" class="node">
<title>OOOOG3</title>
<ellipse fill="none" stroke="black" cx="315.08" cy="-666" rx="49.29" ry="18"/>
<text text-anchor="middle" x="315.08" y="-662.3" font-family="Times New Roman,serif" font-size="14.00">OOOOG3</text>
</g>
<!-- XOXXG2&#45;&gt;OOOOG3 -->
<g id="edge22" class="edge">
<title>XOXXG2&#45;&gt;OOOOG3</title>
<path fill="none" stroke="black" d="M225.94,-679.34C236.51,-677.74 247.94,-676.01 258.96,-674.34"/>
<polygon fill="black" stroke="black" points="259.55,-677.79 268.91,-672.84 258.5,-670.87 259.55,-677.79"/>
</g>
<!-- movie -->
<g id="node6" class="node">
<title>movie</title>
<ellipse fill="none" stroke="black" cx="448.57" cy="-774" rx="32.49" ry="18"/>
<text text-anchor="middle" x="448.57" y="-770.3" font-family="Times New Roman,serif" font-size="14.00">movie</text>
</g>
<!-- OOXGG3&#45;&gt;movie -->
<g id="edge5" class="edge">
<title>OOXGG3&#45;&gt;movie</title>
<path fill="none" stroke="black" d="M363.92,-774C377.6,-774 392.39,-774 405.68,-774"/>
<polygon fill="black" stroke="black" points="405.96,-777.5 415.96,-774 405.96,-770.5 405.96,-777.5"/>
</g>
<!-- hinge -->
<g id="node8" class="node">
<title>hinge</title>
<ellipse fill="none" stroke="black" cx="315.08" cy="-612" rx="29.8" ry="18"/>
<text text-anchor="middle" x="315.08" y="-608.3" font-family="Times New Roman,serif" font-size="14.00">hinge</text>
</g>
<!-- XGGGG2&#45;&gt;hinge -->
<g id="edge7" class="edge">
<title>XGGGG2&#45;&gt;hinge</title>
<path fill="none" stroke="black" d="M226.31,-598.72C242.27,-601.13 260.13,-603.83 275.55,-606.17"/>
<polygon fill="black" stroke="black" points="275.37,-609.68 285.79,-607.72 276.42,-602.76 275.37,-609.68"/>
</g>
<!-- OXOXO3 -->
<g id="node10" class="node">
<title>OXOXO3</title>
<ellipse fill="none" stroke="black" cx="315.08" cy="-558" rx="48.19" ry="18"/>
<text text-anchor="middle" x="315.08" y="-554.3" font-family="Times New Roman,serif" font-size="14.00">OXOXO3</text>
</g>
<!-- XGXGG2&#45;&gt;OXOXO3 -->
<g id="edge9" class="edge">
<title>XGXGG2&#45;&gt;OXOXO3</title>
<path fill="none" stroke="black" d="M205.51,-492.77C222.15,-503.76 245.07,-518.62 265.68,-531 269.64,-533.38 273.82,-535.81 277.99,-538.2"/>
<polygon fill="black" stroke="black" points="276.6,-541.43 287.03,-543.31 280.04,-535.34 276.6,-541.43"/>
</g>
<!-- OOOXX3 -->
<g id="node19" class="node">
<title>OOOXX3</title>
<ellipse fill="none" stroke="black" cx="315.08" cy="-504" rx="48.19" ry="18"/>
<text text-anchor="middle" x="315.08" y="-500.3" font-family="Times New Roman,serif" font-size="14.00">OOOXX3</text>
</g>
<!-- XGXGG2&#45;&gt;OOOXX3 -->
<g id="edge18" class="edge">
<title>XGXGG2&#45;&gt;OOOXX3</title>
<path fill="none" stroke="black" d="M223.38,-485.47C235.69,-487.98 249.32,-490.77 262.2,-493.4"/>
<polygon fill="black" stroke="black" points="261.83,-496.9 272.32,-495.47 263.23,-490.04 261.83,-496.9"/>
</g>
<!-- GOOXX3 -->
<g id="node27" class="node">
<title>GOOXX3</title>
<ellipse fill="none" stroke="black" cx="315.08" cy="-450" rx="48.19" ry="18"/>
<text text-anchor="middle" x="315.08" y="-446.3" font-family="Times New Roman,serif" font-size="14.00">GOOXX3</text>
</g>
<!-- XGXGG2&#45;&gt;GOOXX3 -->
<g id="edge26" class="edge">
<title>XGXGG2&#45;&gt;GOOXX3</title>
<path fill="none" stroke="black" d="M223.38,-468.53C235.69,-466.02 249.32,-463.23 262.2,-460.6"/>
<polygon fill="black" stroke="black" points="263.23,-463.96 272.32,-458.53 261.83,-457.1 263.23,-463.96"/>
</g>
<!-- midge -->
<g id="node11" class="node">
<title>midge</title>
<ellipse fill="none" stroke="black" cx="448.57" cy="-558" rx="32.49" ry="18"/>
<text text-anchor="middle" x="448.57" y="-554.3" font-family="Times New Roman,serif" font-size="14.00">midge</text>
</g>
<!-- OXOXO3&#45;&gt;midge -->
<g id="edge10" class="edge">
<title>OXOXO3&#45;&gt;midge</title>
<path fill="none" stroke="black" d="M363.18,-558C377.15,-558 392.36,-558 405.96,-558"/>
<polygon fill="black" stroke="black" points="406,-561.5 416,-558 406,-554.5 406,-561.5"/>
</g>
<!-- inane -->
<g id="node13" class="node">
<title>inane</title>
<ellipse fill="none" stroke="black" cx="315.08" cy="-396" rx="29.5" ry="18"/>
<text text-anchor="middle" x="315.08" y="-392.3" font-family="Times New Roman,serif" font-size="14.00">inane</text>
</g>
<!-- XOOXG2&#45;&gt;inane -->
<g id="edge12" class="edge">
<title>XOOXG2&#45;&gt;inane</title>
<path fill="none" stroke="black" d="M214.26,-355.21C234.49,-363.47 260.48,-374.1 280.87,-382.43"/>
<polygon fill="black" stroke="black" points="279.79,-385.77 290.38,-386.31 282.44,-379.29 279.79,-385.77"/>
</g>
<!-- OGXOG3 -->
<g id="node36" class="node">
<title>OGXOG3</title>
<ellipse fill="none" stroke="black" cx="315.08" cy="-342" rx="48.99" ry="18"/>
<text text-anchor="middle" x="315.08" y="-338.3" font-family="Times New Roman,serif" font-size="14.00">OGXOG3</text>
</g>
<!-- XOOXG2&#45;&gt;OGXOG3 -->
<g id="edge35" class="edge">
<title>XOOXG2&#45;&gt;OGXOG3</title>
<path fill="none" stroke="black" d="M229.27,-342C237.99,-342 247.18,-342 256.16,-342"/>
<polygon fill="black" stroke="black" points="256.19,-345.5 266.19,-342 256.19,-338.5 256.19,-345.5"/>
</g>
<!-- pique -->
<g id="node15" class="node">
<title>pique</title>
<ellipse fill="none" stroke="black" cx="315.08" cy="-288" rx="30.59" ry="18"/>
<text text-anchor="middle" x="315.08" y="-284.3" font-family="Times New Roman,serif" font-size="14.00">pique</text>
</g>
<!-- XGXXG2&#45;&gt;pique -->
<g id="edge14" class="edge">
<title>XGXXG2&#45;&gt;pique</title>
<path fill="none" stroke="black" d="M229.27,-288C243.91,-288 259.88,-288 273.97,-288"/>
<polygon fill="black" stroke="black" points="274.34,-291.5 284.34,-288 274.34,-284.5 274.34,-291.5"/>
</g>
<!-- XGXXG3 -->
<g id="node17" class="node">
<title>XGXXG3</title>
<ellipse fill="none" stroke="black" cx="315.08" cy="-234" rx="48.19" ry="18"/>
<text text-anchor="middle" x="315.08" y="-230.3" font-family="Times New Roman,serif" font-size="14.00">XGXXG3</text>
</g>
<!-- XGXXG2&#45;&gt;XGXXG3 -->
<g id="edge16" class="edge">
<title>XGXXG2&#45;&gt;XGXXG3</title>
<path fill="none" stroke="black" d="M214.26,-274.79C231.7,-267.66 253.42,-258.79 272.15,-251.13"/>
<polygon fill="black" stroke="black" points="273.7,-254.28 281.63,-247.26 271.05,-247.8 273.7,-254.28"/>
</g>
<!-- GGXXG3 -->
<g id="node25" class="node">
<title>GGXXG3</title>
<ellipse fill="none" stroke="black" cx="315.08" cy="-180" rx="48.19" ry="18"/>
<text text-anchor="middle" x="315.08" y="-176.3" font-family="Times New Roman,serif" font-size="14.00">GGXXG3</text>
</g>
<!-- XGXXG2&#45;&gt;GGXXG3 -->
<g id="edge24" class="edge">
<title>XGXXG2&#45;&gt;GGXXG3</title>
<path fill="none" stroke="black" d="M211.69,-274.03C218.02,-270.31 224.38,-265.93 229.68,-261 250.81,-241.37 244.5,-226.57 265.68,-207 268.62,-204.29 271.88,-201.74 275.28,-199.38"/>
<polygon fill="black" stroke="black" points="277.34,-202.22 283.91,-193.91 273.59,-196.31 277.34,-202.22"/>
</g>
<!-- diode -->
<g id="node18" class="node">
<title>diode</title>
<ellipse fill="none" stroke="black" cx="448.57" cy="-288" rx="31.4" ry="18"/>
<text text-anchor="middle" x="448.57" y="-284.3" font-family="Times New Roman,serif" font-size="14.00">diode</text>
</g>
<!-- XGXXG3&#45;&gt;diode -->
<g id="edge17" class="edge">
<title>XGXXG3&#45;&gt;diode</title>
<path fill="none" stroke="black" d="M348.24,-247.21C367.98,-255.31 393.23,-265.68 413.33,-273.94"/>
<polygon fill="black" stroke="black" points="412.16,-277.24 422.74,-277.8 414.82,-270.77 412.16,-277.24"/>
</g>
<!-- XGXXG4 -->
<g id="node29" class="node">
<title>XGXXG4</title>
<ellipse fill="none" stroke="black" cx="448.57" cy="-234" rx="48.19" ry="18"/>
<text text-anchor="middle" x="448.57" y="-230.3" font-family="Times New Roman,serif" font-size="14.00">XGXXG4</text>
</g>
<!-- XGXXG3&#45;&gt;XGXXG4 -->
<g id="edge28" class="edge">
<title>XGXXG3&#45;&gt;XGXXG4</title>
<path fill="none" stroke="black" d="M363.18,-234C371.96,-234 381.22,-234 390.27,-234"/>
<polygon fill="black" stroke="black" points="390.36,-237.5 400.36,-234 390.36,-230.5 390.36,-237.5"/>
</g>
<!-- ridge -->
<g id="node20" class="node">
<title>ridge</title>
<ellipse fill="none" stroke="black" cx="448.57" cy="-504" rx="28.7" ry="18"/>
<text text-anchor="middle" x="448.57" y="-500.3" font-family="Times New Roman,serif" font-size="14.00">ridge</text>
</g>
<!-- OOOXX3&#45;&gt;ridge -->
<g id="edge19" class="edge">
<title>OOOXX3&#45;&gt;ridge</title>
<path fill="none" stroke="black" d="M363.18,-504C378.48,-504 395.24,-504 409.77,-504"/>
<polygon fill="black" stroke="black" points="409.91,-507.5 419.91,-504 409.91,-500.5 409.91,-507.5"/>
</g>
<!-- genie -->
<g id="node22" class="node">
<title>genie</title>
<ellipse fill="none" stroke="black" cx="315.08" cy="-126" rx="29.5" ry="18"/>
<text text-anchor="middle" x="315.08" y="-122.3" font-family="Times New Roman,serif" font-size="14.00">genie</text>
</g>
<!-- XOGOG2&#45;&gt;genie -->
<g id="edge21" class="edge">
<title>XOGOG2&#45;&gt;genie</title>
<path fill="none" stroke="black" d="M211.69,-220.03C218.02,-216.31 224.38,-211.93 229.68,-207 250.81,-187.37 244.5,-172.57 265.68,-153 270.41,-148.63 275.98,-144.7 281.62,-141.28"/>
<polygon fill="black" stroke="black" points="283.43,-144.27 290.43,-136.33 280,-138.17 283.43,-144.27"/>
</g>
<!-- irate -->
<g id="node24" class="node">
<title>irate</title>
<ellipse fill="none" stroke="black" cx="448.57" cy="-666" rx="27" ry="18"/>
<text text-anchor="middle" x="448.57" y="-662.3" font-family="Times New Roman,serif" font-size="14.00">irate</text>
</g>
<!-- OOOOG3&#45;&gt;irate -->
<g id="edge23" class="edge">
<title>OOOOG3&#45;&gt;irate</title>
<path fill="none" stroke="black" d="M364.67,-666C380.09,-666 396.87,-666 411.27,-666"/>
<polygon fill="black" stroke="black" points="411.29,-669.5 421.29,-666 411.29,-662.5 411.29,-669.5"/>
</g>
<!-- pixie -->
<g id="node26" class="node">
<title>pixie</title>
<ellipse fill="none" stroke="black" cx="448.57" cy="-180" rx="27.9" ry="18"/>
<text text-anchor="middle" x="448.57" y="-176.3" font-family="Times New Roman,serif" font-size="14.00">pixie</text>
</g>
<!-- GGXXG3&#45;&gt;pixie -->
<g id="edge25" class="edge">
<title>GGXXG3&#45;&gt;pixie</title>
<path fill="none" stroke="black" d="M363.18,-180C378.6,-180 395.51,-180 410.11,-180"/>
<polygon fill="black" stroke="black" points="410.29,-183.5 420.29,-180 410.29,-176.5 410.29,-183.5"/>
</g>
<!-- dirge -->
<g id="node28" class="node">
<title>dirge</title>
<ellipse fill="none" stroke="black" cx="448.57" cy="-450" rx="28.7" ry="18"/>
<text text-anchor="middle" x="448.57" y="-446.3" font-family="Times New Roman,serif" font-size="14.00">dirge</text>
</g>
<!-- GOOXX3&#45;&gt;dirge -->
<g id="edge27" class="edge">
<title>GOOXX3&#45;&gt;dirge</title>
<path fill="none" stroke="black" d="M363.18,-450C378.48,-450 395.24,-450 409.77,-450"/>
<polygon fill="black" stroke="black" points="409.91,-453.5 419.91,-450 409.91,-446.5 409.91,-453.5"/>
</g>
<!-- tithe -->
<g id="node30" class="node">
<title>tithe</title>
<ellipse fill="none" stroke="black" cx="559.67" cy="-234" rx="27" ry="18"/>
<text text-anchor="middle" x="559.67" y="-230.3" font-family="Times New Roman,serif" font-size="14.00">tithe</text>
</g>
<!-- XGXXG4&#45;&gt;tithe -->
<g id="edge29" class="edge">
<title>XGXXG4&#45;&gt;tithe</title>
<path fill="none" stroke="black" d="M496.79,-234C505.27,-234 514,-234 522.13,-234"/>
<polygon fill="black" stroke="black" points="522.4,-237.5 532.4,-234 522.4,-230.5 522.4,-237.5"/>
</g>
<!-- imbue -->
<g id="node33" class="node">
<title>imbue</title>
<ellipse fill="none" stroke="black" cx="315.08" cy="-72" rx="32.49" ry="18"/>
<text text-anchor="middle" x="315.08" y="-68.3" font-family="Times New Roman,serif" font-size="14.00">imbue</text>
</g>
<!-- OOXXG2&#45;&gt;imbue -->
<g id="edge32" class="edge">
<title>OOXXG2&#45;&gt;imbue</title>
<path fill="none" stroke="black" d="M223.38,-90.53C239.53,-87.23 257.96,-83.47 273.97,-80.19"/>
<polygon fill="black" stroke="black" points="275,-83.56 284.1,-78.13 273.6,-76.7 275,-83.56"/>
</g>
<!-- image -->
<g id="node35" class="node">
<title>image</title>
<ellipse fill="none" stroke="black" cx="315.08" cy="-18" rx="31.7" ry="18"/>
<text text-anchor="middle" x="315.08" y="-14.3" font-family="Times New Roman,serif" font-size="14.00">image</text>
</g>
<!-- XOXGG2&#45;&gt;image -->
<g id="edge34" class="edge">
<title>XOXGG2&#45;&gt;image</title>
<path fill="none" stroke="black" d="M227.41,-27.18C242.31,-25.6 258.76,-23.86 273.29,-22.32"/>
<polygon fill="black" stroke="black" points="273.91,-25.78 283.48,-21.24 273.17,-18.81 273.91,-25.78"/>
</g>
<!-- untie -->
<g id="node37" class="node">
<title>untie</title>
<ellipse fill="none" stroke="black" cx="448.57" cy="-342" rx="27.9" ry="18"/>
<text text-anchor="middle" x="448.57" y="-338.3" font-family="Times New Roman,serif" font-size="14.00">untie</text>
</g>
<!-- OGXOG3&#45;&gt;untie -->
<g id="edge36" class="edge">
<title>OGXOG3&#45;&gt;untie</title>
<path fill="none" stroke="black" d="M363.92,-342C379.28,-342 396.06,-342 410.53,-342"/>
<polygon fill="black" stroke="black" points="410.6,-345.5 420.6,-342 410.6,-338.5 410.6,-345.5"/>
</g>
</g>
</svg>
