<?xml version="1.0" encoding="UTF-8" standalone="no"?>
<!DOCTYPE svg PUBLIC "-//W3C//DTD SVG 1.1//EN"
 "http://www.w3.org/Graphics/SVG/1.1/DTD/svg11.dtd">
<!-- Generated by graphviz version 2.50.0 (20211204.2007)
 -->
<!-- Pages: 1 -->
<svg width="604pt" height="827pt"
 viewBox="0.00 0.00 604.36 827.00" xmlns="http://www.w3.org/2000/svg" xmlns:xlink="http://www.w3.org/1999/xlink">
<g id="graph0" class="graph" transform="scale(1 1) rotate(0) translate(4 823)">
<polygon fill="white" stroke="transparent" points="-4,4 -4,-823 600.36,-823 600.36,4 -4,4"/>
<!-- XOXOX1 -->
<g id="node1" class="node">
<title>XOXOX1</title>
<ellipse fill="none" stroke="black" cx="48.1" cy="-335" rx="48.19" ry="18"/>
<text text-anchor="middle" x="48.1" y="-331.3" font-family="Times New Roman,serif" font-size="14.00">XOXOX1</text>
</g>
<!-- OGXGG2 -->
<g id="node2" class="node">
<title>OGXGG2</title>
<ellipse fill="none" stroke="black" cx="181.59" cy="-747" rx="48.99" ry="18"/>
<text text-anchor="middle" x="181.59" y="-743.3" font-family="Times New Roman,serif" font-size="14.00">OGXGG2</text>
</g>
<!-- XOXOX1&#45;&gt;OGXGG2 -->
<g id="edge1" class="edge">
<title>XOXOX1&#45;&gt;OGXGG2</title>
<path fill="none" stroke="black" d="M53.02,-353.12C63.53,-400.71 94.17,-532.89 132.19,-639 142.29,-667.18 156.57,-698.26 167,-719.82"/>
<polygon fill="black" stroke="black" points="163.95,-721.56 171.49,-729.01 170.24,-718.49 163.95,-721.56"/>
</g>
<!-- GGXXO2 -->
<g id="node4" class="node">
<title>GGXXO2</title>
<ellipse fill="none" stroke="black" cx="181.59" cy="-612" rx="48.19" ry="18"/>
<text text-anchor="middle" x="181.59" y="-608.3" font-family="Times New Roman,serif" font-size="14.00">GGXXO2</text>
</g>
<!-- XOXOX1&#45;&gt;GGXXO2 -->
<g id="edge3" class="edge">
<title>XOXOX1&#45;&gt;GGXXO2</title>
<path fill="none" stroke="black" d="M56.37,-352.96C70.22,-386.83 101.73,-462.29 132.19,-524 142.54,-544.98 155.34,-568.13 165.17,-585.43"/>
<polygon fill="black" stroke="black" points="162.29,-587.44 170.29,-594.38 168.36,-583.96 162.29,-587.44"/>
</g>
<!-- GXXOO2 -->
<g id="node8" class="node">
<title>GXXOO2</title>
<ellipse fill="none" stroke="black" cx="181.59" cy="-497" rx="48.19" ry="18"/>
<text text-anchor="middle" x="181.59" y="-493.3" font-family="Times New Roman,serif" font-size="14.00">GXXOO2</text>
</g>
<!-- XOXOX1&#45;&gt;GXXOO2 -->
<g id="edge7" class="edge">
<title>XOXOX1&#45;&gt;GXXOO2</title>
<path fill="none" stroke="black" d="M56.64,-353.17C68.99,-381.14 95.82,-435.16 132.19,-470 135.08,-472.77 138.3,-475.35 141.68,-477.73"/>
<polygon fill="black" stroke="black" points="139.98,-480.79 150.29,-483.23 143.75,-474.89 139.98,-480.79"/>
</g>
<!-- OOXGG2 -->
<g id="node12" class="node">
<title>OOXGG2</title>
<ellipse fill="none" stroke="black" cx="181.59" cy="-443" rx="48.99" ry="18"/>
<text text-anchor="middle" x="181.59" y="-439.3" font-family="Times New Roman,serif" font-size="14.00">OOXGG2</text>
</g>
<!-- XOXOX1&#45;&gt;OOXGG2 -->
<g id="edge11" class="edge">
<title>XOXOX1&#45;&gt;OOXGG2</title>
<path fill="none" stroke="black" d="M64.19,-352.17C80.03,-369.57 106.19,-396.61 132.19,-416 135.62,-418.56 139.31,-421.04 143.08,-423.39"/>
<polygon fill="black" stroke="black" points="141.53,-426.54 151.91,-428.64 145.1,-420.52 141.53,-426.54"/>
</g>
<!-- OXXXO2 -->
<g id="node14" class="node">
<title>OXXXO2</title>
<ellipse fill="none" stroke="black" cx="181.59" cy="-389" rx="48.19" ry="18"/>
<text text-anchor="middle" x="181.59" y="-385.3" font-family="Times New Roman,serif" font-size="14.00">OXXXO2</text>
</g>
<!-- XOXOX1&#45;&gt;OXXXO2 -->
<g id="edge13" class="edge">
<title>XOXOX1&#45;&gt;OXXXO2</title>
<path fill="none" stroke="black" d="M81.26,-348.21C98.61,-355.34 120.23,-364.21 138.86,-371.87"/>
<polygon fill="black" stroke="black" points="137.72,-375.18 148.3,-375.74 140.38,-368.7 137.72,-375.18"/>
</g>
<!-- coral -->
<g id="node20" class="node">
<title>coral</title>
<ellipse fill="none" stroke="black" cx="181.59" cy="-335" rx="28.7" ry="18"/>
<text text-anchor="middle" x="181.59" y="-331.3" font-family="Times New Roman,serif" font-size="14.00">coral</text>
</g>
<!-- XOXOX1&#45;&gt;coral -->
<g id="edge19" class="edge">
<title>XOXOX1&#45;&gt;coral</title>
<path fill="none" stroke="black" d="M96.2,-335C111.49,-335 128.26,-335 142.79,-335"/>
<polygon fill="black" stroke="black" points="142.92,-338.5 152.92,-335 142.92,-331.5 142.92,-338.5"/>
</g>
<!-- GXGXO2 -->
<g id="node21" class="node">
<title>GXGXO2</title>
<ellipse fill="none" stroke="black" cx="181.59" cy="-281" rx="48.19" ry="18"/>
<text text-anchor="middle" x="181.59" y="-277.3" font-family="Times New Roman,serif" font-size="14.00">GXGXO2</text>
</g>
<!-- XOXOX1&#45;&gt;GXGXO2 -->
<g id="edge20" class="edge">
<title>XOXOX1&#45;&gt;GXGXO2</title>
<path fill="none" stroke="black" d="M81.26,-321.79C98.61,-314.66 120.23,-305.79 138.86,-298.13"/>
<polygon fill="black" stroke="black" points="140.38,-301.3 148.3,-294.26 137.72,-294.82 140.38,-301.3"/>
</g>
<!-- GOGOG2 -->
<g id="node23" class="node">
<title>GOGOG2</title>
<ellipse fill="none" stroke="black" cx="181.59" cy="-227" rx="49.29" ry="18"/>
<text text-anchor="middle" x="181.59" y="-223.3" font-family="Times New Roman,serif" font-size="14.00">GOGOG2</text>
</g>
<!-- XOXOX1&#45;&gt;GOGOG2 -->
<g id="edge22" class="edge">
<title>XOXOX1&#45;&gt;GOGOG2</title>
<path fill="none" stroke="black" d="M64.19,-317.83C80.03,-300.43 106.19,-273.39 132.19,-254 135.58,-251.48 139.22,-249.02 142.94,-246.69"/>
<polygon fill="black" stroke="black" points="144.86,-249.63 151.66,-241.5 141.27,-243.61 144.86,-249.63"/>
</g>
<!-- GXXGG2 -->
<g id="node27" class="node">
<title>GXXGG2</title>
<ellipse fill="none" stroke="black" cx="181.59" cy="-173" rx="48.19" ry="18"/>
<text text-anchor="middle" x="181.59" y="-169.3" font-family="Times New Roman,serif" font-size="14.00">GXXGG2</text>
</g>
<!-- XOXOX1&#45;&gt;GXXGG2 -->
<g id="edge26" class="edge">
<title>XOXOX1&#45;&gt;GXXGG2</title>
<path fill="none" stroke="black" d="M56.64,-316.83C68.99,-288.86 95.82,-234.84 132.19,-200 135.08,-197.23 138.3,-194.65 141.68,-192.27"/>
<polygon fill="black" stroke="black" points="143.75,-195.11 150.29,-186.77 139.98,-189.21 143.75,-195.11"/>
</g>
<!-- GXOOG2 -->
<g id="node30" class="node">
<title>GXOOG2</title>
<ellipse fill="none" stroke="black" cx="181.59" cy="-106" rx="48.99" ry="18"/>
<text text-anchor="middle" x="181.59" y="-102.3" font-family="Times New Roman,serif" font-size="14.00">GXOOG2</text>
</g>
<!-- XOXOX1&#45;&gt;GXOOG2 -->
<g id="edge29" class="edge">
<title>XOXOX1&#45;&gt;GXOOG2</title>
<path fill="none" stroke="black" d="M53.98,-316.87C64.16,-281.41 90.27,-201.48 132.19,-146 137,-139.64 143.01,-133.65 149.14,-128.34"/>
<polygon fill="black" stroke="black" points="151.37,-131.04 156.89,-121.99 146.94,-125.62 151.37,-131.04"/>
</g>
<!-- GGOXO2 -->
<g id="node32" class="node">
<title>GGOXO2</title>
<ellipse fill="none" stroke="black" cx="181.59" cy="-25" rx="48.99" ry="18"/>
<text text-anchor="middle" x="181.59" y="-21.3" font-family="Times New Roman,serif" font-size="14.00">GGOXO2</text>
</g>
<!-- XOXOX1&#45;&gt;GGOXO2 -->
<g id="edge31" class="edge">
<title>XOXOX1&#45;&gt;GGOXO2</title>
<path fill="none" stroke="black" d="M52.28,-316.88C60.47,-273.46 84.99,-161.01 132.19,-79 138.31,-68.37 146.79,-58 154.93,-49.25"/>
<polygon fill="black" stroke="black" points="157.51,-51.62 161.94,-42 152.48,-46.75 157.51,-51.62"/>
</g>
<!-- focal -->
<g id="node3" class="node">
<title>focal</title>
<ellipse fill="none" stroke="black" cx="315.73" cy="-801" rx="28.7" ry="18"/>
<text text-anchor="middle" x="315.73" y="-797.3" font-family="Times New Roman,serif" font-size="14.00">focal</text>
</g>
<!-- OGXGG2&#45;&gt;focal -->
<g id="edge2" class="edge">
<title>OGXGG2&#45;&gt;focal</title>
<path fill="none" stroke="black" d="M214.91,-760.21C235.27,-768.53 261.46,-779.23 281.91,-787.59"/>
<polygon fill="black" stroke="black" points="280.86,-790.94 291.44,-791.48 283.51,-784.46 280.86,-790.94"/>
</g>
<!-- XGGGG3 -->
<g id="node16" class="node">
<title>XGGGG3</title>
<ellipse fill="none" stroke="black" cx="315.73" cy="-747" rx="48.99" ry="18"/>
<text text-anchor="middle" x="315.73" y="-743.3" font-family="Times New Roman,serif" font-size="14.00">XGGGG3</text>
</g>
<!-- OGXGG2&#45;&gt;XGGGG3 -->
<g id="edge15" class="edge">
<title>OGXGG2&#45;&gt;XGGGG3</title>
<path fill="none" stroke="black" d="M230.67,-747C239.15,-747 248.07,-747 256.79,-747"/>
<polygon fill="black" stroke="black" points="256.91,-750.5 266.91,-747 256.91,-743.5 256.91,-750.5"/>
</g>
<!-- GGXOX3 -->
<g id="node5" class="node">
<title>GGXOX3</title>
<ellipse fill="none" stroke="black" cx="315.73" cy="-693" rx="48.19" ry="18"/>
<text text-anchor="middle" x="315.73" y="-689.3" font-family="Times New Roman,serif" font-size="14.00">GGXOX3</text>
</g>
<!-- GGXXO2&#45;&gt;GGXOX3 -->
<g id="edge4" class="edge">
<title>GGXXO2&#45;&gt;GGXOX3</title>
<path fill="none" stroke="black" d="M206.38,-627.71C223.17,-638.68 246.27,-653.53 266.98,-666 270.85,-668.33 274.92,-670.72 278.99,-673.07"/>
<polygon fill="black" stroke="black" points="277.39,-676.19 287.81,-678.12 280.87,-670.11 277.39,-676.19"/>
</g>
<!-- could -->
<g id="node7" class="node">
<title>could</title>
<ellipse fill="none" stroke="black" cx="315.73" cy="-639" rx="31.4" ry="18"/>
<text text-anchor="middle" x="315.73" y="-635.3" font-family="Times New Roman,serif" font-size="14.00">could</text>
</g>
<!-- GGXXO2&#45;&gt;could -->
<g id="edge6" class="edge">
<title>GGXXO2&#45;&gt;could</title>
<path fill="none" stroke="black" d="M224.03,-620.47C240.55,-623.84 259.46,-627.71 275.73,-631.03"/>
<polygon fill="black" stroke="black" points="275.48,-634.55 285.98,-633.13 276.88,-627.69 275.48,-634.55"/>
</g>
<!-- GGXGX3 -->
<g id="node10" class="node">
<title>GGXGX3</title>
<ellipse fill="none" stroke="black" cx="315.73" cy="-585" rx="48.19" ry="18"/>
<text text-anchor="middle" x="315.73" y="-581.3" font-family="Times New Roman,serif" font-size="14.00">GGXGX3</text>
</g>
<!-- GGXXO2&#45;&gt;GGXGX3 -->
<g id="edge9" class="edge">
<title>GGXXO2&#45;&gt;GGXGX3</title>
<path fill="none" stroke="black" d="M224.03,-603.53C236.34,-601.02 249.97,-598.23 262.85,-595.6"/>
<polygon fill="black" stroke="black" points="263.88,-598.96 272.97,-593.53 262.48,-592.1 263.88,-598.96"/>
</g>
<!-- colon -->
<g id="node6" class="node">
<title>colon</title>
<ellipse fill="none" stroke="black" cx="449.87" cy="-693" rx="31.4" ry="18"/>
<text text-anchor="middle" x="449.87" y="-689.3" font-family="Times New Roman,serif" font-size="14.00">colon</text>
</g>
<!-- GGXOX3&#45;&gt;colon -->
<g id="edge5" class="edge">
<title>GGXOX3&#45;&gt;colon</title>
<path fill="none" stroke="black" d="M364.06,-693C378.46,-693 394.15,-693 408.08,-693"/>
<polygon fill="black" stroke="black" points="408.34,-696.5 418.34,-693 408.34,-689.5 408.34,-696.5"/>
</g>
<!-- caulk -->
<g id="node9" class="node">
<title>caulk</title>
<ellipse fill="none" stroke="black" cx="315.73" cy="-531" rx="29.8" ry="18"/>
<text text-anchor="middle" x="315.73" y="-527.3" font-family="Times New Roman,serif" font-size="14.00">caulk</text>
</g>
<!-- GXXOO2&#45;&gt;caulk -->
<g id="edge8" class="edge">
<title>GXXOO2&#45;&gt;caulk</title>
<path fill="none" stroke="black" d="M221.88,-507.11C239.68,-511.69 260.61,-517.08 278.09,-521.57"/>
<polygon fill="black" stroke="black" points="277.38,-525 287.93,-524.11 279.12,-518.22 277.38,-525"/>
</g>
<!-- GOXGG3 -->
<g id="node25" class="node">
<title>GOXGG3</title>
<ellipse fill="none" stroke="black" cx="315.73" cy="-477" rx="48.99" ry="18"/>
<text text-anchor="middle" x="315.73" y="-473.3" font-family="Times New Roman,serif" font-size="14.00">GOXGG3</text>
</g>
<!-- GXXOO2&#45;&gt;GOXGG3 -->
<g id="edge24" class="edge">
<title>GXXOO2&#45;&gt;GOXGG3</title>
<path fill="none" stroke="black" d="M226.59,-490.34C237.39,-488.7 249.09,-486.93 260.32,-485.23"/>
<polygon fill="black" stroke="black" points="261.11,-488.66 270.47,-483.7 260.06,-481.73 261.11,-488.66"/>
</g>
<!-- coyly -->
<g id="node11" class="node">
<title>coyly</title>
<ellipse fill="none" stroke="black" cx="449.87" cy="-585" rx="30.59" ry="18"/>
<text text-anchor="middle" x="449.87" y="-581.3" font-family="Times New Roman,serif" font-size="14.00">coyly</text>
</g>
<!-- GGXGX3&#45;&gt;coyly -->
<g id="edge10" class="edge">
<title>GGXGX3&#45;&gt;coyly</title>
<path fill="none" stroke="black" d="M364.06,-585C378.7,-585 394.67,-585 408.77,-585"/>
<polygon fill="black" stroke="black" points="409.13,-588.5 419.13,-585 409.13,-581.5 409.13,-588.5"/>
</g>
<!-- octal -->
<g id="node13" class="node">
<title>octal</title>
<ellipse fill="none" stroke="black" cx="315.73" cy="-423" rx="28.7" ry="18"/>
<text text-anchor="middle" x="315.73" y="-419.3" font-family="Times New Roman,serif" font-size="14.00">octal</text>
</g>
<!-- OOXGG2&#45;&gt;octal -->
<g id="edge12" class="edge">
<title>OOXGG2&#45;&gt;octal</title>
<path fill="none" stroke="black" d="M226.96,-436.28C243.44,-433.79 261.95,-430.99 277.71,-428.6"/>
<polygon fill="black" stroke="black" points="278.25,-432.06 287.62,-427.1 277.21,-425.14 278.25,-432.06"/>
</g>
<!-- lucky -->
<g id="node15" class="node">
<title>lucky</title>
<ellipse fill="none" stroke="black" cx="315.73" cy="-369" rx="30.59" ry="18"/>
<text text-anchor="middle" x="315.73" y="-365.3" font-family="Times New Roman,serif" font-size="14.00">lucky</text>
</g>
<!-- OXXXO2&#45;&gt;lucky -->
<g id="edge14" class="edge">
<title>OXXXO2&#45;&gt;lucky</title>
<path fill="none" stroke="black" d="M226.59,-382.34C242.45,-379.94 260.23,-377.25 275.64,-374.92"/>
<polygon fill="black" stroke="black" points="276.51,-378.32 285.88,-373.37 275.47,-371.4 276.51,-378.32"/>
</g>
<!-- OGGGG4 -->
<g id="node17" class="node">
<title>OGGGG4</title>
<ellipse fill="none" stroke="black" cx="449.87" cy="-801" rx="49.29" ry="18"/>
<text text-anchor="middle" x="449.87" y="-797.3" font-family="Times New Roman,serif" font-size="14.00">OGGGG4</text>
</g>
<!-- XGGGG3&#45;&gt;OGGGG4 -->
<g id="edge16" class="edge">
<title>XGGGG3&#45;&gt;OGGGG4</title>
<path fill="none" stroke="black" d="M349.05,-760.21C366.49,-767.34 388.22,-776.21 406.94,-783.87"/>
<polygon fill="black" stroke="black" points="405.84,-787.2 416.42,-787.74 408.49,-780.72 405.84,-787.2"/>
</g>
<!-- local -->
<g id="node19" class="node">
<title>local</title>
<ellipse fill="none" stroke="black" cx="449.87" cy="-747" rx="27.9" ry="18"/>
<text text-anchor="middle" x="449.87" y="-743.3" font-family="Times New Roman,serif" font-size="14.00">local</text>
</g>
<!-- XGGGG3&#45;&gt;local -->
<g id="edge18" class="edge">
<title>XGGGG3&#45;&gt;local</title>
<path fill="none" stroke="black" d="M364.81,-747C380.25,-747 397.11,-747 411.64,-747"/>
<polygon fill="black" stroke="black" points="411.77,-750.5 421.77,-747 411.77,-743.5 411.77,-750.5"/>
</g>
<!-- vocal -->
<g id="node18" class="node">
<title>vocal</title>
<ellipse fill="none" stroke="black" cx="565.81" cy="-801" rx="30.59" ry="18"/>
<text text-anchor="middle" x="565.81" y="-797.3" font-family="Times New Roman,serif" font-size="14.00">vocal</text>
</g>
<!-- OGGGG4&#45;&gt;vocal -->
<g id="edge17" class="edge">
<title>OGGGG4&#45;&gt;vocal</title>
<path fill="none" stroke="black" d="M499.52,-801C508.03,-801 516.79,-801 525.02,-801"/>
<polygon fill="black" stroke="black" points="525.1,-804.5 535.1,-801 525.1,-797.5 525.1,-804.5"/>
</g>
<!-- curly -->
<g id="node22" class="node">
<title>curly</title>
<ellipse fill="none" stroke="black" cx="315.73" cy="-288" rx="28.7" ry="18"/>
<text text-anchor="middle" x="315.73" y="-284.3" font-family="Times New Roman,serif" font-size="14.00">curly</text>
</g>
<!-- GXGXO2&#45;&gt;curly -->
<g id="edge21" class="edge">
<title>GXGXO2&#45;&gt;curly</title>
<path fill="none" stroke="black" d="M229.55,-283.49C245.07,-284.31 262.13,-285.21 276.88,-285.99"/>
<polygon fill="black" stroke="black" points="276.98,-289.51 287.15,-286.54 277.35,-282.52 276.98,-289.51"/>
</g>
<!-- carol -->
<g id="node24" class="node">
<title>carol</title>
<ellipse fill="none" stroke="black" cx="315.73" cy="-234" rx="28.7" ry="18"/>
<text text-anchor="middle" x="315.73" y="-230.3" font-family="Times New Roman,serif" font-size="14.00">carol</text>
</g>
<!-- GOGOG2&#45;&gt;carol -->
<g id="edge23" class="edge">
<title>GOGOG2&#45;&gt;carol</title>
<path fill="none" stroke="black" d="M230.67,-229.55C245.87,-230.35 262.45,-231.23 276.83,-231.99"/>
<polygon fill="black" stroke="black" points="276.69,-235.49 286.87,-232.52 277.07,-228.5 276.69,-235.49"/>
</g>
<!-- chalk -->
<g id="node26" class="node">
<title>chalk</title>
<ellipse fill="none" stroke="black" cx="449.87" cy="-477" rx="29.8" ry="18"/>
<text text-anchor="middle" x="449.87" y="-473.3" font-family="Times New Roman,serif" font-size="14.00">chalk</text>
</g>
<!-- GOXGG3&#45;&gt;chalk -->
<g id="edge25" class="edge">
<title>GOXGG3&#45;&gt;chalk</title>
<path fill="none" stroke="black" d="M364.81,-477C379.51,-477 395.5,-477 409.54,-477"/>
<polygon fill="black" stroke="black" points="409.85,-480.5 419.85,-477 409.85,-473.5 409.85,-480.5"/>
</g>
<!-- GGXGG3 -->
<g id="node28" class="node">
<title>GGXGG3</title>
<ellipse fill="none" stroke="black" cx="315.73" cy="-180" rx="48.99" ry="18"/>
<text text-anchor="middle" x="315.73" y="-176.3" font-family="Times New Roman,serif" font-size="14.00">GGXGG3</text>
</g>
<!-- GXXGG2&#45;&gt;GGXGG3 -->
<g id="edge27" class="edge">
<title>GXXGG2&#45;&gt;GGXGG3</title>
<path fill="none" stroke="black" d="M229.55,-175.49C238.39,-175.96 247.73,-176.45 256.85,-176.93"/>
<polygon fill="black" stroke="black" points="256.86,-180.44 267.03,-177.47 257.23,-173.45 256.86,-180.44"/>
</g>
<!-- cabal -->
<g id="node34" class="node">
<title>cabal</title>
<ellipse fill="none" stroke="black" cx="315.73" cy="-126" rx="29.8" ry="18"/>
<text text-anchor="middle" x="315.73" y="-122.3" font-family="Times New Roman,serif" font-size="14.00">cabal</text>
</g>
<!-- GXXGG2&#45;&gt;cabal -->
<g id="edge33" class="edge">
<title>GXXGG2&#45;&gt;cabal</title>
<path fill="none" stroke="black" d="M216.96,-160.77C236.46,-153.84 260.77,-145.19 280.28,-138.25"/>
<polygon fill="black" stroke="black" points="281.46,-141.55 289.71,-134.9 279.12,-134.95 281.46,-141.55"/>
</g>
<!-- canal -->
<g id="node29" class="node">
<title>canal</title>
<ellipse fill="none" stroke="black" cx="449.87" cy="-180" rx="29.5" ry="18"/>
<text text-anchor="middle" x="449.87" y="-176.3" font-family="Times New Roman,serif" font-size="14.00">canal</text>
</g>
<!-- GGXGG3&#45;&gt;canal -->
<g id="edge28" class="edge">
<title>GGXGG3&#45;&gt;canal</title>
<path fill="none" stroke="black" d="M364.81,-180C379.63,-180 395.75,-180 409.88,-180"/>
<polygon fill="black" stroke="black" points="410.24,-183.5 420.24,-180 410.24,-176.5 410.24,-183.5"/>
</g>
<!-- crawl -->
<g id="node31" class="node">
<title>crawl</title>
<ellipse fill="none" stroke="black" cx="315.73" cy="-72" rx="30.59" ry="18"/>
<text text-anchor="middle" x="315.73" y="-68.3" font-family="Times New Roman,serif" font-size="14.00">crawl</text>
</g>
<!-- GXOOG2&#45;&gt;crawl -->
<g id="edge30" class="edge">
<title>GXOOG2&#45;&gt;crawl</title>
<path fill="none" stroke="black" d="M222.23,-95.8C239.77,-91.29 260.29,-86.01 277.53,-81.57"/>
<polygon fill="black" stroke="black" points="278.45,-84.95 287.26,-79.07 276.71,-78.17 278.45,-84.95"/>
</g>
<!-- color -->
<g id="node33" class="node">
<title>color</title>
<ellipse fill="none" stroke="black" cx="315.73" cy="-18" rx="29.8" ry="18"/>
<text text-anchor="middle" x="315.73" y="-14.3" font-family="Times New Roman,serif" font-size="14.00">color</text>
</g>
<!-- GGOXO2&#45;&gt;color -->
<g id="edge32" class="edge">
<title>GGOXO2&#45;&gt;color</title>
<path fill="none" stroke="black" d="M229.92,-22.49C244.94,-21.7 261.36,-20.83 275.72,-20.07"/>
<polygon fill="black" stroke="black" points="275.97,-23.56 285.77,-19.53 275.6,-16.57 275.97,-23.56"/>
</g>
</g>
</svg>
