<?xml version="1.0" encoding="UTF-8" standalone="no"?>
<!DOCTYPE svg PUBLIC "-//W3C//DTD SVG 1.1//EN"
 "http://www.w3.org/Graphics/SVG/1.1/DTD/svg11.dtd">
<!-- Generated by graphviz version 2.50.0 (20211204.2007)
 -->
<!-- Pages: 1 -->
<svg width="339pt" height="314pt"
 viewBox="0.00 0.00 338.68 314.00" xmlns="http://www.w3.org/2000/svg" xmlns:xlink="http://www.w3.org/1999/xlink">
<g id="graph0" class="graph" transform="scale(1 1) rotate(0) translate(4 310)">
<polygon fill="white" stroke="transparent" points="-4,4 -4,-310 334.68,-310 334.68,4 -4,4"/>
<!-- XXOOO1 -->
<g id="node1" class="node">
<title>XXOOO1</title>
<ellipse fill="none" stroke="black" cx="48.1" cy="-153" rx="48.19" ry="18"/>
<text text-anchor="middle" x="48.1" y="-149.3" font-family="Times New Roman,serif" font-size="14.00">XXOOO1</text>
</g>
<!-- OGXGG2 -->
<g id="node2" class="node">
<title>OGXGG2</title>
<ellipse fill="none" stroke="black" cx="180.94" cy="-288" rx="48.99" ry="18"/>
<text text-anchor="middle" x="180.94" y="-284.3" font-family="Times New Roman,serif" font-size="14.00">OGXGG2</text>
</g>
<!-- XXOOO1&#45;&gt;OGXGG2 -->
<g id="edge1" class="edge">
<title>XXOOO1&#45;&gt;OGXGG2</title>
<path fill="none" stroke="black" d="M59.64,-170.84C73.89,-193.82 101.1,-234.02 132.19,-261 135.18,-263.59 138.46,-266.06 141.85,-268.36"/>
<polygon fill="black" stroke="black" points="140.1,-271.4 150.42,-273.76 143.83,-265.47 140.1,-271.4"/>
</g>
<!-- cider -->
<g id="node4" class="node">
<title>cider</title>
<ellipse fill="none" stroke="black" cx="180.94" cy="-234" rx="28.7" ry="18"/>
<text text-anchor="middle" x="180.94" y="-230.3" font-family="Times New Roman,serif" font-size="14.00">cider</text>
</g>
<!-- XXOOO1&#45;&gt;cider -->
<g id="edge3" class="edge">
<title>XXOOO1&#45;&gt;cider</title>
<path fill="none" stroke="black" d="M72.49,-168.75C89.01,-179.74 111.75,-194.59 132.19,-207 137.85,-210.44 143.97,-214 149.86,-217.37"/>
<polygon fill="black" stroke="black" points="148.43,-220.58 158.86,-222.45 151.87,-214.48 148.43,-220.58"/>
</g>
<!-- OOXOX2 -->
<g id="node5" class="node">
<title>OOXOX2</title>
<ellipse fill="none" stroke="black" cx="180.94" cy="-180" rx="48.19" ry="18"/>
<text text-anchor="middle" x="180.94" y="-176.3" font-family="Times New Roman,serif" font-size="14.00">OOXOX2</text>
</g>
<!-- XXOOO1&#45;&gt;OOXOX2 -->
<g id="edge4" class="edge">
<title>XXOOO1&#45;&gt;OOXOX2</title>
<path fill="none" stroke="black" d="M90.49,-161.54C102.55,-164.03 115.86,-166.78 128.45,-169.38"/>
<polygon fill="black" stroke="black" points="127.86,-172.83 138.36,-171.42 129.27,-165.97 127.86,-172.83"/>
</g>
<!-- OGOGX2 -->
<g id="node7" class="node">
<title>OGOGX2</title>
<ellipse fill="none" stroke="black" cx="180.94" cy="-126" rx="48.99" ry="18"/>
<text text-anchor="middle" x="180.94" y="-122.3" font-family="Times New Roman,serif" font-size="14.00">OGOGX2</text>
</g>
<!-- XXOOO1&#45;&gt;OGOGX2 -->
<g id="edge6" class="edge">
<title>XXOOO1&#45;&gt;OGOGX2</title>
<path fill="none" stroke="black" d="M90.49,-144.46C102.43,-141.99 115.6,-139.28 128.08,-136.7"/>
<polygon fill="black" stroke="black" points="128.82,-140.12 137.91,-134.67 127.41,-133.27 128.82,-140.12"/>
</g>
<!-- OGXGX2 -->
<g id="node9" class="node">
<title>OGXGX2</title>
<ellipse fill="none" stroke="black" cx="180.94" cy="-72" rx="48.19" ry="18"/>
<text text-anchor="middle" x="180.94" y="-68.3" font-family="Times New Roman,serif" font-size="14.00">OGXGX2</text>
</g>
<!-- XXOOO1&#45;&gt;OGXGX2 -->
<g id="edge8" class="edge">
<title>XXOOO1&#45;&gt;OGXGX2</title>
<path fill="none" stroke="black" d="M72.49,-137.25C89.01,-126.26 111.75,-111.41 132.19,-99 136.05,-96.66 140.12,-94.26 144.18,-91.9"/>
<polygon fill="black" stroke="black" points="146.06,-94.86 153,-86.85 142.58,-88.78 146.06,-94.86"/>
</g>
<!-- OOGOX2 -->
<g id="node11" class="node">
<title>OOGOX2</title>
<ellipse fill="none" stroke="black" cx="180.94" cy="-18" rx="48.99" ry="18"/>
<text text-anchor="middle" x="180.94" y="-14.3" font-family="Times New Roman,serif" font-size="14.00">OOGOX2</text>
</g>
<!-- XXOOO1&#45;&gt;OOGOX2 -->
<g id="edge10" class="edge">
<title>XXOOO1&#45;&gt;OOGOX2</title>
<path fill="none" stroke="black" d="M59.64,-135.16C73.89,-112.18 101.1,-71.98 132.19,-45 135.18,-42.41 138.46,-39.94 141.85,-37.64"/>
<polygon fill="black" stroke="black" points="143.83,-40.53 150.42,-32.24 140.1,-34.6 143.83,-40.53"/>
</g>
<!-- nicer -->
<g id="node3" class="node">
<title>nicer</title>
<ellipse fill="none" stroke="black" cx="298.18" cy="-288" rx="28.7" ry="18"/>
<text text-anchor="middle" x="298.18" y="-284.3" font-family="Times New Roman,serif" font-size="14.00">nicer</text>
</g>
<!-- OGXGG2&#45;&gt;nicer -->
<g id="edge2" class="edge">
<title>OGXGG2&#45;&gt;nicer</title>
<path fill="none" stroke="black" d="M229.81,-288C239.6,-288 249.79,-288 259.18,-288"/>
<polygon fill="black" stroke="black" points="259.39,-291.5 269.39,-288 259.38,-284.5 259.39,-291.5"/>
</g>
<!-- ethic -->
<g id="node6" class="node">
<title>ethic</title>
<ellipse fill="none" stroke="black" cx="298.18" cy="-180" rx="27.9" ry="18"/>
<text text-anchor="middle" x="298.18" y="-176.3" font-family="Times New Roman,serif" font-size="14.00">ethic</text>
</g>
<!-- OOXOX2&#45;&gt;ethic -->
<g id="edge5" class="edge">
<title>OOXOX2&#45;&gt;ethic</title>
<path fill="none" stroke="black" d="M229.14,-180C239.37,-180 250.05,-180 259.83,-180"/>
<polygon fill="black" stroke="black" points="260.03,-183.5 270.03,-180 260.03,-176.5 260.03,-183.5"/>
</g>
<!-- dicey -->
<g id="node8" class="node">
<title>dicey</title>
<ellipse fill="none" stroke="black" cx="298.18" cy="-126" rx="30.59" ry="18"/>
<text text-anchor="middle" x="298.18" y="-122.3" font-family="Times New Roman,serif" font-size="14.00">dicey</text>
</g>
<!-- OGOGX2&#45;&gt;dicey -->
<g id="edge7" class="edge">
<title>OGOGX2&#45;&gt;dicey</title>
<path fill="none" stroke="black" d="M229.81,-126C238.97,-126 248.46,-126 257.33,-126"/>
<polygon fill="black" stroke="black" points="257.4,-129.5 267.4,-126 257.4,-122.5 257.4,-129.5"/>
</g>
<!-- bicep -->
<g id="node10" class="node">
<title>bicep</title>
<ellipse fill="none" stroke="black" cx="298.18" cy="-72" rx="30.59" ry="18"/>
<text text-anchor="middle" x="298.18" y="-68.3" font-family="Times New Roman,serif" font-size="14.00">bicep</text>
</g>
<!-- OGXGX2&#45;&gt;bicep -->
<g id="edge9" class="edge">
<title>OGXGX2&#45;&gt;bicep</title>
<path fill="none" stroke="black" d="M229.14,-72C238.44,-72 248.1,-72 257.13,-72"/>
<polygon fill="black" stroke="black" points="257.38,-75.5 267.38,-72 257.38,-68.5 257.38,-75.5"/>
</g>
<!-- medic -->
<g id="node12" class="node">
<title>medic</title>
<ellipse fill="none" stroke="black" cx="298.18" cy="-18" rx="32.49" ry="18"/>
<text text-anchor="middle" x="298.18" y="-14.3" font-family="Times New Roman,serif" font-size="14.00">medic</text>
</g>
<!-- OOGOX2&#45;&gt;medic -->
<g id="edge11" class="edge">
<title>OOGOX2&#45;&gt;medic</title>
<path fill="none" stroke="black" d="M229.81,-18C238.24,-18 246.97,-18 255.23,-18"/>
<polygon fill="black" stroke="black" points="255.38,-21.5 265.38,-18 255.38,-14.5 255.38,-21.5"/>
</g>
</g>
</svg>
