<?xml version="1.0" encoding="UTF-8" standalone="no"?>
<!DOCTYPE svg PUBLIC "-//W3C//DTD SVG 1.1//EN"
 "http://www.w3.org/Graphics/SVG/1.1/DTD/svg11.dtd">
<!-- Generated by graphviz version 2.50.0 (20211204.2007)
 -->
<!-- Pages: 1 -->
<svg width="463pt" height="152pt"
 viewBox="0.00 0.00 463.07 152.00" xmlns="http://www.w3.org/2000/svg" xmlns:xlink="http://www.w3.org/1999/xlink">
<g id="graph0" class="graph" transform="scale(1 1) rotate(0) translate(4 148)">
<polygon fill="white" stroke="transparent" points="-4,4 -4,-148 459.07,-148 459.07,4 -4,4"/>
<!-- GXOXG1 -->
<g id="node1" class="node">
<title>GXOXG1</title>
<ellipse fill="none" stroke="black" cx="48.1" cy="-45" rx="48.19" ry="18"/>
<text text-anchor="middle" x="48.1" y="-41.3" font-family="Times New Roman,serif" font-size="14.00">GXOXG1</text>
</g>
<!-- XOXXX2 -->
<g id="node2" class="node">
<title>XOXXX2</title>
<ellipse fill="none" stroke="black" cx="180.29" cy="-72" rx="47.39" ry="18"/>
<text text-anchor="middle" x="180.29" y="-68.3" font-family="Times New Roman,serif" font-size="14.00">XOXXX2</text>
</g>
<!-- GXOXG1&#45;&gt;XOXXX2 -->
<g id="edge1" class="edge">
<title>GXOXG1&#45;&gt;XOXXX2</title>
<path fill="none" stroke="black" d="M90.65,-53.62C102.63,-56.1 115.83,-58.84 128.31,-61.43"/>
<polygon fill="black" stroke="black" points="127.63,-64.86 138.13,-63.46 129.05,-58.01 127.63,-64.86"/>
</g>
<!-- XOGXX2 -->
<g id="node4" class="node">
<title>XOGXX2</title>
<ellipse fill="none" stroke="black" cx="180.29" cy="-18" rx="48.19" ry="18"/>
<text text-anchor="middle" x="180.29" y="-14.3" font-family="Times New Roman,serif" font-size="14.00">XOGXX2</text>
</g>
<!-- GXOXG1&#45;&gt;XOGXX2 -->
<g id="edge3" class="edge">
<title>GXOXG1&#45;&gt;XOGXX2</title>
<path fill="none" stroke="black" d="M90.65,-36.38C102.39,-33.95 115.32,-31.27 127.58,-28.72"/>
<polygon fill="black" stroke="black" points="128.6,-32.09 137.68,-26.63 127.18,-25.23 128.6,-32.09"/>
</g>
<!-- siege -->
<g id="node3" class="node">
<title>siege</title>
<ellipse fill="none" stroke="black" cx="313.13" cy="-126" rx="28.7" ry="18"/>
<text text-anchor="middle" x="313.13" y="-122.3" font-family="Times New Roman,serif" font-size="14.00">siege</text>
</g>
<!-- XOXXX2&#45;&gt;siege -->
<g id="edge2" class="edge">
<title>XOXXX2&#45;&gt;siege</title>
<path fill="none" stroke="black" d="M212.96,-85.07C232.98,-93.33 258.8,-103.99 279.08,-112.36"/>
<polygon fill="black" stroke="black" points="277.96,-115.68 288.54,-116.26 280.63,-109.21 277.96,-115.68"/>
</g>
<!-- GGGXG3 -->
<g id="node6" class="node">
<title>GGGXG3</title>
<ellipse fill="none" stroke="black" cx="313.13" cy="-72" rx="48.99" ry="18"/>
<text text-anchor="middle" x="313.13" y="-68.3" font-family="Times New Roman,serif" font-size="14.00">GGGXG3</text>
</g>
<!-- XOXXX2&#45;&gt;GGGXG3 -->
<g id="edge5" class="edge">
<title>XOXXX2&#45;&gt;GGGXG3</title>
<path fill="none" stroke="black" d="M227.79,-72C236.23,-72 245.14,-72 253.87,-72"/>
<polygon fill="black" stroke="black" points="254.01,-75.5 264.01,-72 254.01,-68.5 254.01,-75.5"/>
</g>
<!-- singe -->
<g id="node5" class="node">
<title>singe</title>
<ellipse fill="none" stroke="black" cx="313.13" cy="-18" rx="29.5" ry="18"/>
<text text-anchor="middle" x="313.13" y="-14.3" font-family="Times New Roman,serif" font-size="14.00">singe</text>
</g>
<!-- XOGXX2&#45;&gt;singe -->
<g id="edge4" class="edge">
<title>XOGXX2&#45;&gt;singe</title>
<path fill="none" stroke="black" d="M228.52,-18C243.22,-18 259.25,-18 273.31,-18"/>
<polygon fill="black" stroke="black" points="273.62,-21.5 283.62,-18 273.62,-14.5 273.62,-21.5"/>
</g>
<!-- sieve -->
<g id="node7" class="node">
<title>sieve</title>
<ellipse fill="none" stroke="black" cx="426.47" cy="-72" rx="28.7" ry="18"/>
<text text-anchor="middle" x="426.47" y="-68.3" font-family="Times New Roman,serif" font-size="14.00">sieve</text>
</g>
<!-- GGGXG3&#45;&gt;sieve -->
<g id="edge6" class="edge">
<title>GGGXG3&#45;&gt;sieve</title>
<path fill="none" stroke="black" d="M361.99,-72C370.53,-72 379.32,-72 387.53,-72"/>
<polygon fill="black" stroke="black" points="387.56,-75.5 397.56,-72 387.56,-68.5 387.56,-75.5"/>
</g>
</g>
</svg>
