<?xml version="1.0" encoding="UTF-8" standalone="no"?>
<!DOCTYPE svg PUBLIC "-//W3C//DTD SVG 1.1//EN"
 "http://www.w3.org/Graphics/SVG/1.1/DTD/svg11.dtd">
<!-- Generated by graphviz version 2.50.0 (20211204.2007)
 -->
<!-- Pages: 1 -->
<svg width="328pt" height="98pt"
 viewBox="0.00 0.00 328.28 98.00" xmlns="http://www.w3.org/2000/svg" xmlns:xlink="http://www.w3.org/1999/xlink">
<g id="graph0" class="graph" transform="scale(1 1) rotate(0) translate(4 94)">
<polygon fill="white" stroke="transparent" points="-4,4 -4,-94 324.28,-94 324.28,4 -4,4"/>
<!-- OXGXO1 -->
<g id="node1" class="node">
<title>OXGXO1</title>
<ellipse fill="none" stroke="black" cx="48.1" cy="-45" rx="48.19" ry="18"/>
<text text-anchor="middle" x="48.1" y="-41.3" font-family="Times New Roman,serif" font-size="14.00">OXGXO1</text>
</g>
<!-- OXGGG2 -->
<g id="node2" class="node">
<title>OXGGG2</title>
<ellipse fill="none" stroke="black" cx="180.94" cy="-72" rx="48.99" ry="18"/>
<text text-anchor="middle" x="180.94" y="-68.3" font-family="Times New Roman,serif" font-size="14.00">OXGGG2</text>
</g>
<!-- OXGXO1&#45;&gt;OXGGG2 -->
<g id="edge1" class="edge">
<title>OXGXO1&#45;&gt;OXGGG2</title>
<path fill="none" stroke="black" d="M90.49,-53.54C102.43,-56.01 115.6,-58.72 128.08,-61.3"/>
<polygon fill="black" stroke="black" points="127.41,-64.73 137.91,-63.33 128.82,-57.88 127.41,-64.73"/>
</g>
<!-- exist -->
<g id="node4" class="node">
<title>exist</title>
<ellipse fill="none" stroke="black" cx="180.94" cy="-18" rx="27.1" ry="18"/>
<text text-anchor="middle" x="180.94" y="-14.3" font-family="Times New Roman,serif" font-size="14.00">exist</text>
</g>
<!-- OXGXO1&#45;&gt;exist -->
<g id="edge3" class="edge">
<title>OXGXO1&#45;&gt;exist</title>
<path fill="none" stroke="black" d="M90.49,-36.46C107.98,-32.85 128.12,-28.69 144.86,-25.24"/>
<polygon fill="black" stroke="black" points="145.7,-28.64 154.79,-23.19 144.29,-21.78 145.7,-28.64"/>
</g>
<!-- heist -->
<g id="node3" class="node">
<title>heist</title>
<ellipse fill="none" stroke="black" cx="292.98" cy="-72" rx="27.1" ry="18"/>
<text text-anchor="middle" x="292.98" y="-68.3" font-family="Times New Roman,serif" font-size="14.00">heist</text>
</g>
<!-- OXGGG2&#45;&gt;heist -->
<g id="edge2" class="edge">
<title>OXGGG2&#45;&gt;heist</title>
<path fill="none" stroke="black" d="M229.88,-72C238.52,-72 247.39,-72 255.62,-72"/>
<polygon fill="black" stroke="black" points="255.65,-75.5 265.65,-72 255.65,-68.5 255.65,-75.5"/>
</g>
</g>
</svg>
