<?xml version="1.0" encoding="UTF-8" standalone="no"?>
<!DOCTYPE svg PUBLIC "-//W3C//DTD SVG 1.1//EN"
 "http://www.w3.org/Graphics/SVG/1.1/DTD/svg11.dtd">
<!-- Generated by graphviz version 2.50.0 (20211204.2007)
 -->
<!-- Pages: 1 -->
<svg width="596pt" height="800pt"
 viewBox="0.00 0.00 595.97 800.00" xmlns="http://www.w3.org/2000/svg" xmlns:xlink="http://www.w3.org/1999/xlink">
<g id="graph0" class="graph" transform="scale(1 1) rotate(0) translate(4 796)">
<polygon fill="white" stroke="transparent" points="-4,4 -4,-796 591.97,-796 591.97,4 -4,4"/>
<!-- XOGXX1 -->
<g id="node1" class="node">
<title>XOGXX1</title>
<ellipse fill="none" stroke="black" cx="48.1" cy="-396" rx="48.19" ry="18"/>
<text text-anchor="middle" x="48.1" y="-392.3" font-family="Times New Roman,serif" font-size="14.00">XOGXX1</text>
</g>
<!-- OXGOX2 -->
<g id="node2" class="node">
<title>OXGOX2</title>
<ellipse fill="none" stroke="black" cx="180.94" cy="-747" rx="48.19" ry="18"/>
<text text-anchor="middle" x="180.94" y="-743.3" font-family="Times New Roman,serif" font-size="14.00">OXGOX2</text>
</g>
<!-- XOGXX1&#45;&gt;OXGOX2 -->
<g id="edge1" class="edge">
<title>XOGXX1&#45;&gt;OXGOX2</title>
<path fill="none" stroke="black" d="M51.29,-414.13C57.68,-462.2 79.34,-595.89 132.19,-693 138.02,-703.71 146.33,-714.09 154.39,-722.84"/>
<polygon fill="black" stroke="black" points="151.89,-725.29 161.34,-730.08 156.94,-720.44 151.89,-725.29"/>
</g>
<!-- guild -->
<g id="node4" class="node">
<title>guild</title>
<ellipse fill="none" stroke="black" cx="180.94" cy="-666" rx="28.7" ry="18"/>
<text text-anchor="middle" x="180.94" y="-662.3" font-family="Times New Roman,serif" font-size="14.00">guild</text>
</g>
<!-- XOGXX1&#45;&gt;guild -->
<g id="edge3" class="edge">
<title>XOGXX1&#45;&gt;guild</title>
<path fill="none" stroke="black" d="M50.87,-413.98C56,-457.37 74.38,-569.36 132.19,-639 136.34,-644 141.67,-648.25 147.26,-651.8"/>
<polygon fill="black" stroke="black" points="145.69,-654.94 156.12,-656.81 149.13,-648.84 145.69,-654.94"/>
</g>
<!-- GXGGX2 -->
<g id="node5" class="node">
<title>GXGGX2</title>
<ellipse fill="none" stroke="black" cx="180.94" cy="-396" rx="48.19" ry="18"/>
<text text-anchor="middle" x="180.94" y="-392.3" font-family="Times New Roman,serif" font-size="14.00">GXGGX2</text>
</g>
<!-- XOGXX1&#45;&gt;GXGGX2 -->
<g id="edge4" class="edge">
<title>XOGXX1&#45;&gt;GXGGX2</title>
<path fill="none" stroke="black" d="M96.33,-396C104.86,-396 113.83,-396 122.6,-396"/>
<polygon fill="black" stroke="black" points="122.77,-399.5 132.77,-396 122.77,-392.5 122.77,-399.5"/>
</g>
<!-- XGGGX2 -->
<g id="node7" class="node">
<title>XGGGX2</title>
<ellipse fill="none" stroke="black" cx="180.94" cy="-612" rx="48.19" ry="18"/>
<text text-anchor="middle" x="180.94" y="-608.3" font-family="Times New Roman,serif" font-size="14.00">XGGGX2</text>
</g>
<!-- XOGXX1&#45;&gt;XGGGX2 -->
<g id="edge6" class="edge">
<title>XOGXX1&#45;&gt;XGGGX2</title>
<path fill="none" stroke="black" d="M59.8,-413.68C82.77,-451.58 136.85,-540.87 163.92,-585.56"/>
<polygon fill="black" stroke="black" points="161.09,-587.64 169.27,-594.38 167.08,-584.02 161.09,-587.64"/>
</g>
<!-- XXGOX2 -->
<g id="node10" class="node">
<title>XXGOX2</title>
<ellipse fill="none" stroke="black" cx="180.94" cy="-504" rx="48.19" ry="18"/>
<text text-anchor="middle" x="180.94" y="-500.3" font-family="Times New Roman,serif" font-size="14.00">XXGOX2</text>
</g>
<!-- XOGXX1&#45;&gt;XXGOX2 -->
<g id="edge9" class="edge">
<title>XOGXX1&#45;&gt;XXGOX2</title>
<path fill="none" stroke="black" d="M68.97,-412.4C91.06,-430.64 126.92,-460.24 151.87,-480.83"/>
<polygon fill="black" stroke="black" points="149.94,-483.78 159.88,-487.44 154.39,-478.38 149.94,-483.78"/>
</g>
<!-- XGGGG2 -->
<g id="node15" class="node">
<title>XGGGG2</title>
<ellipse fill="none" stroke="black" cx="180.94" cy="-275" rx="48.99" ry="18"/>
<text text-anchor="middle" x="180.94" y="-271.3" font-family="Times New Roman,serif" font-size="14.00">XGGGG2</text>
</g>
<!-- XOGXX1&#45;&gt;XGGGG2 -->
<g id="edge14" class="edge">
<title>XOGXX1&#45;&gt;XGGGG2</title>
<path fill="none" stroke="black" d="M65.61,-379.18C82.13,-362.52 108.43,-336.48 132.19,-315 138.4,-309.39 145.21,-303.52 151.7,-298.06"/>
<polygon fill="black" stroke="black" points="154.23,-300.5 159.67,-291.41 149.75,-295.12 154.23,-300.5"/>
</g>
<!-- GGGGX2 -->
<g id="node22" class="node">
<title>GGGGX2</title>
<ellipse fill="none" stroke="black" cx="180.94" cy="-207" rx="48.99" ry="18"/>
<text text-anchor="middle" x="180.94" y="-203.3" font-family="Times New Roman,serif" font-size="14.00">GGGGX2</text>
</g>
<!-- XOGXX1&#45;&gt;GGGGX2 -->
<g id="edge21" class="edge">
<title>XOGXX1&#45;&gt;GGGGX2</title>
<path fill="none" stroke="black" d="M56.75,-377.89C69.63,-348.68 97.64,-290.17 132.19,-248 137.45,-241.58 143.79,-235.36 150.11,-229.79"/>
<polygon fill="black" stroke="black" points="152.63,-232.24 158.01,-223.11 148.12,-226.89 152.63,-232.24"/>
</g>
<!-- XXGGX2 -->
<g id="node24" class="node">
<title>XXGGX2</title>
<ellipse fill="none" stroke="black" cx="180.94" cy="-99" rx="48.19" ry="18"/>
<text text-anchor="middle" x="180.94" y="-95.3" font-family="Times New Roman,serif" font-size="14.00">XXGGX2</text>
</g>
<!-- XOGXX1&#45;&gt;XXGGX2 -->
<g id="edge23" class="edge">
<title>XOGXX1&#45;&gt;XXGGX2</title>
<path fill="none" stroke="black" d="M54.91,-377.94C67.27,-340.31 97.85,-251.09 132.19,-180 141.33,-161.08 153.35,-140.7 163.05,-125.12"/>
<polygon fill="black" stroke="black" points="166.08,-126.88 168.44,-116.55 160.15,-123.15 166.08,-126.88"/>
</g>
<!-- XXGGO2 -->
<g id="node27" class="node">
<title>XXGGO2</title>
<ellipse fill="none" stroke="black" cx="180.94" cy="-342" rx="48.19" ry="18"/>
<text text-anchor="middle" x="180.94" y="-338.3" font-family="Times New Roman,serif" font-size="14.00">XXGGO2</text>
</g>
<!-- XOGXX1&#45;&gt;XXGGO2 -->
<g id="edge26" class="edge">
<title>XOGXX1&#45;&gt;XXGGO2</title>
<path fill="none" stroke="black" d="M81.1,-382.79C98.37,-375.66 119.88,-366.79 138.42,-359.13"/>
<polygon fill="black" stroke="black" points="139.9,-362.31 147.81,-355.26 137.23,-355.84 139.9,-362.31"/>
</g>
<!-- lying -->
<g id="node3" class="node">
<title>lying</title>
<ellipse fill="none" stroke="black" cx="314.43" cy="-774" rx="27.9" ry="18"/>
<text text-anchor="middle" x="314.43" y="-770.3" font-family="Times New Roman,serif" font-size="14.00">lying</text>
</g>
<!-- OXGOX2&#45;&gt;lying -->
<g id="edge2" class="edge">
<title>OXGOX2&#45;&gt;lying</title>
<path fill="none" stroke="black" d="M223.54,-755.54C240.86,-759.1 260.78,-763.19 277.46,-766.61"/>
<polygon fill="black" stroke="black" points="276.87,-770.07 287.37,-768.65 278.28,-763.21 276.87,-770.07"/>
</g>
<!-- gaily -->
<g id="node6" class="node">
<title>gaily</title>
<ellipse fill="none" stroke="black" cx="314.43" cy="-396" rx="27.1" ry="18"/>
<text text-anchor="middle" x="314.43" y="-392.3" font-family="Times New Roman,serif" font-size="14.00">gaily</text>
</g>
<!-- GXGGX2&#45;&gt;gaily -->
<g id="edge5" class="edge">
<title>GXGGX2&#45;&gt;gaily</title>
<path fill="none" stroke="black" d="M229.04,-396C244.69,-396 261.88,-396 276.64,-396"/>
<polygon fill="black" stroke="black" points="276.9,-399.5 286.9,-396 276.9,-392.5 276.9,-399.5"/>
</g>
<!-- GXGGX3 -->
<g id="node17" class="node">
<title>GXGGX3</title>
<ellipse fill="none" stroke="black" cx="314.43" cy="-342" rx="48.19" ry="18"/>
<text text-anchor="middle" x="314.43" y="-338.3" font-family="Times New Roman,serif" font-size="14.00">GXGGX3</text>
</g>
<!-- GXGGX2&#45;&gt;GXGGX3 -->
<g id="edge16" class="edge">
<title>GXGGX2&#45;&gt;GXGGX3</title>
<path fill="none" stroke="black" d="M214.1,-382.79C231.46,-375.66 253.07,-366.79 271.71,-359.13"/>
<polygon fill="black" stroke="black" points="273.22,-362.3 281.14,-355.26 270.56,-355.82 273.22,-362.3"/>
</g>
<!-- XXOOO3 -->
<g id="node8" class="node">
<title>XXOOO3</title>
<ellipse fill="none" stroke="black" cx="314.43" cy="-666" rx="48.19" ry="18"/>
<text text-anchor="middle" x="314.43" y="-662.3" font-family="Times New Roman,serif" font-size="14.00">XXOOO3</text>
</g>
<!-- XGGGX2&#45;&gt;XXOOO3 -->
<g id="edge7" class="edge">
<title>XGGGX2&#45;&gt;XXOOO3</title>
<path fill="none" stroke="black" d="M214.1,-625.21C231.46,-632.34 253.07,-641.21 271.71,-648.87"/>
<polygon fill="black" stroke="black" points="270.56,-652.18 281.14,-652.74 273.22,-645.7 270.56,-652.18"/>
</g>
<!-- XOOOX3 -->
<g id="node13" class="node">
<title>XOOOX3</title>
<ellipse fill="none" stroke="black" cx="314.43" cy="-720" rx="48.19" ry="18"/>
<text text-anchor="middle" x="314.43" y="-716.3" font-family="Times New Roman,serif" font-size="14.00">XOOOX3</text>
</g>
<!-- XGGGX2&#45;&gt;XOOOX3 -->
<g id="edge12" class="edge">
<title>XGGGX2&#45;&gt;XOOOX3</title>
<path fill="none" stroke="black" d="M211.69,-625.97C218.02,-629.69 224.38,-634.07 229.68,-639 250.81,-658.63 244.55,-673.37 265.68,-693 268.58,-695.69 271.8,-698.23 275.15,-700.58"/>
<polygon fill="black" stroke="black" points="273.36,-703.59 283.67,-706.03 277.14,-697.69 273.36,-703.59"/>
</g>
<!-- built -->
<g id="node9" class="node">
<title>built</title>
<ellipse fill="none" stroke="black" cx="448.57" cy="-666" rx="27" ry="18"/>
<text text-anchor="middle" x="448.57" y="-662.3" font-family="Times New Roman,serif" font-size="14.00">built</text>
</g>
<!-- XXOOO3&#45;&gt;built -->
<g id="edge8" class="edge">
<title>XXOOO3&#45;&gt;built</title>
<path fill="none" stroke="black" d="M362.76,-666C378.61,-666 396.03,-666 410.94,-666"/>
<polygon fill="black" stroke="black" points="411.29,-669.5 421.29,-666 411.29,-662.5 411.29,-669.5"/>
</g>
<!-- GOGXG3 -->
<g id="node11" class="node">
<title>GOGXG3</title>
<ellipse fill="none" stroke="black" cx="314.43" cy="-450" rx="48.99" ry="18"/>
<text text-anchor="middle" x="314.43" y="-446.3" font-family="Times New Roman,serif" font-size="14.00">GOGXG3</text>
</g>
<!-- XXGOX2&#45;&gt;GOGXG3 -->
<g id="edge10" class="edge">
<title>XXGOX2&#45;&gt;GOGXG3</title>
<path fill="none" stroke="black" d="M214.1,-490.79C231.46,-483.66 253.07,-474.79 271.71,-467.13"/>
<polygon fill="black" stroke="black" points="273.22,-470.3 281.14,-463.26 270.56,-463.82 273.22,-470.3"/>
</g>
<!-- trial -->
<g id="node21" class="node">
<title>trial</title>
<ellipse fill="none" stroke="black" cx="314.43" cy="-612" rx="27" ry="18"/>
<text text-anchor="middle" x="314.43" y="-608.3" font-family="Times New Roman,serif" font-size="14.00">trial</text>
</g>
<!-- XXGOX2&#45;&gt;trial -->
<g id="edge20" class="edge">
<title>XXGOX2&#45;&gt;trial</title>
<path fill="none" stroke="black" d="M197.2,-521.13C213.2,-538.5 239.59,-565.51 265.68,-585 271.09,-589.04 277.16,-592.91 283.12,-596.4"/>
<polygon fill="black" stroke="black" points="281.83,-599.69 292.27,-601.53 285.26,-593.59 281.83,-599.69"/>
</g>
<!-- XXGGG3 -->
<g id="node32" class="node">
<title>XXGGG3</title>
<ellipse fill="none" stroke="black" cx="314.43" cy="-558" rx="48.19" ry="18"/>
<text text-anchor="middle" x="314.43" y="-554.3" font-family="Times New Roman,serif" font-size="14.00">XXGGG3</text>
</g>
<!-- XXGOX2&#45;&gt;XXGGG3 -->
<g id="edge32" class="edge">
<title>XXGOX2&#45;&gt;XXGGG3</title>
<path fill="none" stroke="black" d="M214.1,-517.21C231.46,-524.34 253.07,-533.21 271.71,-540.87"/>
<polygon fill="black" stroke="black" points="270.56,-544.18 281.14,-544.74 273.22,-537.7 270.56,-544.18"/>
</g>
<!-- XOGXG3 -->
<g id="node35" class="node">
<title>XOGXG3</title>
<ellipse fill="none" stroke="black" cx="314.43" cy="-504" rx="48.19" ry="18"/>
<text text-anchor="middle" x="314.43" y="-500.3" font-family="Times New Roman,serif" font-size="14.00">XOGXG3</text>
</g>
<!-- XXGOX2&#45;&gt;XOGXG3 -->
<g id="edge35" class="edge">
<title>XXGOX2&#45;&gt;XOGXG3</title>
<path fill="none" stroke="black" d="M229.04,-504C237.82,-504 247.08,-504 256.13,-504"/>
<polygon fill="black" stroke="black" points="256.22,-507.5 266.22,-504 256.22,-500.5 256.22,-507.5"/>
</g>
<!-- twirl -->
<g id="node12" class="node">
<title>twirl</title>
<ellipse fill="none" stroke="black" cx="448.57" cy="-450" rx="27" ry="18"/>
<text text-anchor="middle" x="448.57" y="-446.3" font-family="Times New Roman,serif" font-size="14.00">twirl</text>
</g>
<!-- GOGXG3&#45;&gt;twirl -->
<g id="edge11" class="edge">
<title>GOGXG3&#45;&gt;twirl</title>
<path fill="none" stroke="black" d="M363.51,-450C379.18,-450 396.32,-450 411.01,-450"/>
<polygon fill="black" stroke="black" points="411.22,-453.5 421.22,-450 411.22,-446.5 411.22,-453.5"/>
</g>
<!-- quill -->
<g id="node14" class="node">
<title>quill</title>
<ellipse fill="none" stroke="black" cx="448.57" cy="-774" rx="27" ry="18"/>
<text text-anchor="middle" x="448.57" y="-770.3" font-family="Times New Roman,serif" font-size="14.00">quill</text>
</g>
<!-- XOOOX3&#45;&gt;quill -->
<g id="edge13" class="edge">
<title>XOOOX3&#45;&gt;quill</title>
<path fill="none" stroke="black" d="M347.75,-733.21C368.47,-741.67 395.22,-752.61 415.82,-761.03"/>
<polygon fill="black" stroke="black" points="414.52,-764.27 425.1,-764.82 417.16,-757.79 414.52,-764.27"/>
</g>
<!-- GGGGO4 -->
<g id="node19" class="node">
<title>GGGGO4</title>
<ellipse fill="none" stroke="black" cx="448.57" cy="-720" rx="49.29" ry="18"/>
<text text-anchor="middle" x="448.57" y="-716.3" font-family="Times New Roman,serif" font-size="14.00">GGGGO4</text>
</g>
<!-- XOOOX3&#45;&gt;GGGGO4 -->
<g id="edge18" class="edge">
<title>XOOOX3&#45;&gt;GGGGO4</title>
<path fill="none" stroke="black" d="M362.76,-720C371.17,-720 380.02,-720 388.71,-720"/>
<polygon fill="black" stroke="black" points="388.79,-723.5 398.79,-720 388.79,-716.5 388.79,-723.5"/>
</g>
<!-- build -->
<g id="node16" class="node">
<title>build</title>
<ellipse fill="none" stroke="black" cx="314.43" cy="-234" rx="28.7" ry="18"/>
<text text-anchor="middle" x="314.43" y="-230.3" font-family="Times New Roman,serif" font-size="14.00">build</text>
</g>
<!-- XGGGG2&#45;&gt;build -->
<g id="edge15" class="edge">
<title>XGGGG2&#45;&gt;build</title>
<path fill="none" stroke="black" d="M218.91,-263.47C237.63,-257.63 260.22,-250.59 278.62,-244.85"/>
<polygon fill="black" stroke="black" points="279.86,-248.13 288.36,-241.82 277.77,-241.45 279.86,-248.13"/>
</g>
<!-- grill -->
<g id="node18" class="node">
<title>grill</title>
<ellipse fill="none" stroke="black" cx="448.57" cy="-369" rx="27" ry="18"/>
<text text-anchor="middle" x="448.57" y="-365.3" font-family="Times New Roman,serif" font-size="14.00">grill</text>
</g>
<!-- GXGGX3&#45;&gt;grill -->
<g id="edge17" class="edge">
<title>GXGGX3&#45;&gt;grill</title>
<path fill="none" stroke="black" d="M356.88,-350.47C374.68,-354.11 395.26,-358.31 412.32,-361.8"/>
<polygon fill="black" stroke="black" points="411.92,-365.29 422.42,-363.86 413.32,-358.43 411.92,-365.29"/>
</g>
<!-- drill -->
<g id="node28" class="node">
<title>drill</title>
<ellipse fill="none" stroke="black" cx="448.57" cy="-315" rx="27" ry="18"/>
<text text-anchor="middle" x="448.57" y="-311.3" font-family="Times New Roman,serif" font-size="14.00">drill</text>
</g>
<!-- GXGGX3&#45;&gt;drill -->
<g id="edge28" class="edge">
<title>GXGGX3&#45;&gt;drill</title>
<path fill="none" stroke="black" d="M356.88,-333.53C374.68,-329.89 395.26,-325.69 412.32,-322.2"/>
<polygon fill="black" stroke="black" points="413.32,-325.57 422.42,-320.14 411.92,-318.71 413.32,-325.57"/>
</g>
<!-- quilt -->
<g id="node20" class="node">
<title>quilt</title>
<ellipse fill="none" stroke="black" cx="560.97" cy="-720" rx="27" ry="18"/>
<text text-anchor="middle" x="560.97" y="-716.3" font-family="Times New Roman,serif" font-size="14.00">quilt</text>
</g>
<!-- GGGGO4&#45;&gt;quilt -->
<g id="edge19" class="edge">
<title>GGGGO4&#45;&gt;quilt</title>
<path fill="none" stroke="black" d="M497.99,-720C506.63,-720 515.49,-720 523.71,-720"/>
<polygon fill="black" stroke="black" points="523.72,-723.5 533.72,-720 523.72,-716.5 523.72,-723.5"/>
</g>
<!-- guilt -->
<g id="node23" class="node">
<title>guilt</title>
<ellipse fill="none" stroke="black" cx="314.43" cy="-180" rx="27" ry="18"/>
<text text-anchor="middle" x="314.43" y="-176.3" font-family="Times New Roman,serif" font-size="14.00">guilt</text>
</g>
<!-- GGGGX2&#45;&gt;guilt -->
<g id="edge22" class="edge">
<title>GGGGX2&#45;&gt;guilt</title>
<path fill="none" stroke="black" d="M223.9,-198.38C241.46,-194.78 261.62,-190.64 278.36,-187.2"/>
<polygon fill="black" stroke="black" points="279.2,-190.6 288.29,-185.16 277.79,-183.74 279.2,-190.6"/>
</g>
<!-- XXGGO3 -->
<g id="node25" class="node">
<title>XXGGO3</title>
<ellipse fill="none" stroke="black" cx="314.43" cy="-126" rx="48.19" ry="18"/>
<text text-anchor="middle" x="314.43" y="-122.3" font-family="Times New Roman,serif" font-size="14.00">XXGGO3</text>
</g>
<!-- XXGGX2&#45;&gt;XXGGO3 -->
<g id="edge24" class="edge">
<title>XXGGX2&#45;&gt;XXGGO3</title>
<path fill="none" stroke="black" d="M223.54,-107.54C235.65,-110.03 249.03,-112.78 261.69,-115.38"/>
<polygon fill="black" stroke="black" points="261.14,-118.84 271.64,-117.42 262.55,-111.98 261.14,-118.84"/>
</g>
<!-- XGGGG3 -->
<g id="node29" class="node">
<title>XGGGG3</title>
<ellipse fill="none" stroke="black" cx="314.43" cy="-72" rx="48.99" ry="18"/>
<text text-anchor="middle" x="314.43" y="-68.3" font-family="Times New Roman,serif" font-size="14.00">XGGGG3</text>
</g>
<!-- XXGGX2&#45;&gt;XGGGG3 -->
<g id="edge29" class="edge">
<title>XXGGX2&#45;&gt;XGGGG3</title>
<path fill="none" stroke="black" d="M223.54,-90.46C235.53,-87.99 248.77,-85.28 261.32,-82.7"/>
<polygon fill="black" stroke="black" points="262.1,-86.11 271.19,-80.67 260.69,-79.26 262.1,-86.11"/>
</g>
<!-- frill -->
<g id="node31" class="node">
<title>frill</title>
<ellipse fill="none" stroke="black" cx="314.43" cy="-18" rx="27" ry="18"/>
<text text-anchor="middle" x="314.43" y="-14.3" font-family="Times New Roman,serif" font-size="14.00">frill</text>
</g>
<!-- XXGGX2&#45;&gt;frill -->
<g id="edge31" class="edge">
<title>XXGGX2&#45;&gt;frill</title>
<path fill="none" stroke="black" d="M205.53,-83.27C222.18,-72.29 245.1,-57.44 265.68,-45 271.46,-41.51 277.7,-37.88 283.7,-34.46"/>
<polygon fill="black" stroke="black" points="285.84,-37.27 292.83,-29.3 282.4,-31.17 285.84,-37.27"/>
</g>
<!-- voila -->
<g id="node26" class="node">
<title>voila</title>
<ellipse fill="none" stroke="black" cx="448.57" cy="-126" rx="27.9" ry="18"/>
<text text-anchor="middle" x="448.57" y="-122.3" font-family="Times New Roman,serif" font-size="14.00">voila</text>
</g>
<!-- XXGGO3&#45;&gt;voila -->
<g id="edge25" class="edge">
<title>XXGGO3&#45;&gt;voila</title>
<path fill="none" stroke="black" d="M362.76,-126C378.37,-126 395.51,-126 410.27,-126"/>
<polygon fill="black" stroke="black" points="410.53,-129.5 420.53,-126 410.53,-122.5 410.53,-129.5"/>
</g>
<!-- XXGGO2&#45;&gt;GXGGX3 -->
<g id="edge27" class="edge">
<title>XXGGO2&#45;&gt;GXGGX3</title>
<path fill="none" stroke="black" d="M229.04,-342C237.82,-342 247.08,-342 256.13,-342"/>
<polygon fill="black" stroke="black" points="256.22,-345.5 266.22,-342 256.22,-338.5 256.22,-345.5"/>
</g>
<!-- daily -->
<g id="node34" class="node">
<title>daily</title>
<ellipse fill="none" stroke="black" cx="314.43" cy="-288" rx="27.9" ry="18"/>
<text text-anchor="middle" x="314.43" y="-284.3" font-family="Times New Roman,serif" font-size="14.00">daily</text>
</g>
<!-- XXGGO2&#45;&gt;daily -->
<g id="edge34" class="edge">
<title>XXGGO2&#45;&gt;daily</title>
<path fill="none" stroke="black" d="M214.1,-328.79C234.36,-320.47 260.43,-309.77 280.77,-301.41"/>
<polygon fill="black" stroke="black" points="282.33,-304.55 290.25,-297.52 279.67,-298.08 282.33,-304.55"/>
</g>
<!-- krill -->
<g id="node30" class="node">
<title>krill</title>
<ellipse fill="none" stroke="black" cx="448.57" cy="-72" rx="27" ry="18"/>
<text text-anchor="middle" x="448.57" y="-68.3" font-family="Times New Roman,serif" font-size="14.00">krill</text>
</g>
<!-- XGGGG3&#45;&gt;krill -->
<g id="edge30" class="edge">
<title>XGGGG3&#45;&gt;krill</title>
<path fill="none" stroke="black" d="M363.51,-72C379.18,-72 396.32,-72 411.01,-72"/>
<polygon fill="black" stroke="black" points="411.22,-75.5 421.22,-72 411.22,-68.5 411.22,-75.5"/>
</g>
<!-- axial -->
<g id="node33" class="node">
<title>axial</title>
<ellipse fill="none" stroke="black" cx="448.57" cy="-558" rx="27" ry="18"/>
<text text-anchor="middle" x="448.57" y="-554.3" font-family="Times New Roman,serif" font-size="14.00">axial</text>
</g>
<!-- XXGGG3&#45;&gt;axial -->
<g id="edge33" class="edge">
<title>XXGGG3&#45;&gt;axial</title>
<path fill="none" stroke="black" d="M362.76,-558C378.61,-558 396.03,-558 410.94,-558"/>
<polygon fill="black" stroke="black" points="411.29,-561.5 421.29,-558 411.29,-554.5 411.29,-561.5"/>
</g>
<!-- whirl -->
<g id="node36" class="node">
<title>whirl</title>
<ellipse fill="none" stroke="black" cx="448.57" cy="-504" rx="28.7" ry="18"/>
<text text-anchor="middle" x="448.57" y="-500.3" font-family="Times New Roman,serif" font-size="14.00">whirl</text>
</g>
<!-- XOGXG3&#45;&gt;whirl -->
<g id="edge36" class="edge">
<title>XOGXG3&#45;&gt;whirl</title>
<path fill="none" stroke="black" d="M362.76,-504C378.14,-504 394.99,-504 409.59,-504"/>
<polygon fill="black" stroke="black" points="409.77,-507.5 419.77,-504 409.77,-500.5 409.77,-507.5"/>
</g>
</g>
</svg>
